<svg width="24" height="24" viewBox="0 0 24 24" fill="none" xmlns="http://www.w3.org/2000/svg">
<path fill-rule="evenodd" clip-rule="evenodd" d="M10.2186 1.71875C5.52154 1.71875 1.71387 5.52643 1.71387 10.2234C1.71387 14.9204 5.52154 18.7281 10.2186 18.7281C12.3401 18.7281 14.2802 17.9513 15.77 16.6666L15.6704 16.7662L21.1939 22.2897L22.2853 21.1983L16.7617 15.6748L16.6617 15.7749C17.9464 14.2851 18.7232 12.345 18.7232 10.2234C18.7232 5.52643 14.9156 1.71875 10.2186 1.71875ZM3.25731 10.2234C3.25731 6.37885 6.37396 3.26219 10.2186 3.26219C14.0631 3.26219 17.1798 6.37885 17.1798 10.2234C17.1798 14.068 14.0631 17.1847 10.2186 17.1847C6.37396 17.1847 3.25731 14.068 3.25731 10.2234Z" fill="white"/>
</svg>
