<svg xmlns="http://www.w3.org/2000/svg" width="24" height="24" fill="none"><path fill="#fff" fill-rule="evenodd" d="M12 1.719c-5.681 0-10.286 4.605-10.286 10.286S6.319 22.29 12 22.29s10.285-4.605 10.285-10.285C22.285 6.324 17.68 1.719 12 1.719m-1.63 1.693a8.75 8.75 0 0 0-7.08 7.822h4.334a17.2 17.2 0 0 1 2.746-7.822m3.259 0a17.2 17.2 0 0 1 2.747 7.822h4.334a8.75 8.75 0 0 0-7.081-7.822m1.197 7.822A15.65 15.65 0 0 0 12 3.76a15.65 15.65 0 0 0-2.827 7.473zm-5.653 1.541h5.653A15.65 15.65 0 0 1 12 20.248a15.65 15.65 0 0 1-2.827-7.473m-1.55 0H3.29a8.75 8.75 0 0 0 7.081 7.822 17.2 17.2 0 0 1-2.746-7.822m6.006 7.822a17.2 17.2 0 0 0 2.747-7.822h4.334a8.75 8.75 0 0 1-7.081 7.822" clip-rule="evenodd"/></svg>