<svg width="35" height="35" viewBox="0 0 35 35" fill="none" xmlns="http://www.w3.org/2000/svg">
<path fill-rule="evenodd" clip-rule="evenodd" d="M5.20981 15.1769C5.20981 9.67373 9.67105 5.2125 15.1743 5.2125C20.6775 5.2125 25.1387 9.67373 25.1387 15.1769C25.1387 20.6802 20.6775 25.1414 15.1743 25.1414C9.67105 25.1414 5.20981 20.6802 5.20981 15.1769ZM15.1743 2.8125C8.34557 2.8125 2.80981 8.34825 2.80981 15.1769C2.80981 22.0056 8.34557 27.5414 15.1743 27.5414C18.188 27.5414 20.9499 26.4632 23.0952 24.6714L30.1366 31.8318L31.8478 30.149L24.7804 22.9622C26.5052 20.8367 27.5387 18.1275 27.5387 15.1769C27.5387 8.34825 22.003 2.8125 15.1743 2.8125Z" fill="#333333"/>
</svg>
