<svg width="24" height="24" viewBox="0 0 24 24" fill="none" xmlns="http://www.w3.org/2000/svg">
<path fill-rule="evenodd" clip-rule="evenodd" d="M11.9996 1.71875C6.31894 1.71875 1.71387 6.32382 1.71387 12.0045C1.71387 17.6851 6.31894 22.2902 11.9996 22.2902C17.6802 22.2902 22.2853 17.6851 22.2853 12.0045C22.2853 6.32382 17.6802 1.71875 11.9996 1.71875ZM10.3702 3.41198C6.56591 4.12896 3.63177 7.30994 3.28906 11.2336H7.62361C7.88797 8.43657 8.83333 5.75179 10.3702 3.41198ZM13.629 3.41198C15.1658 5.75179 16.1112 8.43657 16.3756 11.2336H20.7101C20.3674 7.30994 17.4333 4.12896 13.629 3.41198ZM14.8263 11.2336C14.5463 8.53925 13.5717 5.96422 11.9996 3.76065C10.4274 5.96422 9.45285 8.53925 9.17284 11.2336H14.8263ZM9.17284 12.7753H14.8263C14.5463 15.4697 13.5717 18.0447 11.9996 20.2483C10.4274 18.0447 9.45285 15.4697 9.17284 12.7753ZM7.62361 12.7753H3.28906C3.63177 16.699 6.56591 19.88 10.3702 20.597C8.83333 18.2571 7.88797 15.5724 7.62361 12.7753ZM13.629 20.597C15.1658 18.2571 16.1112 15.5724 16.3756 12.7753H20.7101C20.3674 16.699 17.4333 19.88 13.629 20.597Z" fill="white"/>
</svg>
