<svg width="112" height="112" viewBox="0 0 112 112" fill="none" xmlns="http://www.w3.org/2000/svg">
<path d="M73.7422 73.4443C78.9111 73.7068 83.0221 77.9817 83.0225 83.2158L83.0098 83.7188C82.7564 88.7215 78.7448 92.7332 73.7422 92.9873L73.2383 93H24.7842L24.2803 92.9873C19.2775 92.7335 15.2661 88.7217 15.0127 83.7188L15 83.2158C15.0004 77.9815 19.1111 73.7066 24.2803 73.4443L24.7842 73.4316H73.2383L73.7422 73.4443ZM24.7842 75.4316C20.4854 75.4317 17.0004 78.9171 17 83.2158C17 87.5148 20.4852 91 24.7842 91H73.2383C77.5369 90.9995 81.0224 87.5145 81.0225 83.2158C81.0221 78.9174 77.5367 75.4321 73.2383 75.4316H24.7842ZM36.8975 84.6816H24.3184V82.6816H36.8975V84.6816ZM85.8213 39.8867H101.662L81.918 58.4336C82.6211 59.7029 83.0224 61.1631 83.0225 62.7168L83.0107 63.1719C82.7813 67.6979 79.1519 71.3278 74.626 71.5576L74.1709 71.5684H23.8525L23.3965 71.5576C18.8703 71.328 15.2412 67.6981 15.0117 63.1719L15 62.7168C15.0002 57.9809 18.7195 54.1132 23.3965 53.876L23.8525 53.8643H70.9121V52H24.7842L24.2803 51.9873C19.2775 51.7335 15.2661 47.7217 15.0127 42.7188L15 42.2158C15.0004 36.9815 19.1111 32.7066 24.2803 32.4443L24.7842 32.4316H63.0068L85.8213 11V39.8867ZM23.8525 55.8643C20.0683 55.8643 17.0002 58.9326 17 62.7168C17.0003 66.5009 20.0683 69.5683 23.8525 69.5684H74.1709C77.9545 69.5676 81.0222 66.5005 81.0225 62.7168C81.0224 61.697 80.7976 60.7299 80.3975 59.8604L70.9121 68.7725V55.8643H23.8525ZM36.8975 64.1826H24.3184V62.1826H36.8975V64.1826ZM60.1211 37.8867H72.9121V64.1494L96.6113 41.8867H83.8213V15.6221L60.1211 37.8867ZM24.7842 34.4316C20.4854 34.4317 17.0004 37.9171 17 42.2158C17 46.5148 20.4852 50 24.7842 50H70.9121V39.8867H55.0713L60.8779 34.4316H24.7842ZM36.8975 42.75H24.3184V40.75H36.8975V42.75Z" fill="url(#paint0_linear_385_6488)"/>
<defs>
<linearGradient id="paint0_linear_385_6488" x1="24.8819" y1="53.7394" x2="24.8819" y2="94.1325" gradientUnits="userSpaceOnUse">
<stop stop-color="#A34DEE"/>
<stop offset="1" stop-color="#6943F5"/>
</linearGradient>
</defs>
</svg>
