<svg xmlns="http://www.w3.org/2000/svg" width="112" height="112" fill="none"><path fill="url(#a)" fill-rule="evenodd" d="M24.448 55.45c0-17.12 13.878-30.998 30.999-30.998S86.446 38.33 86.446 55.45s-13.879 30.999-31 30.999c-17.12 0-30.998-13.879-30.998-31m30.999-31.598c-17.452 0-31.6 14.147-31.6 31.599s14.148 31.599 31.6 31.599c17.451 0 31.599-14.148 31.599-31.6 0-17.451-14.148-31.598-31.6-31.598m.3 12.82a.3.3 0 1 0-.6 0V55.45a.3.3 0 0 0 .166.268l12.52 6.26a.3.3 0 1 0 .268-.537l-12.354-6.177z" clip-rule="evenodd"/><path fill="url(#b)" d="M56.584 36.665a1.137 1.137 0 1 0-2.275 0v18.78c0 .43.243.824.629 1.017l12.52 6.26a1.138 1.138 0 0 0 1.017-2.035L56.584 54.74z"/><path fill="url(#c)" fill-rule="evenodd" d="M55.446 23.008c-17.914 0-32.436 14.522-32.436 32.436s14.522 32.437 32.436 32.437S87.883 73.36 87.883 55.444 73.361 23.008 55.446 23.008M25.285 55.444c0-16.657 13.504-30.161 30.161-30.161s30.162 13.504 30.162 30.161-13.504 30.162-30.162 30.162c-16.657 0-30.161-13.504-30.161-30.162" clip-rule="evenodd"/><defs><linearGradient id="a" x1="55.447" x2="55.447" y1="23.852" y2="87.05" gradientUnits="userSpaceOnUse"><stop stop-color="#505BFD"/><stop offset="1" stop-color="#B542FD"/></linearGradient><linearGradient id="b" x1="55.446" x2="55.446" y1="23.008" y2="87.881" gradientUnits="userSpaceOnUse"><stop stop-color="#505BFD"/><stop offset="1" stop-color="#B542FD"/></linearGradient><linearGradient id="c" x1="55.446" x2="55.446" y1="23.008" y2="87.881" gradientUnits="userSpaceOnUse"><stop stop-color="#505BFD"/><stop offset="1" stop-color="#B542FD"/></linearGradient></defs></svg>