<svg xmlns="http://www.w3.org/2000/svg" width="85" height="84" fill="none"><path fill="#121212" d="M32.543 27.027a14.765 14.765 0 0 1 19.305 9.733h1.808a9.439 9.439 0 0 1 0 18.877H37.68a14.762 14.762 0 0 1-11.686-23.8 14.76 14.76 0 0 1 6.55-4.81m7.875.487a13.639 13.639 0 1 0-2.74 26.998h15.978a8.314 8.314 0 1 0 0-16.627H51.42a.56.56 0 0 1-.544-.422 13.64 13.64 0 0 0-10.457-9.949"/><path fill="#121212" fill-rule="evenodd" d="M32.54 27.028a14.765 14.765 0 0 1 19.306 9.733h1.808a9.44 9.44 0 0 1 0 18.877H37.677a14.766 14.766 0 0 1-5.136-28.61m7.876.486a13.64 13.64 0 0 0-16.319 11.983 13.64 13.64 0 0 0 13.58 15.016h15.977a8.314 8.314 0 0 0 0-16.627h-2.237a.56.56 0 0 1-.544-.422 13.64 13.64 0 0 0-10.457-9.95" clip-rule="evenodd"/></svg>