<svg width="112" height="112" viewBox="0 0 112 112" fill="none" xmlns="http://www.w3.org/2000/svg">
<path d="M84 97.1611H28V16.9453H84V97.1611ZM30 95.1611H82V18.9453H30V95.1611ZM49.9443 73.1885H38.0791V85.0537H36.0791V71.1885H49.9443V73.1885ZM51.7695 75.3184L44.043 83.0449L39.4004 78.4023L40.8145 76.9883L44.043 80.2168L50.3555 73.9043L51.7695 75.3184ZM49.9443 52H38.0791V63.8652H36.0791V50H49.9443V52ZM51.7695 54.1279L44.043 61.8545L39.4004 57.2119L40.8145 55.7979L44.043 59.0264L50.3555 52.7139L51.7695 54.1279ZM49.9443 30.8105H38.0791V42.6758H36.0791V28.8105H49.9443V30.8105ZM51.7695 32.9404L44.043 40.666L39.4004 36.0244L40.8145 34.6094L44.043 37.8379L50.3555 31.5254L51.7695 32.9404Z" fill="url(#paint0_linear_385_6744)"/>
<defs>
<linearGradient id="paint0_linear_385_6744" x1="51.8667" y1="71.4312" x2="51.8668" y2="92.5158" gradientUnits="userSpaceOnUse">
<stop stop-color="#A34DEE"/>
<stop offset="1" stop-color="#6943F5"/>
</linearGradient>
</defs>
</svg>
