<svg xmlns="http://www.w3.org/2000/svg" width="113" height="113" fill="none"><path fill="#fff" d="M23.626 26.34c.57 0 1.033.464 1.033 1.035v54.79l.004.16a3.1 3.1 0 0 0 3.098 2.942h62.027l.106.005a1.034 1.034 0 0 1 0 2.058l-.106.005H27.761a5.17 5.17 0 0 1-5.162-4.904l-.007-.265V27.375c0-.571.463-1.034 1.034-1.034"/><path fill="#fff" d="M82.505 41.146q.028 0 .055.002l.03.002.028.004.018.002.067.012.05.013.034.01a1 1 0 0 1 .233.104l.024.015q.03.019.058.041l.014.011a1 1 0 0 1 .078.067l.021.019q.01.01.018.02a1 1 0 0 1 .062.072l.024.031q.075.102.121.217l.011.03q.063.17.065.349l.001.012v11.79a1.035 1.035 0 0 1-2.067 0v-9.294L64.546 61.58a1.035 1.035 0 0 1-1.462 0l-9.095-9.096-14.006 14.008a1.034 1.034 0 0 1-1.462-1.462l14.738-14.738.076-.069a1.035 1.035 0 0 1 1.386.069l9.094 9.094L79.99 43.213h-9.297a1.034 1.034 0 0 1 0-2.068h11.791z"/></svg>