<svg width="112" height="112" viewBox="0 0 112 112" fill="none" xmlns="http://www.w3.org/2000/svg">
<path d="M87.9766 52C89.1914 52.0002 90.1768 52.9853 90.1768 54.2002V55.5312C91.2297 55.8363 92.2262 56.2736 93.1455 56.8252L93.7959 56.1758L93.9629 56.0254C94.7695 55.3676 95.9338 55.3675 96.7402 56.0254L96.9072 56.1768L98.7705 58.04L98.9219 58.207C99.5794 59.0135 99.5796 60.178 98.9219 60.9844L98.7705 61.1514L97.9365 61.9844C98.2817 62.6699 98.5662 63.3914 98.7832 64.1416H100.117C101.332 64.1418 102.317 65.1269 102.317 66.3418V68.9766C102.317 70.1913 101.332 71.1766 100.117 71.1768H98.7803C98.4754 72.2283 98.0383 73.2232 97.4873 74.1416L98.5557 75.21C99.3609 76.0155 99.4117 77.2903 98.707 78.1543L98.5557 78.3213L96.6924 80.1846C95.8333 81.0433 94.4401 81.0423 93.5811 80.1836L92.3291 78.9316C91.6451 79.2762 90.9254 79.5604 90.1768 79.7773V81.1162C90.1766 82.331 89.1913 83.3162 87.9766 83.3164H85.3418C84.1269 83.3164 83.1418 82.3311 83.1416 81.1162V79.7773C82.3927 79.5603 81.6724 79.2763 80.9883 78.9316L79.7383 80.1836C78.933 80.9891 77.6582 81.0395 76.7939 80.335L76.627 80.1846L74.7637 78.3213C73.9044 77.4623 73.9037 76.0693 74.7627 75.21L75.8301 74.1416C75.2792 73.2234 74.8429 72.2281 74.5381 71.1768H73.2002C71.985 71.1768 70.9998 70.1908 71 68.9756L71.001 66.3408L71.0127 66.1162C71.1256 65.007 72.0623 64.1416 73.2012 64.1416H74.5352C74.7522 63.3912 75.0356 62.6691 75.3809 61.9834L74.5488 61.1514C73.6898 60.2924 73.689 58.8993 74.5479 58.04L76.4111 56.1768L76.5781 56.0254C77.3846 55.3676 78.549 55.3675 79.3555 56.0254L79.5225 56.1768L80.1709 56.8252C81.0909 56.2732 82.0881 55.8363 83.1416 55.5312V54.2002C83.1416 52.9852 84.1268 52 85.3418 52H87.9766ZM85.3008 54.0039C85.2098 54.0227 85.1416 54.1037 85.1416 54.2002V56.9668L85.1289 57.0381C85.1037 57.1044 85.0433 57.1551 84.9697 57.167L84.6299 57.2266C82.9365 57.554 81.3862 58.2831 80.083 59.3115L80.0176 59.3467C79.9712 59.3612 79.9204 59.3581 79.876 59.3389L79.8145 59.2969L78.1084 57.5908C78.0303 57.5127 77.9033 57.5127 77.8252 57.5908L75.9629 59.4541C75.8848 59.5322 75.8848 59.6592 75.9629 59.7373L77.7705 61.5449C77.8381 61.613 77.8479 61.7197 77.7949 61.7998L77.501 62.2705C76.8423 63.3886 76.3822 64.6378 76.1699 65.9697L76.1465 66.0381C76.1232 66.0794 76.0862 66.1121 76.042 66.1289L75.9707 66.1416H73.2012L73.1602 66.1455C73.0692 66.1643 73.001 66.2453 73.001 66.3418L73 68.9766C73.0001 69.0733 73.0689 69.1544 73.1602 69.1729L73.2002 69.1768H75.9727C76.072 69.1769 76.1571 69.2505 76.1729 69.3486C76.4651 71.1726 77.2205 72.8418 78.3164 74.2305C78.3795 74.3111 78.3742 74.4266 78.3018 74.499L76.1777 76.624C76.0996 76.7021 76.0996 76.8291 76.1777 76.9072L78.041 78.7695C78.1095 78.8377 78.2154 78.8465 78.293 78.7949L78.3242 78.7695L80.5498 76.543C80.6179 76.4751 80.7245 76.4655 80.8047 76.5186C82.0372 77.3343 83.4495 77.8996 84.9697 78.1426C85.0678 78.1584 85.1416 78.2434 85.1416 78.3428V81.1162C85.1417 81.2126 85.2099 81.2937 85.3008 81.3125L85.3418 81.3164H87.9766L88.0166 81.3125C88.0949 81.2966 88.1569 81.2345 88.1729 81.1562L88.1768 81.1162V78.3428C88.1768 78.2433 88.2504 78.1583 88.3486 78.1426C89.8689 77.8996 91.2811 77.3343 92.5137 76.5186C92.5939 76.4655 92.7005 76.4751 92.7686 76.543L94.9951 78.7695C95.0636 78.8377 95.1695 78.8464 95.2471 78.7949L95.2783 78.7695L97.1416 76.9072C97.21 76.8389 97.2182 76.7329 97.167 76.6553L97.1416 76.624L95.0166 74.499C94.9441 74.4265 94.9385 74.3111 95.002 74.2305C96.0979 72.8418 96.8532 71.1727 97.1455 69.3486C97.1573 69.2749 97.2079 69.2146 97.2744 69.1895L97.3447 69.1768H100.117L100.157 69.1729C100.236 69.1569 100.298 69.0949 100.313 69.0166L100.317 68.9766V66.3418C100.317 66.2451 100.248 66.1641 100.157 66.1455L100.117 66.1416H97.3477L97.2764 66.1289C97.2321 66.1122 97.1952 66.0794 97.1719 66.0381L97.1475 65.9697C96.9352 64.6379 96.476 63.3885 95.8174 62.2705L95.5234 61.7998C95.4704 61.7196 95.4799 61.613 95.5479 61.5449L97.3564 59.7373C97.4248 59.669 97.4331 59.563 97.3818 59.4854L97.3564 59.4541L95.4932 57.5908C95.4151 57.5127 95.2881 57.5127 95.21 57.5908L93.5029 59.2969L93.4414 59.3389C93.397 59.3582 93.3463 59.3611 93.2998 59.3467L93.2344 59.3115C91.9314 58.2833 90.3814 57.5541 88.6885 57.2266L88.3486 57.167C88.275 57.1552 88.2147 57.1044 88.1895 57.0381L88.1768 56.9668V54.2002C88.1768 54.1035 88.1078 54.0225 88.0166 54.0039L87.9766 54H85.3418L85.3008 54.0039ZM85.5391 26.0049C87.6524 26.112 89.3328 27.8601 89.333 30V49.1416C88.6761 49.0612 88.0088 49.0155 87.333 49.0039V30C87.3328 28.8956 86.4375 28 85.333 28H23C21.8955 28 21.0002 28.8956 21 30V59.6523H69.4072V61.6523H21V66.1074C21.0001 67.2119 21.8955 68.1074 23 68.1074H68.001C68.0047 68.783 68.0437 69.4503 68.1162 70.1074H60.9365V78.208H70.6055V80.208H31V78.208H47.126V70.1074H23L22.7939 70.1025C20.7489 69.9988 19.1087 68.3586 19.0049 66.3135L19 66.1074V30C19.0002 27.8601 20.6807 26.1121 22.7939 26.0049L23 26H85.333L85.5391 26.0049ZM49.126 78.208H58.9365V70.1074H49.126V78.208ZM86.6611 61.5859C89.909 61.5859 92.561 64.1363 92.7236 67.3438L92.7314 67.6562C92.7314 70.904 90.181 73.5562 86.9736 73.7188L86.6611 73.7266C83.3087 73.7264 80.5909 71.0087 80.5908 67.6562L80.5986 67.3438C80.756 64.2399 83.2448 61.7513 86.3486 61.5938L86.6611 61.5859ZM86.6611 63.5859C84.4132 63.5861 82.5909 65.4083 82.5908 67.6562C82.5909 69.9042 84.4132 71.7264 86.6611 71.7266C88.9091 71.7266 90.7314 69.9042 90.7314 67.6562C90.7314 65.4082 88.9092 63.5859 86.6611 63.5859Z" fill="url(#paint0_linear_388_15957)"/>
<defs>
<linearGradient id="paint0_linear_388_15957" x1="49.0462" y1="26" x2="49.0462" y2="83.6966" gradientUnits="userSpaceOnUse">
<stop stop-color="#A34DEE"/>
<stop offset="1" stop-color="#6943F5"/>
</linearGradient>
</defs>
</svg>
