<svg xmlns="http://www.w3.org/2000/svg" width="112" height="112" fill="none"><path fill="url(#a)" d="M82.907 29.314a37.5 37.5 0 0 1 7.757 11.305l.363.848a37.46 37.46 0 0 1 0 28.67l-.363.847a37.5 37.5 0 0 1-7.757 11.306l-.66.644A37.46 37.46 0 0 1 57.42 93.248v8.06l-1.581-1.13-9.943-7.103-1.14-.813 1.14-.814 9.943-7.102 1.58-1.13v5.731h-2v-1.844l-7.222 5.159 7.223 5.16v-6.16h1a35.46 35.46 0 0 0 24.45-9.777l.624-.609a35.5 35.5 0 0 0 7.343-10.702l.344-.802a35.46 35.46 0 0 0 0-27.14l-.344-.802a35.5 35.5 0 0 0-7.343-10.702zM56.053 11.426l9.943 7.102 1.14.814-1.14.813-9.943 7.103-1.581 1.13v-5.732h2v1.845l7.222-5.16-7.222-5.16v6.16h-1a35.46 35.46 0 0 0-24.45 9.777l-.624.61a35.5 35.5 0 0 0-7.343 10.702l-.344.801a35.46 35.46 0 0 0 0 27.141l.344.802a35.5 35.5 0 0 0 7.343 10.702l-1.415 1.414a37.5 37.5 0 0 1-7.756-11.306l-.364-.847a37.46 37.46 0 0 1 0-28.67l.364-.848a37.5 37.5 0 0 1 7.756-11.305l.66-.644a37.46 37.46 0 0 1 24.829-10.315v-8.06zm.14 23.273 4.406 2.427a9.44 9.44 0 0 0 6.933.865l4.026-1.05 1.252-.327v22.301c0 5.698-3.031 10.966-7.957 13.831l-9.22 5.362-.501.292-.503-.292-8.062-4.688a16 16 0 0 1-7.956-13.831V36.614l1.253.327 4.025 1.05.44.104a9.44 9.44 0 0 0 6.493-.969l4.406-2.427.483-.265zm-4.406 4.179a11.44 11.44 0 0 1-7.87 1.174l-.533-.125-2.773-.725V59.59a14 14 0 0 0 6.962 12.101l7.558 4.396 8.718-5.068a14 14 0 0 0 6.96-12.103V39.202l-2.772.725c-2.832.739-5.84.363-8.403-1.05l-3.924-2.16zm15.076 11.579L54.705 63.715l-.789.861-.73-.913-5.834-7.314 1.562-1.248 5.106 6.401L65.39 49.105z"/><defs><linearGradient id="a" x1="24.022" x2="83.053" y1="135.102" y2="135.102" gradientUnits="userSpaceOnUse"><stop stop-color="#A34DEE"/><stop offset="1" stop-color="#6943F5"/></linearGradient></defs></svg>