<svg width="112" height="112" viewBox="0 0 112 112" fill="none" xmlns="http://www.w3.org/2000/svg">
<path d="M82.9072 29.3135C86.1682 32.5745 88.797 36.408 90.6641 40.6191L91.0273 41.4668C92.9098 46.0116 93.8789 50.8826 93.8789 55.8018C93.8789 60.721 92.9098 65.5919 91.0273 70.1367L90.6641 70.9844C88.797 75.1956 86.1683 79.029 82.9072 82.29L82.2471 82.9336C78.9106 86.1098 75.0147 88.6453 70.7539 90.4102C66.5173 92.165 61.9973 93.1258 57.4189 93.248V101.308L55.8379 100.178L45.8945 93.0752L44.7549 92.2617L45.8945 91.4482L55.8379 84.3457L57.4189 83.2158V88.9473H55.4189V87.1025L48.1963 92.2617L55.4189 97.4219V91.2617H56.4189C61.0756 91.2617 65.6871 90.3445 69.9893 88.5625C74.0224 86.8919 77.7099 84.4918 80.8682 81.4854L81.4932 80.876C84.5801 77.789 87.0686 74.1602 88.8359 70.1738L89.1797 69.3721C90.9617 65.0699 91.8789 60.4584 91.8789 55.8018C91.8789 51.1451 90.9617 46.5336 89.1797 42.2314L88.8359 41.4297C87.0686 37.4433 84.5801 33.8145 81.4932 30.7275L82.9072 29.3135ZM56.0527 11.4258L65.9961 18.5283L67.1357 19.3418L65.9961 20.1553L56.0527 27.2578L54.4717 28.3877V22.6562H56.4717V24.501L63.6943 19.3418L56.4717 14.1816V20.3418H55.4717C50.815 20.3418 46.2036 21.259 41.9014 23.041C37.8683 24.7116 34.1807 27.1117 31.0225 30.1182L30.3975 30.7275C27.3105 33.8145 24.822 37.4433 23.0547 41.4297L22.7109 42.2314C20.9289 46.5336 20.0117 51.1451 20.0117 55.8018C20.0117 60.4584 20.9289 65.0699 22.7109 69.3721L23.0547 70.1738C24.822 74.1602 27.3105 77.7891 30.3975 80.876L28.9834 82.29C25.7224 79.029 23.0936 75.1956 21.2266 70.9844L20.8633 70.1367C18.9808 65.592 18.0117 60.721 18.0117 55.8018C18.0117 50.8825 18.9808 46.0116 20.8633 41.4668L21.2266 40.6191C23.0936 36.4079 25.7224 32.5745 28.9834 29.3135L29.6436 28.6699C32.98 25.4938 36.876 22.9582 41.1367 21.1934C45.3733 19.4386 49.8933 18.4777 54.4717 18.3555V10.2959L56.0527 11.4258ZM56.1934 34.6992L60.5986 37.126C62.7138 38.291 65.1957 38.6008 67.5322 37.9912L71.5576 36.9414L72.8096 36.6143V58.915C72.8096 64.613 69.7789 69.8813 64.8535 72.7461L55.6338 78.1084L55.1318 78.4004L54.6289 78.1084L46.5674 73.4199C41.6418 70.5552 38.6114 65.2869 38.6113 59.5889V36.6143L39.8643 36.9414L43.8887 37.9912L44.3281 38.0947C46.5338 38.5588 48.8392 38.2182 50.8223 37.126L55.2285 34.6992L55.7109 34.4336L56.1934 34.6992ZM51.7871 38.8779C49.3838 40.2016 46.5901 40.614 43.917 40.0518L43.3838 39.9268L40.6113 39.2021V59.5889C40.6114 64.5746 43.2634 69.1838 47.5732 71.6904L55.1309 76.0859L63.8486 71.0176C68.1582 68.5109 70.8096 63.9007 70.8096 58.915V39.2021L68.0371 39.9268C65.2052 40.6655 62.1973 40.2899 59.6338 38.8779L55.71 36.7168L51.7871 38.8779ZM66.8633 50.457L54.7051 63.7148L53.916 64.5762L53.1865 63.6631L47.3516 56.3486L48.9141 55.1006L54.0205 61.502L65.3887 49.1055L66.8633 50.457Z" fill="url(#paint0_linear_385_6884)"/>
<defs>
<linearGradient id="paint0_linear_385_6884" x1="24.0222" y1="135.102" x2="83.0533" y2="135.102" gradientUnits="userSpaceOnUse">
<stop stop-color="#A34DEE"/>
<stop offset="1" stop-color="#6943F5"/>
</linearGradient>
</defs>
</svg>
