<svg xmlns="http://www.w3.org/2000/svg" width="85" height="85" fill="none"><path fill="#121212" d="M33.79 28.97a.673.673 0 0 1 .895.105l.043.054 5.207 7.335 4.315-4.421.05-.047a.673.673 0 0 1 .928.063l6.28 6.873a.673.673 0 0 1-.991.907l-5.802-6.348-4.38 4.489a.673.673 0 0 1-1.03-.08l-5.674-7.992-.036-.059a.67.67 0 0 1 .195-.88"/><path fill="#121212" fill-rule="evenodd" d="M65.463 19.31a.672.672 0 0 1 0 1.338l-.07.003h-4.442v28.907l-.003.069-.001.002h4.447l.069.004a.673.673 0 0 1 0 1.338l-.07.003H43.268v5.9l12.574 8.448.055.041a.673.673 0 0 1-.745 1.111l-.06-.035-11.824-7.945v6.982a.673.673 0 0 1-1.345 0v-7.19L29.79 66.44l-.06.035a.673.673 0 0 1-.745-1.11l.055-.042 12.832-8.62.051-.032v-5.696H19.797a.672.672 0 1 1 0-1.344h4.447v-.003l-.004-.07V20.652h-4.443a.672.672 0 0 1 0-1.344h45.597zM25.585 49.558l-.004.069v.002h34.03l-.002-.002-.003-.07V20.652H25.585z" clip-rule="evenodd"/></svg>