<svg xmlns="http://www.w3.org/2000/svg" width="85" height="85" fill="none"><path fill="#fff" d="M17.783 19.965c.428 0 .775.347.775.775v41.094l.003.12a2.326 2.326 0 0 0 2.323 2.206h46.521l.08.003a.776.776 0 0 1 0 1.544l-.08.003h-46.52a3.877 3.877 0 0 1-3.872-3.677l-.005-.2V20.74c0-.428.347-.775.775-.775"/><path fill="#fff" d="m61.942 31.069.042.001.022.002.022.003.013.001.05.01q.02.003.038.01l.025.006a1 1 0 0 1 .11.043l.019.01.046.026.018.01q.023.014.044.032l.01.008q.02.014.039.032l.02.018.015.014.014.015.023.025.023.03.018.023a.8.8 0 0 1 .091.162l.009.022a.8.8 0 0 1 .048.262v8.852a.776.776 0 0 1-1.55 0v-6.97L48.474 46.393a.776.776 0 0 1-1.097 0l-6.821-6.821L30.05 50.078a.776.776 0 0 1-1.096-1.097l11.054-11.054.056-.051a.776.776 0 0 1 1.04.051l6.82 6.82 12.13-12.128h-6.972a.775.775 0 0 1 0-1.551h8.859"/></svg>