<svg xmlns="http://www.w3.org/2000/svg" width="85" height="85" fill="none"><path fill="#000" fill-rule="evenodd" d="M59.829 17.962a2.25 2.25 0 0 1 2.25 2.25v44.733a2.25 2.25 0 0 1-2.25 2.25h-30.72a6.717 6.717 0 0 1-6.708-6.383l-.008-.334v-35.8a6.716 6.716 0 0 1 6.716-6.716zm-30.72 37.3a5.217 5.217 0 0 0-5.216 5.215l.006.26a5.216 5.216 0 0 0 5.21 4.958h30.72a.75.75 0 0 0 .75-.75v-9.684zm0-35.8a5.217 5.217 0 0 0-5.216 5.216v31.57a6.71 6.71 0 0 1 5.216-2.487h31.47v-33.55a.75.75 0 0 0-.75-.75z" clip-rule="evenodd"/></svg>