<svg xmlns="http://www.w3.org/2000/svg" width="113" height="113" fill="none"><path fill="#121212" d="M48.682 23.518c13.43 0 24.332 10.97 24.333 24.462q-.001 2.832-.631 5.497l16.712 16.838.068.077a1 1 0 0 1-1.412 1.401l-.075-.068L70.57 54.488a1 1 0 0 1-.257-.958q.701-2.667.702-5.55c0-12.398-10.018-22.462-22.333-22.462-2.736 0-5.352.502-7.791 1.426l16.615 16.707a1 1 0 0 1 0 1.41L46.172 56.46a1 1 0 0 1-1.42-.001L28.015 39.594a22.2 22.2 0 0 0-1.631 8.35c0 12.398 10.017 22.463 22.333 22.463 2.07 0 4.079-.302 5.99-.842l.132-.028a1 1 0 0 1 .845.281l17.036 16.92.07.076a1 1 0 0 1-1.403 1.412l-.076-.069-16.63-16.516a24 24 0 0 1-5.964.766c-13.431 0-24.333-10.971-24.333-24.463 0-3.78.876-7.34 2.407-10.528l.059-.105a1 1 0 0 1 1.552-.166l17.063 17.189 9.922-9.978-16.964-17.058a1 1 0 0 1 .295-1.615 24 24 0 0 1 9.965-2.165"/><path fill="#121212" d="M48.682 23.518c13.43 0 24.332 10.97 24.333 24.462q-.001 2.832-.631 5.497l16.712 16.838.068.077a1 1 0 0 1-1.412 1.401l-.075-.068L70.57 54.488a1 1 0 0 1-.257-.958q.701-2.667.702-5.55c0-12.398-10.018-22.462-22.333-22.462-2.736 0-5.352.502-7.791 1.426l16.615 16.707a1 1 0 0 1 0 1.41L46.172 56.46a1 1 0 0 1-1.42-.001L28.015 39.594a22.2 22.2 0 0 0-1.631 8.35c0 12.398 10.017 22.463 22.333 22.463 2.07 0 4.079-.302 5.99-.842l.132-.028a1 1 0 0 1 .845.281l17.036 16.92.07.076a1 1 0 0 1-1.403 1.412l-.076-.069-16.63-16.516a24 24 0 0 1-5.964.766c-13.431 0-24.333-10.971-24.333-24.463 0-3.78.876-7.34 2.407-10.528l.059-.105a1 1 0 0 1 1.552-.166l17.063 17.189 9.922-9.978-16.964-17.058a1 1 0 0 1 .295-1.615 24 24 0 0 1 9.965-2.165"/></svg>