<svg xmlns="http://www.w3.org/2000/svg" width="85" height="85" fill="none"><path fill="#fff" d="M45.22 18.873a22.9 22.9 0 0 0-5.917.105v.001a2.11 2.11 0 0 0-1.684 1.381l-.049.15-.889 3.125a.55.55 0 0 1-.35.376l-.007.002-.007.002q-1.077.36-2.148.875a.58.58 0 0 1-.512.003l-.372.65.372-.65-.008-.005-2.937-1.634-.135-.069a2.11 2.11 0 0 0-2.118.188l-.009.007-.009.006a25 25 0 0 0-2.737 2.343 22.6 22.6 0 0 0-2.088 2.431l-.006.008-.007.009c-.452.64-.555 1.511-.12 2.25v.002l1.577 2.85h.001a.55.55 0 0 1 0 .52l-.013.028a22 22 0 0 0-.921 2.157.61.61 0 0 1-.387.389l-3.227.915-.012.004c-.757.227-1.398.875-1.523 1.705h.001a23.8 23.8 0 0 0-.053 6.697v.009c.12.838.72 1.506 1.533 1.738v.001l3.111.892c.19.057.331.197.387.387l.008.025c.259.777.55 1.549.925 2.302.084.18.08.39-.005.552l-1.63 2.903v.003a2.12 2.12 0 0 0 .119 2.253l.005.005c.688.954 1.48 1.879 2.325 2.723a25 25 0 0 0 2.37 2.056l.004.002c.68.52 1.565.556 2.275.162l.002-.001 2.836-1.583.02-.012c.12-.071.32-.084.513.019l.008.004c.587.303 1.183.559 1.773.788l.587.22a.65.65 0 0 1 .384.34l.023.062.919 3.19.002.007c.227.757.876 1.398 1.706 1.522l.004.001c2.19.317 4.432.317 6.617.027l.008-.001a2.12 2.12 0 0 0 1.739-1.532l-.001-.001.894-3.11a.57.57 0 0 1 .372-.39l.007-.002c.835-.27 1.634-.617 2.41-.98l.01-.005.01-.004a.62.62 0 0 1 .502-.037l.06.029 2.875 1.602c.709.394 1.58.356 2.254-.119l.005-.004.006-.005c.897-.66 1.77-1.4 2.59-2.22a24 24 0 0 0 2.162-2.503l.008-.01.007-.01c.445-.631.507-1.437.188-2.119l-.069-.135-.002-.003-1.601-2.846a.6.6 0 0 1 .01-.564l.004-.009c.37-.764.684-1.527.972-2.311.084-.224.228-.357.395-.41l3.168-.894.012-.004c.764-.23 1.402-.883 1.523-1.735l.123-.857h-.042c.204-1.936.169-3.888-.107-5.819a2.11 2.11 0 0 0-1.383-1.69l-.15-.048-.001-.001-3.152-.89a.55.55 0 0 1-.372-.35l-.003-.01-.004-.01-.203-.568a15 15 0 0 0-.722-1.653.72.72 0 0 1-.007-.572l1.595-2.884h-.001a2.11 2.11 0 0 0-.12-2.25l-.004-.008-.004-.005-.252-.335a23 23 0 0 0-1.993-2.28 22 22 0 0 0-2.565-2.194l-.006-.004-.005-.005-.128-.084a2.12 2.12 0 0 0-1.99-.104l-.135.07h-.001l-2.874 1.602a.55.55 0 0 1-.52 0l-.01-.004-.008-.005-.528-.251a21 21 0 0 0-1.614-.649.62.62 0 0 1-.366-.328l-.024-.062-.915-3.2-.72.205.721-.206-.003-.01-.047-.14c-.245-.648-.8-1.188-1.505-1.352l-.154-.03h-.006zm-5.69 1.589c2.088-.32 4.209-.297 6.315 0 .191.029.41.205.49.47v-.002l.917 3.21.006.018c.202.647.687 1.12 1.295 1.348l.011.004a19 19 0 0 1 1.507.604l.479.229c.6.313 1.317.31 1.915-.01l.011-.006 2.885-1.61.001.002a.62.62 0 0 1 .584-.013l.075.046a20 20 0 0 1 2.38 2.038 21 21 0 0 1 2.088 2.43h.001a.62.62 0 0 1 .072.58l-.038.08v.002l-1.61 2.912-.012.022-.011.024a2.22 2.22 0 0 0 0 1.86l.006.014.008.014c.334.645.602 1.323.85 2.045.213.655.74 1.123 1.354 1.315l.01.003.01.003 3.168.893a.62.62 0 0 1 .458.509 22 22 0 0 1 0 6.25l-.023.152a.68.68 0 0 1-.329.324l-.093.036-3.155.89-.008.003c-.61.18-1.043.607-1.29 1.107l-.094.217-.002.005c-.206.56-.424 1.105-.666 1.644l-.251.537c-.302.61-.31 1.323.013 1.93l.005.008.004.007 1.61 2.862c.113.207.1.453-.033.647a22 22 0 0 1-2.015 2.337 21 21 0 0 1-2.407 2.064.62.62 0 0 1-.659.034h.001l-2.887-1.61-.011-.006-.117-.057a2.1 2.1 0 0 0-1.805.039l-.564.257q-.558.25-1.115.46l-.56.194a2.07 2.07 0 0 0-1.316 1.272l-.04.125-.002.004-.894 3.117a.62.62 0 0 1-.508.459 22.8 22.8 0 0 1-5.429.073l-.77-.098c-.19-.03-.406-.202-.487-.462l-.919-3.192v-.004l-.043-.128a2.1 2.1 0 0 0-1.064-1.162l-.219-.095-.005-.002-.561-.212c-.557-.216-1.1-.449-1.625-.72h-.001c-.567-.3-1.322-.361-1.961.011l-2.836 1.583a.57.57 0 0 1-.562.005l-.073-.048a23.5 23.5 0 0 1-2.224-1.926 21 21 0 0 1-2.166-2.535.62.62 0 0 1-.035-.655l1.635-2.912.004-.008.004-.007a2.13 2.13 0 0 0 .043-1.896l-.004-.009-.005-.009-.24-.51a18 18 0 0 1-.613-1.615h-.001a2.06 2.06 0 0 0-1.268-1.335l-.125-.04-.005-.002L20.873 46h-.001a.63.63 0 0 1-.442-.423l-.018-.086c-.271-2.078-.27-4.2.05-6.267v-.004c.029-.192.206-.412.47-.492l3.234-.916.01-.003.008-.002a2.11 2.11 0 0 0 1.348-1.296l.004-.011c.243-.68.537-1.345.863-2.022.287-.56.303-1.22.043-1.79l-.056-.114-.006-.01-1.584-2.862-.016-.027-.035-.069a.58.58 0 0 1 .08-.56 21 21 0 0 1 1.94-2.256 24 24 0 0 1 2.56-2.191.62.62 0 0 1 .658-.034l2.937 1.634c.592.335 1.308.318 1.883.05l.007-.004a17 17 0 0 1 1.982-.807h-.001c.66-.212 1.13-.74 1.322-1.356l.003-.009.003-.01.895-3.141-.001-.001a.62.62 0 0 1 .508-.458zm3.08 11.076c-6.114 0-11.071 4.957-11.071 11.07s4.957 11.07 11.07 11.07 11.07-4.956 11.07-11.07-4.956-11.07-11.07-11.07m0 1.5c5.285 0 9.57 4.285 9.57 9.57s-4.285 9.57-9.57 9.57-9.57-4.285-9.571-9.57 4.285-9.57 9.57-9.57"/><path fill="#fff" fill-rule="evenodd" d="M42.609 31.63c-6.064 0-10.979 4.915-10.979 10.978 0 6.064 4.915 10.979 10.979 10.979s10.978-4.916 10.978-10.979S48.672 31.63 42.61 31.63m0 1.316c5.335 0 9.661 4.326 9.662 9.662 0 5.336-4.326 9.662-9.662 9.662s-9.662-4.326-9.662-9.662 4.326-9.662 9.662-9.662" clip-rule="evenodd"/><path fill="#fff" fill-rule="evenodd" d="M45.63 19.013c-2.092-.261-4.212-.265-6.313.056-.748.11-1.355.62-1.611 1.323l-.047.144-.892 3.132a.65.65 0 0 1-.409.43l-.011.005q-1.073.358-2.14.87a.7.7 0 0 1-.535.029l-.06-.029-.007-.004-2.937-1.634v-.001l-.13-.066a2.02 2.02 0 0 0-2.026.18l-.016.012a25 25 0 0 0-2.727 2.334 22.5 22.5 0 0 0-2.079 2.421l-.011.015c-.434.616-.531 1.449-.115 2.154l1.581 2.857a.65.65 0 0 1-.002.602l-.006.012-.006.013a22 22 0 0 0-.917 2.149.7.7 0 0 1-.445.444l-3.232.916-.004.002-.005.001c-.726.218-1.338.839-1.458 1.628a23.7 23.7 0 0 0-.053 6.675l.001.007a2.03 2.03 0 0 0 1.467 1.664l3.111.892c.22.065.385.23.45.45l.002.01.004.011c.26.777.549 1.545.922 2.293a.72.72 0 0 1-.008.634l-1.63 2.904-.001.002a2.02 2.02 0 0 0 .114 2.156l.004.006c.686.95 1.475 1.87 2.316 2.71a25 25 0 0 0 2.362 2.047l.003.004c.65.497 1.496.532 2.176.154h.001l2.836-1.584.008-.005.009-.005c.151-.091.387-.1.603.016l.008.004c.775.4 1.569.717 2.344 1.002.218.082.368.22.442.39l.027.074.918 3.189.002.007c.218.727.84 1.34 1.631 1.458h.004c2.183.316 4.415.316 6.592.028l.007-.002a2.03 2.03 0 0 0 1.664-1.466l.892-3.112a.67.67 0 0 1 .434-.452l.005-.002c.83-.268 1.626-.613 2.401-.974l.008-.004.009-.004a.7.7 0 0 1 .644-.01l2.879 1.605c.679.377 1.513.34 2.156-.114l.005-.003.005-.004a22.5 22.5 0 0 0 2.58-2.21 24 24 0 0 0 2.153-2.496l.007-.008.006-.01a2.02 2.02 0 0 0 .18-2.026l-.066-.128-.001-.004-1.604-2.85a.7.7 0 0 1 .01-.645l.004-.009c.367-.762.681-1.522.968-2.303.094-.249.261-.408.464-.467v-.001l3.16-.892.005-.001.005-.002c.733-.22 1.343-.847 1.46-1.661l.107-.751h-.039a23.5 23.5 0 0 0-.039-5.484l-.055-.414a2.02 2.02 0 0 0-1.324-1.617l-.143-.047h-.002l-3.151-.89a.65.65 0 0 1-.436-.41l-.003-.01-.205-.575a15 15 0 0 0-.718-1.645.81.81 0 0 1-.004-.658l1.593-2.88a2.02 2.02 0 0 0-.115-2.156l-.007-.01-.25-.334a23 23 0 0 0-1.986-2.27 21.6 21.6 0 0 0-2.554-2.186l-.005-.004-.005-.003-.123-.08a2.02 2.02 0 0 0-1.904-.1l-.128.066h-.001l-2.88 1.605c-.188.1-.414.099-.603-.002l-.007-.003-.008-.004-.261-.128c-.61-.291-1.237-.542-1.876-.77a.7.7 0 0 1-.413-.374l-.028-.073-.915-3.203-.002-.009-.046-.135c-.234-.622-.767-1.138-1.44-1.295l-.146-.028h-.006zm-6.115 1.358c2.1-.321 4.232-.298 6.347 0 .2.033.412.193.52.428l.041.107.918 3.21.002.008.002.008c.193.618.657 1.07 1.24 1.288l.005.002.005.002c.523.187 1.028.386 1.515.607l.482.23a1.96 1.96 0 0 0 1.83-.008l.005-.003.006-.003 2.885-1.61v.001a.7.7 0 0 1 .67-.013l.087.052c.84.62 1.604 1.26 2.392 2.049.79.79 1.483 1.606 2.101 2.446a.7.7 0 0 1 .08.66l-.043.093-.001.001-1.61 2.912-.01.02-.01.02a2.13 2.13 0 0 0 0 1.783l.006.013.006.012c.338.65.607 1.333.857 2.058A1.96 1.96 0 0 0 61.137 38l.009.003.009.003 3.165.892a.71.71 0 0 1 .526.585l.052.391a22.2 22.2 0 0 1-.052 5.886l-.024.163a.77.77 0 0 1-.482.422l-3.16.892-.007.002c-.624.184-1.055.64-1.282 1.163l-.043.106v.005a24 24 0 0 1-.917 2.18 2.01 2.01 0 0 0 .008 1.856l.004.006.003.007 1.608 2.857a.71.71 0 0 1-.04.757 22 22 0 0 1-2.022 2.341 21 21 0 0 1-2.417 2.074.71.71 0 0 1-.757.039l-2.885-1.61-.006-.002-.005-.003-.11-.055a2.02 2.02 0 0 0-1.73.04l-.565.257c-.562.25-1.119.475-1.684.657a1.98 1.98 0 0 0-1.258 1.217l-.04.118-.001.004-.894 3.117a.71.71 0 0 1-.58.525 22.8 22.8 0 0 1-6.228-.024c-.229-.036-.472-.238-.561-.529l-.92-3.191v-.004l-.04-.122a2.03 2.03 0 0 0-1.124-1.16l-.105-.043h-.005l-.563-.213a17 17 0 0 1-1.634-.726c-.545-.287-1.267-.345-1.876.01l-2.834 1.584a.66.66 0 0 1-.652.006l-.085-.056a24 24 0 0 1-2.233-1.935 21 21 0 0 1-2.175-2.545.71.71 0 0 1-.04-.754l1.634-2.913.003-.006.004-.006a2.04 2.04 0 0 0 .041-1.814l-.004-.009-.003-.008-.125-.255q-.298-.641-.542-1.325L25.3 48.3a1.97 1.97 0 0 0-1.213-1.278l-.12-.04h-.004l-3.116-.894v-.001l-.106-.038a.7.7 0 0 1-.42-.542 22.4 22.4 0 0 1 .05-6.298v-.004c.035-.23.237-.474.53-.564l3.239-.918.008-.002.009-.003a2.02 2.02 0 0 0 1.288-1.24l.002-.005.002-.005c.245-.685.54-1.352.867-2.03v-.001a1.96 1.96 0 0 0-.012-1.82l-.005-.01-1.584-2.861-.007-.012-.007-.012-.042-.081a.67.67 0 0 1 .09-.647 21 21 0 0 1 1.95-2.27 24 24 0 0 1 2.575-2.204.71.71 0 0 1 .753-.036l2.93 1.63c.565.323 1.253.31 1.806.051l.007-.003q.999-.48 1.992-.811a1.96 1.96 0 0 0 1.263-1.297l.003-.008.002-.009.894-3.14a.71.71 0 0 1 .584-.526z" clip-rule="evenodd"/></svg>