<svg width="112" height="112" viewBox="0 0 112 112" fill="none" xmlns="http://www.w3.org/2000/svg">
<mask id="mask0_385_9989" style="mask-type:alpha" maskUnits="userSpaceOnUse" x="26" y="16" width="63" height="80">
<line x1="35.999" y1="41" x2="59.999" y2="41" stroke="black" stroke-width="2"/>
<line x1="35.999" y1="53" x2="52.999" y2="53" stroke="black" stroke-width="2"/>
<line x1="35.999" y1="65" x2="46.999" y2="65" stroke="black" stroke-width="2"/>
<mask id="path-4-inside-1_385_9989" fill="white">
<path d="M58.6099 16C59.7143 16.0002 60.6099 16.8955 60.6099 18V19.6533H65.0034C66.1078 19.6533 67.0032 20.549 67.0034 21.6533V27.7041C67.0034 28.8087 66.108 29.7041 65.0034 29.7041H41.5933C40.4887 29.7041 39.5933 28.8086 39.5933 27.7041V21.6533C39.5935 20.549 40.4889 19.6534 41.5933 19.6533H45.9907V18C45.9907 16.8955 46.8862 16 47.9907 16H58.6099Z"/>
</mask>
<path d="M58.6099 16L58.6102 14H58.6099V16ZM60.6099 19.6533H58.6099V21.6533H60.6099V19.6533ZM65.0034 19.6533L65.0034 17.6533H65.0034V19.6533ZM67.0034 21.6533H69.0034V21.6529L67.0034 21.6533ZM65.0034 29.7041V31.7041H65.0034L65.0034 29.7041ZM41.5933 29.7041L41.5932 31.7041H41.5933V29.7041ZM39.5933 21.6533L37.5933 21.6529V21.6533H39.5933ZM41.5933 19.6533V17.6533H41.5932L41.5933 19.6533ZM45.9907 19.6533V21.6533H47.9907V19.6533H45.9907ZM45.9907 18L43.9907 18V18H45.9907ZM47.9907 16V14H47.9906L47.9907 16ZM58.6099 16L58.6095 18H58.6099H60.6099H62.6099C62.6099 15.7906 60.8186 14.0004 58.6102 14L58.6099 16ZM60.6099 18H58.6099V19.6533H60.6099H62.6099V18H60.6099ZM60.6099 19.6533V21.6533H65.0034V19.6533V17.6533H60.6099V19.6533ZM65.0034 19.6533L65.0034 21.6533L65.0034 21.6538L67.0034 21.6533L69.0034 21.6529C69.0029 19.4447 67.2128 17.6533 65.0034 17.6533L65.0034 19.6533ZM67.0034 21.6533H65.0034V27.7041H67.0034H69.0034V21.6533H67.0034ZM67.0034 27.7041H65.0034H65.0034L65.0034 29.7041L65.0034 31.7041C67.2125 31.7041 69.0034 29.9133 69.0034 27.7041H67.0034ZM65.0034 29.7041V27.7041H41.5933V29.7041V31.7041H65.0034V29.7041ZM41.5933 29.7041L41.5933 27.7041H41.5933H39.5933H37.5933C37.5933 29.9133 39.3842 31.704 41.5932 31.7041L41.5933 29.7041ZM39.5933 27.7041H41.5933V21.6533H39.5933H37.5933V27.7041H39.5933ZM39.5933 21.6533L41.5933 21.6538L41.5933 21.6533L41.5933 19.6533L41.5932 17.6533C39.3839 17.6534 37.5938 19.4447 37.5933 21.6529L39.5933 21.6533ZM41.5933 19.6533V21.6533H45.9907V19.6533V17.6533H41.5933V19.6533ZM45.9907 19.6533H47.9907V18H45.9907H43.9907V19.6533H45.9907ZM45.9907 18L47.9907 18L47.9908 18L47.9907 16L47.9906 14C45.7817 14.0001 43.9907 15.7908 43.9907 18L45.9907 18ZM47.9907 16V18H58.6099V16V14H47.9907V16Z" fill="black" mask="url(#path-4-inside-1_385_9989)"/>
<path d="M39.5947 24.2815H31.293C29.9626 24.2816 28.9992 25.3084 28.999 26.4348V86.6536C28.999 87.7801 29.9625 88.8067 31.293 88.8069H51.959C52.4586 89.505 52.9993 90.1728 53.5781 90.8069H31.293L31.0723 90.801C28.8766 90.6934 27.1162 88.9909 27.0049 86.8674L26.999 86.6536V26.4348C26.9991 24.2129 28.8034 22.3986 31.0723 22.2874L31.293 22.2815H39.5947V24.2815ZM76.6035 22.2874C78.8723 22.3986 80.6766 24.213 80.6768 26.4348V57.6995C80.0294 57.3476 79.3622 57.0264 78.6768 56.7385V26.4348C78.6766 25.3084 77.7132 24.2817 76.3828 24.2815H67.0049V22.2815H76.3828L76.6035 22.2874Z" fill="black"/>
<circle cx="69.499" cy="76.5" r="18.5" stroke="black" stroke-width="2"/>
<path d="M60.3311 76.3906L66.6408 82.8879L79.2746 70.0761" stroke="black" stroke-width="2" stroke-linejoin="round"/>
</mask>
<g mask="url(#mask0_385_9989)">
<path d="M103 99L8.99999 99L9 11L103 11L103 99Z" fill="url(#paint0_linear_385_9989)"/>
</g>
<defs>
<linearGradient id="paint0_linear_385_9989" x1="56" y1="99" x2="56" y2="8.46154" gradientUnits="userSpaceOnUse">
<stop stop-color="#A34DEE"/>
<stop offset="1" stop-color="#6943F5"/>
</linearGradient>
</defs>
</svg>
