<svg xmlns="http://www.w3.org/2000/svg" width="85" height="84" fill="none"><g fill="#121212" clip-path="url(#a)"><path d="M49.275 16.746a.75.75 0 0 1 .75.751v5.933h5.933a5.206 5.206 0 0 1 5.205 5.205v5.931h5.933l.076.004a.75.75 0 0 1 0 1.492l-.076.004h-5.933v9.638h5.933l.076.004a.75.75 0 0 1 0 1.492l-.076.004h-5.933v8.16a5.206 5.206 0 0 1-5.205 5.205h-5.933v5.933a.75.75 0 0 1-1.5 0v-5.933H36.66v5.933a.75.75 0 0 1-1.5 0v-5.933H29.23a5.206 5.206 0 0 1-5.206-5.205v-8.16h-5.932a.75.75 0 1 1 0-1.5h5.932v-9.638h-5.932a.75.75 0 1 1 0-1.5h5.932v-5.931a5.205 5.205 0 0 1 5.206-5.205h5.931v-5.933a.75.75 0 1 1 1.5 0v5.933h11.865v-5.933a.75.75 0 0 1 .75-.75M29.23 24.93a3.705 3.705 0 0 0-3.706 3.705v26.73a3.706 3.706 0 0 0 3.706 3.704h26.729a3.706 3.706 0 0 0 3.705-3.705v-26.73a3.706 3.706 0 0 0-3.705-3.704zm20.046 9.636a.75.75 0 0 1 .75.75v13.366a.75.75 0 0 1-.75.75H35.91a.75.75 0 0 1-.75-.75V35.316a.75.75 0 0 1 .75-.75zM36.66 47.932h11.865V36.066H36.66z"/><path fill-rule="evenodd" d="M49.275 34.567a.75.75 0 0 1 .75.75v13.365a.75.75 0 0 1-.75.75H35.91a.75.75 0 0 1-.75-.75V35.317a.75.75 0 0 1 .75-.75zM36.66 47.932h11.865V36.067H36.66z" clip-rule="evenodd"/><path fill-rule="evenodd" d="M49.275 16.747a.75.75 0 0 1 .75.75v5.933h5.933a5.205 5.205 0 0 1 5.204 5.205v5.932h5.933l.077.004a.75.75 0 0 1 0 1.492l-.077.004h-5.933v9.638h5.933l.077.004a.75.75 0 0 1 0 1.492l-.077.004h-5.933v8.16a5.205 5.205 0 0 1-5.204 5.204h-5.933v5.933a.75.75 0 0 1-1.5 0v-5.933H36.66v5.933a.75.75 0 0 1-1.5 0v-5.933h-5.932a5.205 5.205 0 0 1-5.206-5.204v-8.16H18.09a.75.75 0 0 1 0-1.5h5.933v-9.638H18.09a.75.75 0 0 1 0-1.5h5.933v-5.932a5.206 5.206 0 0 1 5.205-5.205h5.932v-5.933a.75.75 0 0 1 1.5 0v5.933h11.865v-5.933a.75.75 0 0 1 .75-.75M29.228 24.93a3.706 3.706 0 0 0-3.706 3.705v26.73a3.705 3.705 0 0 0 3.706 3.704h26.73a3.705 3.705 0 0 0 3.704-3.704v-26.73a3.705 3.705 0 0 0-3.704-3.705z" clip-rule="evenodd"/></g><defs><clipPath id="a"><path fill="#fff" d="M.594 0h84v84h-84z"/></clipPath></defs></svg>