<svg width="112" height="112" viewBox="0 0 112 112" fill="none" xmlns="http://www.w3.org/2000/svg">
<mask id="mask0_385_17879" style="mask-type:alpha" maskUnits="userSpaceOnUse" x="22" y="19" width="76" height="74">
<path d="M53.6211 19.0742C53.9041 18.9584 54.2275 18.9783 54.4971 19.1328L62.2471 23.5762L66.7061 26.1328L69.9971 28.0195L77.7471 32.4629L85.4971 36.9072C85.8079 37.0855 86 37.4161 86 37.7744V59.2363C85.3439 59.1323 84.6767 59.0605 84 59.0254V39.4561L55 55.2285V88.2744L64.6035 82.7676C64.7753 83.4322 64.9829 84.0825 65.2227 84.7168L54.4971 90.8672C54.189 91.0438 53.811 91.0438 53.5029 90.8672L22.5029 73.0928C22.1921 72.9145 22 72.5839 22 72.2256V37.7744C22 37.4161 22.1921 37.0855 22.5029 36.9072L53.5029 19.1328L53.6211 19.0742ZM24 71.6465L53 88.2744V55.2285L45.7725 51.2979L30.2725 42.8682L24 39.4561V71.6465ZM61.5059 38.5137C59.2323 39.7154 56.4681 40.8952 53.6143 40.5274L53.3379 40.4863C52.9257 40.4187 52.2464 40.1906 51.5195 39.8281L40.543 46.1777L42.8525 47.4336L46.7275 49.541L53.999 53.4961L82.9492 37.751L76.7529 34.1983L73.3555 32.25L61.5059 38.5137ZM25.0498 37.751L31.2275 41.1113L35.1025 43.2188L38.4844 45.0576L49.4814 38.6963C48.9631 38.3735 48.3957 37.9618 47.9268 37.4199C47.4129 36.8261 47.0104 36.0717 46.917 35.1299C46.8245 34.1969 47.0445 33.1747 47.6055 32.0527C48.626 30.0116 49.7703 28.1051 50.6562 26.7129C51.0999 26.0157 51.4805 25.4446 51.751 25.0469C51.8861 24.8482 51.9939 24.6926 52.0684 24.586C52.1056 24.5326 52.1345 24.491 52.1543 24.4629C52.1642 24.4489 52.1725 24.4381 52.1777 24.4307C52.1803 24.4271 52.1822 24.4239 52.1836 24.4219C52.1842 24.421 52.1852 24.4205 52.1855 24.4199V24.419H52.1865C52.4955 23.9865 53.0887 23.8709 53.5371 24.1563L59.0371 27.6563C59.2708 27.805 59.4326 28.0441 59.4834 28.3164C59.5279 28.5546 59.4839 28.7999 59.3623 29.0068L59.3047 29.0928V29.0947C59.304 29.0957 59.3022 29.0967 59.3008 29.0986C59.2978 29.1028 59.2933 29.1097 59.2871 29.1182C59.2747 29.1352 59.2559 29.1607 59.2314 29.1943C59.1821 29.2623 59.1087 29.3632 59.0166 29.4922C58.8326 29.7501 58.5704 30.1204 58.2627 30.5703L64.2266 27.0156L61.2529 25.3115L53.999 21.1514L25.0498 37.751ZM55.9014 34.3076C55.2501 35.448 54.6927 36.5634 54.3838 37.4707C54.2171 37.9604 54.1465 38.3261 54.1416 38.5703C56.2431 38.7485 58.4237 37.8803 60.5713 36.7451L71.3018 31.0723L69.0029 29.7549L66.2188 28.1582L55.9014 34.3076ZM53.2773 26.3623C53.0295 26.7301 52.7083 27.2142 52.3438 27.7871C51.4797 29.1449 50.3739 30.9885 49.3945 32.9473C48.9556 33.8252 48.8611 34.4673 48.9072 34.9326C48.9525 35.3892 49.1424 35.768 49.4395 36.1113C49.747 36.4667 50.1624 36.7746 50.6309 37.0586C50.8623 37.1989 51.0966 37.327 51.3291 37.4522C51.5527 37.5726 51.7942 37.7006 52 37.8193L52.2012 37.9297C52.2627 37.5654 52.3667 37.1919 52.4912 36.8262C52.8994 35.6272 53.6277 34.2294 54.3867 32.9326C55.1527 31.624 55.9798 30.3684 56.6123 29.4434C56.7808 29.1969 56.9382 28.9748 57.0752 28.7793L53.2773 26.3623Z" fill="black"/>
<circle cx="83" cy="78" r="14" stroke="black" stroke-width="2" stroke-linejoin="round"/>
<path d="M76.4111 77.998H89.5876" stroke="black" stroke-width="2" stroke-linejoin="round"/>
<path d="M83.0044 71.4131L83.0044 84.5896" stroke="black" stroke-width="2" stroke-linejoin="round"/>
</mask>
<g mask="url(#mask0_385_17879)">
<path d="M112 107L-7.62939e-06 107L1.46257e-06 3L112 3.00001L112 107Z" fill="url(#paint0_linear_385_17879)"/>
</g>
<defs>
<linearGradient id="paint0_linear_385_17879" x1="56" y1="107" x2="56" y2="2.82091e-06" gradientUnits="userSpaceOnUse">
<stop stop-color="#A34DEE"/>
<stop offset="1" stop-color="#6943F5"/>
</linearGradient>
</defs>
</svg>
