<svg xmlns="http://www.w3.org/2000/svg" width="85" height="85" fill="none"><path fill="#000" d="M33.393 20.733a.75.75 0 0 0-.988-.387 25.2 25.2 0 0 0-14.691 18.478 25.192 25.192 0 0 0 47.97 14.424.75.75 0 0 0-1.38-.584 23.696 23.696 0 0 1-38.48 7.621 23.695 23.695 0 0 1 7.18-38.564.75.75 0 0 0 .389-.988m9.087-2.48a.75.75 0 0 0-.735.603l-.014.148v24.443c0 .414.335.75.75.75h24.443a.75.75 0 0 0 .75-.75A25.2 25.2 0 0 0 52.12 20.172a25.2 25.2 0 0 0-9.64-1.918m.75 1.514A23.7 23.7 0 0 1 64.37 34.38a23.7 23.7 0 0 1 1.79 8.317H43.23z"/><path fill="#000" d="M33.392 20.732a.75.75 0 0 0-.988-.387 25.193 25.193 0 1 0 33.127 33.256l.153-.353a.75.75 0 0 0-1.348-.654l-.034.07a23.694 23.694 0 0 1-44.432-2.148 23.694 23.694 0 0 1 13.134-28.795.75.75 0 0 0 .388-.989"/><path fill="#000" fill-rule="evenodd" d="M42.48 18.254a.75.75 0 0 0-.75.75v24.443c0 .414.336.75.75.75h24.443a.75.75 0 0 0 .75-.75A25.193 25.193 0 0 0 42.48 18.254m.75 1.513a23.7 23.7 0 0 1 16.003 6.927 23.7 23.7 0 0 1 6.927 16.003H43.23z" clip-rule="evenodd"/></svg>