<svg xmlns="http://www.w3.org/2000/svg" width="113" height="113" fill="none"><path fill="#fff" d="M42.42 23.783a1 1 0 0 1 1 1v34.99h4.924a3 3 0 0 1 3 3v4.26c0 1.657-1.344 3-3 3H43.42v17.81a1 1 0 0 1-2 0v-17.81H36.5a3 3 0 0 1-3-3v-4.26a3 3 0 0 1 3-3h4.92v-34.99a1 1 0 0 1 1-1m28.581 0a1 1 0 0 1 1 1v12.194h4.924a3 3 0 0 1 3 3v4.26a3 3 0 0 1-3 3H72v40.606a1.001 1.001 0 0 1-2 0V47.236h-4.92a3 3 0 0 1-3-3v-4.26a3 3 0 0 1 3-3h4.92V24.783a1 1 0 0 1 1-1M36.5 61.772a1 1 0 0 0-1 1v4.26a1 1 0 0 0 1 1h11.844c.552 0 1-.448 1-1v-4.26a1 1 0 0 0-1-1zm28.581-22.796a1 1 0 0 0-1 1v4.26a1 1 0 0 0 1 1h11.844a1 1 0 0 0 1-1v-4.26a1 1 0 0 0-1-1z"/></svg>