<svg width="112" height="112" viewBox="0 0 112 112" fill="none" xmlns="http://www.w3.org/2000/svg">
<path d="M56 16C78.0914 16 96 33.9086 96 56C96 78.0914 78.0914 96 56 96C33.9086 96 16 78.0914 16 56C16 33.9086 33.9086 16 56 16ZM56 18C35.0132 18 18 35.0132 18 56C18 76.9868 35.0132 94 56 94C76.9868 94 94 76.9868 94 56C94 35.0132 76.9868 18 56 18ZM65.8096 46.0605L79.0068 79.0107L46.0557 65.8135L32.8584 32.8623L65.8096 46.0605ZM57.4365 56.2812L57.4053 56.3125L48.6592 64.7021L75.4121 75.416L64.7002 48.6709L57.4365 56.2812ZM47.2109 63.3184L56.0029 54.8848L63.3203 47.2178L36.4531 36.457L47.2109 63.3184Z" fill="black"/>
<path d="M56 16C78.0914 16 96 33.9086 96 56C96 78.0914 78.0914 96 56 96C33.9086 96 16 78.0914 16 56C16 33.9086 33.9086 16 56 16ZM56 18C35.0132 18 18 35.0132 18 56C18 76.9868 35.0132 94 56 94C76.9868 94 94 76.9868 94 56C94 35.0132 76.9868 18 56 18ZM65.8096 46.0605L79.0068 79.0107L46.0557 65.8135L32.8584 32.8623L65.8096 46.0605ZM57.4365 56.2812L57.4053 56.3125L48.6592 64.7021L75.4121 75.416L64.7002 48.6709L57.4365 56.2812ZM47.2109 63.3184L56.0029 54.8848L63.3203 47.2178L36.4531 36.457L47.2109 63.3184Z" fill="url(#paint0_linear_385_6820)"/>
<defs>
<linearGradient id="paint0_linear_385_6820" x1="56" y1="16" x2="56" y2="98.3077" gradientUnits="userSpaceOnUse">
<stop stop-color="#A34DEE"/>
<stop offset="1" stop-color="#6943F5"/>
</linearGradient>
</defs>
</svg>
