<svg width="112" height="112" viewBox="0 0 112 112" fill="none" xmlns="http://www.w3.org/2000/svg">
<g clip-path="url(#clip0_385_17893)">
<mask id="mask0_385_17893" style="mask-type:alpha" maskUnits="userSpaceOnUse" x="0" y="0" width="112" height="112">
<mask id="mask1_385_17893" style="mask-type:alpha" maskUnits="userSpaceOnUse" x="9" y="13" width="93" height="86">
<path d="M71.4365 56.563C75.9164 56.5632 79.5485 60.1954 79.5488 64.6753C79.5488 67.4699 78.135 69.9341 75.9844 71.3931C81.3663 73.2723 85.2274 78.3927 85.2275 84.4155V84.6851H83.2275V84.4155C83.2274 79.2696 79.9292 74.8895 75.3252 73.2817C74.6119 73.0325 74.0991 72.402 74.001 71.6528C73.9031 70.9036 74.2361 70.1621 74.8613 69.7378C76.4871 68.6349 77.5488 66.7786 77.5488 64.6753L77.541 64.3608C77.3823 61.2358 74.8761 58.7294 71.751 58.5708L71.4365 58.563C68.1667 58.5632 65.496 61.1316 65.332 64.3608L65.3242 64.6753C65.3242 66.7788 66.3852 68.6352 68.0098 69.7378C68.635 70.1621 68.968 70.9036 68.8701 71.6528C68.772 72.4018 68.2599 73.0314 67.5469 73.2808C62.9442 74.889 59.6466 79.2702 59.6465 84.4155V84.6851H57.6465V84.4155C57.6466 78.3937 61.5063 73.2731 66.8867 71.3931C64.7368 69.934 63.3242 67.4693 63.3242 64.6753C63.3246 60.1954 66.9566 56.5632 71.4365 56.563Z" fill="black"/>
<path d="M29.6758 14.0005C40.2664 14.0005 48.8523 22.5857 48.8525 33.1763C48.8525 34.5125 48.7156 35.8161 48.4561 37.0737L48.3379 37.6099C47.5365 40.9973 47.9611 45.024 50.7051 47.5728L50.9785 47.814C53.7282 50.1424 57.5418 50.1936 60.6729 48.9009L60.9736 48.772C64.1581 47.3492 67.6876 46.5571 71.4043 46.5571C85.5404 46.5572 97 58.0177 97 72.1538C96.9997 86.2897 85.5403 97.7494 71.4043 97.7495C57.2683 97.7495 45.8088 86.2898 45.8086 72.1538V57.4458C45.8085 56.1484 45.4165 54.8834 44.6875 53.8149L44.5371 53.604C42.5459 50.9235 38.9896 50.396 36.0498 51.2759L35.7676 51.3657C33.8552 52.0058 31.8067 52.353 29.6758 52.353C19.0853 52.3528 10.5 43.7668 10.5 33.1763C10.5002 22.5859 19.0854 14.0007 29.6758 14.0005Z" stroke="black" stroke-width="2" stroke-linejoin="round"/>
<path d="M30.1592 21.8101C33.3563 21.8101 35.9482 24.402 35.9482 27.5991C35.9481 29.5926 34.9401 31.35 33.4062 32.3911C37.2455 33.7329 40 37.3851 40 41.6821V42.7524H38V41.6821C38 38.262 35.8082 35.349 32.7461 34.2788C32.0331 34.0295 31.5209 33.3999 31.4229 32.6509C31.3248 31.9016 31.658 31.1602 32.2832 30.7358C33.2922 30.0508 33.9481 28.9014 33.9482 27.5991C33.9482 25.5066 32.2517 23.8101 30.1592 23.8101C28.0671 23.8103 26.3711 25.5065 26.3711 27.5991C26.3712 28.9017 27.0266 30.052 28.0352 30.7368C28.6603 31.1613 28.9936 31.9017 28.8955 32.6509C28.7974 33.3999 28.2853 34.0295 27.5723 34.2788C24.5101 35.3489 22.3184 38.2619 22.3184 41.6821V42.7524H20.3184V41.6821C20.3184 37.385 23.0728 33.7328 26.9121 32.3911C25.3786 31.3499 24.3712 29.5923 24.3711 27.5991C24.3711 24.4022 26.9623 21.8103 30.1592 21.8101Z" fill="black"/>
<circle cx="15.5" cy="65.125" r="5.5" stroke="black" stroke-width="2" stroke-linejoin="round"/>
<circle cx="92" cy="29.625" r="9" stroke="black" stroke-width="2" stroke-linejoin="round"/>
</mask>
<g mask="url(#mask1_385_17893)">
<path d="M112 107L-7.62939e-06 107L1.46257e-06 3L112 3.00001L112 107Z" fill="url(#paint0_linear_385_17893)"/>
</g>
</mask>
<g mask="url(#mask0_385_17893)">
<path d="M112 107L-7.62939e-06 107L1.46257e-06 3L112 3.00001L112 107Z" fill="url(#paint1_linear_385_17893)"/>
</g>
</g>
<defs>
<linearGradient id="paint0_linear_385_17893" x1="56" y1="107" x2="56" y2="2.82091e-06" gradientUnits="userSpaceOnUse">
<stop stop-color="#A34DEE"/>
<stop offset="1" stop-color="#6943F5"/>
</linearGradient>
<linearGradient id="paint1_linear_385_17893" x1="56" y1="107" x2="56" y2="2.82091e-06" gradientUnits="userSpaceOnUse">
<stop stop-color="#A34DEE"/>
<stop offset="1" stop-color="#6943F5"/>
</linearGradient>
<clipPath id="clip0_385_17893">
<rect width="112" height="112" fill="white"/>
</clipPath>
</defs>
</svg>
