<svg width="112" height="112" viewBox="0 0 112 112" fill="none" xmlns="http://www.w3.org/2000/svg">
<path fill-rule="evenodd" clip-rule="evenodd" d="M83.5054 41.2399C84.0257 42.1451 84.2894 43.2108 84.2894 44.2812V57.5303L69.3486 66.1266C69.2557 66.18 69.1983 66.2791 69.1982 66.3863V83.4861L57.6331 90.0898L57.6292 90.0918C56.7271 90.6263 55.732 90.9145 54.6691 90.955V57.9145L83.5054 41.2399ZM57.9349 90.6084C56.9094 91.2161 55.7749 91.5317 54.5706 91.5578C54.5174 91.606 54.4468 91.6353 54.3693 91.6353C54.2907 91.6353 54.2192 91.6051 54.1657 91.5557C52.9905 91.5178 51.8824 91.2029 50.8792 90.6084V90.6074L39.4494 84.0814C39.3955 84.1341 39.3218 84.1666 39.2405 84.1666C39.0748 84.1666 38.9407 84.0315 38.9407 83.8658V83.791L27.3753 77.1875L27.3714 77.1855C26.3055 76.5539 25.4362 75.6846 24.804 74.6191V74.6201C24.1655 73.5825 23.8499 72.3513 23.8499 71.126V57.7167C23.8495 57.7078 23.8495 57.699 23.8499 57.6901V44.2812C23.8499 43.0767 24.1554 41.9086 24.7659 40.8538C24.7514 40.784 24.7615 40.7089 24.7999 40.6425C24.8414 40.5708 24.9082 40.5226 24.9824 40.5027C25.596 39.5668 26.4024 38.7959 27.3714 38.2217L27.3753 38.2197L38.9449 31.5924C38.9333 31.5254 38.9442 31.4542 38.9808 31.3908C39.0533 31.2655 39.203 31.212 39.3353 31.2561L39.3909 31.2814L39.4391 31.3093L50.8079 24.7969C51.8786 24.1634 53.0678 23.8477 54.3313 23.8477C55.5946 23.8477 56.7833 24.1637 57.8538 24.7969H57.8548L69.2418 31.2988L69.2718 31.2814C69.4152 31.1986 69.599 31.2475 69.6819 31.3908C69.7149 31.4479 69.727 31.5113 69.7206 31.5722L81.3626 38.2197L81.3675 38.2217L81.7581 38.4697C82.5548 39.0111 83.2274 39.6956 83.7565 40.5028C83.8306 40.5228 83.8972 40.5709 83.9386 40.6425C83.9769 40.7087 83.9871 40.7836 83.9728 40.8532L84.0501 40.9844C84.6109 41.9791 84.889 43.1325 84.889 44.2812V70.9277C84.9358 70.9806 84.9651 71.0498 84.9651 71.126C84.9651 72.3541 84.6477 73.5452 84.013 74.6162C83.3807 75.6832 82.5097 76.5533 81.4427 77.1855L81.4388 77.1885L81.4378 77.1875L69.7845 83.8411C69.7468 83.9635 69.6329 84.0523 69.498 84.0523C69.4742 84.0523 69.451 84.0496 69.4287 84.0443L57.9339 90.6074L57.9349 90.6084ZM69.2443 31.9907L81.0618 38.7373V38.7383C81.9166 39.2449 82.633 39.9166 83.1875 40.7303L54.3693 57.3944L25.5513 40.7304C26.1058 39.9166 26.8222 39.2449 27.6771 38.7383L27.6761 38.7373L39.4366 32.0012L54.181 40.5217C54.2738 40.5753 54.3889 40.5753 54.4818 40.5217L69.2443 31.9907ZM68.6408 31.6461L57.5569 25.3184L57.553 25.3154C56.5773 24.7372 55.4928 24.4473 54.3313 24.4473C53.315 24.4473 52.3579 24.6695 51.4808 25.1123L51.1097 25.3154L51.1058 25.3174L40.0392 31.656L54.3314 39.9152L68.6408 31.6461ZM51.5569 90.2949C52.3361 90.6883 53.1786 90.9076 54.0695 90.9517V57.9145L25.2352 41.2411C24.7116 42.1798 24.4495 43.2133 24.4495 44.2812V57.5303L39.3909 66.1646C39.4836 66.2183 39.5403 66.3174 39.5403 66.4244V83.443L51.181 90.0898L51.1858 90.0918L51.5569 90.2949ZM38.9407 66.5973V83.1006L27.6771 76.6689C26.8194 76.1606 26.1015 75.4863 25.5462 74.6689L25.3177 74.3096L25.3147 74.3057L25.2112 74.1279C24.7057 73.2312 24.4495 72.1811 24.4495 71.126V58.2236L38.9407 66.5973ZM69.7978 83.1437V66.5602L84.2894 58.2218V71.126C84.2894 71.1981 84.3153 71.2637 84.3577 71.3154C84.327 72.3706 84.0424 73.3881 83.4964 74.3096C82.9154 75.29 82.1174 76.088 81.137 76.6689L69.7978 83.1437Z" fill="url(#paint0_linear_966_90300)"/>
<path fill-rule="evenodd" clip-rule="evenodd" d="M54.3328 23.0078C52.926 23.0078 51.5896 23.3608 50.3858 24.0723L39.3308 30.4048C38.9079 30.3719 38.4836 30.5781 38.2571 30.9699C38.2435 30.9936 38.2307 31.0175 38.219 31.0417L26.9604 37.4908L26.9459 37.4992C25.9292 38.1017 25.0713 38.8999 24.4038 39.8621C24.2739 39.9539 24.1613 40.0746 24.0765 40.2213C24.0029 40.3484 23.9568 40.4838 23.9361 40.6208C23.321 41.7556 23.0137 43.0015 23.0137 44.2791V71.1241C23.0137 72.4857 23.3632 73.8682 24.0874 75.0487C24.791 76.233 25.7606 77.2015 26.9459 77.9039L26.9617 77.9131L38.2053 84.3328C38.3839 84.7272 38.7809 85.0016 39.242 85.0016C39.2836 85.0016 39.3246 84.9993 39.365 84.995L50.4625 91.3313C51.5278 91.9608 52.697 92.3096 53.927 92.3813C54.0634 92.4392 54.2133 92.4711 54.3708 92.4711C54.524 92.4711 54.67 92.4409 54.8034 92.3859C56.0653 92.3258 57.2644 91.9756 58.3549 91.3313L69.6596 84.8766C69.9533 84.8353 70.2109 84.6818 70.3878 84.4609L81.8556 77.9131L81.8715 77.9039C83.0595 77.1999 84.0308 76.2286 84.7347 75.0406C85.4476 73.8377 85.8037 72.4993 85.8037 71.1241C85.8037 70.9798 85.7768 70.8418 85.7278 70.7148V44.2791C85.7278 43.0149 85.4265 41.7327 84.8038 40.6108C84.7825 40.4773 84.7368 40.3454 84.665 40.2213C84.5802 40.0746 84.4676 39.9539 84.3378 39.8621C83.6702 38.8999 82.8123 38.1017 81.7957 37.4992L81.7798 37.49L70.4307 31.01C70.4236 30.9966 70.4162 30.9832 70.4085 30.9699C70.1879 30.5881 69.7792 30.3825 69.3671 30.4027L58.2791 24.0719C57.0755 23.3606 55.7394 23.0078 54.3328 23.0078ZM66.9608 31.6486L57.1274 26.034C56.2857 25.5352 55.3497 25.2828 54.3328 25.2828C53.316 25.2828 52.3799 25.5351 51.5382 26.0339L51.5237 26.0425L41.7206 31.6577L54.3328 38.9461L66.9608 31.6486ZM39.4372 32.9656L28.0988 39.4605C27.6179 39.7463 27.188 40.091 26.8135 40.4901L54.3708 56.4255L81.928 40.49C81.5537 40.0911 81.124 39.7466 80.6434 39.4609L69.2479 32.9544L54.902 41.2448C54.5498 41.4483 54.1158 41.4483 53.7637 41.2448L39.4372 32.9656ZM57.2034 89.3692C56.6744 89.6827 56.1083 89.8988 55.5083 90.0161V58.3957L83.1342 42.4205C83.3443 43.0026 83.4528 43.6363 83.4528 44.2791V57.0437L68.9322 65.3985C68.5795 65.6015 68.362 65.9775 68.362 66.3845V82.9978L57.2192 89.36L57.2034 89.3692ZM53.2333 90.0007V58.3957L25.6123 42.4234C25.3966 43.0152 25.2887 43.6387 25.2887 44.2791V57.0451L39.8112 65.4375C40.1629 65.6408 40.3795 66.0162 40.3795 66.4224V82.9545L51.6141 89.3691C52.1207 89.6693 52.6613 89.8803 53.2333 90.0007ZM25.2887 71.1241V59.6727L38.1045 67.0788V81.6556L28.098 75.9422C27.242 75.4333 26.5476 74.7378 26.0398 73.8808L26.0299 73.8646C25.5442 73.0752 25.2887 72.1102 25.2887 71.1241ZM70.637 81.6989L80.7193 75.9422C81.5753 75.4333 82.2698 74.7378 82.7776 73.8808C83.2136 73.1451 83.4599 72.3395 83.5162 71.4992C83.4752 71.3818 83.4528 71.2555 83.4528 71.1241V59.6684L70.637 67.0423V81.6989Z" fill="url(#paint1_linear_966_90300)"/>
<defs>
<linearGradient id="paint0_linear_966_90300" x1="54.4074" y1="23.8477" x2="54.4074" y2="91.6353" gradientUnits="userSpaceOnUse">
<stop stop-color="#505BFD"/>
<stop offset="1" stop-color="#B542FD"/>
</linearGradient>
<linearGradient id="paint1_linear_966_90300" x1="54.4087" y1="23.0078" x2="54.4087" y2="92.4711" gradientUnits="userSpaceOnUse">
<stop stop-color="#505BFD"/>
<stop offset="1" stop-color="#B542FD"/>
</linearGradient>
</defs>
</svg>
