<svg xmlns="http://www.w3.org/2000/svg" width="112" height="112" fill="none"><path fill="#000" d="M57 22.144C74.912 22.663 89.336 37.088 89.856 55H98v2h-8.145C89.335 74.912 74.912 89.335 57 89.855V98h-2v-8.145C37.088 89.335 22.664 74.912 22.145 57H14v-2h8.145C22.664 37.088 37.088 22.663 55 22.144V14h2zm0 8.114h-2v-6.113C38.193 24.664 24.665 38.194 24.147 55h6.11v2h-6.11C24.665 73.807 38.192 87.335 55 87.853v-6.11h2v6.11C73.807 87.336 87.335 73.808 87.853 57h-6.11v-2h6.11C87.337 38.193 73.808 24.664 57 24.146zM56 35c7.806 0 14.617 4.258 18.236 10.58l4.701-4.701 1.415 1.414-5.165 5.163A20.9 20.9 0 0 1 77 56c0 11.598-9.402 21-21 21s-21-9.402-21-21 9.402-21 21-21m0 2c-10.493 0-19 8.507-19 19s8.507 19 19 19 19-8.507 19-19c0-2.479-.475-4.846-1.339-7.018l-17.848 17.85-14.067-14.068 1.414-1.414 12.654 12.653 16.95-16.951C69.564 41.07 63.258 37 56 37"/><path fill="url(#a)" d="M57 22.144C74.912 22.663 89.336 37.088 89.856 55H98v2h-8.145C89.335 74.912 74.912 89.335 57 89.855V98h-2v-8.145C37.088 89.335 22.664 74.912 22.145 57H14v-2h8.145C22.664 37.088 37.088 22.663 55 22.144V14h2zm0 8.114h-2v-6.113C38.193 24.664 24.665 38.194 24.147 55h6.11v2h-6.11C24.665 73.807 38.192 87.335 55 87.853v-6.11h2v6.11C73.807 87.336 87.335 73.808 87.853 57h-6.11v-2h6.11C87.337 38.193 73.808 24.664 57 24.146zM56 35c7.806 0 14.617 4.258 18.236 10.58l4.701-4.701 1.415 1.414-5.165 5.163A20.9 20.9 0 0 1 77 56c0 11.598-9.402 21-21 21s-21-9.402-21-21 9.402-21 21-21m0 2c-10.493 0-19 8.507-19 19s8.507 19 19 19 19-8.507 19-19c0-2.479-.475-4.846-1.339-7.018l-17.848 17.85-14.067-14.068 1.414-1.414 12.654 12.653 16.95-16.951C69.564 41.07 63.258 37 56 37"/><defs><linearGradient id="a" x1="56" x2="56" y1="14" y2="100.423" gradientUnits="userSpaceOnUse"><stop stop-color="#A34DEE"/><stop offset="1" stop-color="#6943F5"/></linearGradient></defs></svg>