<svg xmlns="http://www.w3.org/2000/svg" width="24" height="24" fill="none"><g fill="#121212" clip-path="url(#a)"><path fill-rule="evenodd" d="M19.782 14A9 9 0 0 0 20 12.018C20 7.038 15.97 3 11 3s-9 4.037-9 9.018c0 4.98 4.03 9.017 9 9.017v-1.458c-.264-.36-.614-.892-.966-1.579a13.1 13.1 0 0 1-1.42-5.38h4.773q-.034.721-.135 1.382h1.213q.091-.664.123-1.382h4.19a8 8 0 0 1-.23 1.382zm-10.14 5.717a7.815 7.815 0 0 1-6.42-7.1h4.19c.102 2.498.828 4.511 1.554 5.929.231.451.463.843.675 1.17m-1.029-8.3a13.1 13.1 0 0 1 1.421-5.38c.352-.687.702-1.218.966-1.578.264.36.614.891.966 1.578a13.1 13.1 0 0 1 1.42 5.38zm-1.2 0h-4.19A7.815 7.815 0 0 1 9.64 4.319c-.212.329-.444.72-.675 1.172a14.3 14.3 0 0 0-1.554 5.928m11.364 0h-4.19a14.3 14.3 0 0 0-1.553-5.927 14 14 0 0 0-.675-1.172 7.815 7.815 0 0 1 6.418 7.1m-6.829 3.22V21h1.143v-1.898l.712-.835L15.71 21h1.38l-2.487-3.507 2.46-2.856h-1.397l-2.487 2.927h-.088v-2.927zm5.665 0V21h1.143v-2.33h1.195L21.199 21h1.274l-1.37-2.523c.746-.303 1.142-.944 1.142-1.81 0-1.213-.782-2.03-2.241-2.03zm2.215 3.076h-1.072v-2.118h1.072c.861 0 1.248.395 1.248 1.072s-.387 1.046-1.248 1.046" clip-rule="evenodd"/><path fill-rule="evenodd" d="M19.782 14A9 9 0 0 0 20 12.018C20 7.038 15.97 3 11 3s-9 4.037-9 9.018c0 4.98 4.03 9.017 9 9.017v-1.458c-.264-.36-.614-.892-.966-1.579a13.1 13.1 0 0 1-1.42-5.38h4.773q-.034.721-.135 1.382h1.213q.091-.664.123-1.382h4.19a8 8 0 0 1-.23 1.382zm-10.14 5.717a7.815 7.815 0 0 1-6.42-7.1h4.19c.102 2.498.828 4.511 1.554 5.929.231.451.463.843.675 1.17m-1.029-8.3a13.1 13.1 0 0 1 1.421-5.38c.352-.687.702-1.218.966-1.578.264.36.614.891.966 1.578a13.1 13.1 0 0 1 1.42 5.38zm-1.2 0h-4.19A7.815 7.815 0 0 1 9.64 4.319c-.212.329-.444.72-.675 1.172a14.3 14.3 0 0 0-1.554 5.928m11.364 0h-4.19a14.3 14.3 0 0 0-1.553-5.927 14 14 0 0 0-.675-1.172 7.815 7.815 0 0 1 6.418 7.1" clip-rule="evenodd"/><path d="M11.95 14.628V21h1.133v-1.89l.72-.846L15.711 21h1.368l-2.484-3.51 2.466-2.862h-1.404l-2.484 2.934h-.09v-2.934z"/><path fill-rule="evenodd" d="M17.623 14.628V21h1.134v-2.34h1.188l1.26 2.34h1.278l-1.386-2.52c.756-.297 1.152-.945 1.152-1.818 0-1.206-.783-2.025-2.25-2.034zm2.214 3.096h-1.08V15.6h1.08c.855-.009 1.242.396 1.242 1.062 0 .684-.387 1.053-1.242 1.062" clip-rule="evenodd"/></g><defs><clipPath id="a"><path fill="#fff" d="M0 0h24v24H0z"/></clipPath></defs></svg>