<svg xmlns="http://www.w3.org/2000/svg" width="112" height="112" fill="none"><path fill="url(#a)" d="M27.899 29.947c7.813-7.775 20.363-7.814 28.178.001l3.349 3.349 1.912-1.945.002-.003.308-.302c6.549-6.26 16.938-6.12 23.397.302 6.564 6.525 6.562 17.141 0 23.704l-4.625 4.664a.3.3 0 0 1-.09.061l.728.692.18.177c1.803 1.875 1.819 4.852-.017 6.768L63.895 85.653v.001a4.875 4.875 0 0 1-6.788.308.3.3 0 0 1-.12-.069l-8.53-8.113-.198-.197c-1.971-2.08-1.748-5.433.52-7.232v-.001l19.945-15.773.183-.14c1.922-1.384 4.555-1.222 6.241.425l4.78 4.536a.3.3 0 0 1 .067-.102l4.626-4.664.001-.001.292-.3c6.035-6.347 5.937-16.364-.292-22.556-6.33-6.292-16.566-6.329-22.855-.004v.001l-1.916 1.95.027.027 2.844 3.071 5.223 5.224.18.19c1.794 1.988 1.734 5.109-.18 7.022s-5.033 1.972-7.022.178l-.189-.178-5.228-5.229-3.033-2.92q-.01-.01-.018-.02L31.205 62.524v.001l-.797.797-2.313 2.313c-.78.78-1.408 1.854-1.599 2.94-.188 1.069.046 2.14.972 2.986l20.686 14.927.011.008c1.637 1.29 3.89.962 5.398-.54l.49-.527.046-.041a.301.301 0 0 1 .394.449l-.493.53-.008.009v-.001c-1.676 1.675-4.265 2.106-6.188.6L27.1 72.036l-.026-.022c-1.113-1.01-1.388-2.304-1.17-3.543.217-1.228.915-2.41 1.766-3.26l2.312-2.314.797-.795.623-.63a.3.3 0 0 1-.245-.084l-3.26-3.261c-7.814-7.814-7.815-20.403 0-28.18m46.829 25.344c-1.472-1.438-3.778-1.586-5.471-.367l-.162.122L49.15 70.818l.001.001a4.32 4.32 0 0 0-.458 6.35l.174.174h.001l8.382 7.972c.04.014.08.036.112.068a4.28 4.28 0 0 0 6.095-.14l.002-.002 17.328-18.238.001-.001.15-.166a4.275 4.275 0 0 0-.29-5.929l-.002-.002-5.915-5.611zM55.652 30.372c-7.579-7.58-19.75-7.542-27.33 0-7.58 7.543-7.58 19.75 0 27.331l3.261 3.26a.3.3 0 0 1 .084.243L52.202 40.49a.3.3 0 0 1 .491.102c.07.003.14.03.195.082l3.033 2.92 5.236 5.236.167.158c1.754 1.581 4.51 1.528 6.197-.158 1.686-1.686 1.739-4.443.158-6.196l-.159-.166-5.232-5.233-.008-.008-2.836-3.063z"/><path fill="url(#b)" fill-rule="evenodd" d="M27.306 29.346c8.138-8.097 21.22-8.14 29.363.004l2.752 2.751 1.318-1.34.003-.008.656-.625c6.894-6.262 17.564-6.008 24.235.622 6.893 6.852 6.887 17.993.003 24.882l.004.004-4.099 4.129.096.092c2.318 2.18 2.4 5.817.19 8.128l.003.004L64.5 86.217l.004.004c-2.09 2.225-5.522 2.394-7.838.452q-.05-.024-.097-.052l-.159-.126-1.007-.959c.024.306-.072.62-.296.863l-.493.533-.03.03c-1.917 1.917-4.988 2.485-7.309.659L26.61 72.71l-.096-.082c-1.362-1.235-1.693-2.838-1.433-4.31.252-1.425 1.05-2.758 2-3.706l3.058-3.063-2.833-2.836c-8.14-8.14-8.145-21.262 0-29.367m56.723 3.018c-6.006-5.97-15.714-6-21.672-.008l-1.352 1.37 2.3 2.485 5.232 5.236.403.448c1.889 2.322 1.754 5.788-.403 7.946s-5.625 2.292-7.946.404l-.448-.404-5.218-5.217-2.458-2.37L31.8 63.108l-3.114 3.114c-.68.681-1.21 1.607-1.366 2.492-.146.828.03 1.583.689 2.2l20.635 14.889.037.03.241.17c1.222.778 2.857.539 4.044-.64l.474-.512a1.13 1.13 0 0 1 .866-.355l-6.428-6.117c-2.552-2.411-2.36-6.518.378-8.69l.003-.004 19.944-15.77.433-.316c2.215-1.446 5.16-1.222 7.083.645l4.17 3.954 4.132-4.162.004-.003.548-.574c5.45-6.032 5.264-15.32-.545-21.095m-9.886 23.52c-1.21-1.18-3.145-1.283-4.529-.189L49.671 71.47a3.486 3.486 0 0 0-.5 4.973l.27.285.004.004 8.298 7.89q.107.065.2.152a3.44 3.44 0 0 0 4.903-.11l.007-.004 17.325-18.24.004-.004.237-.27a3.437 3.437 0 0 0-.344-4.633l-.004-.003-5.917-5.614zM55.059 30.957c-7.25-7.248-18.89-7.215-26.146.004-7.249 7.213-7.254 18.891 0 26.145l2.83 2.825 19.865-20.036.177-.148a1.14 1.14 0 0 1 1.415.126q.045.023.089.048l.181.145 3.033 2.918 5.247 5.246.277.252c1.429 1.158 3.578 1.073 4.903-.252 1.323-1.325 1.407-3.475.248-4.902l-.248-.274-5.266-5.262-2.843-3.073z" clip-rule="evenodd"/><defs><linearGradient id="a" x1="56.002" x2="56.002" y1="24.102" y2="87.899" gradientUnits="userSpaceOnUse"><stop stop-color="#505BFD"/><stop offset="1" stop-color="#B542FD"/></linearGradient><linearGradient id="b" x1="56" x2="56" y1="23.258" y2="88.733" gradientUnits="userSpaceOnUse"><stop stop-color="#505BFD"/><stop offset="1" stop-color="#B542FD"/></linearGradient></defs></svg>