<svg xmlns="http://www.w3.org/2000/svg" width="112" height="112" fill="none"><path fill="url(#a)" fill-rule="evenodd" d="M82.323 32.275c.288.694.454 1.432.49 2.181l.008.321a6.54 6.54 0 0 1-1.693 4.39l-.222.232-40.228 40.228-12.325 3.081 3.08-12.326 40.23-40.227.234-.223a6.537 6.537 0 0 1 10.426 2.343m.555 5.234a7.1 7.1 0 0 0 .534-2.381l.009-.35a7.14 7.14 0 0 0-4.405-6.594 7.14 7.14 0 0 0-7.522 1.302l-.257.244-40.286 40.288a.3.3 0 0 0-.049.063l-.03.075-3.222 12.892a.3.3 0 0 0 .364.364l12.891-3.223q.08-.02.14-.079L81.33 39.824l.241-.255a7.1 7.1 0 0 0 1.306-2.06m3.135 45.318-.06-.006H56.947a.3.3 0 1 0 0 .6h29.006l.06-.006a.3.3 0 0 0 0-.588" clip-rule="evenodd"/><path fill="url(#b)" fill-rule="evenodd" d="M76.286 26.8c-2.115 0-4.143.84-5.639 2.336L30.361 69.423c-.146.146-.25.328-.3.528L26.84 82.843a1.137 1.137 0 0 0 1.38 1.38l12.89-3.224c.2-.05.383-.153.53-.299l40.286-40.286a7.974 7.974 0 0 0-5.64-13.613m-4.03 3.945a5.699 5.699 0 1 1 8.06 8.06L40.252 78.87l-10.746 2.686 2.686-10.746z" clip-rule="evenodd"/><path fill="url(#c)" d="M56.948 81.981a1.137 1.137 0 1 0 0 2.275h29.007a1.138 1.138 0 0 0 0-2.275z"/><defs><linearGradient id="a" x1="56.947" x2="56.947" y1="27.641" y2="83.421" gradientUnits="userSpaceOnUse"><stop stop-color="#505BFD"/><stop offset="1" stop-color="#B542FD"/></linearGradient><linearGradient id="b" x1="56.948" x2="56.948" y1="26.801" y2="84.256" gradientUnits="userSpaceOnUse"><stop stop-color="#505BFD"/><stop offset="1" stop-color="#B542FD"/></linearGradient><linearGradient id="c" x1="56.948" x2="56.948" y1="26.801" y2="84.256" gradientUnits="userSpaceOnUse"><stop stop-color="#505BFD"/><stop offset="1" stop-color="#B542FD"/></linearGradient></defs></svg>