<svg xmlns="http://www.w3.org/2000/svg" width="85" height="85" fill="none"><path fill="#fff" d="M31.6 49.61a.697.697 0 0 1 0 1.386L31.53 51h-7.427a.697.697 0 0 1 0-1.393h7.427z"/><path fill="#fff" fill-rule="evenodd" d="M54.122 24.569a5.51 5.51 0 0 1 4.72 3.013l7.624 11.848c.507.787.776 1.703.776 2.639v13.216a5.51 5.51 0 0 1-5.512 5.512H23.21a5.51 5.51 0 0 1-5.51-5.512V42.07c0-.936.268-1.852.775-2.639l7.624-11.848a5.51 5.51 0 0 1 4.911-3.017h22.92zM19.134 41.536a3.5 3.5 0 0 0-.042.533v13.216a4.12 4.12 0 0 0 4.119 4.119h38.52a4.12 4.12 0 0 0 4.118-4.119V42.07q0-.27-.043-.533zM31.01 25.96a4.12 4.12 0 0 0-3.55 2.034l-.136.251a1 1 0 0 1-.038.068l-7.614 11.831h45.595l-7.614-11.831a1 1 0 0 1-.039-.068 4.12 4.12 0 0 0-3.399-2.275l-.287-.01z" clip-rule="evenodd"/></svg>