<svg xmlns="http://www.w3.org/2000/svg" width="112" height="112" fill="none"><path fill="url(#a)" d="M99.61 18.005A4 4 0 0 1 103.404 22v51.83l-.005.205a4 4 0 0 1-3.789 3.79l-.206.005H47v13.553h14.17v-7.894h2v7.894h24.063v2h-64.68v-2H45V77.83H12l-.206-.006a4 4 0 0 1-3.79-3.789L8 73.83V22a4 4 0 0 1 3.794-3.995L12 18h87.404zM12 20a2 2 0 0 0-2 2v51.83a2 2 0 0 0 2 2h87.404a2 2 0 0 0 2-2V22a2 2 0 0 0-2-2zm28.138 12.17a2.2 2.2 0 0 1 2.2 2.2v1.535c1.178.332 2.29.821 3.31 1.444l.779-.779.167-.15a2.2 2.2 0 0 1 2.777 0l.167.151 2.004 2.004.151.167a2.2 2.2 0 0 1-.151 2.945l-.967.964c.399.777.723 1.6.964 2.455h1.534a2.2 2.2 0 0 1 2.2 2.2v2.835a2.2 2.2 0 0 1-2.2 2.2h-1.535a13.3 13.3 0 0 1-1.444 3.31l1.218 1.22c.806.805.857 2.08.152 2.944l-.151.166-2.004 2.004a2.2 2.2 0 0 1-3.112 0l-1.407-1.408c-.776.398-1.597.722-2.452.963v1.536c0 1.215-.986 2.2-2.2 2.2h-2.834c-1.215 0-2.2-.985-2.2-2.2v-1.535a13.2 13.2 0 0 1-2.456-.963l-1.404 1.406a2.2 2.2 0 0 1-2.944.152l-.167-.15-2.004-2.005a2.2 2.2 0 0 1-.001-3.11l1.218-1.22a13.3 13.3 0 0 1-1.444-3.31h-1.535a2.2 2.2 0 0 1-2.2-2.2v-2.834a2.2 2.2 0 0 1 2.2-2.2h1.535c.241-.857.564-1.679.962-2.456l-.965-.965a2.2 2.2 0 0 1 0-3.11l2.003-2.005.167-.151a2.2 2.2 0 0 1 2.778 0l.167.151.777.778a13.3 13.3 0 0 1 3.312-1.444V34.37a2.2 2.2 0 0 1 2.2-2.2zm-2.874 2.004a.2.2 0 0 0-.16.196v2.978l-.013.07a.2.2 0 0 1-.16.129l-.364.064a11.3 11.3 0 0 0-4.86 2.228l-.065.035a.2.2 0 0 1-.142-.008l-.061-.042-1.84-1.839a.2.2 0 0 0-.283 0l-2.002 2.004a.2.2 0 0 0 0 .284l1.945 1.945a.2.2 0 0 1 .024.255l-.16.25a11.25 11.25 0 0 0-1.58 4.212l-.023.068a.2.2 0 0 1-.104.09l-.071.013h-2.978l-.04.004a.2.2 0 0 0-.16.197v2.834c0 .096.07.177.16.196l.04.004h2.978c.099 0 .184.074.2.172a11.27 11.27 0 0 0 2.29 5.223.203.203 0 0 1-.014.269l-2.278 2.28a.2.2 0 0 0 0 .282l2.004 2.003a.2.2 0 0 0 .252.026l.031-.026 2.385-2.385a.2.2 0 0 1 .255-.025c1.319.876 2.833 1.48 4.462 1.74.098.015.171.1.171.199v2.977c0 .097.07.178.16.197l.04.003h2.835l.04-.004a.2.2 0 0 0 .156-.156l.004-.04V60.1c0-.1.074-.185.172-.2a11.25 11.25 0 0 0 4.46-1.74.2.2 0 0 1 .255.025l2.386 2.386a.2.2 0 0 0 .252.026l.032-.026 2.003-2.003a.2.2 0 0 0 .026-.252l-.026-.03-2.279-2.28a.203.203 0 0 1-.014-.269 11.27 11.27 0 0 0 2.292-5.223.2.2 0 0 1 .128-.16l.072-.012h2.976l.04-.004a.2.2 0 0 0 .157-.156l.003-.04v-2.834a.2.2 0 0 0-.16-.197l-.04-.004h-2.976l-.072-.012a.2.2 0 0 1-.104-.091l-.023-.068a11.3 11.3 0 0 0-1.58-4.212l-.16-.25a.2.2 0 0 1 .024-.255l1.946-1.946a.2.2 0 0 0 .025-.252l-.025-.03-2.004-2.005a.2.2 0 0 0-.283 0L46 39.825l-.061.041a.2.2 0 0 1-.142.008l-.066-.035a11.3 11.3 0 0 0-4.859-2.228l-.363-.063a.2.2 0 0 1-.16-.13l-.012-.07V34.37a.2.2 0 0 0-.16-.196l-.04-.004h-2.834zM74.83 48.75a5.07 5.07 0 0 1 4.711 4.065h8.45v2h-8.448a5.075 5.075 0 0 1-4.975 4.073l-.26-.006a5.073 5.073 0 0 1-4.805-4.805l-.007-.262a5.073 5.073 0 0 1 5.072-5.072zm-.262 1.993a3.073 3.073 0 1 0 .001 6.145 3.073 3.073 0 0 0 0-6.145m-35.846-8.49a6.47 6.47 0 0 1 6.46 6.137l.008.333a6.47 6.47 0 0 1-6.135 6.459l-.333.008a6.47 6.47 0 0 1-6.468-6.467l.009-.333a6.47 6.47 0 0 1 6.126-6.127zm45.057-4.844a5.073 5.073 0 0 1 4.805 4.805l.007.262a5.073 5.073 0 0 1-5.072 5.072l-.262-.007a5.075 5.075 0 0 1-4.712-4.065h-8.456a2.88 2.88 0 0 0-2.879 2.879v7.757h-2v-7.757a4.88 4.88 0 0 1 4.879-4.88h8.455a5.074 5.074 0 0 1 4.975-4.072zm-45.057 6.845a4.47 4.47 0 0 0 0 8.936 4.47 4.47 0 0 0 0-8.936m44.797-4.85a3.072 3.072 0 1 0 0 6.144 3.072 3.072 0 0 0 0-6.145"/><defs><linearGradient id="a" x1="55.702" x2="55.702" y1="18" y2="95.557" gradientUnits="userSpaceOnUse"><stop stop-color="#A34DEE"/><stop offset="1" stop-color="#6943F5"/></linearGradient></defs></svg>