<svg xmlns="http://www.w3.org/2000/svg" width="113" height="112" fill="none"><g fill="#fff" clip-path="url(#a)"><path d="M38.95 29.385a26.25 26.25 0 0 1 34.32 17.302h3.215a16.78 16.78 0 0 1 0 33.56H48.08v-.001a26.25 26.25 0 0 1-23.58-14.678A26.25 26.25 0 0 1 38.95 29.385m14 .865a24.25 24.25 0 0 0-24.063 8.908 24.25 24.25 0 0 0 6.361 35.426 24.25 24.25 0 0 0 12.832 3.663h28.405a14.78 14.78 0 0 0 14.779-14.78 14.78 14.78 0 0 0-14.78-14.78h-3.976a1 1 0 0 1-.968-.75A24.25 24.25 0 0 0 52.95 30.25"/><path fill-rule="evenodd" d="M38.948 29.385a26.25 26.25 0 0 1 34.32 17.302h3.215a16.781 16.781 0 0 1 11.865 28.645 16.78 16.78 0 0 1-11.865 4.915H48.079a26.25 26.25 0 0 1-26.132-28.898 26.25 26.25 0 0 1 17-21.964m14 .865a24.25 24.25 0 0 0-24.063 8.908 24.25 24.25 0 0 0 19.193 39.089h28.405a14.78 14.78 0 0 0 14.779-14.78 14.78 14.78 0 0 0-14.78-14.78h-3.976a1 1 0 0 1-.968-.75 24.25 24.25 0 0 0-18.59-17.687" clip-rule="evenodd"/></g><defs><clipPath id="a"><path fill="#fff" d="M.82 0h112v112H.82z"/></clipPath></defs></svg>