<svg xmlns="http://www.w3.org/2000/svg" width="113" height="113" fill="none"><path fill="#fff" fill-rule="evenodd" d="M38.664 66.141a7.936 7.936 0 1 1 0 15.871 7.936 7.936 0 0 1 0-15.87m0 2a5.937 5.937 0 1 0 .001 11.872 5.937 5.937 0 0 0 0-11.873M74.78 66.141a7.936 7.936 0 1 1 0 15.872 7.936 7.936 0 0 1 0-15.872m0 2a5.936 5.936 0 1 0 .001 11.872 5.936 5.936 0 0 0 0-11.873" clip-rule="evenodd"/><path fill="#fff" d="M63.366 31.665a6.996 6.996 0 0 1 6.996 6.996v6.941h9.999c1.325 0 2.596.527 3.533 1.464l7.149 7.148.17.18a5 5 0 0 1 1.294 3.354v10.164a4.997 4.997 0 0 1-4.997 4.997h-2.9a1 1 0 0 1 0-1.999h2.9a3 3 0 0 0 2.998-2.998V57.748c0-.696-.242-1.367-.68-1.9l-.198-.22-7.15-7.149a3 3 0 0 0-2.12-.878h-9.998v16.685a1 1 0 0 1-1.999 0V38.661a4.997 4.997 0 0 0-4.997-4.997h-35.46a5 5 0 0 0-4.997 4.997v27.251a4.997 4.997 0 0 0 4.997 4.997h1.255l.102.006a1 1 0 0 1 0 1.988l-.102.005h-1.255a6.996 6.996 0 0 1-6.996-6.996V38.661a6.996 6.996 0 0 1 6.996-6.996z"/><path fill="#fff" d="M64.815 70.915a1 1 0 0 1 0 1.988l-.101.005H48.367a1 1 0 0 1 0-1.999h16.347z"/></svg>