<svg xmlns="http://www.w3.org/2000/svg" width="112" height="112" fill="none"><path fill="url(#a)" d="M33.565 33.689a.3.3 0 0 1 .396.45C27.5 39.812 23.408 48.11 23.408 57.348c0 17.048 13.82 30.868 30.868 30.905l.853-.011a30.73 30.73 0 0 0 22.09-10.203l.046-.04a.3.3 0 0 1 .401.442l-.546.591a31.34 31.34 0 0 1-22.844 9.82c-17.38-.037-31.467-14.124-31.467-31.504 0-9.418 4.173-17.879 10.756-23.658m-5.294-13.226a.3.3 0 0 1 .377-.039l.046.04 61.124 61.123.04.047a.3.3 0 0 1-.417.416l-.047-.039L28.27 20.887l-.039-.047a.3.3 0 0 1 .04-.377m26.004 5.45c17.38 0 31.468 14.087 31.468 31.467a31.5 31.5 0 0 1-3.79 15.005l-.034.05a.3.3 0 0 1-.494-.334l.431-.831a30.9 30.9 0 0 0 3.287-13.89c0-17.048-13.82-30.868-30.868-30.868-5.276 0-10.233 1.305-14.565 3.639l-.417.228a.3.3 0 1 1-.293-.523l.426-.234c4.418-2.38 9.473-3.71 14.85-3.71m.077 39.434c4.794 0 9.046 2.166 11.98 5.485a.3.3 0 0 1-.451.398c-2.83-3.202-6.921-5.284-11.53-5.284s-8.699 2.082-11.529 5.284l-.224-.2-.225-.198c2.934-3.32 7.184-5.485 11.979-5.485m-11.53 5.883a.3.3 0 0 1-.449-.398zm1.71-27.496a2.503 2.503 0 1 1-.001 5.005 2.503 2.503 0 0 1 .001-5.005m19.49 0a2.503 2.503 0 1 1-.001 5.006 2.503 2.503 0 0 1 0-5.006"/><path fill="url(#b)" d="M33.013 33.054a1.137 1.137 0 0 1 1.5 1.711c-6.288 5.52-10.268 13.593-10.269 22.576.001 16.584 13.444 30.028 30.03 30.067 8.878 0 16.84-3.834 22.32-9.935a1.139 1.139 0 0 1 1.693 1.522 32.17 32.17 0 0 1-22.232 10.642l-1.781.048c-17.84-.04-32.303-14.502-32.303-32.344 0-9.67 4.287-18.357 11.042-24.287"/><path fill="url(#c)" d="M64.02 43.73a2.502 2.502 0 1 1 .002 5.003 2.502 2.502 0 0 1-.002-5.003"/><path fill="url(#d)" fill-rule="evenodd" d="M27.677 19.865a1.14 1.14 0 0 1 1.429-.148l.178.148 9.275 9.276q.016-.01.034-.019c4.642-2.596 9.991-4.05 15.685-4.05 17.84 0 32.302 14.461 32.303 32.302a32.36 32.36 0 0 1-3.888 15.404 1.1 1.1 0 0 1-.219.274l7.935 7.935.145.182c.29.441.244 1.04-.145 1.429a1.14 1.14 0 0 1-1.429.144l-.181-.144-61.122-61.126-.148-.178a1.14 1.14 0 0 1 .148-1.429m26.6 7.48c-5.084 0-9.86 1.247-14.04 3.473L80.83 71.412a30.06 30.06 0 0 0 3.477-14.038c0-16.584-13.445-30.028-30.03-30.03" clip-rule="evenodd"/><path fill="url(#e)" d="M43.45 71.782a1.14 1.14 0 0 1-1.603.096 1.135 1.135 0 0 1-.1-1.603z"/><path fill="url(#f)" d="M54.352 64.506c5.054 0 9.53 2.286 12.608 5.769a1.138 1.138 0 0 1-1.704 1.507c-2.684-3.038-6.557-5.002-10.904-5.002s-8.217 1.964-10.901 5.002l-.852-.755-.852-.752c3.078-3.483 7.55-5.769 12.605-5.769"/><path fill="url(#g)" d="M44.532 43.73a2.502 2.502 0 1 1 .001 5.004 2.502 2.502 0 0 1-.001-5.004"/><defs><linearGradient id="a" x1="56.358" x2="56.358" y1="20.375" y2="88.852" gradientUnits="userSpaceOnUse"><stop stop-color="#505BFD"/><stop offset="1" stop-color="#B542FD"/></linearGradient><linearGradient id="b" x1="56.356" x2="56.356" y1="19.531" y2="89.685" gradientUnits="userSpaceOnUse"><stop stop-color="#505BFD"/><stop offset="1" stop-color="#B542FD"/></linearGradient><linearGradient id="c" x1="56.356" x2="56.356" y1="19.531" y2="89.685" gradientUnits="userSpaceOnUse"><stop stop-color="#505BFD"/><stop offset="1" stop-color="#B542FD"/></linearGradient><linearGradient id="d" x1="56.356" x2="56.356" y1="19.531" y2="89.685" gradientUnits="userSpaceOnUse"><stop stop-color="#505BFD"/><stop offset="1" stop-color="#B542FD"/></linearGradient><linearGradient id="e" x1="56.356" x2="56.356" y1="19.531" y2="89.685" gradientUnits="userSpaceOnUse"><stop stop-color="#505BFD"/><stop offset="1" stop-color="#B542FD"/></linearGradient><linearGradient id="f" x1="56.356" x2="56.356" y1="19.531" y2="89.685" gradientUnits="userSpaceOnUse"><stop stop-color="#505BFD"/><stop offset="1" stop-color="#B542FD"/></linearGradient><linearGradient id="g" x1="56.356" x2="56.356" y1="19.531" y2="89.685" gradientUnits="userSpaceOnUse"><stop stop-color="#505BFD"/><stop offset="1" stop-color="#B542FD"/></linearGradient></defs></svg>