<svg width="112" height="112" viewBox="0 0 112 112" fill="none" xmlns="http://www.w3.org/2000/svg">
<path fill-rule="evenodd" clip-rule="evenodd" d="M56.0361 24.4473C67.1854 24.4474 76.2451 33.887 76.2451 45.5586C76.2451 52.9748 72.5874 59.4898 67.06 63.2547C66.9975 63.2725 66.9442 63.3097 66.9059 63.3586C63.766 65.4552 60.0355 66.6699 56.0361 66.6699C44.8867 66.6699 35.8262 57.2303 35.8262 45.5586C35.8262 33.8869 44.8867 24.4473 56.0361 24.4473ZM66.9077 64.0752C63.745 66.1009 60.0227 67.2695 56.0361 67.2695C52.0523 67.2695 48.3324 66.1026 45.1712 64.0795L41.7649 90.8481L55.8781 82.0083L55.9553 81.9741C56.0356 81.9512 56.1235 81.9627 56.1965 82.0083L70.3098 90.8481L66.9077 64.0752ZM44.6139 63.71C38.9568 59.8268 35.2266 53.1429 35.2266 45.5586C35.2266 33.5802 44.5313 23.8477 56.0361 23.8477C67.5409 23.8478 76.8457 33.5802 76.8457 45.5586C76.8457 53.1399 73.1184 59.8215 67.4651 63.7054L70.9846 91.4008C70.9992 91.5159 70.9465 91.6294 70.8488 91.6919C70.7513 91.7542 70.6267 91.755 70.5285 91.6938L56.0373 82.6167L41.5471 91.6938C41.449 91.7551 41.3243 91.7541 41.2268 91.6919C41.1291 91.6294 41.0754 91.5159 41.09 91.4008L44.6139 63.71Z" fill="url(#paint0_linear_966_90316)"/>
<path fill-rule="evenodd" clip-rule="evenodd" d="M43.7186 64.1034C38.0722 60.0251 34.3887 53.2232 34.3887 45.5565C34.3887 33.1498 44.0348 23.0078 56.0358 23.0078C68.0367 23.0078 77.6828 33.1498 77.6828 45.5565C77.6828 53.2203 74.0022 60.0199 68.3594 64.0987L71.8155 91.2935C71.8709 91.7296 71.6702 92.1586 71.2998 92.3954C70.9294 92.6321 70.4558 92.6343 70.0833 92.401L56.0374 83.603L41.9915 92.401C41.619 92.6343 41.1453 92.6321 40.7749 92.3953C40.4046 92.1585 40.2038 91.7295 40.2593 91.2934L43.7186 64.1034ZM36.6637 45.5565C36.6637 34.313 45.3825 25.2828 56.0358 25.2828C66.689 25.2828 75.4078 34.313 75.4078 45.5565C75.4078 52.6692 71.9186 58.8962 66.6577 62.5116C66.5514 62.5616 66.4547 62.6273 66.3702 62.7054C63.3744 64.6861 59.8276 65.8301 56.0358 65.8301C45.3825 65.8301 36.6637 56.7999 36.6637 45.5565ZM66.2379 65.4509C63.2023 67.1438 59.7306 68.1051 56.0358 68.1051C52.3435 68.1051 48.8742 67.1451 45.8401 65.4545L42.8192 89.1981L55.4336 81.2968C55.8029 81.0654 56.2719 81.0654 56.6412 81.2968L69.2559 89.1983L66.2379 65.4509Z" fill="url(#paint1_linear_966_90316)"/>
<defs>
<linearGradient id="paint0_linear_966_90316" x1="56.0361" y1="23.8477" x2="56.0361" y2="91.7392" gradientUnits="userSpaceOnUse">
<stop stop-color="#505BFD"/>
<stop offset="1" stop-color="#B542FD"/>
</linearGradient>
<linearGradient id="paint1_linear_966_90316" x1="56.0358" y1="23.0078" x2="56.0358" y2="92.5745" gradientUnits="userSpaceOnUse">
<stop stop-color="#505BFD"/>
<stop offset="1" stop-color="#B542FD"/>
</linearGradient>
</defs>
</svg>
