<svg xmlns="http://www.w3.org/2000/svg" width="113" height="113" fill="none"><path fill="#fff" d="M89.027 61.086a1 1 0 0 1 .294.038l.01.003.066.023.022.01q.03.012.061.027l.013.007a.95.95 0 0 1 .465.556l.007.026a1 1 0 0 1 .035.247l.001.01v17.841a.947.947 0 0 1-1.895 0V64.222l-12.2 11.465a27.71 27.71 0 0 1-45.697-10.365l1.786-.632a25.814 25.814 0 0 0 42.593 9.638l.021-.022 12.053-11.325H71.213a.947.947 0 0 1 0-1.895zM30.786 64.113a.95.95 0 0 1 1.209.577l-1.786.632a.947.947 0 0 1 .577-1.209M48.664 29.476a27.71 27.71 0 0 1 33.82 17.374.948.948 0 0 1-1.786.632 25.813 25.813 0 0 0-42.006-10.206l-.586.568-.022.022-12.056 11.328H41.48l.097.005a.948.948 0 0 1 0 1.885l-.097.004H23.64a.95.95 0 0 1-.914-.7l-.005-.017a1 1 0 0 1-.027-.188l-.002-.042v-17.84a.947.947 0 0 1 1.895 0v15.648l12.2-11.464a27.7 27.7 0 0 1 11.878-7.009"/></svg>