<svg xmlns="http://www.w3.org/2000/svg" width="113" height="113" fill="none"><path fill="#fff" d="M63.99 42.338c.262-.261 8.726-.062 9.053.054l.033.013.013.005a1 1 0 0 1 .144.075l.027.02a1 1 0 0 1 .071.054l.04.038.014.012.016.017.025.028.037.043.016.024.032.044.015.026a.9.9 0 0 1 .13.472v8.74a.926.926 0 0 1-1.85 0v-6.507l-12.26 12.26a.926.926 0 0 1-1.308 0l-6.63-6.63-10.27 10.272a.926.926 0 0 1-1.308-1.308l10.924-10.926.07-.064a.925.925 0 0 1 1.238.064l6.63 6.63 11.606-11.606H63.99a.926.926 0 0 1 0-1.85"/><path fill="#fff" fill-rule="evenodd" d="M82 27.459a7.25 7.25 0 0 1 7.248 7.248v31.615A7.25 7.25 0 0 1 82 73.57H57.634v10.795h11.719l.095.005a.925.925 0 0 1 0 1.84l-.095.005H56.727l-.019.001H44.061a.926.926 0 0 1 0-1.851h11.722V73.57H31.416a7.25 7.25 0 0 1-7.248-7.248V34.707a7.25 7.25 0 0 1 7.248-7.248zm-50.584 1.85a5.4 5.4 0 0 0-5.398 5.398v31.615a5.4 5.4 0 0 0 5.398 5.398H82a5.397 5.397 0 0 0 5.398-5.398V34.707A5.4 5.4 0 0 0 82 29.309z" clip-rule="evenodd"/></svg>