<svg xmlns="http://www.w3.org/2000/svg" width="113" height="112" fill="none"><g fill="#fff" clip-path="url(#a)"><path d="M65.795 22.33a1 1 0 0 1 1 1v7.91h7.91a6.94 6.94 0 0 1 6.94 6.94v7.91h7.91l.102.005a1 1 0 0 1 0 1.99l-.102.005h-7.91v12.85h7.91l.102.005a1 1 0 0 1 0 1.99l-.102.005h-7.91v10.88a6.94 6.94 0 0 1-6.94 6.94h-7.91v7.91a1 1 0 0 1-2 0v-7.91h-15.82v7.91a1 1 0 0 1-2 0v-7.91h-7.91a6.94 6.94 0 0 1-6.94-6.94V62.94h-7.91a1 1 0 0 1 0-2h7.91V48.09h-7.91a1 1 0 0 1 0-2h7.91v-7.91a6.94 6.94 0 0 1 6.94-6.94h7.91v-7.91a1 1 0 0 1 2 0v7.91h15.82v-7.91a1 1 0 0 1 1-1m-26.73 10.91a4.94 4.94 0 0 0-4.94 4.94v35.64a4.94 4.94 0 0 0 4.94 4.94h35.64a4.94 4.94 0 0 0 4.94-4.94V38.18a4.94 4.94 0 0 0-4.94-4.94zm26.73 12.85a1 1 0 0 1 1 1v17.82a1 1 0 0 1-1 1h-17.82a1 1 0 0 1-1-1V47.09a1 1 0 0 1 1-1zm-16.82 17.82h15.82V48.09h-15.82z"/><path fill-rule="evenodd" d="M65.795 46.09a1 1 0 0 1 1 1v17.82a1 1 0 0 1-1 1h-17.82a1 1 0 0 1-1-1V47.09a1 1 0 0 1 1-1zm-16.82 17.82h15.82V48.09h-15.82z" clip-rule="evenodd"/><path fill-rule="evenodd" d="M65.795 22.33a1 1 0 0 1 1 1v7.91h7.91a6.94 6.94 0 0 1 6.94 6.94v7.91h7.91l.102.005a1 1 0 0 1 0 1.99l-.102.005h-7.91v12.85h7.91l.102.005a1 1 0 0 1 0 1.99l-.102.005h-7.91v10.88a6.94 6.94 0 0 1-6.94 6.94h-7.91v7.91a1 1 0 0 1-2 0v-7.91h-15.82v7.91a1 1 0 0 1-2 0v-7.91h-7.91a6.94 6.94 0 0 1-6.94-6.94V62.94h-7.91a1 1 0 0 1 0-2h7.91V48.09h-7.91a1 1 0 0 1 0-2h7.91v-7.91a6.94 6.94 0 0 1 6.94-6.94h7.91v-7.91a1 1 0 0 1 2 0v7.91h15.82v-7.91a1 1 0 0 1 1-1m-26.73 10.91a4.94 4.94 0 0 0-4.94 4.94v35.64a4.94 4.94 0 0 0 4.94 4.94h35.64a4.94 4.94 0 0 0 4.94-4.94V38.18a4.94 4.94 0 0 0-4.94-4.94z" clip-rule="evenodd"/></g><defs><clipPath id="a"><path fill="#fff" d="M.885 0h112v112h-112z"/></clipPath></defs></svg>