<svg width="112" height="112" viewBox="0 0 112 112" fill="none" xmlns="http://www.w3.org/2000/svg">
<mask id="mask0_385_9954" style="mask-type:alpha" maskUnits="userSpaceOnUse" x="10" y="20" width="93" height="74">
<circle cx="34.6874" cy="44.5546" r="23.5546" stroke="black" stroke-width="2"/>
<path d="M40.5557 39.2871C40.5557 36.3878 37.7633 33.4884 34.4961 33.4884M34.4961 33.4884C31.7037 33.4884 28.4365 35.4662 28.4365 39.2871C28.4365 42.7145 31.4663 44.3609 34.4961 44.3609M34.4961 33.4884V30.5891M34.4961 33.4884C34.4961 33.4884 34.4961 40.1149 34.4961 44.3609M34.5041 54.6965C37.5259 54.6965 40.5557 52.334 40.5557 49.4347C40.5557 46.5354 37.5259 44.3609 34.4961 44.3609M34.5041 54.6965C31.4823 54.6965 28.4365 52.2178 28.4365 49.4347M34.5041 54.6965C34.5041 54.6965 34.4992 48.3972 34.4961 44.3609M34.5041 54.6965L34.4961 58.1327" stroke="black" stroke-width="2"/>
<path d="M77.8403 25.1831C80.6016 25.1832 82.8403 27.4218 82.8403 30.1831V36.3374L97.1489 36.3345C99.9108 36.3338 102.15 38.5726 102.15 41.3345V60.0474L102.14 60.2974C102.044 61.4511 101.289 62.4491 100.206 62.856L99.9683 62.9341L99.3374 63.1118V88.2876C99.3372 91.0487 97.0985 93.2874 94.3374 93.2876H35.3569C32.5958 93.2874 30.3571 91.0487 30.3569 88.2876V68.4614C31.0158 68.5453 31.6828 68.6028 32.3569 68.6343V88.2876C32.3571 89.9441 33.7004 91.2874 35.3569 91.2876H94.3374C95.994 91.2874 97.3372 89.9442 97.3374 88.2876V63.5083L72.144 67.0806V72.6577C72.1437 73.7619 71.2483 74.6576 70.144 74.6577H59.9536C58.8494 74.6576 57.954 73.7619 57.9536 72.6577V67.0337L46.8296 64.8306C47.6054 64.3391 48.3508 63.8057 49.063 63.2339L57.9536 64.9946V59.7681C57.9536 58.6636 58.8492 57.7682 59.9536 57.7681H70.144C71.2485 57.7682 72.144 58.6636 72.144 59.7681V65.0601L98.1304 61.3755L99.4233 61.0103L99.5776 60.9517C99.8733 60.812 100.082 60.5349 100.136 60.2124L100.15 60.0474V41.3345C100.15 39.6773 98.8061 38.3341 97.1489 38.3345L81.8403 38.3384L57.1831 38.3433C56.9944 37.6642 56.7774 36.9969 56.5308 36.3433L80.8403 36.3384V30.1831C80.8403 28.5263 79.4971 27.1832 77.8403 27.1831H52.0229C51.5368 27.1832 51.0785 27.3001 50.6724 27.5054C50.1698 27.0239 49.6472 26.5625 49.104 26.1245C49.9255 25.5326 50.9331 25.1832 52.0229 25.1831H77.8403ZM59.9536 72.6577H70.144V59.7681H59.9536V72.6577Z" fill="black"/>
</mask>
<g mask="url(#mask0_385_9954)">
<path d="M103 99L8.99999 99L9 11L103 11L103 99Z" fill="url(#paint0_linear_385_9954)"/>
</g>
<defs>
<linearGradient id="paint0_linear_385_9954" x1="56" y1="99" x2="56" y2="8.46154" gradientUnits="userSpaceOnUse">
<stop stop-color="#A34DEE"/>
<stop offset="1" stop-color="#6943F5"/>
</linearGradient>
</defs>
</svg>
