<svg xmlns="http://www.w3.org/2000/svg" width="112" height="112" fill="none"><path fill="url(#a)" d="m21.093 87.957 6.679-6.679 1.414 1.414-9.093 9.093L11 82.692l1.414-1.414 6.679 6.679V58.354h2zm37.022-52.464c14.006.355 25.25 11.82 25.25 25.91l-.008.67c-.355 14.005-11.82 25.25-25.91 25.25l-.67-.008c-13.783-.35-24.892-11.46-25.24-25.243l-.01-.669c0-14.314 11.605-25.918 25.92-25.919zm-.669 1.991c-13.21 0-23.919 10.71-23.919 23.92s10.71 23.918 23.92 23.918 23.918-10.709 23.918-23.919-10.709-23.919-23.919-23.919m1 11.068h.04a7.584 7.584 0 0 1 7.583 7.584h-2c0-3.084-2.5-5.584-5.583-5.584h-2.945a4.718 4.718 0 0 0 0 9.435h3.984a6.544 6.544 0 0 1 0 13.088h-1.079v4.336h-2v-4.336h-.732a6.89 6.89 0 0 1-6.89-6.89h2a4.89 4.89 0 0 0 4.89 4.89h3.811a4.544 4.544 0 1 0 0-9.088h-3.984a6.718 6.718 0 0 1 0-13.435h.905v-4.683h2zm34.305-3.284 6.679-6.68 1.414 1.415-9.093 9.093-9.093-9.093 1.414-1.414 6.679 6.679V21h2z"/><defs><linearGradient id="a" x1="18.118" x2="88.024" y1="118.069" y2="118.069" gradientUnits="userSpaceOnUse"><stop stop-color="#A34DEE"/><stop offset="1" stop-color="#6943F5"/></linearGradient></defs></svg>