<svg xmlns="http://www.w3.org/2000/svg" width="112" height="112" fill="none"><mask id="a" width="67" height="70" x="23" y="21" maskUnits="userSpaceOnUse" style="mask-type:alpha"><path stroke="#000" stroke-width="2" d="M25 72.114h5.33c.295 0 .533.24.533.534v15.557a1 1 0 0 1-1 1H25a1 1 0 0 1-1-1v-15.09a1 1 0 0 1 1-1ZM31.522 72.86s6.426-5.308 11.42-6.136c6.085-1.01 9.192 3.283 15.342 3.75 2.554.194 6.408.04 7.188.006q.142-.008.282.013c.664.101 3.439.689 3.439 3.39m-19.603 3.41 15.85.505c.115.004.23-.002.343-.026.71-.153 3.41-.929 3.41-3.889m0 0s4.32-1.627 6.989-2.897c3.444-1.64 8.522-4.773 8.522-4.773s1.705-.851 3.41.852c1.036 1.035.793 2.463.617 3.091-.06.214-.175.395-.325.56-1.949 2.123-16.528 17.597-29.27 19.19-4.091.511-20.2-5.283-22.33-4.773s-5.284 1.875-5.284 1.875"/><path stroke="#000" stroke-linejoin="round" stroke-width="2" d="M35 33.258 43.661 22M35 33.258 60.59 61M35 33.258h12.5M43.661 22h16.142m-16.142 0L47.5 33.258M75.945 22 85 33.258M75.945 22H59.803m16.142 0L72.5 33.258m12.5 0L60.59 61M85 33.258H72.5M60.59 61 72.5 33.258M60.59 61 47.5 33.258M59.803 22 47.5 33.258M59.803 22 72.5 33.258m0 0h-25"/></mask><g mask="url(#a)"><path fill="url(#b)" d="M103 99H9V11h94z"/></g><defs><linearGradient id="b" x1="56" x2="56" y1="99" y2="8.462" gradientUnits="userSpaceOnUse"><stop stop-color="#A34DEE"/><stop offset="1" stop-color="#6943F5"/></linearGradient></defs></svg>