<svg width="20" height="21" viewBox="0 0 20 21" fill="none" xmlns="http://www.w3.org/2000/svg">
<path fill-rule="evenodd" clip-rule="evenodd" d="M3.5755 11.0594L9.98856 17.3023L16.4033 11.0578C18.0487 9.3435 17.6919 6.87165 16.3294 5.49345C15.659 4.81533 14.7658 4.4278 13.7721 4.52583C12.775 4.62419 11.5949 5.22021 10.3831 6.67399L9.99851 7.13544L9.61454 6.67343C8.40225 5.21477 7.22368 4.61592 6.2289 4.51571C5.23788 4.41589 4.34725 4.80191 3.6774 5.47996C2.31568 6.85838 1.95335 9.33638 3.5755 11.0594ZM9.99968 5.59691C8.78929 4.29395 7.53041 3.64176 6.32912 3.52075C4.99646 3.38651 3.81768 3.91506 2.966 4.77718C1.28662 6.47715 0.796605 9.57676 2.85589 11.7539L2.86298 11.7614L2.87037 11.7686L9.63979 18.3583L9.98856 18.6978L10.3373 18.3583L17.1067 11.7686L17.1125 11.763L17.1181 11.7572C19.2066 9.58903 18.7218 6.49103 17.0405 4.79041C16.1883 3.92836 15.0078 3.39907 13.6739 3.53066C12.4713 3.6493 11.2107 4.29793 9.99968 5.59691Z" fill="#1A1A1A"/>
</svg>
