<svg xmlns="http://www.w3.org/2000/svg" width="112" height="113" fill="none"><path fill="#121212" fill-rule="evenodd" d="M55.884 27.373a7.164 7.164 0 0 1 .9 14.27v10.532c5.093.442 9.09 4.714 9.09 9.92a9.9 9.9 0 0 1-1.066 4.481l10.323 5.96A7.165 7.165 0 1 1 74.073 74l-10.215-5.9a9.94 9.94 0 0 1-7.944 3.956 9.94 9.94 0 0 1-7.901-3.898l-9.978 6.098a7.164 7.164 0 1 1-.947-1.526l9.963-6.09a9.9 9.9 0 0 1-1.098-4.544c0-5.19 3.968-9.45 9.036-9.917V41.645a7.164 7.164 0 0 1 .895-14.272m24.485 44.681a5.37 5.37 0 1 0 0 10.74 5.37 5.37 0 0 0 0-10.74m-48.846-.183a5.37 5.37 0 1 0 0 10.737 5.37 5.37 0 0 0 0-10.737m24.39-17.94a8.165 8.165 0 1 0 .002 16.33 8.165 8.165 0 0 0-.001-16.33m-.03-24.762a5.37 5.37 0 1 0 .002 10.74 5.37 5.37 0 0 0-.001-10.74" clip-rule="evenodd"/></svg>