<svg width="113" height="112" viewBox="0 0 113 112" fill="none" xmlns="http://www.w3.org/2000/svg">
<path d="M56.6527 17.999C60.0839 17.9992 62.8663 20.7807 62.8665 24.2119C62.8665 25.0652 62.6934 25.878 62.3822 26.6182L79.1888 36.3223C79.608 35.8637 80.1036 35.461 80.6702 35.1338C83.6418 33.4184 87.4417 34.4359 89.1575 37.4072C90.8732 40.3788 89.8554 44.1795 86.8841 45.8955C86.3527 46.2023 85.7937 46.4192 85.2259 46.5557V66.4609C86.825 66.8449 88.2702 67.8579 89.1575 69.3945C90.8729 72.366 89.8551 76.1659 86.8841 77.8818C84.2072 79.4274 80.8575 78.7544 78.9652 76.4336L62.4554 85.9658C62.7194 86.6553 62.8665 87.4032 62.8665 88.1855C62.8665 91.617 60.084 94.3992 56.6527 94.3994C53.2214 94.3992 50.4398 91.6169 50.4398 88.1855C50.4398 87.43 50.5746 86.7059 50.8216 86.0361L34.1898 76.4336C32.2974 78.7539 28.9495 79.4271 26.2728 77.8818C23.3014 76.166 22.2829 72.3662 23.9984 69.3945C24.9077 67.8197 26.4026 66.793 28.0491 66.4316V46.584C27.4404 46.4505 26.8413 46.2237 26.2728 45.8955C23.3013 44.1796 22.2827 40.3789 23.9984 37.4072C25.7142 34.4359 29.5141 33.4184 32.4857 35.1338C33.0521 35.4608 33.547 35.8639 33.9661 36.3223L50.8958 26.5479C50.6028 25.8265 50.4398 25.0384 50.4398 24.2119C50.44 20.7807 53.2215 17.9993 56.6527 17.999ZM56.6527 83.9727C54.3261 83.9729 52.44 85.8589 52.4398 88.1855C52.4398 90.5123 54.3259 92.3992 56.6527 92.3994C58.9795 92.3992 60.8665 90.5124 60.8665 88.1855C60.8663 85.8589 58.9793 83.9728 56.6527 83.9727ZM35.0599 69.9863C35.706 71.4489 35.782 73.1424 35.1898 74.7012L51.8089 84.2959C52.7496 83.1261 54.1045 82.3044 55.6517 82.0537V62.3311C54.1732 62.0915 52.8705 61.3303 51.9368 60.2422L35.0599 69.9863ZM61.3177 60.2998C60.3873 61.3573 59.1045 62.0961 57.6517 62.3311V82.0527C59.1734 82.2988 60.5096 83.0976 61.4486 84.2363L77.9652 74.7012C77.3731 73.1426 77.4491 71.4487 78.095 69.9863L61.3177 60.2998ZM31.4857 68.8525C29.4706 67.6895 26.8943 68.3798 25.7308 70.3945C24.5675 72.4096 25.2579 74.9868 27.2728 76.1504C29.2879 77.3135 31.8652 76.6225 33.0286 74.6074C34.1916 72.5923 33.5006 70.0159 31.4857 68.8525ZM87.4251 70.3945C86.2616 68.3798 83.6853 67.6895 81.6702 68.8525C79.6553 70.0159 78.9643 72.5923 80.1273 74.6074C81.2908 76.6226 83.8689 77.3139 85.8841 76.1504C87.8988 74.9868 88.5884 72.4095 87.4251 70.3945ZM34.1888 44.4463C33.1367 45.7362 31.6358 46.516 30.0491 46.6895V66.3242C30.8831 66.4142 31.7125 66.6738 32.4857 67.1201C33.0518 67.447 33.5462 67.8505 33.9652 68.3086L50.8948 58.5342C50.602 57.813 50.4398 57.0245 50.4398 56.1982C50.4399 55.4427 50.5745 54.7186 50.8216 54.0488L34.1888 44.4463ZM62.4554 53.9795C62.7193 54.6688 62.8664 55.4162 62.8665 56.1982C62.8665 57.0514 62.6933 57.8644 62.3822 58.6045L79.1898 68.3086C79.6089 67.8503 80.1039 67.4471 80.6702 67.1201C81.4802 66.6526 82.3519 66.3897 83.2259 66.3125V46.7012C81.5952 46.5545 80.0446 45.7688 78.9661 44.4463L62.4554 53.9795ZM56.6527 51.9854C54.3262 51.9856 52.4402 53.8718 52.4398 56.1982C52.4398 58.5251 54.3259 60.4118 56.6527 60.4121C58.0844 60.412 59.3482 59.6972 60.1097 58.6055C60.1267 58.5638 60.1461 58.5225 60.1693 58.4824C60.2068 58.4174 60.2513 58.3588 60.3001 58.3057C60.6591 57.6856 60.8665 56.9662 60.8665 56.1982C60.8661 53.8718 58.9792 51.9855 56.6527 51.9854ZM35.0599 38C35.7059 39.4624 35.781 41.1552 35.1888 42.7139L51.8089 52.3096C52.7496 51.1396 54.1044 50.3181 55.6517 50.0674V30.3438C54.1734 30.1042 52.8705 29.3438 51.9368 28.2559L35.0599 38ZM61.3177 28.3135C60.3873 29.3709 59.1044 30.1098 57.6517 30.3447V50.0664C59.1735 50.3125 60.5096 51.1111 61.4486 52.25L77.9661 42.7139C77.3741 41.1555 77.4493 39.4623 78.095 38L61.3177 28.3135ZM31.4857 36.8652C29.4707 35.7023 26.8943 36.3926 25.7308 38.4072C24.5674 40.4223 25.2579 42.9995 27.2728 44.1631C29.2879 45.3263 31.8652 44.6361 33.0286 42.6211C34.1918 40.6059 33.5008 38.0286 31.4857 36.8652ZM87.4251 38.4072C86.2616 36.3926 83.6852 35.7023 81.6702 36.8652C79.6552 38.0286 78.9641 40.6059 80.1273 42.6211C81.2908 44.6362 83.8689 45.3265 85.8841 44.1631C87.8987 42.9994 88.5885 40.4222 87.4251 38.4072ZM56.6527 19.999C54.3261 19.9993 52.44 21.8853 52.4398 24.2119C52.4398 26.5387 54.3259 28.4255 56.6527 28.4258C58.0848 28.4257 59.3483 27.7094 60.1097 26.6172C60.1266 26.5761 60.1465 26.5356 60.1693 26.4961C60.2071 26.4305 60.2518 26.3708 60.3011 26.3174C60.6595 25.6977 60.8665 24.9792 60.8665 24.2119C60.8663 21.8853 58.9793 19.9992 56.6527 19.999Z" fill="#1A1A1A"/>
<path d="M56.6527 17.999C60.0839 17.9992 62.8663 20.7807 62.8665 24.2119C62.8665 25.0652 62.6934 25.878 62.3822 26.6182L79.1888 36.3223C79.608 35.8637 80.1036 35.461 80.6702 35.1338C83.6418 33.4184 87.4417 34.4359 89.1575 37.4072C90.8732 40.3788 89.8554 44.1795 86.8841 45.8955C86.3527 46.2023 85.7937 46.4192 85.2259 46.5557V66.4609C86.825 66.8449 88.2702 67.8579 89.1575 69.3945C90.8729 72.366 89.8551 76.1659 86.8841 77.8818C84.2072 79.4274 80.8575 78.7544 78.9652 76.4336L62.4554 85.9658C62.7194 86.6553 62.8665 87.4032 62.8665 88.1855C62.8665 91.617 60.084 94.3992 56.6527 94.3994C53.2214 94.3992 50.4398 91.6169 50.4398 88.1855C50.4398 87.43 50.5746 86.7059 50.8216 86.0361L34.1898 76.4336C32.2974 78.7539 28.9495 79.4271 26.2728 77.8818C23.3014 76.166 22.2829 72.3662 23.9984 69.3945C24.9077 67.8197 26.4026 66.793 28.0491 66.4316V46.584C27.4404 46.4505 26.8413 46.2237 26.2728 45.8955C23.3013 44.1796 22.2827 40.3789 23.9984 37.4072C25.7142 34.4359 29.5141 33.4184 32.4857 35.1338C33.0521 35.4608 33.547 35.8639 33.9661 36.3223L50.8958 26.5479C50.6028 25.8265 50.4398 25.0384 50.4398 24.2119C50.44 20.7807 53.2215 17.9993 56.6527 17.999ZM56.6527 83.9727C54.3261 83.9729 52.44 85.8589 52.4398 88.1855C52.4398 90.5123 54.3259 92.3992 56.6527 92.3994C58.9795 92.3992 60.8665 90.5124 60.8665 88.1855C60.8663 85.8589 58.9793 83.9728 56.6527 83.9727ZM35.0599 69.9863C35.706 71.4489 35.782 73.1424 35.1898 74.7012L51.8089 84.2959C52.7496 83.1261 54.1045 82.3044 55.6517 82.0537V62.3311C54.1732 62.0915 52.8705 61.3303 51.9368 60.2422L35.0599 69.9863ZM61.3177 60.2998C60.3873 61.3573 59.1045 62.0961 57.6517 62.3311V82.0527C59.1734 82.2988 60.5096 83.0976 61.4486 84.2363L77.9652 74.7012C77.3731 73.1426 77.4491 71.4487 78.095 69.9863L61.3177 60.2998ZM31.4857 68.8525C29.4706 67.6895 26.8943 68.3798 25.7308 70.3945C24.5675 72.4096 25.2579 74.9868 27.2728 76.1504C29.2879 77.3135 31.8652 76.6225 33.0286 74.6074C34.1916 72.5923 33.5006 70.0159 31.4857 68.8525ZM87.4251 70.3945C86.2616 68.3798 83.6853 67.6895 81.6702 68.8525C79.6553 70.0159 78.9643 72.5923 80.1273 74.6074C81.2908 76.6226 83.8689 77.3139 85.8841 76.1504C87.8988 74.9868 88.5884 72.4095 87.4251 70.3945ZM34.1888 44.4463C33.1367 45.7362 31.6358 46.516 30.0491 46.6895V66.3242C30.8831 66.4142 31.7125 66.6738 32.4857 67.1201C33.0518 67.447 33.5462 67.8505 33.9652 68.3086L50.8948 58.5342C50.602 57.813 50.4398 57.0245 50.4398 56.1982C50.4399 55.4427 50.5745 54.7186 50.8216 54.0488L34.1888 44.4463ZM62.4554 53.9795C62.7193 54.6688 62.8664 55.4162 62.8665 56.1982C62.8665 57.0514 62.6933 57.8644 62.3822 58.6045L79.1898 68.3086C79.6089 67.8503 80.1039 67.4471 80.6702 67.1201C81.4802 66.6526 82.3519 66.3897 83.2259 66.3125V46.7012C81.5952 46.5545 80.0446 45.7688 78.9661 44.4463L62.4554 53.9795ZM56.6527 51.9854C54.3262 51.9856 52.4402 53.8718 52.4398 56.1982C52.4398 58.5251 54.3259 60.4118 56.6527 60.4121C58.0844 60.412 59.3482 59.6972 60.1097 58.6055C60.1267 58.5638 60.1461 58.5225 60.1693 58.4824C60.2068 58.4174 60.2513 58.3588 60.3001 58.3057C60.6591 57.6856 60.8665 56.9662 60.8665 56.1982C60.8661 53.8718 58.9792 51.9855 56.6527 51.9854ZM35.0599 38C35.7059 39.4624 35.781 41.1552 35.1888 42.7139L51.8089 52.3096C52.7496 51.1396 54.1044 50.3181 55.6517 50.0674V30.3438C54.1734 30.1042 52.8705 29.3438 51.9368 28.2559L35.0599 38ZM61.3177 28.3135C60.3873 29.3709 59.1044 30.1098 57.6517 30.3447V50.0664C59.1735 50.3125 60.5096 51.1111 61.4486 52.25L77.9661 42.7139C77.3741 41.1555 77.4493 39.4623 78.095 38L61.3177 28.3135ZM31.4857 36.8652C29.4707 35.7023 26.8943 36.3926 25.7308 38.4072C24.5674 40.4223 25.2579 42.9995 27.2728 44.1631C29.2879 45.3263 31.8652 44.6361 33.0286 42.6211C34.1918 40.6059 33.5008 38.0286 31.4857 36.8652ZM87.4251 38.4072C86.2616 36.3926 83.6852 35.7023 81.6702 36.8652C79.6552 38.0286 78.9641 40.6059 80.1273 42.6211C81.2908 44.6362 83.8689 45.3265 85.8841 44.1631C87.8987 42.9994 88.5885 40.4222 87.4251 38.4072ZM56.6527 19.999C54.3261 19.9993 52.44 21.8853 52.4398 24.2119C52.4398 26.5387 54.3259 28.4255 56.6527 28.4258C58.0848 28.4257 59.3483 27.7094 60.1097 26.6172C60.1266 26.5761 60.1465 26.5356 60.1693 26.4961C60.2071 26.4305 60.2518 26.3708 60.3011 26.3174C60.6595 25.6977 60.8665 24.9792 60.8665 24.2119C60.8663 21.8853 58.9793 19.9992 56.6527 19.999Z" fill="url(#paint0_linear_401_38991)"/>
<defs>
<linearGradient id="paint0_linear_401_38991" x1="56.8746" y1="18.2357" x2="56.8746" y2="51.6527" gradientUnits="userSpaceOnUse">
<stop stop-color="#A34DEE"/>
<stop offset="1" stop-color="#6943F5"/>
</linearGradient>
</defs>
</svg>
