<svg xmlns="http://www.w3.org/2000/svg" width="112" height="112" fill="none"><path fill="#000" d="M31.499 60.586c5.806 0 10.513 4.707 10.513 10.513h1.473c5.806.001 10.513 4.707 10.513 10.513s-4.707 10.512-10.513 10.513v.001h-23.97v-.001l-.002.001C13.707 92.126 9 87.418 9 81.612S13.707 71.1 19.513 71.1h1.472v-.001c0-5.806 4.708-10.513 10.514-10.513m49.822 7.253 4.103 4.136-.71.705-.71.704-2.393-2.411v20.406H56.765v-2H79.61V70.973l-2.392 2.41-.71-.703-.71-.705 4.102-4.136.71-.716zM31.5 62.586a8.513 8.513 0 0 0-8.514 8.513v2h-3.472a8.513 8.513 0 0 0-8.502 8.075l-.011.438c0 4.551 3.57 8.268 8.063 8.502l2.452-1.225v1.237h19.97v-.001h2a8.514 8.514 0 0 0 .438-17.015l-.438-.01h-3.473v-2.001L40 70.66a8.515 8.515 0 0 0-8.063-8.063zm72.281-12.774H87.333v-2h14.447V25H57.522v22.812h22.824v2h-4.007v9.67h6.726V48.39h2v11.09h12.037v2H61.987v-2H74.34v-9.67H55.522V23h48.258zM52.398 33.733H29.55V52.14l2.392-2.412.71.705.71.705-4.102 4.135-.71.716-.71-.716-4.103-4.135.71-.705.71-.705 2.393 2.412V31.733h24.847z"/><path fill="url(#a)" d="M31.499 60.586c5.806 0 10.513 4.707 10.513 10.513h1.473c5.806.001 10.513 4.707 10.513 10.513s-4.707 10.512-10.513 10.513v.001h-23.97v-.001l-.002.001C13.707 92.126 9 87.418 9 81.612S13.707 71.1 19.513 71.1h1.472v-.001c0-5.806 4.708-10.513 10.514-10.513m49.822 7.253 4.103 4.136-.71.705-.71.704-2.393-2.411v20.406H56.765v-2H79.61V70.973l-2.392 2.41-.71-.703-.71-.705 4.102-4.136.71-.716zM31.5 62.586a8.513 8.513 0 0 0-8.514 8.513v2h-3.472a8.513 8.513 0 0 0-8.502 8.075l-.011.438c0 4.551 3.57 8.268 8.063 8.502l2.452-1.225v1.237h19.97v-.001h2a8.514 8.514 0 0 0 .438-17.015l-.438-.01h-3.473v-2.001L40 70.66a8.515 8.515 0 0 0-8.063-8.063zm72.281-12.774H87.333v-2h14.447V25H57.522v22.812h22.824v2h-4.007v9.67h6.726V48.39h2v11.09h12.037v2H61.987v-2H74.34v-9.67H55.522V23h48.258zM52.398 33.733H29.55V52.14l2.392-2.412.71.705.71.705-4.102 4.135-.71.716-.71-.716-4.103-4.135.71-.705.71-.705 2.393 2.412V31.733h24.847z"/><defs><linearGradient id="a" x1="56.39" x2="56.39" y1="23" y2="94.12" gradientUnits="userSpaceOnUse"><stop stop-color="#A34DEE"/><stop offset="1" stop-color="#6943F5"/></linearGradient></defs></svg>