<svg xmlns="http://www.w3.org/2000/svg" width="113" height="113" fill="none"><path fill="#fff" d="M56.706 25.192c13.935 0 25.437 10.414 27.15 23.885l.004.043c4.869 1.134 8.542 5.38 8.802 10.53l.015.587v2.535l-.016.586c-.284 5.58-4.575 10.097-10.05 10.742a8.627 8.627 0 0 1-8.62 8.264h-6.83a4.3 4.3 0 0 1-1.571 2.565c-1.015.801-2.352 1.17-3.735 1.17h-4.13c-1.382 0-2.718-.37-3.733-1.17-1.04-.823-1.67-2.048-1.67-3.565 0-1.513.626-2.754 1.658-3.595 1.011-.825 2.351-1.222 3.748-1.222h4.125c1.397 0 2.737.397 3.748 1.222a4.43 4.43 0 0 1 1.56 2.595h6.83a6.63 6.63 0 0 0 6.62-6.264 2.73 2.73 0 0 1-2.084-2.654v-19.89a2.736 2.736 0 0 1 2.736-2.736q.272.001.54.014C80.002 36.59 69.452 27.192 56.707 27.192c-12.744 0-23.293 9.399-25.096 21.642q.268-.013.538-.014a2.736 2.736 0 0 1 2.736 2.736v19.89a2.736 2.736 0 0 1-2.736 2.736c-6.302 0-11.41-5.109-11.413-11.41v-2.535c-.002-5.41 3.763-9.94 8.816-11.117 1.693-13.491 13.205-23.927 27.155-23.928m1.021 53.355c-1.035 0-1.899.296-2.482.771-.562.459-.922 1.128-.923 2.046 0 .916.357 1.559.91 1.995.578.458 1.443.74 2.494.74h4.13c1.05 0 1.915-.282 2.494-.74.552-.436.909-1.079.909-1.995 0-.918-.36-1.587-.922-2.046-.584-.475-1.447-.771-2.484-.771zM32.149 50.82a9.414 9.414 0 0 0-9.414 9.416l.001 2.535a9.413 9.413 0 0 0 9.413 9.41c.406 0 .736-.329.736-.735v-19.89a.736.736 0 0 0-.736-.736m49.115 0a.736.736 0 0 0-.736.736v19.89c0 .406.33.736.736.736a9.415 9.415 0 0 0 9.401-8.927l.013-.485v-2.534a9.415 9.415 0 0 0-9.414-9.416"/></svg>