<svg width="112" height="112" viewBox="0 0 112 112" fill="none" xmlns="http://www.w3.org/2000/svg">
<path fill-rule="evenodd" clip-rule="evenodd" d="M87.9253 24.0762C89.1435 25.2943 89.8277 26.9472 89.8277 28.6699C89.8276 30.2849 89.2259 31.8378 88.147 33.0293L87.9253 33.2627L57.5503 63.6367L45.3023 66.6982L48.3638 54.4512L78.7388 24.0762L78.9722 23.8545C80.1637 22.7756 81.7166 22.1739 83.3316 22.1738C85.0543 22.1738 86.7072 22.858 87.9253 24.0762ZM88.5923 33.4316C89.7706 32.1301 90.4272 30.4339 90.4273 28.6699C90.4273 26.788 89.6798 24.983 88.3492 23.6523C87.0185 22.3217 85.2134 21.5742 83.3316 21.5742C81.5676 21.5743 79.8713 22.2309 78.5699 23.4092L78.315 23.6523L47.8814 54.085C47.8622 54.1041 47.8458 54.126 47.8326 54.1494L47.8023 54.2246L44.5992 67.0391C44.5738 67.1412 44.6039 67.2488 44.6783 67.3232C44.7528 67.3978 44.8612 67.4279 44.9634 67.4023L57.7769 64.1992C57.8297 64.186 57.8781 64.1586 57.9165 64.1201L88.3492 33.6865L88.5923 33.4316ZM25.3691 35.0768V79.9254C25.3692 81.7041 26.0754 83.4099 27.333 84.6676C28.5908 85.9254 30.2974 86.6325 32.0762 86.6325H76.9248C78.7036 86.6324 80.4092 85.9254 81.667 84.6676C82.9248 83.4099 83.6318 81.7042 83.6318 79.9254V57.5006C83.6317 57.3352 83.4974 57.201 83.332 57.2008C83.1665 57.2008 83.0314 57.3351 83.0312 57.5006V79.9254C83.0312 81.5451 82.3884 83.0986 81.2432 84.2438C80.0979 85.3891 78.5444 86.0319 76.9248 86.0319H32.0762C30.4566 86.0319 28.9031 85.389 27.7578 84.2438C26.6126 83.0986 25.9688 81.5451 25.9688 79.9254V35.0768C25.9688 33.4571 26.6125 31.9037 27.7578 30.7585C28.9031 29.6132 30.4565 28.9694 32.0762 28.9694H54.5L54.5605 28.9635C54.6974 28.9356 54.8008 28.8146 54.8008 28.6696C54.8008 28.5245 54.6974 28.4035 54.5605 28.3756L54.5 28.3698H32.0762C30.2974 28.3698 28.5908 29.0758 27.333 30.3336C26.0752 31.5914 25.3691 33.298 25.3691 35.0768Z" fill="url(#paint0_linear_966_90340)"/>
<path fill-rule="evenodd" clip-rule="evenodd" d="M83.3318 20.7383C81.2278 20.7383 79.21 21.5741 77.7222 23.0618L47.2891 53.4949C47.1434 53.6407 47.0399 53.8234 46.9899 54.0234L43.7864 66.8373C43.6895 67.225 43.8031 67.635 44.0856 67.9175C44.3682 68.2001 44.7782 68.3137 45.1659 68.2167L57.9798 65.0133C58.1798 64.9633 58.3625 64.8598 58.5083 64.7141L88.9413 34.281C90.4291 32.7932 91.2649 30.7754 91.2649 28.6714C91.2649 26.5674 90.4291 24.5496 88.9413 23.0618C87.4536 21.5741 85.4358 20.7383 83.3318 20.7383ZM79.3309 24.6705C80.392 23.6094 81.8312 23.0133 83.3318 23.0133C84.8324 23.0133 86.2716 23.6094 87.3327 24.6705C88.3938 25.7316 88.9899 27.1708 88.9899 28.6714C88.9899 30.172 88.3938 31.6112 87.3327 32.6723L57.1224 62.8826L46.4533 65.5499L49.1206 54.8808L79.3309 24.6705Z" fill="url(#paint1_linear_966_90340)"/>
<path d="M32.0757 27.5338C30.0748 27.5338 28.1558 28.3287 26.741 29.7436C25.3261 31.1584 24.5312 33.0774 24.5312 35.0783V79.9271C24.5312 81.928 25.3261 83.847 26.741 85.2618C28.1558 86.6767 30.0748 87.4716 32.0757 87.4716H76.9245C78.9254 87.4716 80.8444 86.6767 82.2592 85.2618C83.6741 83.847 84.469 81.928 84.469 79.9271V57.5027C84.469 56.8745 83.9597 56.3652 83.3315 56.3652C82.7032 56.3652 82.194 56.8745 82.194 57.5027V79.9271C82.194 81.3246 81.6388 82.665 80.6506 83.6532C79.6624 84.6414 78.322 85.1966 76.9245 85.1966H32.0757C30.6782 85.1966 29.3379 84.6414 28.3496 83.6532C27.3614 82.665 26.8062 81.3246 26.8062 79.9271V35.0783C26.8062 33.6808 27.3614 32.3405 28.3496 31.3522C29.3379 30.364 30.6782 29.8088 32.0757 29.8088H54.5001C55.1283 29.8088 55.6376 29.2996 55.6376 28.6713C55.6376 28.0431 55.1283 27.5338 54.5001 27.5338H32.0757Z" fill="url(#paint2_linear_966_90340)"/>
<defs>
<linearGradient id="paint0_linear_966_90340" x1="57.8982" y1="21.5742" x2="57.8982" y2="86.6325" gradientUnits="userSpaceOnUse">
<stop stop-color="#505BFD"/>
<stop offset="1" stop-color="#B542FD"/>
</linearGradient>
<linearGradient id="paint1_linear_966_90340" x1="57.8981" y1="20.7383" x2="57.8981" y2="87.4716" gradientUnits="userSpaceOnUse">
<stop stop-color="#505BFD"/>
<stop offset="1" stop-color="#B542FD"/>
</linearGradient>
<linearGradient id="paint2_linear_966_90340" x1="57.8981" y1="20.7383" x2="57.8981" y2="87.4716" gradientUnits="userSpaceOnUse">
<stop stop-color="#505BFD"/>
<stop offset="1" stop-color="#B542FD"/>
</linearGradient>
</defs>
</svg>
