<svg xmlns="http://www.w3.org/2000/svg" width="112" height="112" fill="none"><path fill="url(#a)" d="M58.54 16.367A9.88 9.88 0 0 1 69.305 19.8l1.868 2.44a14.18 14.18 0 0 0 6.789 4.835 14.17 14.17 0 0 1 9.704 13.094c.072 2.84.995 5.593 2.65 7.901a14.175 14.175 0 0 1 .156 16.298l-.295.444a14.2 14.2 0 0 0-2.206 7.507 14.175 14.175 0 0 1-9.455 13.277l-.498.186a14.17 14.17 0 0 0-6.198 4.776l-1.767 2.4-.239.31a9.93 9.93 0 0 1-10.59 3.322l-.388-.124a9.93 9.93 0 0 1-6.701-8.9l-.012-.408-.057-6.35h-3.696l-.278-.232-4.974-4.146-4.665 3.332q.073.478.073.975l-.008.335a6.497 6.497 0 0 1-6.488 6.161l-.334-.008a6.496 6.496 0 0 1-6.152-6.153l-.009-.335a6.496 6.496 0 0 1 6.495-6.495l.335.009a6.5 6.5 0 0 1 5.442 3.515l4.777-3.412.628-.449.593.494 5.29 4.409h2.954l-.114-12.846h-13.41l-.007.262a6.497 6.497 0 0 1-6.488 6.16l-.334-.008a6.496 6.496 0 0 1-6.152-6.152l-.009-.335a6.495 6.495 0 0 1 6.495-6.496l.335.01a6.5 6.5 0 0 1 5.87 4.559h13.681l-.114-12.848h-4.131l-7.259 5.371-.505.374-.556-.293-7.407-3.901a6.49 6.49 0 0 1-5.485 3.018l-.334-.01a6.496 6.496 0 0 1-6.152-6.152l-.01-.335a6.496 6.496 0 0 1 6.496-6.495l.335.01a6.496 6.496 0 0 1 6.161 6.485l-.009.335a6.5 6.5 0 0 1-.2 1.305l6.983 3.678 7.017-5.193.265-.197h4.773l-.114-12.846H40.086a6.5 6.5 0 0 1-6.203 4.568l-.334-.009a6.496 6.496 0 0 1-6.152-6.152l-.01-.335a6.495 6.495 0 0 1 6.496-6.495l.335.008a6.495 6.495 0 0 1 6.159 6.415h11.275l-.074-8.373a9.88 9.88 0 0 1 6.574-9.399zm9.178 4.647a7.88 7.88 0 0 0-8.291-2.823l-.297.085a7.88 7.88 0 0 0-5.552 7.6l.546 61.263.009.325a7.933 7.933 0 0 0 14.31 4.307l1.767-2.401.37-.481a16.2 16.2 0 0 1 2.628-2.618 9.7 9.7 0 0 1-1.825-1.66l-.298-.37a9.7 9.7 0 0 1-1.532-2.924l-.134-.456a9.7 9.7 0 0 1-.297-3.287l.05-.471q.106-.793.339-1.554a9.7 9.7 0 0 1-1.884.033l-.472-.05a9.7 9.7 0 0 1-3.567-1.21l1-1.733c.87.502 1.832.829 2.828.96l.374.04a7.7 7.7 0 0 0 2.606-.235l.362-.106a7.7 7.7 0 0 0 2.318-1.215l.292-.237a7.7 7.7 0 0 0 1.677-2.009l1.732 1a9.7 9.7 0 0 1-2.114 2.535l-.37.297a9.7 9.7 0 0 1-2.408 1.349 7.7 7.7 0 0 0-.73 2.395l-.04.374a7.7 7.7 0 0 0 .236 2.607l.105.361a7.7 7.7 0 0 0 1.215 2.318l.237.292a7.7 7.7 0 0 0 2.009 1.677l-.088.15c.95-.578 1.963-1.059 3.023-1.433l.448-.17a12.17 12.17 0 0 0 7.659-10.754l.013-.48a16.18 16.18 0 0 1 2.852-9.072l.265-.4a12.15 12.15 0 0 0 1.722-4.53H66.086a9.7 9.7 0 0 1-.53 2.46l-.17.442a9.7 9.7 0 0 1-1.766 2.79l-.328.343a9.7 9.7 0 0 1-2.698 1.9l-.434.193a9.7 9.7 0 0 1-3.695.735v-2a7.7 7.7 0 0 0 2.93-.583l.343-.152a7.7 7.7 0 0 0 2.14-1.507l.26-.273a7.7 7.7 0 0 0 1.4-2.21l.135-.352a7.7 7.7 0 0 0 .404-1.785h-5.755v-2h32.649a12.16 12.16 0 0 0-2.007-6.674l-.272-.395a16.2 16.2 0 0 1-2.997-8.41l-.027-.607a12.17 12.17 0 0 0-7.883-11.086l-.453-.16a16.2 16.2 0 0 1-3.726-1.796 9.6 9.6 0 0 1-.426 1.641l-.171.443a9.7 9.7 0 0 1-1.766 2.789l-.328.343a9.7 9.7 0 0 1-2.698 1.9l-.434.193a10 10 0 0 1-.984.344 9.7 9.7 0 0 1 1.687 2.477l.193.433a9.7 9.7 0 0 1 .735 3.696h-2a7.7 7.7 0 0 0-.583-2.93l-.152-.344a7.7 7.7 0 0 0-1.507-2.14l-.273-.26a8 8 0 0 0-.676-.544c-.045 0-.09.004-.135.004v-.1a7.7 7.7 0 0 0-1.4-.76l-.351-.134a7.7 7.7 0 0 0-2.578-.448v-2c1.109 0 2.21.19 3.252.564l.442.17q.69.287 1.325.674a7.7 7.7 0 0 0 2.24-.55l.343-.152a7.7 7.7 0 0 0 2.14-1.507l.26-.272a7.7 7.7 0 0 0 1.4-2.211l.135-.352a7.7 7.7 0 0 0 .442-2.387 16 16 0 0 1-1.773-1.826l-.38-.476zM32.03 76.24a4.496 4.496 0 1 0 4.244 3.014l-.186-.262.066-.048a4.5 4.5 0 0 0-4.124-2.704m0-14.849a4.496 4.496 0 1 0 .001 8.992 4.496 4.496 0 0 0 0-8.992m39.272-15.186c1.11 0 2.21.19 3.252.563l.442.171a9.7 9.7 0 0 1 2.79 1.766l.343.328a9.7 9.7 0 0 1 1.9 2.698l.193.434a9.7 9.7 0 0 1 .735 3.695h-2a7.7 7.7 0 0 0-.583-2.93l-.152-.343a7.7 7.7 0 0 0-1.507-2.14l-.273-.26a7.7 7.7 0 0 0-2.21-1.4l-.352-.135a7.7 7.7 0 0 0-2.578-.447zM26.46 44.69a4.496 4.496 0 1 0 3.707 7.038l-1.386-.73.932-1.77 1.192.628a4.496 4.496 0 0 0-4.445-5.166m7.423-14.846a4.495 4.495 0 1 0 4.062 6.422H36.67v-2h1.707a4.495 4.495 0 0 0-4.494-4.422"/><defs><linearGradient id="a" x1="56.469" x2="56.469" y1="15.925" y2="99.34" gradientUnits="userSpaceOnUse"><stop stop-color="#A34DEE"/><stop offset="1" stop-color="#6943F5"/></linearGradient></defs></svg>