<svg xmlns="http://www.w3.org/2000/svg" width="85" height="85" fill="none"><path fill="#fff" fill-rule="evenodd" d="M57.45 17.673a.75.75 0 0 1 0 1.492l-.076.004H43.49v9.687l-.004.077a.75.75 0 0 1-.155.384h15.66c4.15 0 7.531 3.328 7.531 7.451v21.57c0 4.124-3.38 7.452-7.531 7.452h-32.97c-4.151 0-7.532-3.328-7.532-7.451v-21.57c0-4.124 3.38-7.451 7.532-7.452H42.15a.75.75 0 0 1-.156-.384l-.003-.077v-9.687H27.665a.75.75 0 1 1 0-1.5h29.709zM43.263 48.317c.14.136.229.327.229.538V64.29h15.5c3.34 0 6.032-2.673 6.032-5.951V48.317zm-17.24-17.5c-3.34 0-6.032 2.673-6.032 5.951v21.57c0 3.279 2.692 5.952 6.032 5.952H41.99V48.855c0-.21.087-.401.228-.538H20.988a.75.75 0 1 1 0-1.5h44.035V36.768c0-3.278-2.691-5.95-6.031-5.95z" clip-rule="evenodd"/></svg>