<svg xmlns="http://www.w3.org/2000/svg" width="112" height="112" fill="none"><path stroke="url(#a)" stroke-width="2" d="M34 15h44c10.493 0 19 8.507 19 19v44c0 10.493-8.507 19-19 19H34c-10.493 0-19-8.507-19-19V34c0-10.493 8.507-19 19-19Z"/><path fill="url(#b)" d="M56.999 26.625h-1c-.92 0-1.834.156-2.698.46l-.368.14a8 8 0 0 0-2.596 1.71 7.9 7.9 0 0 0-1.73 2.551 7.76 7.76 0 0 0-.142 5.652l.141.361c.401.953.989 1.82 1.73 2.552a8 8 0 0 0 2.236 1.551l.36.158a8.1 8.1 0 0 0 3.067.6h1V55h6.06c.096-.968.33-1.92.699-2.822l.196-.45a10 10 0 0 1 1.94-2.793l.35-.34a9.9 9.9 0 0 1 2.85-1.831l.454-.178a9.75 9.75 0 0 1 7.11.178l.443.199a9.9 9.9 0 0 1 2.757 1.972l.335.356c.759.85 1.368 1.827 1.801 2.887.369.902.603 1.854.7 2.822H98v2H80.743v-1a8.1 8.1 0 0 0-.6-3.066 8 8 0 0 0-1.442-2.311l-.267-.285a7.9 7.9 0 0 0-2.199-1.572l-.353-.159a7.76 7.76 0 0 0-5.651-.141l-.36.141a7.9 7.9 0 0 0-2.272 1.46l-.28.27a8 8 0 0 0-1.552 2.236l-.158.36a8.1 8.1 0 0 0-.6 3.067v1H57v9.676c.806.08 1.6.255 2.363.524l.46.174a10 10 0 0 1 3.242 2.136 9.9 9.9 0 0 1 2.171 3.202 9.76 9.76 0 0 1 .178 7.108l-.178.453a9.9 9.9 0 0 1-2.17 3.203c-.813.8-1.76 1.456-2.794 1.939l-.45.196c-.902.369-1.854.602-2.822.699v10.94h-2V84.36h1a8.1 8.1 0 0 0 3.066-.6l.36-.157a8 8 0 0 0 2.236-1.552 7.9 7.9 0 0 0 1.73-2.552l.142-.361a7.76 7.76 0 0 0-.141-5.652 7.9 7.9 0 0 0-1.73-2.551 8 8 0 0 0-2.597-1.71l-.368-.14a8.1 8.1 0 0 0-2.698-.46h-1V57h-6.059l-.043.362a10.021 10.021 0 0 1-2.457 5.347l-.335.356a9.9 9.9 0 0 1-2.757 1.972l-.444.2a9.76 9.76 0 0 1-7.11.177l-.452-.178a9.9 9.9 0 0 1-2.85-1.83l-.351-.34a10 10 0 0 1-1.94-2.794l-.196-.45a10.1 10.1 0 0 1-.7-2.822H14v-2h17.258v1a8.1 8.1 0 0 0 .6 3.066l.158.36c.386.83.912 1.587 1.551 2.236l.28.272a7.9 7.9 0 0 0 2.272 1.459l.36.141a7.75 7.75 0 0 0 5.652-.141l.353-.159a7.9 7.9 0 0 0 2.199-1.572l.267-.285a8 8 0 0 0 1.442-2.31 8.1 8.1 0 0 0 .6-3.067v-1H55V44.31c-.968-.096-1.92-.33-2.822-.699l-.45-.196a10 10 0 0 1-2.793-1.94 9.9 9.9 0 0 1-2.171-3.202l-.178-.453a9.75 9.75 0 0 1 .178-7.108 9.9 9.9 0 0 1 2.17-3.202 10 10 0 0 1 3.244-2.136l.459-.174c.764-.269 1.557-.444 2.363-.524V14h2z"/><defs><linearGradient id="a" x1="56" x2="56" y1="14" y2="100.423" gradientUnits="userSpaceOnUse"><stop stop-color="#A34DEE"/><stop offset="1" stop-color="#6943F5"/></linearGradient><linearGradient id="b" x1="56.001" x2="56.001" y1="14" y2="99.651" gradientUnits="userSpaceOnUse"><stop stop-color="#A34DEE"/><stop offset="1" stop-color="#6943F5"/></linearGradient></defs></svg>