<svg xmlns="http://www.w3.org/2000/svg" width="112" height="113" fill="none"><path fill="#121212" d="M68.544 65.596a1.717 1.717 0 1 0 0 3.434 1.717 1.717 0 0 0 0-3.434M43.469 65.596a1.717 1.717 0 1 0 0 3.434 1.717 1.717 0 0 0 0-3.434"/><path fill="#121212" fill-rule="evenodd" d="M46.588 24.572c-7.11 0-13.248 4.979-14.718 11.887l-.066.33-.002.006-1.551 8.525-.022.017.015.019-3.508 19.266-.076.436c-1.076 6.61 2.309 12.798 7.787 15.718l-7.157 7.06a.828.828 0 0 0 1.164 1.18l7.603-7.5a15 15 0 0 0 5.429 1.017h29.067c1.922 0 3.748-.355 5.421-1l7.584 7.483a.828.828 0 0 0 1.164-1.18l-7.135-7.038c5.622-2.975 9.054-9.387 7.75-16.176l-5.066-27.827-.001-.01-.069-.331a15.04 15.04 0 0 0-14.715-11.882zM31.63 46.994c6.006 6.636 14.867 10.834 24.755 10.834 9.997 0 18.229-3.952 24.17-10.226l3.154 17.325.001.008c1.591 8.287-4.74 15.942-13.157 15.942H41.521c-8.418 0-14.748-7.655-13.158-15.942l.002-.008zm33.856-20.765c6.429 0 11.93 4.54 13.157 10.872l1.539 8.449c-5.697 6.485-13.799 10.622-23.797 10.622-9.892 0-18.684-4.413-24.374-11.268l1.42-7.806.06-.294c1.306-6.142 6.767-10.575 13.097-10.575z" clip-rule="evenodd"/></svg>