<svg width="112" height="112" viewBox="0 0 112 112" fill="none" xmlns="http://www.w3.org/2000/svg">
<path d="M55.9987 40.6109C56.627 40.6109 57.1355 41.1194 57.1355 41.7476V52.2155H67.6033L67.8329 52.2377C68.3498 52.3448 68.7401 52.8035 68.7401 53.3522C68.7393 53.9004 68.3496 54.36 67.8329 54.4668L67.6033 54.489H57.1355V64.9531C57.1344 65.5804 56.6263 66.0898 55.9987 66.0898C55.3712 66.0898 54.8631 65.5804 54.862 64.9531V54.489H44.3979C43.7702 54.489 43.262 53.9797 43.2611 53.3522C43.2611 52.724 43.7696 52.2155 44.3979 52.2155H54.862V41.7476C54.862 41.1194 55.3705 40.6109 55.9987 40.6109Z" fill="url(#paint0_linear_577_15260)"/>
<path fill-rule="evenodd" clip-rule="evenodd" d="M56.3875 24.6L82.9292 34.2717L83.2365 34.4383C83.5095 34.6498 83.6769 34.9802 83.6772 35.3381V57.8993C83.6764 68.0884 76.7047 76.4366 70.0064 82.1304C66.6307 84.9996 63.2582 87.2521 60.7346 88.7843C59.4723 89.5506 58.4167 90.1412 57.6761 90.5394C57.3069 90.738 57.0142 90.8887 56.8134 90.9912C56.713 91.0424 56.6335 91.0831 56.5801 91.1097C56.5549 91.1222 56.5348 91.1324 56.5208 91.1393C56.5139 91.1426 56.5062 91.1448 56.5023 91.1467L56.4986 91.1504C56.264 91.2641 55.9963 91.2922 55.7469 91.2356L55.5026 91.1504L55.4952 91.1467C55.4913 91.1448 55.4836 91.1426 55.4766 91.1393C55.4627 91.1324 55.4425 91.1222 55.4174 91.1097C55.364 91.0831 55.2845 91.0424 55.1841 90.9912C54.9833 90.8887 54.6906 90.738 54.3214 90.5394C53.5808 90.1412 52.5251 89.5506 51.2629 88.7843C48.7393 87.2521 45.3667 84.9996 41.991 82.1304C35.2928 76.4366 28.3211 68.0884 28.3203 57.8993V35.3381L28.3722 34.9937C28.4771 34.6641 28.7314 34.3946 29.0683 34.2717L55.6099 24.6L55.8025 24.5481C55.9973 24.5141 56.1995 24.5317 56.3875 24.6ZM30.5938 36.1342V57.8993C30.5946 67.0454 36.8934 74.8117 43.4648 80.3975C46.7236 83.1674 49.9879 85.3513 52.4403 86.8403C53.6647 87.5837 54.6848 88.1542 55.3952 88.5362C55.6305 88.6628 55.8352 88.7661 55.9987 88.851C56.1623 88.7661 56.367 88.6628 56.6023 88.5362C57.3126 88.1542 58.3328 87.5837 59.5571 86.8403C62.0096 85.3513 65.2739 83.1674 68.5327 80.3975C75.104 74.8117 81.4029 67.0454 81.4036 57.8993V36.1342L55.9987 26.8809L30.5938 36.1342Z" fill="url(#paint1_linear_577_15260)"/>
<defs>
<linearGradient id="paint0_linear_577_15260" x1="55.9987" y1="24.5312" x2="55.9987" y2="91.2639" gradientUnits="userSpaceOnUse">
<stop stop-color="#505BFD"/>
<stop offset="1" stop-color="#B542FD"/>
</linearGradient>
<linearGradient id="paint1_linear_577_15260" x1="55.9987" y1="24.5312" x2="55.9987" y2="91.2639" gradientUnits="userSpaceOnUse">
<stop stop-color="#505BFD"/>
<stop offset="1" stop-color="#B542FD"/>
</linearGradient>
</defs>
</svg>
