<svg width="112" height="112" viewBox="0 0 112 112" fill="none" xmlns="http://www.w3.org/2000/svg">
<mask id="mask0_388_15945" style="mask-type:alpha" maskUnits="userSpaceOnUse" x="14" y="18" width="80" height="76">
<path d="M35.7105 45.5725C39.4004 39.6674 44.971 35.1765 51.5246 32.8235C58.0782 30.4706 65.2331 30.3925 71.8365 32.602C78.4398 34.8114 84.107 39.1797 87.9249 45.0029C91.7427 50.8261 93.4889 57.7651 92.882 64.7018C92.2752 71.6385 89.3506 78.1689 84.5795 83.2407C79.8084 88.3125 73.4688 91.6303 66.5821 92.6595C59.6954 93.6887 52.6627 92.3694 46.6173 88.9142C40.5719 85.4589 35.8658 80.069 33.2573 73.6128" stroke="black" stroke-width="2"/>
<path d="M62 27L62 32" stroke="black" stroke-width="2"/>
<path d="M76.25 46L61.9977 62.3383" stroke="black" stroke-width="2"/>
<path d="M38 59L14 59" stroke="black" stroke-width="2"/>
<path d="M42 70L20 70" stroke="black" stroke-width="2"/>
<path d="M42 49L22 49" stroke="black" stroke-width="2"/>
<rect x="51" y="19" width="22" height="7" rx="1" stroke="black" stroke-width="2"/>
</mask>
<g mask="url(#mask0_388_15945)">
<path d="M112 107L-7.62939e-06 107L1.46257e-06 3L112 3.00001L112 107Z" fill="url(#paint0_linear_388_15945)"/>
</g>
<defs>
<linearGradient id="paint0_linear_388_15945" x1="56" y1="107" x2="56" y2="2.82091e-06" gradientUnits="userSpaceOnUse">
<stop stop-color="#A34DEE"/>
<stop offset="1" stop-color="#6943F5"/>
</linearGradient>
</defs>
</svg>
