<svg xmlns="http://www.w3.org/2000/svg" width="112" height="112" fill="none"><mask id="a" width="94" height="76" x="9" y="18" maskUnits="userSpaceOnUse" style="mask-type:alpha"><path fill="#000" d="M19 47.145q.972.344 2 .554V77a2 2 0 0 0 2 2h55v2H23l-.206-.005a4 4 0 0 1-3.79-3.789L19 77zm72.206-16.14A4 4 0 0 1 95 35v15h-2V35a2 2 0 0 0-2-2H39q-.001-1.018-.133-2H91z"/><rect width="24" height="42" x="78" y="51" stroke="#000" stroke-width="2" rx="3"/><path stroke="#000" stroke-width="2" d="M12 85h90"/><circle cx="24" cy="33" r="14" stroke="#000" stroke-width="2"/><path stroke="#000" stroke-width="2" d="M17.824 33h12.353M24 26.824v12.353"/></mask><g mask="url(#a)"><path fill="url(#b)" d="M112 107H0V3h112z"/></g><defs><linearGradient id="b" x1="56" x2="56" y1="107" y2="0" gradientUnits="userSpaceOnUse"><stop stop-color="#A34DEE"/><stop offset="1" stop-color="#6943F5"/></linearGradient></defs></svg>