<svg width="112" height="112" viewBox="0 0 112 112" fill="none" xmlns="http://www.w3.org/2000/svg">
<path fill-rule="evenodd" clip-rule="evenodd" d="M24.3617 23.9394C24.2446 23.8223 24.0546 23.8223 23.9375 23.9394C23.8203 24.0566 23.8203 24.2465 23.9375 24.3637L43.1924 43.6186L29.4759 60.0784C29.4014 60.1678 29.3853 60.2923 29.4347 60.3977C29.4841 60.5031 29.59 60.5705 29.7064 60.5705H54.3719L51.6357 82.4603C51.6192 82.5924 51.6918 82.7196 51.8139 82.7727C51.9361 82.8257 52.0786 82.7918 52.1638 82.6895L65.8454 66.2716L85.0618 85.488C85.1789 85.6051 85.3689 85.6051 85.486 85.488C85.6032 85.3708 85.6032 85.1809 85.486 85.0637L66.0397 65.6174C66.0384 65.616 66.037 65.6146 66.0355 65.6132L43.8128 43.3905C43.8114 43.389 43.8099 43.3876 43.8085 43.3862L24.3617 23.9394ZM43.6184 44.0446L30.3469 59.9705H54.7118C54.7978 59.9705 54.8797 60.0074 54.9367 60.0719C54.9936 60.1364 55.0201 60.2223 55.0094 60.3077L52.358 81.5193L65.4194 65.8456L43.6184 44.0446ZM57.6103 26.6547C57.7325 26.7076 57.8051 26.8348 57.7887 26.9669L56.1495 40.1642C56.129 40.3286 55.9792 40.4454 55.8148 40.4249C55.6504 40.4045 55.5336 40.2547 55.554 40.0902L57.0672 27.9082L50.9701 35.2347C50.8642 35.3621 50.675 35.3794 50.5476 35.2734C50.4203 35.1674 50.403 34.9783 50.5089 34.8509L57.2604 26.738C57.3456 26.6357 57.4881 26.6017 57.6103 26.6547ZM64.881 48.857C64.7154 48.857 64.581 48.9913 64.581 49.157C64.581 49.3226 64.7154 49.457 64.881 49.457H79.0762L72.7358 57.0497C72.6297 57.1769 72.6467 57.3661 72.7738 57.4723C72.901 57.5785 73.0902 57.5615 73.1964 57.4343L79.9478 49.3492C80.0225 49.2598 80.0387 49.1353 79.9893 49.0298C79.94 48.9244 79.834 48.857 79.7176 48.857H64.881Z" fill="url(#paint0_linear_577_15128)"/>
<path fill-rule="evenodd" clip-rule="evenodd" d="M24.9536 23.341C24.5093 22.8968 23.7891 22.8968 23.3449 23.341C22.9007 23.7852 22.9007 24.5054 23.3449 24.9496L42.059 43.6638L28.8321 59.536C28.5496 59.8751 28.4887 60.347 28.6759 60.7467C28.8631 61.1464 29.2646 61.4017 29.706 61.4017H53.4228L50.8043 82.3501C50.7416 82.8512 51.0168 83.3336 51.48 83.5346C51.9432 83.7357 52.4836 83.6074 52.8068 83.2194L65.9013 67.5061L84.4692 86.0739C84.9134 86.5181 85.6336 86.5181 86.0778 86.0739C86.522 85.6297 86.522 84.9095 86.0778 84.4653L66.6392 65.0267C66.6332 65.0205 66.6272 65.0145 66.621 65.0085L44.4122 42.7997C44.4062 42.7935 44.4002 42.7875 44.394 42.7814L24.9536 23.341ZM43.6743 45.2791L32.1346 59.1267H54.7114C55.0376 59.1267 55.3482 59.2668 55.5641 59.5114C55.78 59.756 55.8805 60.0815 55.8401 60.4053L53.5429 78.7824L64.286 65.8908L43.6743 45.2791Z" fill="url(#paint1_linear_577_15128)"/>
<path d="M57.9428 25.8799C58.4061 26.0807 58.6817 26.5628 58.6194 27.0639L56.9802 40.2612C56.9028 40.8846 56.3346 41.3272 55.7112 41.2498C55.0877 41.1724 54.6451 40.6042 54.7225 39.9808L55.8836 30.633L51.6135 35.7642C51.2116 36.2471 50.4944 36.3127 50.0115 35.9109C49.5286 35.509 49.463 34.7918 49.8648 34.3089L56.6163 26.1961C56.9393 25.8079 57.4795 25.6792 57.9428 25.8799Z" fill="url(#paint2_linear_577_15128)"/>
<path d="M64.8806 48.0132C64.2524 48.0132 63.7431 48.5225 63.7431 49.1507C63.7431 49.7789 64.2524 50.2882 64.8806 50.2882H77.2854L72.0926 56.5067C71.6899 56.9889 71.7544 57.7062 72.2366 58.1089C72.7188 58.5116 73.4362 58.4471 73.8388 57.9649L80.5903 49.8798C80.8733 49.5409 80.9346 49.0687 80.7475 48.6687C80.5604 48.2688 80.1588 48.0132 79.7172 48.0132H64.8806Z" fill="url(#paint3_linear_577_15128)"/>
<defs>
<linearGradient id="paint0_linear_577_15128" x1="54.7118" y1="23.8516" x2="54.7118" y2="85.5758" gradientUnits="userSpaceOnUse">
<stop stop-color="#505BFD"/>
<stop offset="1" stop-color="#B542FD"/>
</linearGradient>
<linearGradient id="paint1_linear_577_15128" x1="54.7114" y1="23.0078" x2="54.7114" y2="86.4071" gradientUnits="userSpaceOnUse">
<stop stop-color="#505BFD"/>
<stop offset="1" stop-color="#B542FD"/>
</linearGradient>
<linearGradient id="paint2_linear_577_15128" x1="54.7114" y1="23.0078" x2="54.7114" y2="86.4071" gradientUnits="userSpaceOnUse">
<stop stop-color="#505BFD"/>
<stop offset="1" stop-color="#B542FD"/>
</linearGradient>
<linearGradient id="paint3_linear_577_15128" x1="54.7114" y1="23.0078" x2="54.7114" y2="86.4071" gradientUnits="userSpaceOnUse">
<stop stop-color="#505BFD"/>
<stop offset="1" stop-color="#B542FD"/>
</linearGradient>
</defs>
</svg>
