<svg xmlns="http://www.w3.org/2000/svg" width="85" height="85" fill="none"><path fill="#121212" fill-rule="evenodd" d="M42.15 16.828a2.25 2.25 0 0 1 1.253.05l22.426 7.502a2.25 2.25 0 0 1 1.536 2.133v5.903a2.25 2.25 0 0 1-2.25 2.25h-3.033v22.322a6.296 6.296 0 0 1 5.283 6.216v3.675a2.25 2.25 0 0 1-2.25 2.25h-45.04a2.25 2.25 0 0 1-2.25-2.25v-3.728c0-3.183 2.39-5.823 5.469-6.218V34.666h-3.005a2.25 2.25 0 0 1-2.25-2.25v-5.903a2.25 2.25 0 0 1 1.536-2.134l22.4-7.5zM23.928 58.383a4.783 4.783 0 0 0-4.604 4.768v3.728c0 .414.336.75.75.75h45.04a.75.75 0 0 0 .75-.75v-3.675a4.795 4.795 0 0 0-4.798-4.798H24.109a.8.8 0 0 1-.182-.023m.918-.74-.004-.076q-.002-.02-.006-.04.009.056.01.115M51.52 34.665v22.24h9.061v-22.24zm-26.726 22.24h9.061v-22.24h-9.061zm10.561 0H50.02v-22.24H35.355zM42.928 18.3a.75.75 0 0 0-.476 0l-22.4 7.5a.75.75 0 0 0-.512.712v5.903c0 .414.336.75.75.75h44.826a.75.75 0 0 0 .75-.75v-5.903a.75.75 0 0 0-.512-.711z" clip-rule="evenodd"/></svg>