<svg xmlns="http://www.w3.org/2000/svg" width="113" height="113" fill="none"><path fill="#121212" fill-rule="evenodd" d="M56.524 20.679a1 1 0 0 1 1 1V33.19h14.64l.103.005a1 1 0 0 1 0 1.99l-.103.005h-14.64v19.896h6.82l.594.015a11.947 11.947 0 0 1 0 23.865l-.593.014h-6.82v11.511a1 1 0 0 1-2 0v-11.51H37.757a1 1 0 0 1 0-2h17.766V57.086h-6.819A11.95 11.95 0 0 1 36.773 45.73l-.015-.592A11.95 11.95 0 0 1 48.705 33.19h6.82V21.68a1 1 0 0 1 1-1m1 56.302h6.82l.494-.011a9.949 9.949 0 0 0 0-19.871l-.493-.012h-6.82zm-8.819-41.79a9.947 9.947 0 0 0-9.947 9.948l.012.493a9.95 9.95 0 0 0 9.935 9.455h6.82V35.19z" clip-rule="evenodd"/></svg>