<svg width="112" height="112" viewBox="0 0 112 112" fill="none" xmlns="http://www.w3.org/2000/svg">
<path d="M33.5654 33.6887C33.6899 33.5798 33.8791 33.5919 33.9883 33.716C34.0972 33.8405 34.0852 34.0306 33.9609 34.1399C27.5009 39.8112 23.4082 48.1101 23.4082 57.3469C23.4084 74.395 37.2274 88.2145 54.2764 88.2522L55.1289 88.2405C63.9104 88.0031 71.7631 84.1133 77.2197 78.0383L77.2646 77.9973C77.3768 77.9144 77.5358 77.919 77.6436 78.0158C77.7663 78.1266 77.7765 78.3166 77.666 78.4397L77.1201 79.0315C71.4014 85.0793 63.2874 88.8515 54.2764 88.8518H54.2754C36.8963 88.8135 22.8088 74.7267 22.8086 57.3469C22.8086 47.9287 26.9822 39.4682 33.5654 33.6887ZM28.2705 20.4631C28.373 20.3608 28.5311 20.3473 28.6475 20.424L28.6943 20.4631L89.8184 81.5871L89.8574 81.634C89.9342 81.7504 89.9207 81.9085 89.8184 82.011C89.7159 82.1134 89.5578 82.1268 89.4414 82.05L89.3945 82.011L28.2705 20.8869L28.2314 20.8401C28.1547 20.7236 28.1681 20.5656 28.2705 20.4631ZM54.2754 25.9123C71.6551 25.9124 85.7431 40.0003 85.7432 57.3801C85.7431 62.8156 84.3644 67.9069 81.9531 72.385L81.9189 72.4358C81.8295 72.5427 81.6744 72.5757 81.5469 72.5071C81.4012 72.4285 81.3463 72.2466 81.4248 72.1008L81.8564 71.2698C83.9545 67.0809 85.1425 62.3792 85.1426 57.3801C85.1425 40.3317 71.3238 26.512 54.2754 26.5119C48.9993 26.512 44.042 27.8165 39.71 30.1506L39.293 30.3791C39.1484 30.4599 38.9656 30.4085 38.8848 30.2639C38.8041 30.1194 38.8556 29.9366 39 29.8557L39.4258 29.6223C43.8445 27.2415 48.8993 25.9124 54.2754 25.9123ZM54.3516 65.3469C59.1464 65.3469 63.3975 67.5128 66.3311 70.8323C66.4406 70.9563 66.4286 71.1464 66.3047 71.2561C66.1805 71.3656 65.9905 71.3538 65.8809 71.2297C63.0511 68.0278 58.9598 65.9465 54.3516 65.9465C49.7434 65.9466 45.652 68.0278 42.8223 71.2297L42.5977 71.0305L42.373 70.8323C45.3066 67.5129 49.5568 65.347 54.3516 65.3469ZM42.8223 71.2297C42.7127 71.3535 42.5235 71.3653 42.3994 71.2561C42.2755 71.1463 42.2634 70.9563 42.373 70.8323L42.8223 71.2297ZM44.5322 43.7336C45.9141 43.7338 47.0342 44.8546 47.0342 46.2365C47.0341 47.6184 45.9141 48.7383 44.5322 48.7385C43.1502 48.7385 42.0294 47.6186 42.0293 46.2365C42.0293 44.8545 43.1501 43.7336 44.5322 43.7336ZM64.0215 43.7336C65.4036 43.7336 66.5244 44.8545 66.5244 46.2365C66.5243 47.6186 65.4035 48.7385 64.0215 48.7385C62.6395 48.7385 61.5186 47.6186 61.5186 46.2365C61.5186 44.8545 62.6394 43.7336 64.0215 43.7336Z" fill="url(#paint0_linear_577_15214)"/>
<path d="M33.0125 33.0544C33.4842 32.641 34.2013 32.6874 34.6158 33.1581C35.0295 33.6302 34.9839 34.3509 34.5121 34.7651C28.2248 40.2853 24.2446 48.3584 24.2442 57.3411C24.245 73.9247 37.6877 87.3694 54.2739 87.4078C63.1523 87.4078 71.1145 83.5737 76.5944 77.4732C77.0141 77.006 77.734 76.9687 78.2014 77.388C78.6681 77.8079 78.7062 78.5279 78.2866 78.995C72.7604 85.1465 64.8843 89.1591 56.055 89.6369L54.2739 89.685C36.4345 89.6457 21.9715 75.1833 21.9707 57.3411C21.9711 47.6706 26.2581 38.9845 33.0125 33.0544Z" fill="url(#paint1_linear_577_15214)"/>
<path d="M64.0197 43.7296C65.4012 43.7296 66.5219 44.8477 66.5228 46.229C66.5228 47.6111 65.4018 48.7321 64.0197 48.7321C62.6382 48.7314 61.5203 47.6106 61.5203 46.229C61.5212 44.8481 62.6387 43.7303 64.0197 43.7296Z" fill="url(#paint2_linear_577_15214)"/>
<path fill-rule="evenodd" clip-rule="evenodd" d="M27.6767 19.865C28.0648 19.4769 28.6647 19.4269 29.106 19.7169L29.2837 19.865L38.5592 29.1406C38.5698 29.1342 38.5817 29.1281 38.5926 29.122C43.2349 26.5256 48.5841 25.0712 54.2776 25.0712C72.1184 25.0727 86.5803 39.5334 86.5809 57.3744C86.5806 62.9534 85.167 68.1831 82.6929 72.778C82.6355 72.8845 82.5571 72.9724 82.4744 73.0521L90.4095 80.9872L90.554 81.1686C90.8448 81.61 90.798 82.2094 90.4095 82.5979C90.0211 82.986 89.4216 83.0331 88.9803 82.7423L88.7988 82.5979L27.6767 21.4721L27.5286 21.2943C27.2385 20.8531 27.2889 20.2532 27.6767 19.865ZM54.2776 27.3447C49.1931 27.3447 44.4172 28.5918 40.2366 30.8179L80.8304 71.4117C83.0399 67.2042 84.3071 62.4483 84.3073 57.3744C84.3068 40.7898 70.862 27.3462 54.2776 27.3447Z" fill="url(#paint3_linear_577_15214)"/>
<path d="M43.4506 71.782C43.0351 72.2507 42.3176 72.2919 41.8473 71.8783C41.3767 71.4624 41.3317 70.7457 41.7474 70.275L43.4506 71.782Z" fill="url(#paint4_linear_577_15214)"/>
<path d="M54.3517 64.506C59.4064 64.5065 63.8816 66.7918 66.9597 70.275C67.3733 70.7456 67.3293 71.4629 66.8597 71.8783C66.3901 72.2933 65.6729 72.2495 65.2564 71.782C62.572 68.7443 58.6988 66.7801 54.3517 66.7795C50.0045 66.78 46.1352 68.7443 43.4506 71.782L42.599 71.0266L41.7474 70.275C44.8255 66.7918 49.2969 64.5064 54.3517 64.506Z" fill="url(#paint5_linear_577_15214)"/>
<path d="M44.5319 43.7296C45.9131 43.7299 47.034 44.8478 47.035 46.229C47.035 47.6109 45.9137 48.7317 44.5319 48.7321C43.1498 48.7321 42.0288 47.6111 42.0288 46.229C42.0297 44.8477 43.1503 43.7296 44.5319 43.7296Z" fill="url(#paint6_linear_577_15214)"/>
<defs>
<linearGradient id="paint0_linear_577_15214" x1="56.3575" y1="20.375" x2="56.3575" y2="88.8518" gradientUnits="userSpaceOnUse">
<stop stop-color="#505BFD"/>
<stop offset="1" stop-color="#B542FD"/>
</linearGradient>
<linearGradient id="paint1_linear_577_15214" x1="56.3561" y1="19.5312" x2="56.3561" y2="89.685" gradientUnits="userSpaceOnUse">
<stop stop-color="#505BFD"/>
<stop offset="1" stop-color="#B542FD"/>
</linearGradient>
<linearGradient id="paint2_linear_577_15214" x1="56.3561" y1="19.5312" x2="56.3561" y2="89.685" gradientUnits="userSpaceOnUse">
<stop stop-color="#505BFD"/>
<stop offset="1" stop-color="#B542FD"/>
</linearGradient>
<linearGradient id="paint3_linear_577_15214" x1="56.3561" y1="19.5312" x2="56.3561" y2="89.685" gradientUnits="userSpaceOnUse">
<stop stop-color="#505BFD"/>
<stop offset="1" stop-color="#B542FD"/>
</linearGradient>
<linearGradient id="paint4_linear_577_15214" x1="56.3561" y1="19.5312" x2="56.3561" y2="89.685" gradientUnits="userSpaceOnUse">
<stop stop-color="#505BFD"/>
<stop offset="1" stop-color="#B542FD"/>
</linearGradient>
<linearGradient id="paint5_linear_577_15214" x1="56.3561" y1="19.5312" x2="56.3561" y2="89.685" gradientUnits="userSpaceOnUse">
<stop stop-color="#505BFD"/>
<stop offset="1" stop-color="#B542FD"/>
</linearGradient>
<linearGradient id="paint6_linear_577_15214" x1="56.3561" y1="19.5312" x2="56.3561" y2="89.685" gradientUnits="userSpaceOnUse">
<stop stop-color="#505BFD"/>
<stop offset="1" stop-color="#B542FD"/>
</linearGradient>
</defs>
</svg>
