<svg xmlns="http://www.w3.org/2000/svg" width="85" height="85" fill="none"><path fill="#fff" fill-rule="evenodd" d="M29.062 49.815a5.952 5.952 0 1 1 0 11.903 5.952 5.952 0 0 1 0-11.903m0 1.5a4.452 4.452 0 1 0 0 8.904 4.452 4.452 0 0 0 0-8.905M56.149 49.815a5.952 5.952 0 1 1 0 11.904 5.952 5.952 0 0 1 0-11.904m0 1.5a4.452 4.452 0 1 0 0 8.904 4.452 4.452 0 0 0 0-8.905" clip-rule="evenodd"/><path fill="#fff" d="M47.588 23.958a5.247 5.247 0 0 1 5.247 5.247v5.206h7.5c.993 0 1.946.395 2.649 1.098l5.362 5.36.128.135c.622.688.97 1.584.97 2.516v7.623a3.75 3.75 0 0 1-3.748 3.748H63.52a.75.75 0 0 1 0-1.5h2.176a2.25 2.25 0 0 0 2.249-2.248V43.52c0-.522-.182-1.025-.51-1.425l-.15-.165-5.361-5.361a2.25 2.25 0 0 0-1.59-.66h-7.5v12.515a.75.75 0 0 1-1.498 0v-19.22a3.75 3.75 0 0 0-3.748-3.747H20.993a3.75 3.75 0 0 0-3.748 3.748v20.438a3.75 3.75 0 0 0 3.748 3.748h.941l.076.004a.75.75 0 0 1 0 1.491l-.076.004h-.941a5.247 5.247 0 0 1-5.247-5.247V29.205a5.247 5.247 0 0 1 5.247-5.247z"/><path fill="#fff" d="M48.675 53.395a.75.75 0 0 1 0 1.491l-.076.004h-12.26a.75.75 0 0 1 0-1.499h12.26z"/></svg>