<svg xmlns="http://www.w3.org/2000/svg" width="113" height="113" fill="none"><path fill="#121212" d="M89.207 61.086a1 1 0 0 1 .294.038l.01.003.066.023.022.01.06.027.014.007a.95.95 0 0 1 .464.556l.008.026a1 1 0 0 1 .035.247v17.851a.947.947 0 0 1-1.894 0V64.222l-12.2 11.465a27.708 27.708 0 0 1-45.697-10.365l1.785-.632a25.815 25.815 0 0 0 42.593 9.638l.022-.022L86.84 62.981H71.393a.947.947 0 0 1 0-1.895z"/><path fill="#121212" d="M30.965 64.113a.947.947 0 0 1 1.21.577l-1.786.632a.947.947 0 0 1 .576-1.209M48.844 29.476a27.71 27.71 0 0 1 33.82 17.374.948.948 0 0 1-1.787.632 25.813 25.813 0 0 0-42.005-10.206l-.587.568-.021.022-12.056 11.328h15.45l.098.005a.948.948 0 0 1 0 1.885l-.097.004h-17.84a.947.947 0 0 1-.946-.905l-.002-.042v-17.84a.947.947 0 0 1 1.895 0v15.648l12.2-11.464a27.7 27.7 0 0 1 11.878-7.009"/></svg>