<svg xmlns="http://www.w3.org/2000/svg" width="112" height="113" fill="none"><path fill="#121212" fill-rule="evenodd" d="M43.43 75.071a6 6 0 1 1 0 11.999 6 6 0 0 1 0-11.999m0 1.818a4.182 4.182 0 1 0 0 8.364 4.182 4.182 0 0 0 0-8.364M81.163 75.071a6 6 0 1 1-.001 12 6 6 0 0 1 0-12m0 1.818a4.181 4.181 0 1 0 0 8.363 4.181 4.181 0 0 0 0-8.363M32.233 26.824a4.545 4.545 0 0 1 4.545 4.545V68.15a2.73 2.73 0 0 0 2.727 2.728h3.815V47.01a6.363 6.363 0 0 1 6.363-6.363H76.31l.328.008a6.363 6.363 0 0 1 6.035 6.355v23.867h5.537l.092.004a.91.91 0 0 1 0 1.808l-.092.006H39.505a4.545 4.545 0 0 1-4.545-4.546V31.37a2.727 2.727 0 0 0-2.727-2.728h-8.445a.91.91 0 0 1 0-1.818zm17.45 15.642a4.545 4.545 0 0 0-4.545 4.545v23.867h35.717V47.01a4.545 4.545 0 0 0-4.31-4.539l-.235-.006z" clip-rule="evenodd"/></svg>