<svg xmlns="http://www.w3.org/2000/svg" width="112" height="112" fill="none"><mask id="a" width="94" height="75" x="7" y="23" maskUnits="userSpaceOnUse" style="mask-type:alpha"><path fill="#000" d="M34.396 51.636c9.338 0 16.909 7.57 16.909 16.91 0 4.863-2.055 9.247-5.342 12.332q-.96.901-2.052 1.646 1.262.433 2.469.975A29.42 29.42 0 0 1 60.79 97.5H58.26a27.14 27.14 0 0 0-15.08-12.844l-2.368-.812a1 1 0 0 1-.24-1.771l2.069-1.412c3.873-2.642 6.409-7.083 6.409-12.116 0-8.093-6.561-14.655-14.654-14.655S19.74 60.452 19.74 68.545c0 5.033 2.535 9.474 6.408 12.116l2.069 1.412a1 1 0 0 1-.238 1.771l-2.369.813A27.14 27.14 0 0 0 10.531 97.5H7.998a29.42 29.42 0 0 1 14.411-14 29 29 0 0 1 2.47-.976 17 17 0 0 1-2.053-1.646 16.86 16.86 0 0 1-5.34-12.333c0-9.339 7.57-16.909 16.909-16.909"/><path stroke="#000" stroke-width="2" d="M38.426 78.127h9.582a3.945 3.945 0 0 0 3.945-3.945m-13.527 3.945a2.255 2.255 0 0 0-2.254-2.254h-2.255a2.255 2.255 0 0 0 0 4.51h2.255a2.255 2.255 0 0 0 2.254-2.256Z"/><path stroke="#000" stroke-width="2" d="M53.026 63.91a3 3 0 0 1 3 3v4.4a3 3 0 0 1-3 3h-2.89v-10.4zM15.936 63.91a3 3 0 0 0-3 3v4.4a3 3 0 0 0 3 3h2.89v-10.4z"/><path stroke="#000" stroke-width="2" d="M15.317 63.414C15.317 53.797 23.114 46 32.73 46h2.877c9.961 0 18.036 8.075 18.036 18.036"/><path fill="#000" d="M93.945 23.005A4 4 0 0 1 97.74 27v40.392l-.005.205a4 4 0 0 1-3.789 3.789l-.206.006H60.562a16 16 0 0 0-.163-2h33.34a2 2 0 0 0 2-2V27a2 2 0 0 0-2-2H28a2 2 0 0 0-2 2v14.57q-1.017.214-2 .505V27a4 4 0 0 1 4-4h65.74z"/><path stroke="#000" stroke-width="2" d="M59 76h42"/></mask><g mask="url(#a)"><path fill="url(#b)" d="M103 99H9V11h94z"/></g><defs><linearGradient id="b" x1="56" x2="56" y1="99" y2="8.462" gradientUnits="userSpaceOnUse"><stop stop-color="#A34DEE"/><stop offset="1" stop-color="#6943F5"/></linearGradient></defs></svg>