<svg xmlns="http://www.w3.org/2000/svg" width="112" height="112" fill="none"><path fill="url(#a)" d="M55.999 40.61c.628 0 1.136.51 1.136 1.138v10.468h10.468l.23.022c.517.107.907.566.907 1.114s-.39 1.008-.907 1.115l-.23.022H57.136v10.464a1.138 1.138 0 0 1-2.274 0V54.49H44.398a1.138 1.138 0 0 1 0-2.273h10.464V41.748c0-.629.508-1.137 1.137-1.137"/><path fill="url(#b)" fill-rule="evenodd" d="m56.388 24.6 26.541 9.672.308.166c.273.212.44.542.44.9V57.9c0 10.19-6.972 18.538-13.67 24.231-3.376 2.87-6.749 5.122-9.272 6.654a68 68 0 0 1-3.059 1.755c-.37.199-.662.35-.863.452l-.233.119-.06.03-.018.007-.003.003a1.15 1.15 0 0 1-.752.086l-.244-.086-.008-.003-.018-.008-.06-.03-.233-.118c-.2-.102-.493-.253-.863-.452a68 68 0 0 1-3.058-1.755C48.739 87.252 45.367 85 41.99 82.13c-6.698-5.693-13.67-14.042-13.67-24.23V35.337l.051-.344c.105-.33.36-.6.696-.722L55.61 24.6l.193-.052a1.14 1.14 0 0 1 .585.052M30.594 36.134V57.9c0 9.146 6.3 16.913 12.87 22.498 3.26 2.77 6.524 4.954 8.976 6.443a66 66 0 0 0 2.955 1.696c.235.127.44.23.604.315.163-.085.368-.188.603-.315.71-.382 1.73-.952 2.955-1.696 2.453-1.489 5.717-3.673 8.976-6.443 6.571-5.585 12.87-13.352 12.87-22.498V36.134L56 26.881z" clip-rule="evenodd"/><defs><linearGradient id="a" x1="55.999" x2="55.999" y1="24.531" y2="91.264" gradientUnits="userSpaceOnUse"><stop stop-color="#505BFD"/><stop offset="1" stop-color="#B542FD"/></linearGradient><linearGradient id="b" x1="55.999" x2="55.999" y1="24.531" y2="91.264" gradientUnits="userSpaceOnUse"><stop stop-color="#505BFD"/><stop offset="1" stop-color="#B542FD"/></linearGradient></defs></svg>