<svg xmlns="http://www.w3.org/2000/svg" width="85" height="85" fill="none"><path fill="#fff" d="M31.88 18.245a.75.75 0 0 1 .75.75v26.242h3.692a2.25 2.25 0 0 1 2.25 2.25v3.195a2.25 2.25 0 0 1-2.25 2.25h-3.691V66.29a.75.75 0 0 1-1.5 0V52.932h-3.692a2.25 2.25 0 0 1-2.25-2.25v-3.195a2.25 2.25 0 0 1 2.25-2.25h3.692V18.995a.75.75 0 0 1 .75-.75m21.435 0a.75.75 0 0 1 .75.75v9.145h3.693a2.25 2.25 0 0 1 2.25 2.25v3.194a2.25 2.25 0 0 1-2.25 2.25h-3.693v30.455a.75.75 0 0 1-1.5 0V35.834h-3.69a2.25 2.25 0 0 1-2.25-2.25V30.39a2.25 2.25 0 0 1 2.25-2.25h3.69v-9.146a.75.75 0 0 1 .75-.75M27.44 46.736a.75.75 0 0 0-.75.75v3.195c0 .414.335.75.75.75h8.882a.75.75 0 0 0 .75-.75v-3.195a.75.75 0 0 0-.75-.75zM48.875 29.64a.75.75 0 0 0-.75.75v3.194c0 .414.336.75.75.75h8.883a.75.75 0 0 0 .75-.75V30.39a.75.75 0 0 0-.75-.75z"/></svg>