<svg width="24" height="24" viewBox="0 0 24 24" fill="none" xmlns="http://www.w3.org/2000/svg">
<g clip-path="url(#clip0_181_10015)">
<path fill-rule="evenodd" clip-rule="evenodd" d="M19.7818 14C19.9246 13.3621 20 12.6987 20 12.0176C20 7.0373 15.9706 3 11 3C6.02944 3 2 7.0373 2 12.0176C2 16.9978 6.02944 21.0351 11 21.0351L11 19.5766C10.7365 19.2162 10.3857 18.6849 10.034 17.9983C9.37453 16.7113 8.71452 14.885 8.61335 12.6176H13.3867C13.3652 13.0985 13.3186 13.5597 13.2522 14H14.4646C14.5257 13.5575 14.5682 13.0965 14.5878 12.6176H18.7774C18.7415 13.0915 18.6635 13.5535 18.5471 14H19.7818ZM9.64119 19.7169C6.17422 19.1064 3.49387 16.2005 3.22262 12.6176H7.41224C7.51444 15.1153 8.23995 17.1285 8.96601 18.5455C9.19732 18.997 9.429 19.3886 9.64119 19.7169ZM8.61335 11.4176C8.71452 9.15019 9.37453 7.32388 10.034 6.0368C10.3857 5.35027 10.7365 4.81893 11 4.45857C11.2635 4.81893 11.6143 5.35027 11.966 6.0368C12.6255 7.32388 13.2855 9.15019 13.3867 11.4176H8.61335ZM7.41224 11.4176H3.22262C3.49387 7.8346 6.17422 4.92878 9.64119 4.31824C9.429 4.64655 9.19732 5.03814 8.96601 5.4896C8.23995 6.90667 7.51444 8.91986 7.41224 11.4176ZM18.7774 11.4176H14.5878C14.4856 8.91986 13.76 6.90667 13.034 5.4896C12.8027 5.03814 12.571 4.64655 12.3588 4.31824C15.8258 4.92878 18.5061 7.8346 18.7774 11.4176Z" fill="#121212"/>
<path d="M16.6257 14.628H15.4917V19.11C15.4917 19.785 15.1857 20.145 14.6277 20.136C14.1147 20.145 13.7637 19.83 13.7637 19.308H12.6117C12.6117 20.478 13.4667 21.09 14.5917 21.09C15.8067 21.09 16.6347 20.343 16.6257 19.11V14.628Z" fill="#121212"/>
<path fill-rule="evenodd" clip-rule="evenodd" d="M17.6349 14.628V21H18.7689V18.84H19.9929C21.4689 18.849 22.2609 17.967 22.2609 16.734C22.2609 15.528 21.4779 14.637 20.0109 14.628H17.6349ZM19.8489 17.904H18.7689V15.6H19.8489C20.7039 15.591 21.0909 16.068 21.0909 16.734C21.0909 17.418 20.7039 17.904 19.8489 17.904Z" fill="#121212"/>
</g>
<defs>
<clipPath id="clip0_181_10015">
<rect width="24" height="24" fill="white"/>
</clipPath>
</defs>
</svg>
