<svg xmlns="http://www.w3.org/2000/svg" width="112" height="112" fill="none"><mask id="a" width="93" height="74" x="10" y="20" maskUnits="userSpaceOnUse" style="mask-type:alpha"><circle cx="34.687" cy="44.555" r="23.555" stroke="#000" stroke-width="2"/><path stroke="#000" stroke-width="2" d="M40.556 39.287c0-2.9-2.793-5.799-6.06-5.799m0 0c-2.792 0-6.06 1.978-6.06 5.8 0 3.427 3.03 5.073 6.06 5.073m0-10.873V30.59m0 2.9V44.36m.008 10.336c3.022 0 6.052-2.363 6.052-5.262 0-2.9-3.03-5.074-6.06-5.074m.008 10.336c-3.022 0-6.067-2.48-6.067-5.262m6.067 5.261-.008-10.335m.008 10.336-.008 3.436"/><path fill="#000" d="M77.84 25.183a5 5 0 0 1 5 5v6.154l14.309-.003a5 5 0 0 1 5.001 5v18.713l-.01.25a3 3 0 0 1-1.934 2.559l-.238.078-.63.178v25.176a5 5 0 0 1-5 5H35.356a5 5 0 0 1-5-5V68.46q.989.126 2 .173v19.654a3 3 0 0 0 3 3h58.98a3 3 0 0 0 3-3v-24.78l-25.193 3.573v5.577a2 2 0 0 1-2 2h-10.19a2 2 0 0 1-2-2v-5.624L46.83 64.83a25 25 0 0 0 2.233-1.597l8.89 1.76v-5.226a2 2 0 0 1 2-2h10.191a2 2 0 0 1 2 2v5.292l25.986-3.684 1.293-.366.155-.058c.295-.14.504-.417.558-.74l.014-.165V41.335a3 3 0 0 0-3.001-3l-15.309.003-24.657.005a23 23 0 0 0-.652-2l24.31-.005v-6.155a3 3 0 0 0-3-3H52.022c-.486 0-.945.117-1.35.322a25 25 0 0 0-1.569-1.38 4.98 4.98 0 0 1 2.919-.942zM59.954 72.658h10.19v-12.89h-10.19z"/></mask><g mask="url(#a)"><path fill="url(#b)" d="M103 99H9V11h94z"/></g><defs><linearGradient id="b" x1="56" x2="56" y1="99" y2="8.462" gradientUnits="userSpaceOnUse"><stop stop-color="#A34DEE"/><stop offset="1" stop-color="#6943F5"/></linearGradient></defs></svg>