<svg xmlns="http://www.w3.org/2000/svg" width="112" height="112" fill="none"><mask id="c" width="64" height="82" x="24" y="16" maskUnits="userSpaceOnUse" style="mask-type:alpha"><mask id="a" fill="#fff"><path d="M55.61 16a2 2 0 0 1 2 2v1.653h4.394a2 2 0 0 1 2 2v6.051a2 2 0 0 1-2 2h-23.41a2 2 0 0 1-2-2v-6.05a2 2 0 0 1 2-2h4.397V18a2 2 0 0 1 2-2z"/></mask><path fill="#000" d="M55.61 16v-2zm2 3.653h-2v2h2zm4.394 0v-2zm2 2h2zm-2 8.051v2zm-23.41 0v2zm-2-8.05-2-.001zm2-2v-2zm4.397 0v2h2v-2zm0-1.654h-2zm2-2v-2zm10.62 0-.001 2h4a4 4 0 0 0-4-4zm2 2h-2v1.653h4V18zm0 1.653v2h4.393v-4H57.61zm4.393 0v2h4a4 4 0 0 0-4-4zm2 2h-2v6.051h4v-6.05zm0 6.051h-2v4a4 4 0 0 0 4-4zm-2 2v-2h-23.41v4h23.41zm-23.41 0v-2h-4a4 4 0 0 0 4 4zm-2-2h2v-6.05h-4v6.05zm0-6.05h2v-4a4 4 0 0 0-4 3.999zm2-2v2h4.397v-4h-4.397zm4.397 0h2V18h-4v1.653zm0-1.654h2v-4a4 4 0 0 0-4 4zm2-2v2h10.62v-4H44.99z" mask="url(#a)"/><path fill="#000" d="M36.596 24.281h-8.302c-1.33 0-2.294 1.027-2.294 2.154v60.218c0 1.127.963 2.153 2.294 2.154h29.41q.568 1.043 1.21 2h-30.62l-.22-.006c-2.197-.108-3.957-1.81-4.068-3.934L24 86.653V26.435c0-2.222 1.804-4.037 4.073-4.148l.22-.006h8.303zm37.009-1.994c2.268.111 4.073 1.926 4.073 4.148v22.579a14 14 0 0 0-2-.638V26.435c0-1.127-.964-2.154-2.294-2.154h-9.378v-2h9.378z"/><path stroke="#000" stroke-width="2" d="M33 41h24M33 53h17M33 65h11"/><mask id="b" fill="#fff"><path d="M70.333 50c9.573 0 17.333 7.76 17.333 17.333a17.29 17.29 0 0 1-6.01 13.123c-1.646 1.42-2.879 3.362-2.879 5.535v3.565a4 4 0 0 1-4 4H65a4 4 0 0 1-4-4v-4.332c0-2.045-1.097-3.896-2.582-5.303A17.29 17.29 0 0 1 53 67.334C53 57.76 60.76 50 70.333 50"/></mask><path fill="#000" d="M70.333 50v-2zm17.333 17.333h2zm-8.889 22.223h2zm-17.777 0h-2zm-8-22.223h-2zm5.418 12.588-1.375 1.453zm23.237.534-1.307-1.513zM70.333 50v2c8.468 0 15.333 6.865 15.333 15.333h4C89.666 56.656 81.01 48 70.333 48zm17.333 17.333h-2a15.29 15.29 0 0 1-5.318 11.609l1.307 1.514 1.307 1.513a19.29 19.29 0 0 0 6.704-14.636zm-8.889 18.659h-2v3.564h4v-3.564zm0 3.564h-2a2 2 0 0 1-2 2v4a6 6 0 0 0 6-6zm-4 4v-2H65v4h9.777zm-9.777 0v-2a2 2 0 0 1-2-2h-4a6 6 0 0 0 6 6zm-4-4h2v-4.332h-4v4.332zm-2.582-9.635 1.375-1.452A15.28 15.28 0 0 1 55 67.333h-4c0 5.53 2.324 10.52 6.043 14.04zM53 67.334h2C55 58.865 61.865 52 70.333 52v-4C59.656 48 51 56.656 51 67.333zm8 17.891h2c0-2.778-1.479-5.118-3.207-6.755l-1.375 1.453-1.375 1.452C58.285 82.55 59 83.91 59 85.224zm20.655-4.769-1.307-1.513c-1.909 1.648-3.57 4.097-3.57 7.05h4c0-1.395.804-2.83 2.184-4.023z" mask="url(#b)"/><rect width="8.667" height="4.222" x="65.557" y="92.778" stroke="#000" stroke-width="2" rx="1"/><path stroke="#000" stroke-width="2" d="M61.89 86.444h5.777m10.223 0h-5.334m-4.889 0V69.555a2.222 2.222 0 1 0-4.444 0c0 1.228.995 2.223 2.222 2.223h9.334a2.222 2.222 0 1 0 0-4.444 2.22 2.22 0 0 0-2.223 2.221v16.89m-4.889 0h4.89"/></mask><g mask="url(#c)"><path fill="url(#d)" d="M112 107H0V3h112z"/></g><defs><linearGradient id="d" x1="56" x2="56" y1="107" y2="0" gradientUnits="userSpaceOnUse"><stop stop-color="#A34DEE"/><stop offset="1" stop-color="#6943F5"/></linearGradient></defs></svg>