<svg xmlns="http://www.w3.org/2000/svg" width="113" height="112" fill="none"><path fill="url(#a)" d="m87.374 61.5-.994-.11zM76.874 83l.564.825zm-20.216 9.753.3.954.01-.003zM34.874 83l-.565.825zm-10.5-21.5.994-.11zm2.078-30.716-.144-.99zm30.012 62.03-.3-.954zm-1.177.002.305-.952zm30.009-62.032-.145.99zm-29.167-12.46-.77.638c2.978 3.601 12.43 10.278 29.792 12.812l.145-.99.144-.99C68.414 27.31 59.475 20.802 56.9 17.688zM87 32.578l-.998.066c.224 3.39.432 9.571.526 15.427.095 5.885.073 11.335-.147 13.319l.994.11.994.11c.237-2.138.253-7.734.16-13.571-.095-5.867-.304-12.087-.531-15.527zm.375 28.922-.994-.11c-.51 4.583-1.006 14.582-10.071 20.785l.565.825.564.825c9.934-6.797 10.439-17.798 10.93-22.214zM76.874 83l-.565-.825c-7.017 4.8-15.772 8.263-19.96 9.627l.309.951.31.95c4.286-1.395 13.237-4.929 20.47-9.878zm-20.216 9.753-.3-.954-.194.061.3.954.3.954.194-.061zm-1.371.063.305-.952c-4.104-1.317-13.026-4.812-20.154-9.69l-.564.826-.565.825c7.347 5.027 16.467 8.594 20.672 9.944zM34.874 83l.564-.825c-9.065-6.203-9.561-16.202-10.07-20.785l-.994.11-.994.11c.49 4.417.995 15.418 10.929 22.215zm-10.5-21.5.994-.11c-.22-1.984-.243-7.434-.148-13.32.094-5.855.302-12.035.526-15.426l-.998-.066-.998-.066c-.227 3.44-.435 9.66-.53 15.527-.094 5.837-.078 11.433.16 13.572zm2.078-30.716.145.99c17.361-2.535 26.813-9.21 29.791-12.812l-.77-.638-.771-.637c-2.575 3.114-11.513 9.622-28.54 12.108zm29.166-12.46.77.637a.67.67 0 0 1-1.044-.017l.785-.62.785-.62c-.543-.688-1.549-.643-2.067-.017zm-30.87 14.254.998.066c.028-.426.362-.799.85-.87l-.144-.99-.144-.99c-1.355.198-2.463 1.285-2.558 2.718zm31.716 60.236-.3-.954a.94.94 0 0 1-.572.004l-.305.952-.306.953c.59.189 1.211.18 1.784-.001zm28.832-62.03-.145.99c.488.071.822.444.85.87l.998-.066.998-.066c-.095-1.433-1.202-2.52-2.557-2.717z"/><path stroke="url(#b)" stroke-linecap="round" stroke-width="2" d="m44.167 55.001 8.97 8.97 16.002-16"/><defs><linearGradient id="a" x1="58.751" x2="58.751" y1="6.625" y2="92.907" gradientUnits="userSpaceOnUse"><stop stop-color="#A34DEE"/><stop offset="1" stop-color="#6943F5"/></linearGradient><linearGradient id="b" x1="52.857" x2="38.971" y1="64.253" y2="50.368" gradientUnits="userSpaceOnUse"><stop stop-color="#A34DEE"/><stop offset="1" stop-color="#6943F5"/></linearGradient></defs></svg>