<svg xmlns="http://www.w3.org/2000/svg" width="112" height="112" fill="none"><g fill="#121212" clip-path="url(#a)"><path d="M43.236 49.306a.89.89 0 0 1 1.189-.061l.068.06 11.506 11.507 11.508-11.506.067-.061a.888.888 0 0 1 1.25 1.25l-.061.067-12.135 12.136a.89.89 0 0 1-1.256 0L43.236 50.562l-.06-.068a.89.89 0 0 1 .06-1.188"/><path fill-rule="evenodd" d="M80.27 27.808a6.957 6.957 0 0 1 6.957 6.956v18.202A31.23 31.23 0 0 1 56 84.193a31.226 31.226 0 0 1-31.227-31.227V34.764a6.957 6.957 0 0 1 6.611-6.948l.346-.008zM31.473 29.59a5.18 5.18 0 0 0-4.922 5.173v18.202a29.45 29.45 0 0 0 58.899 0V34.764a5.18 5.18 0 0 0-5.18-5.18H31.73z" clip-rule="evenodd"/></g><defs><clipPath id="a"><path fill="#fff" d="M0 0h112v112H0z"/></clipPath></defs></svg>