<svg xmlns="http://www.w3.org/2000/svg" width="85" height="84" fill="none"><g clip-path="url(#a)"><path fill="#121212" fill-rule="evenodd" d="M40.933 17.889a3.44 3.44 0 0 1 3.532.13l21.627 14.057a3.44 3.44 0 0 1 1.565 2.884v14.079a3.44 3.44 0 0 1-1.565 2.884L44.465 65.98a3.44 3.44 0 0 1-3.75 0L19.09 51.923a3.44 3.44 0 0 1-1.566-2.884V34.96c0-1.164.59-2.25 1.566-2.884l21.627-14.058zm-21.486 32.55q.173.188.391.33l21.627 14.058q.21.134.437.214V50.892l-11.609-8.014zm23.83.453v14.149q.23-.08.438-.214l21.627-14.058q.246-.16.433-.38L54.894 42.84zm-11.78-8.854 11.092 7.657 11.098-7.693-11.096-7.698zm-12.598 7q0 .053.003.104l10.182-7.099-10.185-7.03zm37.202-7.034 10.179 7.062.001-.027v-14.09zM41.902 18.957a2 2 0 0 0-.306.137l-.13.078L19.837 33.23a2 2 0 0 0-.478.429l10.93 7.545 11.612-8.096zm1.376 14.15 11.615 8.06 10.891-7.55a2 2 0 0 0-.442-.387L43.715 19.172a2 2 0 0 0-.437-.215z" clip-rule="evenodd"/></g><defs><clipPath id="a"><path fill="#fff" d="M.594 0h84v84h-84z"/></clipPath></defs></svg>