<svg width="112" height="112" viewBox="0 0 112 112" fill="none" xmlns="http://www.w3.org/2000/svg">
<path d="M31 83V80H21V83H31ZM9 95H103V91H9V95ZM13 89H99V85H13V89ZM51 83H61V80H51V83ZM81 83H91V80H81V83ZM23 78H29V46.1582H23V78ZM53 78H59V46.1582H53V78ZM83 78H89V46.1582H83V78ZM56.4229 16.0938L86.4229 30.0938L86.3936 30.1562H104L104.103 30.1611C104.607 30.2125 105 30.6386 105 31.1562V40.1562L104.995 40.2588C104.947 40.7292 104.573 41.1035 104.103 41.1514L104 41.1562H8L7.89746 41.1514C7.42703 41.1035 7.05278 40.7292 7.00488 40.2588L7 40.1562V31.1562C7 30.6386 7.39333 30.2125 7.89746 30.1611L8 30.1562H25.6064L25.5771 30.0938L55.5771 16.0938L56 15.8965L56.4229 16.0938ZM9 39.1562H103V32.1562H9V39.1562ZM30.1729 30.1562H81.8271L56 18.1035L30.1729 30.1562ZM49 80C49 78.9644 49.7872 78.113 50.7959 78.0107L51 78V46.1582C49.8954 46.1582 49 45.2628 49 44.1582V41.1582H51V44.1582H61V41.1582H63V44.1582C63 45.2628 62.1046 46.1582 61 46.1582V78L61.2041 78.0107C62.2128 78.113 63 78.9643 63 80V83H79V80C79 78.9644 79.7872 78.113 80.7959 78.0107L81 78V46.1582C79.8954 46.1582 79 45.2628 79 44.1582V41.1582H81V44.1582H91V41.1582H93V44.1582C93 45.2628 92.1046 46.1582 91 46.1582V78L91.2041 78.0107C92.2128 78.113 93 78.9643 93 80V83H100L100.103 83.0049C100.607 83.0562 101 83.4823 101 84V89H104L104.103 89.0049C104.607 89.0562 105 89.4823 105 90V96C105 96.5177 104.607 96.9438 104.103 96.9951L104 97H8L7.89746 96.9951C7.39333 96.9438 7 96.5177 7 96V90C7 89.4823 7.39333 89.0562 7.89746 89.0049L8 89H11V84C11 83.4823 11.3933 83.0562 11.8975 83.0049L12 83H19V80C19 78.9644 19.7872 78.113 20.7959 78.0107L21 78V46.1582C19.8954 46.1582 19 45.2628 19 44.1582V41.1582H21V44.1582H31V41.1582H33V44.1582C33 45.2628 32.1046 46.1582 31 46.1582V78L31.2041 78.0107C32.2128 78.113 33 78.9643 33 80V83H49V80Z" fill="url(#paint0_linear_401_39014)"/>
<defs>
<linearGradient id="paint0_linear_401_39014" x1="56" y1="6.75981" x2="56" y2="95.0067" gradientUnits="userSpaceOnUse">
<stop stop-color="#A34DEE"/>
<stop offset="1" stop-color="#6943F5"/>
</linearGradient>
</defs>
</svg>
