<svg xmlns="http://www.w3.org/2000/svg" width="113" height="113" fill="none"><path fill="#121212" d="M74.002 43.04a.926.926 0 0 0-1.238-.062l-.07.063L61.06 54.673 50.637 47.74a.93.93 0 0 0-.948-.045l-.123.078-9.705 7.351a.926.926 0 0 0 1.117 1.476l9.181-6.955 10.509 6.987a.926.926 0 0 0 1.166-.116l12.168-12.168.063-.07a.925.925 0 0 0-.063-1.238"/><path fill="#121212" fill-rule="evenodd" d="M31.592 27.458a7.25 7.25 0 0 0-7.248 7.248v31.616a7.25 7.25 0 0 0 7.248 7.248h24.367v10.795H44.236a.926.926 0 0 0 0 1.85h12.632l.016.001h12.644l.095-.005a.925.925 0 0 0 0-1.841l-.095-.005H57.81V73.57h24.368a7.25 7.25 0 0 0 7.248-7.248V34.706a7.25 7.25 0 0 0-7.248-7.248zm50.585 1.85a5.4 5.4 0 0 1 5.397 5.398v31.616a5.4 5.4 0 0 1-5.397 5.397H31.592a5.4 5.4 0 0 1-5.398-5.397V34.706a5.4 5.4 0 0 1 5.398-5.398z" clip-rule="evenodd"/></svg>