<svg xmlns="http://www.w3.org/2000/svg" width="112" height="112" fill="none"><path fill="#000" d="m43.193 75.977.004.154a3 3 0 0 0 2.996 2.846h14.791L72.39 90.38l-.707.707-.708.707-10.819-10.818H46.193a5 5 0 0 1-4.993-4.744l-.007-.256v-15.66H12l-.206-.005a4 4 0 0 1-3.79-3.789L8 56.317V25a4 4 0 0 1 3.794-3.995L12 21h51.83l.206.005A4 4 0 0 1 67.83 25v31.317l-.005.206a4 4 0 0 1-3.789 3.788l-.206.006H43.193zm54.83-36.318a5 5 0 0 1 5 5v31.318c0 2.76-2.239 5-5 5H79.587v-2h18.436c1.657 0 3-1.344 3-3V44.659a3 3 0 0 0-3-3H67.837v-2zM79.838 60.645a4.554 4.554 0 0 1 4.207 3.548h7.606v2h-7.606a4.55 4.55 0 0 1-4.442 3.551l-.234-.006a4.553 4.553 0 0 1-4.312-4.312l-.006-.235a4.553 4.553 0 0 1 4.552-4.552zm-.234 1.994a2.553 2.553 0 1 0 0 5.106 2.553 2.553 0 0 0 0-5.106m8.268-12.171a4.554 4.554 0 0 1 4.313 4.312l.005.235a4.553 4.553 0 0 1-4.552 4.552l-.235-.005a4.55 4.55 0 0 1-4.206-3.546h-7.614a2.48 2.48 0 0 0-2.481 2.481v6.963h-2v-6.963a4.48 4.48 0 0 1 4.481-4.481h7.613a4.554 4.554 0 0 1 4.442-3.554zM12 23a2 2 0 0 0-2 2v31.317a2 2 0 0 0 2 2h51.83a2 2 0 0 0 2-2V25a2 2 0 0 0-2-2zm75.638 29.462a2.553 2.553 0 1 0 0 5.106 2.553 2.553 0 0 0 0-5.106m-53.423-1.547h-2V30.401h2zm11.966 0h-2V30.401h2zm-5.982-4.272h-2V34.677h2zm-12.393-1.71h-2v-8.547h2zm22.65 0h-2v-8.547h2z"/><path fill="url(#a)" d="m43.193 75.977.004.154a3 3 0 0 0 2.996 2.846h14.791L72.39 90.38l-.707.707-.708.707-10.819-10.818H46.193a5 5 0 0 1-4.993-4.744l-.007-.256v-15.66H12l-.206-.005a4 4 0 0 1-3.79-3.789L8 56.317V25a4 4 0 0 1 3.794-3.995L12 21h51.83l.206.005A4 4 0 0 1 67.83 25v31.317l-.005.206a4 4 0 0 1-3.789 3.788l-.206.006H43.193zm54.83-36.318a5 5 0 0 1 5 5v31.318c0 2.76-2.239 5-5 5H79.587v-2h18.436c1.657 0 3-1.344 3-3V44.659a3 3 0 0 0-3-3H67.837v-2zM79.838 60.645a4.554 4.554 0 0 1 4.207 3.548h7.606v2h-7.606a4.55 4.55 0 0 1-4.442 3.551l-.234-.006a4.553 4.553 0 0 1-4.312-4.312l-.006-.235a4.553 4.553 0 0 1 4.552-4.552zm-.234 1.994a2.553 2.553 0 1 0 0 5.106 2.553 2.553 0 0 0 0-5.106m8.268-12.171a4.554 4.554 0 0 1 4.313 4.312l.005.235a4.553 4.553 0 0 1-4.552 4.552l-.235-.005a4.55 4.55 0 0 1-4.206-3.546h-7.614a2.48 2.48 0 0 0-2.481 2.481v6.963h-2v-6.963a4.48 4.48 0 0 1 4.481-4.481h7.613a4.554 4.554 0 0 1 4.442-3.554zM12 23a2 2 0 0 0-2 2v31.317a2 2 0 0 0 2 2h51.83a2 2 0 0 0 2-2V25a2 2 0 0 0-2-2zm75.638 29.462a2.553 2.553 0 1 0 0 5.106 2.553 2.553 0 0 0 0-5.106m-53.423-1.547h-2V30.401h2zm11.966 0h-2V30.401h2zm-5.982-4.272h-2V34.677h2zm-12.393-1.71h-2v-8.547h2zm22.65 0h-2v-8.547h2z"/><defs><linearGradient id="a" x1="55.512" x2="55.512" y1="21" y2="93.837" gradientUnits="userSpaceOnUse"><stop stop-color="#A34DEE"/><stop offset="1" stop-color="#6943F5"/></linearGradient></defs></svg>