<svg width="20" height="20" viewBox="0 0 20 20" fill="none" xmlns="http://www.w3.org/2000/svg">
<g clip-path="url(#clip0_1107_5050)">
<path fill-rule="evenodd" clip-rule="evenodd" d="M4.54122 2.86586C4.36112 2.72178 4.11437 2.69369 3.90649 2.7936C3.69861 2.89351 3.56641 3.10374 3.56641 3.33438V16.6677C3.56641 16.8984 3.69861 17.1086 3.90649 17.2085C4.11437 17.3084 4.36112 17.2803 4.54122 17.1362L12.8746 10.4696C13.0169 10.3557 13.0997 10.1833 13.0997 10.001C13.0997 9.81878 13.0169 9.64639 12.8746 9.53253L4.54122 2.86586ZM11.5393 10.001L4.76641 15.4193V4.58276L11.5393 10.001ZM16.4331 4.16771C16.4331 3.83634 16.1644 3.56771 15.8331 3.56771C15.5017 3.56771 15.2331 3.83634 15.2331 4.16771V15.8344C15.2331 16.1658 15.5017 16.4344 15.8331 16.4344C16.1644 16.4344 16.4331 16.1658 16.4331 15.8344V4.16771Z" fill="#1A1A1A"/>
<path fill-rule="evenodd" clip-rule="evenodd" d="M4.47885 2.94551C4.32877 2.82544 4.12314 2.80203 3.94991 2.88529C3.77668 2.96855 3.6665 3.14374 3.6665 3.33594V16.6693C3.6665 16.8615 3.77668 17.0367 3.94991 17.1199C4.12314 17.2032 4.32877 17.1798 4.47885 17.0597L12.8122 10.393C12.9308 10.2982 12.9998 10.1545 12.9998 10.0026C12.9998 9.85072 12.9308 9.70706 12.8122 9.61217L4.47885 2.94551ZM11.6994 10.0026L4.6665 15.629V4.37625L11.6994 10.0026Z" fill="#1A1A1A"/>
<path d="M16.3332 4.16928C16.3332 3.89313 16.1093 3.66928 15.8332 3.66928C15.557 3.66928 15.3332 3.89313 15.3332 4.16928V15.8359C15.3332 16.1121 15.557 16.3359 15.8332 16.3359C16.1093 16.3359 16.3332 16.1121 16.3332 15.8359V4.16928Z" fill="#1A1A1A"/>
</g>
<defs>
<clipPath id="clip0_1107_5050">
<rect width="20" height="20" fill="white"/>
</clipPath>
</defs>
</svg>
