<svg width="112" height="112" viewBox="0 0 112 112" fill="none" xmlns="http://www.w3.org/2000/svg">
<mask id="mask0_385_9966" style="mask-type:alpha" maskUnits="userSpaceOnUse" x="21" y="14" width="72" height="80">
<line x1="30.7319" y1="39.197" x2="53.5737" y2="39.197" stroke="black" stroke-width="2"/>
<line x1="30.7319" y1="51.7598" x2="49.0053" y2="51.7598" stroke="black" stroke-width="2"/>
<line x1="30.7319" y1="64.3228" x2="45.579" y2="64.3228" stroke="black" stroke-width="2"/>
<mask id="path-4-inside-1_385_9966" fill="white">
<path d="M53.1729 14.5C54.2773 14.5002 55.1729 15.3955 55.1729 16.5V18.1533H59.5664C60.6708 18.1533 61.5662 19.049 61.5664 20.1533V26.2041C61.5664 27.3087 60.671 28.2041 59.5664 28.2041H36.1562C35.0517 28.2041 34.1562 27.3086 34.1562 26.2041V20.1533C34.1565 19.049 35.0519 18.1534 36.1562 18.1533H40.5537V16.5C40.5537 15.3955 41.4492 14.5 42.5537 14.5H53.1729Z"/>
</mask>
<path d="M53.1729 14.5L53.1732 12.5H53.1729V14.5ZM55.1729 18.1533H53.1729V20.1533H55.1729V18.1533ZM59.5664 18.1533L59.5664 16.1533H59.5664V18.1533ZM61.5664 20.1533H63.5664V20.1529L61.5664 20.1533ZM59.5664 28.2041V30.2041H59.5664L59.5664 28.2041ZM36.1562 28.2041L36.1562 30.2041H36.1562V28.2041ZM34.1562 20.1533L32.1562 20.1529V20.1533H34.1562ZM36.1562 18.1533V16.1533H36.1562L36.1562 18.1533ZM40.5537 18.1533V20.1533H42.5537V18.1533H40.5537ZM40.5537 16.5L38.5537 16.5V16.5H40.5537ZM42.5537 14.5V12.5H42.5536L42.5537 14.5ZM53.1729 14.5L53.1725 16.5H53.1729H55.1729H57.1729C57.1729 14.2906 55.3816 12.5004 53.1732 12.5L53.1729 14.5ZM55.1729 16.5H53.1729V18.1533H55.1729H57.1729V16.5H55.1729ZM55.1729 18.1533V20.1533H59.5664V18.1533V16.1533H55.1729V18.1533ZM59.5664 18.1533L59.5664 20.1533L59.5664 20.1538L61.5664 20.1533L63.5664 20.1529C63.5659 17.9447 61.7758 16.1533 59.5664 16.1533L59.5664 18.1533ZM61.5664 20.1533H59.5664V26.2041H61.5664H63.5664V20.1533H61.5664ZM61.5664 26.2041H59.5664H59.5664L59.5664 28.2041L59.5664 30.2041C61.7755 30.2041 63.5664 28.4133 63.5664 26.2041H61.5664ZM59.5664 28.2041V26.2041H36.1562V28.2041V30.2041H59.5664V28.2041ZM36.1562 28.2041L36.1563 26.2041H36.1562H34.1562H32.1562C32.1562 28.4133 33.9472 30.204 36.1562 30.2041L36.1562 28.2041ZM34.1562 26.2041H36.1562V20.1533H34.1562H32.1562V26.2041H34.1562ZM34.1562 20.1533L36.1562 20.1538L36.1563 20.1533L36.1562 18.1533L36.1562 16.1533C33.9469 16.1534 32.1567 17.9447 32.1562 20.1529L34.1562 20.1533ZM36.1562 18.1533V20.1533H40.5537V18.1533V16.1533H36.1562V18.1533ZM40.5537 18.1533H42.5537V16.5H40.5537H38.5537V18.1533H40.5537ZM40.5537 16.5L42.5537 16.5L42.5538 16.5L42.5537 14.5L42.5536 12.5C40.3447 12.5001 38.5537 14.2908 38.5537 16.5L40.5537 16.5ZM42.5537 14.5V16.5H53.1729V14.5V12.5H42.5537V14.5Z" fill="black" mask="url(#path-4-inside-1_385_9966)"/>
<path d="M34.1577 22.7815H25.8911C24.5607 22.7816 23.5973 23.8084 23.5972 24.9348V85.1536C23.5972 86.2801 24.5606 87.3067 25.8911 87.3069H57.5464C58.1428 88.0134 58.7826 88.682 59.4634 89.3069H25.8911L25.6704 89.301C23.4747 89.1934 21.7144 87.4909 21.603 85.3674L21.5972 85.1536V24.9348C21.5973 22.7129 23.4016 20.8986 25.6704 20.7874L25.8911 20.7815H34.1577V22.7815ZM71.2017 20.7874C73.4705 20.8986 75.2748 22.713 75.2749 24.9348V51.6477C74.8967 51.6281 74.5154 51.6184 74.1323 51.6184C73.8452 51.6184 73.5594 51.6249 73.2749 51.636V24.9348C73.2748 23.8084 72.3113 22.7817 70.981 22.7815H61.5679V20.7815H70.981L71.2017 20.7874Z" fill="black"/>
<mask id="path-7-inside-2_385_9966" fill="white">
<path d="M90.4128 65.0614C92.3103 68.7867 92.8729 73.05 92.0068 77.14C91.1408 81.2301 88.8985 84.8994 85.654 87.536C82.4095 90.1726 78.359 91.6169 74.1783 91.628C69.9976 91.6391 65.9395 90.2163 62.6811 87.5969L63.9057 86.0735C66.8156 88.4126 70.4396 89.6832 74.1731 89.6733C77.9066 89.6634 81.5238 88.3736 84.4213 86.0191C87.3187 83.6645 89.3212 80.3877 90.0946 76.7351C90.868 73.0826 90.3655 69.2753 88.6711 65.9485L90.4128 65.0614Z"/>
</mask>
<path d="M90.4128 65.0614C92.3103 68.7867 92.8729 73.05 92.0068 77.14C91.1408 81.2301 88.8985 84.8994 85.654 87.536C82.4095 90.1726 78.359 91.6169 74.1783 91.628C69.9976 91.6391 65.9395 90.2163 62.6811 87.5969L63.9057 86.0735C66.8156 88.4126 70.4396 89.6832 74.1731 89.6733C77.9066 89.6634 81.5238 88.3736 84.4213 86.0191C87.3187 83.6645 89.3212 80.3877 90.0946 76.7351C90.868 73.0826 90.3655 69.2753 88.6711 65.9485L90.4128 65.0614Z" stroke="black" stroke-width="6" mask="url(#path-7-inside-2_385_9966)"/>
<mask id="path-8-inside-3_385_9966" fill="white">
<path d="M57.5589 81.0566C55.7968 77.2654 55.388 72.9846 56.4006 68.9284C57.4133 64.8722 59.7862 61.2859 63.1235 58.7678C66.4608 56.2497 70.5606 54.9521 74.739 55.0915C78.9174 55.2308 82.9216 56.7987 86.0837 59.5336L84.805 61.012C81.9812 58.5697 78.4053 57.1695 74.6738 57.045C70.9424 56.9206 67.2811 58.0794 64.3008 60.3281C61.3205 62.5768 59.2014 65.7795 58.2971 69.4019C57.3927 73.0242 57.7578 76.8471 59.3314 80.2327L57.5589 81.0566Z"/>
</mask>
<path d="M57.5589 81.0566C55.7968 77.2654 55.388 72.9846 56.4006 68.9284C57.4133 64.8722 59.7862 61.2859 63.1235 58.7678C66.4608 56.2497 70.5606 54.9521 74.739 55.0915C78.9174 55.2308 82.9216 56.7987 86.0837 59.5336L84.805 61.012C81.9812 58.5697 78.4053 57.1695 74.6738 57.045C70.9424 56.9206 67.2811 58.0794 64.3008 60.3281C61.3205 62.5768 59.2014 65.7795 58.2971 69.4019C57.3927 73.0242 57.7578 76.8471 59.3314 80.2327L57.5589 81.0566Z" stroke="black" stroke-width="6" mask="url(#path-8-inside-3_385_9966)"/>
<path d="M79.8984 61.2356L86.4517 60.5346L85.4326 54.1203" stroke="black" stroke-width="2" stroke-linejoin="round"/>
<path d="M69.9453 85.8843L63.392 86.5853L64.4112 92.9996" stroke="black" stroke-width="2" stroke-linejoin="round"/>
</mask>
<g mask="url(#mask0_385_9966)">
<path d="M103 99L8.99999 99L9 11L103 11L103 99Z" fill="url(#paint0_linear_385_9966)"/>
</g>
<defs>
<linearGradient id="paint0_linear_385_9966" x1="56" y1="99" x2="56" y2="8.46154" gradientUnits="userSpaceOnUse">
<stop stop-color="#A34DEE"/>
<stop offset="1" stop-color="#6943F5"/>
</linearGradient>
</defs>
</svg>
