<svg xmlns="http://www.w3.org/2000/svg" width="112" height="112" fill="none"><g clip-path="url(#a)"><mask id="d" width="112" height="112" x="0" y="0" maskUnits="userSpaceOnUse" style="mask-type:alpha"><mask id="b" width="93" height="86" x="9" y="13" maskUnits="userSpaceOnUse" style="mask-type:alpha"><path fill="#000" d="M71.437 56.563a8.113 8.113 0 0 1 4.547 14.83c5.382 1.88 9.243 7 9.244 13.022v.27h-2v-.27c0-5.145-3.299-9.526-7.903-11.133a2.002 2.002 0 0 1-.464-3.544 6.1 6.1 0 0 0 2.688-5.063l-.008-.314a6.114 6.114 0 0 0-5.79-5.79l-.315-.008a6.114 6.114 0 0 0-6.104 5.798l-.008.314a6.1 6.1 0 0 0 2.686 5.063 2.002 2.002 0 0 1-.463 3.543c-4.603 1.608-7.9 5.99-7.9 11.134v.27h-2v-.27c0-6.021 3.86-11.142 9.24-13.022a8.113 8.113 0 0 1 4.55-14.83"/><path stroke="#000" stroke-linejoin="round" stroke-width="2" d="M29.676 14c10.59 0 19.176 8.586 19.177 19.176 0 1.337-.137 2.64-.397 3.898l-.118.536c-.802 3.387-.377 7.414 2.367 9.963l.273.241c2.75 2.328 6.564 2.38 9.695 1.087l.3-.129a25.5 25.5 0 0 1 10.431-2.215C85.54 46.557 97 58.017 97 72.154 97 86.29 85.54 97.749 71.404 97.75c-14.136 0-25.595-11.46-25.595-25.596V57.446a6.44 6.44 0 0 0-1.121-3.631l-.15-.211c-1.992-2.68-5.548-3.208-8.488-2.328l-.282.09a19.2 19.2 0 0 1-6.092.987c-10.59 0-19.176-8.586-19.176-19.177s8.585-19.175 19.176-19.175Z"/><path fill="#000" d="M30.16 21.81a5.79 5.79 0 0 1 3.246 10.581C37.246 33.733 40 37.385 40 41.682v1.07h-2v-1.07a7.84 7.84 0 0 0-5.254-7.403 2 2 0 0 1-.463-3.543 3.79 3.79 0 1 0-4.248.001 2 2 0 0 1-.463 3.542 7.84 7.84 0 0 0-5.254 7.403v1.07h-2v-1.07c0-4.297 2.755-7.95 6.594-9.29A5.789 5.789 0 0 1 30.16 21.81"/><circle cx="15.5" cy="65.125" r="5.5" stroke="#000" stroke-linejoin="round" stroke-width="2"/><circle cx="92" cy="29.625" r="9" stroke="#000" stroke-linejoin="round" stroke-width="2"/></mask><g mask="url(#b)"><path fill="url(#c)" d="M112 107H0V3h112z"/></g></mask><g mask="url(#d)"><path fill="url(#e)" d="M112 107H0V3h112z"/></g></g><defs><linearGradient id="c" x1="56" x2="56" y1="107" y2="0" gradientUnits="userSpaceOnUse"><stop stop-color="#A34DEE"/><stop offset="1" stop-color="#6943F5"/></linearGradient><linearGradient id="e" x1="56" x2="56" y1="107" y2="0" gradientUnits="userSpaceOnUse"><stop stop-color="#A34DEE"/><stop offset="1" stop-color="#6943F5"/></linearGradient><clipPath id="a"><path fill="#fff" d="M0 0h112v112H0z"/></clipPath></defs></svg>