<svg xmlns="http://www.w3.org/2000/svg" width="112" height="112" fill="none"><path fill="url(#a)" d="M31 83v-3H21v3zM9 95h94v-4H9zm4-6h86v-4H13zm38-6h10v-3H51zm30 0h10v-3H81zm-58-5h6V46.158h-6zm30 0h6V46.158h-6zm30 0h6V46.158h-6zM56.423 16.094l30 14-.03.062H104l.103.005a1 1 0 0 1 .897.995v9l-.005.103a1 1 0 0 1-.892.892l-.103.005H8l-.103-.005a1 1 0 0 1-.892-.892L7 40.156v-9a1 1 0 0 1 .897-.995L8 30.156h17.606l-.029-.062 30-14 .423-.198zM9 39.156h94v-7H9zm21.173-9h51.654L56 18.104zM49 80a2 2 0 0 1 1.796-1.99L51 78V46.158a2 2 0 0 1-2-2v-3h2v3h10v-3h2v3a2 2 0 0 1-2 2V78l.204.01A2 2 0 0 1 63 80v3h16v-3a2 2 0 0 1 1.796-1.99L81 78V46.158a2 2 0 0 1-2-2v-3h2v3h10v-3h2v3a2 2 0 0 1-2 2V78l.204.01A2 2 0 0 1 93 80v3h7l.103.005A1 1 0 0 1 101 84v5h3l.103.005A1 1 0 0 1 105 90v6a1 1 0 0 1-.897.995L104 97H8l-.103-.005A1 1 0 0 1 7 96v-6a1 1 0 0 1 .897-.995L8 89h3v-5a1 1 0 0 1 .898-.995L12 83h7v-3a2 2 0 0 1 1.796-1.99L21 78V46.158a2 2 0 0 1-2-2v-3h2v3h10v-3h2v3a2 2 0 0 1-2 2V78l.204.01A2 2 0 0 1 33 80v3h16z"/><defs><linearGradient id="a" x1="56" x2="56" y1="6.76" y2="95.007" gradientUnits="userSpaceOnUse"><stop stop-color="#A34DEE"/><stop offset="1" stop-color="#6943F5"/></linearGradient></defs></svg>