<svg xmlns="http://www.w3.org/2000/svg" width="85" height="84" fill="none"><g fill="#fff" clip-path="url(#a)"><path d="M33.02 36.979a.666.666 0 0 1 .892-.046l.051.046 8.63 8.63 8.63-8.63.051-.046a.666.666 0 0 1 .938.938l-.046.05-9.101 9.102a.667.667 0 0 1-.942 0L33.02 37.92l-.046-.05a.666.666 0 0 1 .046-.892"/><path fill-rule="evenodd" d="M60.796 20.856a5.22 5.22 0 0 1 5.218 5.217v13.652A23.422 23.422 0 0 1 33.63 61.362a23.42 23.42 0 0 1-14.457-21.637V26.073a5.22 5.22 0 0 1 4.958-5.211l.26-.006zm-36.598 1.337a3.885 3.885 0 0 0-3.691 3.88v13.652a22.087 22.087 0 0 0 44.174 0V26.073a3.886 3.886 0 0 0-3.885-3.885H24.391z" clip-rule="evenodd"/></g><defs><clipPath id="a"><path fill="#fff" d="M.594 0h84v84h-84z"/></clipPath></defs></svg>