<svg width="112" height="112" viewBox="0 0 112 112" fill="none" xmlns="http://www.w3.org/2000/svg">
<mask id="mask0_385_9866" style="mask-type:alpha" maskUnits="userSpaceOnUse" x="7" y="23" width="94" height="75">
<path d="M34.3955 51.636C43.7341 51.6361 51.3047 59.2066 51.3047 68.5452C51.3046 73.409 49.2504 77.7935 45.9629 80.8782C45.3237 81.4779 44.6376 82.0282 43.9111 82.5237C44.752 82.8122 45.5755 83.1384 46.3799 83.4993C52.6747 86.3233 57.7915 91.3037 60.791 97.5002H58.2598C55.059 91.5232 49.6797 86.8866 43.1797 84.6565L40.8115 83.844C40.033 83.5769 39.8926 82.5365 40.5723 82.0725L42.6406 80.6614C46.5141 78.0195 49.0497 73.5782 49.0498 68.5452C49.0498 60.4517 42.4889 53.89 34.3955 53.8899C26.302 53.8899 19.7412 60.4517 19.7412 68.5452C19.7414 73.578 22.2761 78.0195 26.1494 80.6614L28.2178 82.0725C28.8978 82.5363 28.7579 83.5767 27.9795 83.844L25.6113 84.6565C19.1112 86.8866 13.731 91.523 10.5303 97.5002H7.99902C10.9984 91.3037 16.1155 86.3234 22.4102 83.4993C23.2145 83.1384 24.039 82.8122 24.8799 82.5237C24.1533 82.0281 23.4665 81.478 22.8271 80.8782C19.5397 77.7935 17.4865 73.4089 17.4863 68.5452C17.4863 59.2065 25.0569 51.636 34.3955 51.636Z" fill="black"/>
<path d="M38.4262 78.1273H48.0081C50.1871 78.1273 51.9535 76.3609 51.9535 74.1819V74.1819M38.4262 78.1273V78.1273C38.4262 76.8822 37.4168 75.8728 36.1717 75.8728H33.9171C32.672 75.8728 31.6626 76.8822 31.6626 78.1273V78.1273C31.6626 79.3725 32.672 80.3819 33.9171 80.3819H36.1717C37.4168 80.3819 38.4262 79.3725 38.4262 78.1273V78.1273Z" stroke="black" stroke-width="2"/>
<path d="M53.0259 63.9092C54.6827 63.9092 56.0259 65.2523 56.0259 66.9092V71.3096C56.0257 72.9662 54.6826 74.3096 53.0259 74.3096H50.1353V63.9092H53.0259Z" stroke="black" stroke-width="2"/>
<path d="M15.9355 63.9092C14.2787 63.9092 12.9355 65.2523 12.9355 66.9092V71.3096C12.9358 72.9662 14.2788 74.3096 15.9355 74.3096H18.8262V63.9092H15.9355Z" stroke="black" stroke-width="2"/>
<path d="M15.3169 63.4144V63.4144C15.3169 53.7967 23.1136 46 32.7313 46H35.6078C45.569 46 53.6442 54.0752 53.6442 64.0364V64.0364" stroke="black" stroke-width="2"/>
<path d="M93.9453 23.0049C96.0586 23.1122 97.7393 24.86 97.7393 27V67.3916L97.7344 67.5967C97.6309 69.6421 95.9906 71.2819 93.9453 71.3857L93.7393 71.3916H60.5615C60.5486 70.7143 60.4934 70.0469 60.3994 69.3916H93.7393C94.8437 69.3915 95.7391 68.496 95.7393 67.3916V27C95.7393 25.8955 94.8438 25.0001 93.7393 25H28C26.8954 25 26 25.8954 26 27V41.5693C25.3221 41.7121 24.6552 41.8819 24 42.0752V27C24 24.7909 25.7909 23 28 23H93.7393L93.9453 23.0049Z" fill="black"/>
<path d="M59 76L101 76" stroke="black" stroke-width="2"/>
</mask>
<g mask="url(#mask0_385_9866)">
<path d="M103 99L8.99999 99L9 11L103 11L103 99Z" fill="url(#paint0_linear_385_9866)"/>
</g>
<defs>
<linearGradient id="paint0_linear_385_9866" x1="56" y1="99" x2="56" y2="8.46154" gradientUnits="userSpaceOnUse">
<stop stop-color="#A34DEE"/>
<stop offset="1" stop-color="#6943F5"/>
</linearGradient>
</defs>
</svg>
