<svg width="113" height="112" viewBox="0 0 113 112" fill="none" xmlns="http://www.w3.org/2000/svg">
<mask id="mask0_401_39035" style="mask-type:alpha" maskUnits="userSpaceOnUse" x="25" y="26" width="63" height="60">
<path d="M56.4419 28.4004C47.8263 28.4004 40.8423 35.3844 40.8423 44C40.8423 49.3579 43.541 54.0861 47.6646 56.8984L49.9722 58.4727C50.6522 58.9365 50.5124 59.9778 49.7339 60.2451L47.0913 61.1514C36.4967 64.7862 28.6958 74.425 27.7407 86H25.3325C26.2189 74.3484 33.5054 64.4854 43.6841 59.9189C44.5403 59.5348 45.417 59.1879 46.312 58.8809C45.5386 58.3534 44.8079 57.7674 44.1274 57.1289C40.6278 53.8451 38.4419 49.1777 38.4419 44C38.4419 34.0589 46.5008 26 56.4419 26C66.383 26.0001 74.4419 34.0589 74.4419 44C74.4419 49.1778 72.2551 53.8451 68.7554 57.1289C68.075 57.7673 67.345 58.3535 66.5718 58.8809C67.4669 59.1879 68.3435 59.5348 69.1997 59.9189C79.3783 64.4854 86.6649 74.3484 87.5513 86H85.1431C84.188 74.4249 76.3871 64.7862 65.7925 61.1514L63.1499 60.2451C62.3713 59.9779 62.2315 58.9365 62.9116 58.4727L65.2192 56.8984C69.3428 54.0861 72.0415 49.3579 72.0415 44C72.0415 35.3844 65.0575 28.4004 56.4419 28.4004Z" fill="black"/>
</mask>
<g mask="url(#mask0_401_39035)">
<path d="M103.52 92L9.51952 92L9.51953 4L103.52 4.00001L103.52 92Z" fill="url(#paint0_linear_401_39035)"/>
</g>
<defs>
<linearGradient id="paint0_linear_401_39035" x1="56.5195" y1="92" x2="56.5195" y2="1.46154" gradientUnits="userSpaceOnUse">
<stop stop-color="#A34DEE"/>
<stop offset="1" stop-color="#6943F5"/>
</linearGradient>
</defs>
</svg>
