<svg width="24" height="24" viewBox="0 0 24 24" fill="none" xmlns="http://www.w3.org/2000/svg">
<path fill-rule="evenodd" clip-rule="evenodd" d="M11.9967 1.71875C6.31601 1.71875 1.71094 6.32382 1.71094 12.0045C1.71094 17.6851 6.31601 22.2902 11.9967 22.2902C17.6773 22.2902 22.2824 17.6851 22.2824 12.0045C22.2824 6.32382 17.6773 1.71875 11.9967 1.71875ZM10.3673 3.41198C6.56298 4.12896 3.62884 7.30994 3.28613 11.2336H7.62068C7.88504 8.43657 8.8304 5.75179 10.3673 3.41198ZM13.626 3.41198C15.1629 5.75179 16.1083 8.43657 16.3726 11.2336H20.7072C20.3645 7.30994 17.4303 4.12896 13.626 3.41198ZM14.8234 11.2336C14.5434 8.53925 13.5688 5.96422 11.9967 3.76065C10.4245 5.96422 9.44992 8.53925 9.16991 11.2336H14.8234ZM9.16991 12.7753H14.8234C14.5434 15.4697 13.5688 18.0447 11.9967 20.2483C10.4245 18.0447 9.44992 15.4697 9.16991 12.7753ZM7.62068 12.7753H3.28613C3.62884 16.699 6.56298 19.88 10.3673 20.597C8.8304 18.2571 7.88504 15.5724 7.62068 12.7753ZM13.626 20.597C15.1629 18.2571 16.1083 15.5724 16.3726 12.7753H20.7072C20.3645 16.699 17.4303 19.88 13.626 20.597Z" fill="#1A1A1A"/>
</svg>
