<svg xmlns="http://www.w3.org/2000/svg" width="112" height="112" fill="none"><mask id="a" width="89" height="77" x="9" y="19" maskUnits="userSpaceOnUse" style="mask-type:alpha"><rect width="12.799" height="13.125" x="49.768" y="81.874" stroke="#000" stroke-width="2" rx="2"/><rect width="12.799" height="22.75" x="66.835" y="72.249" stroke="#000" stroke-width="2" rx="2"/><rect width="12.799" height="35" x="83.901" y="60" stroke="#000" stroke-width="2" rx="2"/><path fill="#000" d="M95.323 44.208a1.015 1.015 0 0 0-.787-1.185l-8.84-1.879a.985.985 0 0 0-1.176.768c-.108.54.245 1.07.787 1.185l7.857 1.67-1.557 7.814c-.108.54.245 1.07.787 1.186a.985.985 0 0 0 1.177-.768zm-44.1 27.93.556.838 43.119-28.138-.557-.838-.557-.839L50.665 71.3z"/><path fill="#000" d="M47.2 19.205a2 2 0 0 1 2 1.999l.002 6.669a24.1 24.1 0 0 1 7.327 4.295l5.892-3.402a2 2 0 0 1 2.62.56l.113.172 6.665 11.545a2 2 0 0 1-.733 2.731l-6.306 3.642a24.1 24.1 0 0 1-.181 7.33l-.09.48 2.145 1.239-1.85 1.24-1.296-.747a2 2 0 0 1-.96-2.124c.437-2.196.545-4.46.302-6.712l-.054-.451a2 2 0 0 1 .984-1.988l6.306-3.64-6.665-11.545L57.53 33.9a2 2 0 0 1-2.3-.213 22.1 22.1 0 0 0-6.265-3.764l-.455-.175a2 2 0 0 1-1.307-1.875l-.001-6.67H33.873V28.1c0 .817-.499 1.551-1.256 1.856q-1.09.437-2.149.998l-.701.388a22.3 22.3 0 0 0-3.534 2.529 2 2 0 0 1-2.318.226l-6.19-3.572-6.664 11.542v.001l6.8 3.926.125.078c.612.417.948 1.142.861 1.886a22 22 0 0 0 .22 6.606 2 2 0 0 1-.965 2.098l-6.959 4.017 6.665 11.545 7.374-4.257a2 2 0 0 1 2.214.141 22.1 22.1 0 0 0 5.218 2.96l.14.06a2 2 0 0 1 1.119 1.796v8.644h11.873v2.001l-11.875.001-.204-.01a2 2 0 0 1-1.786-1.787l-.009-.204v-8.644a24.1 24.1 0 0 1-5.69-3.226l-7.374 4.257-.182.093a2 2 0 0 1-2.438-.654l-.111-.17L9.412 61.68l-.094-.182a2 2 0 0 1 .653-2.439l.172-.11 6.959-4.018a24 24 0 0 1-.242-7.205l-6.799-3.925-.172-.11a2 2 0 0 1-.653-2.44l.093-.182 6.665-11.543a2 2 0 0 1 2.731-.732l6.19 3.573a24 24 0 0 1 3.334-2.45l.518-.307a24 24 0 0 1 3.105-1.509v-6.896c0-1.105.896-2 2-2.001zm-12.013 21.54c5.397-3.115 12.298-1.265 15.414 4.132l.277.51c2.72 5.314.821 11.884-4.407 14.903l-.51.278c-5.143 2.631-11.462.937-14.6-3.913l-.303-.495c-3.018-5.228-1.378-11.867 3.634-15.11zm13.682 5.132a9.284 9.284 0 0 0-12.682-3.399l-.407.25A9.285 9.285 0 0 0 32.56 54.74l.228.42a9.284 9.284 0 0 0 12.262 3.626l.42-.229c4.301-2.483 5.863-7.89 3.626-12.261z"/></mask><g mask="url(#a)"><path fill="url(#b)" d="M101 98H9.838V13.35H101z"/></g><defs><linearGradient id="b" x1="55.419" x2="55.419" y1="98.001" y2="10.908" gradientUnits="userSpaceOnUse"><stop stop-color="#A34DEE"/><stop offset="1" stop-color="#6943F5"/></linearGradient></defs></svg>