<svg xmlns="http://www.w3.org/2000/svg" width="113" height="113" fill="none"><path fill="#121212" fill-rule="evenodd" d="M56.883 25.044c7.622 0 14.563 1.029 19.63 2.718 2.529.843 4.643 1.867 6.145 3.05 1.49 1.175 2.507 2.617 2.507 4.288v42.53c0 1.67-1.007 3.112-2.492 4.29-1.495 1.184-3.603 2.21-6.126 3.052-5.057 1.688-11.998 2.714-19.664 2.714S42.275 86.66 37.218 84.97c-2.523-.842-4.63-1.867-6.125-3.052-1.393-1.103-2.365-2.44-2.481-3.98l-.012-.31V35.1c0-1.67 1.017-3.113 2.508-4.288 1.501-1.183 3.616-2.207 6.144-3.05 5.067-1.69 12.008-2.718 19.63-2.718M30.484 77.63l.007.16c.061.81.585 1.71 1.773 2.652 1.258.997 3.138 1.936 5.55 2.741 4.816 1.608 11.547 2.618 19.069 2.618s14.251-1.01 19.067-2.618c2.413-.805 4.294-1.744 5.552-2.74 1.267-1.005 1.778-1.962 1.778-2.813v-17.5q-.288.27-.607.524c-1.495 1.185-3.603 2.21-6.126 3.052-5.057 1.688-11.998 2.714-19.664 2.714s-14.608-1.026-19.665-2.714c-2.524-.842-4.63-1.867-6.125-3.052a10 10 0 0 1-.608-.525zm0-21.266.006.161c.061.81.586 1.71 1.774 2.652 1.258.997 3.138 1.935 5.55 2.74 4.816 1.609 11.547 2.618 19.069 2.618s14.251-1.01 19.067-2.617c2.413-.806 4.294-1.744 5.552-2.741 1.188-.941 1.71-1.841 1.772-2.652l.006-.16V38.851a10 10 0 0 1-.622.535c-1.502 1.183-3.616 2.208-6.145 3.051-5.067 1.69-12.008 2.718-19.63 2.718-7.623 0-14.564-1.029-19.63-2.718-2.53-.843-4.644-1.868-6.145-3.05a10 10 0 0 1-.623-.537zM56.884 26.93c-7.477 0-14.207 1.012-19.035 2.621-2.42.806-4.309 1.746-5.574 2.743-1.276 1.005-1.79 1.961-1.79 2.807s.514 1.801 1.79 2.807c1.265.997 3.155 1.937 5.574 2.743 4.828 1.61 11.558 2.621 19.035 2.621 7.476 0 14.206-1.012 19.034-2.621 2.419-.806 4.308-1.746 5.574-2.743 1.276-1.005 1.79-1.961 1.79-2.807s-.514-1.802-1.79-2.807c-1.266-.997-3.155-1.937-5.574-2.743-4.828-1.61-11.558-2.621-19.034-2.621" clip-rule="evenodd"/></svg>