<svg xmlns="http://www.w3.org/2000/svg" width="85" height="85" fill="none"><path fill="#121212" fill-rule="evenodd" d="M33.167 56.21a4.5 4.5 0 1 1 0 9 4.5 4.5 0 0 1 0-9m0 1.364a3.136 3.136 0 1 0 0 6.273 3.136 3.136 0 0 0 0-6.273M61.467 56.21a4.5 4.5 0 1 1 0 9 4.5 4.5 0 0 1 0-9m0 1.364a3.136 3.136 0 1 0 0 6.272 3.136 3.136 0 0 0 0-6.272M24.77 20.025a3.41 3.41 0 0 1 3.408 3.41V51.02c0 1.13.916 2.045 2.046 2.045h2.86v-17.9a4.77 4.77 0 0 1 4.773-4.772h19.97l.246.006a4.773 4.773 0 0 1 4.527 4.767v17.9h4.152l.07.003a.682.682 0 0 1 0 1.356l-.07.004H30.224a3.41 3.41 0 0 1-3.41-3.409V23.434c0-1.13-.915-2.045-2.045-2.045h-6.333a.682.682 0 1 1 0-1.364zm13.087 11.732a3.41 3.41 0 0 0-3.409 3.409v17.9h26.788v-17.9a3.41 3.41 0 0 0-3.233-3.405l-.176-.004z" clip-rule="evenodd"/></svg>