<svg xmlns="http://www.w3.org/2000/svg" width="112" height="112" fill="none"><mask id="a" width="75" height="81" x="19" y="14" maskUnits="userSpaceOnUse" style="mask-type:alpha"><path fill="#000" d="M45.518 24.035a7.185 7.185 0 0 1 6.815 7.175l-.009.37a7.18 7.18 0 0 1-3.953 6.05l7.986 21.518q-.76.902-1.44 1.87l-2.415-6.512-5.728 5.24 5.83 5.286q-.446.96-.816 1.96l-6.496-5.889-13.463 12.32 13.565 5.98 4.809-2.13q.047 1.066.179 2.109l-2.511 1.112 2.928 1.29q.282 1.268.682 2.487l-6.084-2.681-20.801 9.21a1 1 0 0 1-1.346-1.253l5.833-16.165 7.56-20.956 5.328-14.769q.38.187.783.327a7.19 7.19 0 0 1-4.78-6.404l-.01-.37a7.185 7.185 0 0 1 7.184-7.185zM25.925 88.023l16.996-7.525-12.322-5.43zm6.415-17.778 11.464-10.491-5.786-5.245zm14.15-31.979a7.2 7.2 0 0 1-1.342.128l-.37-.008a7 7 0 0 1-.917-.109l.012.003-5.121 14.195 6.534 5.923 6.465-5.916-5.276-14.212q.008-.001.014-.004m-1.342-12.24a5.185 5.185 0 1 0 0 10.368 5.185 5.185 0 0 0 0-10.369"/><path stroke="#000" stroke-width="2" d="M58.315 21.461c2.646 2.95 3.593 5.362 3.593 9.152s-.947 6.2-3.593 9.151M64.3 15c4.41 5.033 5.988 9.146 5.988 15.611S68.71 41.19 64.301 46.222M31.973 39.764c-2.646-2.95-3.593-5.361-3.593-9.15s.947-6.202 3.593-9.152M25.987 46.226C21.577 41.193 20 37.08 20 30.615s1.578-10.578 5.987-15.611"/><circle cx="74.248" cy="74.647" r="18.752" stroke="#000" stroke-width="2"/><path stroke="#000" stroke-width="2" d="M58.348 66.457s6.142 3.854 15.898 3.854 15.898-3.854 15.898-3.854"/><path stroke="#000" stroke-width="2" d="M74.247 92.82c1.58 0 9.48-7.02 9.48-18.171s-7.11-18.172-9.48-18.172"/><path stroke="#000" stroke-width="2" d="M58.73 83.942s6.06-3.486 15.686-3.486c9.625 0 15.685 3.486 15.685 3.486"/><path stroke="#000" stroke-width="2" d="M74.25 56.473c-1.976 0-9.481 7.02-9.481 18.171s7.505 18.172 9.48 18.172M74.25 56.473v37.924"/></mask><g mask="url(#a)"><path fill="url(#b)" d="M114.002 109h-112V5h112z"/></g><defs><linearGradient id="b" x1="58.002" x2="58.002" y1="109" y2="2" gradientUnits="userSpaceOnUse"><stop stop-color="#A34DEE"/><stop offset="1" stop-color="#6943F5"/></linearGradient></defs></svg>