<svg xmlns="http://www.w3.org/2000/svg" width="112" height="112" fill="none"><path fill="url(#a)" d="M73.742 73.444c5.17.263 9.28 4.538 9.28 9.772l-.012.503a9.786 9.786 0 0 1-9.268 9.268l-.504.013H24.784l-.504-.013a9.785 9.785 0 0 1-9.267-9.268L15 83.216c0-5.234 4.111-9.51 9.28-9.772l.504-.012h48.454zm-48.958 1.988a7.785 7.785 0 0 0 0 15.568h48.454a7.785 7.785 0 0 0 0-15.568zm12.114 9.25h-12.58v-2h12.58zM85.82 39.887h15.841L81.918 58.434a8.8 8.8 0 0 1 1.104 4.283l-.011.455a8.854 8.854 0 0 1-8.385 8.386l-.455.01H23.852l-.456-.01a8.854 8.854 0 0 1-8.384-8.386L15 62.717a8.853 8.853 0 0 1 8.397-8.841l.456-.012h47.06V52H24.783l-.504-.013a9.785 9.785 0 0 1-9.267-9.268L15 42.216c0-5.235 4.111-9.51 9.28-9.772l.504-.012h38.223L85.82 11zM23.853 55.864a6.853 6.853 0 0 0 0 13.704H74.17a6.853 6.853 0 0 0 6.226-9.708l-9.485 8.912V55.864zm13.045 8.319h-12.58v-2h12.58zM60.12 37.887h12.791v26.262l23.7-22.262h-12.79V15.622zm-35.337-3.455a7.785 7.785 0 0 0 0 15.568h46.128V39.887h-15.84l5.806-5.455zm12.114 8.318h-12.58v-2h12.58z"/><defs><linearGradient id="a" x1="24.882" x2="24.882" y1="53.739" y2="94.132" gradientUnits="userSpaceOnUse"><stop stop-color="#A34DEE"/><stop offset="1" stop-color="#6943F5"/></linearGradient></defs></svg>