<svg xmlns="http://www.w3.org/2000/svg" width="113" height="113" fill="none"><path fill="#fff" fill-rule="evenodd" d="M79.327 22.83a3 3 0 0 1 3 3v59.644a3 3 0 0 1-3 3h-40.96a8.957 8.957 0 0 1-8.944-8.512l-.01-.444V31.784a8.956 8.956 0 0 1 8.954-8.955zm-40.96 49.732a6.956 6.956 0 0 0-6.955 6.955l.009.345a6.956 6.956 0 0 0 6.946 6.612h40.96a1 1 0 0 0 1-1V72.56zm0-47.733a6.956 6.956 0 0 0-6.955 6.955v42.093q.292-.361.623-.692a8.96 8.96 0 0 1 6.332-2.624h41.96V25.83a1 1 0 0 0-1-1z" clip-rule="evenodd"/></svg>