<svg xmlns="http://www.w3.org/2000/svg" width="113" height="113" fill="none"><path fill="#fff" d="M69.364 65.596a1.717 1.717 0 1 0 0 3.434 1.717 1.717 0 0 0 0-3.434M44.289 65.596a1.717 1.717 0 1 0 0 3.434 1.717 1.717 0 0 0 0-3.434"/><path fill="#fff" fill-rule="evenodd" d="M47.408 24.572c-7.11 0-13.248 4.979-14.717 11.887l-.067.33-.001.006-1.552 8.525-.022.017.016.019-3.508 19.266-.077.436c-1.076 6.61 2.309 12.798 7.787 15.718l-7.157 7.06a.828.828 0 0 0 1.164 1.18l7.603-7.5a15 15 0 0 0 5.43 1.017h29.067c1.922 0 3.747-.355 5.42-1l7.585 7.483a.828.828 0 0 0 1.163-1.18l-7.135-7.038c5.623-2.975 9.054-9.387 7.75-16.176l-5.065-27.827-.002-.01-.069-.331a15.04 15.04 0 0 0-14.715-11.882zM32.45 46.994c6.006 6.636 14.868 10.834 24.755 10.834 9.997 0 18.23-3.952 24.17-10.226l3.154 17.325.002.008c1.59 8.287-4.74 15.942-13.157 15.942H42.34c-8.418 0-14.748-7.655-13.157-15.942l.001-.008zm33.856-20.765c6.43 0 11.93 4.54 13.157 10.872l1.539 8.449c-5.696 6.485-13.798 10.622-23.797 10.622-9.891 0-18.684-4.413-24.374-11.268l1.421-7.806.059-.294c1.306-6.142 6.767-10.575 13.097-10.575z" clip-rule="evenodd"/></svg>