<svg width="112" height="112" viewBox="0 0 112 112" fill="none" xmlns="http://www.w3.org/2000/svg">
<mask id="mask0_385_17866" style="mask-type:alpha" maskUnits="userSpaceOnUse" x="5" y="11" width="103" height="83">
<path d="M72.0431 93.7375V83.4004C72.0431 83.4004 63.4288 83.4004 60.5573 81.6801C57.3815 79.7775 59.4088 70.1944 58.8345 69.0432C58.0089 67.3883 55.068 69.5484 54.2402 67.8947C53.0916 65.6001 58.2602 62.1518 58.8345 57.5575C59.4088 52.9632 57.8613 51.243 59.9831 44.3489C62.2802 36.885 72.7755 29.3966 83.5288 29.9918C100.183 30.9136 106.5 43.7765 106.5 54.6861C105.352 69.0432 99.2211 69.4593 97.8859 76.5108C96.5507 83.5622 97.3116 93.7375 97.3116 93.7375" stroke="black" stroke-width="2" stroke-linejoin="round"/>
<path d="M94.4402 55.8376C94.4402 58.5635 93.6319 61.2283 92.1174 63.4949C90.6029 65.7615 88.4503 67.5281 85.9319 68.5713C83.4134 69.6144 80.6421 69.8874 77.9685 69.3556C75.2949 68.8238 72.839 67.5111 70.9114 65.5835C68.9839 63.6559 67.6712 61.2001 67.1394 58.5265C66.6075 55.8528 66.8805 53.0816 67.9237 50.5631C68.9669 48.0446 70.7335 45.892 73 44.3775C75.2666 42.863 77.9314 42.0547 80.6574 42.0547V55.8376H94.4402Z" stroke="black" stroke-width="2" stroke-linejoin="round"/>
<path d="M98.4782 52.3735C98.4782 50.5635 98.1217 48.7713 97.429 47.0991C96.7364 45.4268 95.7211 43.9074 94.4413 42.6276C93.1614 41.3477 91.642 40.3325 89.9698 39.6398C88.2976 38.9472 86.5053 38.5907 84.6953 38.5907L84.6953 52.3735H98.4782Z" stroke="black" stroke-width="2" stroke-linejoin="round"/>
<path d="M17.4858 42.6304L19.2539 37.3665M29.799 42.6304L27.7783 37.3665M19.2539 37.3665L23.232 25.5225L27.7783 37.3665M19.2539 37.3665H27.7783M34.7144 25.4019V42.5098" stroke="black" stroke-width="2" stroke-linejoin="round"/>
<path d="M47.3486 33.4419C47.3486 36.2936 46.2 41.4819 43.9029 44.9276C45.6257 48.3733 48.4972 52.9676 48.4972 52.9676C48.4972 52.9676 41.6057 57.5619 34.14 52.7271C31.8243 53.6242 29.3068 54.1162 26.6743 54.1162C15.2562 54.1162 6 44.86 6 33.4419C6 22.0238 15.2562 12.7676 26.6743 12.7676C38.0924 12.7676 47.3486 22.0238 47.3486 33.4419Z" stroke="black" stroke-width="2" stroke-linejoin="round"/>
</mask>
<g mask="url(#mask0_385_17866)">
<path d="M124.303 114.986L-4.33736 114.986L-4.33735 -4.46567L124.303 -4.46566L124.303 114.986Z" fill="url(#paint0_linear_385_17866)"/>
</g>
<defs>
<linearGradient id="paint0_linear_385_17866" x1="59.9827" y1="114.986" x2="59.9827" y2="-7.91138" gradientUnits="userSpaceOnUse">
<stop stop-color="#A34DEE"/>
<stop offset="1" stop-color="#6943F5"/>
</linearGradient>
</defs>
</svg>
