<svg xmlns="http://www.w3.org/2000/svg" width="85" height="85" fill="none"><path fill="#121212" d="M52 49.288a1.288 1.288 0 1 0 0 2.575 1.288 1.288 0 0 0 0-2.575M33.194 49.288a1.288 1.288 0 1 0 0 2.575 1.288 1.288 0 0 0 0-2.575"/><path fill="#121212" fill-rule="evenodd" d="M35.534 18.52c-5.333 0-9.936 3.733-11.038 8.914l-.05.248-.002.005-1.163 6.393-.016.013.011.014-2.63 14.45-.059.327c-.806 4.958 1.732 9.599 5.841 11.788l-5.368 5.296a.621.621 0 0 0 .873.884l5.702-5.625c1.257.488 2.628.76 4.072.763h21.8c1.442 0 2.811-.266 4.066-.75l5.688 5.612a.621.621 0 0 0 .873-.884l-5.35-5.28c4.216-2.23 6.79-7.04 5.812-12.131l-3.8-20.87v-.008l-.053-.248a11.28 11.28 0 0 0-11.036-8.911zM24.315 35.335c4.504 4.977 11.15 8.126 18.566 8.126 7.498 0 13.672-2.964 18.128-7.67l2.365 12.994.002.006c1.193 6.215-3.555 11.956-9.868 11.956H31.733c-6.313 0-11.06-5.741-9.868-11.956l.002-.006zm25.392-15.574c4.822 0 8.948 3.404 9.868 8.154l1.154 6.337c-4.272 4.864-10.349 7.966-17.848 7.966-7.418 0-14.013-3.31-18.28-8.451l1.066-5.854.044-.22c.98-4.607 5.075-7.932 9.823-7.932z" clip-rule="evenodd"/></svg>