<svg width="112" height="112" viewBox="0 0 112 112" fill="none" xmlns="http://www.w3.org/2000/svg">
<mask id="mask0_385_9600" style="mask-type:alpha" maskUnits="userSpaceOnUse" x="23" y="21" width="67" height="70">
<path d="M25 72.1143H30.3301C30.6248 72.1145 30.8633 72.3536 30.8633 72.6484V88.2051C30.8633 88.7574 30.4156 89.2051 29.8633 89.2051H25C24.4477 89.2051 24 88.7574 24 88.2051V73.1143C24 72.562 24.4477 72.1143 25 72.1143Z" stroke="black" stroke-width="2"/>
<path d="M31.522 72.8603C31.522 72.8603 37.9477 67.5523 42.9425 66.7239C49.0269 65.7147 52.1339 70.0068 58.2836 70.4739C60.8382 70.6679 64.6915 70.5146 65.4723 70.4803C65.5679 70.4761 65.6599 70.4781 65.7544 70.4926C66.4177 70.5943 69.1928 71.1815 69.1928 73.883M49.5903 77.2921L65.4391 77.798C65.555 77.8017 65.6698 77.7958 65.7831 77.7715C66.4939 77.6186 69.1928 76.8432 69.1928 73.883M69.1928 73.883C69.1928 73.883 73.5139 72.2557 76.1815 70.9859C79.626 69.3462 84.7043 66.2125 84.7043 66.2125C84.7043 66.2125 86.4089 65.3617 88.1134 67.065C89.1497 68.1005 88.9073 69.5283 88.7305 70.1561C88.6702 70.3701 88.556 70.5513 88.4057 70.7151C86.4575 72.8394 71.8783 88.3132 59.1359 89.9059C55.0449 90.4173 38.9356 84.6234 36.8061 85.1332C34.6766 85.6429 31.522 87.0082 31.522 87.0082" stroke="black" stroke-width="2"/>
<path d="M35 33.2577L43.6614 22M35 33.2577L60.5906 61M35 33.2577H47.5M43.6614 22H59.8031M43.6614 22L47.5 33.2577M75.9449 22L85 33.2577M75.9449 22H59.8031M75.9449 22L72.5 33.2577M85 33.2577L60.5906 61M85 33.2577H72.5M60.5906 61L72.5 33.2577M60.5906 61L47.5 33.2577M59.8031 22L47.5 33.2577M59.8031 22L72.5 33.2577M72.5 33.2577H60H47.5" stroke="black" stroke-width="2" stroke-linejoin="round"/>
</mask>
<g mask="url(#mask0_385_9600)">
<path d="M103 99L8.99999 99L9 11L103 11L103 99Z" fill="url(#paint0_linear_385_9600)"/>
</g>
<defs>
<linearGradient id="paint0_linear_385_9600" x1="56" y1="99" x2="56" y2="8.46154" gradientUnits="userSpaceOnUse">
<stop stop-color="#A34DEE"/>
<stop offset="1" stop-color="#6943F5"/>
</linearGradient>
</defs>
</svg>
