<svg xmlns="http://www.w3.org/2000/svg" width="112" height="113" fill="none"><path fill="#121212" d="M60.063 25.351c-2.796-.348-5.63-.354-8.442.076v-.002a2.82 2.82 0 0 0-2.254 1.845l-.064.2h-.001l-1.189 4.175a.74.74 0 0 1-.464.492l-.017.006a24.5 24.5 0 0 0-2.866 1.166.8.8 0 0 1-.617.035l-.065-.03-.01-.007-3.917-2.18-.18-.091a2.82 2.82 0 0 0-2.824.25l-.011.01-.012.007c-1.252.94-2.483 1.959-3.65 3.125a30 30 0 0 0-2.783 3.24l-.017.024c-.603.854-.741 2.015-.16 3.001v.001l2.104 3.8v.002a.74.74 0 0 1 0 .693l-.01.019-.008.018a30 30 0 0 0-1.228 2.875c-.104.278-.29.446-.514.518l-4.306 1.221-.007.002-.008.002c-1.007.303-1.86 1.166-2.028 2.27h-.001c-.459 2.962-.457 5.988-.072 8.935l.002.011a2.82 2.82 0 0 0 2.042 2.318l4.156 1.192c.25.076.435.263.508.514l.005.016.006.018c.346 1.037.733 2.065 1.233 3.07h.002a.84.84 0 0 1-.008.734l-2.172 3.87-.002.005a2.82 2.82 0 0 0 .159 3.004l.007.008a30 30 0 0 0 3.1 3.63c.994.994 2.086 1.908 3.16 2.74l.005.003a2.76 2.76 0 0 0 3.035.217h.002l3.78-2.113.015-.008.012-.008c.16-.095.427-.111.684.026l.012.005c.781.405 1.576.745 2.363 1.05l.783.295c.296.113.473.306.541.53l1.227 4.257.003.011c.302 1.01 1.167 1.864 2.274 2.03l.005.001c2.922.423 5.91.422 8.823.035h.01a2.83 2.83 0 0 0 2.32-2.044l1.189-4.148a.77.77 0 0 1 .497-.52l.008-.002c1.115-.36 2.181-.824 3.216-1.307l.012-.005.013-.007c.27-.135.539-.123.746-.014l3.837 2.14h.002a2.82 2.82 0 0 0 3.003-.159l.015-.012a30 30 0 0 0 3.453-2.959 32 32 0 0 0 2.883-3.338l.02-.028a2.82 2.82 0 0 0 .25-2.824l-.09-.18-.003-.005-2.137-3.797c-.11-.208-.122-.477.014-.749l.006-.012c.492-1.02.912-2.037 1.296-3.081.113-.303.31-.483.538-.55l-.001-.001 4.214-1.188.007-.002.008-.003c1.019-.305 1.87-1.179 2.031-2.315l.164-1.14h-.056c.254-2.397.231-4.811-.067-7.205l-.075-.554a2.82 2.82 0 0 0-1.843-2.254l-.2-.066h-.003l-4.202-1.186a.74.74 0 0 1-.497-.466l-.004-.014-.005-.013-.271-.758a20 20 0 0 0-.963-2.206.96.96 0 0 1-.003-.77l2.12-3.834a2.82 2.82 0 0 0-.16-3.004l-.006-.007-.005-.008-.336-.447a30 30 0 0 0-2.658-3.04 29 29 0 0 0-3.419-2.925l-.015-.012-.171-.111a2.82 2.82 0 0 0-2.654-.14l-.178.092h-.002l-3.837 2.14a.74.74 0 0 1-.69-.003l-.01-.005-.012-.006-.704-.336a28 28 0 0 0-2.16-.868.82.82 0 0 1-.48-.433l-.032-.084-1.219-4.268-.004-.012-.063-.188c-.325-.864-1.066-1.585-2.006-1.803l-.205-.04h-.009zm-8.149 2.053c2.784-.426 5.612-.395 8.419 0v.001c.224.034.477.218.607.5l.048.127 1.223 4.278.003.012.004.012c.27.862.918 1.492 1.727 1.796l.008.002.007.003c.696.249 1.365.513 2.01.807l.638.304c.8.417 1.756.413 2.553-.012l.008-.004.008-.005 3.848-2.145v-.001a.82.82 0 0 1 .871.042 27 27 0 0 1 3.181 2.721 28 28 0 0 1 2.785 3.242l.062.101c.106.209.119.45.034.67l-.05.108-.002.002-2.145 3.882-.017.03-.014.032a2.96 2.96 0 0 0 0 2.48l.008.019.01.018c.334.645.619 1.315.88 2.016l.255.711c.284.874.987 1.498 1.805 1.753l.013.004.013.004 4.224 1.192c.345.1.565.365.61.677l.07.52a29.4 29.4 0 0 1-.07 7.815l-.03.206a.9.9 0 0 1-.438.429l-.124.047-4.208 1.187-.01.003c-.873.256-1.473.893-1.788 1.62l-.058.147-.003.006a32 32 0 0 1-1.216 2.895c-.409.817-.422 1.773.013 2.587l.004.01.006.01 2.143 3.808a.82.82 0 0 1-.043.876 29.6 29.6 0 0 1-2.685 3.11 28 28 0 0 1-3.215 2.754.82.82 0 0 1-.872.042h.001l-3.848-2.145-.008-.004-.008-.005-.154-.076a2.81 2.81 0 0 0-2.408.052l-.752.343c-.623.277-1.238.53-1.859.746l-.373.125a2.77 2.77 0 0 0-1.757 1.697l-.053.166-.002.005-1.193 4.156a.83.83 0 0 1-.563.59l-.115.024c-2.736.362-5.534.36-8.261-.033-.223-.034-.475-.218-.606-.5l-.047-.126-1.224-4.247-.001-.006-.057-.171c-.285-.78-.885-1.323-1.563-1.616l-.147-.059-.007-.003-.748-.282a22 22 0 0 1-2.168-.96c-.756-.4-1.763-.483-2.616.014l-3.778 2.11-.107.05a.75.75 0 0 1-.737-.103c-1.036-.802-2.057-1.658-2.97-2.572a28 28 0 0 1-2.891-3.383.82.82 0 0 1-.044-.87l2.18-3.883.005-.01.005-.01a2.84 2.84 0 0 0 .058-2.528l-.006-.011-.006-.013-.164-.338c-.266-.566-.5-1.15-.718-1.757l-.255-.737a2.75 2.75 0 0 0-1.692-1.78l-.167-.055-.007-.002-4.155-1.192a.83.83 0 0 1-.613-.674c-.363-2.773-.361-5.604.065-8.361l.001-.005c.039-.256.274-.55.627-.656l4.31-1.221.026-.008c.863-.27 1.493-.918 1.797-1.728l.002-.006.003-.008a28 28 0 0 1 1.151-2.696 2.74 2.74 0 0 0-.018-2.539l-.008-.013-2.111-3.816-.022-.037-.047-.09c-.09-.219-.069-.49.107-.744a28 28 0 0 1 2.587-3.011c1.076-1.077 2.225-2.03 3.42-2.927a.82.82 0 0 1 .87-.041l3.917 2.18c.79.446 1.743.424 2.51.067l.011-.005a22.5 22.5 0 0 1 2.64-1.076v-.002c.879-.282 1.507-.986 1.763-1.807l.004-.013.003-.012 1.193-4.188a.83.83 0 0 1 .678-.613zm4.105 14.77c-8.152 0-14.76 6.608-14.76 14.76 0 8.15 6.608 14.76 14.76 14.76 8.151 0 14.76-6.609 14.76-14.76s-6.609-14.76-14.76-14.76m0 2c7.047 0 12.76 5.712 12.76 12.76 0 7.046-5.713 12.76-12.76 12.76s-12.76-5.714-12.76-12.76c0-7.048 5.713-12.76 12.76-12.76"/><path fill="#121212" fill-rule="evenodd" d="M56.02 42.297c-8.085 0-14.639 6.553-14.639 14.638 0 8.084 6.554 14.638 14.638 14.638s14.638-6.554 14.638-14.638c0-8.085-6.554-14.638-14.638-14.638m0 1.755c7.114 0 12.882 5.768 12.882 12.883s-5.768 12.882-12.883 12.882-12.882-5.768-12.882-12.882c0-7.115 5.767-12.883 12.882-12.883" clip-rule="evenodd"/><path fill="#121212" fill-rule="evenodd" d="M60.047 25.474c-2.789-.348-5.615-.353-8.417.075a2.7 2.7 0 0 0-2.148 1.764l-.063.191-1.188 4.177a.86.86 0 0 1-.546.574l-.015.005q-1.43.477-2.853 1.162a.92.92 0 0 1-.714.037l-.08-.038-.009-.005-3.916-2.18-.172-.088a2.7 2.7 0 0 0-2.703.24l-.02.015c-1.249.937-2.475 1.951-3.636 3.113a30 30 0 0 0-2.772 3.227l-.016.021c-.578.82-.708 1.931-.152 2.871l2.107 3.81a.86.86 0 0 1-.002.803l-.009.016-.007.016c-.448.93-.87 1.877-1.223 2.865-.117.31-.33.509-.594.593l-4.308 1.221-.006.003-.006.002c-.968.29-1.785 1.118-1.944 2.17-.457 2.95-.456 5.964-.071 8.9l.001.01a2.7 2.7 0 0 0 1.956 2.219l4.149 1.188a.87.87 0 0 1 .598.6l.004.014.005.015c.345 1.035.731 2.059 1.229 3.057a.96.96 0 0 1-.01.844l-2.173 3.873-.002.003a2.7 2.7 0 0 0 .152 2.874l.006.008a30 30 0 0 0 3.088 3.614c.989.99 2.075 1.9 3.148 2.73l.004.004c.867.663 1.995.71 2.902.206h.001l3.781-2.112.011-.007.012-.007c.202-.121.517-.132.804.021l.01.005c1.034.535 2.093.958 3.127 1.337.29.109.49.294.588.52l.036.099 1.225 4.252.003.01c.29.968 1.12 1.785 2.174 1.943l.005.001c2.91.42 5.887.42 8.79.036l.009-.002a2.7 2.7 0 0 0 2.218-1.955l1.19-4.15a.89.89 0 0 1 .578-.602l.008-.002c1.107-.358 2.168-.817 3.201-1.3l.01-.005.012-.005c.304-.152.615-.142.859-.014l3.839 2.14v.001a2.7 2.7 0 0 0 2.875-.152l.006-.004.007-.006a30 30 0 0 0 3.439-2.947 31.5 31.5 0 0 0 2.871-3.327l.01-.01.008-.014a2.7 2.7 0 0 0 .24-2.701l-.088-.172-.002-.004-2.138-3.8c-.13-.245-.14-.556.013-.861l.005-.011c.49-1.016.908-2.03 1.29-3.071h.002c.124-.332.347-.544.617-.624l4.214-1.19h.007l.007-.004c.977-.293 1.79-1.13 1.945-2.214l.144-1.002h-.052c.268-2.432.251-4.882-.052-7.312l-.074-.552a2.7 2.7 0 0 0-1.765-2.156l-.19-.063h-.003l-4.202-1.186a.86.86 0 0 1-.581-.548l-.004-.012-.274-.766a20 20 0 0 0-.957-2.193 1.08 1.08 0 0 1-.004-.879l2.123-3.84a2.7 2.7 0 0 0-.153-2.874l-.01-.013-.334-.446a30 30 0 0 0-2.647-3.027A29 29 0 0 0 75 31.602l-.007-.005-.006-.004-.164-.107a2.7 2.7 0 0 0-2.539-.133l-.171.087-.001.001-3.84 2.14a.86.86 0 0 1-.804-.002l-.01-.005-.01-.006-.349-.17a27 27 0 0 0-2.5-1.027.95.95 0 0 1-.552-.499l-.037-.097-1.22-4.27-.003-.012-.06-.18c-.313-.83-1.023-1.518-1.92-1.727l-.195-.037h-.008zm-8.152 1.81c2.8-.427 5.642-.396 8.462.002.267.042.55.256.694.57l.054.142 1.224 4.28.002.01.003.011c.258.824.877 1.426 1.654 1.718l.007.002.006.003c.698.249 1.37.514 2.02.81l.642.306c.765.399 1.678.396 2.44-.01l.007-.004.008-.004 3.847-2.146a.94.94 0 0 1 .893-.018l.116.07a27 27 0 0 1 3.19 2.731 28.4 28.4 0 0 1 2.802 3.263.94.94 0 0 1 .106.88l-.058.123-.001.002-2.146 3.883-.014.026-.013.027a2.84 2.84 0 0 0 0 2.378l.008.016.008.016c.45.867.809 1.778 1.142 2.744.27.834.942 1.43 1.726 1.676l.011.003.012.004 4.22 1.19a.95.95 0 0 1 .702.78l.07.521a29.6 29.6 0 0 1-.07 7.847l-.032.219a1.03 1.03 0 0 1-.643.562l-4.213 1.19-.009.002c-.832.245-1.406.852-1.709 1.55l-.057.142-.002.006a32 32 0 0 1-1.222 2.907c-.391.783-.403 1.697.01 2.474l.006.009.004.008 2.144 3.81c.179.322.16.71-.052 1.01a30 30 0 0 1-2.697 3.122 28 28 0 0 1-3.223 2.764.94.94 0 0 1-1.009.052l-3.847-2.145-.008-.004-.007-.004-.147-.073a2.69 2.69 0 0 0-2.306.053l-.753.343c-.75.334-1.492.633-2.245.876a2.64 2.64 0 0 0-1.678 1.622l-.053.158-.001.005-1.192 4.156a.95.95 0 0 1-.773.7c-2.75.364-5.562.364-8.305-.032-.304-.048-.628-.317-.748-.705l-1.226-4.256-.001-.004-.053-.163c-.273-.744-.846-1.264-1.498-1.546l-.14-.057-.006-.002-.752-.283a22 22 0 0 1-2.179-.968c-.725-.383-1.69-.46-2.5.014l-3.78 2.111a.88.88 0 0 1-.868.008l-.113-.075c-1.038-.803-2.061-1.663-2.978-2.58a28 28 0 0 1-2.9-3.393.94.94 0 0 1-.055-1.005l2.18-3.884.004-.008.005-.008a2.72 2.72 0 0 0 .055-2.42l-.005-.01-.005-.01-.165-.34a20 20 0 0 1-.724-1.768l-.256-.74a2.62 2.62 0 0 0-1.617-1.705l-.16-.053h-.005l-4.155-1.193h-.001l-.14-.052a.94.94 0 0 1-.56-.723c-.364-2.783-.363-5.627.066-8.397v-.004c.046-.306.316-.633.706-.753l4.32-1.224.01-.002.012-.005c.824-.257 1.426-.876 1.718-1.653l.002-.006.003-.007c.326-.913.72-1.803 1.156-2.708a2.61 2.61 0 0 0-.016-2.428l-.007-.012-2.112-3.815-.009-.016-.01-.017-.055-.108c-.108-.26-.078-.577.12-.862a28 28 0 0 1 2.6-3.026c1.082-1.082 2.235-2.04 3.434-2.94a.94.94 0 0 1 1.002-.047l3.908 2.174c.753.43 1.67.412 2.408.068l.01-.005a23 23 0 0 1 2.655-1.081v-.001c.838-.268 1.439-.941 1.685-1.728l.003-.011.003-.011 1.192-4.188a.95.95 0 0 1 .778-.701z" clip-rule="evenodd"/></svg>