<svg xmlns="http://www.w3.org/2000/svg" width="112" height="112" fill="none"><path fill="url(#a)" fill-rule="evenodd" d="M55.998 23.117c18.163 0 32.887 14.724 32.887 32.887S74.162 88.891 56 88.891 23.111 74.167 23.111 56.004s14.724-32.887 32.887-32.887m-2.58 2.382c-15.326 1.28-27.444 13.85-28.01 29.367h16.79A49.7 49.7 0 0 1 53.418 25.5m5.162 0A49.7 49.7 0 0 1 69.8 54.867h16.79C86.021 39.35 73.905 26.78 58.58 25.5m8.943 29.367A47.44 47.44 0 0 0 56 25.966a47.44 47.44 0 0 0-11.524 28.9zm-23.048 2.275h23.048A47.44 47.44 0 0 1 56 86.041a47.44 47.44 0 0 1-11.524-28.9m-2.277 0h-16.79c.566 15.518 12.684 28.089 28.01 29.368a49.7 49.7 0 0 1-11.22-29.368M58.58 86.51A49.7 49.7 0 0 0 69.8 57.14h16.79C86.022 72.66 73.905 85.23 58.58 86.51" clip-rule="evenodd"/><defs><linearGradient id="a" x1="55.998" x2="55.998" y1="23.117" y2="88.891" gradientUnits="userSpaceOnUse"><stop stop-color="#505BFD"/><stop offset="1" stop-color="#B542FD"/></linearGradient></defs></svg>