<svg xmlns="http://www.w3.org/2000/svg" width="113" height="112" fill="none"><path fill="#121212" fill-rule="evenodd" d="M82.664 22.942a7.395 7.395 0 0 1 .923 14.732q.011.069.012.139v36.38a1 1 0 0 1-.011.131 7.396 7.396 0 1 1-8.268 8.205 1 1 0 0 1-.248.061l-.096.006h-36.3a7.396 7.396 0 1 1-8.269-8.27V38.556a7.396 7.396 0 1 1 8.106-9.153h36.463l.096.005q.13.014.248.06a7.397 7.397 0 0 1 7.344-6.527M31.342 76.134a5.528 5.528 0 0 0 0 11.055 5.527 5.527 0 0 0 5.514-5.18.93.93 0 0 1 0-.696 5.526 5.526 0 0 0-5.514-5.18m51.322 0a5.528 5.528 0 1 0 0 11.055 5.528 5.528 0 0 0 0-11.055M75.32 31.207a1 1 0 0 1-.248.062l-.096.004H38.737a7.395 7.395 0 0 1-6.46 7.284v35.768a7.396 7.396 0 0 1 6.4 6.402h36.299l.096.004q.13.015.248.06a7.4 7.4 0 0 1 6.419-6.467 1 1 0 0 1-.01-.13V37.813q0-.07.012-.138a7.396 7.396 0 0 1-6.421-6.467m-43.978-5.512a5.528 5.528 0 1 0 5.496 4.942 1 1 0 0 1-.05-.298q0-.022.003-.043a5.53 5.53 0 0 0-5.45-4.601m51.322-.884a5.528 5.528 0 1 0 .001 11.056 5.528 5.528 0 0 0 0-11.056" clip-rule="evenodd"/></svg>