<svg xmlns="http://www.w3.org/2000/svg" width="85" height="84" fill="none"><path fill="#fff" d="M32.543 27.027a14.77 14.77 0 0 1 15.303 3.15 14.77 14.77 0 0 1 4.002 6.583h1.808a9.44 9.44 0 0 1 6.674 16.112 9.44 9.44 0 0 1-6.674 2.765H37.68a14.763 14.763 0 0 1-5.136-28.61m7.875.487a13.64 13.64 0 1 0-2.74 26.998h15.978a8.314 8.314 0 1 0 0-16.627H51.42a.56.56 0 0 1-.544-.422 13.64 13.64 0 0 0-10.457-9.949"/><path fill="#fff" fill-rule="evenodd" d="M32.54 27.029a14.765 14.765 0 0 1 19.306 9.732h1.808a9.439 9.439 0 0 1 0 18.878H37.677a14.765 14.765 0 0 1-5.136-28.61m7.876.486a13.64 13.64 0 1 0-2.74 26.999h15.978a8.314 8.314 0 0 0 0-16.628h-2.237a.56.56 0 0 1-.544-.421 13.64 13.64 0 0 0-10.457-9.95" clip-rule="evenodd"/></svg>