<svg xmlns="http://www.w3.org/2000/svg" width="113" height="113" fill="none"><path fill="#121212" d="M23.803 26.34c.571 0 1.034.464 1.034 1.035v54.79l.004.16a3.1 3.1 0 0 0 3.098 2.942h62.027l.106.005a1.034 1.034 0 0 1 0 2.058l-.106.005H27.94a5.17 5.17 0 0 1-5.162-4.904l-.008-.265V27.375c0-.571.463-1.034 1.034-1.034"/><path fill="#121212" d="M82.682 41.146q.028 0 .056.002l.029.002.03.004.016.002.068.012.05.013.034.01a1 1 0 0 1 .233.104l.023.015q.03.019.059.041l.014.011a1 1 0 0 1 .078.067l.02.019.02.02a1 1 0 0 1 .06.072l.025.031q.075.102.121.217l.011.03q.063.17.065.349v11.802a1.034 1.034 0 0 1-2.067 0v-9.294L64.724 61.58a1.035 1.035 0 0 1-1.462 0l-9.095-9.096L40.16 66.492A1.034 1.034 0 0 1 38.7 65.03l14.738-14.738.076-.069a1.035 1.035 0 0 1 1.386.069l9.094 9.094 16.173-16.172H70.87a1.034 1.034 0 0 1 0-2.068h11.791z"/></svg>