<svg xmlns="http://www.w3.org/2000/svg" width="112" height="112" fill="none"><path fill="#000" d="M56 16c22.091 0 40 17.909 40 40S78.091 96 56 96 16 78.091 16 56s17.909-40 40-40m0 2c-20.987 0-38 17.013-38 38s17.013 38 38 38 38-17.013 38-38-17.013-38-38-38m9.81 28.06 13.197 32.95-32.951-13.196-13.198-32.952zm-8.373 10.221-.032.032-8.746 8.39 26.753 10.713L64.7 48.671zM47.21 63.318l8.792-8.433 7.317-7.667-26.867-10.761z"/><path fill="url(#a)" d="M56 16c22.091 0 40 17.909 40 40S78.091 96 56 96 16 78.091 16 56s17.909-40 40-40m0 2c-20.987 0-38 17.013-38 38s17.013 38 38 38 38-17.013 38-38-17.013-38-38-38m9.81 28.06 13.197 32.95-32.951-13.196-13.198-32.952zm-8.373 10.221-.032.032-8.746 8.39 26.753 10.713L64.7 48.671zM47.21 63.318l8.792-8.433 7.317-7.667-26.867-10.761z"/><defs><linearGradient id="a" x1="56" x2="56" y1="16" y2="98.308" gradientUnits="userSpaceOnUse"><stop stop-color="#A34DEE"/><stop offset="1" stop-color="#6943F5"/></linearGradient></defs></svg>