<svg xmlns="http://www.w3.org/2000/svg" width="24" height="24" fill="none"><g fill="#121212" clip-path="url(#a)"><path fill-rule="evenodd" d="M19.782 14A9 9 0 0 0 20 12.018C20 7.038 15.97 3 11 3s-9 4.037-9 9.018c0 4.98 4.03 9.017 9 9.017v-1.458c-.264-.36-.614-.892-.966-1.579a13.1 13.1 0 0 1-1.42-5.38h4.773q-.034.721-.135 1.382h1.213q.091-.664.123-1.382h4.19a8 8 0 0 1-.23 1.382zm-10.14 5.717a7.815 7.815 0 0 1-6.42-7.1h4.19c.102 2.498.828 4.511 1.554 5.929.231.451.463.843.675 1.17m-1.029-8.3a13.1 13.1 0 0 1 1.421-5.38c.352-.687.702-1.218.966-1.578.264.36.614.891.966 1.578a13.1 13.1 0 0 1 1.42 5.38zm-1.2 0h-4.19A7.815 7.815 0 0 1 9.64 4.319c-.212.329-.444.72-.675 1.172a14.3 14.3 0 0 0-1.554 5.928m11.364 0h-4.19a14.3 14.3 0 0 0-1.553-5.927 14 14 0 0 0-.675-1.172 7.815 7.815 0 0 1 6.418 7.1" clip-rule="evenodd"/><path d="M11.861 14.628V21h4.158v-.954h-3.024V18.3h2.79v-.972h-2.79V15.6h3.006v-.972zM22.14 21v-6.372h-1.134v4.356h-.055l-3.006-4.356H16.92V21h1.134v-4.338h.055L21.13 21z"/></g><defs><clipPath id="a"><path fill="#fff" d="M0 0h24v24H0z"/></clipPath></defs></svg>