<svg xmlns="http://www.w3.org/2000/svg" width="85" height="85" fill="none"><path fill="#fff" d="M42.598 18.986c10.462 0 19.094 7.828 20.364 17.947 3.79.882 6.613 4.28 6.612 8.337v1.9l-.011.441a8.56 8.56 0 0 1-7.539 8.055 6.47 6.47 0 0 1-6.464 6.2h-5.123a3.23 3.23 0 0 1-1.178 1.923c-.76.6-1.764.877-2.8.877h-3.098c-1.036 0-2.04-.276-2.8-.877-.781-.617-1.252-1.535-1.252-2.673 0-1.135.47-2.065 1.244-2.697.758-.618 1.762-.916 2.81-.916h3.094c1.047 0 2.052.297 2.81.916a3.32 3.32 0 0 1 1.17 1.947h5.124a4.97 4.97 0 0 0 4.962-4.7 2.05 2.05 0 0 1-1.561-1.99V38.76c0-1.133.919-2.052 2.052-2.052q.203 0 .405.01c-1.352-9.182-9.263-16.231-18.821-16.232s-17.472 7.05-18.824 16.232q.2-.01.404-.01c1.133 0 2.052.919 2.052 2.052v14.917a2.05 2.05 0 0 1-2.052 2.051 8.56 8.56 0 0 1-8.56-8.557v-1.9c-.002-4.059 2.822-7.456 6.612-8.338 1.27-10.119 9.905-17.947 20.368-17.947m.764 40.017c-.777 0-1.425.221-1.862.578-.421.344-.691.846-.691 1.535 0 .687.267 1.168.681 1.495.434.343 1.084.555 1.871.555h3.098c.787 0 1.436-.212 1.87-.555.414-.327.683-.808.683-1.495 0-.689-.271-1.191-.693-1.535-.437-.357-1.085-.578-1.862-.578zM24.178 38.208a7.06 7.06 0 0 0-7.06 7.063v1.9a7.06 7.06 0 0 0 7.06 7.057.55.55 0 0 0 .552-.551V38.76a.55.55 0 0 0-.552-.552m36.836 0a.55.55 0 0 0-.552.552v14.917c0 .304.247.551.552.551a7.06 7.06 0 0 0 7.05-6.694l.01-.363v-1.9a7.06 7.06 0 0 0-7.06-7.063"/></svg>