<svg xmlns="http://www.w3.org/2000/svg" width="112" height="112" fill="none"><mask id="d" width="72" height="80" x="21" y="14" maskUnits="userSpaceOnUse" style="mask-type:alpha"><path stroke="#000" stroke-width="2" d="M30.732 39.197h22.842M30.732 51.76h18.273M30.732 64.323h14.847"/><mask id="a" fill="#fff"><path d="M53.173 14.5a2 2 0 0 1 2 2v1.653h4.393a2 2 0 0 1 2 2v6.051a2 2 0 0 1-2 2h-23.41a2 2 0 0 1-2-2v-6.05a2 2 0 0 1 2-2h4.398V16.5a2 2 0 0 1 2-2z"/></mask><path fill="#000" d="M53.173 14.5v-2zm2 3.653h-2v2h2zm4.393 0v-2zm2 2h2zm-2 8.051v2zm-23.41 0v2zm-2-8.05-2-.001zm2-2v-2zm4.398 0v2h2v-2zm0-1.654h-2zm2-2v-2zm10.619 0v2h4a4 4 0 0 0-4-4zm2 2h-2v1.653h4V16.5zm0 1.653v2h4.393v-4h-4.393zm4.393 0v2h4a4 4 0 0 0-4-4zm2 2h-2v6.051h4v-6.05zm0 6.051h-2v4a4 4 0 0 0 4-4zm-2 2v-2h-23.41v4h23.41zm-23.41 0v-2h-4a4 4 0 0 0 4 4zm-2-2h2v-6.05h-4v6.05zm0-6.05h2v-4a4 4 0 0 0-4 3.999zm2-2v2h4.398v-4h-4.398zm4.398 0h2V16.5h-4v1.653zm0-1.654h2v-4a4 4 0 0 0-4 4zm2-2v2h10.619v-4h-10.62z" mask="url(#a)"/><path fill="#000" d="M34.158 22.782H25.89c-1.33 0-2.294 1.026-2.294 2.153v60.219c0 1.126.964 2.153 2.294 2.153h31.655a22 22 0 0 0 1.917 2H25.891l-.22-.006c-2.196-.108-3.957-1.81-4.068-3.934l-.006-.213v-60.22c0-2.221 1.805-4.035 4.073-4.147l.221-.005h8.267zm37.044-1.995c2.269.112 4.073 1.926 4.073 4.148v26.713a22 22 0 0 0-2-.012V24.935c0-1.127-.964-2.153-2.294-2.153h-9.413v-2h9.413z"/><mask id="b" fill="#fff"><path d="M90.413 65.061A18.272 18.272 0 0 1 62.68 87.597l1.225-1.523A16.319 16.319 0 0 0 88.67 65.947z"/></mask><path stroke="#000" stroke-width="6" d="M90.413 65.061A18.272 18.272 0 0 1 62.68 87.597l1.225-1.523A16.319 16.319 0 0 0 88.67 65.947z" mask="url(#b)"/><mask id="c" fill="#fff"><path d="M57.559 81.057a18.274 18.274 0 0 1 28.525-21.523l-1.279 1.478a16.319 16.319 0 0 0-25.474 19.22z"/></mask><path stroke="#000" stroke-width="6" d="M57.559 81.057a18.274 18.274 0 0 1 28.525-21.523l-1.279 1.478a16.319 16.319 0 0 0-25.474 19.22z" mask="url(#c)"/><path stroke="#000" stroke-linejoin="round" stroke-width="2" d="m79.898 61.236 6.554-.701-1.02-6.415M69.945 85.884l-6.553.701L64.412 93"/></mask><g mask="url(#d)"><path fill="url(#e)" d="M103 99H9V11h94z"/></g><defs><linearGradient id="e" x1="56" x2="56" y1="99" y2="8.462" gradientUnits="userSpaceOnUse"><stop stop-color="#A34DEE"/><stop offset="1" stop-color="#6943F5"/></linearGradient></defs></svg>