<svg xmlns="http://www.w3.org/2000/svg" width="112" height="113" fill="none"><path fill="#121212" d="M63.11 51.95a.984.984 0 0 1 0 1.96l-.101.004H48.99a.984.984 0 0 1 0-1.968H63.01z"/><path fill="#121212" fill-rule="evenodd" d="M85.705 28.253c1.56.079 2.8 1.369 2.8 2.948V42.49a2.953 2.953 0 0 1-2.951 2.952h-1.167v36.63a2.953 2.953 0 0 1-2.952 2.952H30.566a2.953 2.953 0 0 1-2.952-2.953V45.44h-1.168a2.953 2.953 0 0 1-2.952-2.951V31.2a2.953 2.953 0 0 1 2.952-2.952h59.108zM29.582 45.44v36.63c0 .543.441.984.984.984h50.869a.985.985 0 0 0 .984-.985V45.44zm-3.136-15.224a.984.984 0 0 0-.984.984V42.49c0 .543.441.983.984.984h59.108c.543 0 .984-.441.984-.984V31.2c0-.51-.388-.929-.885-.979l-.1-.005z" clip-rule="evenodd"/></svg>