<svg xmlns="http://www.w3.org/2000/svg" width="85" height="84" fill="none"><g fill="#121212" clip-path="url(#a)"><path fill-rule="evenodd" d="M42.824 23.918a8.995 8.995 0 0 1 8.762 8.992l-.002.232a8.996 8.996 0 0 1-8.057 8.713v24.476a.695.695 0 0 1-1.39 0V41.893a8.996 8.996 0 0 1-8.537-8.751l-.003-.232a8.996 8.996 0 0 1 8.995-8.995zm-.232 1.387a7.606 7.606 0 0 0 0 15.209 7.605 7.605 0 0 0 0-15.21" clip-rule="evenodd"/><path d="M23.805 17.22a.695.695 0 0 1 1.045.916c-2.065 2.358-3.44 4.467-4.302 6.717-.862 2.248-1.23 4.679-1.23 7.7s.368 5.453 1.23 7.7c.809 2.11 2.067 4.096 3.923 6.279l.38.439.044.056a.695.695 0 0 1-1.04.91l-.05-.05-.393-.455c-1.926-2.264-3.28-4.384-4.161-6.68-.94-2.45-1.323-5.06-1.323-8.199 0-3.138.383-5.748 1.322-8.198s2.42-4.698 4.555-7.135M60.403 17.147a.695.695 0 0 1 .93.014l.05.05.393.455c1.926 2.265 3.281 4.384 4.162 6.68.94 2.451 1.323 5.06 1.323 8.2 0 3.138-.383 5.747-1.323 8.198-.94 2.449-2.419 4.697-4.555 7.135a.695.695 0 0 1-1.045-.916c2.066-2.358 3.44-4.468 4.302-6.717s1.23-4.68 1.23-7.7c0-3.023-.368-5.453-1.23-7.701-.809-2.11-2.066-4.095-3.923-6.278l-.379-.44-.044-.055a.696.696 0 0 1 .109-.925M29.52 23.368a.695.695 0 0 1 1.034.928c-1.225 1.366-2.026 2.574-2.527 3.85-.5 1.274-.718 2.66-.718 4.407 0 1.745.217 3.131.718 4.406.438 1.116 1.106 2.18 2.087 3.344l.44.505.045.056a.695.695 0 0 1-1.03.923l-.05-.05-.238-.27c-1.17-1.344-2.004-2.615-2.548-4-.58-1.48-.814-3.05-.814-4.914 0-1.866.233-3.435.814-4.915.58-1.478 1.491-2.825 2.787-4.27M54.681 23.31a.696.696 0 0 1 .932.002l.05.05.238.27c1.17 1.344 2.004 2.615 2.548 4 .581 1.48.815 3.05.815 4.915s-.234 3.434-.815 4.914c-.58 1.478-1.49 2.825-2.786 4.27a.696.696 0 0 1-1.035-.928c1.225-1.366 2.027-2.574 2.528-3.85.5-1.274.718-2.66.718-4.407 0-1.745-.218-3.131-.718-4.406-.439-1.116-1.107-2.18-2.088-3.344l-.44-.505-.045-.056a.695.695 0 0 1 .098-.926"/></g><defs><clipPath id="a"><path fill="#fff" d="M.594 0h84v84h-84z"/></clipPath></defs></svg>