<svg xmlns="http://www.w3.org/2000/svg" width="113" height="112" fill="none"><path fill="#1A1A1A" d="M56.653 17.999a6.214 6.214 0 0 1 5.73 8.62l16.806 9.703a6.214 6.214 0 1 1 6.037 10.233v19.906a6.214 6.214 0 1 1-6.26 9.973l-16.51 9.532a6.215 6.215 0 1 1-11.634.07L34.19 76.434a6.214 6.214 0 1 1-6.14-10.002V46.584A6.215 6.215 0 0 1 24 37.407a6.214 6.214 0 0 1 9.966-1.085l16.93-9.774a6.213 6.213 0 0 1 5.757-8.549m0 65.974a4.213 4.213 0 1 0 0 8.426 4.213 4.213 0 0 0 0-8.426M35.06 69.986a6.2 6.2 0 0 1 .13 4.715l16.619 9.595a6.2 6.2 0 0 1 3.843-2.242V62.33a6.2 6.2 0 0 1-3.715-2.089zM61.318 60.3a6.2 6.2 0 0 1-3.666 2.031v19.722a6.2 6.2 0 0 1 3.797 2.183l16.516-9.535a6.2 6.2 0 0 1 .13-4.715zm-29.832 8.553a4.213 4.213 0 1 0-4.213 7.298 4.213 4.213 0 0 0 4.213-7.298m55.94 1.541a4.213 4.213 0 1 0-7.298 4.215 4.213 4.213 0 0 0 7.297-4.215M34.188 44.446a6.2 6.2 0 0 1-4.14 2.244v19.634a6.21 6.21 0 0 1 3.916 1.984l16.93-9.774a6.2 6.2 0 0 1-.455-2.336 6.2 6.2 0 0 1 .382-2.15zm28.266 9.534a6.2 6.2 0 0 1-.073 4.625l16.808 9.704a6.2 6.2 0 0 1 4.036-1.996V46.7a6.2 6.2 0 0 1-4.26-2.255zm-5.802-1.995a4.214 4.214 0 1 0 3.457 6.62 1 1 0 0 1 .19-.3c.36-.62.567-1.339.567-2.107a4.214 4.214 0 0 0-4.214-4.213M35.06 38a6.2 6.2 0 0 1 .129 4.714l16.62 9.596a6.2 6.2 0 0 1 3.843-2.243V30.344a6.2 6.2 0 0 1-3.715-2.088zm26.258-9.686a6.2 6.2 0 0 1-3.666 2.03v19.722a6.2 6.2 0 0 1 3.797 2.184l16.517-9.536A6.2 6.2 0 0 1 78.095 38zm-29.832 8.551a4.214 4.214 0 1 0-4.213 7.3 4.214 4.214 0 0 0 4.213-7.3m55.94 1.542a4.214 4.214 0 1 0-7.298 4.215 4.214 4.214 0 0 0 7.297-4.215M56.652 20a4.213 4.213 0 0 0 0 8.427 4.2 4.2 0 0 0 3.457-1.809 1 1 0 0 1 .191-.3c.358-.62.566-1.338.566-2.105a4.214 4.214 0 0 0-4.214-4.213"/><path fill="url(#a)" d="M56.653 17.999a6.214 6.214 0 0 1 5.73 8.62l16.806 9.703a6.214 6.214 0 1 1 6.037 10.233v19.906a6.214 6.214 0 1 1-6.26 9.973l-16.51 9.532a6.215 6.215 0 1 1-11.634.07L34.19 76.434a6.214 6.214 0 1 1-6.14-10.002V46.584A6.215 6.215 0 0 1 24 37.407a6.214 6.214 0 0 1 9.966-1.085l16.93-9.774a6.213 6.213 0 0 1 5.757-8.549m0 65.974a4.213 4.213 0 1 0 0 8.426 4.213 4.213 0 0 0 0-8.426M35.06 69.986a6.2 6.2 0 0 1 .13 4.715l16.619 9.595a6.2 6.2 0 0 1 3.843-2.242V62.33a6.2 6.2 0 0 1-3.715-2.089zM61.318 60.3a6.2 6.2 0 0 1-3.666 2.031v19.722a6.2 6.2 0 0 1 3.797 2.183l16.516-9.535a6.2 6.2 0 0 1 .13-4.715zm-29.832 8.553a4.213 4.213 0 1 0-4.213 7.298 4.213 4.213 0 0 0 4.213-7.298m55.94 1.541a4.213 4.213 0 1 0-7.298 4.215 4.213 4.213 0 0 0 7.297-4.215M34.188 44.446a6.2 6.2 0 0 1-4.14 2.244v19.634a6.21 6.21 0 0 1 3.916 1.984l16.93-9.774a6.2 6.2 0 0 1-.455-2.336 6.2 6.2 0 0 1 .382-2.15zm28.266 9.534a6.2 6.2 0 0 1-.073 4.625l16.808 9.704a6.2 6.2 0 0 1 4.036-1.996V46.7a6.2 6.2 0 0 1-4.26-2.255zm-5.802-1.995a4.214 4.214 0 1 0 3.457 6.62 1 1 0 0 1 .19-.3c.36-.62.567-1.339.567-2.107a4.214 4.214 0 0 0-4.214-4.213M35.06 38a6.2 6.2 0 0 1 .129 4.714l16.62 9.596a6.2 6.2 0 0 1 3.843-2.243V30.344a6.2 6.2 0 0 1-3.715-2.088zm26.258-9.686a6.2 6.2 0 0 1-3.666 2.03v19.722a6.2 6.2 0 0 1 3.797 2.184l16.517-9.536A6.2 6.2 0 0 1 78.095 38zm-29.832 8.551a4.214 4.214 0 1 0-4.213 7.3 4.214 4.214 0 0 0 4.213-7.3m55.94 1.542a4.214 4.214 0 1 0-7.298 4.215 4.214 4.214 0 0 0 7.297-4.215M56.652 20a4.213 4.213 0 0 0 0 8.427 4.2 4.2 0 0 0 3.457-1.809 1 1 0 0 1 .191-.3c.358-.62.566-1.338.566-2.105a4.214 4.214 0 0 0-4.214-4.213"/><defs><linearGradient id="a" x1="56.875" x2="56.875" y1="18.236" y2="51.653" gradientUnits="userSpaceOnUse"><stop stop-color="#A34DEE"/><stop offset="1" stop-color="#6943F5"/></linearGradient></defs></svg>