<svg width="112" height="112" viewBox="0 0 112 112" fill="none" xmlns="http://www.w3.org/2000/svg">
<path d="M58.5391 16.3671C62.4924 15.1442 66.7897 16.5132 69.3057 19.7987L71.1738 22.2392C72.901 24.4944 75.2669 26.1794 77.9629 27.0741C83.6344 28.9567 87.5162 34.194 87.667 40.1679C87.7386 43.0076 88.6623 45.7607 90.3174 48.0693C93.7994 52.9258 93.8618 59.4454 90.4727 64.3671L90.1777 64.8114C88.7545 67.0538 87.9884 69.6553 87.9717 72.3183C87.9339 78.294 84.1516 83.6052 78.5166 85.5946L78.0186 85.7812C75.549 86.7587 73.4001 88.412 71.8213 90.5566L70.0537 92.9569L69.8154 93.2675C67.3004 96.4175 63.1132 97.7446 59.2246 96.5888L58.8369 96.4648C54.9944 95.1498 52.3373 91.6207 52.1357 87.5644L52.124 87.1571L52.0674 80.8066H48.3711L48.0928 80.5751L43.1191 76.4286L38.4541 79.7607C38.502 80.0788 38.5273 80.4048 38.5273 80.7362L38.5186 81.0712C38.3442 84.5029 35.5062 87.2323 32.0312 87.2323L31.6973 87.2235C28.3763 87.0552 25.7137 84.3921 25.5449 81.0712L25.5361 80.7362C25.5363 77.1492 28.4442 74.2413 32.0312 74.2411L32.3662 74.2499C34.7403 74.3704 36.7769 75.7656 37.8076 77.7646L42.585 74.3534L43.2129 73.9042L43.8057 74.3984L49.0967 78.8066H52.0498L51.9355 65.9609H38.5254L38.5186 66.2226C38.3442 69.6543 35.5063 72.3837 32.0312 72.3837L31.6973 72.3749C28.3762 72.2065 25.7136 69.5435 25.5449 66.2226L25.5361 65.8876C25.5363 62.3005 28.4442 59.3927 32.0312 59.3925L32.3662 59.4013C35.1354 59.5418 37.4458 61.4164 38.2354 63.9609H51.917L51.8027 51.1132H47.6719L40.4131 56.4843L39.9082 56.8583L39.3525 56.5653L31.9453 52.664C30.793 54.4772 28.7674 55.6816 26.46 55.6816L26.126 55.6728C22.8051 55.5042 20.1422 52.8413 19.9736 49.5204L19.9648 49.1855C19.965 45.5985 22.8731 42.6908 26.46 42.6903L26.7949 42.6991C30.2267 42.8733 32.9559 45.7105 32.9561 49.1855L32.9473 49.5204C32.9245 49.9689 32.8553 50.4051 32.7461 50.8251L39.7295 54.5028L46.7471 49.3095L47.0117 49.1132H51.7852L51.6709 36.2665H40.0859C39.2647 38.9126 36.7988 40.8347 33.8828 40.8349L33.5488 40.8261C30.2277 40.6577 27.565 37.9949 27.3965 34.6737L27.3877 34.3388C27.3879 30.7517 30.2958 27.8439 33.8828 27.8437L34.2178 27.8525C37.6255 28.0255 40.3392 30.8247 40.377 34.2665H51.6523L51.5781 25.8945C51.5406 21.6662 54.1954 17.8993 58.1523 16.495L58.5391 16.3671ZM67.7178 21.0136C65.7737 18.4753 62.4962 17.3712 59.4268 18.1913L59.1299 18.2763C55.8041 19.3054 53.5472 22.3956 53.5781 25.8769L54.124 87.1386L54.1328 87.4638C54.299 90.8114 56.5598 93.7099 59.7949 94.6718C63.0006 95.6246 66.4606 94.4646 68.4434 91.7714L70.21 89.37L70.5801 88.8886C71.3557 87.9139 72.2388 87.0373 73.208 86.2714C72.5317 85.7982 71.9176 85.2404 71.3828 84.6103L71.085 84.2411C70.4097 83.3611 69.8915 82.3711 69.5527 81.3173L69.4189 80.8612C69.1318 79.7896 69.0317 78.6775 69.1221 77.5741L69.1719 77.1025C69.2413 76.5748 69.3564 76.0555 69.5107 75.5487C68.8862 75.6201 68.255 75.6334 67.627 75.582L67.1553 75.5321C65.8984 75.3666 64.6858 74.955 63.5879 74.3212L64.5879 72.5888C65.4583 73.0913 66.4195 73.4175 67.416 73.5487L67.79 73.5888C68.6648 73.6604 69.5469 73.582 70.3965 73.3544L70.7578 73.248C71.5935 72.9794 72.3783 72.5686 73.0762 72.0331L73.3682 71.7958C74.0374 71.2279 74.6051 70.5487 75.0449 69.787L76.7773 70.787C76.2226 71.7478 75.5072 72.6059 74.6631 73.3222L74.2939 73.6191C73.5588 74.1831 72.7463 74.6358 71.8848 74.9677C71.5126 75.72 71.2651 76.5289 71.1553 77.3632L71.1152 77.7372C71.0436 78.6121 71.1229 79.494 71.3506 80.3437L71.4561 80.705C71.7246 81.5406 72.1355 82.3255 72.6709 83.0234L72.9082 83.3153C73.4761 83.9845 74.1553 84.5523 74.917 84.9921L74.8291 85.1425C75.7795 84.5643 76.7919 84.083 77.8516 83.7089L78.2998 83.539C82.7425 81.772 85.7418 77.5613 85.959 72.7851L85.9717 72.3056C85.9921 69.0641 86.9857 65.903 88.8242 63.2333L89.0889 62.8329C89.9778 61.4275 90.5508 59.8851 90.8105 58.3036H66.0859C66.0169 59.1423 65.8404 59.9694 65.5566 60.7626L65.3857 61.205C64.9612 62.2299 64.3634 63.1737 63.6201 63.9941L63.292 64.3378C62.5076 65.1222 61.5944 65.7648 60.5938 66.2382L60.1602 66.4306C58.9889 66.9157 57.7326 67.1659 56.4648 67.1659V65.1659C57.47 65.1659 58.4659 64.9676 59.3945 64.5829L59.7383 64.4306C60.5317 64.0552 61.2559 63.5457 61.8779 62.9237L62.1377 62.6513C62.7271 62.0009 63.2014 61.253 63.5381 60.4403L63.6729 60.0888C63.8792 59.5118 64.0137 58.9121 64.0771 58.3036H58.3223V56.3036H90.9707C90.966 53.9767 90.2972 51.652 88.9639 49.6298L88.6924 49.2353C86.9215 46.7654 85.8853 43.8491 85.6953 40.8241L85.668 40.2177C85.5423 35.2473 82.4093 30.8704 77.7852 29.1318L77.332 28.9716C76.011 28.5331 74.7604 27.9268 73.6064 27.1757C73.5122 27.7336 73.3707 28.2832 73.1797 28.8173L73.0088 29.2597C72.5843 30.2846 71.9865 31.2284 71.2432 32.0487L70.915 32.3925C70.1306 33.1769 69.2174 33.8195 68.2168 34.2929L67.7832 34.4853C67.4614 34.6186 67.1319 34.7315 66.7988 34.829C67.4867 35.5622 68.0567 36.3974 68.4863 37.3056L68.6787 37.7392C69.1639 38.9106 69.4141 40.1666 69.4141 41.4345H67.4141C67.4141 40.4292 67.2157 39.4335 66.8311 38.5048L66.6787 38.1611C66.3034 37.3676 65.7938 36.6434 65.1719 36.0214L64.8994 35.7616C64.6844 35.5668 64.4577 35.3855 64.2227 35.2167C64.1779 35.2173 64.1327 35.2206 64.0879 35.2206V35.121C63.6502 34.8208 63.1812 34.5654 62.6885 34.3612L62.3369 34.2265C61.5106 33.9309 60.6382 33.7793 59.7588 33.7792V31.7792C60.868 31.7793 61.9685 31.9699 63.0107 32.3427L63.4531 32.5136C63.9124 32.7039 64.3554 32.9301 64.7783 33.1874C65.5467 33.1177 66.3023 32.9339 67.0176 32.6376L67.3613 32.4853C68.1547 32.1099 68.879 31.6004 69.501 30.9784L69.7607 30.706C70.3501 30.0555 70.8245 29.3077 71.1611 28.495L71.2959 28.1435C71.5702 27.3767 71.718 26.5706 71.7383 25.7558C71.1029 25.196 70.5084 24.5868 69.9648 23.9296L69.5859 23.454L67.7178 21.0136ZM32.0312 76.2411C29.5488 76.2413 27.5363 78.2537 27.5361 80.7362C27.5364 83.2187 29.5488 85.2321 32.0312 85.2323C34.5139 85.2323 36.5271 83.2188 36.5273 80.7362C36.5273 80.2171 36.4374 79.7187 36.2754 79.2548L36.0889 78.9931L36.1553 78.9452C35.463 77.3539 33.8773 76.2411 32.0312 76.2411ZM32.0312 61.3925C29.5488 61.3927 27.5363 63.4051 27.5361 65.8876C27.5363 68.3701 29.5488 70.3835 32.0312 70.3837C34.5139 70.3837 36.5271 68.3702 36.5273 65.8876C36.5271 63.405 34.5139 61.3925 32.0312 61.3925ZM71.3027 46.206C72.4121 46.2061 73.5124 46.3966 74.5547 46.7694L74.9971 46.9403C76.0219 47.3649 76.9659 47.9627 77.7861 48.706L78.1299 49.0341C78.9142 49.8185 79.5569 50.7318 80.0303 51.7323L80.2227 52.1659C80.7077 53.3372 80.958 54.5935 80.958 55.8612H78.958C78.958 54.8561 78.7596 53.8602 78.375 52.9316L78.2227 52.5878C77.8474 51.7944 77.3377 51.0701 76.7158 50.4482L76.4434 50.1884C75.793 49.599 75.045 49.1247 74.2324 48.788L73.8809 48.6532C73.0545 48.3576 72.1822 48.2061 71.3027 48.206V46.206ZM26.46 44.6903C23.9776 44.6908 21.965 46.7031 21.9648 49.1855C21.9649 51.6679 23.9776 53.6812 26.46 53.6816C27.9989 53.6816 29.3565 52.9069 30.167 51.7275L28.7812 50.998L29.7129 49.2284L30.9053 49.8564C30.9381 49.6374 30.956 49.4135 30.9561 49.1855C30.9559 46.7028 28.9426 44.6903 26.46 44.6903ZM33.8828 29.8437C31.4003 29.8439 29.3879 31.8563 29.3877 34.3388C29.3877 36.8215 31.4002 38.8347 33.8828 38.8349C35.6756 38.8348 37.2235 37.7849 37.9453 36.2665H36.6699V34.2665H38.377C38.3381 31.8174 36.3412 29.8438 33.8828 29.8437Z" fill="url(#paint0_linear_385_6628)"/>
<defs>
<linearGradient id="paint0_linear_385_6628" x1="56.4686" y1="15.925" x2="56.4686" y2="99.3398" gradientUnits="userSpaceOnUse">
<stop stop-color="#A34DEE"/>
<stop offset="1" stop-color="#6943F5"/>
</linearGradient>
</defs>
</svg>
