<svg xmlns="http://www.w3.org/2000/svg" width="112" height="112" fill="none"><mask id="d" width="89" height="86" x="13" y="13" maskUnits="userSpaceOnUse" style="mask-type:alpha"><path fill="#000" d="m22.316 50.127-.387-.922a1 1 0 0 0-.295 1.654zm14.27 2.808.707-.708zm3.108 13.485-.945-.326a1 1 0 0 0 .238 1.033zm21.113 21.112.707-.707zm0 8.071.707.708zm-8.071 0-.707.708zM31.623 74.49l.707-.707a1 1 0 0 0-1.033-.238zm-13.486-3.106-.707.707zM15.03 57.898l.707-.707a1 1 0 0 0-1.652.381zm6.858 6.858-.707.707a1 1 0 0 0 .826.286zm7.21-.861.118.993a1 1 0 0 0 .878-.91zm.573-6.922.996.082a1 1 0 0 0-.315-.814zM55.047 89.84l-.707-.708zm0 3.46-.707.706zm3.46 0 .707.706zm-.001-3.46.707-.707zm-36.19-39.713.386.922c4.378-1.834 9.616-.968 13.177 2.593l.707-.707.707-.708c-4.155-4.155-10.263-5.16-15.364-3.022zm14.27 2.808-.707.707a12.05 12.05 0 0 1 2.87 12.452l.945.326.946.326c1.695-4.917.581-10.59-3.347-14.518zm3.108 13.485-.707.707L60.1 88.24l.707-.707.707-.708L40.4 65.713zm21.113 21.112-.707.708a4.707 4.707 0 0 1 0 6.656l.707.707.707.708a6.707 6.707 0 0 0 0-9.486zm0 8.071-.707-.707a4.707 4.707 0 0 1-6.657 0l-.707.707-.707.708a6.707 6.707 0 0 0 9.485 0zm-8.071 0 .707-.707L32.33 73.783l-.707.707-.707.707 21.113 21.114zM31.623 74.49l-.326-.945c-4.222 1.455-9.086.498-12.453-2.868l-.707.707-.707.707c3.928 3.928 9.602 5.04 14.519 3.345zm-13.486-3.106.707-.707a12.05 12.05 0 0 1-2.87-12.453l-.945-.326-.945-.326c-1.695 4.917-.582 10.591 3.346 14.519zM15.03 57.898l-.707.707 6.858 6.858.707-.707.707-.707-6.858-6.858zm6.858 6.858.119.993 7.21-.861-.12-.993-.118-.993-7.21.86zm7.21-.861.996.082.573-6.922-.996-.082-.997-.083-.573 6.922zm.573-6.922.681-.732-7.354-6.846-.681.732-.682.732 7.354 6.846zM55.047 89.84l-.707-.708a3.447 3.447 0 0 0 0 4.874l.707-.707.707-.707a1.447 1.447 0 0 1 0-2.045zm0 3.46-.707.706a3.447 3.447 0 0 0 4.874 0l-.707-.707-.707-.707a1.447 1.447 0 0 1-2.046 0zm3.46 0 .707.706a3.446 3.446 0 0 0-.001-4.873l-.707.707-.707.707c.565.565.565 1.48 0 2.045zm-.001-3.46.707-.707a3.446 3.446 0 0 0-4.873 0l.707.707.707.707a1.446 1.446 0 0 1 2.045 0z"/><mask id="a" fill="#fff"><path d="M69.618 32.093a2 2 0 0 1 2 2v3.142a13.4 13.4 0 0 1 3.67 2.293l2.829-1.633a2 2 0 0 1 2.731.733l2.8 4.848a2 2 0 0 1-.731 2.733l-3.164 1.826q.088.76.09 1.544c0 .77-.067 1.525-.192 2.26l3.263 1.883a2 2 0 0 1 .732 2.733l-2.8 4.849a2 2 0 0 1-2.73.732l-3.377-1.95a13.4 13.4 0 0 1-3.121 1.837v3.824a2 2 0 0 1-2 2h-5.6a2 2 0 0 1-2-2v-3.559a13.3 13.3 0 0 1-3.525-1.88l-2.99 1.728a2 2 0 0 1-2.732-.733l-2.8-4.848a2 2 0 0 1 .733-2.733l2.653-1.532a13.4 13.4 0 0 1-.12-4.517l-2.536-1.464a2 2 0 0 1-.731-2.733l2.798-4.848a2 2 0 0 1 2.733-.733l2.426 1.4a13.4 13.4 0 0 1 4.091-2.326v-2.876c0-1.105.896-2 2-2zM66.472 44.44a5.143 5.143 0 1 0 0 10.286 5.143 5.143 0 0 0 0-10.286"/></mask><path fill="#000" d="M69.618 32.093v-2zm2 2h2v-.001zm0 3.142h-2a2 2 0 0 0 1.23 1.846zm3.67 2.293-1.32 1.503a2 2 0 0 0 2.32.23zm2.829-1.633-1-1.732zm2.731.733 1.733-1zm2.8 4.848 1.732-1zm-.731 2.733 1 1.732zm-3.164 1.826-1-1.732a2 2 0 0 0-.987 1.96zm.09 1.544h2zm-.192 2.26-1.971-.336a2 2 0 0 0 .971 2.068zm3.263 1.883-1 1.732zm.732 2.733 1.732 1zm-2.8 4.849-1.731-1zm-2.73.732-1.001 1.732zm-3.377-1.95 1-1.731a2 2 0 0 0-2.238.16zm-3.121 1.837-.77-1.846a2 2 0 0 0-1.23 1.846zm-2 5.824v2zm-5.6 0v2zm-2-5.559h2a2 2 0 0 0-1.334-1.886zm-3.525-1.88 1.195-1.604a2 2 0 0 0-2.196-.127zm-2.99 1.728 1 1.732zm-2.732-.733 1.732-1zm-2.8-4.848-1.732 1zm.733-2.733 1 1.733zm2.653-1.532 1 1.732a2 2 0 0 0 .962-2.12zm-.256-2.611h-2zm.136-1.906 1.98.282a2 2 0 0 0-.98-2.015zm-2.536-1.464-1 1.732zm-.731-2.733 1.732 1zm2.798-4.848-1.732-1zm2.733-.733 1-1.732zm2.426 1.4-1 1.733a2 2 0 0 0 2.279-.195zm4.091-2.326.666 1.886a2 2 0 0 0 1.334-1.886zm0-2.876-2-.001zm2-2v-2zm2.454 12.347v-2zm-5.143 5.143h-2zm5.143 5.142v2zm5.142-5.142h2zm-1.996-17.49v2h2l2-.001a4 4 0 0 0-4-4zm2 2h-2v3.142h4v-3.142zm0 3.142-.77 1.846a11.4 11.4 0 0 1 3.12 1.95l1.32-1.503 1.32-1.503a15.4 15.4 0 0 0-4.22-2.636zm3.67 2.293 1 1.732 2.829-1.633-1-1.732-1-1.732-2.829 1.633zm2.829-1.633 1 1.733 1.731-1 1.732-1a4 4 0 0 0-5.462-1.465zm2.731.733-1.731 1 2.8 4.848 1.731-1 1.732-1-2.8-4.848zm2.8 4.848-1.732 1v.001l1 1.732 1.001 1.731a4 4 0 0 0 1.463-5.464zm-.731 2.733-1-1.733-3.164 1.827 1 1.732 1 1.732 3.164-1.826zm-3.164 1.826-1.987.229q.076.651.077 1.315h4c0-.603-.037-1.195-.103-1.773zm.09 1.544h-2q-.002.984-.163 1.924l1.971.336 1.972.335c.143-.842.22-1.71.22-2.595zm-.192 2.26-1 1.732 3.263 1.883 1-1.732 1-1.732-3.263-1.883zm3.263 1.883-1 1.733 1.732 1 1.733 1a4 4 0 0 0-1.465-5.465zm.732 2.733-1.732-1-2.8 4.848 1.733 1 1.732 1 2.8-4.848zm-2.8 4.849-1.731-1-1 1.732-1 1.732a4 4 0 0 0 5.464-1.464zm-2.73.732 1-1.732-3.377-1.95-1 1.733-1 1.732 3.376 1.949zm-3.377-1.95-1.238-1.57a11.4 11.4 0 0 1-2.653 1.56l.77 1.847.77 1.845a15.4 15.4 0 0 0 3.589-2.11zm-3.121 1.837h-2v3.824h4v-3.824zm0 3.824h-2v4a4 4 0 0 0 4-4zm-2 2v-2h-5.6v4h5.6zm-5.6 0v-2h-4a4 4 0 0 0 4 4zm-2-2h2v-3.559h-4v3.559zm0-3.559.666-1.886a11.3 11.3 0 0 1-2.996-1.598l-1.195 1.604-1.195 1.604a15.3 15.3 0 0 0 4.054 2.162zm-3.525-1.88-1-1.731-2.99 1.727 1 1.732 1 1.732 2.99-1.728zm-2.99 1.728-1-1.732-1.732 1-1.732 1a4 4 0 0 0 5.463 1.464zm-2.732-.733 1.732-1-2.8-4.848-1.732 1-1.731 1 2.8 4.849zm-2.8-4.848 1.733-1-1-1.733-1-1.732a4 4 0 0 0-1.465 5.465zm.733-2.733 1 1.732 2.653-1.532-1-1.732-1-1.732-2.653 1.532zm2.653-1.532 1.962-.388a11.4 11.4 0 0 1-.218-2.223h-4c0 1.026.102 2.03.294 3zm-.256-2.611h2q.001-.826.116-1.624l-1.98-.282-1.98-.283a15.5 15.5 0 0 0-.156 2.189zm.136-1.906 1-1.733-2.536-1.463-1 1.732-1 1.732 2.536 1.464zm-2.536-1.464 1-1.732-1.731-1-1.733-1a4 4 0 0 0 1.464 5.464zm-.731-2.733 1.732 1 2.799-4.849-1.733-1-1.732-1-2.799 4.85zm2.798-4.848 1.732 1h.001l1-1.733 1-1.732a4 4 0 0 0-5.465 1.464zm2.733-.733-1 1.732 2.426 1.4 1-1.731 1-1.732-2.426-1.4zm2.426 1.4 1.279 1.538a11.4 11.4 0 0 1 3.478-1.978l-.666-1.886-.666-1.885a15.4 15.4 0 0 0-4.704 2.674zm4.091-2.326h2v-2.876h-4v2.876zm0-2.876h2v-4a4 4 0 0 0-4 3.999zm2-2v2h5.6v-4h-5.6zm2.454 12.347v-2a7.143 7.143 0 0 0-7.143 7.143h4a3.143 3.143 0 0 1 3.143-3.143zm-5.143 5.143h-2a7.143 7.143 0 0 0 7.142 7.142v-4a3.143 3.143 0 0 1-3.142-3.142zm5.143 5.142v2a7.143 7.143 0 0 0 7.142-7.142h-4a3.143 3.143 0 0 1-3.142 3.142zm5.142-5.142h2a7.143 7.143 0 0 0-7.142-7.143v4a3.143 3.143 0 0 1 3.142 3.143z" mask="url(#a)"/><mask id="b" fill="#fff"><path d="M97.478 34.465a34.18 34.18 0 0 1-31.176 49.682l.051-2.413A31.764 31.764 0 0 0 95.328 35.56z"/></mask><path stroke="#000" stroke-width="6" d="M97.478 34.465a34.18 34.18 0 0 1-31.176 49.682l.051-2.413A31.764 31.764 0 0 0 95.328 35.56z" mask="url(#b)"/><mask id="c" fill="#fff"><path d="M33.814 43.503a34.178 34.178 0 0 1 54.991-18.256l-1.445 1.748A31.91 31.91 0 0 0 36.018 44.04z"/></mask><path stroke="#000" stroke-width="6" d="M33.814 43.503a34.178 34.178 0 0 1 54.991-18.256l-1.445 1.748A31.91 31.91 0 0 0 36.018 44.04z" mask="url(#c)"/><path stroke="#000" stroke-linejoin="round" stroke-width="2" d="m75.993 25.922 12.325.22L87.915 14M74.645 74.18l-8.87 8.56 8.87 8.3"/></mask><g mask="url(#d)"><path fill="url(#e)" d="M103 99H9V11h94z"/></g><defs><linearGradient id="e" x1="56" x2="56" y1="99" y2="8.462" gradientUnits="userSpaceOnUse"><stop stop-color="#A34DEE"/><stop offset="1" stop-color="#6943F5"/></linearGradient></defs></svg>