<svg xmlns="http://www.w3.org/2000/svg" width="112" height="113" fill="none"><path fill="#121212" fill-rule="evenodd" d="M56.48 21.339c6.631 0 12.007 5.376 12.008 12.008v5.633h12.666l.096.005c.472.048.84.447.84.932v42.085a6.555 6.555 0 0 1-6.554 6.555H36.461a6.556 6.556 0 0 1-6.555-6.555V39.917l.005-.096a.937.937 0 0 1 .932-.84h12.666v-5.634c0-6.632 5.376-12.008 12.008-12.008zM31.778 82.002a4.683 4.683 0 0 0 4.682 4.682h39.075a4.68 4.68 0 0 0 4.682-4.682V40.853h-11.73v6.89a.936.936 0 0 1-1.873 0v-6.89H45.38v6.89a.936.936 0 0 1-1.872 0v-6.89h-11.73zm23.738-58.79c-5.598 0-10.135 4.538-10.136 10.135v5.633h21.234v-5.633c0-5.597-4.538-10.135-10.136-10.135z" clip-rule="evenodd"/></svg>