<svg width="112" height="112" viewBox="0 0 112 112" fill="none" xmlns="http://www.w3.org/2000/svg">
<mask id="mask0_388_15929" style="mask-type:alpha" maskUnits="userSpaceOnUse" x="9" y="18" width="94" height="76">
<path d="M19 47.1445C19.6476 47.3734 20.3151 47.5602 21 47.6992V77C21 78.1046 21.8954 79 23 79H78V81H23L22.7939 80.9951C20.7488 80.8913 19.1087 79.2512 19.0049 77.2061L19 77V47.1445ZM91.2061 31.0049C93.3194 31.1121 95 32.86 95 35V50H93V35C93 33.8954 92.1046 33 91 33H39C39 32.3219 38.9544 31.6543 38.8672 31H91L91.2061 31.0049Z" fill="black"/>
<rect x="78" y="51" width="24" height="42" rx="3" stroke="black" stroke-width="2"/>
<path d="M12 85L102 85" stroke="black" stroke-width="2"/>
<circle cx="24" cy="33" r="14" stroke="black" stroke-width="2"/>
<path d="M17.8242 33H30.1772" stroke="black" stroke-width="2"/>
<path d="M24 26.8242L24 39.1772" stroke="black" stroke-width="2"/>
</mask>
<g mask="url(#mask0_388_15929)">
<path d="M112 107L-7.62939e-06 107L1.46257e-06 3L112 3.00001L112 107Z" fill="url(#paint0_linear_388_15929)"/>
</g>
<defs>
<linearGradient id="paint0_linear_388_15929" x1="56" y1="107" x2="56" y2="2.82091e-06" gradientUnits="userSpaceOnUse">
<stop stop-color="#A34DEE"/>
<stop offset="1" stop-color="#6943F5"/>
</linearGradient>
</defs>
</svg>
