<svg width="112" height="112" viewBox="0 0 112 112" fill="none" xmlns="http://www.w3.org/2000/svg">
<mask id="mask0_385_10979" style="mask-type:alpha" maskUnits="userSpaceOnUse" x="13" y="16" width="89" height="84">
<path d="M54.96 37.999C62.1368 37.999 67.9551 43.8173 67.9551 50.9941C67.9551 55.4704 65.6907 59.4168 62.2461 61.7539C64.4276 62.5158 66.4529 63.6105 68.2617 64.9766H64.583C63.6283 64.4546 62.6279 64.0052 61.5869 63.6416C60.8735 63.3924 60.3608 62.7629 60.2627 62.0137C60.1647 61.2643 60.4976 60.523 61.123 60.0986C64.043 58.1175 65.9551 54.779 65.9551 50.9941L65.9404 50.4287C65.6461 44.6192 60.8426 39.999 54.96 39.999C49.0774 39.999 44.2738 44.6192 43.9795 50.4287L43.9648 50.9941C43.9648 54.7789 45.8765 58.1175 48.7959 60.0986C49.4213 60.523 49.7543 61.2643 49.6562 62.0137C49.5581 62.7629 49.0454 63.3924 48.332 63.6416C40.4899 66.3811 34.8691 73.8439 34.8691 82.6143V83.0479H32.8691V82.6143C32.8691 72.9672 39.053 64.765 47.6729 61.7539C44.2286 59.4167 41.9648 55.4701 41.9648 50.9941C41.9649 43.8173 47.7831 37.999 54.96 37.999Z" fill="black"/>
<path d="M79.0625 85.1941V82.2524C79.0625 81.7001 79.5102 81.2524 80.0625 81.2524H84.4C84.9523 81.2524 85.4 81.7001 85.4 82.2524V85.1941M79.0625 85.1941V88.1359C79.0625 88.6882 79.5102 89.1359 80.0625 89.1359H84.4C84.9523 89.1359 85.4 88.6882 85.4 88.1359V85.1941M79.0625 85.1941L63.5192 82.3002M85.4 85.1941L99.5375 83.1529M63.5192 82.3002L63.3241 82.2302C62.5298 81.9449 62 81.1933 62 80.3493C62 78.3317 62 75.9134 62 73.9113C62 71.7025 63.7902 69.9129 65.999 69.9123L73.3798 69.9105M63.5192 82.3002V95C63.5192 97.2091 65.3101 99 67.5192 99H95.5375C97.7466 99 99.5375 97.2091 99.5375 95V83.1529M99.5375 83.1529L99.5549 83.1478C100.411 82.9007 101 82.1172 101 81.2264L101 73.9047C101 71.6952 99.2085 69.9042 96.999 69.9047L90.9609 69.9063M73.3798 69.9105V68C73.3798 65.7909 75.1707 64 77.3798 64H86.9609C89.17 64 90.9609 65.7909 90.9609 68V69.9063M73.3798 69.9105L90.9609 69.9063" stroke="black" stroke-width="2"/>
<path d="M36.8641 16.0117C37.8726 16.1141 38.66 16.9654 38.66 18.001V21.7646C39.9835 22.3169 41.2103 23.0544 42.3094 23.9434L42.7732 24.334L46.1541 22.3828C47.1106 21.8308 48.3343 22.1587 48.8865 23.1152L52.2674 28.9717C52.8195 29.9282 52.4914 31.1518 51.535 31.7041L47.782 33.8701C47.8477 34.4395 47.8826 35.0185 47.8826 35.6055L47.8689 36.249C47.8413 36.8891 47.7726 37.5189 47.6678 38.1357L47.8455 38.2383C47.2074 38.5331 46.596 38.8759 46.0164 39.2627C45.7309 38.8438 45.6075 38.3224 45.6961 37.8008C45.7874 37.2638 45.846 36.7168 45.8699 36.1621L45.8826 35.6055C45.8826 35.098 45.8519 34.5957 45.7947 34.0996C45.7034 33.3075 46.0915 32.5363 46.782 32.1377L50.535 29.9717L47.1541 24.1152H47.1531L43.7723 26.0664C43.0765 26.4677 42.2137 26.4117 41.5779 25.9375L41.4539 25.8369C40.4001 24.9124 39.198 24.1563 37.8895 23.6104C37.1447 23.2995 36.66 22.5716 36.66 21.7646V18.001H29.8982V21.4678C29.8982 22.3155 29.3636 23.0711 28.5643 23.3535C27.103 23.8697 25.7599 24.6399 24.5906 25.6123C23.9468 26.1475 23.0375 26.2251 22.3123 25.8066L19.3836 24.1162H19.3826L16.0018 29.9727L19.0535 31.7344L19.1824 31.8154C19.8076 32.2426 20.1413 32.9918 20.033 33.75C19.968 34.2051 19.9258 34.6674 19.909 35.1357L19.9012 35.6055C19.9012 36.4734 19.9871 37.3215 20.1492 38.1416C20.3151 38.9811 19.9283 39.8327 19.1873 40.2607L15.9988 42.1025L19.3797 47.959H19.3807L22.9441 45.9014L23.075 45.832C23.7421 45.5101 24.538 45.5829 25.1385 46.0303C26.172 46.8004 27.3253 47.4188 28.5643 47.8564C29.3636 48.1388 29.8982 48.8945 29.8982 49.7422V53.9756H36.66V49.4453C36.66 48.6383 37.1447 47.9104 37.8895 47.5996C38.9365 47.1627 39.9137 46.591 40.8016 45.9082C40.4746 46.8123 40.2407 47.7611 40.1131 48.7432C39.6433 49.0018 39.1587 49.2372 38.66 49.4453V53.9756L38.6492 54.1797C38.5538 55.1212 37.8055 55.8693 36.8641 55.9648L36.66 55.9756H29.8982L29.6932 55.9648C28.752 55.8691 28.0034 55.121 27.908 54.1797L27.8982 53.9756V49.7422C26.4685 49.2371 25.1375 48.523 23.9441 47.6338L20.3807 49.6914L20.1981 49.7852C19.3352 50.1727 18.313 49.8981 17.7596 49.1309L17.6482 48.959L14.2674 43.1025C13.7497 42.2058 14.005 41.0754 14.827 40.4824L14.9988 40.3711L18.1873 38.5293C18.0237 37.7019 17.9276 36.8498 17.9061 35.9795L17.9012 35.6055C17.9012 34.8793 17.9537 34.1653 18.0535 33.4668L15.0018 31.7051C14.1052 31.1873 13.7613 30.0798 14.1766 29.1553L14.2703 28.9727L17.6512 23.1162C18.2035 22.1597 19.4271 21.8316 20.3836 22.3838L23.3123 24.0742C24.6612 22.9525 26.2108 22.0638 27.8982 21.4678V18.001C27.8982 16.9656 28.6849 16.1143 29.6932 16.0117L29.8982 16.001H36.66L36.8641 16.0117ZM33.2918 27.8516C37.3949 28.0595 40.658 31.4526 40.658 35.6074L40.6473 36.0068C40.4459 39.9775 37.2626 43.162 33.2918 43.3633L32.8924 43.373C28.7379 43.3728 25.3446 40.1098 25.1365 36.0068L25.1268 35.6074C25.1268 31.3186 28.604 27.8421 32.8924 27.8418L33.2918 27.8516ZM32.8924 29.8418C29.7083 29.842 27.1268 32.4233 27.1268 35.6074L27.1336 35.9043C27.2833 38.8521 29.6477 41.2156 32.5955 41.3652L32.8924 41.373C35.9769 41.3729 38.4955 38.9504 38.6502 35.9043L38.658 35.6074C38.658 32.5228 36.2355 30.0042 33.1893 29.8496L32.8924 29.8418Z" fill="black"/>
</mask>
<g mask="url(#mask0_385_10979)">
<path d="M110.998 103.001L2.99804 103.001L2.99805 15.001L110.998 15.001L110.998 103.001Z" fill="url(#paint0_linear_385_10979)"/>
</g>
<defs>
<linearGradient id="paint0_linear_385_10979" x1="56.998" y1="103.001" x2="56.998" y2="12.4625" gradientUnits="userSpaceOnUse">
<stop stop-color="#A34DEE"/>
<stop offset="1" stop-color="#6943F5"/>
</linearGradient>
</defs>
</svg>
