<svg xmlns="http://www.w3.org/2000/svg" width="113" height="113" fill="none"><path fill="#fff" fill-rule="evenodd" d="M46.568 31.385c7.74 0 14.018 6.262 14.018 13.992 0 5.613-3.312 10.451-8.089 12.68 10.117 2.622 17.587 11.798 17.587 22.72a1 1 0 0 1-2 0c0-11.514-9.077-20.91-20.484-21.447a14 14 0 0 1-2.064.001c-11.406.538-20.481 9.933-20.481 21.445a1 1 0 0 1-2 0c0-10.92 7.468-20.096 17.584-22.718-4.777-2.23-8.088-7.068-8.088-12.681 0-7.73 6.278-13.992 14.017-13.992m0 2c-6.639 0-12.017 5.37-12.017 11.992 0 6.287 4.85 11.445 11.022 11.95a24 24 0 0 1 1.99 0c6.173-.504 11.023-5.663 11.023-11.95 0-6.621-5.379-11.992-12.018-11.992" clip-rule="evenodd"/><path fill="#fff" d="M65.531 31.224c7.72 0 14.018 6.247 14.018 13.992 0 4.68-2.304 8.774-5.821 11.299 9.256 3.523 15.867 13.004 15.867 24.132a1 1 0 1 1-2 0c0-11.124-7.094-20.343-16.511-22.892a1 1 0 0 1-.185-1.86c3.944-1.967 6.65-5.985 6.65-10.68 0-6.633-5.396-11.991-12.018-11.991a1 1 0 0 1 0-2"/></svg>