<svg xmlns="http://www.w3.org/2000/svg" width="112" height="112" fill="none"><path fill="url(#a)" d="M54.826 39.815c.627 0 1.136.509 1.136 1.136v3.755c4.121.06 7.432 3.332 7.432 7.428a1.137 1.137 0 0 1-2.273 0c-.001-2.841-2.318-5.156-5.27-5.158h-.607a1.13 1.13 0 0 1-.84 0h-1.437c-2.468 0-4.436 1.945-4.436 4.325 0 2.378 1.968 4.32 4.436 4.32h3.906c3.596.002 6.561 2.837 6.562 6.447-.001 3.611-2.966 6.446-6.562 6.447h-.91v3.825c0 .627-.51 1.14-1.137 1.14a1.14 1.14 0 0 1-1.137-1.14v-3.825h-.533c-3.783-.001-6.898-2.984-6.899-6.75a1.137 1.137 0 1 1 2.274 0c0 2.45 2.04 4.472 4.625 4.473h3.717c2.393-.001 4.284-1.867 4.284-4.17s-1.891-4.172-4.284-4.173h-3.906c-3.673 0-6.709-2.909-6.71-6.594 0-3.687 3.037-6.598 6.71-6.599h.722v-3.75c0-.629.509-1.137 1.137-1.137"/><path fill="url(#b)" fill-rule="evenodd" d="M85.607 18.42a1.14 1.14 0 0 1 1.43-.148l.177.148 7.09 7.09a1.14 1.14 0 0 1 0 1.608l-7.09 7.09a1.137 1.137 0 0 1-1.607-1.607l5.154-5.154h-24.12C78.311 32.124 86.558 43.53 86.56 56.87c0 17.506-14.194 31.7-31.7 31.7-.428 0-.854-.017-1.278-.034-.015.004-.029.012-.044.015l-.23.022H18.175l5.147 5.147.145.178a1.137 1.137 0 0 1-1.574 1.573l-.178-.144-7.09-7.091a1.14 1.14 0 0 1 0-1.607l7.09-7.09.178-.149a1.136 1.136 0 0 1 1.574 1.577l-.145.178-5.154 5.154h24.916c-11.673-4.676-19.921-16.086-19.921-29.43.001-17.504 14.19-31.694 31.696-31.695.212 0 .422.01.633.014q.081-.012.167-.014h35.095l-5.147-5.147-.148-.178c-.291-.441-.24-1.04.148-1.43m-30.748 9.027c-16.249.001-29.421 13.174-29.423 29.423 0 16.25 13.174 29.425 29.423 29.426 16.25 0 29.426-13.176 29.426-29.426-.001-16.25-13.177-29.423-29.426-29.423" clip-rule="evenodd"/><defs><linearGradient id="a" x1="54.464" x2="54.464" y1="18.086" y2="95.659" gradientUnits="userSpaceOnUse"><stop stop-color="#505BFD"/><stop offset="1" stop-color="#B542FD"/></linearGradient><linearGradient id="b" x1="54.464" x2="54.464" y1="18.086" y2="95.659" gradientUnits="userSpaceOnUse"><stop stop-color="#505BFD"/><stop offset="1" stop-color="#B542FD"/></linearGradient></defs></svg>