<svg width="112" height="112" viewBox="0 0 112 112" fill="none" xmlns="http://www.w3.org/2000/svg">
<path d="M20.3584 94.0029H44.5791V75.8828C44.5791 69.2964 49.9185 63.957 56.5049 63.957C63.0912 63.9571 68.4307 69.2965 68.4307 75.8828V94.0029H91.5615V52.3926H93.5615V96.0029H18.3584V52.3926H20.3584V94.0029ZM56.5049 65.957C51.023 65.957 46.5791 70.401 46.5791 75.8828V94.0029H66.4307V75.8828C66.4307 70.401 61.9866 65.9571 56.5049 65.957ZM70.166 46.8359H43.3975V44.8359H70.166V46.8359ZM56.4912 16.5811L101.833 44.9883L101.302 45.8359L100.771 46.6836L55.96 18.6084L11.1494 46.6836L10.0869 44.9883L55.4287 16.5811L55.96 16.249L56.4912 16.5811Z" fill="url(#paint0_linear_385_6810)"/>
<defs>
<linearGradient id="paint0_linear_385_6810" x1="55.96" y1="16.249" x2="55.96" y2="98.3035" gradientUnits="userSpaceOnUse">
<stop stop-color="#A34DEE"/>
<stop offset="1" stop-color="#6943F5"/>
</linearGradient>
</defs>
</svg>
