<svg xmlns="http://www.w3.org/2000/svg" width="85" height="85" fill="none"><path fill="#000" fill-rule="evenodd" d="M34.99 23.748c5.806 0 10.514 4.697 10.514 10.494 0 4.21-2.484 7.839-6.067 9.51 7.588 1.967 13.19 8.848 13.19 17.04a.75.75 0 0 1-1.5 0c0-8.635-6.808-15.683-15.363-16.085a11 11 0 0 1-1.547 0c-8.555.404-15.361 7.45-15.361 16.084a.75.75 0 0 1-1.5 0c0-8.19 5.6-15.071 13.188-17.039-3.583-1.672-6.067-5.3-6.067-9.51 0-5.797 4.709-10.494 10.514-10.494m0 1.5c-4.978 0-9.012 4.028-9.013 8.994 0 4.715 3.638 8.584 8.267 8.963a18 18 0 0 1 1.492 0c4.63-.379 8.268-4.247 8.268-8.963 0-4.966-4.034-8.994-9.013-8.994" clip-rule="evenodd"/><path fill="#000" d="M49.213 23.627c5.79 0 10.513 4.685 10.513 10.494 0 3.51-1.728 6.58-4.366 8.474 6.943 2.643 11.9 9.754 11.9 18.1a.75.75 0 0 1-1.5 0c0-8.343-5.32-15.258-12.383-17.17a.75.75 0 0 1-.138-1.394c2.958-1.476 4.987-4.49 4.987-8.01 0-4.975-4.047-8.994-9.013-8.994a.75.75 0 0 1 0-1.5"/></svg>