<svg xmlns="http://www.w3.org/2000/svg" width="113" height="113" fill="none"><path fill="#fff" d="M73.826 43.04a.926.926 0 0 0-1.238-.062l-.07.063-11.633 11.632-10.424-6.932a.93.93 0 0 0-.948-.045l-.122.078-9.706 7.351a.926.926 0 0 0 1.117 1.476l9.181-6.955 10.509 6.987a.925.925 0 0 0 1.166-.116l12.168-12.168.063-.07a.925.925 0 0 0-.063-1.238"/><path fill="#fff" fill-rule="evenodd" d="M31.416 27.458a7.25 7.25 0 0 0-7.248 7.248v31.616a7.25 7.25 0 0 0 7.248 7.248h24.367v10.795H44.06a.926.926 0 0 0 0 1.85h12.63l.017.001h12.645l.095-.005a.925.925 0 0 0 0-1.841l-.095-.005h-11.72V73.57h24.368a7.25 7.25 0 0 0 7.248-7.248V34.706a7.25 7.25 0 0 0-7.248-7.248zm50.585 1.85a5.4 5.4 0 0 1 5.398 5.398v31.616A5.4 5.4 0 0 1 82 71.719H31.416a5.4 5.4 0 0 1-5.398-5.397V34.706a5.4 5.4 0 0 1 5.398-5.398z" clip-rule="evenodd"/></svg>