<svg width="112" height="112" viewBox="0 0 112 112" fill="none" xmlns="http://www.w3.org/2000/svg">
<path d="M27.8985 29.9472C35.7119 22.1724 48.2624 22.1333 56.0772 29.9481L59.4258 33.2968L61.3379 31.3515L61.3399 31.3495L61.6485 31.0468C68.1967 24.7879 78.5859 24.9275 85.045 31.3485C91.6086 37.8738 91.6066 48.49 85.045 55.0526L85.0459 55.0536L80.42 59.7167C80.3932 59.7437 80.3618 59.7635 80.3291 59.7782L81.0576 60.4696L81.2383 60.6474C83.041 62.5217 83.0569 65.4993 81.2207 67.4149L81.2217 67.4159L63.8936 85.6522L63.8946 85.6532C62.0843 87.581 59.0883 87.706 57.1065 85.9608C57.0626 85.9477 57.0204 85.9258 56.9854 85.8925L48.4551 77.7792L48.2578 77.5819C46.2867 75.5016 46.5098 72.1489 48.7784 70.3495V70.3485L68.7227 54.5761L68.9063 54.4364C70.8283 53.0524 73.4606 53.2136 75.1475 54.8612H75.1465L79.9278 59.3974C79.9422 59.3602 79.9643 59.325 79.9942 59.2948L84.6201 54.6308L84.6211 54.6298L84.9131 54.3309C90.9485 47.9825 90.8497 37.9663 84.6211 31.7743C78.2917 25.4823 68.0552 25.4455 61.7657 31.7704L61.7666 31.7714L59.8496 33.7206L59.877 33.7479L62.7207 36.8192L67.9444 42.0429L68.1241 42.2323C69.9176 44.2211 69.8576 47.3415 67.9444 49.2548C66.0309 51.1679 62.9106 51.2274 60.9219 49.4335L60.7334 49.2548L55.5049 44.0263L52.4717 41.1063C52.4652 41.1 52.46 41.0925 52.4541 41.0858L31.2051 62.5243L31.2041 62.5253L30.4082 63.3222L28.0948 65.6347C27.315 66.4145 26.6874 67.4891 26.4961 68.5741C26.3077 69.6435 26.5416 70.7148 27.4678 71.5614L48.1543 86.4882L48.1651 86.496H48.1641C49.8023 87.7856 52.0559 87.4581 53.5625 85.9559L54.0528 85.4286L54.0987 85.3876C54.2122 85.3065 54.3714 85.3134 54.4776 85.412C54.599 85.5247 54.6059 85.7154 54.4932 85.8368L54 86.3671L53.9922 86.3759L53.9912 86.3749C52.3159 88.0499 49.7266 88.4805 47.8037 86.9755L27.1006 72.036L27.0752 72.0145C25.9625 71.0048 25.6869 69.7101 25.9053 68.4706C26.1216 67.243 26.8205 66.0613 27.6709 65.2108L29.9834 62.8974L30.7803 62.1015L31.4034 61.4716C31.3159 61.4812 31.2252 61.4545 31.1582 61.3876L27.8975 58.1268C20.0837 50.3129 20.0833 37.7238 27.8985 29.9472ZM74.7276 55.2909C73.2557 53.8534 70.9496 53.7045 69.2569 54.9237L69.0948 55.0458L49.1504 70.8183L49.1514 70.8192C47.1593 72.3993 46.9635 75.3438 48.6934 77.1698L48.8672 77.3427L48.8682 77.3436L57.25 85.3153C57.2909 85.329 57.3295 85.3512 57.3623 85.3827C59.1005 87.0499 61.828 86.9771 63.4571 85.2421L63.459 85.2411L80.7871 67.0028L80.7881 67.0018L80.9385 66.8358C82.4483 65.0941 82.3282 62.4853 80.6475 60.9071L80.6455 60.9052L74.7315 55.2938L74.7276 55.2909ZM55.6524 30.372C48.0731 22.7929 35.902 22.8297 28.3213 30.3729C20.7426 37.9146 20.7422 50.1229 28.3223 57.703L31.583 60.9638C31.6491 61.0301 31.6758 61.1195 31.667 61.2059L52.2022 40.4901C52.3188 40.3725 52.5083 40.3716 52.626 40.4882C52.6566 40.5185 52.6786 40.554 52.6934 40.5917C52.7635 40.5947 52.8331 40.6213 52.8877 40.6737L55.9209 43.5936L61.1573 48.83L61.3242 48.9882C63.0775 50.5691 65.8342 50.5163 67.5205 48.83C69.2067 47.1436 69.2596 44.3869 67.6787 42.6337L67.5205 42.4677L62.2881 37.2352L62.2803 37.2265L59.4444 34.164L55.6524 30.372Z" fill="url(#paint0_linear_577_14915)"/>
<path fill-rule="evenodd" clip-rule="evenodd" d="M27.3061 29.3462C35.4445 21.249 48.5259 21.2065 56.6693 29.3499L59.4205 32.1011L60.7387 30.7606L60.7424 30.7532L61.3978 30.1275C68.2918 23.8658 78.9624 24.1197 85.6326 30.7495C92.5256 37.6019 92.5203 48.7432 85.6364 55.6323L85.6401 55.636L81.541 59.7647L81.6373 59.8572C83.9551 62.0367 84.0377 65.6743 81.8262 67.9849L81.8299 67.9886L64.5008 86.2175L64.5045 86.2212C62.4142 88.4465 58.9823 88.6148 56.6656 86.6729C56.6335 86.656 56.6 86.6412 56.5694 86.6211L56.4101 86.4952L55.403 85.5361C55.4271 85.8419 55.3313 86.1561 55.1068 86.3989L54.6143 86.9321L54.5847 86.9617C52.6668 88.8795 49.5957 89.4472 47.2753 87.6208L26.61 72.7097L26.5137 72.6282C25.1522 71.3927 24.8214 69.79 25.0808 68.3181C25.3326 66.8925 26.1317 65.5602 27.0803 64.6116L30.1388 61.5494L27.3061 58.7131C19.166 50.5729 19.1611 37.4511 27.3061 29.3462ZM84.0293 32.3639C78.0229 26.394 68.3154 26.3633 62.3568 32.3565L61.0053 33.7266L63.3048 36.2112L68.5368 41.4469L68.9404 41.895C70.8285 44.2165 70.6942 47.6829 68.5368 49.8412C66.3786 51.9992 62.9124 52.1331 60.5906 50.2448L60.1426 49.8412L54.9253 44.6239L52.4667 42.2541L31.8013 63.1083L28.6873 66.2223C28.0065 66.9034 27.4774 67.8285 27.321 68.7143C27.1752 69.5419 27.3505 70.2969 28.0097 70.9138L48.6454 85.8027L48.6824 85.8324L48.9231 86.0027C50.1451 86.7809 51.7798 86.5416 52.9665 85.3621L53.4405 84.8511C53.6728 84.6021 53.991 84.4864 54.307 84.4957L47.8789 78.3786C45.327 75.9677 45.5181 71.8614 48.2566 69.6882L48.2603 69.6845L68.2036 53.9142L68.6368 53.5995C70.8521 52.1534 73.7973 52.3774 75.7202 54.2438L79.8896 58.1984L84.0219 54.0364L84.0256 54.0327L84.5736 53.4588C90.0243 47.4266 89.8381 38.1393 84.0293 32.3639ZM74.1429 55.8841C72.9337 54.7032 70.9982 54.6008 69.6143 55.6953L49.6711 71.4692C48.1173 72.7017 47.9209 74.9642 49.1712 76.4421L49.4415 76.7272L49.4452 76.7309L57.7432 84.6216C57.8134 84.6641 57.8818 84.7146 57.9431 84.7734C59.3474 86.1194 61.5381 86.0547 62.8456 84.6623L62.853 84.6586L80.1784 66.4186L80.1821 66.4149L80.4191 66.1446C81.5163 64.742 81.3799 62.7384 80.0747 61.5124L80.071 61.5087L74.154 55.8952L74.1429 55.8841ZM55.0586 30.9569C47.8086 23.7088 36.1685 23.7424 28.9132 30.9606C21.6641 38.174 21.6593 49.8521 28.9132 57.1061L31.7421 59.9313L51.6076 39.8954L51.7854 39.7473C52.2197 39.4587 52.8096 39.5006 53.1998 39.8732C53.2296 39.8885 53.2601 39.9032 53.2887 39.9214L53.4701 40.0658L56.5027 42.9836L61.7496 48.2304L62.0273 48.4822C63.4556 49.6404 65.605 49.5552 66.9298 48.2304C68.2529 46.9048 68.3372 44.7553 67.1779 43.3279L66.9298 43.0539L61.6644 37.7923L58.8207 34.7189L55.0586 30.9569Z" fill="url(#paint1_linear_577_14915)"/>
<defs>
<linearGradient id="paint0_linear_577_14915" x1="56.002" y1="24.1016" x2="56.002" y2="87.8987" gradientUnits="userSpaceOnUse">
<stop stop-color="#505BFD"/>
<stop offset="1" stop-color="#B542FD"/>
</linearGradient>
<linearGradient id="paint1_linear_577_14915" x1="56" y1="23.2578" x2="56" y2="88.7325" gradientUnits="userSpaceOnUse">
<stop stop-color="#505BFD"/>
<stop offset="1" stop-color="#B542FD"/>
</linearGradient>
</defs>
</svg>
