<svg xmlns="http://www.w3.org/2000/svg" width="112" height="112" fill="none"><path fill="url(#a)" fill-rule="evenodd" d="M24.362 23.94a.3.3 0 0 0-.424.424l19.254 19.255-13.716 16.46a.3.3 0 0 0 .23.492h24.666l-2.736 21.89a.3.3 0 0 0 .528.228l13.681-16.417 19.217 19.216a.3.3 0 0 0 .424-.424L66.04 65.617l-.005-.004-22.222-22.222-.005-.005zm19.256 20.105L30.347 59.97h24.365a.3.3 0 0 1 .297.337l-2.651 21.211 13.061-15.673zm13.992-17.39a.3.3 0 0 1 .179.312l-1.64 13.197a.3.3 0 0 1-.595-.074l1.513-12.182-6.097 7.327a.3.3 0 1 1-.461-.384l6.751-8.113a.3.3 0 0 1 .35-.083m7.271 22.202a.3.3 0 0 0 0 .6h14.195l-6.34 7.593a.3.3 0 0 0 .46.384l6.752-8.085a.3.3 0 0 0-.23-.492z" clip-rule="evenodd"/><path fill="url(#b)" fill-rule="evenodd" d="M24.954 23.341a1.138 1.138 0 0 0-1.61 1.609L42.06 43.664 28.832 59.536a1.138 1.138 0 0 0 .874 1.866h23.717L50.804 82.35a1.137 1.137 0 0 0 2.003.87L65.9 67.505 84.47 86.074a1.137 1.137 0 0 0 1.609-1.609L66.639 65.027l-.018-.019L44.412 42.8l-.018-.019zm18.72 21.938-11.54 13.848h22.577a1.137 1.137 0 0 1 1.13 1.278l-2.298 18.377 10.743-12.891z" clip-rule="evenodd"/><path fill="url(#c)" d="M57.943 25.88c.463.2.739.683.676 1.184L56.98 40.26a1.138 1.138 0 0 1-2.258-.28l1.162-9.348-4.27 5.131a1.138 1.138 0 0 1-1.75-1.455l6.752-8.113a1.14 1.14 0 0 1 1.327-.316"/><path fill="url(#d)" d="M64.88 48.013a1.138 1.138 0 0 0 0 2.275h12.405l-5.192 6.219a1.137 1.137 0 1 0 1.746 1.458l6.751-8.085a1.138 1.138 0 0 0-.873-1.867z"/><defs><linearGradient id="a" x1="54.712" x2="54.712" y1="23.852" y2="85.576" gradientUnits="userSpaceOnUse"><stop stop-color="#505BFD"/><stop offset="1" stop-color="#B542FD"/></linearGradient><linearGradient id="b" x1="54.711" x2="54.711" y1="23.008" y2="86.407" gradientUnits="userSpaceOnUse"><stop stop-color="#505BFD"/><stop offset="1" stop-color="#B542FD"/></linearGradient><linearGradient id="c" x1="54.711" x2="54.711" y1="23.008" y2="86.407" gradientUnits="userSpaceOnUse"><stop stop-color="#505BFD"/><stop offset="1" stop-color="#B542FD"/></linearGradient><linearGradient id="d" x1="54.711" x2="54.711" y1="23.008" y2="86.407" gradientUnits="userSpaceOnUse"><stop stop-color="#505BFD"/><stop offset="1" stop-color="#B542FD"/></linearGradient></defs></svg>