<svg xmlns="http://www.w3.org/2000/svg" width="112" height="112" fill="none"><mask id="a" width="89" height="84" x="13" y="16" maskUnits="userSpaceOnUse" style="mask-type:alpha"><path fill="#000" d="M54.96 37.999c7.177 0 12.995 5.818 12.995 12.995a12.98 12.98 0 0 1-5.709 10.76 22 22 0 0 1 6.016 3.223h-3.679a20 20 0 0 0-2.996-1.335 2 2 0 0 1-.464-3.543 10.98 10.98 0 0 0 4.832-9.105l-.015-.565c-.294-5.81-5.097-10.43-10.98-10.43s-10.686 4.62-10.98 10.43l-.015.565a10.98 10.98 0 0 0 4.83 9.105 2.001 2.001 0 0 1-.463 3.543c-7.842 2.74-13.463 10.202-13.463 18.972v.434h-2v-.434c0-9.647 6.184-17.849 14.804-20.86a12.98 12.98 0 0 1-5.708-10.76C41.965 43.817 47.783 38 54.96 38"/><path stroke="#000" stroke-width="2" d="M79.063 85.194v-2.942a1 1 0 0 1 1-1H84.4a1 1 0 0 1 1 1v2.942m-6.338 0v2.942a1 1 0 0 0 1 1H84.4a1 1 0 0 0 1-1v-2.942m-6.338 0L63.52 82.3M85.4 85.194l14.137-2.041M63.52 82.3l-.195-.07A2 2 0 0 1 62 80.35V73.91a4 4 0 0 1 3.999-3.999l7.38-.002M63.52 82.3V95a4 4 0 0 0 4 4h28.018a4 4 0 0 0 4-4V83.153m0 0 .018-.005A2 2 0 0 0 101 81.226v-7.321a4 4 0 0 0-4.001-4l-6.038.001m-17.581.004V68a4 4 0 0 1 4-4h9.58a4 4 0 0 1 4 4v1.906m-17.58.004 17.58-.004"/><path fill="#000" d="M36.864 16.012A2 2 0 0 1 38.66 18v3.764c1.324.552 2.55 1.29 3.65 2.178l.463.391 3.381-1.951a2 2 0 0 1 2.732.732l3.381 5.857a2 2 0 0 1-.732 2.732l-3.753 2.166q.1.855.1 1.736l-.013.643a15 15 0 0 1-.201 1.887l.178.102q-.96.444-1.83 1.025a2 2 0 0 1-.32-1.462q.137-.806.174-1.639l.013-.556q-.001-.762-.088-1.506a2 2 0 0 1 .987-1.962l3.753-2.166-3.38-5.857h-.002l-3.38 1.951a2 2 0 0 1-2.195-.128l-.124-.101a13 13 0 0 0-3.565-2.227 2 2 0 0 1-1.229-1.845V18h-6.762v3.467a2 2 0 0 1-1.334 1.886 13 13 0 0 0-3.973 2.258 2 2 0 0 1-2.279.195l-2.928-1.69h-.001l-3.381 5.856 3.052 1.761.128.081a2 2 0 0 1 .851 1.935q-.098.683-.124 1.386l-.008.47c0 .867.086 1.715.248 2.536a2 2 0 0 1-.962 2.119L16 42.102l3.38 5.857h.002l3.563-2.058.131-.069a2 2 0 0 1 2.064.198 13 13 0 0 0 3.425 1.826 2 2 0 0 1 1.334 1.886v4.234h6.762v-4.53a2 2 0 0 1 1.23-1.846 13 13 0 0 0 2.912-1.692 13.4 13.4 0 0 0-.689 2.835q-.705.39-1.453.702v4.53l-.01.205a2 2 0 0 1-1.786 1.785l-.204.01h-6.762l-.205-.01a2 2 0 0 1-1.785-1.785l-.01-.204v-4.234a15 15 0 0 1-3.954-2.108l-3.563 2.057-.183.094a2 2 0 0 1-2.438-.654l-.112-.172-3.38-5.857a2 2 0 0 1 .559-2.62l.172-.11 3.188-1.843c-.163-.827-.26-1.68-.28-2.55l-.006-.373q.002-1.09.152-2.14l-3.051-1.76a2 2 0 0 1-.825-2.55l.093-.183 3.381-5.857a2 2 0 0 1 2.733-.732l2.928 1.69a15 15 0 0 1 4.586-2.606V18a2 2 0 0 1 1.795-1.99l.205-.01h6.762zm-3.572 11.84a7.766 7.766 0 0 1 7.366 7.755l-.01.4a7.767 7.767 0 0 1-7.356 7.356l-.4.01a7.767 7.767 0 0 1-7.756-7.366l-.01-.4a7.766 7.766 0 0 1 7.766-7.765zm-.4 1.99a5.766 5.766 0 0 0-5.765 5.765l.007.297a5.767 5.767 0 0 0 5.462 5.461l.296.008a5.766 5.766 0 0 0 5.758-5.469l.008-.297a5.766 5.766 0 0 0-5.469-5.757z"/></mask><g mask="url(#a)"><path fill="url(#b)" d="M110.998 103.001h-108v-88h108z"/></g><defs><linearGradient id="b" x1="56.998" x2="56.998" y1="103.001" y2="12.463" gradientUnits="userSpaceOnUse"><stop stop-color="#A34DEE"/><stop offset="1" stop-color="#6943F5"/></linearGradient></defs></svg>