<svg xmlns="http://www.w3.org/2000/svg" width="112" height="113" fill="none"><path fill="#121212" fill-rule="evenodd" d="M57.544 23.733a2.86 2.86 0 0 0-2.851-.003L27.07 39.568a2.86 2.86 0 0 0-1.437 2.48V73.37c0 1.021.545 1.965 1.43 2.475l27.516 15.887.169.09a2.86 2.86 0 0 0 2.69-.09l27.5-15.887a2.86 2.86 0 0 0 1.43-2.475l-.002-31.346a2.86 2.86 0 0 0-1.267-2.375l-.162-.1zM84.462 73.37c0 .34-.181.655-.476.825L56.952 89.812V58.346l27.51-15.913zM55.046 58.346v31.455L28.015 74.195a.95.95 0 0 1-.476-.825V42.434zm13.776-9.068-12.823 7.418-27.363-15.829 12.852-7.37zM55.64 25.382a.95.95 0 0 1 .95.002l26.796 15.47-12.66 7.323L43.4 32.4z" clip-rule="evenodd"/></svg>