<svg width="112" height="112" viewBox="0 0 112 112" fill="none" xmlns="http://www.w3.org/2000/svg">
<path d="M56.1895 47.0049C57.8713 47.0903 59.2203 48.4383 59.3057 50.1201L59.3096 50.29C59.3093 51.7568 58.3486 52.9978 57.0225 53.4219V63.8574H74.7051C75.245 62.779 76.3574 62.0371 77.6455 62.0371L77.8145 62.042C79.4963 62.1274 80.8453 63.4754 80.9307 65.1572L80.9346 65.3271C80.9343 67.1435 79.4619 68.6159 77.6455 68.6162L77.4756 68.6123C75.9161 68.5332 74.6434 67.3675 74.3984 65.8574H57.0225V89.5H55.0225V77.3027L44.208 61.0322H40.6475C40.1335 62.1785 38.9831 62.9773 37.6455 62.9775L37.4756 62.9736C35.7378 62.8854 34.3557 61.4482 34.3555 59.6885L34.3604 59.5186C34.4486 57.7806 35.8856 56.3984 37.6455 56.3984L37.8145 56.4033C39.3304 56.4803 40.5728 57.5837 40.8662 59.0322H45.2803L45.5771 59.4785L55.0225 73.6904V53.4238C53.6937 53.0012 52.7307 51.7586 52.7305 50.29L52.7354 50.1201C52.8236 48.3822 54.2606 47 56.0205 47L56.1895 47.0049ZM55.5967 22C66.0727 22.0002 74.5653 30.4927 74.5654 40.9688V40.9697H77.2236C87.698 40.972 96.1885 49.4636 96.1885 59.9385C96.1884 70.4133 87.698 78.904 77.2236 78.9062V78.9072H73.3555V76.9072H75.2236V76.9062H77.2236C86.4473 76.904 93.9505 69.5439 94.1826 60.376L94.1885 59.9385C94.1885 50.7145 86.8288 43.2098 77.6611 42.9756L77.2236 42.9697H72.5654V40.9688L72.5596 40.5312C72.331 31.5074 65.0581 24.2344 56.0342 24.0059L55.5967 24C46.2251 24.0002 38.6271 31.5974 38.627 40.9688V42.9697H33.9697C24.598 42.9699 17 50.567 17 59.9385C17 69.3041 24.5886 76.8966 33.9521 76.9062C33.9591 76.9062 33.9665 76.9062 33.9736 76.9062L35.9746 76.9053V76.9072H37.3555V78.9072H33.9746V78.9062C33.9731 78.9064 33.9712 78.9072 33.9697 78.9072C23.4936 78.907 15 70.4146 15 59.9385C15 49.4623 23.4936 40.9699 33.9697 40.9697H36.627V40.9688C36.6271 30.4927 45.1206 22.0002 55.5967 22ZM33.4307 76.9814C33.42 76.9844 33.4104 76.9868 33.4053 76.9883L33.4014 76.9893C33.4025 76.9889 33.4046 76.9887 33.4062 76.9883C33.4116 76.9867 33.4209 76.9845 33.4316 76.9814C33.436 76.9802 33.441 76.978 33.4463 76.9766C33.4406 76.9781 33.4352 76.9802 33.4307 76.9814ZM33.6113 76.9395C33.5978 76.9419 33.5844 76.9448 33.5723 76.9473C33.5853 76.9446 33.5998 76.9421 33.6143 76.9395C33.6315 76.9363 33.6503 76.9327 33.6699 76.9297C33.6492 76.9328 33.6294 76.9361 33.6113 76.9395ZM77.6455 64.0371C76.9333 64.0371 76.3555 64.615 76.3555 65.3271C76.3557 66.0391 76.9335 66.6162 77.6455 66.6162C78.3573 66.6159 78.9343 66.0389 78.9346 65.3271C78.9346 64.6152 78.3574 64.0374 77.6455 64.0371ZM37.6455 58.3984C36.9333 58.3984 36.3555 58.9763 36.3555 59.6885C36.3557 60.4004 36.9335 60.9775 37.6455 60.9775C38.3573 60.9772 38.9343 60.4003 38.9346 59.6885C38.9346 58.9765 38.3574 58.3987 37.6455 58.3984ZM56.0205 49C55.3083 49 54.7305 49.5779 54.7305 50.29C54.7308 51.002 55.3085 51.5791 56.0205 51.5791C56.7322 51.5788 57.3093 51.0018 57.3096 50.29C57.3096 49.5781 56.7324 49.0003 56.0205 49Z" fill="url(#paint0_linear_385_6895)"/>
<defs>
<linearGradient id="paint0_linear_385_6895" x1="78.0246" y1="114.564" x2="84.6035" y2="114.564" gradientUnits="userSpaceOnUse">
<stop stop-color="#A34DEE"/>
<stop offset="1" stop-color="#6943F5"/>
</linearGradient>
</defs>
</svg>
