<svg xmlns="http://www.w3.org/2000/svg" width="113" height="113" fill="none"><path fill="#121212" fill-rule="evenodd" d="M38.84 66.141a7.936 7.936 0 1 1 0 15.872 7.936 7.936 0 0 1 0-15.872m0 2a5.937 5.937 0 1 0 .001 11.873 5.937 5.937 0 0 0-.001-11.874M74.956 66.141a7.936 7.936 0 1 1 0 15.872 7.936 7.936 0 0 1 0-15.872m0 2a5.936 5.936 0 1 0 0 11.872 5.936 5.936 0 0 0 0-11.873" clip-rule="evenodd"/><path fill="#121212" d="M63.542 31.665a6.996 6.996 0 0 1 6.996 6.996v6.941h9.999c1.325 0 2.595.527 3.533 1.464l7.149 7.148.17.18a5 5 0 0 1 1.294 3.354v10.164a4.997 4.997 0 0 1-4.997 4.997h-2.901a1 1 0 0 1 0-1.999h2.9a3 3 0 0 0 2.999-2.998V57.748c0-.696-.242-1.367-.68-1.9l-.199-.22-7.149-7.149a3 3 0 0 0-2.12-.878h-9.998v16.685a1 1 0 0 1-2 0V38.661a4.997 4.997 0 0 0-4.996-4.997h-35.46a5 5 0 0 0-4.997 4.997v27.251a4.997 4.997 0 0 0 4.997 4.997h1.255l.101.006a1 1 0 0 1 0 1.988l-.101.005h-1.255a6.996 6.996 0 0 1-6.996-6.996V38.661a6.997 6.997 0 0 1 6.996-6.996z"/><path fill="#121212" d="M64.991 70.915a1 1 0 0 1 0 1.988l-.101.005H48.543a1 1 0 0 1 0-1.999H64.89z"/></svg>