<svg xmlns="http://www.w3.org/2000/svg" width="113" height="113" fill="none"><path fill="#121212" d="M47.626 24.597a32.5 32.5 0 0 1 20.4 2.016.972.972 0 1 1-.791 1.774 30.57 30.57 0 0 0-35.683 8.062A30.573 30.573 0 0 0 63.46 85.63a30.57 30.57 0 0 0 21.903-29.3v-2.9a.972.972 0 0 1 1.943 0v2.902a32.516 32.516 0 0 1-59.79 17.677 32.52 32.52 0 0 1 2.559-38.822 32.5 32.5 0 0 1 17.551-10.589"/><path fill="#121212" d="M89.836 27.292a.972.972 0 0 1 1.374 1.374L55.788 64.087a.97.97 0 0 1-1.374 0L43.787 53.461a.973.973 0 0 1 1.374-1.374l9.94 9.94z"/></svg>