<svg xmlns="http://www.w3.org/2000/svg" width="112" height="112" fill="none"><path fill="url(#a)" fill-rule="evenodd" d="M87.925 24.076a6.497 6.497 0 0 1 .222 8.953l-.222.234L57.55 63.637l-12.248 3.061 3.062-12.247 30.375-30.375.233-.221a6.496 6.496 0 0 1 8.953.221m.667 9.356A7.095 7.095 0 0 0 78.57 23.409l-.255.243-30.434 30.433a.3.3 0 0 0-.048.064l-.03.076-3.204 12.814a.3.3 0 0 0 .364.363L57.777 64.2a.3.3 0 0 0 .14-.079l30.432-30.434zM25.37 35.077v44.848a6.707 6.707 0 0 0 6.707 6.707h44.849a6.707 6.707 0 0 0 6.707-6.707V57.501a.3.3 0 0 0-.6 0v22.424a6.107 6.107 0 0 1-6.107 6.107H32.076a6.107 6.107 0 0 1-6.107-6.107V35.077a6.107 6.107 0 0 1 6.107-6.108H54.5l.06-.006a.3.3 0 0 0 0-.587l-.06-.006H32.076a6.71 6.71 0 0 0-6.707 6.707" clip-rule="evenodd"/><path fill="url(#b)" fill-rule="evenodd" d="M83.332 20.738a7.93 7.93 0 0 0-5.61 2.324L47.29 53.495c-.146.146-.25.328-.3.528l-3.203 12.814a1.137 1.137 0 0 0 1.38 1.38l12.814-3.204c.2-.05.383-.153.528-.299l30.433-30.433a7.933 7.933 0 0 0-5.61-13.543m-4.001 3.933a5.658 5.658 0 0 1 8.002 8.001l-30.21 30.21-10.67 2.668 2.668-10.67z" clip-rule="evenodd"/><path fill="url(#c)" d="M32.076 27.534a7.544 7.544 0 0 0-7.545 7.544v44.85a7.544 7.544 0 0 0 7.545 7.544h44.848a7.544 7.544 0 0 0 7.545-7.545V57.503a1.138 1.138 0 0 0-2.275 0v22.424a5.27 5.27 0 0 1-5.27 5.27H32.076a5.27 5.27 0 0 1-5.27-5.27V35.078a5.27 5.27 0 0 1 5.27-5.27H54.5a1.137 1.137 0 1 0 0-2.274z"/><defs><linearGradient id="a" x1="57.898" x2="57.898" y1="21.574" y2="86.632" gradientUnits="userSpaceOnUse"><stop stop-color="#505BFD"/><stop offset="1" stop-color="#B542FD"/></linearGradient><linearGradient id="b" x1="57.898" x2="57.898" y1="20.738" y2="87.472" gradientUnits="userSpaceOnUse"><stop stop-color="#505BFD"/><stop offset="1" stop-color="#B542FD"/></linearGradient><linearGradient id="c" x1="57.898" x2="57.898" y1="20.738" y2="87.472" gradientUnits="userSpaceOnUse"><stop stop-color="#505BFD"/><stop offset="1" stop-color="#B542FD"/></linearGradient></defs></svg>