<svg xmlns="http://www.w3.org/2000/svg" width="85" height="85" fill="none"><path fill="#fff" fill-rule="evenodd" d="M42.591 18.874c5.717 0 10.923.772 14.723 2.038 1.897.633 3.483 1.4 4.609 2.288 1.118.881 1.88 1.963 1.88 3.216v31.897c0 1.253-.755 2.335-1.87 3.218-1.12.888-2.701 1.657-4.594 2.289-3.792 1.266-8.998 2.035-14.748 2.035s-10.956-.77-14.748-2.035c-1.893-.632-3.473-1.4-4.594-2.29-1.045-.827-1.774-1.83-1.861-2.984l-.01-.233V26.416c0-1.253.764-2.335 1.882-3.216 1.126-.887 2.712-1.655 4.608-2.288 3.8-1.266 9.006-2.038 14.723-2.038m-19.798 39.44.004.12c.046.608.439 1.283 1.33 1.989.943.747 2.354 1.451 4.163 2.055 3.612 1.206 8.66 1.964 14.301 1.964 5.642 0 10.689-.758 14.3-1.963 1.81-.605 3.221-1.309 4.165-2.056.95-.753 1.333-1.471 1.333-2.11V45.188a7 7 0 0 1-.455.394c-1.121.888-2.702 1.657-4.595 2.289-3.792 1.266-8.998 2.035-14.748 2.035s-10.956-.77-14.748-2.035c-1.893-.632-3.473-1.4-4.594-2.29a7 7 0 0 1-.456-.393zm0-15.95.004.121c.045.608.439 1.283 1.33 1.989.943.747 2.354 1.451 4.163 2.056 3.612 1.205 8.66 1.963 14.301 1.963 5.642 0 10.689-.758 14.3-1.964 1.81-.604 3.221-1.308 4.165-2.055.89-.706 1.283-1.381 1.328-1.989l.005-.12V29.23a7 7 0 0 1-.466.401c-1.126.888-2.712 1.657-4.609 2.289-3.8 1.267-9.006 2.038-14.723 2.038s-10.922-.772-14.723-2.038c-1.896-.633-3.482-1.401-4.608-2.289a7 7 0 0 1-.467-.401zM42.59 20.288c-5.607 0-10.655.759-14.276 1.966-1.814.604-3.231 1.309-4.18 2.057-.957.754-1.342 1.47-1.342 2.105 0 .634.384 1.351 1.342 2.105.949.748 2.366 1.453 4.18 2.057 3.62 1.207 8.669 1.966 14.276 1.966 5.608 0 10.655-.759 14.276-1.965 1.814-.605 3.231-1.31 4.18-2.058.957-.754 1.342-1.47 1.342-2.105 0-.634-.385-1.351-1.342-2.105-.949-.748-2.366-1.453-4.18-2.057-3.62-1.207-8.668-1.966-14.276-1.966" clip-rule="evenodd"/></svg>