<svg xmlns="http://www.w3.org/2000/svg" width="113" height="113" fill="none"><path fill="#121212" d="M56.886 25.192c13.935 0 25.437 10.414 27.15 23.885l.004.043c4.869 1.134 8.542 5.38 8.802 10.53l.014.587v2.535l-.015.586c-.284 5.58-4.575 10.097-10.051 10.742a8.627 8.627 0 0 1-8.62 8.264h-6.83a4.3 4.3 0 0 1-1.57 2.565c-1.015.801-2.352 1.17-3.735 1.17h-4.13c-1.382 0-2.719-.37-3.733-1.17-1.041-.823-1.67-2.048-1.67-3.565 0-1.513.626-2.754 1.658-3.595 1.011-.825 2.35-1.222 3.747-1.222h4.126c1.397 0 2.736.397 3.747 1.222a4.43 4.43 0 0 1 1.56 2.595h6.83a6.63 6.63 0 0 0 6.62-6.264 2.73 2.73 0 0 1-2.083-2.654v-19.89a2.736 2.736 0 0 1 2.735-2.736q.273.001.541.014C80.181 36.59 69.63 27.192 56.886 27.192S33.592 36.591 31.79 48.834q.267-.013.538-.014a2.736 2.736 0 0 1 2.735 2.736v19.89a2.736 2.736 0 0 1-2.735 2.736c-6.302 0-11.411-5.109-11.413-11.41v-2.535c-.002-5.41 3.762-9.94 8.816-11.117 1.693-13.491 13.205-23.927 27.155-23.928m1.021 53.355c-1.036 0-1.899.296-2.482.771-.562.459-.923 1.128-.923 2.046 0 .916.357 1.559.91 1.995.578.458 1.443.74 2.493.74h4.13c1.05 0 1.915-.282 2.494-.74.553-.436.91-1.079.91-1.995 0-.918-.36-1.587-.922-2.046-.584-.475-1.448-.771-2.484-.771zM32.328 50.82a9.414 9.414 0 0 0-9.414 9.416l.001 2.535a9.413 9.413 0 0 0 9.413 9.41c.406 0 .735-.329.735-.735v-19.89a.736.736 0 0 0-.735-.736m49.114 0a.736.736 0 0 0-.735.736v19.89c0 .406.33.736.735.736a9.415 9.415 0 0 0 9.402-8.927l.012-.485v-2.534a9.415 9.415 0 0 0-9.414-9.416"/></svg>