<svg xmlns="http://www.w3.org/2000/svg" width="85" height="85" fill="none"><path fill="#fff" d="M47.927 39.304a.738.738 0 0 1 0 1.469l-.076.003H37.337a.738.738 0 0 1 0-1.476H47.85z"/><path fill="#fff" fill-rule="evenodd" d="M64.873 21.53c1.17.06 2.1 1.027 2.1 2.212v8.465a2.214 2.214 0 0 1-2.214 2.214h-.875v27.473a2.215 2.215 0 0 1-2.214 2.214H23.52a2.215 2.215 0 0 1-2.214-2.215V34.422h-.876a2.215 2.215 0 0 1-2.214-2.214v-8.465c0-1.223.991-2.215 2.214-2.215h44.33zM22.781 34.421v27.473c0 .407.33.738.738.738H61.67c.407 0 .738-.331.738-.738V34.42zm-2.352-11.417a.74.74 0 0 0-.738.738v8.465c0 .408.33.738.738.738h44.33c.408 0 .739-.33.739-.738v-8.465a.74.74 0 0 0-.664-.735l-.075-.004z" clip-rule="evenodd"/></svg>