<svg xmlns="http://www.w3.org/2000/svg" width="85" height="85" fill="none"><path fill="#fff" fill-rule="evenodd" d="M61.928 17.614a5.548 5.548 0 0 1 .692 11.05 1 1 0 0 1 .009.103v27.286a1 1 0 0 1-.008.098 5.547 5.547 0 1 1-6.201 6.153.7.7 0 0 1-.187.046l-.071.004H28.937a5.547 5.547 0 1 1-6.202-6.203V29.325a5.547 5.547 0 1 1 6.08-6.864h27.347l.072.003a.7.7 0 0 1 .186.045 5.55 5.55 0 0 1 5.508-4.895M23.436 57.508a4.146 4.146 0 1 0 4.136 4.407.7.7 0 0 1 0-.523 4.145 4.145 0 0 0-4.136-3.884m38.492 0a4.146 4.146 0 1 0 0 8.291 4.146 4.146 0 0 0 0-8.291M56.42 23.813a.7.7 0 0 1-.187.046l-.071.003h-27.18a5.546 5.546 0 0 1-4.845 5.463v26.826a5.55 5.55 0 0 1 4.8 4.802h27.225l.072.003a.7.7 0 0 1 .186.045 5.55 5.55 0 0 1 4.814-4.85 1 1 0 0 1-.007-.098V28.767q0-.053.008-.103a5.55 5.55 0 0 1-4.815-4.85M23.436 19.68a4.146 4.146 0 1 0 4.122 3.706.7.7 0 0 1-.037-.224l.002-.032a4.146 4.146 0 0 0-4.087-3.45m38.492-.663a4.146 4.146 0 1 0 0 8.292 4.146 4.146 0 0 0 0-8.292" clip-rule="evenodd"/></svg>