<svg xmlns="http://www.w3.org/2000/svg" width="112" height="112" fill="none"><mask id="b" width="88" height="69" x="12" y="22" maskUnits="userSpaceOnUse" style="mask-type:alpha"><path fill="#000" d="M93.33 22.353a4 4 0 0 1 3.793 3.995v41l-.005.206a4 4 0 0 1-3.789 3.789l-.206.005H53.955a22 22 0 0 0 .033-2h39.135a2 2 0 0 0 2-2v-41a2 2 0 0 0-2-2h-67a2 2 0 0 0-2 2v21.208q-1.017.213-2 .505V26.347a4 4 0 0 1 3.794-3.995l.206-.005h67z"/><path stroke="#000" stroke-width="2" d="M54.998 79h45"/><path stroke="#000" stroke-linejoin="round" stroke-width="2" d="M53.999 47.533h6.266L62.77 39l5.848 16 5.848-10.667 2.507 5.69 2.088-2.49H87"/><mask id="a" fill="#fff"><path d="M33.642 51.963c1.104 0 2 .896 2 2v3.534a14.4 14.4 0 0 1 3.949 2.467l3.174-1.832a2 2 0 0 1 2.732.731l3.165 5.483a2 2 0 0 1-.732 2.732l-3.534 2.04q.096.818.097 1.663c0 .828-.072 1.64-.206 2.43l3.644 2.104a2 2 0 0 1 .733 2.732l-3.165 5.482a2 2 0 0 1-2.733.733l-3.763-2.174a14.4 14.4 0 0 1-3.36 1.977v4.268a2 2 0 0 1-2 2h-6.33a2 2 0 0 1-2-2v-3.981a14.4 14.4 0 0 1-3.797-2.025l-3.351 1.936a2 2 0 0 1-2.732-.733l-3.165-5.481A2 2 0 0 1 13 75.316l2.99-1.727a14.5 14.5 0 0 1-.128-4.861l-2.86-1.652a2 2 0 0 1-.733-2.731l3.165-5.483a2 2 0 0 1 2.733-.732l2.743 1.584a14.4 14.4 0 0 1 4.402-2.504v-3.247a2 2 0 0 1 2-2zM30.107 65.25a5.534 5.534 0 1 0 0 11.069 5.534 5.534 0 0 0 0-11.069"/></mask><path fill="#000" d="m33.642 51.963.001-2zm2 2h2zm0 3.534h-2a2 2 0 0 0 1.23 1.846zm3.949 2.467-1.32 1.503a2 2 0 0 0 2.32.23zm3.174-1.832-.999-1.733zm2.732.731 1.732-1zm3.165 5.483-1.732 1zm-.732 2.732 1 1.733.001-.001zm-3.534 2.04-1-1.733a2 2 0 0 0-.987 1.961zm.097 1.663h2zm-.206 2.43-1.972-.335a2 2 0 0 0 .972 2.067zm3.644 2.104 1-1.731zm.733 2.732 1.732 1zm-3.165 5.482 1.732 1zm-2.733.733-1 1.732zm-3.763-2.174 1-1.732a2 2 0 0 0-2.238.161zm-3.36 1.977-.771-1.846a2 2 0 0 0-1.23 1.846zm0 4.268h2zm-2 2v2zm-8.33-2h-2zm0-3.981h2a2 2 0 0 0-1.335-1.886zm-3.797-2.025 1.195-1.604a2 2 0 0 0-2.195-.128zm-3.351 1.936 1 1.732zm-2.732-.733 1.732-1zm-3.165-5.481-1.732 1zM13 75.316l1 1.732zm2.99-1.727 1 1.732a2 2 0 0 0 .962-2.12zm-.274-2.808h-2zm.146-2.053 1.98.282a2 2 0 0 0-.98-2.014zm-2.86-1.652-1 1.732zm-.733-2.731-1.732-1zm3.165-5.483-1.731-1zm2.733-.732 1-1.732zm2.743 1.584-1 1.732a2 2 0 0 0 2.279-.194zm4.402-2.504.666 1.886a2 2 0 0 0 1.334-1.886zm0-3.247h-2zm2-2v2zm2.795 13.287v-2zm-5.534 5.534h-2zm5.534 5.534v2zm5.534-5.534h2zm-1.999-18.821v2h4a4 4 0 0 0-3.999-4zm2 2h-2v3.534h4v-3.534zm0 3.534-.77 1.846a12.4 12.4 0 0 1 3.4 2.124l1.319-1.503 1.319-1.503a16.4 16.4 0 0 0-4.497-2.81zm3.949 2.467 1 1.732 3.174-1.832-1-1.732-1-1.732-3.174 1.832zm3.174-1.832 1 1.732 1.732-1 1.732-1.001a4 4 0 0 0-5.463-1.464zm2.732.731-1.732 1 3.165 5.483 1.732-1 1.732-1-3.165-5.483zm3.165 5.483-1.732 1 1 1.732 1.001 1.732a4 4 0 0 0 1.463-5.464zm-.732 2.732-.999-1.732-3.534 2.039 1 1.732.999 1.733 3.534-2.04zm-3.534 2.04-1.987.228q.083.712.084 1.435h4q-.002-.965-.11-1.893zm.097 1.663h-2c0 .713-.062 1.412-.178 2.095l1.972.335 1.972.335c.152-.897.234-1.821.234-2.765zm-.206 2.43-1 1.732 3.644 2.104 1-1.732 1-1.732-3.644-2.104zm3.644 2.104-1 1.732 1.733 1 1.732 1a4 4 0 0 0-1.464-5.463zm.733 2.732-1.732-1-3.165 5.482 1.732 1 1.732 1 3.165-5.482zm-3.165 5.482-1.732-1-1 1.733-1 1.732a4 4 0 0 0 5.464-1.465zm-2.733.733 1-1.732-3.763-2.174-1 1.732-1 1.732 3.763 2.174zm-3.763-2.174-1.238-1.57a12.4 12.4 0 0 1-2.893 1.7l.77 1.846.77 1.846a16.4 16.4 0 0 0 3.829-2.251zm-3.36 1.977h-2v4.268h4v-4.269zm0 4.268h-2.001v2l.001 2a4 4 0 0 0 4-4zm-2 2v-2h-6.33v4h6.33zm-6.33 0v-2h-4a4 4 0 0 0 4 4zm-2-2h2v-3.981h-4v3.981zm0-3.981.665-1.886a12.4 12.4 0 0 1-3.267-1.743l-1.195 1.604-1.194 1.604a16.4 16.4 0 0 0 4.324 2.306zm-3.797-2.025-1-1.732-3.351 1.936 1 1.732 1 1.732 3.352-1.936zm-3.351 1.936-1-1.733-1.732 1-1.732 1a4 4 0 0 0 5.463 1.465zm-2.732-.733 1.732-1L14 77.05l-1.732 1-1.732 1 3.165 5.481zm-3.165-5.481 1.732-1-1-1.733-1-1.731a4 4 0 0 0-1.464 5.464zM13 75.316l1 1.732 2.99-1.727-1-1.732-1-1.732L12 73.585zm2.99-1.727 1.962-.388a12.5 12.5 0 0 1-.236-2.42h-4c0 1.093.107 2.162.312 3.196zm-.274-2.808h2q0-.9.126-1.77l-1.98-.283-1.98-.283a16.5 16.5 0 0 0-.166 2.336zm.146-2.053 1-1.732-2.86-1.652-1 1.732-1 1.732 2.86 1.652zm-2.86-1.652 1-1.732-1.733-1-1.732-.999a4 4 0 0 0 1.465 5.463zm-.733-2.731 1.732 1 3.165-5.483-1.732-1-1.732-1-3.165 5.483zm3.165-5.483 1.732 1 .001-.001-.002.002h.002q.003-.001.001-.001h-.003.002l1-1.732 1-1.732a4 4 0 0 0-5.465 1.464zm2.733-.732-1 1.732 2.743 1.584 1-1.732 1-1.732-2.743-1.584zm2.743 1.584 1.279 1.538a12.4 12.4 0 0 1 3.79-2.156l-.667-1.886-.666-1.886a16.4 16.4 0 0 0-5.015 2.852zm4.402-2.504h2v-3.247h-4v3.247zm0-3.247h2v-4a4 4 0 0 0-4 4zm2-2v2h6.33v-4h-6.33zm2.795 13.287v-2a7.534 7.534 0 0 0-7.534 7.534h4a3.534 3.534 0 0 1 3.534-3.534zm-5.534 5.534h-2a7.534 7.534 0 0 0 7.534 7.534v-4a3.534 3.534 0 0 1-3.534-3.534zm5.534 5.534v2a7.535 7.535 0 0 0 7.534-7.534h-4a3.535 3.535 0 0 1-3.534 3.534zm5.534-5.534h2a7.534 7.534 0 0 0-7.534-7.534v4a3.535 3.535 0 0 1 3.534 3.534z" mask="url(#a)"/></mask><g mask="url(#b)"><path fill="url(#c)" d="M103 99H9V11h94z"/></g><defs><linearGradient id="c" x1="56" x2="56" y1="99" y2="8.462" gradientUnits="userSpaceOnUse"><stop stop-color="#A34DEE"/><stop offset="1" stop-color="#6943F5"/></linearGradient></defs></svg>