<svg xmlns="http://www.w3.org/2000/svg" width="112" height="112" fill="none"><path fill="url(#a)" d="M54.587 24.168h3.412v-9.47h39.886v39.885h-9.472v3.415h9.472v39.886H57.999V88.41l-3.412-.002v9.47H44.115v-2h8.472v-9.47h1l5.413.003.999.001v9.47h35.886V59.999h-9.472v-7.415h9.472V16.697H59.999v9.472l-7.412-.001v-9.472h-8.472v-2h10.472zm-29.414-7.472H16.7v35.886h35.886V43.11l7.412.001v9.472h9.084v7.415h-9.084v9.472h-1l-5.413-.004-1-.001v-9.47H16.702V95.88h8.472v2H14.7V57.994h39.886v9.473l3.412.002v-9.471h9.084v-3.415h-9.084v-9.472h-3.412v9.471H14.7V14.696h10.472z"/><defs><linearGradient id="a" x1="56.291" x2="56.291" y1="14.698" y2="100.281" gradientUnits="userSpaceOnUse"><stop stop-color="#A34DEE"/><stop offset="1" stop-color="#6943F5"/></linearGradient></defs></svg>