<svg xmlns="http://www.w3.org/2000/svg" width="112" height="112" fill="none"><path fill="url(#a)" d="M84 97.161H28V16.945h56zm-54-2h52V18.945H30zM49.944 73.19H38.08v11.865h-2V71.189h13.865zm1.825 2.13-7.726 7.726-4.643-4.643 1.415-1.414 3.228 3.229 6.313-6.313zM49.945 52H38.08v11.865h-2V50h13.865zm1.825 2.128-7.726 7.727-4.643-4.643 1.415-1.414 3.228 3.228 6.313-6.312zM49.945 30.81H38.08v11.865h-2V28.81h13.865zm1.825 2.13-7.726 7.725-4.643-4.642 1.415-1.415 3.228 3.229 6.313-6.313z"/><defs><linearGradient id="a" x1="51.867" x2="51.867" y1="71.431" y2="92.516" gradientUnits="userSpaceOnUse"><stop stop-color="#A34DEE"/><stop offset="1" stop-color="#6943F5"/></linearGradient></defs></svg>