<svg xmlns="http://www.w3.org/2000/svg" width="85" height="85" fill="none"><path fill="#121212" fill-rule="evenodd" d="M42.593 16.35a.75.75 0 0 1 .75.75v8.634h10.98l.076.004a.75.75 0 0 1 0 1.492l-.077.004h-10.98v14.922h5.116l.444.01a8.961 8.961 0 0 1 0 17.9l-.444.01h-5.115v8.634a.75.75 0 0 1-1.5 0v-8.633H28.518a.75.75 0 0 1 0-1.5h13.325V43.656h-5.115a8.963 8.963 0 0 1-8.95-8.517l-.01-.444a8.96 8.96 0 0 1 8.96-8.96h5.115V17.1a.75.75 0 0 1 .75-.75m.75 42.227h5.115l.37-.01a7.462 7.462 0 0 0 0-14.902l-.37-.01h-5.115zm-6.615-31.343a7.46 7.46 0 0 0-7.46 7.46l.01.37a7.46 7.46 0 0 0 7.45 7.092h5.115V27.234z" clip-rule="evenodd"/></svg>