<svg width="112" height="112" viewBox="0 0 112 112" fill="none" xmlns="http://www.w3.org/2000/svg">
<path d="M70.3271 34.4698C72.884 34.5966 75.3102 35.6686 77.1289 37.4874C79.0687 39.4273 80.1592 42.0585 80.1592 44.8018V69.9806C81.4998 69.5881 82.9182 69.3761 84.3857 69.3761C92.6788 69.3763 99.402 76.0996 99.4023 84.3927C99.4023 92.686 92.679 99.409 84.3857 99.4093C76.0923 99.4092 69.3691 92.6861 69.3691 84.3927C69.3694 78.3204 72.9732 73.0897 78.1592 70.7237V44.8018C78.1592 42.5889 77.2795 40.4663 75.7148 38.9015C74.2479 37.4345 72.2908 36.5703 70.2285 36.4679L69.8145 36.4571H55.7979C55.2457 36.4571 54.798 36.0093 54.7979 35.4571C54.7979 34.9048 55.2456 34.4571 55.7979 34.4571H69.8145L70.3271 34.4698ZM28.3223 13.3077C36.6157 13.3077 43.3388 20.0309 43.3389 28.3243C43.3388 36.2825 37.1486 42.7933 29.3203 43.3067V98.4083L29.3154 98.5108C29.2641 99.0149 28.838 99.4083 28.3203 99.4083C27.8027 99.4082 27.3765 99.0149 27.3252 98.5108L27.3203 98.4083V43.3067C19.4943 42.7909 13.3057 36.2808 13.3057 28.3243C13.3057 20.031 20.0291 13.308 28.3223 13.3077ZM84.3857 71.3761C82.8093 71.3761 81.2978 71.6566 79.8994 72.17C79.7165 72.372 79.4531 72.5 79.1592 72.5001C79.1382 72.5001 79.1173 72.4975 79.0967 72.4962C74.5435 74.5233 71.3694 79.0871 71.3691 84.3927C71.3691 91.5816 77.1969 97.4092 84.3857 97.4093C91.5745 97.409 97.4023 91.5815 97.4023 84.3927C97.402 77.2042 91.5743 71.3763 84.3857 71.3761ZM28.3223 15.3077C21.1336 15.308 15.3057 21.1356 15.3057 28.3243C15.3057 35.513 21.1336 41.3406 28.3223 41.3409C35.5111 41.3409 41.3388 35.5132 41.3389 28.3243C41.3388 21.1354 35.5112 15.3077 28.3223 15.3077Z" fill="#1A1A1A"/>
<path d="M70.3271 34.4698C72.884 34.5966 75.3102 35.6686 77.1289 37.4874C79.0687 39.4273 80.1592 42.0585 80.1592 44.8018V69.9806C81.4998 69.5881 82.9182 69.3761 84.3857 69.3761C92.6788 69.3763 99.402 76.0996 99.4023 84.3927C99.4023 92.686 92.679 99.409 84.3857 99.4093C76.0923 99.4092 69.3691 92.6861 69.3691 84.3927C69.3694 78.3204 72.9732 73.0897 78.1592 70.7237V44.8018C78.1592 42.5889 77.2795 40.4663 75.7148 38.9015C74.2479 37.4345 72.2908 36.5703 70.2285 36.4679L69.8145 36.4571H55.7979C55.2457 36.4571 54.798 36.0093 54.7979 35.4571C54.7979 34.9048 55.2456 34.4571 55.7979 34.4571H69.8145L70.3271 34.4698ZM28.3223 13.3077C36.6157 13.3077 43.3388 20.0309 43.3389 28.3243C43.3388 36.2825 37.1486 42.7933 29.3203 43.3067V98.4083L29.3154 98.5108C29.2641 99.0149 28.838 99.4083 28.3203 99.4083C27.8027 99.4082 27.3765 99.0149 27.3252 98.5108L27.3203 98.4083V43.3067C19.4943 42.7909 13.3057 36.2808 13.3057 28.3243C13.3057 20.031 20.0291 13.308 28.3223 13.3077ZM84.3857 71.3761C82.8093 71.3761 81.2978 71.6566 79.8994 72.17C79.7165 72.372 79.4531 72.5 79.1592 72.5001C79.1382 72.5001 79.1173 72.4975 79.0967 72.4962C74.5435 74.5233 71.3694 79.0871 71.3691 84.3927C71.3691 91.5816 77.1969 97.4092 84.3857 97.4093C91.5745 97.409 97.4023 91.5815 97.4023 84.3927C97.402 77.2042 91.5743 71.3763 84.3857 71.3761ZM28.3223 15.3077C21.1336 15.308 15.3057 21.1356 15.3057 28.3243C15.3057 35.513 21.1336 41.3406 28.3223 41.3409C35.5111 41.3409 41.3388 35.5132 41.3389 28.3243C41.3388 21.1354 35.5112 15.3077 28.3223 15.3077Z" fill="url(#paint0_linear_385_6734)"/>
<defs>
<linearGradient id="paint0_linear_385_6734" x1="56.357" y1="13.9261" x2="56.357" y2="101.239" gradientUnits="userSpaceOnUse">
<stop stop-color="#A34DEE"/>
<stop offset="1" stop-color="#6943F5"/>
</linearGradient>
</defs>
</svg>
