<svg width="112" height="112" viewBox="0 0 112 112" fill="none" xmlns="http://www.w3.org/2000/svg">
<path fill-rule="evenodd" clip-rule="evenodd" d="M50.3853 21.8828C68.2273 21.8828 82.6916 36.3441 82.6922 54.186C82.6922 54.8137 82.1829 55.3219 81.5554 55.3228C80.9272 55.3228 80.415 54.8143 80.415 54.186C80.4144 37.6006 66.9708 24.1563 50.3853 24.1563C33.8001 24.1569 20.3561 37.6009 20.3556 54.186C20.3556 70.7728 33.8012 84.2157 50.3482 84.2157C54.1124 84.2157 57.6915 83.521 60.979 82.2792H60.9901L62.0157 81.8756C64.3883 80.8901 66.598 79.582 68.6178 78.0432C68.711 77.9721 68.8133 77.9223 68.9178 77.8839C68.8731 77.4359 68.8549 76.9811 68.8548 76.5213C68.8548 69.0245 74.9325 62.9469 82.4293 62.9469C89.9248 62.9484 96.0037 69.0255 96.0037 76.5213C96.0032 84.0167 89.9244 90.0942 82.4293 90.0958L82.4256 90.0921C76.2412 90.0896 71.023 85.9532 69.388 80.2945C67.0765 81.9775 64.5318 83.3963 61.7751 84.412L61.7714 84.4083C58.2369 85.7421 54.3905 86.493 50.3482 86.493C32.5429 86.4929 18.082 72.0275 18.082 54.186C18.0826 36.3445 32.5437 21.8834 50.3853 21.8828ZM75.4976 85.4303C77.1311 86.7019 79.1158 87.5419 81.2888 87.7593V80.7536L75.4976 85.4303ZM83.5623 87.7593C85.7423 87.5417 87.7322 86.6973 89.3683 85.4191L83.5623 80.7499V87.7593ZM81.2888 65.2759C75.5829 65.847 71.1283 70.6652 71.1283 76.5213C71.1286 79.3197 72.1496 81.8759 73.8351 83.8492L81.2888 77.8321V65.2759ZM83.5623 77.8284L91.0272 83.8343C92.7052 81.863 93.7263 79.3133 93.7265 76.5213C93.7265 70.6643 89.2692 65.8458 83.5623 65.2759V77.8284Z" fill="url(#paint0_linear_577_15244)"/>
<path d="M37.8809 62.0175C38.293 61.6537 38.895 61.6397 39.3176 61.9582L39.4842 62.1174L40.0026 62.6728C42.6555 65.3912 46.3099 67.1158 50.3853 67.1162C54.733 67.1162 58.6052 65.1554 61.29 62.1174C61.706 61.6467 62.4226 61.6016 62.8933 62.0175C63.3638 62.4332 63.4084 63.15 62.9933 63.6208C59.9148 67.1043 55.4407 69.3897 50.3853 69.3897C45.6463 69.3893 41.4195 67.3824 38.3734 64.2613L37.7809 63.6208L37.6439 63.4356C37.3805 62.977 37.4691 62.3813 37.8809 62.0175Z" fill="url(#paint1_linear_577_15244)"/>
<path d="M40.5654 41.9409C41.9475 41.9409 43.0685 43.0619 43.0685 44.444C43.0682 45.8258 41.9473 46.9471 40.5654 46.9471C39.1841 46.9464 38.0664 45.8254 38.066 44.444C38.066 43.0623 39.1839 41.9416 40.5654 41.9409Z" fill="url(#paint2_linear_577_15244)"/>
<path d="M60.094 41.9409C61.4758 41.9412 62.5971 43.0621 62.5971 44.444C62.5968 45.8256 61.4756 46.9467 60.094 46.9471C58.7121 46.9471 57.5912 45.8258 57.5909 44.444C57.5909 43.0619 58.7119 41.9409 60.094 41.9409Z" fill="url(#paint3_linear_577_15244)"/>
<defs>
<linearGradient id="paint0_linear_577_15244" x1="57.0429" y1="21.8828" x2="57.0429" y2="90.0958" gradientUnits="userSpaceOnUse">
<stop stop-color="#505BFD"/>
<stop offset="1" stop-color="#B542FD"/>
</linearGradient>
<linearGradient id="paint1_linear_577_15244" x1="57.0429" y1="21.8828" x2="57.0429" y2="90.0958" gradientUnits="userSpaceOnUse">
<stop stop-color="#505BFD"/>
<stop offset="1" stop-color="#B542FD"/>
</linearGradient>
<linearGradient id="paint2_linear_577_15244" x1="57.0429" y1="21.8828" x2="57.0429" y2="90.0958" gradientUnits="userSpaceOnUse">
<stop stop-color="#505BFD"/>
<stop offset="1" stop-color="#B542FD"/>
</linearGradient>
<linearGradient id="paint3_linear_577_15244" x1="57.0429" y1="21.8828" x2="57.0429" y2="90.0958" gradientUnits="userSpaceOnUse">
<stop stop-color="#505BFD"/>
<stop offset="1" stop-color="#B542FD"/>
</linearGradient>
</defs>
</svg>
