<svg xmlns="http://www.w3.org/2000/svg" width="85" height="85" fill="none"><path fill="#fff" d="M35.65 18.855a24.4 24.4 0 0 1 15.3 1.512.729.729 0 1 1-.593 1.33 22.93 22.93 0 0 0-32.21 19.436A22.93 22.93 0 0 0 59.388 56.37a22.93 22.93 0 0 0 4.564-13.715v-2.176a.729.729 0 0 1 1.457 0v2.177a24.387 24.387 0 0 1-44.843 13.258 24.387 24.387 0 0 1 15.084-37.059"/><path fill="#fff" d="M67.308 20.876a.73.73 0 0 1 1.03 1.03L41.772 48.474a.73.73 0 0 1-1.03 0l-7.97-7.97a.73.73 0 0 1 1.03-1.03l7.455 7.454z"/></svg>