<svg xmlns="http://www.w3.org/2000/svg" width="113" height="113" fill="none"><path fill="#000" fill-rule="evenodd" d="M46.744 31.385c7.74 0 14.018 6.262 14.018 13.992 0 5.613-3.312 10.451-8.09 12.68C62.79 60.68 70.26 69.856 70.26 80.778a1 1 0 0 1-2 0c0-11.514-9.078-20.91-20.485-21.447a14 14 0 0 1-2.063.001c-11.406.538-20.482 9.933-20.482 21.445a1 1 0 0 1-2 0c0-10.92 7.469-20.096 17.585-22.718-4.777-2.23-8.088-7.068-8.088-12.681 0-7.73 6.277-13.992 14.017-13.992m0 2c-6.639 0-12.017 5.37-12.017 11.992 0 6.287 4.849 11.445 11.022 11.95a24 24 0 0 1 1.99 0c6.173-.504 11.023-5.663 11.023-11.95 0-6.621-5.379-11.992-12.018-11.992" clip-rule="evenodd"/><path fill="#000" d="M65.707 31.224c7.72 0 14.018 6.247 14.018 13.992 0 4.68-2.305 8.774-5.822 11.299C83.16 60.038 89.77 69.519 89.77 80.647a1 1 0 1 1-2 0c0-11.124-7.093-20.343-16.51-22.892a1 1 0 0 1-.185-1.86c3.944-1.967 6.65-5.985 6.65-10.68 0-6.633-5.396-11.991-12.018-11.991a1 1 0 1 1 0-2"/></svg>