<svg width="112" height="112" viewBox="0 0 112 112" fill="none" xmlns="http://www.w3.org/2000/svg">
<path d="M34 15H78C88.4934 15 97 23.5066 97 34V78C97 88.4934 88.4934 97 78 97H34C23.5066 97 15 88.4934 15 78V34C15 23.5066 23.5066 15 34 15Z" stroke="url(#paint0_linear_385_6757)" stroke-width="2"/>
<path d="M56.999 26.625H55.999C55.0783 26.625 54.1653 26.7813 53.3008 27.0859L52.9326 27.2256C51.9611 27.6221 51.079 28.2034 50.3369 28.9346C49.595 29.6657 49.0072 30.5331 48.6064 31.4863C48.2057 32.4396 47.9991 33.4613 47.999 34.4922C47.999 35.3943 48.157 36.2895 48.4648 37.1377L48.6064 37.499C49.0072 38.4522 49.595 39.3197 50.3369 40.0508C50.9862 40.6905 51.7426 41.2157 52.5723 41.6025L52.9326 41.7598C53.9042 42.1563 54.9466 42.3603 55.999 42.3604H56.999V55H63.0586C63.1546 54.0319 63.3894 53.0805 63.7578 52.1777L63.9541 51.7285C64.4369 50.693 65.0926 49.7475 65.8936 48.9346L66.2441 48.5947C67.0821 47.8241 68.0463 47.2045 69.0947 46.7637L69.5479 46.5859C70.6143 46.1987 71.7402 46 72.876 46C74.1738 46 75.459 46.26 76.6572 46.7637L77.1006 46.9629C78.1241 47.4543 79.0572 48.1215 79.8584 48.9346L80.1934 49.291C80.952 50.1408 81.5613 51.1175 81.9941 52.1777C82.3626 53.0804 82.5973 54.0319 82.6934 55H98.001V57H80.7432V56C80.7431 54.9475 80.5391 53.9052 80.1426 52.9336C79.7956 52.0837 79.3075 51.3022 78.7012 50.623L78.4336 50.3379C77.7938 49.6887 77.05 49.1567 76.2354 48.7656L75.8818 48.6074C74.9285 48.2067 73.907 48 72.876 48C71.9737 48 71.0788 48.1578 70.2305 48.4658L69.8701 48.6074C69.036 48.9581 68.2674 49.4514 67.5986 50.0664L67.3184 50.3379C66.6786 50.9872 66.1534 51.7436 65.7666 52.5732L65.6094 52.9336C65.2129 53.9052 65.0088 54.9475 65.0088 56V57H57.001V66.6758C57.8065 66.7557 58.6004 66.931 59.3643 67.2002L59.8232 67.374C61.0351 67.8687 62.1373 68.5944 63.0664 69.5098C63.9956 70.4253 64.7336 71.5137 65.2373 72.7119C65.7409 73.9099 66.0009 75.1946 66.001 76.4922C66.001 77.6277 65.8021 78.754 65.415 79.8203L65.2373 80.2734C64.7336 81.4715 63.9955 82.5601 63.0664 83.4756C62.2535 84.2764 61.3079 84.9323 60.2725 85.415L59.8232 85.6113C58.9206 85.9797 57.9691 86.2135 57.001 86.3096V97.25H55.001V84.3604H56.001C57.0534 84.3603 58.0958 84.1563 59.0674 83.7598L59.4277 83.6025C60.2574 83.2157 61.0138 82.6905 61.6631 82.0508C62.405 81.3197 62.9928 80.4522 63.3936 79.499L63.5352 79.1377C63.843 78.2895 64.001 77.3942 64.001 76.4922C64.0009 75.4613 63.7943 74.4396 63.3936 73.4863C62.9927 72.5331 62.4051 71.6657 61.6631 70.9346C60.9209 70.2033 60.0389 69.6221 59.0674 69.2256L58.6992 69.0859C57.8347 68.7813 56.9217 68.625 56.001 68.625H55.001V57H48.9424L48.8994 57.3623C48.7851 58.2052 48.5655 59.0324 48.2432 59.8223C47.8104 60.8825 47.2011 61.8592 46.4424 62.709L46.1074 63.0654C45.3062 63.8786 44.3732 64.5457 43.3496 65.0371L42.9062 65.2363C41.708 65.74 40.4229 66 39.125 66C37.9892 66 36.8634 65.8013 35.7969 65.4141L35.3438 65.2363C34.2954 64.7956 33.3311 64.1759 32.4932 63.4053L32.1426 63.0654C31.3416 62.2525 30.6859 61.307 30.2031 60.2715L30.0068 59.8223C29.6384 58.9195 29.4037 57.9681 29.3076 57H14V55H31.2578V56C31.2579 57.0525 31.4619 58.0948 31.8584 59.0664L32.0156 59.4268C32.4024 60.2564 32.9277 61.0129 33.5674 61.6621L33.8477 61.9336C34.5164 62.5486 35.2851 63.0419 36.1191 63.3926L36.4795 63.5342C37.3278 63.8422 38.2228 64 39.125 64C40.1561 64 41.1774 63.7934 42.1309 63.3926L42.4844 63.2344C43.299 62.8432 44.0428 62.3114 44.6826 61.6621L44.9502 61.377C45.5565 60.6978 46.0447 59.9163 46.3916 59.0664C46.7881 58.0948 46.9921 57.0525 46.9922 56V55H54.999V44.3096C54.0309 44.2135 53.0794 43.9797 52.1768 43.6113L51.7275 43.415C50.6921 42.9323 49.7465 42.2765 48.9336 41.4756C48.0044 40.56 47.2664 39.4716 46.7627 38.2734L46.585 37.8203C46.1979 36.7539 45.999 35.6278 45.999 34.4922C45.9991 33.1945 46.2591 31.91 46.7627 30.7119C47.2664 29.5138 48.0044 28.4253 48.9336 27.5098C49.8626 26.5945 50.9649 25.8687 52.1768 25.374L52.6357 25.2002C53.3996 24.931 54.1935 24.7557 54.999 24.6758V14H56.999V26.625Z" fill="url(#paint1_linear_385_6757)"/>
<defs>
<linearGradient id="paint0_linear_385_6757" x1="56" y1="14" x2="56" y2="100.423" gradientUnits="userSpaceOnUse">
<stop stop-color="#A34DEE"/>
<stop offset="1" stop-color="#6943F5"/>
</linearGradient>
<linearGradient id="paint1_linear_385_6757" x1="56.0005" y1="14" x2="56.0005" y2="99.6514" gradientUnits="userSpaceOnUse">
<stop stop-color="#A34DEE"/>
<stop offset="1" stop-color="#6943F5"/>
</linearGradient>
</defs>
</svg>
