<svg xmlns="http://www.w3.org/2000/svg" width="113" height="113" fill="none"><path fill="#fff" fill-rule="evenodd" d="M58.364 23.733a2.86 2.86 0 0 0-2.851-.003L27.89 39.568a2.86 2.86 0 0 0-1.437 2.48V73.37c0 1.021.545 1.965 1.43 2.475l27.516 15.887.169.09a2.86 2.86 0 0 0 2.69-.09L85.76 75.844a2.86 2.86 0 0 0 1.43-2.475l-.002-31.346a2.86 2.86 0 0 0-1.268-2.375l-.162-.1zM85.283 73.37c0 .34-.182.655-.477.825L57.772 89.812V58.346l27.51-15.913zM55.867 58.346v31.455L28.835 74.195a.95.95 0 0 1-.476-.825V42.434zm13.775-9.068L56.82 56.696 29.456 40.867l12.853-7.37zm-13.18-23.896a.95.95 0 0 1 .95.002l26.795 15.47-12.66 7.323L44.221 32.4z" clip-rule="evenodd"/></svg>