<svg width="112" height="112" viewBox="0 0 112 112" fill="none" xmlns="http://www.w3.org/2000/svg">
<path fill-rule="evenodd" clip-rule="evenodd" d="M57.2266 37.5234V84.3516L57.2207 84.4121C57.1928 84.5489 57.0718 84.6523 56.9268 84.6523C56.7817 84.6523 56.6607 84.5489 56.6328 84.4121L56.627 84.3516C56.6269 81.7699 55.6009 79.2943 53.7754 77.4688C51.9498 75.6431 49.4734 74.6172 46.8916 74.6172H23.4775C23.312 74.6171 23.1779 74.4829 23.1777 74.3174V24.1436C23.1777 23.9987 23.2804 23.8777 23.417 23.8496L23.4775 23.8438H43.5469C47.1749 23.8438 50.6543 25.2852 53.2197 27.8506C55.7852 30.416 57.2266 33.8954 57.2266 37.5234ZM54.2002 77.0439C55.2941 78.1378 56.1172 79.452 56.627 80.8818V37.5234C56.627 34.0545 55.2488 30.7273 52.7959 28.2744C50.343 25.8215 47.0158 24.4434 43.5469 24.4434H23.7773V74.0176H46.8916C49.6325 74.0176 52.2621 75.1058 54.2002 77.0439ZM57.3007 37.5308V84.359L57.3066 84.4195C57.3345 84.5563 57.4555 84.6598 57.6005 84.6598C57.7456 84.6598 57.8666 84.5563 57.8945 84.4195L57.9003 84.359C57.9004 81.7773 58.9264 79.3017 60.7519 77.4762C62.5775 75.6505 65.0539 74.6246 67.6357 74.6246H91.0498C91.2153 74.6245 91.3494 74.4903 91.3496 74.3248V24.151C91.3496 24.0061 91.2469 23.8851 91.1103 23.857L91.0498 23.8512H70.9804C67.3524 23.8512 63.873 25.2926 61.3076 27.858C58.7421 30.4234 57.3007 33.9028 57.3007 37.5308ZM60.3271 77.0514C59.2332 78.1453 58.4101 79.4594 57.9003 80.8892V37.5308C57.9003 34.0619 59.2785 30.7347 61.7314 28.2818C64.1843 25.8289 67.5115 24.4508 70.9804 24.4508H90.75V74.025H67.6357C64.8948 74.025 62.2652 75.1132 60.3271 77.0514Z" fill="url(#paint0_linear_966_90324)"/>
<path fill-rule="evenodd" clip-rule="evenodd" d="M43.5468 23.0039C47.397 23.0039 51.0895 24.5334 53.8119 27.2559C55.38 28.824 56.5524 30.7139 57.2646 32.7704C57.9771 30.7167 59.1484 28.8295 60.7147 27.2633C63.4372 24.5408 67.1297 23.0113 70.9798 23.0113H91.0493C91.6775 23.0113 92.1868 23.5206 92.1868 24.1488V74.3224C92.1868 74.9506 91.6775 75.4599 91.0493 75.4599H67.6349C65.2752 75.4599 63.0122 76.3973 61.3436 78.0659C59.6751 79.7344 58.7377 81.9975 58.7377 84.3571C58.7377 84.9854 58.2284 85.4946 57.6002 85.4946C57.4785 85.4946 57.3613 85.4755 57.2514 85.4401C57.1484 85.4708 57.0393 85.4872 56.9264 85.4872C56.2982 85.4872 55.7889 84.978 55.7889 84.3497C55.7889 81.99 54.8515 79.727 53.183 78.0584C51.5144 76.3899 49.2514 75.4525 46.8917 75.4525H23.4773C22.8491 75.4525 22.3398 74.9432 22.3398 74.315V24.1414C22.3398 23.5132 22.8491 23.0039 23.4773 23.0039H43.5468ZM54.7916 76.4498C55.1516 76.8097 55.4845 77.1917 55.7889 77.5926V37.521C55.7889 34.2742 54.4991 31.1604 52.2033 28.8645C49.9074 26.5687 46.7936 25.2789 43.5468 25.2789H24.6148V73.1775H46.8917C49.8548 73.1775 52.6965 74.3546 54.7916 76.4498ZM59.735 76.4572C59.375 76.8171 59.0421 77.1991 58.7377 77.6V37.5284C58.7377 34.2816 60.0275 31.1678 62.3233 28.8719C64.6192 26.5761 67.733 25.2863 70.9798 25.2863H89.9118V73.1849H67.6349C64.6719 73.1849 61.8302 74.362 59.735 76.4572Z" fill="url(#paint1_linear_966_90324)"/>
<defs>
<linearGradient id="paint0_linear_966_90324" x1="57.2636" y1="23.8438" x2="57.2636" y2="84.6598" gradientUnits="userSpaceOnUse">
<stop stop-color="#505BFD"/>
<stop offset="1" stop-color="#B542FD"/>
</linearGradient>
<linearGradient id="paint1_linear_966_90324" x1="57.2633" y1="23.0039" x2="57.2633" y2="85.4946" gradientUnits="userSpaceOnUse">
<stop stop-color="#505BFD"/>
<stop offset="1" stop-color="#B542FD"/>
</linearGradient>
</defs>
</svg>
