<svg width="112" height="112" viewBox="0 0 112 112" fill="none" xmlns="http://www.w3.org/2000/svg">
<path d="M99.6104 18.0049C101.724 18.1121 103.404 19.86 103.404 22V73.8301L103.399 74.0352C103.296 76.0806 101.656 77.7204 99.6104 77.8242L99.4043 77.8301H47V91.3828H61.1699V83.4893H63.1699V91.3828H87.2334V93.3828H22.5527V91.3828H45V77.8301H12L11.7939 77.8242C9.74859 77.7204 8.10832 76.0806 8.00488 74.0352L8 73.8301V22C8 19.86 9.68056 18.1121 11.7939 18.0049L12 18H99.4043L99.6104 18.0049ZM12 20C10.8954 20 10 20.8954 10 22V73.8301C10.0002 74.9345 10.8955 75.8301 12 75.8301H99.4043C100.509 75.8301 101.404 74.9345 101.404 73.8301V22C101.404 20.8954 100.509 20 99.4043 20H12ZM40.1377 32.1699C41.3525 32.1701 42.3377 33.1553 42.3379 34.3701V35.9053C43.5155 36.2369 44.6271 36.7263 45.6475 37.3486L46.4268 36.5703L46.5938 36.4199C47.4002 35.7622 48.5646 35.7623 49.3711 36.4199L49.5381 36.5713L51.542 38.5752L51.6934 38.7422C52.3979 39.6064 52.3475 40.8812 51.542 41.6865L50.5752 42.6514C50.9736 43.4283 51.298 44.2502 51.5391 45.1064H53.0732C54.288 45.1066 55.2733 46.0919 55.2734 47.3066V50.1406C55.2732 51.3554 54.288 52.3406 53.0732 52.3408H51.5381C51.2063 53.5191 50.7166 54.6306 50.0938 55.6514L51.3125 56.8701C52.1176 57.6756 52.1686 58.9505 51.4639 59.8145L51.3125 59.9814L49.3086 61.9854C48.4495 62.8441 47.0563 62.843 46.1973 61.9844L44.79 60.5771C44.014 60.9752 43.1934 61.2991 42.3379 61.54V63.0762C42.3377 64.2909 41.3524 65.2762 40.1377 65.2764H37.3037C36.0889 65.2762 35.1037 64.2909 35.1035 63.0762V61.541C34.2474 61.3002 33.4254 60.9764 32.6484 60.5781L31.2441 61.9844C30.4388 62.7899 29.164 62.8403 28.2998 62.1357L28.1328 61.9854L26.1289 59.9814C25.27 59.1224 25.2691 57.7293 26.1279 56.8701L27.3457 55.6514C26.7232 54.6306 26.2339 53.5187 25.9023 52.3408H24.3672C23.1524 52.3407 22.1672 51.3554 22.167 50.1406V47.3066C22.1671 46.0918 23.1524 45.1066 24.3672 45.1064H25.9023C26.1431 44.2504 26.466 43.4283 26.8643 42.6514L25.8994 41.6865C25.0407 40.8275 25.0397 39.4343 25.8984 38.5752L27.9023 36.5713L28.0693 36.4199C28.8757 35.7622 30.0402 35.7623 30.8467 36.4199L31.0137 36.5713L31.791 37.3486C32.8124 36.7257 33.9249 36.2369 35.1035 35.9053V34.3701C35.1037 33.1553 36.0889 32.1701 37.3037 32.1699H40.1377ZM37.2637 34.1738C37.1725 34.1924 37.1037 34.2735 37.1035 34.3701V37.3477L37.0908 37.4189C37.0656 37.4852 37.0052 37.5351 36.9316 37.5469L36.5674 37.6113C34.7568 37.9598 33.0992 38.7385 31.707 39.8389L31.6416 39.874C31.5953 39.8884 31.5444 39.8854 31.5 39.8662L31.4385 39.8242L29.5996 37.9854C29.5215 37.9075 29.3944 37.9073 29.3164 37.9854L27.3135 39.9893C27.2355 40.0673 27.2357 40.1943 27.3135 40.2725L29.2588 42.2178C29.3263 42.2859 29.3362 42.3927 29.2832 42.4727L29.1221 42.7227C28.3335 43.9818 27.7864 45.4074 27.5439 46.9346L27.5205 47.0029C27.4972 47.0443 27.4603 47.0769 27.416 47.0938L27.3447 47.1064H24.3672L24.3271 47.1104C24.236 47.1289 24.1671 47.21 24.167 47.3066V50.1406C24.1672 50.2372 24.2361 50.3183 24.3271 50.3369L24.3672 50.3408H27.3447C27.444 50.341 27.5292 50.4147 27.5449 50.5127C27.855 52.4648 28.6626 54.2516 29.8359 55.7363C29.8991 55.8168 29.8937 55.9324 29.8213 56.0049L27.543 58.2842C27.465 58.3622 27.4651 58.4893 27.543 58.5674L29.5469 60.5703C29.6153 60.6384 29.7213 60.6471 29.7988 60.5957L29.8301 60.5703L32.2148 58.1846C32.2828 58.1168 32.3896 58.1073 32.4697 58.1602C33.7889 59.0355 35.3026 59.6408 36.9316 59.8994C37.0296 59.9152 37.1034 59.9994 37.1035 60.0986V63.0762C37.1037 63.1727 37.1726 63.2539 37.2637 63.2725L37.3037 63.2764H40.1377L40.1777 63.2725C40.256 63.2565 40.3181 63.1945 40.334 63.1162L40.3379 63.0762V60.0986C40.338 59.9993 40.4117 59.9141 40.5098 59.8984C42.1384 59.6397 43.6508 59.0344 44.9697 58.1592C45.0497 58.1062 45.1565 58.116 45.2246 58.1836L47.6113 60.5703C47.6798 60.6384 47.7858 60.6471 47.8633 60.5957L47.8945 60.5703L49.8984 58.5674C49.9668 58.4991 49.9751 58.3931 49.9238 58.3154L49.8984 58.2842L47.6191 56.0049C47.5469 55.9323 47.5411 55.8168 47.6045 55.7363C48.7782 54.2514 49.5864 52.4651 49.8965 50.5127C49.9083 50.4391 49.9591 50.3787 50.0254 50.3535L50.0967 50.3408H53.0732L53.1133 50.3369C53.1916 50.321 53.2536 50.2589 53.2695 50.1807L53.2734 50.1406V47.3066C53.2733 47.2101 53.2044 47.129 53.1133 47.1104L53.0732 47.1064H50.0967L50.0254 47.0938C49.9813 47.077 49.9442 47.0441 49.9209 47.0029L49.8975 46.9346C49.655 45.4075 49.107 43.9817 48.3184 42.7227L48.1572 42.4727C48.1043 42.3926 48.1139 42.2858 48.1816 42.2178L50.1279 40.2725C50.1963 40.2041 50.2046 40.0981 50.1533 40.0205L50.1279 39.9893L48.124 37.9854C48.0459 37.9076 47.9188 37.9074 47.8408 37.9854L46.001 39.8242L45.9395 39.8662C45.8951 39.8855 45.8442 39.8884 45.7979 39.874L45.7324 39.8389C44.3404 38.7389 42.6832 37.9598 40.873 37.6113L40.5098 37.5479C40.4363 37.5361 40.3758 37.4851 40.3506 37.4189L40.3379 37.3477V34.3701C40.3378 34.2736 40.2688 34.1924 40.1777 34.1738L40.1377 34.1699H37.3037L37.2637 34.1738ZM74.8301 48.751C77.1717 48.8701 79.0933 50.5769 79.541 52.8164H87.9912V54.8164H79.543C79.0786 57.1388 77.0274 58.8885 74.5684 58.8887L74.3076 58.8828C71.7141 58.7514 69.6348 56.6715 69.5029 54.0781L69.4961 53.8164C69.4962 51.0151 71.7671 48.7443 74.5684 48.7441L74.8301 48.751ZM74.5684 50.7441C72.8717 50.7443 71.4962 52.1197 71.4961 53.8164C71.4962 55.5131 72.8717 56.8885 74.5684 56.8887C76.265 56.8884 77.6405 55.513 77.6406 53.8164C77.6405 52.1198 76.265 50.7444 74.5684 50.7441ZM38.7217 42.2549C42.1821 42.2551 45.0084 44.9732 45.1816 48.3906L45.1904 48.7236C45.1901 52.1839 42.4719 55.0093 39.0547 55.1826L38.7217 55.1914C35.15 55.191 32.2543 52.2953 32.2539 48.7236L32.2627 48.3906C32.4303 45.0836 35.0818 42.4318 38.3887 42.2637L38.7217 42.2549ZM83.7793 37.4102C86.3727 37.5418 88.4523 39.6215 88.584 42.2148L88.5908 42.4766C88.5905 45.2776 86.3195 47.5485 83.5186 47.5488L83.2568 47.542C80.9152 47.4231 78.9929 45.7159 78.5449 43.4766H70.0889C68.4989 43.4766 67.21 44.7655 67.21 46.3555V54.1133H65.21V46.3555C65.21 43.6609 67.3943 41.4766 70.0889 41.4766H78.5439C79.0082 39.1538 81.0592 37.4043 83.5186 37.4043L83.7793 37.4102ZM38.7217 44.2549C36.2544 44.2553 34.254 46.2563 34.2539 48.7236C34.2543 51.1907 36.2546 53.191 38.7217 53.1914C41.1889 53.1912 43.1901 51.1909 43.1904 48.7236C43.1904 46.2561 41.1891 44.2551 38.7217 44.2549ZM83.5186 39.4043C81.8217 39.4043 80.4463 40.7797 80.4463 42.4766C80.4466 44.1732 81.8218 45.5488 83.5186 45.5488C85.215 45.5485 86.5905 44.173 86.5908 42.4766C86.5908 40.7799 85.2152 39.4046 83.5186 39.4043Z" fill="url(#paint0_linear_385_6609)"/>
<defs>
<linearGradient id="paint0_linear_385_6609" x1="55.7021" y1="18" x2="55.7022" y2="95.5573" gradientUnits="userSpaceOnUse">
<stop stop-color="#A34DEE"/>
<stop offset="1" stop-color="#6943F5"/>
</linearGradient>
</defs>
</svg>
