<svg xmlns="http://www.w3.org/2000/svg" width="112" height="112" fill="none"><mask id="a" width="76" height="74" x="22" y="19" maskUnits="userSpaceOnUse" style="mask-type:alpha"><path fill="#000" d="M53.621 19.074a1 1 0 0 1 .876.059l7.75 4.443 4.46 2.557 3.29 1.887 7.75 4.443 7.75 4.444a1 1 0 0 1 .503.867v21.462a19 19 0 0 0-2-.21v-19.57L55 55.228v33.046l9.603-5.506q.259.996.62 1.949l-10.726 6.15a1 1 0 0 1-.994 0l-31-17.774a1 1 0 0 1-.503-.867V37.774a1 1 0 0 1 .503-.867l31-17.774zM24 71.647l29 16.627V55.228l-7.227-3.93-15.5-8.43L24 39.456zm37.506-33.133c-2.274 1.201-5.038 2.381-7.892 2.013l-.276-.04c-.412-.068-1.092-.296-1.819-.659l-10.976 6.35 2.31 1.256 3.874 2.107L54 53.496l28.95-15.745-6.196-3.553-3.397-1.948zM25.05 37.75l6.177 3.36 3.875 2.108 3.382 1.839 10.997-6.362c-.518-.322-1.085-.734-1.554-1.276-.514-.594-.917-1.348-1.01-2.29-.093-.933.127-1.955.688-3.077 1.021-2.041 2.165-3.948 3.051-5.34a66 66 0 0 1 1.412-2.127l.086-.123.024-.032.006-.01.002-.001v-.001a1 1 0 0 1 1.351-.263l5.5 3.5a1 1 0 0 1 .325 1.35l-.057.087v.002l-.004.004-.014.02-.056.075-.214.298c-.184.258-.447.628-.754 1.078l5.964-3.554-2.974-1.704-7.254-4.16zM55.9 34.308c-.65 1.14-1.208 2.255-1.517 3.163-.167.49-.237.855-.242 1.1 2.101.178 4.282-.69 6.43-1.826l10.73-5.673-2.3-1.317-2.783-1.597zm-2.624-7.946c-.248.368-.569.852-.933 1.425-.864 1.358-1.97 3.201-2.95 5.16-.438.878-.533 1.52-.487 1.986.046.456.235.835.533 1.178.307.356.722.664 1.19.948.232.14.467.268.7.393.223.12.464.249.67.367l.201.11c.062-.364.166-.737.29-1.103.408-1.199 1.137-2.597 1.896-3.893a61 61 0 0 1 2.225-3.49c.169-.246.326-.468.463-.664z"/><circle cx="83" cy="78" r="14" stroke="#000" stroke-linejoin="round" stroke-width="2"/><path stroke="#000" stroke-linejoin="round" stroke-width="2" d="M76.411 77.998h13.177M83.004 71.413V84.59"/></mask><g mask="url(#a)"><path fill="url(#b)" d="M112 107H0V3h112z"/></g><defs><linearGradient id="b" x1="56" x2="56" y1="107" y2="0" gradientUnits="userSpaceOnUse"><stop stop-color="#A34DEE"/><stop offset="1" stop-color="#6943F5"/></linearGradient></defs></svg>