<svg width="112" height="112" viewBox="0 0 112 112" fill="none" xmlns="http://www.w3.org/2000/svg">
<path d="M54.5869 24.168L57.999 24.1689V14.6973H97.8848V54.583H88.4131V57.998H97.8848V97.8838H57.999V88.4111L54.5869 88.4092V97.8799H44.1152V95.8799H52.5869V86.4082H53.5879L59 86.4121L59.999 86.4131V95.8838H95.8848V59.998H86.4131V52.583H95.8848V16.6973H59.999V26.1689L52.5869 26.168V16.6963H44.1152V14.6963H54.5869V24.168ZM25.1729 16.6963H16.7012V52.582H52.5869V43.1104L59.999 43.1113V52.583H69.083V59.998H59.999V69.4697H58.999L53.5859 69.4658L52.5869 69.4648V59.9941H16.7012V95.8799H25.1729V97.8799H14.7012V57.9941H54.5869V67.4668L57.999 67.4688V57.998H67.083V54.583H57.999V45.1113L54.5869 45.1104V54.582H14.7012V14.6963H25.1729V16.6963Z" fill="url(#paint0_linear_385_6891)"/>
<defs>
<linearGradient id="paint0_linear_385_6891" x1="56.2905" y1="14.6982" x2="56.2905" y2="100.281" gradientUnits="userSpaceOnUse">
<stop stop-color="#A34DEE"/>
<stop offset="1" stop-color="#6943F5"/>
</linearGradient>
</defs>
</svg>
