<svg xmlns="http://www.w3.org/2000/svg" width="113" height="112" fill="none"><g fill="#fff" clip-path="url(#a)"><path fill-rule="evenodd" d="M57.127 31.89c6.48.164 11.683 5.47 11.683 11.99l-.004.309c-.154 6.061-4.805 11.005-10.741 11.618v32.634a.927.927 0 0 1-1.854 0V55.857c-6.239-.31-11.223-5.39-11.383-11.668l-.003-.31c0-6.623 5.37-11.992 11.993-11.992zm-.31 1.85c-5.599 0-10.14 4.54-10.14 10.14.001 5.599 4.541 10.138 10.14 10.138s10.139-4.54 10.14-10.138c0-5.6-4.54-10.14-10.14-10.14" clip-rule="evenodd"/><path d="M31.768 22.96a.927.927 0 0 1 1.394 1.221c-2.755 3.144-4.586 5.957-5.736 8.956s-1.641 6.238-1.641 10.267c0 4.03.491 7.27 1.64 10.268 1.08 2.812 2.756 5.46 5.231 8.37l.506.586.059.074a.927.927 0 0 1-1.387 1.215l-.066-.068-.524-.606c-2.567-3.02-4.375-5.846-5.549-8.907-1.253-3.267-1.763-6.747-1.763-10.932 0-4.184.51-7.664 1.763-10.931 1.253-3.265 3.226-6.264 6.073-9.514M80.565 22.863a.927.927 0 0 1 1.241.018l.066.067.524.607c2.568 3.02 4.375 5.846 5.55 8.907 1.252 3.267 1.763 6.747 1.763 10.932 0 4.184-.51 7.664-1.764 10.931-1.252 3.265-3.225 6.263-6.073 9.514a.927.927 0 0 1-1.393-1.222c2.754-3.144 4.586-5.957 5.736-8.956s1.64-6.239 1.64-10.267c0-4.03-.49-7.27-1.64-10.268-1.078-2.812-2.755-5.46-5.23-8.37l-.506-.586-.06-.074a.927.927 0 0 1 .146-1.233M39.388 31.157a.927.927 0 0 1 1.379 1.238c-1.634 1.822-2.702 3.431-3.37 5.133-.667 1.699-.957 3.548-.957 5.876 0 2.327.29 4.175.957 5.874.584 1.49 1.476 2.908 2.784 4.46l.586.673.06.074a.927.927 0 0 1-1.373 1.23l-.066-.066-.319-.36c-1.56-1.792-2.672-3.486-3.397-5.334-.774-1.973-1.086-4.065-1.086-6.551 0-2.488.312-4.58 1.086-6.553.774-1.97 1.988-3.767 3.716-5.694M72.936 31.08a.927.927 0 0 1 1.243.003l.066.067.318.36c1.56 1.792 2.672 3.486 3.397 5.334.775 1.973 1.086 4.064 1.086 6.551s-.311 4.58-1.086 6.553c-.773 1.97-1.988 3.767-3.715 5.694a.927.927 0 0 1-1.38-1.238c1.634-1.822 2.703-3.432 3.37-5.133.668-1.7.958-3.548.958-5.876 0-2.327-.29-4.175-.957-5.875-.585-1.488-1.476-2.907-2.784-4.459l-.586-.673-.06-.074a.926.926 0 0 1 .13-1.235"/></g><defs><clipPath id="a"><path fill="#fff" d="M.82 0h112v112H.82z"/></clipPath></defs></svg>