<svg xmlns="http://www.w3.org/2000/svg" width="112" height="112" fill="none"><path fill="url(#a)" fill-rule="evenodd" d="M50.385 21.883c17.842 0 32.307 14.461 32.307 32.303a1.138 1.138 0 0 1-2.277 0c0-16.585-13.444-30.03-30.03-30.03s-30.029 13.445-30.03 30.03c0 16.587 13.446 30.03 29.993 30.03 3.764 0 7.343-.695 10.631-1.937h.011l1.026-.403c2.372-.986 4.582-2.294 6.602-3.833.093-.07.195-.12.3-.16a14 14 0 0 1-.063-1.362c0-7.496 6.078-13.574 13.574-13.574 7.496.001 13.575 6.078 13.575 13.574s-6.08 13.573-13.575 13.575l-.003-.004c-6.185-.002-11.403-4.139-13.038-9.797-2.312 1.683-4.856 3.101-7.613 4.117l-.004-.004a32.3 32.3 0 0 1-11.423 2.085c-17.805 0-32.266-14.465-32.266-32.307s14.462-32.303 32.303-32.303M75.498 85.43a11.23 11.23 0 0 0 5.79 2.33v-7.006zm8.064 2.33a11.23 11.23 0 0 0 5.806-2.34l-5.806-4.67zM81.29 65.275c-5.706.571-10.16 5.39-10.16 11.245 0 2.799 1.02 5.355 2.706 7.328l7.454-6.017zm2.273 12.552 7.465 6.006a11.25 11.25 0 0 0 2.7-7.313c0-5.857-4.458-10.675-10.165-11.245z" clip-rule="evenodd"/><path fill="url(#b)" d="M37.88 62.018a1.14 1.14 0 0 1 1.438-.06l.166.16.519.555c2.653 2.718 6.307 4.443 10.382 4.443 4.348 0 8.22-1.96 10.905-4.999a1.135 1.135 0 1 1 1.703 1.504c-3.078 3.483-7.552 5.769-12.608 5.769-4.739 0-8.965-2.008-12.012-5.129l-.592-.64-.137-.185a1.14 1.14 0 0 1 .237-1.419"/><path fill="url(#c)" d="M40.565 41.94a2.504 2.504 0 0 1 0 5.007 2.5 2.5 0 0 1-2.499-2.503 2.5 2.5 0 0 1 2.5-2.503"/><path fill="url(#d)" d="M60.094 41.94a2.504 2.504 0 0 1 0 5.007 2.504 2.504 0 0 1 0-5.006"/><defs><linearGradient id="a" x1="57.043" x2="57.043" y1="21.883" y2="90.096" gradientUnits="userSpaceOnUse"><stop stop-color="#505BFD"/><stop offset="1" stop-color="#B542FD"/></linearGradient><linearGradient id="b" x1="57.043" x2="57.043" y1="21.883" y2="90.096" gradientUnits="userSpaceOnUse"><stop stop-color="#505BFD"/><stop offset="1" stop-color="#B542FD"/></linearGradient><linearGradient id="c" x1="57.043" x2="57.043" y1="21.883" y2="90.096" gradientUnits="userSpaceOnUse"><stop stop-color="#505BFD"/><stop offset="1" stop-color="#B542FD"/></linearGradient><linearGradient id="d" x1="57.043" x2="57.043" y1="21.883" y2="90.096" gradientUnits="userSpaceOnUse"><stop stop-color="#505BFD"/><stop offset="1" stop-color="#B542FD"/></linearGradient></defs></svg>