<svg width="112" height="112" viewBox="0 0 112 112" fill="none" xmlns="http://www.w3.org/2000/svg">
<path fill-rule="evenodd" clip-rule="evenodd" d="M34.0894 37.5804C34.0894 30.3295 39.9673 24.4516 47.2182 24.4516C54.469 24.4516 60.347 30.3295 60.347 37.5804C60.347 44.8312 54.469 50.7092 47.2182 50.7092C39.9673 50.7092 34.0894 44.8312 34.0894 37.5804ZM47.2182 23.8516C39.636 23.8516 33.4894 29.9982 33.4894 37.5804C33.4894 45.1626 39.636 51.3092 47.2182 51.3092C54.8004 51.3092 60.947 45.1626 60.947 37.5804C60.947 29.9982 54.8004 23.8516 47.2182 23.8516ZM70.428 24.5132C70.4691 24.3527 70.6325 24.2559 70.793 24.297C73.7461 25.0531 76.3636 26.7706 78.2328 29.1786C80.102 31.5867 81.1166 34.5484 81.1166 37.5968C81.1166 40.6452 80.102 43.6068 78.2328 46.0149C76.3636 48.423 73.7461 50.1405 70.793 50.8966C70.6325 50.9377 70.4691 50.8409 70.428 50.6804C70.3869 50.5199 70.4837 50.3564 70.6442 50.3153C73.4683 49.5922 75.9713 47.9498 77.7588 45.647C79.5463 43.3442 80.5166 40.5119 80.5166 37.5968C80.5166 34.6816 79.5463 31.8494 77.7588 29.5465C75.9713 27.2437 73.4683 25.6013 70.6442 24.8782C70.4837 24.8371 70.3869 24.6737 70.428 24.5132ZM33.7894 64.138C30.1483 64.138 26.6563 65.5844 24.0816 68.1591C21.507 70.7338 20.0605 74.2257 20.0605 77.8668V84.5812C20.0605 84.7469 20.1949 84.8812 20.3605 84.8812C20.5262 84.8812 20.6605 84.7469 20.6605 84.5812V77.8668C20.6605 74.3849 22.0438 71.0455 24.5059 68.5834C26.968 66.1212 30.3074 64.738 33.7894 64.738H60.647C64.129 64.738 67.4684 66.1212 69.9305 68.5834C72.3926 71.0455 73.7758 74.3849 73.7758 77.8668V84.5812C73.7758 84.7469 73.9101 84.8812 74.0758 84.8812C74.2415 84.8812 74.3758 84.7469 74.3758 84.5812V77.8668C74.3758 74.2257 72.9294 70.7338 70.3547 68.1591C67.7801 65.5844 64.2881 64.138 60.647 64.138H33.7894ZM84.2224 64.5836C84.062 64.5422 83.8984 64.6386 83.857 64.7991C83.8155 64.9595 83.912 65.1231 84.0724 65.1645C86.889 65.8918 89.3843 67.5338 91.1665 69.8329C92.9487 72.1319 93.9169 74.9577 93.919 77.8667V84.5809C93.919 84.7465 94.0534 84.8809 94.219 84.8809C94.3847 84.8809 94.5191 84.7465 94.5191 84.5809V77.8664L94.519 77.8662C94.5168 74.8244 93.5043 71.8694 91.6407 69.4653C89.777 67.0611 87.1677 65.3441 84.2224 64.5836Z" fill="url(#paint0_linear_577_15119)"/>
<path fill-rule="evenodd" clip-rule="evenodd" d="M47.2178 23.0078C39.173 23.0078 32.6515 29.5294 32.6515 37.5741C32.6515 45.6189 39.173 52.1405 47.2178 52.1405C55.2626 52.1405 61.7841 45.6189 61.7841 37.5741C61.7841 29.5294 55.2626 23.0078 47.2178 23.0078ZM34.9265 37.5741C34.9265 30.7858 40.4295 25.2828 47.2178 25.2828C54.0061 25.2828 59.5091 30.7858 59.5091 37.5741C59.5091 44.3624 54.0061 49.8654 47.2178 49.8654C40.4295 49.8654 34.9265 44.3624 34.9265 37.5741Z" fill="url(#paint1_linear_577_15119)"/>
<path d="M69.6163 24.2992C69.7721 23.6906 70.3918 23.3236 71.0004 23.4794C74.1336 24.2816 76.9108 26.1039 78.894 28.6589C80.8772 31.2138 81.9537 34.3562 81.9537 37.5905C81.9537 40.8249 80.8772 43.9672 78.894 46.5222C76.9108 49.0772 74.1336 50.8994 71.0004 51.7016C70.3918 51.8575 69.7721 51.4904 69.6163 50.8818C69.4604 50.2732 69.8275 49.6536 70.4361 49.4977C73.08 48.8208 75.4234 47.2831 77.0969 45.1272C78.7703 42.9713 79.6787 40.3197 79.6787 37.5905C79.6787 34.8613 78.7703 32.2098 77.0969 30.0538C75.4234 27.8979 73.08 26.3603 70.4361 25.6833C69.8275 25.5275 69.4604 24.9078 69.6163 24.2992Z" fill="url(#paint2_linear_577_15119)"/>
<path d="M33.789 63.2943C29.9257 63.2943 26.2207 64.8289 23.489 67.5606C20.7573 70.2924 19.2227 73.9974 19.2227 77.8606V84.575C19.2227 85.2032 19.7319 85.7125 20.3602 85.7125C20.9884 85.7125 21.4977 85.2032 21.4977 84.575V77.8606C21.4977 74.6007 22.7926 71.4744 25.0977 69.1693C27.4028 66.8642 30.5291 65.5693 33.789 65.5693H60.6466C63.9065 65.5693 67.0328 66.8642 69.3379 69.1693C71.643 71.4744 72.9379 74.6007 72.9379 77.8606V84.575C72.9379 85.2032 73.4472 85.7125 74.0754 85.7125C74.7037 85.7125 75.2129 85.2032 75.2129 84.575V77.8606C75.2129 73.9974 73.6783 70.2924 70.9466 67.5606C68.2148 64.8289 64.5098 63.2943 60.6466 63.2943H33.789Z" fill="url(#paint3_linear_577_15119)"/>
<path d="M84.4314 63.7664C83.8231 63.6094 83.2027 63.9752 83.0457 64.5834C82.8886 65.1917 83.2544 65.8121 83.8627 65.9692C86.4996 66.65 88.8357 68.1873 90.5042 70.3397C92.1727 72.4921 93.0791 75.1377 93.0812 77.861V84.5746C93.0812 85.2028 93.5904 85.7121 94.2187 85.7121C94.8469 85.7121 95.3562 85.2028 95.3562 84.5746V77.8602C95.3538 74.6328 94.2795 71.4967 92.3022 68.9459C90.3249 66.3951 87.5564 64.5733 84.4314 63.7664Z" fill="url(#paint4_linear_577_15119)"/>
<defs>
<linearGradient id="paint0_linear_577_15119" x1="57.2898" y1="23.8516" x2="57.2898" y2="84.8812" gradientUnits="userSpaceOnUse">
<stop stop-color="#505BFD"/>
<stop offset="1" stop-color="#B542FD"/>
</linearGradient>
<linearGradient id="paint1_linear_577_15119" x1="57.2894" y1="23.0078" x2="57.2894" y2="85.7125" gradientUnits="userSpaceOnUse">
<stop stop-color="#505BFD"/>
<stop offset="1" stop-color="#B542FD"/>
</linearGradient>
<linearGradient id="paint2_linear_577_15119" x1="57.2894" y1="23.0078" x2="57.2894" y2="85.7125" gradientUnits="userSpaceOnUse">
<stop stop-color="#505BFD"/>
<stop offset="1" stop-color="#B542FD"/>
</linearGradient>
<linearGradient id="paint3_linear_577_15119" x1="57.2894" y1="23.0078" x2="57.2894" y2="85.7125" gradientUnits="userSpaceOnUse">
<stop stop-color="#505BFD"/>
<stop offset="1" stop-color="#B542FD"/>
</linearGradient>
<linearGradient id="paint4_linear_577_15119" x1="57.2894" y1="23.0078" x2="57.2894" y2="85.7125" gradientUnits="userSpaceOnUse">
<stop stop-color="#505BFD"/>
<stop offset="1" stop-color="#B542FD"/>
</linearGradient>
</defs>
</svg>
