<svg xmlns="http://www.w3.org/2000/svg" width="112" height="112" fill="none"><mask id="b" width="63" height="80" x="26" y="16" maskUnits="userSpaceOnUse" style="mask-type:alpha"><path stroke="#000" stroke-width="2" d="M35.999 41h24M35.999 53h17M35.999 65h11"/><mask id="a" fill="#fff"><path d="M58.61 16a2 2 0 0 1 2 2v1.653h4.393a2 2 0 0 1 2 2v6.051a2 2 0 0 1-2 2h-23.41a2 2 0 0 1-2-2v-6.05a2 2 0 0 1 2-2h4.398V18a2 2 0 0 1 2-2z"/></mask><path fill="#000" d="M58.61 16v-2zm2 3.653h-2v2h2zm4.393 0v-2zm2 2h2zm-2 8.051v2zm-23.41 0v2zm-2-8.05-2-.001zm2-2v-2zm4.398 0v2h2v-2zm0-1.654h-2zm2-2v-2zm10.619 0v2h4a4 4 0 0 0-4-4zm2 2h-2v1.653h4V18zm0 1.653v2h4.393v-4H60.61zm4.393 0v2h4a4 4 0 0 0-4-4zm2 2h-2v6.051h4v-6.05zm0 6.051h-2v4a4 4 0 0 0 4-4zm-2 2v-2h-23.41v4h23.41zm-23.41 0v-2h-4a4 4 0 0 0 4 4zm-2-2h2v-6.05h-4v6.05zm0-6.05h2v-4a4 4 0 0 0-4 3.999zm2-2v2h4.398v-4h-4.398zm4.398 0h2V18h-4v1.653zm0-1.654h2v-4a4 4 0 0 0-4 4zm2-2v2H58.61v-4H47.99z" mask="url(#a)"/><path fill="#000" d="M39.595 24.282h-8.302c-1.33 0-2.294 1.026-2.294 2.153v60.219c0 1.126.963 2.153 2.294 2.153h20.666q.75 1.048 1.62 2H31.292l-.22-.006c-2.196-.108-3.957-1.81-4.068-3.934l-.006-.213v-60.22c0-2.221 1.804-4.035 4.073-4.147l.221-.005h8.302zm37.009-1.995c2.268.112 4.073 1.926 4.073 4.148V57.7a22 22 0 0 0-2-.962V26.436c0-1.127-.964-2.153-2.294-2.153h-9.378v-2h9.378z"/><circle cx="69.499" cy="76.5" r="18.5" stroke="#000" stroke-width="2"/><path stroke="#000" stroke-linejoin="round" stroke-width="2" d="m60.331 76.39 6.31 6.498 12.634-12.812"/></mask><g mask="url(#b)"><path fill="url(#c)" d="M103 99H9V11h94z"/></g><defs><linearGradient id="c" x1="56" x2="56" y1="99" y2="8.462" gradientUnits="userSpaceOnUse"><stop stop-color="#A34DEE"/><stop offset="1" stop-color="#6943F5"/></linearGradient></defs></svg>