<svg width="113" height="112" viewBox="0 0 113 112" fill="none" xmlns="http://www.w3.org/2000/svg">
<path d="M87.3736 61.5001L86.3797 61.3897V61.3897L87.3736 61.5001ZM76.8736 83.0001L77.4383 83.8254L77.4383 83.8254L76.8736 83.0001ZM56.6578 92.7531L56.9583 93.7069L56.9674 93.7039L56.6578 92.7531ZM34.8736 83.0001L34.3089 83.8254H34.3089L34.8736 83.0001ZM24.3736 61.5001L25.3675 61.3897L25.3675 61.3897L24.3736 61.5001ZM26.4522 30.7842L26.3078 29.7947L26.4522 30.7842ZM56.4644 92.814L56.1639 91.8602L56.4644 92.814ZM55.2866 92.8164L55.5921 91.8642L55.2866 92.8164ZM85.2956 30.7843L85.1512 31.7739L85.2956 30.7843ZM56.1295 18.3244L55.3588 18.9616C58.3371 22.5633 67.7898 29.2397 85.1512 31.7739L85.2956 30.7843L85.4401 29.7948C68.4139 27.3096 59.4752 20.8013 56.9001 17.6871L56.1295 18.3244ZM86.9989 32.578L86.0011 32.6439C86.2252 36.0348 86.4331 42.2154 86.5275 48.071C86.6224 53.9563 86.6001 59.406 86.3797 61.3897L87.3736 61.5001L88.3675 61.6106C88.6051 59.472 88.6213 53.8761 88.5272 48.0387C88.4327 42.1716 88.2242 35.9523 87.9967 32.512L86.9989 32.578ZM87.3736 61.5001L86.3797 61.3897C85.8705 65.9732 85.3742 75.9721 76.3089 82.1748L76.8736 83.0001L77.4383 83.8254C87.3724 77.0282 87.8768 66.0271 88.3675 61.6106L87.3736 61.5001ZM76.8736 83.0001L76.3089 82.1748C69.2924 86.9756 60.5372 90.4384 56.3482 91.8022L56.6578 92.7531L56.9674 93.7039C61.2536 92.3085 70.2053 88.7743 77.4383 83.8254L76.8736 83.0001ZM56.6578 92.7531L56.3573 91.7993L56.1639 91.8602L56.4644 92.814L56.7649 93.7678L56.9583 93.7068L56.6578 92.7531ZM55.2866 92.8164L55.5921 91.8642C51.4877 90.5471 42.5663 87.0518 35.4383 82.1748L34.8736 83.0001L34.3089 83.8254C41.6555 88.852 50.7759 92.4192 54.981 93.7686L55.2866 92.8164ZM34.8736 83.0001L35.4383 82.1748C26.3729 75.9722 25.8768 65.9733 25.3675 61.3897L24.3736 61.5001L23.3797 61.6106C23.8704 66.0272 24.3746 77.0283 34.3089 83.8254L34.8736 83.0001ZM24.3736 61.5001L25.3675 61.3897C25.1471 59.406 25.1249 53.9563 25.2197 48.0709C25.3141 42.2154 25.522 36.0347 25.7461 32.6439L24.7483 32.578L23.7505 32.512C23.5231 35.9522 23.3146 42.1715 23.22 48.0387C23.1259 53.8761 23.1421 59.472 23.3797 61.6106L24.3736 61.5001ZM26.4522 30.7842L26.5967 31.7738C43.958 29.2394 53.4105 22.5631 56.3884 18.9615L55.6177 18.3243L54.847 17.6871C52.2723 20.8011 43.3339 27.3093 26.3078 29.7947L26.4522 30.7842ZM55.6177 18.3243L56.3884 18.9615C56.1361 19.2666 55.6297 19.3053 55.3445 18.9438L56.1295 18.3244L56.9145 17.7049C56.3708 17.0159 55.3652 17.0605 54.847 17.6871L55.6177 18.3243ZM24.7483 32.578L25.7461 32.6439C25.7743 32.2181 26.1081 31.8451 26.5967 31.7738L26.4522 30.7842L26.3078 29.7947C24.953 29.9925 23.8452 31.079 23.7505 32.512L24.7483 32.578ZM56.4644 92.814L56.1639 91.8602C55.967 91.9222 55.7702 91.9213 55.5921 91.8642L55.2866 92.8164L54.981 93.7686C55.5713 93.958 56.1921 93.9483 56.7649 93.7678L56.4644 92.814ZM85.2956 30.7843L85.1512 31.7739C85.6393 31.8451 85.9729 32.2177 86.0011 32.6439L86.9989 32.578L87.9967 32.512C87.902 31.0795 86.7953 29.9927 85.4401 29.7948L85.2956 30.7843Z" fill="url(#paint0_linear_401_39030)"/>
<path d="M44.1667 55.0012L53.1374 63.9719L69.1387 47.9707" stroke="url(#paint1_linear_401_39030)" stroke-width="2" stroke-linecap="round"/>
<defs>
<linearGradient id="paint0_linear_401_39030" x1="58.7505" y1="6.62451" x2="58.7505" y2="92.9073" gradientUnits="userSpaceOnUse">
<stop stop-color="#A34DEE"/>
<stop offset="1" stop-color="#6943F5"/>
</linearGradient>
<linearGradient id="paint1_linear_401_39030" x1="52.8566" y1="64.2532" x2="38.9709" y2="50.3676" gradientUnits="userSpaceOnUse">
<stop stop-color="#A34DEE"/>
<stop offset="1" stop-color="#6943F5"/>
</linearGradient>
</defs>
</svg>
