<svg xmlns="http://www.w3.org/2000/svg" width="112" height="112" fill="none"><mask id="a" width="103" height="83" x="5" y="11" maskUnits="userSpaceOnUse" style="mask-type:alpha"><path stroke="#000" stroke-linejoin="round" stroke-width="2" d="M72.043 93.738V83.4s-8.614 0-11.486-1.72c-3.175-1.903-1.148-11.486-1.723-12.637-.825-1.655-3.766.505-4.594-1.148-1.148-2.295 4.02-5.743 4.594-10.337.575-4.595-.973-6.315 1.15-13.21 2.296-7.463 12.791-14.951 23.545-14.356 16.654.922 22.971 13.784 22.971 24.694-1.148 14.357-7.279 14.773-8.614 21.825s-.574 17.227-.574 17.227"/><path stroke="#000" stroke-linejoin="round" stroke-width="2" d="M94.44 55.838a13.783 13.783 0 1 1-13.783-13.783v13.783z"/><path stroke="#000" stroke-linejoin="round" stroke-width="2" d="M98.478 52.374A13.78 13.78 0 0 0 84.695 38.59v13.782zM17.486 42.63l1.768-5.264m10.545 5.264-2.02-5.264m-8.525 0 3.978-11.843 4.546 11.844m-8.524 0h8.524m6.936-11.965V42.51"/><path stroke="#000" stroke-linejoin="round" stroke-width="2" d="M47.349 33.442c0 2.852-1.149 8.04-3.446 11.486 1.723 3.445 4.594 8.04 4.594 8.04s-6.891 4.594-14.357-.24a20.6 20.6 0 0 1-7.466 1.388C15.256 54.116 6 44.86 6 33.442s9.256-20.674 20.674-20.674S47.35 22.024 47.35 33.442Z"/></mask><g mask="url(#a)"><path fill="url(#b)" d="M124.303 114.986H-4.337V-4.466h128.64z"/></g><defs><linearGradient id="b" x1="59.983" x2="59.983" y1="114.986" y2="-7.911" gradientUnits="userSpaceOnUse"><stop stop-color="#A34DEE"/><stop offset="1" stop-color="#6943F5"/></linearGradient></defs></svg>