<svg width="112" height="112" viewBox="0 0 112 112" fill="none" xmlns="http://www.w3.org/2000/svg">
<mask id="mask0_385_10953" style="mask-type:alpha" maskUnits="userSpaceOnUse" x="24" y="16" width="64" height="82">
<mask id="path-1-inside-1_385_10953" fill="white">
<path d="M55.6104 16C56.7148 16.0002 57.6104 16.8955 57.6104 18V19.6533H62.0039C63.1083 19.6533 64.0037 20.549 64.0039 21.6533V27.7041C64.0039 28.8087 63.1085 29.7041 62.0039 29.7041H38.5938C37.4892 29.7041 36.5938 28.8086 36.5938 27.7041V21.6533C36.594 20.549 37.4894 19.6534 38.5938 19.6533H42.9912V18C42.9912 16.8955 43.8867 16 44.9912 16H55.6104Z"/>
</mask>
<path d="M55.6104 16L55.6107 14H55.6104V16ZM57.6104 19.6533H55.6104V21.6533H57.6104V19.6533ZM62.0039 19.6533L62.0039 17.6533H62.0039V19.6533ZM64.0039 21.6533H66.0039V21.6529L64.0039 21.6533ZM62.0039 29.7041V31.7041H62.0039L62.0039 29.7041ZM38.5938 29.7041L38.5937 31.7041H38.5938V29.7041ZM36.5938 21.6533L34.5938 21.6529V21.6533H36.5938ZM38.5938 19.6533V17.6533H38.5937L38.5938 19.6533ZM42.9912 19.6533V21.6533H44.9912V19.6533H42.9912ZM42.9912 18L40.9912 18V18H42.9912ZM44.9912 16V14H44.9911L44.9912 16ZM55.6104 16L55.61 18H55.6104H57.6104H59.6104C59.6104 15.7906 57.8191 14.0004 55.6107 14L55.6104 16ZM57.6104 18H55.6104V19.6533H57.6104H59.6104V18H57.6104ZM57.6104 19.6533V21.6533H62.0039V19.6533V17.6533H57.6104V19.6533ZM62.0039 19.6533L62.0039 21.6533L62.0039 21.6538L64.0039 21.6533L66.0039 21.6529C66.0034 19.4447 64.2133 17.6533 62.0039 17.6533L62.0039 19.6533ZM64.0039 21.6533H62.0039V27.7041H64.0039H66.0039V21.6533H64.0039ZM64.0039 27.7041H62.0039H62.0039L62.0039 29.7041L62.0039 31.7041C64.213 31.7041 66.0039 29.9133 66.0039 27.7041H64.0039ZM62.0039 29.7041V27.7041H38.5938V29.7041V31.7041H62.0039V29.7041ZM38.5938 29.7041L38.5938 27.7041H38.5938H36.5938H34.5938C34.5938 29.9133 36.3847 31.704 38.5937 31.7041L38.5938 29.7041ZM36.5938 27.7041H38.5938V21.6533H36.5938H34.5938V27.7041H36.5938ZM36.5938 21.6533L38.5938 21.6538L38.5938 21.6533L38.5938 19.6533L38.5937 17.6533C36.3844 17.6534 34.5942 19.4447 34.5938 21.6529L36.5938 21.6533ZM38.5938 19.6533V21.6533H42.9912V19.6533V17.6533H38.5938V19.6533ZM42.9912 19.6533H44.9912V18H42.9912H40.9912V19.6533H42.9912ZM42.9912 18L44.9912 18L44.9913 18L44.9912 16L44.9911 14C42.7822 14.0001 40.9912 15.7908 40.9912 18L42.9912 18ZM44.9912 16V18H55.6104V16V14H44.9912V16Z" fill="black" mask="url(#path-1-inside-1_385_10953)"/>
<path d="M36.5957 24.2812H28.2939C26.9636 24.2814 26.0001 25.3082 26 26.4346V86.6533C26 87.7798 26.9635 88.8065 28.2939 88.8066H57.7031C58.0822 89.5018 58.4865 90.1692 58.9141 90.8066H28.2939L28.0732 90.8008C25.8775 90.6931 24.1172 88.9907 24.0059 86.8672L24 86.6533V26.4346C24.0001 24.2127 25.8044 22.3984 28.0732 22.2871L28.2939 22.2812H36.5957V24.2812ZM73.6045 22.2871C75.8733 22.3984 77.6776 24.2127 77.6777 26.4346V49.0137C77.0252 48.7519 76.3579 48.5383 75.6777 48.376V26.4346C75.6776 25.3082 74.7141 24.2814 73.3838 24.2812H64.0059V22.2812H73.3838L73.6045 22.2871Z" fill="black"/>
<line x1="33" y1="41" x2="57" y2="41" stroke="black" stroke-width="2"/>
<line x1="33" y1="53" x2="50" y2="53" stroke="black" stroke-width="2"/>
<line x1="33" y1="65" x2="44" y2="65" stroke="black" stroke-width="2"/>
<mask id="path-7-inside-2_385_10953" fill="white">
<path d="M70.333 50C79.9058 50 87.6658 57.7602 87.666 67.333C87.666 72.5777 85.3361 77.2774 81.6553 80.4555C80.0103 81.8758 78.7773 83.8181 78.7773 85.9915V89.5557C78.7773 91.7648 76.9864 93.5557 74.7773 93.5557H65C62.7909 93.5557 61.0001 91.7648 61 89.5557V85.2244C61 83.1788 59.9034 81.3279 58.418 79.9215C55.0814 76.7622 53 72.2907 53 67.333C53.0002 57.7602 60.7602 50 70.333 50Z"/>
</mask>
<path d="M70.333 50V48V50ZM87.666 67.333H89.666V67.333L87.666 67.333ZM78.7773 89.5557L80.7773 89.5557V89.5557H78.7773ZM61 89.5557H59V89.5557L61 89.5557ZM53 67.333L51 67.333V67.333H53ZM58.418 79.9215L57.0429 81.3737L58.418 79.9215ZM81.6553 80.4555L80.3483 78.9417L81.6553 80.4555ZM70.333 50V52C78.8012 52 85.6659 58.8648 85.666 67.333L87.666 67.333L89.666 67.333C89.6658 56.6557 81.0104 48 70.333 48V50ZM87.666 67.333H85.666C85.666 71.9719 83.608 76.1272 80.3483 78.9417L81.6553 80.4555L82.9624 81.9693C87.0643 78.4276 89.666 73.1836 89.666 67.333H87.666ZM78.7773 85.9915H76.7773V89.5557H78.7773H80.7773V85.9915H78.7773ZM78.7773 89.5557L76.7773 89.5556C76.7773 90.6602 75.8818 91.5557 74.7773 91.5557V93.5557V95.5557C78.0911 95.5557 80.7773 92.8693 80.7773 89.5557L78.7773 89.5557ZM74.7773 93.5557V91.5557H65V93.5557V95.5557H74.7773V93.5557ZM65 93.5557V91.5557C63.8955 91.5557 63 90.6602 63 89.5556L61 89.5557L59 89.5557C59.0001 92.8693 61.6863 95.5557 65 95.5557V93.5557ZM61 89.5557H63V85.2244H61H59V89.5557H61ZM58.418 79.9215L59.7931 78.4692C56.8388 75.6719 55 71.7189 55 67.333H53H51C51 72.8626 53.324 77.8525 57.0429 81.3737L58.418 79.9215ZM53 67.333L55 67.333C55.0002 58.8648 61.8648 52 70.333 52V50V48C59.6556 48 51.0002 56.6557 51 67.333L53 67.333ZM61 85.2244H63C63 82.4463 61.5214 80.1056 59.7931 78.4692L58.418 79.9215L57.0429 81.3737C58.2854 82.5502 59 83.9113 59 85.2244H61ZM81.6553 80.4555L80.3483 78.9417C78.439 80.5902 76.7773 83.0391 76.7773 85.9915H78.7773H80.7773C80.7773 84.5971 81.5817 83.1614 82.9624 81.9693L81.6553 80.4555Z" fill="black" mask="url(#path-7-inside-2_385_10953)"/>
<rect x="65.5566" y="92.7778" width="8.66667" height="4.22222" rx="1" stroke="black" stroke-width="2"/>
<path d="M61.8896 86.4444H67.6674M77.8896 86.4444H72.5563M67.6674 86.4444V69.5555C67.6674 68.3282 66.6725 67.3333 65.4452 67.3333V67.3333C64.2179 67.3333 63.223 68.3282 63.223 69.5555V69.5555C63.223 70.7828 64.2179 71.7777 65.4452 71.7777H74.7785C76.0058 71.7777 77.0008 70.7828 77.0008 69.5555V69.5555C77.0008 68.3282 76.0058 67.3333 74.7785 67.3333V67.3333C73.5512 67.3333 72.5563 68.3282 72.5563 69.5555V86.4444M67.6674 86.4444H72.5563" stroke="black" stroke-width="2"/>
</mask>
<g mask="url(#mask0_385_10953)">
<path d="M112 107L-7.62939e-06 107L1.46257e-06 3L112 3.00001L112 107Z" fill="url(#paint0_linear_385_10953)"/>
</g>
<defs>
<linearGradient id="paint0_linear_385_10953" x1="56" y1="107" x2="56" y2="2.82091e-06" gradientUnits="userSpaceOnUse">
<stop stop-color="#A34DEE"/>
<stop offset="1" stop-color="#6943F5"/>
</linearGradient>
</defs>
</svg>
