<svg width="112" height="112" viewBox="0 0 112 112" fill="none" xmlns="http://www.w3.org/2000/svg">
<path d="M56.2412 13C66.7173 13.0002 75.2098 21.4927 75.21 31.9688V31.9697H77.8682C88.3425 31.972 96.833 40.4636 96.833 50.9385C96.833 61.4133 88.3425 69.904 77.8682 69.9062V69.9072H69.7998V84.4678H78.9561C79.4701 83.3215 80.6205 82.5226 81.958 82.5225L82.1279 82.5264C83.8655 82.6147 85.2476 84.0521 85.248 85.8115L85.2432 85.9814C85.1548 87.7192 83.7177 89.1014 81.958 89.1016L81.7891 89.0967C80.2732 89.0198 79.0309 87.9161 78.7373 86.4678H67.7998V69.9072H57.5811V92.0742C58.9097 92.4968 59.8727 93.7415 59.873 95.21L59.8682 95.3799C59.7798 97.1175 58.3426 98.4998 56.583 98.5L56.4141 98.4951C54.7323 98.4098 53.3834 97.0616 53.2979 95.3799L53.2939 95.21C53.2943 93.743 54.2546 92.4999 55.5811 92.0762V69.9072H44.8936V81.6426H31.3271C30.7872 82.7209 29.6748 83.4629 28.3867 83.4629L28.2178 83.458C26.536 83.3727 25.187 82.0245 25.1016 80.3428L25.0977 80.1729C25.0981 78.3566 26.5704 76.884 28.3867 76.8838L28.5566 76.8877C30.1161 76.9668 31.3877 78.1326 31.6328 79.6426H42.8936V69.9072H34.6191V69.9062C34.6176 69.9064 34.6158 69.9072 34.6143 69.9072C24.1381 69.907 15.6446 61.4146 15.6445 50.9385C15.6445 40.4623 24.1381 31.9699 34.6143 31.9697H37.2715V31.9688C37.2716 21.4927 45.7652 13.0002 56.2412 13ZM56.583 93.9209C55.8713 93.9211 55.2944 94.4983 55.2939 95.21C55.2942 95.9218 55.8712 96.4998 56.583 96.5C57.2948 96.4998 57.8728 95.9218 57.873 95.21C57.8726 94.4983 57.2947 93.9211 56.583 93.9209ZM81.958 84.5225C81.2463 84.5227 80.6694 85.0999 80.6689 85.8115C80.6691 86.5234 81.2461 87.1013 81.958 87.1016C82.67 87.1014 83.2479 86.5235 83.248 85.8115C83.2476 85.0998 82.6698 84.5226 81.958 84.5225ZM28.3867 78.8838C27.675 78.884 27.0981 79.4612 27.0977 80.1729C27.0978 80.8848 27.6748 81.4627 28.3867 81.4629C29.0988 81.4629 29.6766 80.8849 29.6768 80.1729C29.6763 79.4611 29.0986 78.8838 28.3867 78.8838ZM34.0752 67.9814C34.0645 67.9844 34.0549 67.9868 34.0498 67.9883L34.0459 67.9893C34.0471 67.9889 34.0491 67.9887 34.0508 67.9883C34.0561 67.9867 34.0655 67.9845 34.0762 67.9814C34.0805 67.9802 34.0855 67.978 34.0908 67.9766C34.0851 67.9781 34.0798 67.9802 34.0752 67.9814ZM34.2559 67.9395C34.2424 67.9419 34.229 67.9448 34.2168 67.9473C34.2298 67.9446 34.2443 67.9421 34.2588 67.9395C34.2761 67.9363 34.2948 67.9327 34.3145 67.9297C34.2938 67.9328 34.2739 67.9361 34.2559 67.9395ZM56.2412 15C46.8696 15.0002 39.2716 22.5974 39.2715 31.9688V33.9697H34.6143C25.2425 33.9699 17.6445 41.567 17.6445 50.9385C17.6446 60.3041 25.2331 67.8966 34.5967 67.9062C34.6037 67.9062 34.6111 67.9062 34.6182 67.9062L36.6191 67.9053V67.9072H75.8682V67.9062H77.8682C87.0918 67.904 94.5951 60.5439 94.8271 51.376L94.833 50.9385C94.833 41.7145 87.4733 34.2098 78.3057 33.9756L77.8682 33.9697H73.21V31.9688L73.2041 31.5312C72.9756 22.5074 65.7026 15.2344 56.6787 15.0059L56.2412 15Z" fill="url(#paint0_linear_385_6519)"/>
<defs>
<linearGradient id="paint0_linear_385_6519" x1="76.654" y1="85.6106" x2="82.669" y2="85.6106" gradientUnits="userSpaceOnUse">
<stop stop-color="#A34DEE"/>
<stop offset="1" stop-color="#6943F5"/>
</linearGradient>
</defs>
</svg>
