<svg xmlns="http://www.w3.org/2000/svg" width="113" height="112" fill="none"><mask id="a" width="63" height="60" x="25" y="26" maskUnits="userSpaceOnUse" style="mask-type:alpha"><path fill="#000" d="M56.442 28.4c-8.616 0-15.6 6.984-15.6 15.6 0 5.358 2.699 10.086 6.823 12.898l2.307 1.575a1 1 0 0 1-.238 1.772l-2.643.906C36.497 64.786 28.696 74.425 27.741 86h-2.408c.886-11.652 8.172-21.515 18.351-26.081a31 31 0 0 1 2.628-1.038 18 18 0 0 1-2.185-1.752A17.95 17.95 0 0 1 38.442 44c0-9.941 8.059-18 18-18s18 8.059 18 18a17.95 17.95 0 0 1-5.687 13.129q-1.022.959-2.183 1.752a31 31 0 0 1 2.628 1.038C79.378 64.485 86.665 74.349 87.55 86h-2.408c-.955-11.575-8.756-21.214-19.35-24.849l-2.643-.906a1 1 0 0 1-.238-1.772l2.307-1.575c4.124-2.812 6.823-7.54 6.823-12.898 0-8.616-6.984-15.6-15.6-15.6"/></mask><g mask="url(#a)"><path fill="url(#b)" d="M103.52 92h-94V4h94z"/></g><defs><linearGradient id="b" x1="56.52" x2="56.52" y1="92" y2="1.462" gradientUnits="userSpaceOnUse"><stop stop-color="#A34DEE"/><stop offset="1" stop-color="#6943F5"/></linearGradient></defs></svg>