<svg xmlns="http://www.w3.org/2000/svg" width="112" height="112" fill="none"><mask id="b" width="79" height="77" x="18" y="16" maskUnits="userSpaceOnUse" style="mask-type:alpha"><path fill="#000" d="m25.748 48.391-.566-.824a1 1 0 0 0 .048 1.68zm15.856-.175.548-.836zM47.92 61.92l-.992-.126a1 1 0 0 0 .443.962zm27.23 17.843.548-.836zm1.793 8.617.837.548zm-8.615 1.794-.548.836zM41.098 72.33l.549-.836a1 1 0 0 0-1.06-.023zm-15.086-.32-.548.836zm-6.316-13.704.548-.837a1 1 0 0 0-1.54.71zm8.846 5.796-.548.836a1 1 0 0 0 .866.112zm7.504-2.522.319.948a1 1 0 0 0 .674-1.07zm-.927-7.516.993-.123a1 1 0 0 0-.475-.733zm34.39 29.442-.836-.548zm.77 3.692-.549.837zm3.692-.769.836.549zm-.77-3.692.549-.837zM25.749 48.39l.566.825c4.295-2.951 10.118-3.193 14.742-.163l.548-.837.548-.836c-5.327-3.49-12.03-3.207-16.97.187zm15.856-.175-.548.837c4.371 2.864 6.49 7.878 5.872 12.74l.992.126.991.126c.712-5.591-1.724-11.366-6.759-14.665zM47.92 61.92l-.549.837 27.23 17.843.549-.837.548-.836-27.23-17.843zm27.23 17.843-.548.837a5.224 5.224 0 0 1 1.505 7.231l.837.549.836.548a7.224 7.224 0 0 0-2.082-10.001zm1.793 8.617-.836-.549a5.223 5.223 0 0 1-7.23 1.506l-.549.837-.548.836a7.223 7.223 0 0 0 10-2.082zm-8.615 1.794.548-.837-27.23-17.842-.547.836-.548.836L67.78 91.01zM41.098 72.33l-.511-.86c-4.211 2.51-9.655 2.569-14.027-.296l-.548.836-.548.837c5.036 3.3 11.303 3.227 16.147.342zm-15.086-.32.549-.836c-4.373-2.866-6.492-7.88-5.873-12.742l-.992-.126-.992-.127c-.712 5.593 1.724 11.367 6.76 14.667zm-6.316-13.704-.548.836 8.846 5.796.548-.836.548-.837-8.846-5.796zm8.846 5.796.318.948 7.505-2.522-.319-.948-.318-.948-7.505 2.522zm7.504-2.522.993-.123-.927-7.516-.993.123-.992.122.927 7.516zm-.927-7.516.518-.856-9.371-5.672-.518.855-.518.856 9.372 5.672zm34.39 29.442-.836-.548a3.667 3.667 0 0 0 1.057 5.077l.548-.837.548-.836a1.667 1.667 0 0 1-.48-2.308zm.77 3.692-.549.837a3.667 3.667 0 0 0 5.077-1.057l-.836-.549-.837-.548a1.667 1.667 0 0 1-2.308.481zm3.692-.769.836.548A3.667 3.667 0 0 0 73.75 81.9l-.548.837-.548.836c.77.505.985 1.538.48 2.309zm-.77-3.692.549-.837a3.67 3.67 0 0 0-5.077 1.058l.836.548.837.548a1.67 1.67 0 0 1 2.308-.48z"/><mask id="a" fill="#fff"><path d="M79.405 16a2 2 0 0 1 2 2v4.389a16.6 16.6 0 0 1 4.56 2.847l3.932-2.27a2 2 0 0 1 2.733.733l3.963 6.865a2 2 0 0 1-.733 2.73l-4.349 2.51q.11.946.112 1.92c0 .957-.082 1.894-.237 2.805l4.475 2.584a2 2 0 0 1 .732 2.733l-3.963 6.863a2 2 0 0 1-2.732.732l-4.614-2.664a16.6 16.6 0 0 1-3.879 2.283v5.236a2 2 0 0 1-2 2H71.48a2 2 0 0 1-2-2V53.39a16.6 16.6 0 0 1-4.38-2.335l-4.136 2.388a2 2 0 0 1-2.732-.732l-3.963-6.864A2 2 0 0 1 55 43.115l3.718-2.147a16.7 16.7 0 0 1-.149-5.614l-3.568-2.06a2 2 0 0 1-.733-2.732l3.963-6.865a2 2 0 0 1 2.733-.731l3.432 1.981a16.6 16.6 0 0 1 5.083-2.89V18a2 2 0 0 1 2-2zm-4.392 15.34a6.389 6.389 0 1 0 0 12.778 6.389 6.389 0 0 0 0-12.778"/></mask><path fill="#000" d="M79.405 16v-2zm2 2h2zm0 4.389h-2a2 2 0 0 0 1.23 1.845zm4.56 2.847-1.32 1.503a2 2 0 0 0 2.32.23zm3.932-2.27 1 1.733zm2.733.733 1.732-1zm3.963 6.865 1.732-1zm-.733 2.73 1 1.733zm-4.349 2.51-1-1.732a2 2 0 0 0-.986 1.961zm.112 1.92h2zm-.237 2.805-1.972-.335a2 2 0 0 0 .972 2.067zm4.475 2.584 1-1.731zm.732 2.733 1.732 1zm-3.963 6.863-1.732-1zm-2.732.732-1 1.732zm-4.614-2.664 1-1.732a2 2 0 0 0-2.238.161zm-3.879 2.283-.77-1.846a2 2 0 0 0-1.23 1.846zm-2 7.236v2zm-7.926 0v2zm-2-6.906h2a2 2 0 0 0-1.334-1.886zm-4.38-2.335 1.195-1.604a2 2 0 0 0-2.195-.128zm-4.136 2.388 1 1.733zm-2.732-.732-1.732 1zm-3.963-6.864 1.732-1zM55 43.115l1 1.732zm3.718-2.147 1 1.732a2 2 0 0 0 .961-2.12zm-.317-3.243h-2zm.168-2.37 1.98.282a2 2 0 0 0-.98-2.014zm-3.568-2.061 1-1.732zm-.733-2.732-1.732-1zm3.963-6.865-1.732-1zm2.733-.731-1 1.732zm3.432 1.981-1 1.732a2 2 0 0 0 2.28-.194zm5.083-2.89.666 1.887a2 2 0 0 0 1.334-1.886zm0-4.057h-2zm2-2v-2zm3.534 15.34v-2zm-6.39 6.388h-2zm6.39 6.39v2zm6.388-6.39h2zM79.405 16v2h4a4 4 0 0 0-4-4zm2 2h-2v4.389h4V18zm0 4.389-.77 1.845a14.6 14.6 0 0 1 4.01 2.505l1.32-1.503 1.319-1.503a18.6 18.6 0 0 0-5.109-3.19zm4.56 2.847 1 1.733 3.932-2.27-1-1.732-1-1.732-3.932 2.27zm3.932-2.27 1 1.733 1.733-1 1.732-1a4 4 0 0 0-5.465-1.464zm2.733.733-1.732 1 3.963 6.864 1.732-1 1.732-1-3.963-6.864zm3.963 6.865-1.733.999 1 1.732 1 1.732a4 4 0 0 0 1.465-5.463zm-.733 2.73-1-1.731-4.348 2.51 1 1.732 1 1.732 4.348-2.51zm-4.349 2.51-1.986.23q.097.836.098 1.69h4q-.002-1.093-.125-2.148zm.112 1.92h-2c0 .842-.073 1.666-.21 2.47l1.973.335 1.971.336c.174-1.02.266-2.07.266-3.14zm-.237 2.805-1 1.732 4.475 2.584 1-1.732 1-1.732-4.475-2.584zm4.475 2.584-1 1.732 1.732 1 1.732 1a4 4 0 0 0-1.463-5.463zm.732 2.733-1.732-1-3.963 6.863 1.732 1 1.732 1 3.963-6.863zm-3.963 6.863-1.732-1-1 1.732-1 1.733a4 4 0 0 0 5.464-1.465zm-2.732.732 1-1.732-4.614-2.664-1 1.732-1 1.732 4.614 2.664zm-4.614-2.664-1.238-1.57a14.6 14.6 0 0 1-3.411 2.007l.77 1.846.77 1.845c1.571-.655 3.031-1.52 4.347-2.557zm-3.879 2.283h-2v5.236h4V53.06zm0 5.236h-2v4a4 4 0 0 0 4-4zm-2 2v-2H71.48v4h7.926zm-7.926 0v-2h-4a4 4 0 0 0 4 4zm-2-2h2V53.39h-4v4.906zm0-4.906.666-1.886a14.6 14.6 0 0 1-3.85-2.053l-1.196 1.604-1.194 1.604a18.6 18.6 0 0 0 4.908 2.617zm-4.38-2.335-1-1.732-4.136 2.388 1 1.732 1 1.732 4.137-2.388zm-4.136 2.388-1-1.732-1.732 1-1.732 1a4 4 0 0 0 5.463 1.465zm-2.732-.732 1.732-1L56 44.847l-1.732 1-1.732 1L56.5 53.71zm-3.963-6.864 1.732-1-1-1.732-1-1.732a4 4 0 0 0-1.464 5.464zM55 43.115l1 1.732 3.718-2.147-1-1.732-1-1.732-3.719 2.147zm3.718-2.147 1.961-.389a14.7 14.7 0 0 1-.278-2.854h-4c0 1.24.122 2.455.355 3.631zm-.317-3.243h2q0-1.066.148-2.088l-1.98-.282-1.98-.283a19 19 0 0 0-.188 2.653zm.168-2.37 1-1.732-3.568-2.061-1 1.732-1 1.732 3.568 2.06zm-3.568-2.061 1-1.732-1.733-1-1.732-1a4 4 0 0 0 1.465 5.464zm-.733-2.732 1.732 1 3.963-6.865-1.732-1-1.732-1-3.963 6.865zm3.963-6.865 1.732 1 1-1.731 1-1.732a4 4 0 0 0-5.464 1.463zm2.733-.731-1 1.732 3.432 1.981 1-1.732 1-1.732-3.432-1.981zm3.432 1.981 1.28 1.538a14.6 14.6 0 0 1 4.47-2.541l-.667-1.886-.666-1.886a18.6 18.6 0 0 0-5.696 3.238zm5.083-2.89h2V18h-4v4.058zm0-4.057h2v-4a4 4 0 0 0-4 4zm2-2v2h7.926v-4H71.48zm3.534 15.34v-2a8.39 8.39 0 0 0-8.39 8.388h4a4.39 4.39 0 0 1 4.39-4.388zm-6.39 6.388h-2a8.39 8.39 0 0 0 8.39 8.39v-4a4.39 4.39 0 0 1-4.39-4.39zm6.39 6.39v2a8.39 8.39 0 0 0 8.388-8.39h-4a4.39 4.39 0 0 1-4.388 4.39zm6.388-6.39h2a8.39 8.39 0 0 0-8.388-8.388v4a4.39 4.39 0 0 1 4.388 4.389z" mask="url(#a)"/></mask><g mask="url(#b)"><path fill="url(#c)" d="M103 103.861H9v-88h94z"/></g><defs><linearGradient id="c" x1="56" x2="56" y1="103.861" y2="13.323" gradientUnits="userSpaceOnUse"><stop stop-color="#A34DEE"/><stop offset="1" stop-color="#6943F5"/></linearGradient></defs></svg>