<svg xmlns="http://www.w3.org/2000/svg" width="24" height="24" fill="none"><path fill="#1A1A1A" fill-rule="evenodd" d="M11.997 1.719C6.316 1.719 1.71 6.324 1.71 12.005S6.316 22.29 11.997 22.29s10.285-4.605 10.285-10.285c0-5.681-4.605-10.286-10.285-10.286m-1.63 1.693a8.75 8.75 0 0 0-7.08 7.822H7.62a17.2 17.2 0 0 1 2.746-7.822m3.259 0a17.2 17.2 0 0 1 2.747 7.822h4.334a8.75 8.75 0 0 0-7.081-7.822m1.197 7.822a15.65 15.65 0 0 0-2.826-7.473 15.65 15.65 0 0 0-2.827 7.473zM9.17 12.775h5.653a15.65 15.65 0 0 1-2.826 7.473 15.65 15.65 0 0 1-2.827-7.473m-1.55 0H3.287a8.75 8.75 0 0 0 7.081 7.822 17.2 17.2 0 0 1-2.746-7.822m6.006 7.822a17.2 17.2 0 0 0 2.747-7.822h4.334a8.75 8.75 0 0 1-7.081 7.822" clip-rule="evenodd"/></svg>