<svg xmlns="http://www.w3.org/2000/svg" width="113" height="113" fill="none"><path fill="#fff" d="M44.44 27.364a1 1 0 0 0-1.316-.516 33.592 33.592 0 0 0 3.762 62.955 33.593 33.593 0 0 0 40.407-18.614l.204-.471a1 1 0 0 0-1.798-.871l-.045.092a31.59 31.59 0 1 1-41.73-41.257c.506-.221.737-.812.516-1.318m12.118-3.304a1 1 0 0 0-1 1v32.59a1 1 0 0 0 1 1h32.59a1 1 0 0 0 1-1 33.59 33.59 0 0 0-33.59-33.59m1 2.017a31.6 31.6 0 0 1 21.338 9.235A31.6 31.6 0 0 1 88.13 56.65H57.558z"/><path fill="#fff" d="M44.44 27.364a1 1 0 0 0-1.317-.516 33.59 33.59 0 1 0 44.17 44.342l.203-.472a1 1 0 0 0-1.798-.871l-.044.092a31.59 31.59 0 1 1-41.73-41.257c.505-.221.736-.812.516-1.318"/><path fill="#fff" fill-rule="evenodd" d="M56.557 24.06a1 1 0 0 0-1 1v32.59a1 1 0 0 0 1 1h32.59a1 1 0 0 0 1-1 33.59 33.59 0 0 0-33.59-33.59m1 2.017a31.6 31.6 0 0 1 21.338 9.235A31.6 31.6 0 0 1 88.13 56.65H57.557z" clip-rule="evenodd"/></svg>