<svg width="112" height="112" viewBox="0 0 112 112" fill="none" xmlns="http://www.w3.org/2000/svg">
<path fill-rule="evenodd" clip-rule="evenodd" d="M24.4477 55.4507C24.4477 38.3303 38.3264 24.4516 55.4468 24.4516C72.5671 24.4516 86.4459 38.3303 86.4459 55.4507C86.4459 72.5711 72.5671 86.4498 55.4468 86.4498C38.3264 86.4498 24.4477 72.5711 24.4477 55.4507ZM55.4468 23.8516C37.9951 23.8516 23.8477 37.999 23.8477 55.4507C23.8477 72.9024 37.9951 87.0498 55.4468 87.0498C72.8985 87.0498 87.0459 72.9024 87.0459 55.4507C87.0459 37.999 72.8985 23.8516 55.4468 23.8516ZM55.7468 36.6712C55.7468 36.5055 55.6125 36.3712 55.4468 36.3712C55.2811 36.3712 55.1468 36.5055 55.1468 36.6712V55.4507C55.1468 55.5643 55.211 55.6682 55.3126 55.719L67.8323 61.9788C67.9805 62.0529 68.1607 61.9929 68.2348 61.8447C68.3089 61.6965 68.2488 61.5163 68.1006 61.4422L55.7468 55.2653V36.6712Z" fill="url(#paint0_linear_577_15223)"/>
<path d="M56.5839 36.665C56.5839 36.0367 56.0746 35.5275 55.4464 35.5275C54.8182 35.5275 54.3089 36.0367 54.3089 36.665V55.4444C54.3089 55.8753 54.5523 56.2692 54.9377 56.4619L67.4573 62.7217C68.0192 63.0026 68.7025 62.7749 68.9835 62.213C69.2644 61.6511 69.0367 60.9678 68.4748 60.6869L56.5839 54.7414V36.665Z" fill="url(#paint1_linear_577_15223)"/>
<path fill-rule="evenodd" clip-rule="evenodd" d="M55.4464 23.0078C37.5321 23.0078 23.0098 37.5302 23.0098 55.4444C23.0098 73.3587 37.5321 87.8811 55.4464 87.8811C73.3607 87.8811 87.883 73.3587 87.883 55.4444C87.883 37.5302 73.3607 23.0078 55.4464 23.0078ZM25.2848 55.4444C25.2848 38.7866 38.7886 25.2828 55.4464 25.2828C72.1042 25.2828 85.608 38.7866 85.608 55.4444C85.608 72.1023 72.1042 85.6061 55.4464 85.6061C38.7886 85.6061 25.2848 72.1023 25.2848 55.4444Z" fill="url(#paint2_linear_577_15223)"/>
<defs>
<linearGradient id="paint0_linear_577_15223" x1="55.4468" y1="23.8516" x2="55.4468" y2="87.0498" gradientUnits="userSpaceOnUse">
<stop stop-color="#505BFD"/>
<stop offset="1" stop-color="#B542FD"/>
</linearGradient>
<linearGradient id="paint1_linear_577_15223" x1="55.4464" y1="23.0078" x2="55.4464" y2="87.8811" gradientUnits="userSpaceOnUse">
<stop stop-color="#505BFD"/>
<stop offset="1" stop-color="#B542FD"/>
</linearGradient>
<linearGradient id="paint2_linear_577_15223" x1="55.4464" y1="23.0078" x2="55.4464" y2="87.8811" gradientUnits="userSpaceOnUse">
<stop stop-color="#505BFD"/>
<stop offset="1" stop-color="#B542FD"/>
</linearGradient>
</defs>
</svg>
