<svg xmlns="http://www.w3.org/2000/svg" width="113" height="113" fill="none"><path fill="#fff" d="M44.609 38.174a.897.897 0 0 1 1.193.14l.057.071 6.943 9.78 5.753-5.894.067-.063a.9.9 0 0 1 1.236.084l8.375 9.164a.897.897 0 0 1-1.323 1.21l-7.735-8.464-5.84 5.985a.898.898 0 0 1-1.373-.107l-7.565-10.656-.05-.078a.896.896 0 0 1 .261-1.172"/><path fill="#fff" fill-rule="evenodd" d="M86.838 25.293a.897.897 0 0 1 0 1.785l-.092.004h-5.923v38.542l-.005.092v.004h5.928l.092.004a.897.897 0 0 1 0 1.784l-.092.005H57.244v7.866L74.01 86.643l.073.055a.897.897 0 0 1-.994 1.481l-.08-.047-15.765-10.593v9.31a.897.897 0 0 1-1.793 0v-9.586L39.273 88.132l-.079.047a.897.897 0 0 1-.994-1.481l.073-.055 17.11-11.494.068-.042v-7.594h-29.5a.897.897 0 0 1 0-1.794h5.929l-.001-.003-.004-.092V27.082H25.95a.897.897 0 0 1 0-1.793h60.795zm-53.17 40.331-.005.092v.004h45.372l-.001-.004-.004-.092V27.082H33.668z" clip-rule="evenodd"/></svg>