<svg xmlns="http://www.w3.org/2000/svg" width="112" height="112" fill="none"><path fill="#1A1A1A" d="M70.327 34.47a10.344 10.344 0 0 1 9.832 10.332V69.98a15 15 0 0 1 4.227-.605c8.293 0 15.016 6.724 15.016 15.017S92.68 99.409 84.386 99.409c-8.294 0-15.017-6.723-15.017-15.016 0-6.073 3.604-11.303 8.79-13.67V44.803a8.345 8.345 0 0 0-7.93-8.334l-.415-.01H55.799a1 1 0 0 1 0-2h14.016zM28.322 13.308c8.294 0 15.017 6.723 15.017 15.016 0 7.958-6.19 14.47-14.019 14.983v55.101l-.005.103a1 1 0 0 1-1.99 0l-.005-.103V43.307c-7.826-.516-14.014-7.026-14.014-14.983 0-8.293 6.723-15.016 15.016-15.016m56.064 58.068c-1.577 0-3.088.28-4.487.794a1 1 0 0 1-.74.33q-.031 0-.062-.004c-4.553 2.027-7.728 6.591-7.728 11.897 0 7.189 5.828 13.016 13.017 13.016s13.016-5.828 13.016-13.016c0-7.189-5.828-13.017-13.016-13.017M28.322 15.308c-7.188 0-13.016 5.828-13.016 13.016 0 7.189 5.828 13.017 13.016 13.017 7.19 0 13.017-5.828 13.017-13.017S35.51 15.308 28.322 15.308"/><path fill="url(#a)" d="M70.327 34.47a10.344 10.344 0 0 1 9.832 10.332V69.98a15 15 0 0 1 4.227-.605c8.293 0 15.016 6.724 15.016 15.017S92.68 99.409 84.386 99.409c-8.294 0-15.017-6.723-15.017-15.016 0-6.073 3.604-11.303 8.79-13.67V44.803a8.345 8.345 0 0 0-7.93-8.334l-.415-.01H55.799a1 1 0 0 1 0-2h14.016zM28.322 13.308c8.294 0 15.017 6.723 15.017 15.016 0 7.958-6.19 14.47-14.019 14.983v55.101l-.005.103a1 1 0 0 1-1.99 0l-.005-.103V43.307c-7.826-.516-14.014-7.026-14.014-14.983 0-8.293 6.723-15.016 15.016-15.016m56.064 58.068c-1.577 0-3.088.28-4.487.794a1 1 0 0 1-.74.33q-.031 0-.062-.004c-4.553 2.027-7.728 6.591-7.728 11.897 0 7.189 5.828 13.016 13.017 13.016s13.016-5.828 13.016-13.016c0-7.189-5.828-13.017-13.016-13.017M28.322 15.308c-7.188 0-13.016 5.828-13.016 13.016 0 7.189 5.828 13.017 13.016 13.017 7.19 0 13.017-5.828 13.017-13.017S35.51 15.308 28.322 15.308"/><defs><linearGradient id="a" x1="56.357" x2="56.357" y1="13.926" y2="101.239" gradientUnits="userSpaceOnUse"><stop stop-color="#A34DEE"/><stop offset="1" stop-color="#6943F5"/></linearGradient></defs></svg>