<svg xmlns="http://www.w3.org/2000/svg" width="113" height="113" fill="none"><path fill="#fff" d="M63.93 51.95a.984.984 0 0 1 0 1.96l-.1.004H49.81a.984.984 0 0 1 0-1.968h14.02z"/><path fill="#fff" fill-rule="evenodd" d="M86.526 28.253c1.56.079 2.8 1.369 2.8 2.948V42.49a2.953 2.953 0 0 1-2.952 2.952h-1.167v36.63a2.953 2.953 0 0 1-2.952 2.952H31.387a2.953 2.953 0 0 1-2.953-2.953V45.44h-1.167a2.953 2.953 0 0 1-2.953-2.951V31.2a2.953 2.953 0 0 1 2.953-2.952h59.107zM30.403 45.44v36.63c0 .543.44.984.984.984h50.868a.985.985 0 0 0 .984-.985V45.44zm-3.136-15.224a.984.984 0 0 0-.984.984V42.49c0 .543.44.983.984.984h59.107c.543 0 .984-.441.984-.984V31.2c0-.51-.388-.929-.884-.979l-.1-.005z" clip-rule="evenodd"/></svg>