<svg xmlns="http://www.w3.org/2000/svg" width="112" height="112" fill="none"><path fill="url(#a)" fill-rule="evenodd" d="M56.036 24.447c11.15 0 20.21 9.44 20.21 21.112 0 7.416-3.659 13.93-9.186 17.696a.3.3 0 0 0-.154.104 19.5 19.5 0 0 1-10.87 3.31c-11.15 0-20.21-9.439-20.21-21.11 0-11.672 9.06-21.112 20.21-21.112m10.872 39.628a20.07 20.07 0 0 1-10.872 3.194 20.07 20.07 0 0 1-10.865-3.19l-3.406 26.77 14.113-8.84.077-.035a.3.3 0 0 1 .242.034l14.113 8.84zm-22.294-.365c-5.657-3.883-9.387-10.567-9.387-18.151 0-11.979 9.304-21.711 20.81-21.711 11.504 0 20.809 9.732 20.809 21.71 0 7.582-3.728 14.264-9.38 18.147l3.519 27.696a.3.3 0 0 1-.457.293l-14.49-9.077-14.49 9.077a.3.3 0 0 1-.458-.293z" clip-rule="evenodd"/><path fill="url(#b)" fill-rule="evenodd" d="M43.719 64.103c-5.647-4.078-9.33-10.88-9.33-18.546 0-12.407 9.646-22.55 21.647-22.55s21.647 10.143 21.647 22.55c0 7.663-3.68 14.463-9.324 18.542l3.457 27.194a1.138 1.138 0 0 1-1.733 1.108l-14.046-8.798-14.045 8.798a1.138 1.138 0 0 1-1.733-1.108zm-7.055-18.546c0-11.244 8.718-20.274 19.372-20.274s19.372 9.03 19.372 20.274c0 7.112-3.49 13.34-8.75 16.955q-.16.076-.288.193a18.67 18.67 0 0 1-10.334 3.125c-10.654 0-19.372-9.03-19.372-20.273M66.238 65.45a20.86 20.86 0 0 1-10.202 2.654c-3.693 0-7.162-.96-10.196-2.65l-3.02 23.743 12.614-7.901c.369-.232.838-.232 1.207 0l12.615 7.901z" clip-rule="evenodd"/><defs><linearGradient id="a" x1="56.036" x2="56.036" y1="23.848" y2="91.739" gradientUnits="userSpaceOnUse"><stop stop-color="#505BFD"/><stop offset="1" stop-color="#B542FD"/></linearGradient><linearGradient id="b" x1="56.036" x2="56.036" y1="23.008" y2="92.575" gradientUnits="userSpaceOnUse"><stop stop-color="#505BFD"/><stop offset="1" stop-color="#B542FD"/></linearGradient></defs></svg>