<svg xmlns="http://www.w3.org/2000/svg" width="112" height="112" fill="none"><path fill="url(#a)" fill-rule="evenodd" d="M26.143 29.942a5.78 5.78 0 0 1 4.088-1.694h48.647a5.78 5.78 0 0 1 5.781 5.781v18.243a30.105 30.105 0 0 1-60.21 0V34.03c0-1.533.61-3.003 1.694-4.087m-.424-.425a6.38 6.38 0 0 1 4.512-1.869h48.647a6.38 6.38 0 0 1 6.381 6.381v18.243a30.705 30.705 0 0 1-61.41 0V34.03a6.38 6.38 0 0 1 1.87-4.512M42.605 49.02a.3.3 0 0 0-.425.424l12.162 12.162a.3.3 0 0 0 .425 0l12.162-12.162a.3.3 0 0 0-.425-.424l-11.95 11.95z" clip-rule="evenodd"/><path fill="url(#b)" d="M43.197 48.421a1.137 1.137 0 1 0-1.61 1.609L53.75 62.192a1.137 1.137 0 0 0 1.608 0L67.52 50.03a1.137 1.137 0 1 0-1.608-1.609L54.554 59.78z"/><path fill="url(#c)" fill-rule="evenodd" d="M25.126 28.919a7.22 7.22 0 0 1 5.104-2.114h48.648a7.22 7.22 0 0 1 7.219 7.218v18.243a31.542 31.542 0 1 1-63.085 0V34.023c0-1.914.76-3.75 2.114-5.104m1.609 1.609a4.94 4.94 0 0 1 3.495-1.448h48.648a4.943 4.943 0 0 1 4.944 4.943v18.243a29.268 29.268 0 0 1-58.535 0V34.023c0-1.31.52-2.568 1.448-3.495" clip-rule="evenodd"/><defs><linearGradient id="a" x1="54.554" x2="54.554" y1="27.648" y2="82.977" gradientUnits="userSpaceOnUse"><stop stop-color="#505BFD"/><stop offset="1" stop-color="#B542FD"/></linearGradient><linearGradient id="b" x1="54.554" x2="54.554" y1="26.805" y2="83.808" gradientUnits="userSpaceOnUse"><stop stop-color="#505BFD"/><stop offset="1" stop-color="#B542FD"/></linearGradient><linearGradient id="c" x1="54.554" x2="54.554" y1="26.805" y2="83.808" gradientUnits="userSpaceOnUse"><stop stop-color="#505BFD"/><stop offset="1" stop-color="#B542FD"/></linearGradient></defs></svg>