<svg xmlns="http://www.w3.org/2000/svg" width="113" height="113" fill="none"><path fill="#000" d="M44.616 27.364a1 1 0 0 0-1.316-.516 33.592 33.592 0 0 0 19.96 63.738A33.59 33.59 0 0 0 87.47 71.189l.204-.471a1 1 0 0 0-1.798-.871l-.045.092a31.592 31.592 0 0 1-59.243-2.863A31.593 31.593 0 0 1 44.1 28.682c.506-.221.737-.812.516-1.318m12.117-3.304a1 1 0 0 0-1 1v32.59a1 1 0 0 0 1 1h32.591a1 1 0 0 0 1-1 33.59 33.59 0 0 0-33.59-33.59m1 2.017a31.6 31.6 0 0 1 21.338 9.235 31.6 31.6 0 0 1 9.236 21.338H57.733z"/><path fill="#000" d="M44.615 27.364a1 1 0 0 0-1.316-.516 33.592 33.592 0 0 0 3.762 62.955 33.59 33.59 0 0 0 40.407-18.614l.204-.471a1 1 0 0 0-1.798-.871l-.045.092A31.59 31.59 0 1 1 44.1 28.682c.506-.221.737-.812.516-1.318"/><path fill="#000" fill-rule="evenodd" d="M56.733 24.06a1 1 0 0 0-1 1v32.59a1 1 0 0 0 1 1h32.59a1 1 0 0 0 1-1 33.59 33.59 0 0 0-33.59-33.59m1 2.017a31.6 31.6 0 0 1 21.338 9.235 31.6 31.6 0 0 1 9.235 21.338H57.733z" clip-rule="evenodd"/></svg>