<svg xmlns="http://www.w3.org/2000/svg" width="113" height="113" fill="none"><path fill="#fff" d="M48.504 23.518c13.43 0 24.333 10.97 24.333 24.462q-.002 2.832-.63 5.497l16.711 16.838.068.077a1 1 0 0 1-1.412 1.401l-.075-.068-17.106-17.237a1 1 0 0 1-.258-.958q.701-2.667.702-5.55c0-12.398-10.017-22.462-22.333-22.462-2.736 0-5.352.502-7.791 1.426l16.615 16.707a1 1 0 0 1 0 1.41L45.994 56.46a1 1 0 0 1-1.419-.001l-16.74-16.864a22.2 22.2 0 0 0-1.63 8.35c0 12.398 10.017 22.463 22.333 22.463 2.071 0 4.079-.302 5.99-.842l.132-.028a1 1 0 0 1 .845.281l17.036 16.92.07.076a1 1 0 0 1-1.403 1.412l-.076-.069-16.63-16.516a24 24 0 0 1-5.964.766c-13.43 0-24.333-10.971-24.333-24.463 0-3.78.876-7.34 2.407-10.528l.059-.105a1 1 0 0 1 1.553-.166l17.062 17.189 9.922-9.978-16.964-17.058a1 1 0 0 1 .295-1.615 24 24 0 0 1 9.965-2.165"/><path fill="#fff" d="M48.504 23.518c13.43 0 24.333 10.97 24.333 24.462q-.002 2.832-.63 5.497l16.711 16.838.068.077a1 1 0 0 1-1.412 1.401l-.075-.068-17.106-17.237a1 1 0 0 1-.258-.958q.701-2.667.702-5.55c0-12.398-10.017-22.462-22.333-22.462-2.736 0-5.352.502-7.791 1.426l16.615 16.707a1 1 0 0 1 0 1.41L45.994 56.46a1 1 0 0 1-1.419-.001l-16.74-16.864a22.2 22.2 0 0 0-1.63 8.35c0 12.398 10.017 22.463 22.333 22.463 2.071 0 4.079-.302 5.99-.842l.132-.028a1 1 0 0 1 .845.281l17.036 16.92.07.076a1 1 0 0 1-1.403 1.412l-.076-.069-16.63-16.516a24 24 0 0 1-5.964.766c-13.43 0-24.333-10.971-24.333-24.463 0-3.78.876-7.34 2.407-10.528l.059-.105a1 1 0 0 1 1.553-.166l17.062 17.189 9.922-9.978-16.964-17.058a1 1 0 0 1 .295-1.615 24 24 0 0 1 9.965-2.165"/></svg>