<svg xmlns="http://www.w3.org/2000/svg" width="112" height="112" fill="none"><path fill="url(#a)" fill-rule="evenodd" d="M83.505 41.24c.52.905.784 1.97.784 3.041v13.25l-14.94 8.596a.3.3 0 0 0-.15.26v17.1L57.632 90.09l-.004.002a6.2 6.2 0 0 1-2.96.863v-33.04zm-25.57 49.368a6.8 6.8 0 0 1-3.364.95.3.3 0 0 1-.405-.002 6.8 6.8 0 0 1-3.287-.948L39.45 84.08a.3.3 0 0 1-.509-.216v-.074l-11.565-6.603-.004-.002a7.3 7.3 0 0 1-2.567-2.567v.001c-.638-1.038-.954-2.269-.954-3.494V44.281c0-1.204.305-2.372.916-3.427a.3.3 0 0 1 .216-.351 7.3 7.3 0 0 1 2.39-2.281l.003-.002 11.57-6.628a.3.3 0 0 1 .39-.336l.056.025.048.028 11.369-6.512a6.83 6.83 0 0 1 3.523-.95 6.83 6.83 0 0 1 3.523.95l11.388 6.502.03-.018a.3.3 0 0 1 .449.291l11.642 6.648.005.002.39.248a7.3 7.3 0 0 1 1.999 2.033.3.3 0 0 1 .216.35l.077.131c.56.995.839 2.148.839 3.297v26.647a.3.3 0 0 1 .076.198c0 1.228-.317 2.42-.952 3.49a7.3 7.3 0 0 1-2.57 2.57l-.004.002h-.001L69.784 83.84a.3.3 0 0 1-.355.203l-11.495 6.563zm11.31-58.617 11.817 6.746v.001a6.7 6.7 0 0 1 2.126 1.992L54.369 57.394 25.551 40.73a6.7 6.7 0 0 1 2.126-1.992L39.436 32l14.744 8.52a.3.3 0 0 0 .3 0zm-.604-.345-11.084-6.328-.004-.003a6.23 6.23 0 0 0-3.222-.868 6.26 6.26 0 0 0-2.85.665l-.371.203-.004.002-11.067 6.339 14.292 8.26zM51.557 90.295c.78.393 1.622.613 2.512.657V57.915L25.236 41.24a6.2 6.2 0 0 0-.785 3.04v13.25l14.94 8.634a.3.3 0 0 1 .15.26v17.018l11.641 6.647.005.002zM38.94 66.597v16.504l-11.264-6.432a6.7 6.7 0 0 1-2.13-2l-.23-.36-.002-.003-.104-.178c-.505-.897-.761-1.947-.761-3.002V58.224zm30.857 16.547V66.56l14.491-8.338v12.904c0 .072.026.138.069.19a6.2 6.2 0 0 1-.862 2.994 6.7 6.7 0 0 1-2.359 2.359z" clip-rule="evenodd"/><path fill="url(#b)" fill-rule="evenodd" d="M54.333 23.008a7.67 7.67 0 0 0-3.947 1.064L39.33 30.405a1.14 1.14 0 0 0-1.112.637L26.96 37.49l-.014.008a8.1 8.1 0 0 0-2.542 2.363 1.13 1.13 0 0 0-.468.759 7.63 7.63 0 0 0-.922 3.658v26.845c0 1.362.35 2.744 1.073 3.925a8.1 8.1 0 0 0 2.859 2.855l.016.01 11.243 6.419a1.14 1.14 0 0 0 1.16.662l11.097 6.336a7.6 7.6 0 0 0 3.465 1.05 1.13 1.13 0 0 0 .876.005 7.6 7.6 0 0 0 3.552-1.055l11.305-6.454c.293-.042.55-.195.728-.416l11.468-6.548.016-.01a8.1 8.1 0 0 0 2.863-2.862 7.63 7.63 0 0 0 1.069-3.917q-.001-.217-.076-.41V44.28c0-1.264-.301-2.546-.924-3.668a1.13 1.13 0 0 0-.466-.749 8.1 8.1 0 0 0-2.542-2.363l-.016-.009-11.35-6.48-.022-.04a1.14 1.14 0 0 0-1.04-.567l-11.089-6.331a7.67 7.67 0 0 0-3.946-1.064m12.628 8.64-9.834-5.614a5.4 5.4 0 0 0-2.794-.751 5.4 5.4 0 0 0-2.795.75l-.014.01-9.803 5.615 12.612 7.288zm-27.524 1.318L28.1 39.46q-.723.429-1.285 1.03L54.37 56.425 81.928 40.49a5.9 5.9 0 0 0-1.285-1.03l-11.395-6.506-14.346 8.29a1.14 1.14 0 0 1-1.138 0zm17.766 56.403a5.3 5.3 0 0 1-1.695.647v-31.62L83.134 42.42c.21.583.319 1.216.319 1.86v12.764l-14.52 8.355c-.354.203-.571.579-.571.986v16.613L57.219 89.36zm-3.97.632V58.396l-27.62-15.973a5.4 5.4 0 0 0-.324 1.856v12.766l14.522 8.392c.352.204.569.58.569.985v16.533l11.234 6.414a5.3 5.3 0 0 0 1.62.632M25.29 71.124V59.673l12.816 7.406v14.577l-10.007-5.714a5.84 5.84 0 0 1-2.058-2.061l-.01-.016c-.486-.79-.741-1.755-.741-2.74M70.637 81.7l10.082-5.757a5.84 5.84 0 0 0 2.059-2.061 5.34 5.34 0 0 0 .738-2.382 1.1 1.1 0 0 1-.063-.375V59.668l-12.816 7.374z" clip-rule="evenodd"/><defs><linearGradient id="a" x1="54.407" x2="54.407" y1="23.848" y2="91.635" gradientUnits="userSpaceOnUse"><stop stop-color="#505BFD"/><stop offset="1" stop-color="#B542FD"/></linearGradient><linearGradient id="b" x1="54.409" x2="54.409" y1="23.008" y2="92.471" gradientUnits="userSpaceOnUse"><stop stop-color="#505BFD"/><stop offset="1" stop-color="#B542FD"/></linearGradient></defs></svg>