<svg xmlns="http://www.w3.org/2000/svg" width="85" height="85" fill="none"><path fill="#121212" d="M48.056 31.963c.196-.196 6.544-.047 6.79.04l.025.01.01.004a1 1 0 0 1 .107.056l.02.014.054.042.03.028.01.01q.007.005.012.012l.019.021.028.032.012.018.024.033.011.02a.7.7 0 0 1 .098.354v6.555a.695.695 0 0 1-1.388 0v-4.88l-9.195 9.194c-.27.271-.71.271-.981 0l-4.972-4.972-7.704 7.704a.695.695 0 0 1-.98-.981l8.193-8.195.053-.047a.694.694 0 0 1 .928.047l4.973 4.973 8.704-8.704h-4.88a.694.694 0 0 1 0-1.388"/><path fill="#121212" fill-rule="evenodd" d="M61.564 20.804a5.436 5.436 0 0 1 5.435 5.436V49.95a5.436 5.436 0 0 1-5.435 5.436H43.289v8.096h8.79l.07.004a.694.694 0 0 1 0 1.38l-.07.004h-18.97a.694.694 0 0 1 0-1.388h8.792v-8.096H23.625a5.436 5.436 0 0 1-5.436-5.436V26.24a5.436 5.436 0 0 1 5.436-5.436zm-37.939 1.388a4.05 4.05 0 0 0-4.048 4.048V49.95A4.05 4.05 0 0 0 23.625 54h37.939a4.05 4.05 0 0 0 4.048-4.048V26.24a4.05 4.05 0 0 0-4.048-4.048z" clip-rule="evenodd"/></svg>