<svg xmlns="http://www.w3.org/2000/svg" width="113" height="113" fill="none"><path fill="#000" fill-rule="evenodd" d="M76.426 23.441a1 1 0 0 1 0 1.99l-.103.005h-18.51v12.917l-.005.102a1 1 0 0 1-.207.513h20.88c5.534 0 10.042 4.436 10.042 9.934v28.761c0 5.498-4.508 9.935-10.042 9.935H34.52c-5.535 0-10.042-4.437-10.042-9.935v-28.76c0-5.498 4.507-9.935 10.042-9.935h21.503a1 1 0 0 1-.207-.513l-.005-.102V25.435H36.712a1 1 0 0 1 0-2h39.612zm-18.918 40.86a1 1 0 0 1 .304.718v20.579h20.669c4.453 0 8.041-3.564 8.041-7.935V64.301zM34.52 40.968c-4.452 0-8.042 3.564-8.042 7.934v28.761c0 4.37 3.59 7.935 8.042 7.935h21.292v-20.58c0-.281.118-.535.305-.717H27.81a1 1 0 1 1 0-2h58.713V48.902c0-4.37-3.589-7.934-8.041-7.934z" clip-rule="evenodd"/></svg>