<svg width="112" height="112" viewBox="0 0 112 112" fill="none" xmlns="http://www.w3.org/2000/svg">
<mask id="mask0_385_10926" style="mask-type:alpha" maskUnits="userSpaceOnUse" x="19" y="14" width="75" height="81">
<path d="M45.5184 24.0349C49.3141 24.2277 52.3328 27.366 52.3328 31.2097L52.324 31.5798C52.1894 34.2308 50.6161 36.5005 48.3709 37.6296L56.3572 59.1482C55.8504 59.749 55.3699 60.3732 54.9178 61.0183L52.5018 54.5056L46.7742 59.7468L52.6043 65.032C52.3074 65.6719 52.0336 66.3254 51.7879 66.9919L45.2918 61.1033L31.8289 73.4236L45.3944 79.4031L50.2029 77.2732C50.2349 77.9836 50.2944 78.6869 50.3817 79.3816L47.8709 80.4939L50.7987 81.7839C50.986 82.6291 51.2146 83.4588 51.4813 84.2712L45.3973 81.5896L24.5955 90.8005C24.2295 90.9626 23.8015 90.8907 23.5086 90.6179C23.2157 90.345 23.114 89.9232 23.2498 89.5466L29.0828 73.3816L36.6434 52.4265L41.9715 37.657C42.2241 37.7815 42.4855 37.8898 42.7537 37.9841C40.0741 37.0369 38.1241 34.5464 37.9735 31.5798L37.9637 31.2097C37.9637 27.2418 41.1804 24.0252 45.1483 24.0251L45.5184 24.0349ZM25.9246 88.0232L42.9207 80.4978L30.5994 75.0671L25.9246 88.0232ZM32.3397 70.2449L43.8045 59.7537L38.0184 54.5085L32.3397 70.2449ZM46.4891 38.2664C46.0545 38.3484 45.6066 38.3943 45.1483 38.3943L44.7781 38.3855C44.4668 38.3697 44.1608 38.3313 43.8612 38.2771C43.865 38.2778 43.8691 38.2793 43.8729 38.28L38.7518 52.4753L45.286 58.3982L51.7508 52.4822L46.4754 38.2703C46.48 38.2694 46.4844 38.2672 46.4891 38.2664ZM45.1483 26.0251C42.2849 26.0252 39.9637 28.3464 39.9637 31.2097C39.9639 34.0729 42.285 36.3942 45.1483 36.3943C48.0113 36.394 50.3326 34.0728 50.3328 31.2097C50.3328 28.3465 48.0114 26.0254 45.1483 26.0251Z" fill="black"/>
<path d="M58.3154 21.4614C60.9613 24.4117 61.9078 26.8229 61.9078 30.6127C61.9078 34.4026 60.9613 36.8138 58.3154 39.7641" stroke="black" stroke-width="2"/>
<path d="M64.3008 15C68.7105 20.0328 70.288 24.146 70.288 30.6111C70.288 37.0761 68.7105 41.1893 64.3008 46.2221" stroke="black" stroke-width="2"/>
<path d="M31.9727 39.7644C29.3268 36.8141 28.3803 34.403 28.3803 30.6131C28.3803 26.8232 29.3268 24.412 31.9727 21.4618" stroke="black" stroke-width="2"/>
<path d="M25.9873 46.2258C21.5776 41.193 20.0001 37.0798 20.0001 30.6148C20.0001 24.1497 21.5776 20.0365 25.9873 15.0037" stroke="black" stroke-width="2"/>
<circle cx="74.2481" cy="74.6465" r="18.752" stroke="black" stroke-width="2"/>
<path d="M58.3477 66.4572C58.3477 66.4572 64.49 70.3113 74.2456 70.3113C84.0012 70.3113 90.1436 66.4572 90.1436 66.4572" stroke="black" stroke-width="2"/>
<path d="M74.2466 92.8203C75.8267 92.8203 83.7275 85.7994 83.7275 74.6485C83.7275 63.4976 76.6168 56.4767 74.2466 56.4767" stroke="black" stroke-width="2"/>
<path d="M58.7305 83.9415C58.7305 83.9415 64.7907 80.4558 74.4159 80.4558C84.041 80.4558 90.1013 83.9415 90.1013 83.9415" stroke="black" stroke-width="2"/>
<path d="M74.2495 56.4727C72.2743 56.4727 64.7686 63.4936 64.7686 74.6445C64.7686 85.7954 72.2743 92.8163 74.2495 92.8163" stroke="black" stroke-width="2"/>
<path d="M74.25 56.4727L74.25 94.3965" stroke="black" stroke-width="2"/>
</mask>
<g mask="url(#mask0_385_10926)">
<path d="M114.002 109L2.00195 109L2.00195 5L114.002 5.00001L114.002 109Z" fill="url(#paint0_linear_385_10926)"/>
</g>
<defs>
<linearGradient id="paint0_linear_385_10926" x1="58.002" y1="109" x2="58.002" y2="2" gradientUnits="userSpaceOnUse">
<stop stop-color="#A34DEE"/>
<stop offset="1" stop-color="#6943F5"/>
</linearGradient>
</defs>
</svg>
