<svg xmlns="http://www.w3.org/2000/svg" width="112" height="112" fill="none"><path fill="url(#a)" fill-rule="evenodd" d="m88.61 20.059.06.005a.3.3 0 0 1 .24.294v43.225c0 .08-.032.156-.088.212L74.49 78.203a.3.3 0 0 1-.213.089H56.504L42.26 92.612a.3.3 0 0 1-.513-.212V78.292H24.151a.3.3 0 0 1-.3-.3V20.358l.006-.06a.3.3 0 0 1 .294-.24zM24.45 77.69h17.597a.3.3 0 0 1 .3.301v13.68l13.82-13.892.046-.038a.3.3 0 0 1 .167-.05h17.772L88.31 63.46V20.658H24.45zm48.163-29.274V34.009a.3.3 0 1 1 .6 0v14.408a.3.3 0 1 1-.6 0m-17.9-14.408v14.408a.3.3 0 1 0 .6 0V34.009a.3.3 0 1 0-.6 0" clip-rule="evenodd"/><path fill="url(#b)" d="M72.913 32.87c.629 0 1.138.508 1.138 1.137v14.408a1.137 1.137 0 1 1-2.275 0V34.007c0-.629.51-1.138 1.137-1.138"/><path fill="url(#c)" d="M56.152 34.007a1.138 1.138 0 0 0-2.276 0v14.408a1.138 1.138 0 0 0 2.276 0z"/><path fill="url(#d)" fill-rule="evenodd" d="M23.014 20.356c0-.628.509-1.137 1.137-1.137H88.61c.629 0 1.138.509 1.138 1.137v43.225c0 .3-.119.59-.331.802L75.084 78.793a1.14 1.14 0 0 1-.807.335H56.853L42.854 93.2a1.138 1.138 0 0 1-1.944-.802v-13.27H24.151c-.628 0-1.137-.51-1.137-1.138zm2.275 1.138v55.358h16.759c.628 0 1.137.51 1.137 1.138V89.64l12.389-12.454c.213-.214.504-.335.806-.335h17.424l13.668-13.74V21.494z" clip-rule="evenodd"/><defs><linearGradient id="a" x1="56.381" x2="56.381" y1="20.059" y2="92.7" gradientUnits="userSpaceOnUse"><stop stop-color="#505BFD"/><stop offset="1" stop-color="#B542FD"/></linearGradient><linearGradient id="b" x1="56.38" x2="56.38" y1="19.219" y2="93.535" gradientUnits="userSpaceOnUse"><stop stop-color="#505BFD"/><stop offset="1" stop-color="#B542FD"/></linearGradient><linearGradient id="c" x1="56.38" x2="56.38" y1="19.219" y2="93.535" gradientUnits="userSpaceOnUse"><stop stop-color="#505BFD"/><stop offset="1" stop-color="#B542FD"/></linearGradient><linearGradient id="d" x1="56.38" x2="56.38" y1="19.219" y2="93.535" gradientUnits="userSpaceOnUse"><stop stop-color="#505BFD"/><stop offset="1" stop-color="#B542FD"/></linearGradient></defs></svg>