<svg xmlns="http://www.w3.org/2000/svg" width="112" height="112" fill="none"><path fill="url(#a)" fill-rule="evenodd" d="M57.227 37.523v46.829l-.006.06a.3.3 0 0 1-.588 0l-.006-.06a9.734 9.734 0 0 0-9.735-9.735H23.477a.3.3 0 0 1-.3-.3V24.144a.3.3 0 0 1 .24-.294l.06-.006h20.07a13.68 13.68 0 0 1 13.68 13.68M54.2 77.043a10.3 10.3 0 0 1 2.427 3.839V37.523a13.08 13.08 0 0 0-13.08-13.08h-19.77v49.575h23.115c2.74 0 5.37 1.088 7.308 3.026m3.1-39.512v46.828l.007.06a.3.3 0 0 0 .587 0l.006-.06a9.734 9.734 0 0 1 9.736-9.734H91.05a.3.3 0 0 0 .3-.3V24.15a.3.3 0 0 0-.24-.294l-.06-.006H70.98a13.68 13.68 0 0 0-13.68 13.68m3.027 39.52A10.3 10.3 0 0 0 57.9 80.89V37.531a13.08 13.08 0 0 1 13.08-13.08h19.77v49.574H67.636c-2.741 0-5.37 1.088-7.309 3.026" clip-rule="evenodd"/><path fill="url(#b)" fill-rule="evenodd" d="M43.547 23.004a14.52 14.52 0 0 1 13.718 9.766 14.51 14.51 0 0 1 13.715-9.759h20.07c.627 0 1.137.51 1.137 1.138v50.173c0 .629-.51 1.138-1.138 1.138H67.635a8.897 8.897 0 0 0-8.897 8.897 1.137 1.137 0 0 1-1.487 1.083q-.155.046-.325.047c-.628 0-1.137-.509-1.137-1.137a8.9 8.9 0 0 0-8.897-8.897H23.477c-.628 0-1.137-.51-1.137-1.138V24.141c0-.628.51-1.137 1.137-1.137zM54.792 76.45q.54.54.997 1.143V37.52a12.24 12.24 0 0 0-12.242-12.242H24.615v47.899h22.277c2.963 0 5.804 1.177 7.9 3.272m4.943.007q-.54.54-.997 1.143V37.528A12.24 12.24 0 0 1 70.98 25.286h18.932v47.899H67.635a11.17 11.17 0 0 0-7.9 3.272" clip-rule="evenodd"/><defs><linearGradient id="a" x1="57.264" x2="57.264" y1="23.844" y2="84.66" gradientUnits="userSpaceOnUse"><stop stop-color="#505BFD"/><stop offset="1" stop-color="#B542FD"/></linearGradient><linearGradient id="b" x1="57.263" x2="57.263" y1="23.004" y2="85.495" gradientUnits="userSpaceOnUse"><stop stop-color="#505BFD"/><stop offset="1" stop-color="#B542FD"/></linearGradient></defs></svg>