<svg xmlns="http://www.w3.org/2000/svg" width="113" height="113" fill="none"><path fill="#fff" d="M60.883 25.351c-2.796-.348-5.63-.354-8.442.076v-.002a2.82 2.82 0 0 0-2.254 1.845l-.064.2h-.001l-1.188 4.175a.74.74 0 0 1-.464.492l-.018.006a24.5 24.5 0 0 0-2.866 1.166.8.8 0 0 1-.616.035l-.066-.03-.01-.007-3.916-2.18-.18-.091a2.82 2.82 0 0 0-2.824.25l-.012.01-.012.007c-1.252.94-2.483 1.959-3.65 3.125a30 30 0 0 0-2.782 3.24l-.018.024c-.603.854-.741 2.015-.16 3.001v.001l2.104 3.8v.002a.74.74 0 0 1 0 .693l-.01.019-.008.018a30 30 0 0 0-1.228 2.875c-.104.278-.29.446-.514.518l-4.306 1.221-.007.002-.008.002c-1.007.303-1.86 1.166-2.028 2.27h-.001c-.459 2.962-.457 5.987-.071 8.935l.002.011a2.83 2.83 0 0 0 2.042 2.318l4.155 1.192c.25.076.435.263.509.514l.005.016.005.018c.346 1.037.734 2.065 1.234 3.07a.84.84 0 0 1-.007.734l-2.172 3.87-.002.005a2.82 2.82 0 0 0 .16 3.004l.006.008a30 30 0 0 0 3.1 3.63c.995.994 2.086 1.908 3.16 2.74l.006.003a2.76 2.76 0 0 0 3.034.217h.002l3.781-2.113.014-.008.013-.008c.159-.095.426-.111.683.026l.012.005c.781.405 1.577.745 2.363 1.05l.783.295c.296.113.474.306.541.53l1.227 4.257.003.011c.303 1.009 1.168 1.864 2.274 2.03l.005.001a32.3 32.3 0 0 0 8.823.035h.011a2.83 2.83 0 0 0 2.319-2.044l1.189-4.148a.77.77 0 0 1 .497-.52l.009-.002c1.114-.36 2.18-.824 3.216-1.307l.011-.005.013-.007c.27-.135.54-.123.746-.014l3.837 2.14h.002a2.82 2.82 0 0 0 3.003-.159l.016-.012a30 30 0 0 0 3.453-2.959 32 32 0 0 0 2.882-3.338l.02-.028a2.82 2.82 0 0 0 .251-2.824l-.09-.18-.004-.005-2.136-3.797c-.11-.208-.123-.477.013-.749l.006-.012c.492-1.02.913-2.036 1.296-3.081.114-.303.31-.483.538-.55v-.001l4.213-1.188.008-.002.008-.003c1.018-.305 1.868-1.179 2.03-2.315l.164-1.14h-.056c.254-2.397.232-4.811-.067-7.205l-.074-.554a2.82 2.82 0 0 0-1.844-2.254l-.2-.066h-.003L82.1 48.995a.74.74 0 0 1-.497-.466l-.004-.014-.005-.013-.272-.758a20 20 0 0 0-.963-2.206.96.96 0 0 1-.003-.77l2.12-3.834a2.82 2.82 0 0 0-.16-3.004l-.005-.007-.005-.008-.336-.447a30 30 0 0 0-2.659-3.04 29 29 0 0 0-3.418-2.925l-.016-.012-.171-.111a2.82 2.82 0 0 0-2.653-.14l-.179.092h-.002l-3.837 2.14a.74.74 0 0 1-.69-.003l-.01-.005-.012-.006-.704-.336a28 28 0 0 0-2.16-.868.82.82 0 0 1-.48-.433l-.032-.084-1.219-4.268-.003-.012-.064-.188c-.325-.864-1.065-1.585-2.006-1.803l-.205-.04h-.009zm-8.149 2.053c2.785-.426 5.612-.395 8.42 0v.001c.223.034.476.218.607.5l.048.127 1.222 4.278.003.012.004.012c.27.862.918 1.492 1.728 1.796l.007.002.007.003c.696.249 1.365.513 2.011.807l.638.304c.8.417 1.755.413 2.552-.012l.008-.004.008-.005 3.849-2.145-.001-.001a.82.82 0 0 1 .872.042 27 27 0 0 1 3.18 2.721 28 28 0 0 1 2.786 3.242l.061.101c.107.209.12.45.034.67l-.05.108-.001.002-2.146 3.882-.017.03-.014.032a2.96 2.96 0 0 0 0 2.48l.009.019.01.018c.334.645.618 1.315.88 2.016l.254.711c.284.874.987 1.498 1.805 1.753l.014.004.012.004 4.224 1.192c.345.1.565.365.61.677l.07.52a29.4 29.4 0 0 1-.07 7.815l-.03.206a.9.9 0 0 1-.438.429l-.124.047-4.208 1.187-.01.003c-.873.257-1.473.893-1.788 1.62l-.058.147-.003.006a32 32 0 0 1-1.216 2.895c-.408.817-.421 1.773.013 2.587l.005.01.006.01 2.142 3.808a.82.82 0 0 1-.043.876 29.6 29.6 0 0 1-2.684 3.11 28 28 0 0 1-3.215 2.754.82.82 0 0 1-.872.042l-3.848-2.145-.008-.004-.008-.005-.154-.076a2.81 2.81 0 0 0-2.408.052l-.752.343c-.622.277-1.238.53-1.858.746l-.373.125a2.76 2.76 0 0 0-1.757 1.697l-.054.166-.002.005-1.192 4.156a.83.83 0 0 1-.564.59l-.115.024c-2.735.362-5.533.36-8.26-.033-.224-.034-.476-.218-.606-.5l-.048-.126-1.224-4.247v-.006l-.057-.171c-.286-.78-.886-1.322-1.564-1.616l-.146-.059-.007-.003-.75-.282a22 22 0 0 1-2.166-.96h-.001c-.756-.4-1.763-.483-2.615.014l-3.779 2.11-.106.05a.75.75 0 0 1-.738-.103c-1.036-.802-2.057-1.659-2.97-2.572a28 28 0 0 1-2.89-3.383.82.82 0 0 1-.045-.87l2.18-3.883.006-.01.005-.01a2.84 2.84 0 0 0 .057-2.528l-.006-.011-.005-.013-.165-.338c-.266-.566-.5-1.15-.718-1.757l-.255-.737a2.75 2.75 0 0 0-1.691-1.78l-.168-.055-.006-.002-4.156-1.192a.83.83 0 0 1-.613-.674c-.362-2.773-.361-5.604.066-8.361v-.005c.039-.256.274-.55.627-.656l4.311-1.221.025-.008c.863-.27 1.494-.918 1.797-1.728l.002-.006.003-.008a28 28 0 0 1 1.151-2.696 2.74 2.74 0 0 0-.018-2.539l-.008-.013-2.111-3.816-.022-.037-.046-.09c-.091-.219-.07-.49.106-.744a28 28 0 0 1 2.587-3.011c1.076-1.077 2.225-2.03 3.42-2.927a.82.82 0 0 1 .87-.041l3.917 2.18c.79.446 1.744.424 2.51.067l.011-.005a22.5 22.5 0 0 1 2.641-1.076l-.001-.002c.88-.282 1.507-.986 1.764-1.807l.004-.013.002-.012 1.193-4.188a.83.83 0 0 1 .679-.613zm4.105 14.769c-8.151 0-14.76 6.608-14.76 14.76 0 8.15 6.608 14.76 14.76 14.76s14.76-6.609 14.76-14.76-6.609-14.76-14.76-14.76m0 2c7.047 0 12.76 5.712 12.76 12.76 0 7.047-5.713 12.76-12.76 12.76s-12.76-5.714-12.76-12.76c0-7.047 5.713-12.76 12.76-12.76"/><path fill="#fff" fill-rule="evenodd" d="M56.84 42.296c-8.085 0-14.638 6.553-14.638 14.638 0 8.084 6.553 14.638 14.638 14.638 8.084 0 14.637-6.554 14.638-14.638S64.924 42.296 56.84 42.296m0 1.755c7.114 0 12.882 5.768 12.882 12.883S63.954 69.816 56.84 69.816c-7.115 0-12.883-5.768-12.883-12.882 0-7.115 5.768-12.883 12.883-12.883" clip-rule="evenodd"/><path fill="#fff" fill-rule="evenodd" d="M60.867 25.473c-2.788-.348-5.614-.353-8.417.075a2.7 2.7 0 0 0-2.148 1.764l-.062.191-1.19 4.177a.86.86 0 0 1-.544.574l-.016.005q-1.43.478-2.852 1.162a.92.92 0 0 1-.714.037l-.08-.038-.01-.005-3.916-2.18-.172-.088a2.7 2.7 0 0 0-2.702.24l-.021.015c-1.248.937-2.475 1.951-3.636 3.112a30 30 0 0 0-2.772 3.228l-.015.021c-.58.82-.709 1.931-.153 2.871l2.108 3.81a.86.86 0 0 1-.003.803l-.008.016-.008.016a30 30 0 0 0-1.223 2.865c-.117.31-.33.509-.593.593l-4.309 1.221-.006.003-.006.002c-.968.29-1.784 1.118-1.944 2.17-.456 2.95-.456 5.964-.071 8.9l.002.01a2.7 2.7 0 0 0 1.956 2.219l4.148 1.189a.87.87 0 0 1 .598.599l.005.014.005.015c.345 1.035.73 2.059 1.228 3.057a.96.96 0 0 1-.01.844l-2.173 3.873-.002.003a2.7 2.7 0 0 0 .153 2.874l.005.008a30 30 0 0 0 3.088 3.615c.989.988 2.076 1.898 3.148 2.729l.005.004c.867.663 1.995.71 2.901.206h.002l3.78-2.112.012-.007.012-.007c.202-.121.516-.132.804.021l.01.005c1.033.535 2.092.958 3.126 1.337.29.109.49.294.589.52l.036.099 1.224 4.252.003.01c.29.968 1.12 1.785 2.175 1.943l.005.001c2.91.42 5.886.42 8.79.036l.008-.002a2.7 2.7 0 0 0 2.218-1.955l1.19-4.15c.09-.3.316-.52.579-.602l.007-.002c1.108-.358 2.168-.817 3.202-1.3l.01-.005.011-.005c.304-.152.615-.142.859-.014l3.839 2.14v.001a2.7 2.7 0 0 0 2.875-.152l.007-.004.007-.006a30 30 0 0 0 3.438-2.947 31.5 31.5 0 0 0 2.872-3.327l.01-.01.008-.014a2.7 2.7 0 0 0 .24-2.701l-.089-.172-.001-.004-2.139-3.8c-.129-.245-.14-.556.013-.861l.005-.011c.49-1.016.909-2.03 1.291-3.071.126-.332.349-.544.619-.623l-.001-.001 4.215-1.19h.006l.007-.003c.978-.294 1.79-1.13 1.946-2.215l.143-1.002h-.051c.268-2.432.25-4.882-.053-7.312l-.073-.552a2.7 2.7 0 0 0-1.765-2.156l-.191-.063h-.003l-4.202-1.186a.86.86 0 0 1-.58-.548l-.004-.012-.274-.766a20 20 0 0 0-.958-2.193 1.08 1.08 0 0 1-.004-.879l2.123-3.84a2.7 2.7 0 0 0-.153-2.874l-.01-.013-.333-.446a30 30 0 0 0-2.648-3.028 29 29 0 0 0-3.404-2.913l-.007-.005-.007-.004-.164-.107a2.7 2.7 0 0 0-2.539-.133l-.171.087-.001.001-3.839 2.14a.86.86 0 0 1-.805-.002l-.01-.005-.01-.006-.348-.17a27 27 0 0 0-2.502-1.027.95.95 0 0 1-.55-.499l-.037-.097-1.22-4.27-.004-.012-.06-.18c-.313-.829-1.023-1.518-1.92-1.727l-.195-.037h-.008zm-8.152 1.81c2.8-.427 5.642-.396 8.462.002.268.042.55.256.695.57l.054.142 1.223 4.28.002.01.004.011c.257.824.876 1.426 1.653 1.718l.007.002.006.003c.698.25 1.371.514 2.02.81l.642.306c.765.399 1.678.396 2.44-.01l.007-.004.008-.004 3.847-2.146a.94.94 0 0 1 .893-.018l.117.07a27 27 0 0 1 3.189 2.732 28.4 28.4 0 0 1 2.802 3.262.94.94 0 0 1 .106.88l-.057.123-.002.002-2.145 3.883-.015.027-.013.026a2.84 2.84 0 0 0 0 2.378l.008.016.008.016c.45.867.809 1.778 1.142 2.744.27.834.942 1.43 1.726 1.676l.012.003.012.004 4.22 1.19a.95.95 0 0 1 .701.78l.07.521a29.6 29.6 0 0 1-.07 7.847l-.032.219a1.03 1.03 0 0 1-.642.562l-4.213 1.19-.01.002c-.831.245-1.406.852-1.709 1.55l-.057.142-.002.006a32 32 0 0 1-1.221 2.907c-.392.783-.404 1.697.01 2.474l.005.009.005.008 2.143 3.81c.18.322.16.71-.052 1.01a30 30 0 0 1-2.697 3.122 28 28 0 0 1-3.222 2.764.94.94 0 0 1-1.01.052l-3.847-2.145-.008-.004-.007-.004-.147-.073a2.69 2.69 0 0 0-2.306.052l-.753.344a23 23 0 0 1-2.245.876 2.64 2.64 0 0 0-1.678 1.622l-.052.158-.002.006-1.192 4.155a.95.95 0 0 1-.773.7c-2.749.364-5.562.364-8.304-.032-.305-.048-.63-.317-.748-.705l-1.226-4.256-.002-.004-.053-.163c-.273-.744-.845-1.264-1.498-1.546l-.14-.057-.006-.002-.752-.283a22 22 0 0 1-2.179-.968c-.725-.382-1.689-.46-2.5.014l-3.779 2.111a.88.88 0 0 1-.869.008l-.113-.075c-1.038-.803-2.06-1.663-2.978-2.58a28 28 0 0 1-2.9-3.393.94.94 0 0 1-.054-1.005l2.18-3.884.004-.008.005-.008a2.72 2.72 0 0 0 .055-2.42l-.005-.01-.006-.01-.165-.34a20 20 0 0 1-.723-1.768l-.257-.74a2.62 2.62 0 0 0-1.616-1.705l-.16-.053h-.006l-4.155-1.193-.142-.051a.94.94 0 0 1-.56-.724c-.363-2.783-.362-5.627.067-8.397v-.004c.047-.306.316-.633.706-.753l4.32-1.224.011-.002.011-.005c.824-.257 1.426-.876 1.718-1.653l.002-.006.003-.007c.326-.913.72-1.803 1.156-2.708a2.61 2.61 0 0 0-.016-2.428l-.007-.012-2.112-3.815-.008-.016-.01-.017-.055-.108c-.109-.26-.079-.576.12-.862a28 28 0 0 1 2.6-3.025c1.081-1.083 2.235-2.04 3.433-2.94a.94.94 0 0 1 1.003-.048l3.907 2.174c.753.43 1.67.412 2.408.068l.01-.005a23 23 0 0 1 2.656-1.081l-.001-.001c.838-.268 1.439-.941 1.685-1.728l.003-.011.003-.011 1.192-4.188a.95.95 0 0 1 .778-.701z" clip-rule="evenodd"/></svg>