<svg xmlns="http://www.w3.org/2000/svg" width="85" height="85" fill="none"><path fill="#121212" d="M55.433 32.49a.694.694 0 0 0-.928-.047l-.053.047-8.725 8.724-7.818-5.199a.7.7 0 0 0-.71-.034l-.093.06-7.279 5.512a.695.695 0 0 0 .838 1.107l6.886-5.217 7.881 5.241a.694.694 0 0 0 .875-.087l9.126-9.126.047-.053a.694.694 0 0 0-.047-.928"/><path fill="#121212" fill-rule="evenodd" d="M23.625 20.803a5.436 5.436 0 0 0-5.436 5.436V49.95a5.436 5.436 0 0 0 5.436 5.436h18.276v8.096h-8.792a.694.694 0 0 0 0 1.388h18.969l.071-.004a.694.694 0 0 0 0-1.38l-.071-.004h-8.79v-8.096h18.276A5.436 5.436 0 0 0 67 49.95V26.239a5.436 5.436 0 0 0-5.436-5.436zm37.94 1.387a4.05 4.05 0 0 1 4.047 4.049V49.95a4.05 4.05 0 0 1-4.048 4.048H23.625a4.05 4.05 0 0 1-4.048-4.048V26.239a4.05 4.05 0 0 1 4.048-4.049z" clip-rule="evenodd"/></svg>