<svg xmlns="http://www.w3.org/2000/svg" width="85" height="85" fill="none"><path fill="#fff" fill-rule="evenodd" d="M42.953 15.911a9.007 9.007 0 0 1 9.006 9.007v4.224h9.5l.073.004c.354.036.63.335.63.698V61.41a4.916 4.916 0 0 1-4.916 4.916H27.939a4.917 4.917 0 0 1-4.916-4.916V29.845l.004-.072a.703.703 0 0 1 .699-.63h9.5v-4.225a9.007 9.007 0 0 1 9.006-9.007zM24.428 61.41a3.51 3.51 0 0 0 3.511 3.511h29.307a3.51 3.51 0 0 0 3.511-3.511V30.547H51.96v5.167a.702.702 0 0 1-1.404 0v-5.167H34.63v5.167a.702.702 0 0 1-1.405 0v-5.167h-8.797zm17.804-44.093a7.6 7.6 0 0 0-7.602 7.602v4.224h15.925v-4.224a7.6 7.6 0 0 0-7.602-7.602z" clip-rule="evenodd"/></svg>