<svg xmlns="http://www.w3.org/2000/svg" width="112" height="112" fill="none"><path fill="url(#a)" d="M56.241 13c10.476 0 18.969 8.493 18.969 18.969h2.658c10.475.003 18.965 8.495 18.965 18.97s-8.49 18.965-18.965 18.967v.001H69.8v14.56h9.156a3.29 3.29 0 0 1 3.002-1.945l.17.004a3.29 3.29 0 0 1 3.12 3.285l-.005.17a3.29 3.29 0 0 1-3.285 3.12l-.169-.004a3.29 3.29 0 0 1-3.052-2.63H67.8v-16.56H57.58v22.167a3.29 3.29 0 0 1 2.292 3.136l-.005.17a3.29 3.29 0 0 1-3.285 3.12l-.169-.005a3.29 3.29 0 0 1-3.116-3.115l-.004-.17c0-1.467.96-2.71 2.287-3.134V69.907H44.894v11.736H31.327a3.29 3.29 0 0 1-2.94 1.82l-.17-.005a3.29 3.29 0 0 1-3.115-3.115l-.004-.17a3.29 3.29 0 0 1 3.289-3.29l.17.005a3.29 3.29 0 0 1 3.076 2.755h11.26v-9.736h-8.279c-10.476 0-18.97-8.492-18.97-18.968 0-10.477 8.494-18.97 18.97-18.97h2.658C37.272 21.493 45.765 13 56.242 13m.342 80.92a1.29 1.29 0 1 0 .002 2.58 1.29 1.29 0 0 0-.002-2.58m25.375-9.398a1.29 1.29 0 1 0 .001 2.58 1.29 1.29 0 0 0-.001-2.58m-53.571-5.638a1.29 1.29 0 1 0 .001 2.58 1.29 1.29 0 0 0-.001-2.58m5.688-10.903-.025.007-.004.001h.005l.025-.008q.008-.001.015-.004zm.18-.041-.038.007.042-.008.056-.01zM56.242 15c-9.371 0-16.97 7.597-16.97 16.969v2h-4.657c-9.371 0-16.97 7.598-16.97 16.97 0 9.365 7.59 16.958 16.953 16.967h2.022v.001h41.25c9.223-.003 16.726-7.363 16.958-16.531l.006-.437c0-9.224-7.36-16.73-16.527-16.963l-.438-.006H73.21v-2.001l-.006-.438c-.228-9.024-7.501-16.297-16.525-16.525z"/><defs><linearGradient id="a" x1="76.654" x2="82.669" y1="85.611" y2="85.611" gradientUnits="userSpaceOnUse"><stop stop-color="#A34DEE"/><stop offset="1" stop-color="#6943F5"/></linearGradient></defs></svg>