<svg xmlns="http://www.w3.org/2000/svg" width="84" height="84" fill="none"><g clip-path="url(#a)"><path fill="#fff" d="M28.496 13.5c7.87 0 14.25 6.38 14.25 14.25 0 2.067-.442 4.03-1.233 5.803a.825.825 0 0 0 .16.92c.226.226.56.29.854.184l.122-.055a18.66 18.66 0 0 1 9.097-2.352c10.355 0 18.75 8.395 18.75 18.75s-8.395 18.75-18.75 18.75-18.75-8.395-18.75-18.75c0-2.601.53-5.078 1.486-7.33l.198-.447c.246-.54.152-1.183-.268-1.603-.384-.384-.958-.496-1.474-.327l-.529.162a14.3 14.3 0 0 1-3.913.545c-7.87 0-14.25-6.38-14.25-14.25s6.38-14.25 14.25-14.25m0 1.5c-7.041 0-12.75 5.708-12.75 12.75s5.708 12.75 12.75 12.75c1.39 0 2.726-.222 3.975-.632l.19-.056c.894-.229 1.899-.05 2.654.601l.158.147.16.172c.703.828.85 1.951.495 2.91l-.084.204A17.2 17.2 0 0 0 34.496 51c0 9.527 7.723 17.25 17.25 17.25s17.25-7.723 17.25-17.25-7.723-17.25-17.25-17.25c-2.849 0-5.533.69-7.898 1.911l-.47.251a2.32 2.32 0 0 1-2.766-.378 2.325 2.325 0 0 1-.468-2.593l.129-.3c.626-1.505.973-3.156.973-4.891 0-7.042-5.708-12.75-12.75-12.75m23.25 25.5a6 6 0 0 1 6 6 5.97 5.97 0 0 1-1.209 3.605c2.976 1.811 4.96 5.241 4.96 9.145a.75.75 0 0 1-1.5 0c0-3.72-2.067-6.882-4.968-8.258a.75.75 0 0 1-.193-1.222 4.5 4.5 0 1 0-6.18 0 .75.75 0 0 1-.194 1.222c-2.9 1.376-4.966 4.537-4.966 8.258a.75.75 0 0 1-1.5 0c0-3.903 1.982-7.334 4.957-9.144a6 6 0 0 1 4.793-9.605m-39 3a3.75 3.75 0 1 1 0 7.5 3.75 3.75 0 0 1 0-7.5m0 1.5a2.25 2.25 0 1 0 0 4.5 2.25 2.25 0 0 0 0-4.5m15.747-24.75a4.5 4.5 0 0 1 4.5 4.5c0 .927-.282 1.787-.763 2.502 2.02 1.18 3.391 3.3 3.391 5.748a.75.75 0 0 1-1.5 0c0-2.126-1.362-3.986-3.364-4.808a.75.75 0 0 1-.225-1.243 3 3 0 1 0-4.077.002.75.75 0 0 1-.224 1.243c-2 .823-3.36 2.682-3.36 4.806a.75.75 0 0 1-1.5 0c0-2.445 1.367-4.564 3.385-5.745a4.5 4.5 0 0 1 3.737-7.005m37.503-5.531a7.5 7.5 0 1 1 0 15 7.5 7.5 0 0 1 0-15m0 1.5a6 6 0 1 0 0 12 6 6 0 0 0 0-12"/></g><defs><clipPath id="a"><path fill="#fff" d="M-.004 0h84v84h-84z"/></clipPath></defs></svg>