<svg xmlns="http://www.w3.org/2000/svg" width="85" height="85" fill="none"><path fill="#fff" fill-rule="evenodd" d="M43.752 17.707a2.14 2.14 0 0 0-2.139-.003l-20.717 11.88a2.14 2.14 0 0 0-1.078 1.859v23.492c0 .765.41 1.473 1.072 1.856l20.638 11.915.126.067a2.14 2.14 0 0 0 2.019-.067L64.298 56.79a2.15 2.15 0 0 0 1.072-1.856l-.002-23.51c0-.718-.359-1.385-.95-1.781l-.122-.076zM63.94 54.934a.72.72 0 0 1-.358.62L43.308 67.266v-23.6L63.94 31.733zM41.878 43.668v23.59L21.605 55.553a.72.72 0 0 1-.357-.618V31.732zm10.332-6.801-9.617 5.563L22.07 30.557l9.64-5.527zm-9.886-17.922a.72.72 0 0 1 .713 0l20.097 11.604-9.495 5.491-20.495-11.832z" clip-rule="evenodd"/></svg>