<svg xmlns="http://www.w3.org/2000/svg" width="113" height="113" fill="none"><path fill="#121212" d="M44.788 38.174a.897.897 0 0 1 1.193.14l.057.071 6.944 9.78 5.752-5.894.068-.063a.9.9 0 0 1 1.236.084l8.375 9.164a.897.897 0 0 1-1.323 1.21l-7.736-8.464-5.84 5.985a.898.898 0 0 1-1.372-.107l-7.566-10.656-.049-.078a.896.896 0 0 1 .261-1.172"/><path fill="#121212" fill-rule="evenodd" d="M87.018 25.293a.897.897 0 0 1 0 1.785l-.092.004h-5.924v38.542l-.004.092-.001.004h5.929l.092.004a.897.897 0 0 1 0 1.784l-.092.005H57.424v7.866l16.765 11.264.074.055a.898.898 0 0 1-.995 1.481l-.079-.047-15.765-10.593v9.31a.897.897 0 0 1-1.793 0v-9.586L39.453 88.132l-.079.047a.897.897 0 0 1-.994-1.481l.073-.055L55.562 75.15l.069-.042v-7.594h-29.5a.896.896 0 1 1 0-1.794h5.929l-.001-.003-.005-.092V27.082h-5.923a.897.897 0 0 1 0-1.793h60.795zm-53.17 40.331-.005.092v.004h45.372l-.001-.004-.005-.092V27.082H33.847z" clip-rule="evenodd"/></svg>