<svg width="24" height="24" viewBox="0 0 24 24" fill="none" xmlns="http://www.w3.org/2000/svg">
<path fill-rule="evenodd" clip-rule="evenodd" d="M10.2156 1.71875C5.51861 1.71875 1.71094 5.52643 1.71094 10.2234C1.71094 14.9204 5.51861 18.7281 10.2156 18.7281C12.3372 18.7281 14.2773 17.9513 15.767 16.6666L15.6674 16.7662L21.191 22.2897L22.2824 21.1983L16.7588 15.6748L16.6587 15.7749C17.9435 14.2851 18.7203 12.345 18.7203 10.2234C18.7203 5.52643 14.9126 1.71875 10.2156 1.71875ZM3.25438 10.2234C3.25438 6.37885 6.37103 3.26219 10.2156 3.26219C14.0602 3.26219 17.1769 6.37885 17.1769 10.2234C17.1769 14.068 14.0602 17.1847 10.2156 17.1847C6.37103 17.1847 3.25438 14.068 3.25438 10.2234Z" fill="#1A1A1A"/>
</svg>
