<svg xmlns="http://www.w3.org/2000/svg" width="112" height="112" fill="none"><g fill="#121212" clip-path="url(#a)"><path d="M38.129 29.385a26.25 26.25 0 0 1 34.32 17.303h3.215a16.78 16.78 0 0 1 0 33.56H47.261v-.002A26.25 26.25 0 0 1 21.128 51.35a26.25 26.25 0 0 1 17-21.965m14 .865a24.25 24.25 0 0 0-24.063 8.908 24.25 24.25 0 0 0 19.194 39.09h28.404a14.78 14.78 0 0 0 14.78-14.78 14.78 14.78 0 0 0-14.78-14.78h-3.977a1 1 0 0 1-.967-.75A24.25 24.25 0 0 0 52.13 30.25"/><path fill-rule="evenodd" d="M38.127 29.385a26.25 26.25 0 0 1 34.32 17.302h3.215a16.781 16.781 0 0 1 11.866 28.645 16.78 16.78 0 0 1-11.866 4.915H47.26a26.25 26.25 0 0 1-26.133-28.898 26.25 26.25 0 0 1 17.001-21.964m14.001.865a24.25 24.25 0 0 0-24.063 8.908 24.25 24.25 0 0 0 19.193 39.089h28.404a14.78 14.78 0 0 0 14.78-14.78 14.78 14.78 0 0 0-14.78-14.78h-3.976a1 1 0 0 1-.968-.75 24.25 24.25 0 0 0-18.59-17.687" clip-rule="evenodd"/></g><defs><clipPath id="a"><path fill="#fff" d="M0 0h112v112H0z"/></clipPath></defs></svg>