<svg xmlns="http://www.w3.org/2000/svg" width="113" height="112" fill="none"><path fill="#fff" d="M42.05 65.604a.93.93 0 0 1 0 1.848l-.095.005h-9.903a.929.929 0 0 1 0-1.858h9.903z"/><path fill="#fff" fill-rule="evenodd" d="M72.08 32.216a7.35 7.35 0 0 1 6.292 4.017l10.166 15.798a6.5 6.5 0 0 1 1.034 3.518V73.17a7.35 7.35 0 0 1-7.348 7.348h-51.36a7.35 7.35 0 0 1-7.348-7.348V55.549c0-1.248.359-2.47 1.034-3.518l10.165-15.797a7.35 7.35 0 0 1 6.549-4.023h30.56zM25.429 54.838a4.6 4.6 0 0 0-.056.71V73.17a5.49 5.49 0 0 0 5.491 5.49h51.36a5.49 5.49 0 0 0 5.49-5.49V55.549q-.001-.359-.055-.71zm15.836-20.77a5.49 5.49 0 0 0-4.733 2.711l-.181.336a1 1 0 0 1-.051.09L26.148 52.98H86.94L76.788 37.206a1 1 0 0 1-.05-.09 5.49 5.49 0 0 0-4.533-3.034l-.383-.014z" clip-rule="evenodd"/></svg>