<svg width="40" height="40" viewBox="0 0 40 40" fill="none" xmlns="http://www.w3.org/2000/svg">
<g id="Icon_40">
<path id="Union" fill-rule="evenodd" clip-rule="evenodd" d="M17.9735 11.9288C14.6414 12.7331 12.1024 15.5709 11.7436 19.0552H15.4749C15.6737 16.4958 16.5387 14.0401 17.9735 11.9288ZM21.8388 11.929C23.2735 14.0402 24.1384 16.4959 24.3372 19.0552H28.068C27.7092 15.5711 25.1705 12.7335 21.8388 11.929ZM22.6314 19.0552C22.4105 16.542 21.463 14.1474 19.9061 12.164C18.3492 14.1474 17.4017 16.542 17.1807 19.0552H22.6314ZM17.1806 20.7552H22.6315C22.4108 23.2688 21.4633 25.6639 19.9061 27.6475C18.3489 25.6639 17.4014 23.2688 17.1806 20.7552ZM15.4749 20.7552H11.7434C12.1018 24.24 14.641 27.0784 17.9735 27.8828C16.5385 25.7712 15.6735 23.315 15.4749 20.7552ZM21.8388 27.8826C23.2737 25.771 24.1387 23.3149 24.3373 20.7552H28.0681C27.7098 24.2398 25.1709 27.078 21.8388 27.8826ZM19.9062 29.8116C25.3768 29.8113 29.8116 25.3764 29.8116 19.9058C29.8116 14.435 25.3766 10 19.9058 10C14.4353 10 10.0005 14.4345 10 19.9049L10 19.9052V19.9058C10 25.3766 14.435 29.8116 19.9058 29.8116C19.9059 29.8116 19.906 29.8116 19.9061 29.8116" fill="#1A1A1A"/>
</g>
</svg>
