<svg xmlns="http://www.w3.org/2000/svg" width="40" height="40" fill="none"><path fill="#1A1A1A" fill-rule="evenodd" d="M17.974 11.929a8.21 8.21 0 0 0-6.23 7.126h3.73a14.7 14.7 0 0 1 2.5-7.126m3.865 0a14.7 14.7 0 0 1 2.498 7.126h3.731a8.21 8.21 0 0 0-6.23-7.126m.792 7.126a13 13 0 0 0-2.725-6.891 13 13 0 0 0-2.725 6.891zm-5.45 1.7h5.45a13 13 0 0 1-2.725 6.893 13 13 0 0 1-2.725-6.893m-1.706 0h-3.732a8.21 8.21 0 0 0 6.23 7.128 14.7 14.7 0 0 1-2.498-7.128m6.364 7.128a14.7 14.7 0 0 0 2.498-7.128h3.731a8.21 8.21 0 0 1-6.23 7.128m-1.933 1.929c5.47 0 9.906-4.436 9.906-9.906S25.377 10 19.906 10C14.436 10 10 14.435 10 19.905c0 5.472 4.435 9.907 9.906 9.907" clip-rule="evenodd"/></svg>