<svg xmlns="http://www.w3.org/2000/svg" width="20" height="20" fill="none"><g fill="#1A1A1A" clip-path="url(#a)"><path fill-rule="evenodd" d="M4.541 2.866a.6.6 0 0 0-.975.468v13.334a.6.6 0 0 0 .975.468l8.334-6.666a.6.6 0 0 0 0-.937zM11.54 10l-6.773 5.418V4.583zm4.894-5.833a.6.6 0 0 0-1.2 0v11.666a.6.6 0 1 0 1.2 0z" clip-rule="evenodd"/><path fill-rule="evenodd" d="M4.479 2.946a.5.5 0 0 0-.812.39v13.333a.5.5 0 0 0 .812.39l8.333-6.666a.5.5 0 0 0 0-.78zm7.22 7.057-7.032 5.626V4.376z" clip-rule="evenodd"/><path d="M16.333 4.17a.5.5 0 0 0-1 0v11.666a.5.5 0 1 0 1 0z"/></g><defs><clipPath id="a"><path fill="#fff" d="M0 0h20v20H0z"/></clipPath></defs></svg>