<svg xmlns="http://www.w3.org/2000/svg" width="112" height="112" fill="none"><g fill="#121212" clip-path="url(#a)"><path fill-rule="evenodd" d="M56.307 31.89c6.48.164 11.682 5.47 11.682 11.99l-.003.309c-.154 6.061-4.805 11.005-10.742 11.618v32.634a.927.927 0 0 1-1.853 0V55.857c-6.239-.31-11.224-5.39-11.383-11.668l-.004-.31c0-6.623 5.37-11.992 11.993-11.992zm-.31 1.85c-5.6 0-10.14 4.54-10.14 10.14.001 5.599 4.541 10.138 10.14 10.138s10.139-4.54 10.14-10.138c0-5.6-4.54-10.14-10.14-10.14" clip-rule="evenodd"/><path d="M30.948 22.96a.927.927 0 0 1 1.394 1.221c-2.755 3.144-4.586 5.957-5.737 8.956s-1.64 6.238-1.64 10.267c0 4.03.49 7.27 1.64 10.268 1.079 2.812 2.756 5.46 5.23 8.37l.507.586.058.074a.927.927 0 0 1-1.386 1.215l-.066-.068-.524-.606c-2.568-3.02-4.375-5.846-5.549-8.907-1.253-3.267-1.764-6.747-1.764-10.932 0-4.184.511-7.664 1.764-10.931 1.252-3.265 3.225-6.264 6.073-9.514M79.744 22.863a.927.927 0 0 1 1.242.018l.066.067.524.607c2.568 3.02 4.375 5.846 5.549 8.907 1.253 3.267 1.764 6.747 1.764 10.932 0 4.184-.511 7.664-1.764 10.931-1.252 3.265-3.225 6.263-6.073 9.514a.927.927 0 0 1-1.394-1.222c2.755-3.144 4.586-5.957 5.737-8.956s1.64-6.239 1.64-10.267c0-4.03-.49-7.27-1.64-10.268-1.079-2.812-2.756-5.46-5.23-8.37l-.507-.586-.058-.074a.927.927 0 0 1 .144-1.233M38.568 31.157a.927.927 0 0 1 1.379 1.238c-1.634 1.822-2.702 3.431-3.37 5.133-.667 1.699-.958 3.548-.958 5.876 0 2.327.29 4.175.958 5.874.584 1.49 1.475 2.908 2.783 4.46l.587.673.06.074a.927.927 0 0 1-1.373 1.23l-.066-.066-.32-.36c-1.559-1.792-2.67-3.486-3.396-5.334-.775-1.973-1.086-4.065-1.086-6.551 0-2.488.311-4.58 1.086-6.553.774-1.97 1.988-3.767 3.716-5.694M72.116 31.08a.927.927 0 0 1 1.242.003l.066.067.319.36c1.56 1.792 2.672 3.486 3.397 5.334.775 1.973 1.086 4.064 1.086 6.551s-.311 4.58-1.086 6.553c-.774 1.97-1.988 3.767-3.716 5.694a.928.928 0 0 1-1.379-1.238c1.634-1.822 2.702-3.432 3.37-5.133.667-1.7.958-3.548.958-5.876 0-2.327-.29-4.175-.958-5.875-.584-1.488-1.476-2.907-2.783-4.459l-.587-.673-.06-.074a.927.927 0 0 1 .13-1.235"/></g><defs><clipPath id="a"><path fill="#fff" d="M0 0h112v112H0z"/></clipPath></defs></svg>