<svg xmlns="http://www.w3.org/2000/svg" width="85" height="85" fill="none"><path fill="#121212" fill-rule="evenodd" d="M42.506 20.62a5.374 5.374 0 0 1 .676 10.703v7.899a7.47 7.47 0 0 1 6.017 10.8l7.743 4.47a5.374 5.374 0 1 1-.794 1.098l-7.661-4.424a7.46 7.46 0 0 1-5.958 2.966 7.46 7.46 0 0 1-5.926-2.923l-7.483 4.573a5.373 5.373 0 1 1-.71-1.144l7.471-4.567a7.47 7.47 0 0 1 5.953-10.846v-7.901a5.373 5.373 0 0 1 .672-10.704M60.87 54.13a4.027 4.027 0 1 0 0 8.055 4.027 4.027 0 0 0 0-8.054m-36.635-.137a4.027 4.027 0 1 0 .001 8.055 4.027 4.027 0 0 0 0-8.055M42.53 40.54a6.124 6.124 0 1 0 0 12.248 6.124 6.124 0 0 0 0-12.248m-.023-18.572a4.027 4.027 0 1 0 .001 8.055 4.027 4.027 0 0 0 0-8.055" clip-rule="evenodd"/></svg>