<svg xmlns="http://www.w3.org/2000/svg" width="113" height="112" fill="none"><g clip-path="url(#a)"><path fill="#fff" fill-rule="evenodd" d="M54.608 23.85a4.59 4.59 0 0 1 4.708.174l28.836 18.744a4.59 4.59 0 0 1 2.087 3.845v18.772c0 1.552-.785 2.999-2.087 3.844L59.316 87.975a4.59 4.59 0 0 1-4.998 0L25.48 69.229a4.59 4.59 0 0 1-2.087-3.844V46.613c0-1.552.786-3 2.087-3.845l28.837-18.744zM25.96 67.253q.23.25.52.44l28.837 18.743q.278.179.582.286V67.856L40.421 57.17zm31.774.604V86.72q.304-.107.583-.286l28.836-18.743c.218-.142.411-.314.578-.506L73.222 57.119zM42.027 56.05l14.789 10.21 14.796-10.257-14.794-10.264zm-16.798 9.335q0 .068.003.136l13.577-9.464-13.58-9.375zm49.603-9.38 13.571 9.416.002-.037V46.598zm-18.933-30.73q-.21.074-.408.183l-.174.104-28.836 18.744a2.8 2.8 0 0 0-.638.572l14.572 10.06L55.9 44.143zm1.835 18.867L73.22 54.888l14.521-10.065a2.8 2.8 0 0 0-.59-.517L58.318 25.562a2.8 2.8 0 0 0-.583-.286z" clip-rule="evenodd"/></g><defs><clipPath id="a"><path fill="#fff" d="M.82 0h112v112H.82z"/></clipPath></defs></svg>