<svg xmlns="http://www.w3.org/2000/svg" width="112" height="112" fill="none"><path fill="url(#a)" d="M46.448 20.824c10.447.002 18.917 8.471 18.958 18.913v.008l-.048 1.326c-.399 5.696-3.348 10.642-7.683 13.826C70.55 59.473 79.773 71.75 79.773 86.23a1.138 1.138 0 0 1-2.273 0c0-14.299-9.655-26.297-22.784-29.882a1.138 1.138 0 0 1-.252-2.092c5.157-2.846 8.663-8.24 8.665-14.507l-.026-.86c-.479-8.796-7.753-15.79-16.655-15.792-9.192 0-16.648 7.456-16.648 16.648 0 6.27 3.506 11.665 8.665 14.511.404.224.635.67.581 1.13s-.387.84-.833.962C25.083 59.933 15.43 71.931 15.43 86.23a1.139 1.139 0 0 1-2.278 0c0-14.48 9.225-26.757 22.099-31.333-4.667-3.43-7.724-8.901-7.724-15.152 0-10.449 8.472-18.921 18.92-18.921"/><path fill="url(#b)" d="M82.924 58.9a1.14 1.14 0 0 1 1.378-.415l.203.107.819.574c8.37 6.028 13.863 15.882 13.863 27.027a1.138 1.138 0 0 1-2.274 0c0-10.045-4.789-18.969-12.17-24.627l-1.511-1.085-.178-.148a1.14 1.14 0 0 1-.13-1.433"/><path fill="url(#c)" d="M66.873 20.764c9.995.508 17.947 8.778 17.947 18.9 0 4.151-1.333 7.95-3.595 11.023l-.008.007c-.222.296-.473.635-.73.933a1.137 1.137 0 1 1-1.725-1.481c.199-.231.402-.505.633-.815 1.98-2.688 3.148-6.014 3.148-9.668 0-8.904-6.995-16.179-15.789-16.625l-.855-.022-.23-.022a1.138 1.138 0 0 1 .23-2.252z"/><defs><linearGradient id="a" x1="56.17" x2="56.17" y1="20.742" y2="87.367" gradientUnits="userSpaceOnUse"><stop stop-color="#505BFD"/><stop offset="1" stop-color="#B542FD"/></linearGradient><linearGradient id="b" x1="56.17" x2="56.17" y1="20.742" y2="87.367" gradientUnits="userSpaceOnUse"><stop stop-color="#505BFD"/><stop offset="1" stop-color="#B542FD"/></linearGradient><linearGradient id="c" x1="56.17" x2="56.17" y1="20.742" y2="87.367" gradientUnits="userSpaceOnUse"><stop stop-color="#505BFD"/><stop offset="1" stop-color="#B542FD"/></linearGradient></defs></svg>