<svg xmlns="http://www.w3.org/2000/svg" width="113" height="113" fill="none"><path fill="#121212" fill-rule="evenodd" d="M55.935 21.318a3 3 0 0 1 1.67.067l29.902 10.001a3 3 0 0 1 2.048 2.845v7.87a3 3 0 0 1-3 3H82.51v29.763a8.394 8.394 0 0 1 7.044 8.289v4.9a3 3 0 0 1-3 3H26.5a3 3 0 0 1-3-3v-4.971c0-4.245 3.188-7.764 7.293-8.292V45.101h-4.007a3 3 0 0 1-3-3v-7.87a3 3 0 0 1 2.048-2.845l29.866-10zM31.638 76.724c-3.4.119-6.138 2.93-6.138 6.358v4.97a1 1 0 0 0 1 1h60.054a1 1 0 0 0 1-1v-4.9a6.394 6.394 0 0 0-6.399-6.398H31.88q-.126 0-.242-.03m1.224-.987-.005-.1q-.003-.028-.008-.055.012.075.013.155M68.428 45.1v29.653H80.51V45.101zM32.793 74.754h12.082V45.101H32.793zm14.082 0h19.553V45.101H46.875zm10.096-51.472a1 1 0 0 0-.635 0l-29.867 10a1 1 0 0 0-.683.949v7.87a1 1 0 0 0 1 1h59.769a1 1 0 0 0 1-1v-7.87a1 1 0 0 0-.683-.948z" clip-rule="evenodd"/></svg>