<svg width="112" height="112" viewBox="0 0 112 112" fill="none" xmlns="http://www.w3.org/2000/svg">
<path fill-rule="evenodd" clip-rule="evenodd" d="M88.6094 20.0586L88.6699 20.0645C88.8067 20.0923 88.9102 20.2133 88.9102 20.3584V63.583C88.9102 63.6623 88.8782 63.7387 88.8223 63.7949L74.4902 78.2031C74.434 78.2597 74.3571 78.292 74.2773 78.292H56.5039L42.2607 92.6113C42.1751 92.6974 42.0459 92.724 41.9336 92.6777C41.8214 92.6314 41.7482 92.5217 41.748 92.4004V78.292H24.1514C23.9858 78.292 23.8518 78.1577 23.8516 77.9922V20.3584L23.8574 20.2979C23.8854 20.1612 24.0064 20.0586 24.1514 20.0586H88.6094ZM24.4512 77.6914H42.0479C42.2135 77.6914 42.3477 77.8265 42.3477 77.9922V91.6729L56.168 77.7803L56.2139 77.7422C56.2628 77.7095 56.3211 77.6914 56.3809 77.6914H74.1533L88.3096 63.46V20.6582H24.4512V77.6914ZM72.6137 48.417V34.0088C72.6137 33.8431 72.7478 33.709 72.9135 33.709C73.0792 33.709 73.2133 33.8431 73.2133 34.0088V48.417C73.2133 48.5827 73.0792 48.7168 72.9135 48.7168C72.7478 48.7168 72.6137 48.5827 72.6137 48.417ZM54.7144 34.0088V48.417C54.7144 48.5827 54.8485 48.7168 55.0142 48.7168C55.1799 48.7168 55.314 48.5827 55.314 48.417V34.0088C55.314 33.8431 55.1799 33.709 55.0142 33.709C54.8485 33.709 54.7144 33.8431 54.7144 34.0088Z" fill="url(#paint0_linear_966_90332)"/>
<path d="M72.9133 32.8691C73.5416 32.8691 74.0508 33.3784 74.0508 34.0066V48.415C74.0508 49.0432 73.5416 49.5525 72.9133 49.5525C72.2851 49.5525 71.7758 49.0432 71.7758 48.415V34.0066C71.7758 33.3784 72.2851 32.8691 72.9133 32.8691Z" fill="url(#paint1_linear_966_90332)"/>
<path d="M56.1515 34.0066C56.1515 33.3784 55.6422 32.8691 55.014 32.8691C54.3858 32.8691 53.8765 33.3784 53.8765 34.0066V48.415C53.8765 49.0432 54.3858 49.5525 55.014 49.5525C55.6422 49.5525 56.1515 49.0432 56.1515 48.415V34.0066Z" fill="url(#paint2_linear_966_90332)"/>
<path fill-rule="evenodd" clip-rule="evenodd" d="M23.0137 20.3563C23.0137 19.728 23.5229 19.2188 24.1512 19.2188H88.6095C89.2377 19.2188 89.747 19.728 89.747 20.3563V63.5812C89.747 63.8819 89.628 64.1703 89.416 64.3835L75.0835 78.7918C74.87 79.0064 74.5797 79.1271 74.277 79.1271H56.8533L42.8543 93.2001C42.5294 93.5267 42.0397 93.6251 41.6139 93.4494C41.1881 93.2737 40.9103 92.8585 40.9103 92.3979V79.1271H24.1512C23.5229 79.1271 23.0137 78.6178 23.0137 77.9896V20.3563ZM25.2887 21.4937V76.8521H42.0478C42.6761 76.8521 43.1853 77.3614 43.1853 77.9896V89.6415L55.5739 77.1874C55.7874 76.9728 56.0776 76.8521 56.3803 76.8521H73.8041L87.472 63.1118V21.4937H25.2887Z" fill="url(#paint3_linear_966_90332)"/>
<defs>
<linearGradient id="paint0_linear_966_90332" x1="56.3809" y1="20.0586" x2="56.3809" y2="92.7002" gradientUnits="userSpaceOnUse">
<stop stop-color="#505BFD"/>
<stop offset="1" stop-color="#B542FD"/>
</linearGradient>
<linearGradient id="paint1_linear_966_90332" x1="56.3803" y1="19.2188" x2="56.3803" y2="93.5354" gradientUnits="userSpaceOnUse">
<stop stop-color="#505BFD"/>
<stop offset="1" stop-color="#B542FD"/>
</linearGradient>
<linearGradient id="paint2_linear_966_90332" x1="56.3803" y1="19.2188" x2="56.3803" y2="93.5354" gradientUnits="userSpaceOnUse">
<stop stop-color="#505BFD"/>
<stop offset="1" stop-color="#B542FD"/>
</linearGradient>
<linearGradient id="paint3_linear_966_90332" x1="56.3803" y1="19.2188" x2="56.3803" y2="93.5354" gradientUnits="userSpaceOnUse">
<stop stop-color="#505BFD"/>
<stop offset="1" stop-color="#B542FD"/>
</linearGradient>
</defs>
</svg>
