<svg width="112" height="112" viewBox="0 0 112 112" fill="none" xmlns="http://www.w3.org/2000/svg">
<path fill-rule="evenodd" clip-rule="evenodd" d="M26.1428 29.9416C27.227 28.8575 28.6974 28.2484 30.2306 28.2484H78.8784C80.4116 28.2484 81.882 28.8575 82.9661 29.9416C84.0503 31.0258 84.6594 32.4962 84.6594 34.0294V52.2723C84.6594 60.2566 81.4876 67.9139 75.8418 73.5597C70.1961 79.2055 62.5388 82.3772 54.5545 82.3772C50.6011 82.3772 46.6863 81.5985 43.0338 80.0856C39.3814 78.5727 36.0626 76.3552 33.2671 73.5597C27.6214 67.9139 24.4496 60.2566 24.4496 52.2723V34.0294C24.4496 32.4962 25.0587 31.0258 26.1428 29.9416ZM25.7186 29.5174C26.9152 28.3207 28.5382 27.6484 30.2306 27.6484H78.8784C80.5707 27.6484 82.1937 28.3207 83.3904 29.5174C84.5871 30.714 85.2594 32.3371 85.2594 34.0294V52.2723C85.2594 60.4158 82.0244 68.2257 76.2661 73.984C70.5078 79.7422 62.6979 82.9772 54.5545 82.9772C50.5223 82.9772 46.5295 82.183 42.8042 80.6399C39.0789 79.0969 35.6941 76.8352 32.8429 73.984C27.0846 68.2257 23.8496 60.4158 23.8496 52.2723V34.0294C23.8496 32.3371 24.5219 30.714 25.7186 29.5174ZM42.6047 49.0197C42.4875 48.9026 42.2976 48.9026 42.1804 49.0197C42.0632 49.1369 42.0632 49.3268 42.1804 49.444L54.3424 61.6059C54.4595 61.7231 54.6495 61.7231 54.7666 61.6059L66.9286 49.444C67.0457 49.3268 67.0457 49.1369 66.9286 49.0197C66.8114 48.9026 66.6215 48.9026 66.5043 49.0197L54.5545 60.9695L42.6047 49.0197Z" fill="url(#paint0_linear_577_15252)"/>
<path d="M43.1965 48.4213C42.7523 47.977 42.032 47.977 41.5878 48.4213C41.1436 48.8655 41.1436 49.5857 41.5878 50.0299L53.7498 62.1919C54.194 62.6361 54.9142 62.6361 55.3584 62.1919L67.5204 50.0299C67.9646 49.5857 67.9646 48.8655 67.5204 48.4213C67.0762 47.977 66.3559 47.977 65.9117 48.4213L54.5541 59.7789L43.1965 48.4213Z" fill="url(#paint1_linear_577_15252)"/>
<path fill-rule="evenodd" clip-rule="evenodd" d="M25.126 28.9189C26.4797 27.5652 28.3157 26.8047 30.2302 26.8047H78.878C80.7924 26.8047 82.6285 27.5652 83.9822 28.9189C85.3359 30.2727 86.0965 32.1087 86.0965 34.0232V52.2661C86.0965 60.6316 82.7733 68.6546 76.8579 74.5699C70.9426 80.4853 62.9197 83.8085 54.5541 83.8085C50.4119 83.8085 46.3102 82.9926 42.4833 81.4074C38.6565 79.8223 35.1792 77.4989 32.2503 74.5699C26.3349 68.6546 23.0117 60.6316 23.0117 52.2661V34.0232C23.0117 32.1087 23.7722 30.2727 25.126 28.9189ZM26.7346 30.5276C27.6617 29.6005 28.9191 29.0797 30.2302 29.0797H78.878C80.1891 29.0797 81.4465 29.6005 82.3736 30.5276C83.3006 31.4547 83.8215 32.7121 83.8215 34.0232V52.2661C83.8215 60.0283 80.7379 67.4726 75.2492 72.9613C69.7606 78.4499 62.3163 81.5335 54.5541 81.5335C50.7106 81.5335 46.9048 80.7764 43.354 79.3056C39.8031 77.8348 36.5767 75.679 33.8589 72.9613C28.3702 67.4726 25.2867 60.0283 25.2867 52.2661V34.0232C25.2867 32.7121 25.8075 31.4547 26.7346 30.5276Z" fill="url(#paint2_linear_577_15252)"/>
<defs>
<linearGradient id="paint0_linear_577_15252" x1="54.5545" y1="27.6484" x2="54.5545" y2="82.9772" gradientUnits="userSpaceOnUse">
<stop stop-color="#505BFD"/>
<stop offset="1" stop-color="#B542FD"/>
</linearGradient>
<linearGradient id="paint1_linear_577_15252" x1="54.5541" y1="26.8047" x2="54.5541" y2="83.8085" gradientUnits="userSpaceOnUse">
<stop stop-color="#505BFD"/>
<stop offset="1" stop-color="#B542FD"/>
</linearGradient>
<linearGradient id="paint2_linear_577_15252" x1="54.5541" y1="26.8047" x2="54.5541" y2="83.8085" gradientUnits="userSpaceOnUse">
<stop stop-color="#505BFD"/>
<stop offset="1" stop-color="#B542FD"/>
</linearGradient>
</defs>
</svg>
