<svg xmlns="http://www.w3.org/2000/svg" width="85" height="85" fill="none"><path fill="#fff" d="M67.103 46.655a.7.7 0 0 1 .22.029q.005 0 .008.002l.05.017.016.007.056.026a.7.7 0 0 1 .348.417l.006.019q.025.09.026.186v13.388a.71.71 0 1 1-1.42 0V49.007l-9.15 8.599a20.78 20.78 0 0 1-34.273-7.774l1.339-.474a19.362 19.362 0 0 0 31.945 7.228l.016-.016 9.04-8.494H53.742a.71.71 0 0 1 0-1.42z"/><path fill="#fff" d="M23.422 48.925a.71.71 0 0 1 .907.433l-1.339.474a.71.71 0 0 1 .432-.907M36.831 22.948a20.78 20.78 0 0 1 25.365 13.03.71.71 0 0 1-1.34.474 19.36 19.36 0 0 0-31.504-7.654l-.44.426-.016.016-9.042 8.496h11.588l.073.003a.71.71 0 0 1 0 1.414l-.073.004h-13.38a.71.71 0 0 1-.708-.658l-.001-.022-.001-.03V25.065a.71.71 0 0 1 1.42 0v11.736l9.15-8.598a20.8 20.8 0 0 1 8.91-5.256"/></svg>