<svg xmlns="http://www.w3.org/2000/svg" width="112" height="112" fill="none"><path fill="url(#a)" d="M56.19 47.005a3.29 3.29 0 0 1 3.116 3.115l.004.17a3.29 3.29 0 0 1-2.288 3.132v10.435h17.683a3.29 3.29 0 0 1 2.94-1.82l.17.005a3.29 3.29 0 0 1 3.116 3.115l.004.17a3.29 3.29 0 0 1-3.29 3.29l-.17-.005a3.29 3.29 0 0 1-3.077-2.755H57.023V89.5h-2V77.303l-10.815-16.27h-3.56a3.29 3.29 0 0 1-3.003 1.944l-.17-.003a3.29 3.29 0 0 1-3.12-3.285l.005-.17a3.29 3.29 0 0 1 3.285-3.12l.17.004a3.29 3.29 0 0 1 3.051 2.63h4.414l.297.445 9.446 14.212V53.424a3.29 3.29 0 0 1-2.293-3.134l.005-.17A3.29 3.29 0 0 1 56.02 47zM55.597 22c10.476 0 18.968 8.493 18.968 18.969h2.659c10.474.003 18.965 8.495 18.965 18.97s-8.491 18.965-18.965 18.967v.001h-3.868v-2h3.868c9.223-.003 16.727-7.363 16.959-16.531l.005-.437c0-9.224-7.36-16.73-16.527-16.963l-.437-.006h-4.659v-2.001l-.005-.438c-.229-9.024-7.502-16.297-16.526-16.525L55.597 24c-9.372 0-16.97 7.597-16.97 16.969v2H33.97C24.598 42.97 17 50.568 17 59.94c0 9.365 7.589 16.958 16.952 16.967h2.022v.001h1.382v2H33.97C23.494 78.907 15 70.415 15 59.94c0-10.477 8.494-18.97 18.97-18.97h2.657C36.627 30.493 45.121 22 55.597 22M33.43 76.981l-.026.007-.004.001h.005zq.006-.001.014-.004zm.18-.041-.039.007.042-.008.056-.01zm44.035-12.903a1.29 1.29 0 1 0 0 2.58 1.29 1.29 0 0 0 0-2.58m-40-5.639a1.29 1.29 0 1 0 0 2.581 1.29 1.29 0 0 0 0-2.58M56.02 49a1.29 1.29 0 1 0 .001 2.58 1.29 1.29 0 0 0 0-2.58"/><defs><linearGradient id="a" x1="78.025" x2="84.603" y1="114.564" y2="114.564" gradientUnits="userSpaceOnUse"><stop stop-color="#A34DEE"/><stop offset="1" stop-color="#6943F5"/></linearGradient></defs></svg>