<svg xmlns="http://www.w3.org/2000/svg" width="20" height="21" fill="none"><path fill="#1A1A1A" fill-rule="evenodd" d="m3.576 11.06 6.413 6.242 6.414-6.244c1.646-1.714 1.289-4.186-.074-5.565-.67-.678-1.563-1.065-2.557-.967-.997.098-2.177.694-3.389 2.148L10 7.135l-.384-.462C8.402 5.215 7.224 4.616 6.229 4.516c-.991-.1-1.882.286-2.552.964-1.361 1.378-1.724 3.856-.102 5.58M10 5.596C8.79 4.294 7.53 3.642 6.33 3.52c-1.334-.134-2.512.394-3.364 1.256-1.68 1.7-2.17 4.8-.11 6.977l.007.007.007.008 6.77 6.59.349.339.348-.34 6.77-6.59.006-.005.005-.006c2.089-2.168 1.604-5.266-.077-6.967-.853-.862-2.033-1.39-3.367-1.26-1.203.12-2.463.768-3.674 2.067" clip-rule="evenodd"/></svg>