<svg width="112" height="112" viewBox="0 0 112 112" fill="none" xmlns="http://www.w3.org/2000/svg">
<path fill-rule="evenodd" clip-rule="evenodd" d="M55.9982 23.1172C74.1612 23.1172 88.8851 37.8412 88.8851 56.0041C88.8851 74.1668 74.1616 88.8905 55.999 88.891C55.9988 88.891 55.9993 88.891 55.999 88.891C37.8361 88.891 23.1113 74.167 23.1113 56.0041C23.1115 37.8413 37.8354 23.1172 55.9982 23.1172ZM53.4179 25.4994C38.0918 26.7785 25.9741 39.3483 25.4071 54.8663H42.1977C42.6631 44.1084 46.6087 33.8055 53.4179 25.4994ZM58.5803 25.4995C65.3894 33.8057 69.3349 44.1085 69.8003 54.8663H86.5894C86.0224 39.3489 73.9055 26.7795 58.5803 25.4995ZM67.5231 54.8663C67.04 44.211 62.9791 34.0288 55.999 25.9663C49.0189 34.0288 44.9581 44.211 44.4749 54.8663H67.5231ZM44.4749 57.1413H67.5231C67.0401 67.7968 62.9792 77.9792 55.999 86.0419C49.0188 77.9792 44.9579 67.7968 44.4749 57.1413ZM42.1977 57.1413H25.4071C25.9738 72.6595 38.0916 85.2296 53.4179 86.5088C46.6086 78.2025 42.663 67.8994 42.1977 57.1413ZM58.5803 86.5086C65.3895 78.2024 69.3351 67.8993 69.8004 57.1413H86.5894C86.0227 72.659 73.9057 85.2287 58.5803 86.5086Z" fill="url(#paint0_linear_966_90292)"/>
<defs>
<linearGradient id="paint0_linear_966_90292" x1="55.9982" y1="23.1172" x2="55.9982" y2="88.891" gradientUnits="userSpaceOnUse">
<stop stop-color="#505BFD"/>
<stop offset="1" stop-color="#B542FD"/>
</linearGradient>
</defs>
</svg>
