<svg xmlns="http://www.w3.org/2000/svg" width="113" height="113" fill="none"><path fill="#121212" d="M64.168 42.338c.262-.261 8.725-.062 9.052.054l.034.013.013.005q.075.032.143.075.014.01.027.02a1 1 0 0 1 .072.054l.04.038.014.012.015.017.026.028.037.043.016.024.032.044.015.026a.9.9 0 0 1 .13.472v8.74a.926.926 0 0 1-1.85 0v-6.507l-12.26 12.26a.926.926 0 0 1-1.308 0l-6.63-6.63-10.271 10.272a.926.926 0 0 1-1.308-1.308l10.925-10.926.07-.064a.925.925 0 0 1 1.238.064l6.63 6.63 11.605-11.606h-6.507a.926.926 0 0 1 0-1.85"/><path fill="#121212" fill-rule="evenodd" d="M82.178 27.459a7.25 7.25 0 0 1 7.248 7.248v31.615a7.25 7.25 0 0 1-7.248 7.248H57.81v10.795h11.72l.094.005a.925.925 0 0 1 0 1.84l-.094.005H56.905l-.019.001H44.24a.926.926 0 0 1 0-1.851h11.722V73.57H31.594a7.25 7.25 0 0 1-7.248-7.248V34.707a7.25 7.25 0 0 1 7.248-7.248zm-50.584 1.85a5.4 5.4 0 0 0-5.398 5.398v31.615a5.4 5.4 0 0 0 5.398 5.398h50.584a5.397 5.397 0 0 0 5.397-5.398V34.707a5.397 5.397 0 0 0-5.397-5.398z" clip-rule="evenodd"/></svg>