<svg xmlns="http://www.w3.org/2000/svg" width="112" height="112" fill="none"><path fill="url(#a)" d="M87.977 52a2.2 2.2 0 0 1 2.2 2.2v1.331c1.053.305 2.05.743 2.968 1.294l.65-.65.168-.15a2.2 2.2 0 0 1 2.777 0l.167.152 1.864 1.863.15.167a2.2 2.2 0 0 1 0 2.777l-.15.167-.835.833q.52 1.03.847 2.158h1.334a2.2 2.2 0 0 1 2.2 2.2v2.635a2.2 2.2 0 0 1-2.2 2.2H98.78a12.6 12.6 0 0 1-1.293 2.965l1.069 1.068a2.2 2.2 0 0 1 .151 2.944l-.151.167-1.864 1.864a2.2 2.2 0 0 1-3.11-.001l-1.253-1.252q-1.028.518-2.152.845v1.34c0 1.214-.986 2.2-2.2 2.2h-2.635a2.2 2.2 0 0 1-2.2-2.2v-1.34a12.5 12.5 0 0 1-2.154-.845l-1.25 1.252a2.2 2.2 0 0 1-2.944.151l-.167-.15-1.863-1.864a2.2 2.2 0 0 1-.001-3.111l1.067-1.068a12.6 12.6 0 0 1-1.292-2.965H73.2a2.2 2.2 0 0 1-2.2-2.201l.001-2.635.012-.225a2.2 2.2 0 0 1 2.188-1.974h1.334c.217-.75.5-1.473.846-2.159l-.832-.832a2.2 2.2 0 0 1-.001-3.111l1.863-1.863.167-.152a2.2 2.2 0 0 1 2.778 0l.166.152.649.648c.92-.552 1.917-.989 2.97-1.294v-1.33a2.2 2.2 0 0 1 2.2-2.201zM85.3 54.004a.2.2 0 0 0-.16.196v2.767l-.012.071a.2.2 0 0 1-.16.129l-.34.06a10.6 10.6 0 0 0-4.546 2.085l-.065.035a.2.2 0 0 1-.142-.008l-.062-.042-1.706-1.706a.2.2 0 0 0-.283 0l-1.862 1.863a.2.2 0 0 0 0 .283l1.808 1.808a.2.2 0 0 1 .024.255l-.294.47a10.6 10.6 0 0 0-1.331 3.7l-.023.068a.2.2 0 0 1-.105.09l-.071.014H73.2l-.04.004a.2.2 0 0 0-.16.196L73 68.977a.2.2 0 0 0 .16.196l.04.004h2.773c.099 0 .184.073.2.172a10.6 10.6 0 0 0 2.143 4.882.203.203 0 0 1-.014.268l-2.124 2.125a.2.2 0 0 0 0 .283l1.863 1.862a.2.2 0 0 0 .252.026l.031-.026 2.226-2.226a.2.2 0 0 1 .255-.024 10.6 10.6 0 0 0 4.165 1.624c.098.015.172.1.172.2v2.773a.2.2 0 0 0 .159.197l.04.003h2.636l.04-.004a.2.2 0 0 0 .156-.156l.004-.04v-2.773c0-.1.073-.185.172-.2a10.6 10.6 0 0 0 4.165-1.624.2.2 0 0 1 .255.024l2.226 2.226a.2.2 0 0 0 .252.026l.031-.026 1.864-1.862a.2.2 0 0 0 .025-.252l-.025-.031-2.125-2.125a.2.2 0 0 1-.015-.268 10.6 10.6 0 0 0 2.144-4.882.2.2 0 0 1 .128-.16l.07-.012h2.773l.04-.004a.2.2 0 0 0 .156-.156l.004-.04v-2.635a.2.2 0 0 0-.16-.197l-.04-.003h-2.77l-.07-.013a.2.2 0 0 1-.105-.09l-.025-.07a10.6 10.6 0 0 0-1.33-3.698l-.294-.471a.2.2 0 0 1 .025-.255l1.808-1.808a.2.2 0 0 0 .026-.252l-.026-.03-1.863-1.864a.2.2 0 0 0-.283 0l-1.707 1.706-.062.042a.2.2 0 0 1-.141.008l-.066-.035a10.6 10.6 0 0 0-4.545-2.085l-.34-.06a.2.2 0 0 1-.16-.129l-.012-.071V54.2a.2.2 0 0 0-.16-.196l-.04-.004h-2.635zm.238-28A4 4 0 0 1 89.333 30v19.142a19 19 0 0 0-2-.138V30a2 2 0 0 0-2-2H23a2 2 0 0 0-2 2v29.652h48.407v2H21v4.455a2 2 0 0 0 2 2h45.001q.007 1.014.115 2h-7.18v8.101h9.67v2H31v-2h16.126v-8.1H23l-.206-.005a4 4 0 0 1-3.79-3.79L19 66.108V30a4 4 0 0 1 3.794-3.995L23 26h62.333zM49.126 78.209h9.81v-8.1h-9.81zm37.535-16.622a6.07 6.07 0 0 1 6.063 5.758l.007.312a6.07 6.07 0 0 1-5.757 6.063l-.313.008a6.07 6.07 0 0 1-6.07-6.07l.008-.313a6.07 6.07 0 0 1 5.75-5.75zm0 2a4.07 4.07 0 1 0 0 8.141 4.07 4.07 0 0 0 0-8.141"/><defs><linearGradient id="a" x1="49.046" x2="49.046" y1="26" y2="83.697" gradientUnits="userSpaceOnUse"><stop stop-color="#A34DEE"/><stop offset="1" stop-color="#6943F5"/></linearGradient></defs></svg>