<svg xmlns="http://www.w3.org/2000/svg" width="85" height="85" fill="none"><path fill="#121212" d="M36.442 17.73c10.073 0 18.25 8.228 18.25 18.346q0 2.124-.472 4.123l12.534 12.63.05.056a.75.75 0 0 1-1.058 1.052l-.056-.052-12.83-12.927a.75.75 0 0 1-.194-.72q.526-2 .526-4.162c0-9.298-7.513-16.846-16.75-16.846-2.051 0-4.013.376-5.842 1.069L43.062 32.83a.75.75 0 0 1 0 1.058l-8.501 8.548a.75.75 0 0 1-1.065-.001L20.942 29.787a16.6 16.6 0 0 0-1.223 6.263c0 9.298 7.513 16.847 16.75 16.847a16.5 16.5 0 0 0 4.492-.631l.099-.022a.75.75 0 0 1 .633.211l12.778 12.69.052.056a.75.75 0 0 1-1.052 1.059l-.057-.051L40.94 53.821c-1.429.368-2.926.575-4.471.576-10.074 0-18.25-8.228-18.25-18.347 0-2.835.657-5.505 1.805-7.897l.044-.079a.752.752 0 0 1 1.164-.124L34.03 40.842l7.443-7.484-12.724-12.793a.75.75 0 0 1 .222-1.212 18 18 0 0 1 7.472-1.623"/><path fill="#121212" d="M36.44 17.73c10.074 0 18.25 8.227 18.25 18.346q0 2.124-.472 4.123L66.75 52.828l.052.057a.75.75 0 0 1-1.06 1.051l-.056-.051-12.83-12.927a.75.75 0 0 1-.193-.719q.526-2 .527-4.163c0-9.298-7.513-16.846-16.75-16.846-2.052 0-4.014.377-5.843 1.07l12.461 12.53a.75.75 0 0 1 0 1.058l-8.5 8.548a.75.75 0 0 1-1.065-.001L20.94 29.787a16.6 16.6 0 0 0-1.223 6.263c0 9.298 7.513 16.847 16.75 16.847 1.553 0 3.059-.227 4.492-.632l.1-.02a.75.75 0 0 1 .633.21l12.777 12.69.052.056a.75.75 0 0 1-1.052 1.06l-.057-.052L40.94 53.822c-1.43.367-2.928.575-4.473.575-10.074 0-18.25-8.229-18.25-18.347 0-2.835.657-5.505 1.805-7.897l.044-.079a.75.75 0 0 1 1.165-.124l12.797 12.892 7.441-7.483-12.723-12.794a.75.75 0 0 1 .221-1.212 18 18 0 0 1 7.474-1.623"/></svg>