<svg xmlns="http://www.w3.org/2000/svg" width="112" height="112" fill="none"><g clip-path="url(#a)"><path fill="#121212" d="M37.996 18c10.493 0 19 8.507 19 19 0 2.756-.589 5.374-1.644 7.737-.186.416-.108.905.213 1.227.301.3.747.387 1.138.246l.164-.075A24.9 24.9 0 0 1 68.997 43c13.806 0 25 11.193 25 25s-11.194 25-25 25c-13.808 0-25-11.193-25-25 0-3.467.706-6.769 1.983-9.77l.262-.597c.33-.721.203-1.578-.357-2.139-.513-.512-1.28-.662-1.968-.436l-.705.215a19 19 0 0 1-5.216.727c-10.493 0-19-8.507-19-19s8.507-19 19-19m0 2c-9.389 0-17 7.611-17 17s7.611 17 17 17a17 17 0 0 0 5.298-.843l.253-.074c1.193-.306 2.534-.066 3.542.802l.21.195.213.23c.938 1.104 1.134 2.602.66 3.882l-.11.272A22.9 22.9 0 0 0 45.996 68c0 12.703 10.298 23 23 23s23-10.297 23-23-10.297-23-23-23a22.9 22.9 0 0 0-11.157 2.883 3.095 3.095 0 0 1-3.494-.327l-.194-.178a3.1 3.1 0 0 1-.626-3.456l.172-.399a16.9 16.9 0 0 0 1.3-6.523c0-9.389-7.612-17-17-17m31 34a8 8 0 0 1 8 8c0 1.806-.602 3.47-1.611 4.808 3.967 2.414 6.611 6.987 6.611 12.192a1 1 0 1 1-2 0c0-4.961-2.754-9.177-6.622-11.01a1 1 0 0 1-.258-1.63 6 6 0 1 0-8.24 0 1 1 0 0 1-.259 1.63c-3.868 1.834-6.62 6.05-6.62 11.01a1 1 0 1 1-2 0c0-5.204 2.642-9.778 6.608-12.192A7.96 7.96 0 0 1 60.997 62a8 8 0 0 1 8-8m-52 4a5 5 0 1 1 0 10 5 5 0 0 1 0-10m0 2a3 3 0 1 0 0 6 3 3 0 0 0 0-6m20.996-33a6 6 0 0 1 6 6 5.97 5.97 0 0 1-1.016 3.336c2.693 1.574 4.52 4.4 4.52 7.664a1 1 0 1 1-2 0c0-2.835-1.816-5.314-4.485-6.41a1 1 0 0 1-.3-1.658 4 4 0 1 0-5.437.003 1 1 0 0 1-.298 1.658c-2.667 1.097-4.48 3.574-4.48 6.407a1 1 0 1 1-2 0c0-3.26 1.823-6.086 4.513-7.661A6 6 0 0 1 37.992 27m50.004-7.375c5.523 0 10 4.477 10 10s-4.477 10-10 10-10-4.477-10-10 4.477-10 10-10m0 2a8 8 0 1 0 0 16 8 8 0 0 0 0-16"/></g><defs><clipPath id="a"><path fill="#fff" d="M-.004 0h112v112h-112z"/></clipPath></defs></svg>