<svg xmlns="http://www.w3.org/2000/svg" width="112" height="112" fill="none"><path fill="url(#a)" d="M20.358 94.003H44.58v-18.12c0-6.587 5.34-11.926 11.926-11.926s11.926 5.34 11.926 11.926v18.12h23.13v-41.61h2v43.61H18.358v-43.61h2zm36.147-28.046c-5.482 0-9.926 4.444-9.926 9.926v18.12h19.852v-18.12c0-5.482-4.444-9.926-9.926-9.926m13.661-19.121H43.398v-2h26.768zM56.491 16.58l45.342 28.407-.531.848-.531.848L55.96 18.608 11.15 46.684l-1.063-1.696 45.342-28.407.531-.332z"/><defs><linearGradient id="a" x1="55.96" x2="55.96" y1="16.249" y2="98.303" gradientUnits="userSpaceOnUse"><stop stop-color="#A34DEE"/><stop offset="1" stop-color="#6943F5"/></linearGradient></defs></svg>