<svg width="120" height="32" viewBox="0 0 120 32" fill="none" xmlns="http://www.w3.org/2000/svg">
<path d="M14 30C21.7384 30 28 23.7384 28 16C28 8.2616 21.7384 2 14 2C6.2616 2 0 8.2616 0 16C0.0196906 23.7384 6.28129 30 14 30Z" fill="#A50034"/>
<path d="M9.55065 13.2068C10.4761 13.2068 11.2244 12.4585 11.2244 11.5331C11.2244 10.6076 10.4761 9.85938 9.55065 9.85938C8.6252 9.85938 7.87695 10.6076 7.87695 11.5331C7.87695 12.4585 8.6252 13.2068 9.55065 13.2068Z" fill="white"/>
<path d="M14.5711 4.30094C14.4333 4.30094 14.1576 4.28125 14.0001 4.28125C7.54156 4.28125 2.28418 9.53863 2.28418 15.9971C2.28418 19.1279 3.505 22.0618 5.71034 24.2869C7.91568 26.4922 10.8693 27.713 14.0001 27.713C17.1309 27.713 20.0648 26.4922 22.2898 24.2869C24.4951 22.0815 25.716 19.1279 25.716 15.9971V15.4655H17.3672V16.5485H24.6133V16.706C24.2392 22.2194 19.6316 26.6104 14.0198 26.6104C11.1843 26.6104 8.52609 25.5077 6.51765 23.4993C4.48952 21.5105 3.38685 18.8326 3.38685 15.9971C3.38685 13.1617 4.48952 10.5035 6.49796 8.49503C8.5064 6.48659 11.1646 5.38392 14.0001 5.38392C14.1182 5.38392 14.4333 5.38392 14.5711 5.40361V4.30094Z" fill="white"/>
<path d="M13.4482 9.85938V22.1266H17.3667V21.0436H14.5706V9.85938H13.4482Z" fill="white"/>
<path d="M117.947 8.10586C116.234 7.10164 113.655 6.62907 111.823 6.62907C106.98 6.62907 104.735 8.79503 104.735 11.8864C104.735 14.5447 106.743 16.1593 108.929 17.006C110.012 17.3998 111.213 17.8133 112.119 18.0693C113.576 18.4828 114.147 19.172 114.147 20.1762C114.147 21.4364 113.261 22.1846 110.957 22.1846C109.382 22.1846 107.314 21.5545 105.838 20.7078L104.459 23.7796C106.349 24.8625 108.89 25.4336 110.996 25.4336C115.525 25.4336 118.164 23.1691 118.164 20.0383C118.164 16.9075 116.589 16.0215 114.816 15.2535C114.127 14.9779 112.847 14.5644 112.178 14.3675C109.913 13.7374 108.693 13.1663 108.693 11.6699C108.693 10.5672 109.421 9.7008 111.902 9.7008C113.694 9.7008 115.447 10.3112 116.648 11.0004L117.947 8.10586ZM99.3396 6.88504V21.712H98.8868L93.6491 6.88504H86.5605V25.0988H90.4001V10.0355H90.8924L96.071 25.0988H103.16V6.88504H99.3396ZM85.2806 9.03132C83.7053 7.27885 81.1259 6.60938 78.8024 6.60938C73.4268 6.60938 70.1582 9.81894 70.1582 16.0018C70.1582 22.1846 72.6786 25.3942 78.763 25.3942C81.0274 25.3942 83.41 24.8625 85.0246 23.9174L84.1188 20.885C82.8192 21.5348 80.8699 21.968 79.0387 21.968C75.2187 21.968 74.2145 19.5264 74.2145 15.9624C74.2145 11.8077 76.0654 9.81894 78.9599 9.81894C80.673 9.81894 82.1104 10.5672 83.0752 11.5714L85.2806 9.03132Z" fill="#6B6B6B"/>
<path d="M56.5321 18.1715H59.9583V21.3614C59.3282 21.5977 58.0877 21.8339 56.9259 21.8339C53.1453 21.8339 51.8851 19.9043 51.8851 16.0055C51.8851 12.1068 53.0862 10.0787 56.8668 10.0787C58.9737 10.0787 60.1749 10.7481 61.1594 12.0083L63.7782 9.60609C62.1833 7.32198 59.3872 6.63281 56.7684 6.63281C50.8809 6.63281 47.7698 9.84238 47.7698 15.9858C47.7698 22.1293 50.5659 25.3979 56.729 25.3979C59.5645 25.3979 62.3211 24.6694 63.8176 23.6258V14.7847H56.5124V18.1715H56.5321ZM38.5546 6.88879H34.3408V25.1026H47.2775V21.5583H38.5546V6.88879Z" fill="#6B6B6B"/>
</svg>
