<svg xmlns="http://www.w3.org/2000/svg" width="119" height="28" fill="none"><path fill="#A50034" d="M14 28c7.738 0 14-6.262 14-14S21.738 0 14 0 0 6.262 0 14c.02 7.738 6.281 14 14 14"/><path fill="#fff" d="M9.55 11.204c.926 0 1.674-.748 1.674-1.674s-.748-1.673-1.674-1.673-1.674.748-1.674 1.673c0 .926.749 1.674 1.674 1.674"/><path fill="#fff" d="M14.57 2.304c-.137 0-.413-.02-.57-.02C7.54 2.284 2.284 7.542 2.284 14c0 3.13 1.22 6.065 3.426 8.29A11.66 11.66 0 0 0 14 25.716c3.13 0 6.064-1.22 8.29-3.426A11.66 11.66 0 0 0 25.714 14v-.532h-8.348v1.083h7.246v.158c-.374 5.513-4.982 9.904-10.594 9.904a10.53 10.53 0 0 1-7.502-3.11c-2.028-1.99-3.13-4.667-3.13-7.503a10.53 10.53 0 0 1 3.11-7.502A10.53 10.53 0 0 1 14 3.387c.118 0 .433 0 .57.02z"/><path fill="#fff" d="M13.448 7.857v12.267h3.919V19.04H14.57V7.857z"/><path fill="#6B6B6B" d="M117.947 6.104c-1.713-1.004-4.293-1.477-6.124-1.477-4.844 0-7.089 2.166-7.089 5.257 0 2.659 2.009 4.273 4.194 5.12 1.083.394 2.285.807 3.19 1.063 1.457.414 2.028 1.103 2.028 2.107 0 1.26-.886 2.009-3.189 2.009-1.576 0-3.643-.63-5.12-1.477l-1.378 3.072c1.89 1.083 4.43 1.654 6.537 1.654 4.529 0 7.167-2.265 7.167-5.396s-1.575-4.017-3.347-4.784c-.689-.276-1.969-.69-2.639-.886-2.264-.63-3.485-1.202-3.485-2.698 0-1.103.729-1.97 3.21-1.97 1.792 0 3.544.611 4.745 1.3zm-18.608-1.22V19.71h-.453L93.65 4.883H86.56v18.214h3.84V8.034h.492l5.179 15.063h7.088V4.883zM85.28 7.028c-1.575-1.752-4.155-2.422-6.478-2.422-5.376 0-8.644 3.21-8.644 9.393s2.52 9.392 8.605 9.392c2.264 0 4.646-.531 6.261-1.477l-.906-3.032c-1.3.65-3.249 1.083-5.08 1.083-3.82 0-4.824-2.442-4.824-6.006 0-4.154 1.85-6.143 4.745-6.143 1.713 0 3.15.748 4.116 1.752zM56.532 16.166h3.426v3.19c-.63.236-1.87.472-3.033.472-3.78 0-5.04-1.93-5.04-5.828s1.2-5.927 4.981-5.927c2.107 0 3.308.67 4.293 1.93L63.778 7.6c-1.595-2.284-4.391-2.973-7.01-2.973-5.888 0-8.999 3.21-8.999 9.353 0 6.144 2.796 9.412 8.96 9.412 2.835 0 5.592-.728 7.088-1.772v-8.84h-7.305v3.386zM38.554 4.883H34.34v18.214h12.937v-3.544h-8.723z"/></svg>