<svg width="36" height="36" viewBox="0 0 36 36" fill="none" xmlns="http://www.w3.org/2000/svg">
<path fill-rule="evenodd" clip-rule="evenodd" d="M18 32.8484C26.2015 32.8484 32.85 26.1999 32.85 17.9984C32.85 9.79701 26.2015 3.14844 18 3.14844C9.7986 3.14844 3.15002 9.79701 3.15002 17.9984C3.15002 26.1999 9.7986 32.8484 18 32.8484ZM14.3345 14.7022V24.1484H11.3278V14.7022H14.3345ZM14.5323 11.7801C14.5323 12.6875 13.8799 13.4118 12.8318 13.4118H12.8117C11.8024 13.4118 11.15 12.6875 11.15 11.7801C11.15 10.8545 11.8225 10.1484 12.8518 10.1484C13.8812 10.1484 14.5135 10.8531 14.5323 11.7801ZM18.9778 18.8729V24.1484H15.9724C15.9724 24.1484 16.01 15.5887 15.9724 14.7022H18.9778V16.0384L18.9577 16.0711H18.9778V16.0384C19.3785 15.3939 20.0935 14.4787 21.6888 14.4787C23.6674 14.4787 25.15 15.8279 25.15 18.7304V24.1484H22.1434V19.0952C22.1434 17.8244 21.7089 16.9589 20.6207 16.9589C19.7892 16.9589 19.2946 17.5433 19.0779 18.1068C18.9978 18.3081 18.9778 18.5905 18.9778 18.8729Z" fill="#1A1A1A"/>
</svg>
