<svg width="30" height="31" viewBox="0 0 30 31" fill="none" xmlns="http://www.w3.org/2000/svg">
<path fill-rule="evenodd" clip-rule="evenodd" d="M15.0004 30.0516C23.2018 30.0516 29.8504 23.403 29.8504 15.2016C29.8504 7.00013 23.2018 0.351562 15.0004 0.351562C6.79896 0.351562 0.150391 7.00013 0.150391 15.2016C0.150391 23.403 6.79896 30.0516 15.0004 30.0516ZM22.2035 10.4422C22.6847 10.9266 22.841 12.0297 22.841 12.0297C22.841 12.0297 23.0004 13.3266 23.0004 14.6203V15.8328C23.0004 17.1297 22.841 18.4234 22.841 18.4234C22.841 18.4234 22.6847 19.5266 22.2035 20.0109C21.6544 20.5854 21.0469 20.6447 20.7035 20.6783C20.6658 20.682 20.6313 20.6854 20.6004 20.6891C18.3629 20.8484 15.0004 20.8547 15.0004 20.8547C15.0004 20.8547 10.841 20.8172 9.55974 20.6953C9.49742 20.6833 9.42152 20.674 9.33544 20.6635C8.92944 20.614 8.29689 20.5369 7.79412 20.0109C7.31599 19.5266 7.15974 18.4234 7.15974 18.4234C7.15974 18.4234 7.00037 17.1266 7.00037 15.8328V14.6203C7.00037 13.3266 7.16287 12.0297 7.16287 12.0297C7.16287 12.0297 7.31599 10.9266 7.79724 10.4422C8.34634 9.86774 8.9538 9.80839 9.29724 9.77483C9.33494 9.77114 9.36946 9.76777 9.40037 9.76406C11.6379 9.60156 14.9972 9.60156 14.9972 9.60156H15.0035C15.0035 9.60156 18.3629 9.60156 20.6004 9.76406C20.6313 9.76777 20.6658 9.77114 20.7035 9.77483C21.0469 9.80839 21.6544 9.86774 22.2035 10.4422ZM13.3472 12.8078V17.3047L17.6691 15.0641L13.3472 12.8078Z" fill="#1A1A1A"/>
</svg>
