<svg width="37" height="36" viewBox="0 0 37 36" fill="none" xmlns="http://www.w3.org/2000/svg">
<mask id="mask0_315_6973" style="mask-type:alpha" maskUnits="userSpaceOnUse" x="0" y="0" width="37" height="36">
<path d="M18.0004 3.14844C9.80319 3.14844 3.15039 9.80124 3.15039 17.9984C3.15039 25.4086 8.58549 31.5565 15.6838 32.6702V22.2901H11.9119V17.9984H15.6838V14.7314C15.6838 11.0041 17.8964 8.95479 21.2971 8.95479C22.9157 8.95479 24.6235 9.25179 24.6235 9.25179V12.9049H22.7524C20.911 12.9049 20.3318 14.0483 20.3318 15.2215V18.0133H24.4453L23.7919 22.3049H20.3318V32.6851C27.4301 31.5713 32.8504 25.4086 32.8504 17.9984C32.8504 9.80124 26.2124 3.16329 18.0152 3.16329L18.0004 3.14844Z" fill="#171719"/>
</mask>
<g mask="url(#mask0_315_6973)">
<rect y="3" width="36.0001" height="36" fill="#333333"/>
</g>
</svg>
