<svg width="37" height="36" viewBox="0 0 37 36" fill="none" xmlns="http://www.w3.org/2000/svg">
<path fill-rule="evenodd" clip-rule="evenodd" d="M18.4999 32.8484C26.7013 32.8484 33.3499 26.1999 33.3499 17.9984C33.3499 9.79701 26.7013 3.14844 18.4999 3.14844C10.2985 3.14844 3.6499 9.79701 3.6499 17.9984C3.6499 26.1999 10.2985 32.8484 18.4999 32.8484ZM25.703 13.2391C26.1843 13.7234 26.3405 14.8266 26.3405 14.8266C26.3405 14.8266 26.4999 16.1234 26.4999 17.4172V18.6297C26.4999 19.9266 26.3405 21.2203 26.3405 21.2203C26.3405 21.2203 26.1843 22.3234 25.703 22.8078C25.1539 23.3823 24.5464 23.4416 24.203 23.4752C24.1653 23.4789 24.1308 23.4822 24.0999 23.4859C21.8624 23.6453 18.4999 23.6516 18.4999 23.6516C18.4999 23.6516 14.3405 23.6141 13.0593 23.4922C12.9969 23.4802 12.921 23.4709 12.835 23.4604C12.4289 23.4109 11.7964 23.3338 11.2936 22.8078C10.8155 22.3234 10.6593 21.2203 10.6593 21.2203C10.6593 21.2203 10.4999 19.9234 10.4999 18.6297V17.4172C10.4999 16.1234 10.6624 14.8266 10.6624 14.8266C10.6624 14.8266 10.8155 13.7234 11.2968 13.2391C11.8459 12.6646 12.4533 12.6053 12.7968 12.5717C12.8345 12.568 12.869 12.5646 12.8999 12.5609C15.1374 12.3984 18.4968 12.3984 18.4968 12.3984H18.503C18.503 12.3984 21.8624 12.3984 24.0999 12.5609C24.1308 12.5646 24.1653 12.568 24.203 12.5717C24.5464 12.6053 25.1539 12.6646 25.703 13.2391ZM16.8468 15.6047V20.1016L21.1686 17.8609L16.8468 15.6047Z" fill="#333333"/>
</svg>
