<svg width="37" height="36" viewBox="0 0 37 36" fill="none" xmlns="http://www.w3.org/2000/svg">
<path fill-rule="evenodd" clip-rule="evenodd" d="M18.5 32.8484C26.7015 32.8484 33.35 26.1999 33.35 17.9984C33.35 9.79701 26.7015 3.14844 18.5 3.14844C10.2986 3.14844 3.65002 9.79701 3.65002 17.9984C3.65002 26.1999 10.2986 32.8484 18.5 32.8484ZM14.8345 14.7022V24.1484H11.8278V14.7022H14.8345ZM15.0323 11.7801C15.0323 12.6875 14.3799 13.4118 13.3318 13.4118H13.3117C12.3024 13.4118 11.65 12.6875 11.65 11.7801C11.65 10.8545 12.3225 10.1484 13.3518 10.1484C14.3812 10.1484 15.0135 10.8531 15.0323 11.7801ZM19.4778 18.8729V24.1484H16.4724C16.4724 24.1484 16.51 15.5887 16.4724 14.7022H19.4778V16.0384L19.4577 16.0711H19.4778V16.0384C19.8785 15.3939 20.5935 14.4787 22.1888 14.4787C24.1674 14.4787 25.65 15.8279 25.65 18.7304V24.1484H22.6434V19.0952C22.6434 17.8244 22.2089 16.9589 21.1207 16.9589C20.2892 16.9589 19.7946 17.5433 19.5779 18.1068C19.4978 18.3081 19.4778 18.5905 19.4778 18.8729Z" fill="#333333"/>
</svg>
