<svg width="36" height="36" viewBox="0 0 36 36" fill="none" xmlns="http://www.w3.org/2000/svg">
<path d="M18 3.14844C9.80282 3.14844 3.15002 9.83803 3.15002 18.0806C3.15002 25.5317 8.58512 31.7136 15.6834 32.8335V22.3959H11.9115V18.0806H15.6834V14.7955C15.6834 11.0475 17.8961 8.9869 21.2967 8.9869C22.9154 8.9869 24.6231 9.28554 24.6231 9.28554V12.9588H22.752C20.9106 12.9588 20.3315 14.1086 20.3315 15.2883V18.0955H24.4449L23.7915 22.4109H20.3315V32.8484C27.4298 31.7285 32.85 25.5317 32.85 18.0806C32.85 9.83803 26.2121 3.16337 18.0149 3.16337L18 3.14844Z" fill="#1A1A1A"/>
</svg>
