<svg width="30" height="31" viewBox="0 0 30 31" fill="none" xmlns="http://www.w3.org/2000/svg">
<path fill-rule="evenodd" clip-rule="evenodd" d="M15.0004 30.0516C23.2018 30.0516 29.8504 23.403 29.8504 15.2016C29.8504 7.00013 23.2018 0.351562 15.0004 0.351562C6.79896 0.351562 0.150391 7.00013 0.150391 15.2016C0.150391 23.403 6.79896 30.0516 15.0004 30.0516ZM11.3348 11.9054V21.3516H8.32821V11.9054H11.3348ZM11.5327 8.98324C11.5327 9.8906 10.8803 10.6149 9.83214 10.6149H9.81211C8.80281 10.6149 8.15039 9.8906 8.15039 8.98324C8.15039 8.05758 8.82284 7.35156 9.85218 7.35156C10.8815 7.35156 11.5139 8.05627 11.5327 8.98324ZM15.9781 16.0761V21.3516H12.9728C12.9728 21.3516 13.0103 12.7918 12.9728 11.9054H15.9781V13.2416L15.9581 13.2742H15.9781V13.2416C16.3788 12.597 17.0939 11.6818 18.6892 11.6818C20.6677 11.6818 22.1504 13.0311 22.1504 15.9336V21.3516H19.1438V16.2983C19.1438 15.0275 18.7092 14.162 17.6211 14.162C16.7896 14.162 16.2949 14.7464 16.0783 15.3099C15.9982 15.5113 15.9781 15.7937 15.9781 16.0761Z" fill="#1A1A1A"/>
</svg>
