<svg width="36" height="37" viewBox="0 0 36 37" fill="none" xmlns="http://www.w3.org/2000/svg">
<path d="M18.0004 3.35156C9.80319 3.35156 3.15039 10.0044 3.15039 18.2016C3.15039 25.6117 8.58549 31.7596 15.6838 32.8734V22.4932H11.9119V18.2016H15.6838V14.9346C15.6838 11.2072 17.8964 9.15791 21.2971 9.15791C22.9157 9.15791 24.6235 9.45491 24.6235 9.45491V13.108H22.7524C20.911 13.108 20.3318 14.2515 20.3318 15.4246V18.2164H24.4453L23.7919 22.5081H20.3318V32.8882C27.4301 31.7745 32.8504 25.6117 32.8504 18.2016C32.8504 10.0044 26.2124 3.36641 18.0152 3.36641L18.0004 3.35156Z" fill="#171719"/>
</svg>
