<svg width="36" height="36" viewBox="0 0 36 36" fill="none" xmlns="http://www.w3.org/2000/svg">
<path fill-rule="evenodd" clip-rule="evenodd" d="M17.9999 32.8484C26.2013 32.8484 32.8499 26.1999 32.8499 17.9984C32.8499 9.79701 26.2013 3.14844 17.9999 3.14844C9.79847 3.14844 3.1499 9.79701 3.1499 17.9984C3.1499 26.1999 9.79847 32.8484 17.9999 32.8484ZM25.203 13.2391C25.6843 13.7234 25.8405 14.8266 25.8405 14.8266C25.8405 14.8266 25.9999 16.1234 25.9999 17.4172V18.6297C25.9999 19.9266 25.8405 21.2203 25.8405 21.2203C25.8405 21.2203 25.6843 22.3234 25.203 22.8078C24.6539 23.3823 24.0464 23.4416 23.703 23.4752C23.6653 23.4789 23.6308 23.4822 23.5999 23.4859C21.3624 23.6453 17.9999 23.6516 17.9999 23.6516C17.9999 23.6516 13.8405 23.6141 12.5593 23.4922C12.4969 23.4802 12.421 23.4709 12.335 23.4604C11.9289 23.4109 11.2964 23.3338 10.7936 22.8078C10.3155 22.3234 10.1593 21.2203 10.1593 21.2203C10.1593 21.2203 9.99988 19.9234 9.99988 18.6297V17.4172C9.99988 16.1234 10.1624 14.8266 10.1624 14.8266C10.1624 14.8266 10.3155 13.7234 10.7968 13.2391C11.3459 12.6646 11.9533 12.6053 12.2968 12.5717C12.3345 12.568 12.369 12.5646 12.3999 12.5609C14.6374 12.3984 17.9968 12.3984 17.9968 12.3984H18.003C18.003 12.3984 21.3624 12.3984 23.5999 12.5609C23.6308 12.5646 23.6653 12.568 23.703 12.5717C24.0464 12.6053 24.6539 12.6646 25.203 13.2391ZM16.3468 15.6047V20.1016L20.6686 17.8609L16.3468 15.6047Z" fill="#1A1A1A"/>
</svg>
