<svg width="36" height="36" viewBox="0 0 36 36" fill="none" xmlns="http://www.w3.org/2000/svg">
<path fill-rule="evenodd" clip-rule="evenodd" d="M18 32.8484C26.2015 32.8484 32.85 26.1999 32.85 17.9984C32.85 9.79701 26.2015 3.14844 18 3.14844C9.7986 3.14844 3.15002 9.79701 3.15002 17.9984C3.15002 26.1999 9.7986 32.8484 18 32.8484ZM20.8331 12.3002C20.0971 12.2674 19.8755 12.2592 18.0041 12.2592C16.1327 12.2592 15.9111 12.2674 15.1751 12.3002C14.4938 12.3303 14.1218 12.4452 13.8755 12.5409C13.5499 12.6667 13.3174 12.8171 13.0711 13.0633C12.8276 13.3067 12.6744 13.5419 12.5486 13.8673C12.4528 14.1135 12.3379 14.4827 12.3078 15.1664C12.275 15.9021 12.2668 16.1236 12.2668 17.9943C12.2668 19.8623 12.275 20.0838 12.3078 20.8222C12.3379 21.5032 12.4528 21.8751 12.5486 22.1213C12.6744 22.4467 12.8249 22.6792 13.0711 22.9254C13.3146 23.1688 13.5499 23.3219 13.8755 23.4477C14.1218 23.5434 14.4911 23.6583 15.1751 23.6884C15.9111 23.7212 16.1327 23.7294 18.0041 23.7294C19.8728 23.7294 20.0944 23.7212 20.8331 23.6884C21.5144 23.6583 21.8865 23.5434 22.1327 23.4477C22.4583 23.3219 22.6908 23.1715 22.9371 22.9254C23.1806 22.6819 23.3338 22.4467 23.4596 22.1213C23.5554 21.8751 23.6703 21.5059 23.7004 20.8222C23.7332 20.0865 23.7414 19.865 23.7414 17.9943C23.7414 16.1264 23.7332 15.9048 23.7004 15.1664C23.6703 14.4854 23.5554 14.1135 23.4596 13.8673C23.3338 13.5419 23.1833 13.3094 22.9371 13.0633C22.6936 12.8199 22.4583 12.6667 22.1327 12.5409C21.8865 12.4452 21.5171 12.3303 20.8331 12.3002ZM15.1176 11.0394C15.8646 11.0066 16.1026 10.9984 18.0041 10.9984C19.9056 10.9984 20.1436 11.0066 20.8933 11.0422C21.6375 11.075 22.1464 11.1953 22.5923 11.3676C23.052 11.5454 23.4432 11.7861 23.8317 12.1744C24.223 12.5628 24.461 12.9539 24.6334 13.4188C24.8057 13.8619 24.9261 14.3733 24.959 15.1172C24.9918 15.8638 25 16.1018 25 18.0025C25 19.9033 24.9918 20.1412 24.959 20.8878C24.9261 21.6317 24.8057 22.1404 24.6334 22.5862C24.4555 23.0457 24.2148 23.4368 23.8263 23.8251C23.4378 24.2135 23.0465 24.4542 22.5869 24.6319C22.1436 24.8042 21.632 24.9246 20.8878 24.9574C20.1409 24.9902 19.9029 24.9984 18.0014 24.9984C16.0999 24.9984 15.8618 24.9902 15.1149 24.9574C14.3707 24.9246 13.8618 24.8042 13.4159 24.6319C12.9562 24.4542 12.565 24.2135 12.1765 23.8251C11.7852 23.4368 11.5472 23.0457 11.3666 22.5835C11.1943 22.1404 11.0739 21.629 11.041 20.8851C11.0082 20.1385 11 19.9005 11 17.9998C11 16.099 11.0082 15.8611 11.041 15.1117C11.0739 14.3678 11.1943 13.8591 11.3666 13.4133C11.5472 12.9539 11.7852 12.5628 12.1765 12.1744C12.565 11.7833 12.9562 11.5454 13.4186 11.3649C13.8618 11.1926 14.3735 11.0723 15.1176 11.0394ZM17.9978 14.3971C16.0115 14.3971 14.4 16.008 14.4 17.9935C14.4 19.9791 16.0115 21.5899 17.9978 21.5899C19.9842 21.5899 21.5956 19.9791 21.5956 17.9935C21.5956 16.008 19.9842 14.3971 17.9978 14.3971ZM17.9978 20.3264C16.7092 20.3264 15.664 19.2817 15.664 17.9935C15.664 16.7054 16.7092 15.6606 17.9978 15.6606C19.2865 15.6606 20.3316 16.7054 20.3316 17.9935C20.3316 19.2817 19.2865 20.3264 17.9978 20.3264ZM21.64 15.0783C22.1024 15.0783 22.4799 14.7035 22.4799 14.2384C22.4799 13.776 22.1024 13.3984 21.64 13.3984C21.1776 13.3984 20.8 13.7732 20.8 14.2384C20.8 14.7007 21.1749 15.0783 21.64 15.0783Z" fill="#1A1A1A"/>
</svg>
