<svg width="112" height="112" viewBox="0 0 112 112" fill="none" xmlns="http://www.w3.org/2000/svg">
<mask id="mask0_385_9888" style="mask-type:alpha" maskUnits="userSpaceOnUse" x="13" y="13" width="89" height="86">
<path d="M22.3157 50.1269L21.9293 49.2046C21.6161 49.3358 21.3908 49.6171 21.3312 49.9514C21.2716 50.2857 21.3858 50.6275 21.6343 50.8589L22.3157 50.1269ZM36.5863 52.9346L37.2934 52.2275L37.2934 52.2275L36.5863 52.9346ZM39.6944 66.4201L38.749 66.0942C38.6243 66.4557 38.7168 66.8567 38.9873 67.1272L39.6944 66.4201ZM60.8068 87.5325L61.5139 86.8254L61.5139 86.8253L60.8068 87.5325ZM60.8068 95.6034L61.5138 96.3106L61.5139 96.3105L60.8068 95.6034ZM52.7358 95.6034L52.0287 96.3105L52.0287 96.3105L52.7358 95.6034ZM31.6227 74.4903L32.3298 73.7832C32.0594 73.5128 31.6584 73.4203 31.2968 73.5449L31.6227 74.4903ZM18.1373 71.3836L17.4302 72.0907L17.4302 72.0907L18.1373 71.3836ZM15.0292 57.8982L15.7363 57.1911C15.4925 56.9473 15.1403 56.8463 14.8044 56.9238C14.4684 57.0013 14.1961 57.2464 14.0838 57.5723L15.0292 57.8982ZM21.8869 64.7559L21.1798 65.463C21.3966 65.6798 21.701 65.7852 22.0055 65.7488L21.8869 64.7559ZM29.0968 63.8948L29.2153 64.8877C29.6871 64.8314 30.0541 64.4508 30.0933 63.9773L29.0968 63.8948ZM29.6699 56.9729L30.6665 57.0554C30.6918 56.7499 30.5756 56.4498 30.3513 56.2409L29.6699 56.9729ZM55.047 89.8395L54.34 89.1324L54.3399 89.1325L55.047 89.8395ZM55.047 93.2991L54.3399 94.0062L54.3399 94.0062L55.047 93.2991ZM58.5066 93.2991L59.2137 94.0063L59.2138 94.0061L58.5066 93.2991ZM58.5059 89.8402L59.213 89.1331L59.213 89.1331L58.5059 89.8402ZM22.3157 50.1269L22.7021 51.0492C27.0801 49.2151 32.3181 50.0806 35.8792 53.6417L36.5863 52.9346L37.2934 52.2275C33.1383 48.0724 27.0298 47.0677 21.9293 49.2046L22.3157 50.1269ZM36.5863 52.9346L35.8792 53.6417C39.2457 57.0083 40.2042 61.8729 38.749 66.0942L39.6944 66.4201L40.6398 66.746C42.3347 61.8293 41.2212 56.1554 37.2934 52.2275L36.5863 52.9346ZM39.6944 66.4201L38.9873 67.1272L60.0997 88.2396L60.8068 87.5325L61.5139 86.8253L40.4015 65.713L39.6944 66.4201ZM60.8068 87.5325L60.0996 88.2395C61.9379 90.0779 61.9379 93.0581 60.0997 94.8963L60.8068 95.6034L61.5139 96.3105C64.1332 93.6912 64.1331 89.4447 61.5139 86.8254L60.8068 87.5325ZM60.8068 95.6034L60.0997 94.8963C58.2614 96.7343 55.2811 96.7344 53.4429 94.8963L52.7358 95.6034L52.0287 96.3105C54.648 98.9297 58.8945 98.9295 61.5138 96.3106L60.8068 95.6034ZM52.7358 95.6034L53.4429 94.8963L32.3298 73.7832L31.6227 74.4903L30.9156 75.1974L52.0287 96.3105L52.7358 95.6034ZM31.6227 74.4903L31.2968 73.5449C27.0754 75.0001 22.2107 74.0427 18.8444 70.6765L18.1373 71.3836L17.4302 72.0907C21.3581 76.0185 27.0322 77.1305 31.9486 75.4357L31.6227 74.4903ZM18.1373 71.3836L18.8444 70.6765C15.4781 67.3102 14.5198 62.4452 15.9746 58.224L15.0292 57.8982L14.0838 57.5723C12.3893 62.4887 13.5025 68.1631 17.4302 72.0907L18.1373 71.3836ZM15.0292 57.8982L14.3221 58.6053L21.1798 65.463L21.8869 64.7559L22.594 64.0488L15.7363 57.1911L15.0292 57.8982ZM21.8869 64.7559L22.0055 65.7488L29.2153 64.8877L29.0968 63.8948L28.9782 62.9018L21.7683 63.7629L21.8869 64.7559ZM29.0968 63.8948L30.0933 63.9773L30.6665 57.0554L29.6699 56.9729L28.6733 56.8904L28.1002 63.8123L29.0968 63.8948ZM29.6699 56.9729L30.3513 56.2409L22.9971 49.395L22.3157 50.1269L21.6343 50.8589L28.9885 57.7048L29.6699 56.9729ZM55.047 89.8395L54.3399 89.1325C52.9944 90.4782 52.9944 92.6605 54.3399 94.0062L55.047 93.2991L55.7542 92.592C55.1896 92.0274 55.1896 91.1112 55.7542 90.5466L55.047 89.8395ZM55.047 93.2991L54.3399 94.0062C55.6857 95.3519 57.868 95.3517 59.2137 94.0063L58.5066 93.2991L57.7995 92.5919C57.2348 93.1566 56.3187 93.1566 55.7541 92.592L55.047 93.2991ZM58.5066 93.2991L59.2138 94.0061C60.5596 92.6601 60.5584 90.4785 59.213 89.1331L58.5059 89.8402L57.7988 90.5473C58.3637 91.1123 58.3637 92.0277 57.7994 92.5921L58.5066 93.2991ZM58.5059 89.8402L59.213 89.1331C57.8676 87.7879 55.686 87.7866 54.34 89.1324L55.047 89.8395L55.7541 90.5467C56.3184 89.9825 57.2338 89.9825 57.7988 90.5474L58.5059 89.8402Z" fill="black"/>
<mask id="path-2-inside-1_385_9888" fill="white">
<path d="M69.618 32.0925C70.7222 32.0926 71.6175 32.9884 71.618 34.0925V37.2351C72.9678 37.7984 74.2051 38.5776 75.2879 39.5281L78.117 37.8953C79.0734 37.3435 80.2962 37.6716 80.8485 38.6277L83.6483 43.4763C84.2005 44.4327 83.873 45.6563 82.9168 46.2087L79.7528 48.0349C79.811 48.5414 79.8426 49.0568 79.8426 49.5789C79.8426 50.3488 79.7762 51.1043 79.6512 51.8386L82.9139 53.7224C83.8704 54.2746 84.1983 55.4983 83.6463 56.4548L80.8465 61.3035C80.2943 62.2598 79.0715 62.5877 78.1151 62.0359L74.7391 60.0867C73.7934 60.8318 72.7449 61.4522 71.618 61.9226V65.7468C71.618 66.8513 70.7225 67.7467 69.618 67.7468H64.0184C62.9139 67.7467 62.0184 66.8513 62.0184 65.7468V62.1882C60.7436 61.7379 59.5571 61.101 58.493 60.3083L55.5028 62.0359C54.5462 62.588 53.3236 62.26 52.7713 61.3035L49.9715 56.4548C49.4195 55.4983 49.7475 54.2746 50.7039 53.7224L53.3573 52.1902C53.1901 51.3459 53.1014 50.4722 53.1014 49.5789C53.1014 48.9318 53.1483 48.2951 53.2371 47.6726L50.701 46.2087C49.7446 45.6564 49.4173 44.4328 49.9696 43.4763L52.7684 38.6277C53.3207 37.6714 54.5444 37.3432 55.5008 37.8953L57.9266 39.2957C59.1301 38.2945 60.5127 37.5013 62.0184 36.9695V34.0925C62.0189 32.9885 62.9142 32.0927 64.0184 32.0925H69.618ZM66.4715 44.4402C63.6315 44.4403 61.3289 46.7427 61.3289 49.5828C61.329 52.4227 63.6316 54.7252 66.4715 54.7253C69.3116 54.7253 71.614 52.4228 71.6141 49.5828C71.6141 46.7427 69.3116 44.4402 66.4715 44.4402Z"/>
</mask>
<path d="M69.618 32.0925L69.6182 30.0925H69.618V32.0925ZM71.618 34.0925L73.618 34.0925L73.618 34.0917L71.618 34.0925ZM71.618 37.2351H69.618C69.618 38.0421 70.103 38.77 70.8477 39.0808L71.618 37.2351ZM75.2879 39.5281L73.9686 41.0312C74.6127 41.5965 75.5454 41.6887 76.2877 41.2603L75.2879 39.5281ZM78.117 37.8953L77.1175 36.1629L77.1173 36.1631L78.117 37.8953ZM80.8485 38.6277L82.5805 37.6276L82.5803 37.6273L80.8485 38.6277ZM83.6483 43.4763L85.3803 42.4763L85.3803 42.4762L83.6483 43.4763ZM82.9168 46.2087L83.9166 47.9409L83.9173 47.9405L82.9168 46.2087ZM79.7528 48.0349L78.753 46.3027C78.0626 46.7012 77.6748 47.4716 77.7659 48.2635L79.7528 48.0349ZM79.8426 49.5789H81.8426V49.5787L79.8426 49.5789ZM79.6512 51.8386L77.6795 51.5031C77.5392 52.3277 77.9268 53.1524 78.6512 53.5707L79.6512 51.8386ZM82.9139 53.7224L81.9139 55.4544L81.9139 55.4545L82.9139 53.7224ZM83.6463 56.4548L85.3783 57.455L85.3786 57.4545L83.6463 56.4548ZM80.8465 61.3035L79.1145 60.3033L79.1145 60.3034L80.8465 61.3035ZM78.1151 62.0359L77.115 63.7679L77.1156 63.7683L78.1151 62.0359ZM74.7391 60.0867L75.7391 58.3546C75.0305 57.9455 74.1441 58.0093 73.5014 58.5157L74.7391 60.0867ZM71.618 61.9226L70.8476 60.0769C70.1029 60.3878 69.618 61.1157 69.618 61.9226H71.618ZM69.618 67.7468V69.7468H69.6182L69.618 67.7468ZM64.0184 67.7468L64.0182 69.7468H64.0184V67.7468ZM62.0184 62.1882H64.0184C64.0184 61.3405 63.4839 60.5848 62.6845 60.3024L62.0184 62.1882ZM58.493 60.3083L59.6878 58.7044C59.0472 58.2273 58.1841 58.177 57.4925 58.5766L58.493 60.3083ZM55.5028 62.0359L56.5025 63.7681L56.5033 63.7677L55.5028 62.0359ZM52.7713 61.3035L54.5034 60.3035L54.5033 60.3033L52.7713 61.3035ZM49.9715 56.4548L48.2393 57.4545L48.2395 57.455L49.9715 56.4548ZM50.7039 53.7224L51.7039 55.4545L51.7041 55.4544L50.7039 53.7224ZM53.3573 52.1902L54.3574 53.9221C55.0987 53.494 55.4854 52.6416 55.3192 51.8019L53.3573 52.1902ZM53.1014 49.5789L51.1014 49.5787V49.5789H53.1014ZM53.2371 47.6726L55.2171 47.9553C55.3325 47.1465 54.9445 46.3489 54.237 45.9404L53.2371 47.6726ZM50.701 46.2087L49.7008 47.9407L49.7012 47.9409L50.701 46.2087ZM49.9696 43.4763L51.7016 44.4763L51.7017 44.4762L49.9696 43.4763ZM52.7684 38.6277L51.0365 37.6273L51.0363 37.6278L52.7684 38.6277ZM55.5008 37.8953L56.5007 36.1632L56.5007 36.1631L55.5008 37.8953ZM57.9266 39.2957L56.9267 41.0277C57.6521 41.4465 58.5617 41.3689 59.2056 40.8332L57.9266 39.2957ZM62.0184 36.9695L62.6845 38.8553C63.4839 38.573 64.0184 37.8173 64.0184 36.9695H62.0184ZM62.0184 34.0925L60.0184 34.0917V34.0925H62.0184ZM64.0184 32.0925V30.0925H64.0182L64.0184 32.0925ZM66.4715 44.4402V42.4402H66.4714L66.4715 44.4402ZM61.3289 49.5828H59.3289V49.5828L61.3289 49.5828ZM66.4715 54.7253L66.4714 56.7253H66.4715V54.7253ZM71.6141 49.5828L73.6141 49.5828V49.5828H71.6141ZM69.618 32.0925L69.6178 34.0925L69.618 34.0934L71.618 34.0925L73.618 34.0917C73.617 31.8844 71.8275 30.0927 69.6182 30.0925L69.618 32.0925ZM71.618 34.0925H69.618V37.2351H71.618H73.618V34.0925L71.618 34.0925ZM71.618 37.2351L70.8477 39.0808C71.9935 39.559 73.0459 40.2213 73.9686 41.0312L75.2879 39.5281L76.6073 38.025C75.3642 36.9339 73.9422 36.0379 72.3883 35.3894L71.618 37.2351ZM75.2879 39.5281L76.2877 41.2603L79.1168 39.6275L78.117 37.8953L77.1173 36.1631L74.2882 37.7959L75.2879 39.5281ZM78.117 37.8953L79.1165 39.6276L79.1167 39.6281L80.8485 38.6277L82.5803 37.6273C81.4761 35.7158 79.031 35.0589 77.1175 36.1629L78.117 37.8953ZM80.8485 38.6277L79.1165 39.6278L81.9163 44.4764L83.6483 43.4763L85.3803 42.4762L82.5805 37.6276L80.8485 38.6277ZM83.6483 43.4763L81.9162 44.4763L81.9163 44.477L82.9168 46.2087L83.9173 47.9405C85.8301 46.8354 86.4845 44.3887 85.3803 42.4763L83.6483 43.4763ZM82.9168 46.2087L81.9171 44.4765L78.753 46.3027L79.7528 48.0349L80.7525 49.7671L83.9166 47.9409L82.9168 46.2087ZM79.7528 48.0349L77.7659 48.2635C77.8159 48.6984 77.8426 49.1374 77.8426 49.579L79.8426 49.5789L81.8426 49.5787C81.8426 48.9761 81.8062 48.3844 81.7397 47.8064L79.7528 48.0349ZM79.8426 49.5789H77.8426C77.8426 50.2336 77.7861 50.8769 77.6795 51.5031L79.6512 51.8386L81.6229 52.1741C81.7662 51.3317 81.8426 50.464 81.8426 49.5789H79.8426ZM79.6512 51.8386L78.6512 53.5707L81.9139 55.4544L82.9139 53.7224L83.9139 51.9904L80.6512 50.1066L79.6512 51.8386ZM82.9139 53.7224L81.9139 55.4545L81.9141 55.4552L83.6463 56.4548L85.3786 57.4545C86.4826 55.5415 85.8269 53.0948 83.9139 51.9904L82.9139 53.7224ZM83.6463 56.4548L81.9143 55.4547L79.1145 60.3033L80.8465 61.3035L82.5785 62.3036L85.3783 57.455L83.6463 56.4548ZM80.8465 61.3035L79.1145 60.3034L79.1145 60.3035L78.1151 62.0359L77.1156 63.7683C79.0288 64.872 81.4742 64.216 82.5785 62.3036L80.8465 61.3035ZM78.1151 62.0359L79.1151 60.3039L75.7391 58.3546L74.7391 60.0867L73.7391 61.8187L77.115 63.7679L78.1151 62.0359ZM74.7391 60.0867L73.5014 58.5157C72.6961 59.1502 71.8044 59.6776 70.8476 60.0769L71.618 61.9226L72.3884 63.7683C73.6853 63.2269 74.8907 62.5134 75.9768 61.6577L74.7391 60.0867ZM71.618 61.9226H69.618V65.7468H71.618H73.618V61.9226H71.618ZM71.618 65.7468H69.618H69.6178L69.618 67.7468L69.6182 69.7468C71.8269 69.7466 73.618 67.9561 73.618 65.7468H71.618ZM69.618 67.7468V65.7468H64.0184V67.7468V69.7468H69.618V67.7468ZM64.0184 67.7468L64.0186 65.7468H64.0184H62.0184H60.0184C60.0184 67.9561 61.8096 69.7466 64.0182 69.7468L64.0184 67.7468ZM62.0184 65.7468H64.0184V62.1882H62.0184H60.0184V65.7468H62.0184ZM62.0184 62.1882L62.6845 60.3024C61.6009 59.9196 60.5923 59.3783 59.6878 58.7044L58.493 60.3083L57.2982 61.9123C58.5219 62.8238 59.8864 63.5562 61.3523 64.074L62.0184 62.1882ZM58.493 60.3083L57.4925 58.5766L54.5023 60.3041L55.5028 62.0359L56.5033 63.7677L59.4935 62.0401L58.493 60.3083ZM55.5028 62.0359L54.503 60.3037L54.5034 60.3035L52.7713 61.3035L51.0393 62.3035C52.1435 64.216 54.5889 64.8725 56.5025 63.7681L55.5028 62.0359ZM52.7713 61.3035L54.5033 60.3033L51.7035 55.4547L49.9715 56.4548L48.2395 57.455L51.0393 62.3036L52.7713 61.3035ZM49.9715 56.4548L51.7037 55.4551L51.7039 55.4545L50.7039 53.7224L49.7039 51.9904C47.791 53.0948 47.1352 55.5414 48.2393 57.4545L49.9715 56.4548ZM50.7039 53.7224L51.7041 55.4544L54.3574 53.9221L53.3573 52.1902L52.3571 50.4582L49.7038 51.9905L50.7039 53.7224ZM53.3573 52.1902L55.3192 51.8019C55.1769 51.0832 55.1014 50.3396 55.1014 49.5789H53.1014H51.1014C51.1014 50.6049 51.2033 51.6086 51.3953 52.5785L53.3573 52.1902ZM53.1014 49.5789L55.1014 49.579C55.1014 49.0284 55.1413 48.4861 55.2171 47.9553L53.2371 47.6726L51.2572 47.3899C51.1553 48.1041 51.1014 48.8352 51.1014 49.5787L53.1014 49.5789ZM53.2371 47.6726L54.237 45.9404L51.7008 44.4766L50.701 46.2087L49.7012 47.9409L52.2373 49.4048L53.2371 47.6726ZM50.701 46.2087L51.7012 44.4768L51.7016 44.4763L49.9696 43.4763L48.2375 42.4763C47.1335 44.3885 47.7871 46.8355 49.7008 47.9407L50.701 46.2087ZM49.9696 43.4763L51.7017 44.4762L54.5005 39.6275L52.7684 38.6277L51.0363 37.6278L48.2374 42.4765L49.9696 43.4763ZM52.7684 38.6277L54.5002 39.628L54.501 39.6274L55.5008 37.8953L56.5007 36.1631C54.5871 35.0586 52.1409 35.7155 51.0365 37.6273L52.7684 38.6277ZM55.5008 37.8953L54.5009 39.6274L56.9267 41.0277L57.9266 39.2957L58.9265 37.5636L56.5007 36.1632L55.5008 37.8953ZM57.9266 39.2957L59.2056 40.8332C60.2296 39.9814 61.4052 39.3071 62.6845 38.8553L62.0184 36.9695L61.3523 35.0837C59.6201 35.6955 58.0305 36.6077 56.6476 37.7581L57.9266 39.2957ZM62.0184 36.9695H64.0184V34.0925H62.0184H60.0184V36.9695H62.0184ZM62.0184 34.0925L64.0184 34.0934L64.0186 34.0925L64.0184 32.0925L64.0182 30.0925C61.809 30.0928 60.0194 31.8843 60.0184 34.0917L62.0184 34.0925ZM64.0184 32.0925V34.0925H69.618V32.0925V30.0925H64.0184V32.0925ZM66.4715 44.4402L66.4714 42.4402C62.527 42.4403 59.3289 45.6381 59.3289 49.5828H61.3289H63.3289C63.3289 47.8474 64.736 46.4402 66.4716 46.4402L66.4715 44.4402ZM61.3289 49.5828L59.3289 49.5828C59.329 53.5273 62.527 56.7252 66.4714 56.7253L66.4715 54.7253L66.4716 52.7253C64.7361 52.7253 63.329 51.3181 63.3289 49.5827L61.3289 49.5828ZM66.4715 54.7253V56.7253C70.4162 56.7253 73.614 53.5273 73.6141 49.5828L71.6141 49.5828L69.6141 49.5827C69.6141 51.3183 68.2069 52.7253 66.4715 52.7253V54.7253ZM71.6141 49.5828H73.6141C73.6141 45.6381 70.4162 42.4402 66.4715 42.4402V44.4402V46.4402C68.207 46.4402 69.6141 47.8472 69.6141 49.5828H71.6141Z" fill="black" mask="url(#path-2-inside-1_385_9888)"/>
<mask id="path-4-inside-2_385_9888" fill="white">
<path d="M97.478 34.4646C100.159 39.7294 101.43 45.5995 101.167 51.502C100.903 57.4045 99.1133 63.1378 95.9729 68.1424C92.8324 73.147 88.4482 77.2521 83.248 80.057C78.0479 82.8618 72.2094 84.2707 66.3023 84.1461L66.3532 81.7335C71.8432 81.8493 77.2694 80.5399 82.1024 77.9331C86.9354 75.3262 91.0101 71.511 93.9288 66.8597C96.8475 62.2085 98.5106 56.88 98.7558 51.3942C99.001 45.9085 97.8198 40.4529 95.3277 35.5598L97.478 34.4646Z"/>
</mask>
<path d="M97.478 34.4646C100.159 39.7294 101.43 45.5995 101.167 51.502C100.903 57.4045 99.1133 63.1378 95.9729 68.1424C92.8324 73.147 88.4482 77.2521 83.248 80.057C78.0479 82.8618 72.2094 84.2707 66.3023 84.1461L66.3532 81.7335C71.8432 81.8493 77.2694 80.5399 82.1024 77.9331C86.9354 75.3262 91.0101 71.511 93.9288 66.8597C96.8475 62.2085 98.5106 56.88 98.7558 51.3942C99.001 45.9085 97.8198 40.4529 95.3277 35.5598L97.478 34.4646Z" stroke="black" stroke-width="6" mask="url(#path-4-inside-2_385_9888)"/>
<mask id="path-5-inside-3_385_9888" fill="white">
<path d="M33.8142 43.5034C35.1838 37.8745 37.9618 32.6862 41.887 28.4257C45.8123 24.1652 50.7561 20.9724 56.2541 19.1471C61.7521 17.3218 67.6239 16.924 73.3178 17.991C79.0118 19.0579 84.3411 21.5547 88.8052 25.2468L87.3596 26.9946C83.1918 23.5476 78.2161 21.2165 72.9001 20.2203C67.584 19.2242 62.1019 19.5956 56.9688 21.2998C51.8357 23.0039 47.2199 25.9849 43.5552 29.9626C39.8904 33.9404 37.2968 38.7844 36.0181 44.0396L33.8142 43.5034Z"/>
</mask>
<path d="M33.8142 43.5034C35.1838 37.8745 37.9618 32.6862 41.887 28.4257C45.8123 24.1652 50.7561 20.9724 56.2541 19.1471C61.7521 17.3218 67.6239 16.924 73.3178 17.991C79.0118 19.0579 84.3411 21.5547 88.8052 25.2468L87.3596 26.9946C83.1918 23.5476 78.2161 21.2165 72.9001 20.2203C67.584 19.2242 62.1019 19.5956 56.9688 21.2998C51.8357 23.0039 47.2199 25.9849 43.5552 29.9626C39.8904 33.9404 37.2968 38.7844 36.0181 44.0396L33.8142 43.5034Z" stroke="black" stroke-width="6" mask="url(#path-5-inside-3_385_9888)"/>
<path d="M75.9932 25.9224L88.3181 26.1416L87.9147 14.0008" stroke="black" stroke-width="2" stroke-linejoin="round"/>
<path d="M74.6445 74.1797L65.7745 82.7397L74.6445 91.0393" stroke="black" stroke-width="2" stroke-linejoin="round"/>
</mask>
<g mask="url(#mask0_385_9888)">
<path d="M103 99L8.99999 99L9 11L103 11L103 99Z" fill="url(#paint0_linear_385_9888)"/>
</g>
<defs>
<linearGradient id="paint0_linear_385_9888" x1="56" y1="99" x2="56" y2="8.46154" gradientUnits="userSpaceOnUse">
<stop stop-color="#A34DEE"/>
<stop offset="1" stop-color="#6943F5"/>
</linearGradient>
</defs>
</svg>
