<svg width="113" height="113" viewBox="0 0 113 113" fill="none" xmlns="http://www.w3.org/2000/svg">
<path d="M44.6085 38.1735C44.987 37.9049 45.5027 37.9715 45.8018 38.3135L45.8587 38.3853L52.8021 48.1653L58.5548 42.2707L58.6222 42.2077C58.7864 42.0709 58.9958 41.9966 59.2114 42.0002C59.4579 42.0044 59.6922 42.1098 59.8584 42.2917L68.2332 51.4562C68.5672 51.8216 68.5416 52.389 68.1763 52.723C67.811 53.0567 67.2444 53.0311 66.9104 52.6661L59.1747 44.202L53.3352 50.1868C53.1496 50.377 52.8885 50.4753 52.6235 50.4547C52.3585 50.434 52.1164 50.2966 51.9625 50.08L44.3966 39.4236L44.3476 39.3457C44.1235 38.9506 44.2301 38.4422 44.6085 38.1735Z" fill="white"/>
<path fill-rule="evenodd" clip-rule="evenodd" d="M86.838 25.2934C87.2901 25.3393 87.6426 25.7214 87.6426 26.1856C87.6425 26.6497 87.2901 27.0318 86.838 27.0777L86.7461 27.082H80.8226V65.6241L80.8182 65.716L80.8174 65.7195H86.7461L86.838 65.7239C87.29 65.7697 87.6424 66.1519 87.6426 66.616C87.6426 67.0802 87.2901 67.4622 86.838 67.5081L86.7461 67.5125H57.2442V75.3795L74.0096 86.6434L74.0832 86.6977C74.4329 86.9878 74.5127 87.5021 74.2539 87.8875C73.9951 88.2724 73.4893 88.3927 73.0886 88.179L73.0098 88.1317L57.2442 77.5393V86.8483C57.2441 87.3432 56.8428 87.7448 56.3478 87.7448C55.8528 87.7448 55.4515 87.3432 55.4513 86.8483V77.2627L39.2733 88.1317L39.1945 88.179C38.7938 88.3928 38.2882 88.2724 38.0293 87.8875C37.7703 87.502 37.8501 86.9878 38.2 86.6977L38.2735 86.6434L55.3821 75.1493L55.4513 75.1072V67.5125H25.9512C25.4561 67.5125 25.0547 67.1111 25.0547 66.616C25.0549 66.121 25.4562 65.7195 25.9512 65.7195H31.8799L31.879 65.716L31.8747 65.6241V27.082H25.9512C25.4561 27.082 25.0547 26.6806 25.0547 26.1856C25.0547 25.6904 25.4561 25.2891 25.9512 25.2891H86.7461L86.838 25.2934ZM33.6676 65.6241L33.6633 65.716L33.6624 65.7195H79.0349L79.034 65.716L79.0296 65.6241V27.082H33.6676V65.6241Z" fill="white"/>
</svg>
