<svg width="84" height="84" viewBox="0 0 84 84" fill="none" xmlns="http://www.w3.org/2000/svg">
<g clip-path="url(#clip0_2551_29783)">
<path d="M28.4961 13.5C36.3662 13.5 42.7461 19.8799 42.7461 27.75C42.7461 29.8169 42.3045 31.7801 41.5127 33.5527C41.3736 33.8641 41.4319 34.2314 41.6729 34.4727C41.8987 34.6985 42.2336 34.7636 42.5273 34.6572L42.6494 34.6016C45.3434 33.1039 48.4451 32.25 51.7461 32.25C62.1014 32.25 70.4961 40.6447 70.4961 51C70.4961 61.3553 62.1014 69.75 51.7461 69.75C41.3908 69.75 32.9961 61.3553 32.9961 51C32.9961 48.399 33.5253 45.9216 34.4824 43.6699L34.6797 43.2227C34.9263 42.6824 34.832 42.04 34.4121 41.6201C34.028 41.2363 33.4536 41.1237 32.9375 41.293L32.4092 41.4551C31.1659 41.8097 29.8532 42 28.4961 42C20.626 42 14.2461 35.6201 14.2461 27.75C14.2461 19.8799 20.626 13.5 28.4961 13.5ZM28.4961 15C21.4545 15 15.7461 20.7084 15.7461 27.75C15.7461 34.7916 21.4545 40.5 28.4961 40.5C29.886 40.5 31.2215 40.2779 32.4707 39.8682L32.6602 39.8125C33.5547 39.583 34.5596 39.7622 35.3154 40.4131L35.4727 40.5596L35.6328 40.7324C36.3361 41.5601 36.4827 42.6832 36.1279 43.6426L36.0439 43.8457C35.0502 46.0231 34.4961 48.4448 34.4961 51C34.4961 60.5269 42.2192 68.25 51.7461 68.25C61.273 68.25 68.9961 60.5269 68.9961 51C68.9961 41.4731 61.273 33.75 51.7461 33.75C48.897 33.75 46.213 34.4402 43.8477 35.6611L43.3789 35.9121C42.5004 36.4005 41.3646 36.2864 40.6123 35.5342C39.9072 34.829 39.7653 33.7885 40.1436 32.9414L40.2725 32.6416C40.899 31.1364 41.2461 29.4854 41.2461 27.75C41.2461 20.7084 35.5377 15 28.4961 15ZM51.7461 40.5C55.0598 40.5 57.7461 43.1863 57.7461 46.5C57.7461 47.8546 57.2938 49.1021 56.5371 50.1055C59.5127 51.9161 61.4961 55.3463 61.4961 59.25C61.4961 59.6642 61.1603 60 60.7461 60C60.3319 60 59.9961 59.6642 59.9961 59.25C59.9961 55.5292 57.9304 52.3678 55.0293 50.9922C54.8058 50.8861 54.6491 50.676 54.6104 50.4316C54.5717 50.1872 54.6561 49.9395 54.8359 49.7695C55.705 48.9479 56.2461 47.7878 56.2461 46.5C56.2461 44.0147 54.2314 42 51.7461 42C49.2608 42 47.2461 44.0147 47.2461 46.5C47.2461 47.7877 47.7866 48.948 48.6553 49.7695C48.8351 49.9395 48.9195 50.1872 48.8809 50.4316C48.8421 50.6761 48.6855 50.8861 48.4619 50.9922C45.5612 52.3679 43.4961 55.5294 43.4961 59.25C43.4961 59.6642 43.1603 60 42.7461 60C42.3319 60 41.9961 59.6642 41.9961 59.25C41.9961 55.347 43.9783 51.9164 46.9531 50.1055C46.197 49.1021 45.7461 47.854 45.7461 46.5C45.7461 43.1863 48.4324 40.5 51.7461 40.5ZM12.7461 43.5C14.8172 43.5 16.4961 45.1789 16.4961 47.25C16.4961 49.3211 14.8172 51 12.7461 51C10.675 51 8.99609 49.3211 8.99609 47.25C8.99609 45.1789 10.675 43.5 12.7461 43.5ZM12.7461 45C11.5035 45 10.4961 46.0074 10.4961 47.25C10.4961 48.4926 11.5035 49.5 12.7461 49.5C13.9887 49.5 14.9961 48.4926 14.9961 47.25C14.9961 46.0074 13.9887 45 12.7461 45ZM28.4932 20.25C30.9784 20.25 32.9932 22.2647 32.9932 24.75C32.9932 25.6769 32.7105 26.5369 32.2305 27.252C34.2509 28.4326 35.6211 30.5524 35.6211 33C35.6211 33.4142 35.2853 33.75 34.8711 33.75C34.4569 33.75 34.1211 33.4142 34.1211 33C34.1211 30.8738 32.7591 29.0143 30.7568 28.1924C30.5204 28.0952 30.3494 27.8843 30.3037 27.6328C30.2581 27.381 30.3446 27.1233 30.5322 26.9492C31.1244 26.3999 31.4932 25.6185 31.4932 24.75C31.4932 23.0931 30.15 21.75 28.4932 21.75C26.8363 21.75 25.4932 23.0931 25.4932 24.75C25.4932 25.6196 25.8626 26.4021 26.4551 26.9512C26.6424 27.125 26.7288 27.3823 26.6836 27.6338C26.6382 27.8856 26.467 28.097 26.2305 28.1943C24.2307 29.0173 22.8711 30.8755 22.8711 33C22.8711 33.4142 22.5353 33.75 22.1211 33.75C21.7069 33.75 21.3711 33.4142 21.3711 33C21.3711 30.5547 22.7385 28.4361 24.7559 27.2549C24.2751 26.539 23.9932 25.6774 23.9932 24.75C23.9932 22.2647 26.0079 20.25 28.4932 20.25ZM65.9961 14.7188C70.1382 14.7188 73.4961 18.0766 73.4961 22.2188C73.4961 26.3609 70.1382 29.7188 65.9961 29.7188C61.854 29.7188 58.4961 26.3609 58.4961 22.2188C58.4961 18.0766 61.854 14.7188 65.9961 14.7188ZM65.9961 16.2188C62.6824 16.2188 59.9961 18.905 59.9961 22.2188C59.9961 25.5325 62.6824 28.2188 65.9961 28.2188C69.3098 28.2188 71.9961 25.5325 71.9961 22.2188C71.9961 18.905 69.3098 16.2188 65.9961 16.2188Z" fill="white"/>
</g>
<defs>
<clipPath id="clip0_2551_29783">
<rect width="84" height="84" fill="white" transform="translate(-0.00390625)"/>
</clipPath>
</defs>
</svg>
