<svg width="113" height="113" viewBox="0 0 113 113" fill="none" xmlns="http://www.w3.org/2000/svg">
<path d="M42.5986 23.7832C43.1509 23.7832 43.5986 24.231 43.5986 24.7832V59.7734H48.5215C50.178 59.7738 51.5215 61.1168 51.5215 62.7734V67.0332C51.5213 68.6896 50.1779 70.0328 48.5215 70.0332H43.5986V87.8428C43.5986 88.395 43.1509 88.8428 42.5986 88.8428C42.0465 88.8426 41.5987 88.3949 41.5986 87.8428V70.0332H36.6777C35.021 70.0332 33.678 68.6899 33.6777 67.0332V62.7734C33.6777 61.1166 35.0209 59.7734 36.6777 59.7734H41.5986V24.7832C41.5987 24.2311 42.0465 23.7834 42.5986 23.7832ZM71.1787 23.7822C71.7308 23.7824 72.1786 24.2301 72.1787 24.7822V36.9766H77.1025C78.759 36.9768 80.1023 38.3201 80.1025 39.9766V44.2363C80.1025 45.893 78.7592 47.2361 77.1025 47.2363H72.1787V87.8428C72.1783 88.3946 71.7306 88.8426 71.1787 88.8428C70.6267 88.8428 70.1792 88.3947 70.1787 87.8428V47.2363H65.2588C63.602 47.2363 62.2588 45.8932 62.2588 44.2363V39.9766C62.259 38.3199 63.6021 36.9766 65.2588 36.9766H70.1787V24.7822C70.1788 24.23 70.6265 23.7822 71.1787 23.7822ZM36.6777 61.7734C36.1254 61.7734 35.6777 62.2212 35.6777 62.7734V67.0332C35.678 67.5853 36.1256 68.0332 36.6777 68.0332H48.5215C49.0733 68.0328 49.5213 67.5851 49.5215 67.0332V62.7734C49.5215 62.2214 49.0734 61.7738 48.5215 61.7734H36.6777ZM65.2588 38.9766C64.7067 38.9766 64.259 39.4245 64.2588 39.9766V44.2363C64.2588 44.7886 64.7065 45.2363 65.2588 45.2363H77.1025C77.6546 45.2361 78.1025 44.7884 78.1025 44.2363V39.9766C78.1023 39.4246 77.6545 38.9768 77.1025 38.9766H65.2588Z" fill="#121212"/>
</svg>
