<svg width="85" height="85" viewBox="0 0 85 85" fill="none" xmlns="http://www.w3.org/2000/svg">
<path fill-rule="evenodd" clip-rule="evenodd" d="M61.9279 17.6143C64.9913 17.6143 67.475 20.0981 67.4751 23.1615C67.475 25.9906 65.3566 28.3228 62.6198 28.6636C62.6248 28.6974 62.6287 28.7317 62.6287 28.7669V56.0528C62.6287 56.0861 62.625 56.1187 62.6205 56.1507C65.3571 56.4917 67.4751 58.8245 67.4751 61.6534C67.475 64.7169 64.9913 67.2006 61.9279 67.2007C59.0846 67.2007 56.742 65.0611 56.4196 62.3043C56.361 62.3276 56.2986 62.3435 56.2335 62.3502L56.1616 62.3543H28.9373C28.5926 65.0868 26.2619 67.2006 23.4359 67.2007C20.3725 67.2006 17.8887 64.7169 17.8887 61.6534C17.8887 58.8274 20.0025 56.4961 22.7351 56.1514V29.3254C20.0026 28.9806 17.8887 26.65 17.8887 23.824C17.8888 20.7606 20.3725 18.2769 23.4359 18.2768C26.0289 18.2768 28.2064 20.0564 28.8141 22.4607H56.1616L56.2335 22.4641C56.2985 22.4707 56.3611 22.4861 56.4196 22.5092C56.7426 19.7532 59.0851 17.6143 61.9279 17.6143ZM23.4359 57.5079C21.1466 57.508 19.2904 59.3641 19.2904 61.6534C19.2904 63.9428 21.1466 65.7989 23.4359 65.799C25.6374 65.7989 27.4369 64.0824 27.5719 61.9149C27.5394 61.8341 27.5213 61.7458 27.5212 61.6534C27.5212 61.561 27.5394 61.4728 27.5719 61.392C27.4369 59.2244 25.6374 57.508 23.4359 57.5079ZM61.9279 57.5079C59.6384 57.5079 57.7823 59.364 57.7823 61.6534C57.7824 63.9428 59.6385 65.799 61.9279 65.799C64.2172 65.7989 66.0733 63.9428 66.0734 61.6534C66.0734 59.364 64.2172 57.508 61.9279 57.5079ZM56.4196 23.8131C56.361 23.8363 56.2986 23.8523 56.2335 23.8589L56.1616 23.8624H28.9825C28.9635 26.6712 26.8571 28.9823 24.1368 29.3254V56.1514C26.6398 56.467 28.6216 58.4496 28.9373 60.9526H56.1616L56.2335 60.956C56.2985 60.9626 56.3611 60.978 56.4196 61.0012C56.7158 58.473 58.7114 56.4656 61.2338 56.1507C61.2294 56.1187 61.227 56.086 61.227 56.0528V28.7669C61.227 28.7318 61.2302 28.6973 61.2352 28.6636C58.7119 28.3491 56.7155 26.3421 56.4196 23.8131ZM23.4359 19.6785C21.1466 19.6786 19.2905 21.5347 19.2904 23.824C19.2904 26.1133 21.1466 27.9694 23.4359 27.9696C25.7253 27.9695 27.5814 26.1134 27.5815 23.824C27.5815 23.6758 27.5734 23.5295 27.5582 23.3853C27.5345 23.315 27.5212 23.2398 27.5212 23.1615C27.5212 23.1507 27.5221 23.14 27.5226 23.1293C27.192 21.1708 25.4885 19.6785 23.4359 19.6785ZM61.9279 19.016C59.6385 19.016 57.7824 20.8722 57.7823 23.1615C57.7824 25.4509 59.6385 27.307 61.9279 27.3071C64.2172 27.307 66.0733 25.4508 66.0734 23.1615C66.0733 20.8722 64.2172 19.016 61.9279 19.016Z" fill="white"/>
</svg>
