<svg width="113" height="112" viewBox="0 0 113 112" fill="none" xmlns="http://www.w3.org/2000/svg">
<g clip-path="url(#clip0_2551_29145)">
<path d="M38.9495 29.3846C43.554 27.68 48.5448 27.301 53.3538 28.2908C58.163 29.2807 62.5985 31.5996 66.1556 34.9842C69.5245 38.1898 71.9769 42.2299 73.2698 46.6873H76.4847C80.9349 46.6873 85.2031 48.4556 88.3499 51.6023C91.4966 54.7491 93.264 59.0174 93.264 63.4676C93.2638 67.9175 91.4964 72.1852 88.3499 75.3318C85.2031 78.4785 80.9348 80.2469 76.4847 80.2469H48.0814V80.2459C43.1717 80.2494 38.3588 78.8767 34.1907 76.282C30.0226 73.6872 26.6653 69.9753 24.5013 65.5681C22.3373 61.1608 21.4529 56.2343 21.9486 51.3494C22.4442 46.4646 24.3008 41.8161 27.306 37.9334C30.3111 34.0509 34.3454 31.0892 38.9495 29.3846ZM52.9505 30.2498C48.508 29.3355 43.8974 29.6849 39.6439 31.2596C35.3904 32.8343 31.6632 35.5712 28.887 39.158C26.111 42.7449 24.3967 47.0391 23.9388 51.5515C23.4809 56.0641 24.2981 60.6149 26.2972 64.6863C28.2963 68.7578 31.3978 72.1867 35.2484 74.5838C39.0989 76.9808 43.5447 78.2502 48.0804 78.2469H76.4847C80.4044 78.2469 84.1642 76.6893 86.9359 73.9178C89.7073 71.1462 91.2638 67.387 91.264 63.4676C91.264 59.5478 89.7075 55.7881 86.9359 53.0164C84.1641 50.2447 80.4045 48.6873 76.4847 48.6873H72.5081C72.0523 48.6871 71.6543 48.3786 71.5404 47.9373C70.4064 43.5455 68.0627 39.5601 64.7767 36.4334C61.4907 33.3067 57.3932 31.1643 52.9505 30.2498Z" fill="white"/>
<path fill-rule="evenodd" clip-rule="evenodd" d="M38.9476 29.3846C43.552 27.68 48.5429 27.301 53.3519 28.2908C58.161 29.2807 62.5966 31.5996 66.1536 34.9842C69.5226 38.1898 71.975 42.2299 73.2679 46.6873H76.4827C80.9329 46.6873 85.2012 48.4556 88.348 51.6023C91.4946 54.7491 93.262 59.0174 93.262 63.4676C93.2619 67.9175 91.4945 72.1852 88.348 75.3318C85.2012 78.4785 80.9329 80.2469 76.4827 80.2469H48.0794C43.1697 80.2504 38.3569 78.8767 34.1888 76.282C30.0207 73.6872 26.6633 69.9753 24.4993 65.5681C22.3353 61.1608 21.451 56.2343 21.9466 51.3494C22.4423 46.4646 24.2988 41.8161 27.304 37.9334C30.3091 34.0509 34.3434 31.0892 38.9476 29.3846ZM52.9486 30.2498C48.506 29.3355 43.8955 29.6849 39.6419 31.2596C35.3884 32.8343 31.6613 35.5712 28.8851 39.158C26.109 42.7449 24.3947 47.0391 23.9368 51.5515C23.479 56.0641 24.2961 60.6149 26.2952 64.6863C28.2944 68.7578 31.3958 72.1867 35.2464 74.5838C39.097 76.9808 43.5427 78.2502 48.0784 78.2469H76.4827C80.4024 78.2469 84.1622 76.6893 86.9339 73.9178C89.7053 71.1462 91.2619 67.387 91.262 63.4676C91.262 59.5478 89.7055 55.7881 86.9339 53.0164C84.1622 50.2447 80.4025 48.6873 76.4827 48.6873H72.5062C72.0504 48.6871 71.6524 48.3786 71.5384 47.9373C70.4044 43.5455 68.0607 39.5601 64.7747 36.4334C61.4887 33.3067 57.3913 31.1643 52.9486 30.2498Z" fill="white"/>
</g>
<defs>
<clipPath id="clip0_2551_29145">
<rect width="112" height="112" fill="white" transform="translate(0.820312)"/>
</clipPath>
</defs>
</svg>
