<svg width="113" height="113" viewBox="0 0 113 113" fill="none" xmlns="http://www.w3.org/2000/svg">
<path d="M73.826 43.0409C73.4873 42.7026 72.9515 42.6815 72.5882 42.9777L72.5177 43.0409L60.885 54.6728L50.4611 47.741C50.1746 47.5508 49.8099 47.5374 49.5134 47.6958L49.3905 47.7744L39.6849 55.1254C39.2777 55.4338 39.1979 56.0147 39.506 56.422C39.8145 56.8289 40.3945 56.909 40.8017 56.6009L49.9832 49.6456L60.492 56.6334C60.8588 56.8772 61.3469 56.8283 61.6584 56.5168L73.826 44.3492L73.8893 44.2787C74.1855 43.9154 74.1647 43.3796 73.826 43.0409Z" fill="white"/>
<path fill-rule="evenodd" clip-rule="evenodd" d="M31.416 27.458C27.4131 27.4582 24.1681 30.7031 24.168 34.706V66.3218C24.1681 70.3247 27.4131 73.5696 31.416 73.5698H55.7828V84.365H44.0606C43.5499 84.3652 43.1356 84.7794 43.1354 85.2902C43.1354 85.801 43.5498 86.2152 44.0606 86.2154H56.6918C56.6972 86.2155 56.7026 86.2163 56.708 86.2163C56.7135 86.2163 56.7189 86.2155 56.7243 86.2154H69.3527L69.4476 86.2108C69.9142 86.1635 70.2779 85.7692 70.2779 85.2902C70.2778 84.8112 69.9141 84.4168 69.4476 84.3695L69.3527 84.365H57.6332V73.5698H82.001C86.004 73.5697 89.2489 70.3247 89.249 66.3218V34.706C89.2489 30.7031 86.004 27.4581 82.001 27.458H31.416ZM82.001 29.3084C84.982 29.3085 87.3985 31.725 87.3986 34.706V66.3218C87.3985 69.3028 84.982 71.7193 82.001 71.7194H31.416C28.435 71.7192 26.0185 69.3028 26.0184 66.3218V34.706C26.0185 31.7251 28.435 29.3086 31.416 29.3084H82.001Z" fill="white"/>
</svg>
