<svg width="113" height="113" viewBox="0 0 113 113" fill="none" xmlns="http://www.w3.org/2000/svg">
<path fill-rule="evenodd" clip-rule="evenodd" d="M55.7549 21.3178C56.3049 21.1822 56.8844 21.2045 57.4248 21.3852L87.3271 31.3861C88.5502 31.7956 89.3749 32.9411 89.375 34.2309V42.101C89.3748 43.7575 88.0315 45.1008 86.375 45.101H82.3301V74.8637C86.3269 75.5104 89.3738 78.9719 89.374 83.1527V88.0522C89.3739 89.7088 88.0306 91.0519 86.374 91.0522H26.3203C24.6635 91.0522 23.3204 89.709 23.3203 88.0522V83.0815C23.3205 78.837 26.5087 75.318 30.6133 74.7904V45.101H26.6064C24.9497 45.101 23.6066 43.7577 23.6064 42.101V34.2309C23.6064 32.9411 24.4312 31.7957 25.6543 31.3861L55.5205 21.3861L55.7549 21.3178ZM31.458 76.724C28.059 76.843 25.3205 79.6546 25.3203 83.0815V88.0522C25.3204 88.6044 25.7681 89.0522 26.3203 89.0522H86.374C86.926 89.0519 87.3739 88.6042 87.374 88.0522V83.1527C87.3738 79.6152 84.5131 76.7544 80.9756 76.7543H31.7002C31.6166 76.7543 31.5357 76.743 31.458 76.724ZM32.6826 75.7367L32.6777 75.6361C32.6759 75.6181 32.6717 75.6001 32.6689 75.5824C32.6766 75.6326 32.6826 75.6842 32.6826 75.7367ZM68.248 45.101V74.7543H80.3301V45.101H68.248ZM32.6133 74.7543H44.6953V45.101H32.6133V74.7543ZM46.6953 74.7543H66.248V45.101H46.6953V74.7543ZM56.791 23.2817C56.5852 23.2128 56.3621 23.2138 56.1562 23.2826L26.2891 33.2826C25.8814 33.4191 25.6064 33.8009 25.6064 34.2309V42.101C25.6066 42.6531 26.0543 43.101 26.6064 43.101H86.375C86.927 43.1008 87.3748 42.653 87.375 42.101V34.2309C87.3749 33.8011 87.0999 33.4191 86.6924 33.2826L56.791 23.2817Z" fill="white"/>
</svg>
