<svg width="113" height="112" viewBox="0 0 113 112" fill="none" xmlns="http://www.w3.org/2000/svg">
<g clip-path="url(#clip0_2551_29161)">
<path fill-rule="evenodd" clip-rule="evenodd" d="M57.1271 31.8901C63.6072 32.0545 68.8097 37.3598 68.8097 43.8795L68.8061 44.1889C68.6522 50.2503 64.0009 55.194 58.0646 55.8073V88.4408C58.0645 88.9524 57.6496 89.3674 57.1379 89.3674C56.6266 89.367 56.2114 88.9522 56.2113 88.4408V55.8571C49.9723 55.5462 44.9876 50.4667 44.8282 44.1889L44.8246 43.8795C44.8246 37.2564 50.1947 31.8869 56.8176 31.8865L57.1271 31.8901ZM56.8176 33.7397C51.2182 33.7402 46.6779 38.28 46.6779 43.8795C46.6783 49.4786 51.2184 54.0178 56.8176 54.0183C62.4169 54.018 66.956 49.4787 66.9564 43.8795C66.9564 38.2798 62.4172 33.74 56.8176 33.7397Z" fill="white"/>
<path d="M31.7683 22.9594C32.1056 22.5746 32.6911 22.5362 33.0759 22.8734C33.4605 23.2107 33.4991 23.7962 33.1619 24.181C30.4073 27.3249 28.5759 30.1376 27.4256 33.1371C26.2761 36.1345 25.7849 39.3754 25.7849 43.4044C25.785 47.4333 26.276 50.6742 27.4256 53.6717C28.5041 56.4836 30.181 59.1319 32.656 62.0422L33.1619 62.6277L33.2207 62.7019C33.493 63.0846 33.4367 63.6191 33.0759 63.9354C32.7152 64.2513 32.1779 64.2371 31.8344 63.9173L31.7683 63.8494L31.2444 63.2431C28.6765 60.2237 26.8695 57.3972 25.6953 54.3359C24.4423 51.0687 23.9317 47.5889 23.9316 43.4044C23.9316 39.2198 24.4423 35.7401 25.6953 32.4728C26.9477 29.2075 28.9206 26.2095 31.7683 22.9594Z" fill="white"/>
<path d="M80.5647 22.8625C80.9255 22.5464 81.4626 22.5605 81.8063 22.8806L81.8723 22.9485L82.3963 23.5548C84.9642 26.5743 86.7711 29.4006 87.9453 32.462C89.1983 35.7293 89.709 39.2089 89.709 43.3935C89.709 47.578 89.1983 51.0578 87.9453 54.325C86.6929 57.5903 84.72 60.5884 81.8723 63.8385C81.535 64.2229 80.9494 64.2616 80.5647 63.9245C80.18 63.5873 80.1418 63.0017 80.4787 62.6169C83.2333 59.4731 85.0647 56.6601 86.2151 53.6608C87.3646 50.6633 87.8557 47.4225 87.8557 43.3935C87.8557 39.3645 87.3646 36.1237 86.2151 33.1262C85.1366 30.3142 83.4598 27.6661 80.9846 24.7556L80.4787 24.1701L80.4199 24.0959C80.1475 23.7134 80.2042 23.1789 80.5647 22.8625Z" fill="white"/>
<path d="M39.3878 31.1571C39.7295 30.7764 40.3154 30.7449 40.6963 31.0865C41.0768 31.4283 41.1084 32.0142 40.7669 32.395C39.1335 34.2165 38.0649 35.8263 37.397 37.5278C36.73 39.2269 36.4395 41.0758 36.4395 43.4035C36.4396 45.7309 36.73 47.5792 37.397 49.2783C37.9815 50.7671 38.8726 52.1861 40.1805 53.7377L40.7669 54.411L40.8266 54.4852C41.103 54.8646 41.0531 55.3992 40.6963 55.7195C40.3391 56.0397 39.8011 56.0321 39.4539 55.7159L39.3878 55.6489L39.0693 55.2888C37.5096 53.4969 36.3975 51.8026 35.6722 49.9551C34.8976 47.982 34.5863 45.8904 34.5863 43.4035C34.5863 40.9163 34.8976 38.8242 35.6722 36.8509C36.4458 34.8801 37.6601 33.0836 39.3878 31.1571Z" fill="white"/>
<path d="M72.9362 31.0793C73.2934 30.7588 73.8313 30.7664 74.1786 31.0829L74.2447 31.1498L74.5632 31.51C76.1229 33.3018 77.2351 34.9961 77.9603 36.8436C78.7348 38.8168 79.0462 40.9084 79.0462 43.3953C79.0462 45.8824 78.7349 47.9746 77.9603 49.9479C77.1866 51.9187 75.9724 53.7152 74.2447 55.6417C73.903 56.0222 73.317 56.0535 72.9362 55.7123C72.5555 55.3706 72.5241 54.7847 72.8656 54.4038C74.499 52.5823 75.5675 50.9724 76.2355 49.271C76.9025 47.5719 77.1929 45.723 77.1929 43.3953C77.1929 41.0679 76.9024 39.2196 76.2355 37.5205C75.6511 36.0317 74.7599 34.6127 73.452 33.0611L72.8656 32.3878L72.8059 32.3136C72.5293 31.9342 72.5793 31.3996 72.9362 31.0793Z" fill="white"/>
</g>
<defs>
<clipPath id="clip0_2551_29161">
<rect width="112" height="112" fill="white" transform="translate(0.820312)"/>
</clipPath>
</defs>
</svg>
