<svg width="85" height="84" viewBox="0 0 85 84" fill="none" xmlns="http://www.w3.org/2000/svg">
<path d="M32.5432 27.0268C35.1332 26.068 37.9406 25.8547 40.6457 26.4115C43.3507 26.9684 45.8451 28.2734 47.8459 30.1771C49.741 31.9803 51.1206 34.2528 51.8479 36.7602H53.6564C56.1597 36.7602 58.5602 37.7548 60.3303 39.5248C62.1003 41.2949 63.0949 43.6954 63.0949 46.1986C63.0949 48.7019 62.1003 51.1024 60.3303 52.8725C58.5602 54.6425 56.1597 55.6371 53.6564 55.6371H37.6789V55.6361C34.9173 55.638 32.2108 54.8661 29.8664 53.4066C27.5218 51.9471 25.6335 49.8594 24.4162 47.3803C23.1989 44.9011 22.7009 42.13 22.9797 39.3822C23.2586 36.6346 24.3029 34.0203 25.9934 31.8363C27.6838 29.6522 29.9531 27.9856 32.5432 27.0268ZM40.4182 27.5141C37.9193 26.9998 35.3264 27.1967 32.9338 28.0824C30.5411 28.9682 28.4447 30.5072 26.883 32.5248C25.3213 34.5425 24.3564 36.9581 24.0988 39.4965C23.8413 42.0347 24.3016 44.5941 25.426 46.8842C26.5505 49.1744 28.2951 51.1032 30.4611 52.4516C32.6271 53.7999 35.1275 54.514 37.6789 54.5121H53.6564C55.8613 54.5121 57.9763 53.6366 59.5354 52.0775C61.0944 50.5184 61.9699 48.4035 61.9699 46.1986C61.9699 43.9938 61.0944 41.8788 59.5354 40.3197C57.9763 38.7607 55.8613 37.8852 53.6564 37.8852H51.4191C51.1628 37.885 50.9393 37.7114 50.8752 37.4633C50.2373 34.9929 48.9189 32.7504 47.0705 30.9916C45.2222 29.233 42.9171 28.0284 40.4182 27.5141Z" fill="#121212"/>
<path fill-rule="evenodd" clip-rule="evenodd" d="M32.5408 27.0277C35.1308 26.0689 37.9382 25.8557 40.6432 26.4125C43.3484 26.9693 45.8434 28.2737 47.8442 30.1775C49.7393 31.9807 51.1187 34.2532 51.846 36.7605H53.6544C56.1576 36.7605 58.5585 37.7552 60.3285 39.5252C62.0985 41.2953 63.0927 43.6962 63.0927 46.1994C63.0926 48.7025 62.0984 51.1031 60.3285 52.8731C58.5585 54.643 56.1576 55.6378 53.6544 55.6378H37.6775C34.9158 55.6397 32.2086 54.8671 29.864 53.4075C27.5194 51.948 25.6309 49.86 24.4137 47.381C23.1964 44.9019 22.699 42.1307 22.9778 39.3829C23.2566 36.6352 24.3009 34.0205 25.9913 31.8364C27.6817 29.6525 29.951 27.9866 32.5408 27.0277ZM40.4164 27.5144C37.9174 27.0001 35.324 27.1967 32.9314 28.0824C30.5388 28.9682 28.4423 30.5077 26.8807 32.5253C25.3191 34.5429 24.3549 36.9584 24.0973 39.4966C23.8397 42.035 24.2994 44.5948 25.4239 46.885C26.5484 49.1751 28.293 51.1039 30.4589 52.4523C32.6249 53.8006 35.1256 54.5146 37.6769 54.5128H53.6544C55.8592 54.5128 57.9741 53.6367 59.5331 52.0776C61.0921 50.5186 61.9676 48.4041 61.9677 46.1994C61.9677 43.9946 61.0922 41.8797 59.5331 40.3206C57.974 38.7616 55.8592 37.8855 53.6544 37.8855H51.4175C51.1611 37.8854 50.9373 37.7119 50.8732 37.4636C50.2353 34.9932 48.917 32.7514 47.0686 30.9927C45.2202 29.2339 42.9154 28.0288 40.4164 27.5144Z" fill="#121212"/>
</svg>
