<svg width="112" height="112" viewBox="0 0 112 112" fill="none" xmlns="http://www.w3.org/2000/svg">
<path fill-rule="evenodd" clip-rule="evenodd" d="M26.7136 30.5385C25.2189 31.7165 24.4535 32.9639 24.4535 34.2232C24.4535 35.4825 25.2189 36.7299 26.7136 37.9079C28.205 39.0832 30.3817 40.1548 33.0981 41.0603C38.5278 42.8702 46.048 43.9948 54.3684 43.9948C62.6887 43.9948 70.2089 42.8702 75.6386 41.0603C78.355 40.1548 80.5317 39.0832 82.0231 37.9079C83.5178 36.7299 84.2832 35.4825 84.2832 34.2232C84.2832 32.9639 83.5178 31.7165 82.0231 30.5385C80.5317 29.3631 78.355 28.2916 75.6386 27.3861C70.2089 25.5762 62.6887 24.4516 54.3684 24.4516C46.048 24.4516 38.5278 25.5762 33.0981 27.3861C30.3817 28.2916 28.205 29.3631 26.7136 30.5385ZM84.2832 36.3129C83.8557 37.0434 83.2123 37.7346 82.3945 38.3791C80.8279 39.6137 78.5797 40.7124 75.8283 41.6295C70.3225 43.4648 62.7352 44.5948 54.3684 44.5948C46.0015 44.5948 38.4143 43.4648 32.9084 41.6295C30.157 40.7124 27.9088 39.6137 26.3423 38.3791C25.5244 37.7346 24.8811 37.0434 24.4535 36.3129V57.7236C24.4535 58.9865 25.2139 60.2353 26.7004 61.4133C28.1839 62.5888 30.3511 63.66 33.0612 64.5647C38.4783 66.3732 45.9984 67.4952 54.3684 67.4952C62.7383 67.4952 70.2584 66.3732 75.6755 64.5647C78.3857 63.66 80.5528 62.5888 82.0363 61.4133C83.5229 60.2353 84.2832 58.9865 84.2832 57.7236V36.3129ZM84.8832 57.7236V34.2232C84.8832 32.7013 83.9576 31.2991 82.3945 30.0672C80.8279 28.8327 78.5797 27.734 75.8283 26.8169C70.3225 24.9816 62.7352 23.8516 54.3684 23.8516C46.0015 23.8516 38.4143 24.9816 32.9084 26.8169C30.157 27.734 27.9088 28.8327 26.3423 30.0672C24.7791 31.2991 23.8535 32.7013 23.8535 34.2232V57.7236V81.224C23.8535 82.7476 24.7718 84.151 26.3277 85.384C27.8867 86.6193 30.1258 87.7178 32.8712 88.6343C38.365 90.4684 45.9523 91.5957 54.3684 91.5957C62.7844 91.5957 70.3718 90.4684 75.8655 88.6343C78.6109 87.7178 80.85 86.6193 82.409 85.384C83.9649 84.151 84.8832 82.7476 84.8832 81.224V57.7236ZM84.2832 59.8226C83.8584 60.5512 83.2204 61.2405 82.409 61.8835C80.85 63.1189 78.6109 64.2173 75.8655 65.1338C70.3718 66.9679 62.7844 68.0952 54.3684 68.0952C45.9523 68.0952 38.365 66.9679 32.8712 65.1338C30.1258 64.2173 27.8867 63.1189 26.3277 61.8835C25.5163 61.2405 24.8783 60.5512 24.4535 59.8226V81.224C24.4535 82.487 25.2139 83.7358 26.7004 84.9137C28.1839 86.0893 30.3511 87.1604 33.0612 88.0652C38.4783 89.8736 45.9984 90.9957 54.3684 90.9957C62.7383 90.9957 70.2584 89.8736 75.6755 88.0652C78.3857 87.1604 80.5528 86.0893 82.0363 84.9137C83.5229 83.7358 84.2832 82.487 84.2832 81.224V59.8226Z" fill="url(#paint0_linear_577_15232)"/>
<path fill-rule="evenodd" clip-rule="evenodd" d="M85.7203 34.2169C85.7203 32.3284 84.5711 30.7103 82.9125 29.4032C81.241 28.086 78.8929 26.9495 76.0928 26.0161C70.4806 24.1454 62.7998 23.0078 54.368 23.0078C45.9361 23.0078 38.2553 24.1454 32.6431 26.0161C29.843 26.9495 27.4949 28.086 25.8235 29.4032C24.1649 30.7103 23.0156 32.3284 23.0156 34.2169V81.2178C23.0156 83.1051 24.1543 84.7243 25.8072 86.0341C27.4714 87.3529 29.8111 88.4895 32.6056 89.4224C38.2064 91.2922 45.8876 92.4269 54.368 92.4269C62.8483 92.4269 70.5296 91.2922 76.1304 89.4224C78.9249 88.4895 81.2645 87.3529 82.9287 86.0341C84.5816 84.7243 85.7203 83.1051 85.7203 81.2178V34.2169ZM27.2316 31.19C25.8323 32.2928 25.2906 33.3242 25.2906 34.2169C25.2906 35.1096 25.8323 36.1411 27.2316 37.2439C28.6181 38.3365 30.6949 39.3703 33.3626 40.2595C38.686 42.034 46.1126 43.151 54.368 43.151C62.6233 43.151 70.0499 42.034 75.3734 40.2595C78.041 39.3703 80.1178 38.3365 81.5043 37.2439C82.9036 36.1411 83.4453 35.1096 83.4453 34.2169C83.4453 33.3242 82.9036 32.2928 81.5043 31.19C80.1178 30.0973 78.041 29.0636 75.3734 28.1743C70.0499 26.3999 62.6233 25.2828 54.368 25.2828C46.1126 25.2828 38.686 26.3999 33.3626 28.1743C30.6949 29.0636 28.6181 30.0973 27.2316 31.19ZM83.4453 38.5837C83.2746 38.7365 83.0967 38.8855 82.9125 39.0307C81.241 40.3479 78.8929 41.4844 76.0928 42.4178C70.4806 44.2885 62.7998 45.426 54.368 45.426C45.9361 45.426 38.2553 44.2885 32.6431 42.4178C29.843 41.4844 27.4949 40.3479 25.8235 39.0307C25.6393 38.8855 25.4614 38.7365 25.2906 38.5837V57.7174C25.2906 58.6165 25.8305 59.6495 27.2201 60.7506C28.5983 61.8427 30.665 62.8757 33.326 63.7641C38.6361 65.5368 46.0623 66.6515 54.368 66.6515C62.6737 66.6515 70.0998 65.5368 75.4099 63.7641C78.0709 62.8757 80.1376 61.8427 81.5158 60.7506C82.9054 59.6495 83.4453 58.6165 83.4453 57.7174V38.5837ZM83.4453 62.0987C83.2796 62.2473 83.1072 62.3923 82.9287 62.5337C81.2645 63.8524 78.9249 64.9891 76.1304 65.922C70.5296 67.7918 62.8483 68.9265 54.368 68.9265C45.8876 68.9265 38.2064 67.7918 32.6056 65.922C29.8111 64.9891 27.4714 63.8524 25.8072 62.5337C25.6288 62.3923 25.4563 62.2473 25.2906 62.0987V81.2178C25.2906 82.1169 25.8305 83.1499 27.2201 84.251C28.5983 85.3432 30.665 86.3762 33.326 87.2645C38.6361 89.0373 46.0623 90.1519 54.368 90.1519C62.6737 90.1519 70.0998 89.0373 75.4099 87.2645C78.0709 86.3762 80.1376 85.3432 81.5158 84.251C82.9054 83.1499 83.4453 82.1169 83.4453 81.2178V62.0987Z" fill="url(#paint1_linear_577_15232)"/>
<defs>
<linearGradient id="paint0_linear_577_15232" x1="54.3684" y1="23.8516" x2="54.3684" y2="91.5957" gradientUnits="userSpaceOnUse">
<stop stop-color="#505BFD"/>
<stop offset="1" stop-color="#B542FD"/>
</linearGradient>
<linearGradient id="paint1_linear_577_15232" x1="54.368" y1="23.0078" x2="54.368" y2="92.4269" gradientUnits="userSpaceOnUse">
<stop stop-color="#505BFD"/>
<stop offset="1" stop-color="#B542FD"/>
</linearGradient>
</defs>
</svg>
