<svg width="113" height="113" viewBox="0 0 113 113" fill="none" xmlns="http://www.w3.org/2000/svg">
<path d="M63.9906 42.3378C64.2519 42.0767 72.7157 42.2755 73.0428 42.392C73.054 42.3961 73.0652 42.4002 73.0762 42.4047C73.0805 42.4064 73.0846 42.4083 73.0889 42.4101C73.139 42.4312 73.1873 42.4558 73.2325 42.4851C73.2418 42.4911 73.2506 42.4977 73.2596 42.5041C73.2747 42.5146 73.2896 42.5252 73.3039 42.5366C73.3131 42.5439 73.322 42.5515 73.331 42.5592C73.3451 42.5712 73.3583 42.5843 73.3717 42.5971C73.3759 42.6012 73.3811 42.6047 73.3852 42.6089C73.3906 42.6143 73.3953 42.6205 73.4006 42.626C73.4092 42.6351 73.4176 42.6446 73.4259 42.654C73.4385 42.6684 73.4514 42.6825 73.4629 42.6974C73.4687 42.7049 73.4736 42.7132 73.4792 42.7209C73.4899 42.7356 73.5011 42.75 73.5108 42.7652C73.5162 42.7737 73.521 42.7827 73.5262 42.7914C73.5662 42.8589 73.5978 42.9301 73.6192 43.0037C73.6431 43.0858 73.6563 43.1732 73.6563 43.263V52.0035C73.6558 52.5138 73.2415 52.9284 72.7311 52.9286C72.2205 52.9286 71.8064 52.514 71.8059 52.0035V45.4965L59.5463 57.756C59.1851 58.1167 58.5992 58.1168 58.238 57.756L51.6082 51.1262L41.3372 61.3981C40.976 61.7586 40.39 61.7587 40.0289 61.3981C39.6678 61.037 39.6682 60.4511 40.0289 60.0898L50.954 49.1638L51.0245 49.1005C51.3878 48.8042 51.9236 48.8253 52.2623 49.1638L58.8922 55.7936L70.4976 44.1882H63.9906C63.48 44.1881 63.0658 43.7736 63.0654 43.263C63.0654 42.7521 63.4797 42.3379 63.9906 42.3378Z" fill="white"/>
<path fill-rule="evenodd" clip-rule="evenodd" d="M82.0001 27.459C86.003 27.459 89.2478 30.7039 89.248 34.7069V66.3221C89.2479 70.3251 86.0031 73.57 82.0001 73.57H57.6336V84.365H69.3529L69.4478 84.3695C69.9143 84.4169 70.2781 84.8112 70.2781 85.2902C70.278 85.7692 69.9143 86.1635 69.4478 86.2109L69.3529 86.2154H56.7274C56.7212 86.2155 56.7147 86.2163 56.7084 86.2163C56.7021 86.2163 56.6958 86.2155 56.6894 86.2154H44.0612C43.5504 86.2152 43.1361 85.801 43.136 85.2902C43.136 84.7793 43.5504 84.3652 44.0612 84.365H55.7832V73.57H31.4158C27.4131 73.5697 24.168 70.3249 24.168 66.3221V34.7069C24.1681 30.7041 27.4132 27.4593 31.4158 27.459H82.0001ZM31.4158 29.3094C28.4351 29.3097 26.0185 31.7261 26.0183 34.7069V66.3221C26.0184 69.303 28.435 71.7193 31.4158 71.7196H82.0001C84.9812 71.7196 87.3975 69.3032 87.3976 66.3221V34.7069C87.3974 31.7259 84.9811 29.3094 82.0001 29.3094H31.4158Z" fill="white"/>
</svg>
