<svg width="85" height="85" viewBox="0 0 85 85" fill="none" xmlns="http://www.w3.org/2000/svg">
<path fill-rule="evenodd" clip-rule="evenodd" d="M34.9907 23.7478C40.7956 23.7478 45.5038 28.4448 45.5039 34.2419C45.5039 38.452 43.0202 42.0805 39.4373 43.7524C47.0251 45.7188 52.6274 52.6001 52.6274 60.7915C52.6274 61.2057 52.2916 61.5414 51.8774 61.5415C51.4632 61.5415 51.1274 61.2057 51.1274 60.7915C51.1274 52.1565 44.3194 45.1091 35.7642 44.7068C35.5087 44.7253 35.2509 44.7361 34.9907 44.7361C34.7303 44.7361 34.4722 44.7261 34.2166 44.7075C25.6623 45.1109 18.8555 52.1572 18.8555 60.7915C18.8555 61.2057 18.5197 61.5415 18.1055 61.5415C17.6913 61.5415 17.3555 61.2057 17.3555 60.7915C17.3555 52.6009 22.9567 45.7195 30.5435 43.7524C26.9608 42.0803 24.4775 38.4517 24.4775 34.2419C24.4776 28.4448 29.1859 23.7479 34.9907 23.7478ZM34.9907 25.2478C30.0115 25.2479 25.9776 29.276 25.9775 34.2419C25.9775 38.9572 29.6146 42.8259 34.2444 43.2046C34.4921 43.1943 34.7412 43.1885 34.9915 43.1885C35.241 43.1885 35.4893 43.1943 35.7363 43.2046C40.3665 42.8263 44.0039 38.9575 44.0039 34.2419C44.0038 29.276 39.97 25.2478 34.9907 25.2478Z" fill="black"/>
<path d="M49.2129 23.627C55.0028 23.627 59.726 28.3124 59.7261 34.1211C59.7261 37.6313 57.998 40.7017 55.3601 42.5952C62.3027 45.2376 67.2604 52.3486 67.2605 60.6941C67.2605 61.1083 66.9247 61.4441 66.5105 61.4441C66.0964 61.444 65.7605 61.1082 65.7605 60.6941C65.7604 52.3519 60.4403 45.4374 53.3774 43.5254C53.0771 43.444 52.8582 43.1854 52.8274 42.8757C52.7966 42.566 52.9605 42.2698 53.239 42.1309C56.1965 40.655 58.2261 37.6419 58.2261 34.1211C58.226 29.146 54.1795 25.127 49.2129 25.127C48.7987 25.127 48.4629 24.7912 48.4629 24.377C48.4629 23.9627 48.7987 23.627 49.2129 23.627Z" fill="black"/>
</svg>
