<svg width="113" height="113" viewBox="0 0 113 113" fill="none" xmlns="http://www.w3.org/2000/svg">
<path fill-rule="evenodd" clip-rule="evenodd" d="M58.3641 23.7332C57.4824 23.2243 56.3961 23.223 55.5129 23.7295L27.8899 39.5682C27.0015 40.0777 26.4532 41.0239 26.4531 42.048V73.37C26.4533 74.3911 26.9982 75.3346 27.8824 75.8452L55.3994 91.7323L55.5678 91.8216C56.4197 92.2406 57.4297 92.2103 58.2589 91.7314L85.7592 75.8452C86.6432 75.3345 87.1884 74.391 87.1885 73.37L87.1866 42.0239C87.1865 41.0666 86.7077 40.1772 85.9192 39.6491L85.7573 39.5486L58.3641 23.7332ZM85.2827 73.37C85.2826 73.7102 85.1008 74.0252 84.8063 74.1954L57.7723 89.8117V58.3464L85.2818 42.4333L85.2827 73.37ZM55.8665 58.3464V89.8005L28.8353 74.1954C28.5406 74.0252 28.359 73.7103 28.3589 73.37V42.4342L55.8665 58.3464ZM69.6422 49.2783L56.8194 56.6957L29.456 40.8672L42.3086 33.4973L69.6422 49.2783ZM56.4611 25.3821C56.7555 25.2134 57.1174 25.2144 57.4112 25.384L84.207 40.8542L71.547 48.1766L44.2208 32.4002L56.4611 25.3821Z" fill="white"/>
</svg>
