<svg width="112" height="113" viewBox="0 0 112 113" fill="none" xmlns="http://www.w3.org/2000/svg">
<path d="M60.0625 25.3513C57.2669 25.0027 54.4328 24.9975 51.6211 25.4265V25.4255C50.5736 25.5751 49.7243 26.2891 49.3672 27.2702L49.3027 27.4694L49.3017 27.4704L48.1133 31.6452C48.0294 31.903 47.8479 32.0752 47.6494 32.1374L47.6318 32.1433C46.6737 32.4626 45.7177 32.8514 44.7656 33.3093C44.5446 33.4123 44.3124 33.4089 44.1494 33.3444L44.084 33.3132L44.0742 33.3073L40.1572 31.1276L39.9775 31.0358C39.0686 30.6114 37.9941 30.6936 37.1533 31.2868L37.1416 31.2956L37.1299 31.3034C35.8781 32.2422 34.647 33.2619 33.4805 34.4284C32.4525 35.4564 31.5363 36.55 30.6973 37.6686L30.6797 37.6921C30.077 38.5459 29.9386 39.7074 30.5195 40.6931V40.694L32.624 44.4948V44.4958C32.7394 44.7124 32.7394 44.9726 32.624 45.1892L32.6142 45.2077L32.6055 45.2263C32.1569 46.1578 31.7337 47.1075 31.3779 48.1013C31.2739 48.3785 31.0881 48.5466 30.8642 48.6188L26.5576 49.8405L26.5508 49.8425L26.543 49.8444C25.5356 50.1467 24.6826 51.01 24.5146 52.114H24.5137C24.0552 55.0761 24.0565 58.1015 24.4424 61.0485L24.4443 61.0602C24.604 62.1769 25.4041 63.0678 26.4863 63.3776V63.3786L30.6416 64.57C30.8913 64.6456 31.0766 64.833 31.1504 65.0837L31.1553 65.1003L31.1611 65.1179C31.5067 66.1546 31.8945 67.183 32.3945 68.1872H32.3955C32.5071 68.4263 32.5007 68.7041 32.3877 68.9216L30.2158 72.7927L30.2139 72.7966C29.6892 73.7409 29.74 74.9036 30.373 75.8005L30.3799 75.8093C31.2981 77.0807 32.3548 78.3135 33.4805 79.4392C34.4743 80.4329 35.5655 81.347 36.6406 82.1794L36.6455 82.1823C37.5526 82.8759 38.7325 82.9252 39.6797 82.3991L39.6816 82.3981L43.4629 80.2858L43.4766 80.278L43.4892 80.2702C43.6483 80.175 43.9163 80.1589 44.1728 80.2956L44.1846 80.3015C44.966 80.7056 45.7614 81.0459 46.5478 81.3513L47.331 81.6462C47.6272 81.7593 47.8043 81.9525 47.8721 82.1755V82.1765L49.0986 86.4333L49.1016 86.444C49.4043 87.4531 50.2694 88.3083 51.376 88.4743L51.3808 88.4753C54.3025 88.8977 57.2902 88.8966 60.2041 88.5104L60.2148 88.5095C61.3315 88.3496 62.2236 87.549 62.5332 86.4665L63.7226 82.3181C63.7997 82.0567 63.9968 81.8673 64.2197 81.7976L64.2285 81.7956C65.3429 81.4361 66.4092 80.972 67.4443 80.489L67.456 80.4841L67.4687 80.4772C67.7393 80.3423 68.0079 80.3543 68.2148 80.4626L72.0517 82.6022L72.0537 82.6032C72.9979 83.1275 74.16 83.0768 75.0566 82.444L75.0723 82.4323C76.2682 81.5529 77.4318 80.5669 78.5254 79.4733C79.6206 78.3781 80.5363 77.2853 81.4082 76.1345L81.4277 76.1071C82.021 75.2664 82.103 74.1919 81.6787 73.2829L81.5879 73.1032L81.5849 73.0983L79.4482 69.3005C79.3389 69.0931 79.3261 68.8241 79.4619 68.5524L79.4678 68.5397C79.9599 67.5202 80.3803 66.5035 80.7637 65.4587C80.8774 65.1558 81.0745 64.9758 81.3017 64.9089L81.3008 64.9079L85.5146 63.7204L85.5224 63.7175L85.5303 63.7155C86.5489 63.4098 87.3992 62.5365 87.5615 61.4001L87.7246 60.2595H87.6689C87.9226 57.8629 87.9003 55.4488 87.6016 53.0554L87.5273 52.5007C87.3776 51.4534 86.6644 50.6039 85.6836 50.2468L85.4844 50.1813H85.4805L81.2793 48.9948C81.0183 48.9117 80.8447 48.729 80.7822 48.529L80.7783 48.5153L80.7734 48.5017L80.5019 47.7438C80.2244 46.9995 79.9126 46.2621 79.5391 45.5378C79.4305 45.3005 79.43 45.0068 79.5361 44.7683L81.6553 40.9343C82.1797 39.99 82.1291 38.8271 81.4961 37.9304L81.4902 37.9226L81.4853 37.9147L81.1494 37.4675C80.3557 36.4279 79.4774 35.4146 78.4912 34.4284C77.3617 33.2989 76.2661 32.3805 75.0723 31.5026L75.0566 31.4909L74.8857 31.3796C74.0736 30.8893 73.0809 30.844 72.2324 31.2399L72.0537 31.3317L72.0517 31.3327L68.2148 33.4714C67.999 33.5846 67.7406 33.5841 67.5254 33.4694L67.5146 33.4636L67.5029 33.4577L66.7988 33.1218C66.0928 32.8004 65.3722 32.5154 64.6396 32.2536C64.3992 32.1614 64.2411 32.0082 64.1582 31.821L64.1269 31.737L62.9082 27.4694L62.9043 27.4567L62.8408 27.2692C62.5155 26.4053 61.7753 25.6844 60.8349 25.4655L60.6299 25.4265L60.6211 25.4255L60.0625 25.3513ZM51.9141 27.404C54.6982 26.9783 57.5258 27.0085 60.333 27.404V27.405C60.5568 27.4387 60.8099 27.6228 60.9404 27.905L60.9883 28.0319L62.2109 32.3102L62.2139 32.322L62.2178 32.3337C62.4874 33.1965 63.1356 33.8259 63.9453 34.1296L63.9531 34.1325L63.9599 34.1354C64.6555 34.3838 65.3251 34.6482 65.9707 34.9421L66.6084 35.2458C67.4086 35.6627 68.3639 35.6592 69.1611 35.2341L69.1689 35.2302L69.1767 35.2253L73.0254 33.0798L73.0244 33.0788C73.3035 32.9242 73.6366 32.9411 73.8965 33.1208C75.0151 33.9438 76.0297 34.795 77.0771 35.8425C78.1248 36.8901 79.0423 37.9701 79.8623 39.0837L79.9238 39.1852C80.0305 39.3935 80.0428 39.6353 79.958 39.8552L79.9072 39.9626L79.9062 39.9645L77.7607 43.8474L77.7441 43.8776L77.7295 43.9089C77.3662 44.6877 77.3661 45.6105 77.7295 46.3893L77.7383 46.4079L77.748 46.4265C78.0825 47.0714 78.3666 47.7412 78.6279 48.4421L78.8828 49.153C79.1665 50.0271 79.8699 50.6505 80.6875 50.906L80.7012 50.9099L80.7139 50.9138L84.9375 52.1061C85.2826 52.2061 85.5031 52.471 85.5478 52.7829L85.6172 53.3024C85.9415 55.9002 85.9184 58.5237 85.5478 61.1179L85.5176 61.3239C85.4342 61.5016 85.2808 61.6598 85.0801 61.7526L84.956 61.7995L80.748 62.987L80.7373 62.9899C79.8651 63.2465 79.2649 63.8835 78.9502 64.6101L78.8916 64.7565L78.8887 64.7634C78.525 65.7551 78.1306 66.7085 77.6728 67.6579C77.2645 68.4748 77.2515 69.4309 77.6855 70.2448L77.6904 70.2546L77.6963 70.2643L79.8389 74.0729V74.0739C79.9946 74.3542 79.9774 74.6884 79.7959 74.9489C78.9706 76.0367 78.1201 77.0494 77.1113 78.0583C76.0963 79.0733 75.0129 79.9915 73.8965 80.8132C73.6363 80.9933 73.3038 81.0103 73.0244 80.8552H73.0254L69.1767 78.7097L69.1689 78.7058L69.1611 78.7009L69.0068 78.6247C68.2364 78.2737 67.3589 78.306 66.5986 78.6774L65.8467 79.0202C65.2244 79.297 64.6086 79.5501 63.9883 79.7663L63.6152 79.8913C62.8065 80.1469 62.1535 80.7743 61.8584 81.5876L61.8047 81.7536L61.8027 81.7595L60.6103 85.9147V85.9157C60.5236 86.2194 60.3087 86.4274 60.0469 86.5046L59.9316 86.529C57.1964 86.8906 54.3984 86.8897 51.6709 86.4958H51.6719C51.4481 86.462 51.1959 86.278 51.0654 85.9958L51.0176 85.8698L49.7939 81.6227L49.793 81.6169L49.7363 81.446C49.4507 80.6659 48.851 80.1234 48.1728 79.8298L48.0264 79.7712L48.0195 79.7683L47.2705 79.486C46.5279 79.1976 45.8033 78.887 45.1035 78.5251H45.1025C44.3469 78.1267 43.3399 78.0426 42.4873 78.5397L38.709 80.6501L38.6025 80.7009C38.3531 80.7975 38.0838 80.762 37.8652 80.5974C36.8288 79.795 35.8079 78.9385 34.8945 78.0251C33.8416 76.9722 32.856 75.8216 32.0039 74.6423C31.8235 74.3831 31.8069 74.0514 31.9599 73.7722L34.1396 69.8893L34.1455 69.8796L34.1504 69.8698C34.5786 69.0666 34.572 68.1215 34.208 67.3415L34.2021 67.3298L34.1963 67.3171L34.0322 66.9792C33.7659 66.4127 33.5317 65.8283 33.3135 65.2224L33.0586 64.4851C32.8023 63.6529 32.1794 63.0001 31.3672 62.7048L31.2002 62.6501L31.1933 62.6481L27.0381 61.4558H27.0371C26.6916 61.357 26.4711 61.093 26.4248 60.7819C26.0623 58.0093 26.0635 55.178 26.4902 52.4206L26.4912 52.4157C26.5297 52.16 26.765 51.8664 27.1182 51.7604L27.1172 51.7595L31.4287 50.5388L31.4541 50.531C32.3168 50.2612 32.9474 49.613 33.251 48.8034L33.2529 48.7966L33.2558 48.7888C33.5801 47.8811 33.9726 46.9961 34.4072 46.0935L34.4062 46.0925C34.816 45.2951 34.8113 44.347 34.3887 43.5544L34.3808 43.5407L32.2695 39.7253L32.248 39.6882L32.2012 39.5974C32.1103 39.3794 32.1323 39.108 32.3076 38.8542C33.1001 37.7987 33.9517 36.7853 34.8945 35.8425C35.971 34.766 37.1197 33.8126 38.3144 32.9157C38.5741 32.737 38.906 32.7205 39.1846 32.8747V32.8757L43.1016 35.0554V35.0544C43.8913 35.5012 44.8453 35.4791 45.6113 35.1218L45.623 35.1169C46.5062 34.6917 47.3866 34.3331 48.2637 34.0407L48.2627 34.0388C49.142 33.7572 49.7698 33.0527 50.0264 32.2321L50.0303 32.2194L50.0332 32.2067L51.2256 28.0192C51.3249 27.6721 51.5912 27.4507 51.9043 27.4059L51.9141 27.404ZM56.0185 42.1735C47.8672 42.1739 41.259 48.7819 41.2588 56.9333C41.2589 65.0848 47.8671 71.6937 56.0185 71.694C64.1703 71.694 70.7791 65.085 70.7793 56.9333C70.7791 48.7817 64.1702 42.1735 56.0185 42.1735ZM56.0185 44.1735C63.0657 44.1735 68.7791 49.8862 68.7793 56.9333C68.7791 63.9804 63.0657 69.694 56.0185 69.694C48.9717 69.6937 43.2589 63.9802 43.2588 56.9333C43.259 49.8864 48.9717 44.1739 56.0185 44.1735Z" fill="#121212"/>
<path fill-rule="evenodd" clip-rule="evenodd" d="M56.0192 42.2965C47.935 42.2965 41.3814 48.8503 41.3812 56.9345C41.3813 65.0187 47.9349 71.5725 56.0192 71.5725C64.1032 71.5722 70.6571 65.0186 70.6572 56.9345C70.657 48.8505 64.1032 42.2967 56.0192 42.2965ZM56.0192 44.0519C63.1337 44.0521 68.9016 49.8199 68.9018 56.9345C68.9017 64.0491 63.1338 69.8168 56.0192 69.8171C48.9044 69.8171 43.1367 64.0492 43.1366 56.9345C43.1367 49.8198 48.9045 44.0519 56.0192 44.0519Z" fill="#121212"/>
<path fill-rule="evenodd" clip-rule="evenodd" d="M60.0468 25.4737C57.2582 25.126 54.4323 25.1206 51.6299 25.5491C50.6324 25.6948 49.8231 26.3758 49.4819 27.3131L49.4193 27.5042L48.2305 31.681C48.1361 31.9746 47.9263 32.1798 47.6854 32.2553L47.6699 32.2604C46.7166 32.5782 45.7655 32.9658 44.8174 33.4218C44.5688 33.5378 44.3008 33.5371 44.1034 33.4587L44.0237 33.421L44.0143 33.4158L40.0981 31.2361L40.0972 31.2353L39.9258 31.1479C39.0558 30.7416 38.0277 30.8202 37.2233 31.3879L37.2027 31.4033C35.9543 32.3396 34.728 33.3543 33.5668 34.5155C32.5437 35.5386 31.6313 36.6282 30.7949 37.7434L30.7794 37.764C30.2006 38.5842 30.071 39.6952 30.6269 40.6354L32.7345 44.4453C32.866 44.6966 32.8653 44.997 32.732 45.2476L32.7234 45.2639L32.7157 45.2801C32.2678 46.2103 31.8465 47.1566 31.4926 48.1455C31.3762 48.4558 31.1627 48.6536 30.8994 48.7378L26.5907 49.9592L26.5847 49.9618L26.5787 49.9635C25.611 50.2538 24.7944 51.082 24.6347 52.1346C24.1782 55.0842 24.179 58.0977 24.5636 61.0341L24.5653 61.0435C24.7179 62.1117 25.4831 62.966 26.5212 63.2626L30.6697 64.4515C30.9623 64.5376 31.1819 64.758 31.268 65.0506L31.2723 65.0652L31.2774 65.0797C31.6224 66.1148 32.0083 67.1389 32.5057 68.1371C32.6327 68.4094 32.6278 68.7282 32.4954 68.9814L30.3226 72.8539L30.3209 72.8573C29.8187 73.7611 29.8678 74.8732 30.4734 75.7312L30.4786 75.7389C31.3928 77.0048 32.4455 78.2322 33.5668 79.3534C34.5555 80.3421 35.6425 81.2521 36.715 82.0825L36.7193 82.0868C37.5864 82.7498 38.7143 82.7969 39.6207 82.2934L39.6224 82.2925L43.4032 80.1806L43.4143 80.1737L43.4263 80.1669C43.6283 80.0458 43.9427 80.0351 44.2303 80.1883L44.2406 80.1934C45.2738 80.7279 46.333 81.1506 47.3665 81.5297C47.6576 81.6389 47.857 81.8237 47.9554 82.0491L47.9914 82.1485L49.2162 86.4007L49.2188 86.4102C49.5094 87.379 50.3389 88.1958 51.3933 88.3541L51.3984 88.355C54.3085 88.7757 57.2849 88.7758 60.1882 88.391L60.1968 88.3893C61.2645 88.2366 62.1182 87.4718 62.4151 86.4342L63.6056 82.2848C63.694 81.9845 63.9209 81.7642 64.1833 81.6823L64.191 81.6797C65.2982 81.3225 66.3589 80.8626 67.3924 80.3803L67.4027 80.3751L67.4138 80.37C67.7181 80.218 68.0286 80.228 68.2727 80.3563L72.1117 82.4965L72.1126 82.4974C73.0164 82.9995 74.1286 82.9504 74.9865 82.3448L74.9934 82.3405L75.0002 82.3354C76.1916 81.4594 77.35 80.4767 78.439 79.3877C79.5294 78.2972 80.441 77.2088 81.3104 76.0612L81.3198 76.0501L81.3284 76.0372C81.8957 75.233 81.9744 74.2053 81.5684 73.3356L81.4801 73.1641L81.4784 73.1599L79.3399 69.3594C79.2108 69.115 79.2002 68.8038 79.3527 68.4988L79.3578 68.4877C79.8481 67.472 80.2664 66.4586 80.6487 65.4166L80.6495 65.4174C80.7744 65.0848 80.9972 64.873 81.2675 64.7935L81.2667 64.7926L85.4812 63.6038L85.488 63.6021L85.4949 63.5995C86.4722 63.3061 87.2855 62.4695 87.4405 61.3847L87.5837 60.3827H87.5323C87.8002 57.951 87.7832 55.5006 87.48 53.0714L87.4063 52.5194C87.2631 51.5182 86.5813 50.705 85.6414 50.3629L85.4503 50.3003L85.4477 50.2995L81.2461 49.1141C80.9487 49.0207 80.7409 48.8093 80.665 48.5664L80.6615 48.5544L80.3873 47.7881C80.1109 47.0468 79.8008 46.3139 79.4298 45.5947C79.304 45.3235 79.3028 44.989 79.4256 44.7162L81.5487 40.8762C82.0506 39.9725 82.0016 38.8602 81.3961 38.0023L81.3858 37.9886L81.0524 37.5429C80.2618 36.5073 79.387 35.4978 78.4047 34.5155C77.2801 33.3908 76.1897 32.4768 75.0002 31.6021L74.9934 31.597L74.9865 31.5927L74.8228 31.4856C74.0458 31.0164 73.0961 30.9736 72.284 31.3527L72.1126 31.4401L72.1117 31.441L68.2727 33.5804C68.0208 33.713 67.7192 33.7127 67.4678 33.5787L67.4584 33.5735L67.4472 33.5684L67.0992 33.3978C66.2855 33.0099 65.4505 32.6756 64.5982 32.371C64.328 32.2681 64.1442 32.0914 64.047 31.8721L64.0102 31.7753L62.7905 27.5042L62.787 27.4931L62.7262 27.3131C62.4139 26.4839 61.7038 25.7948 60.8071 25.586L60.6117 25.5491L60.604 25.5483L60.0468 25.4737ZM51.8947 27.2848C54.6946 26.8566 57.537 26.8877 60.3571 27.2857C60.6245 27.3283 60.9063 27.5418 61.0514 27.8556L61.1054 27.9979L62.3285 32.2784L62.3311 32.2887L62.3345 32.299C62.592 33.1228 63.2107 33.7251 63.9879 34.0167L63.9947 34.0192L64.0007 34.0218C64.6986 34.271 65.3716 34.5362 66.021 34.8318L66.663 35.1378C67.4278 35.537 68.341 35.534 69.1032 35.1275L69.1101 35.1241L69.1178 35.1198L72.9646 32.9735L72.9654 32.9744C73.2473 32.8181 73.5785 32.8134 73.8577 32.9564L73.9742 33.0267C75.0953 33.8518 76.1129 34.7067 77.1636 35.7575C78.2179 36.8118 79.1408 37.8989 79.9656 39.0197C80.1477 39.2813 80.1843 39.6079 80.0718 39.9L80.0144 40.0234L80.0127 40.0251L77.8673 43.9079L77.8527 43.9345L77.8399 43.961C77.4917 44.7071 77.4917 45.5926 77.8399 46.3387L77.8476 46.355L77.8562 46.3713C78.3058 47.2384 78.6647 48.1487 78.9979 49.1149C79.2676 49.949 79.9398 50.5455 80.7241 50.7906L80.7353 50.794L80.7472 50.7975L84.9677 51.988C85.3598 52.1001 85.617 52.405 85.6689 52.7671L85.7383 53.2891C86.0638 55.8975 86.0409 58.5314 85.6689 61.1361L85.6371 61.3547C85.5259 61.6092 85.2938 61.8258 84.9943 61.9169L80.7815 63.1066L80.7721 63.1092C79.9403 63.3539 79.3656 63.9612 79.063 64.6597L79.0056 64.8012L79.0039 64.8072C78.6389 65.8025 78.2425 66.7597 77.7825 67.7137C77.3907 68.4972 77.3785 69.4113 77.7927 70.1882L77.7979 70.1968L77.8022 70.2053L79.9458 74.0153C80.1248 74.3374 80.1051 74.725 79.8936 75.025C79.0657 76.1161 78.2107 77.1329 77.197 78.1466C76.1788 79.1648 75.0937 80.0867 73.9742 80.9108C73.6743 81.1225 73.2876 81.1419 72.9654 80.9631L69.1178 78.8177L69.1101 78.8143L69.1032 78.81L68.9558 78.7372C68.2197 78.4019 67.3797 78.4322 66.6501 78.7895L65.8967 79.1332C65.1471 79.4667 64.405 79.7662 63.6519 80.0091C62.88 80.2532 62.2559 80.8529 61.9736 81.6308L61.9214 81.7894L61.9196 81.7945L60.7282 85.9499L60.7274 85.9507C60.616 86.3406 60.3144 86.5962 59.9551 86.6502C57.2058 87.0143 54.393 87.014 51.6504 86.6176C51.3455 86.5701 51.0215 86.3011 50.9022 85.913L49.6765 81.6574L49.6747 81.6531L49.6216 81.4903C49.3492 80.7457 48.7763 80.2264 48.1242 79.944L47.9836 79.8866L47.9776 79.8849L47.2259 79.602C46.4805 79.3125 45.752 78.9989 45.0471 78.6343C44.3215 78.2515 43.3578 78.1742 42.5469 78.648L38.7678 80.7591C38.4883 80.9143 38.1689 80.9173 37.8987 80.7668L37.7856 80.6923C36.7482 79.889 35.725 79.0294 34.8079 78.1123C33.7518 77.0562 32.7629 75.9025 31.9074 74.719C31.6964 74.4201 31.6765 74.0351 31.8534 73.7136L34.0331 69.8299L34.0374 69.8222L34.0425 69.8136C34.4516 69.0462 34.4459 68.1418 34.0974 67.3948L34.0922 67.3837L34.0871 67.3734L33.9216 67.0331C33.6533 66.4624 33.4174 65.8743 33.1982 65.2657L32.9419 64.5252C32.6975 63.7285 32.1025 63.1039 31.3254 62.8212L31.1651 62.7681L31.16 62.7672L27.0046 61.575L27.0038 61.5741L26.8632 61.5235C26.5519 61.3859 26.3501 61.1153 26.3035 60.8001C25.9395 58.0165 25.9408 55.1731 26.3695 52.4029L26.3704 52.3986C26.4165 52.0926 26.6861 51.7657 27.0758 51.646L31.3957 50.422L31.4068 50.4195L31.418 50.4152C32.2417 50.1576 32.8442 49.5389 33.1357 48.7618L33.1382 48.7558L33.1408 48.7489C33.467 47.8356 33.8615 46.946 34.2971 46.0413L34.2962 46.0404C34.6889 45.2781 34.685 44.3711 34.2808 43.613L34.2739 43.601L32.162 39.786L32.1534 39.7697L32.1431 39.7534L32.0883 39.6454C31.9797 39.3853 32.01 39.0685 32.2082 38.7831C33.0037 37.7236 33.8598 36.7056 34.8079 35.7575C35.89 34.6754 37.0432 33.717 38.2416 32.8175C38.5406 32.61 38.9244 32.5927 39.2444 32.7704L43.152 34.9441C43.9052 35.3744 44.8222 35.356 45.5597 35.0118L45.5691 35.0075C46.4569 34.5801 47.3429 34.22 48.2253 33.9258L48.2245 33.9249C49.0628 33.657 49.6636 32.9838 49.9096 32.197L49.913 32.1858L49.9156 32.1747L51.1079 27.9868C51.22 27.5947 51.524 27.3375 51.8861 27.2857L51.8947 27.2848Z" fill="#121212"/>
</svg>
