<svg width="112" height="112" viewBox="0 0 112 112" fill="none" xmlns="http://www.w3.org/2000/svg">
<path d="M27.4375 27.4159C35.251 19.6412 47.8014 19.6021 55.6162 27.4169L58.9473 30.748L60.877 28.7831L60.8789 28.7812L61.1875 28.4784C67.7358 22.2195 78.1249 22.3591 84.584 28.7802C91.1471 35.3052 91.1456 45.9207 84.585 52.4833L84.586 52.4843L78.4873 58.6572L82.2744 62.5683H82.2735C84.018 64.3161 84.017 67.1576 82.2705 68.9042C80.903 70.2715 78.8644 70.5685 77.2051 69.7958C77.9334 71.441 77.6257 73.4376 76.2793 74.7841C74.9206 76.1426 72.8996 76.4444 71.2461 75.6904C71.9831 77.3384 71.6777 79.3427 70.3272 80.6933C68.9599 82.0606 66.922 82.358 65.2627 81.5859C65.9907 83.2309 65.6821 85.2269 64.336 86.5732C62.5884 88.3207 59.7447 88.3207 57.9971 86.5732L57.9932 86.5702L54.4541 82.915L54.0225 83.3476L53.7315 83.6757L53.7188 83.6884L51.2549 86.1532L51.252 86.1562L51.251 86.1552C49.5054 87.8599 46.7022 87.8641 44.9912 86.1532L44.9883 86.1503C43.7017 84.8326 43.3844 82.9118 44.042 81.3134C42.4007 82.0526 40.4077 81.7601 39.0762 80.4286L39.0733 80.4257C37.7819 79.1031 37.4674 77.1732 38.1348 75.5712C36.486 76.3444 34.4674 76.0795 33.1211 74.7011C31.8344 73.3833 31.517 71.4626 32.1748 69.8642C30.5334 70.6031 28.5405 70.3106 27.209 68.9794L27.2061 68.9765C25.5013 67.2309 25.4981 64.4267 27.209 62.7157L29.5215 60.4023L30.3184 59.6064L30.9854 58.9325C30.8857 58.9586 30.7754 58.9342 30.6973 58.8564L27.4365 55.5956C19.6227 47.7817 19.6224 35.1926 27.4375 27.4159ZM58.1826 74.7392C56.669 73.2303 54.2071 73.2313 52.6953 74.7431C51.2294 76.209 51.1844 78.568 52.5586 80.0898L52.6953 80.2343L52.6992 80.2372L58.4248 86.1523H58.4238C59.9373 87.6626 62.3998 87.6616 63.9121 86.1493C65.4253 84.6361 65.4253 82.1713 63.9121 80.6581L63.9082 80.6552L58.1826 74.7402V74.7392ZM84.1602 29.206C77.8308 22.9139 67.5943 22.8771 61.3047 29.2021L61.3057 29.2031L59.3711 31.1718L59.416 31.2167L62.2598 34.288L67.4834 39.5116L67.6631 39.7011C69.4564 41.6899 69.3966 44.8104 67.4834 46.7236C65.57 48.6365 62.4496 48.6959 60.461 46.9023L60.2725 46.7236L55.044 41.495L52.0108 38.5751L52.0098 38.5741L30.7432 60.0292L30.7422 60.0302L29.9463 60.8271L27.6328 63.1396C26.1598 64.6127 26.1556 67.0392 27.6328 68.5546L27.7744 68.6884C29.2019 69.9762 31.4056 69.9861 32.8779 68.7089C32.9557 68.617 33.0375 68.5269 33.124 68.4404L35.4365 66.1279L35.4834 66.0888C35.5054 66.0743 35.5293 66.0637 35.5537 66.0556C35.6705 65.9747 35.8324 65.986 35.9365 66.0898C36.0536 66.2068 36.0534 66.3974 35.9365 66.5146L33.4727 68.9794L33.4697 68.9814C33.4152 69.0347 33.3593 69.0867 33.3027 69.1366C32.0795 70.6234 32.1585 72.8564 33.5508 74.2822C35.0212 75.7875 37.4473 75.7605 38.9658 74.2773L39.041 74.2011C39.0527 74.1891 39.0643 74.1768 39.0762 74.165L41.3887 71.8525L41.4004 71.8427L41.4277 71.8154C41.5448 71.6985 41.7345 71.6986 41.8516 71.8154C41.9687 71.9324 41.9685 72.122 41.8516 72.2392L39.4746 74.6171C38.0271 76.0935 38.0321 78.5006 39.5029 80.0068H39.502C40.92 81.4226 43.2191 81.4783 44.7402 80.164C44.8195 80.07 44.9028 79.978 44.9912 79.8896L47.3037 77.5771L47.3506 77.538C47.3731 77.5231 47.3979 77.5129 47.4229 77.5048C47.5395 77.4249 47.7 77.4365 47.8037 77.54C47.9208 77.6571 47.9208 77.8466 47.8037 77.9638L45.3399 80.4286L45.3369 80.4316L45.336 80.4306C45.2825 80.4828 45.2273 80.5329 45.1719 80.582C43.9461 82.0687 44.0248 84.3047 45.418 85.7314H45.417C46.8912 87.2033 49.3185 87.2058 50.833 85.7265L53.2822 83.2773L53.586 82.9355L53.5977 82.9228L54.0371 82.4833L52.2676 80.6552V80.6542C50.5244 78.9063 50.5254 76.0654 52.2715 74.3193C53.6388 72.952 55.6775 72.6554 57.3369 73.4277C56.6087 71.7825 56.9163 69.7857 58.2627 68.4394C59.6209 67.0811 61.6416 66.7791 63.2949 67.5322C62.5588 65.8845 62.8649 63.8804 64.2149 62.5302C65.5819 61.1631 67.62 60.8659 69.2793 61.6376C68.5515 59.9927 68.8602 57.9965 70.2061 56.6503C71.8989 54.9575 74.6207 54.9043 76.3779 56.4911L76.5449 56.6503L76.5488 56.6532L76.333 56.8622L76.5488 56.6542L78.0703 58.2255L84.1582 52.0634L84.1602 52.0614L84.4522 51.7626C90.4875 45.4142 90.3886 35.398 84.1602 29.206ZM64.1738 68.8593C62.6602 67.3503 60.1984 67.3514 58.6865 68.8632C57.2206 70.3292 57.1754 72.6881 58.5498 74.2099L58.6865 74.3544L58.6904 74.3573L64.416 80.2724H64.4151C65.9286 81.7828 68.391 81.7817 69.9033 80.2695C71.4165 78.7562 71.4166 76.2915 69.9033 74.7782L69.8994 74.7753L64.1738 68.8603V68.8593ZM70.126 62.9501C68.6124 61.4409 66.1506 61.4421 64.6387 62.954C63.1729 64.4201 63.1275 66.7791 64.502 68.3007L64.6387 68.4452L64.6426 68.4482L70.3682 74.3632H70.3672C71.8806 75.8735 74.3432 75.8723 75.8555 74.3603C77.3687 72.847 77.3687 70.3823 75.8555 68.8691L75.8516 68.8661L70.126 62.9511V62.9501ZM76.1172 57.0702C74.6036 55.561 72.1418 55.5622 70.6299 57.0741C69.1642 58.5402 69.1187 60.8992 70.4932 62.4208L70.6299 62.5654L70.6338 62.5683L76.3594 68.4833H76.3584C77.8718 69.9935 80.3344 69.9923 81.8467 68.4804C83.3599 66.9672 83.3598 64.5024 81.8467 62.9892L81.8428 62.9863L76.1172 57.0712V57.0702ZM55.1914 27.8407C47.6122 20.2616 35.441 20.2984 27.8604 27.8417C20.2817 35.3833 20.2812 47.5917 27.8613 55.1718L31.1221 58.4325C31.1992 58.5101 31.2234 58.6188 31.1983 58.7177L51.7402 37.995L51.7871 37.956C51.9031 37.879 52.0613 37.8913 52.1641 37.9931C52.184 38.0128 52.1997 38.0353 52.2129 38.0585C52.2895 38.0569 52.3671 38.0852 52.4268 38.1425L55.46 41.0624L60.6963 46.2988L60.8633 46.457C62.6166 48.0376 65.3733 47.985 67.0596 46.2988C68.7457 44.6125 68.7984 41.8557 67.2178 40.1025L67.0596 39.9364L61.8272 34.704L61.8194 34.6952L58.9834 31.6327L55.1914 27.8407Z" fill="url(#paint0_linear_577_14915)"/>
<path fill-rule="evenodd" clip-rule="evenodd" d="M26.8427 26.8225C34.9806 18.725 48.0621 18.6837 56.2059 26.8262L58.9385 29.5589L60.279 28.1999L60.2827 28.1925L60.9381 27.5668C67.8323 21.3059 78.5031 21.5587 85.1729 28.1888C92.0655 35.0409 92.0595 46.1824 85.1766 53.0716L85.1803 53.0753L79.6557 58.6629L82.8623 61.9732L83.2289 62.3768C84.9306 64.464 84.806 67.5521 82.8623 69.4973C81.6432 70.7164 79.9751 71.2143 78.3857 71.0006C78.5655 72.5599 78.0644 74.1832 76.8712 75.3773C75.6615 76.587 74.0099 77.0854 72.4315 76.8843C72.6201 78.4519 72.1175 80.0862 70.9171 81.287C69.6984 82.5057 68.033 83.0034 66.4441 82.7903C66.624 84.3499 66.1198 85.9729 64.926 87.167C62.8513 89.2417 59.4765 89.2417 57.4019 87.167L57.3908 87.1559L54.4545 84.1233L54.3582 84.2344L51.8477 86.7486L51.8366 86.756C49.7695 88.775 46.4395 88.7905 44.3977 86.7486L44.3902 86.7375C43.2528 85.5727 42.75 84.008 42.8943 82.4978C41.3233 82.7069 39.6798 82.2233 38.4806 81.0241L38.4732 81.013C37.3373 79.8492 36.8342 78.2856 36.9772 76.777C35.397 77.0055 33.7374 76.532 32.5228 75.2884C31.3853 74.1236 30.8825 72.559 31.0268 71.0487C29.4558 71.2579 27.8123 70.7742 26.6131 69.575L26.6057 69.5639C24.5879 67.4968 24.5718 64.1665 26.6131 62.125L28.9274 59.8144L29.6938 59.0443L26.8427 56.1894C18.7037 48.0491 18.698 34.927 26.8427 26.8225ZM57.3612 75.1292C56.167 74.1578 54.3959 74.2253 53.2844 75.3366C52.1729 76.448 52.1056 78.2192 53.077 79.4134L53.2844 79.6429L53.2992 79.6577L59.0126 85.56L59.2422 85.7674C60.4364 86.7408 62.2068 86.6722 63.319 85.56C64.5043 84.374 64.5042 82.4397 63.319 81.2537L63.3041 81.2388L57.5907 75.3366L57.3612 75.1292ZM83.5696 29.8033C77.5636 23.8329 67.856 23.8035 61.8971 29.7958L60.5271 31.1881L62.8413 33.6875L68.0734 38.9232L68.477 39.3713C70.3652 41.6931 70.2314 45.1593 68.0734 47.3175C65.9151 49.4755 62.4489 49.6094 60.1271 47.7211L59.6791 47.3175L54.4619 42.1002L52.0217 39.749L31.3342 60.6217L28.2238 63.7357C27.0849 64.8748 27.0667 66.7699 28.2201 67.9643C29.3221 69.0663 31.1285 69.1139 32.3265 68.0717C32.3927 67.9975 32.459 67.9207 32.5302 67.8495L34.8444 65.539L35.0222 65.3909C35.0905 65.3459 35.1624 65.3084 35.2369 65.2798C35.6582 65.0801 36.1763 65.1538 36.5255 65.5019C36.9696 65.9461 36.9695 66.6647 36.5255 67.109L34.0631 69.575L34.052 69.5824C34.0182 69.6155 33.9791 69.643 33.9446 69.675C32.9984 70.83 33.0533 72.578 34.1483 73.6999C35.2747 74.8532 37.1629 74.8577 38.3695 73.6888L38.4435 73.6111C38.4557 73.5987 38.4683 73.5863 38.4806 73.574L40.7948 71.2635C40.801 71.2573 40.8071 71.251 40.8133 71.245L40.8356 71.2265C41.2797 70.7835 41.9987 70.7832 42.4426 71.2265C42.8864 71.6703 42.8857 72.3892 42.4426 72.8335L40.058 75.2181C38.9516 76.3604 38.9456 78.2304 40.0876 79.4134C41.1897 80.5154 42.996 80.5632 44.194 79.5207C44.2601 79.4466 44.3265 79.3697 44.3977 79.2986L46.7119 76.988C46.8265 76.8737 46.9591 76.7878 47.1007 76.7325C47.5227 76.5303 48.0425 76.6018 48.393 76.951C48.8371 77.3952 48.837 78.1138 48.393 78.558L45.9306 81.0241L45.9195 81.0315C45.8857 81.0645 45.8466 81.0921 45.8121 81.1241C44.869 82.2752 44.9203 84.0156 46.0047 85.1379C47.1448 86.278 49.0427 86.2946 50.237 85.1379L52.6845 82.6903L52.8697 82.4793L51.6774 81.2499C49.604 79.1752 49.6031 75.8038 51.6774 73.7296C52.8954 72.5116 54.5625 72.01 56.1503 72.2225C55.9721 70.6649 56.4761 69.0419 57.6685 67.8495C58.8781 66.6401 60.5304 66.1376 62.1081 66.3388C61.9212 64.7731 62.4235 63.1389 63.6226 61.9398C64.841 60.7221 66.5076 60.2197 68.0956 60.4328C67.9173 58.8751 68.4213 57.2522 69.6137 56.0598C71.559 54.1156 74.6468 53.9947 76.7342 55.6969L77.1378 56.0598L77.1489 56.0746L78.0746 57.0299L83.5622 51.4757L83.5659 51.472L84.1139 50.8981C89.5634 44.8659 89.3779 35.5782 83.5696 29.8033ZM63.3523 69.2492C62.1582 68.2778 60.387 68.3452 59.2755 69.4565C58.164 70.568 58.0967 72.3391 59.0681 73.5333L59.2755 73.7629L59.2903 73.7777L65.0037 79.68L65.2333 79.8873C66.4275 80.8608 68.1979 80.7922 69.3101 79.68C70.4955 78.494 70.4954 76.5597 69.3101 75.3736L69.2953 75.3588L63.5819 69.4565L63.3523 69.2492ZM69.3064 63.3395C68.1126 62.3674 66.3415 62.4361 65.2296 63.5469C64.1179 64.6586 64.0501 66.4295 65.0222 67.6236L65.2296 67.8532L65.2444 67.868L70.9578 73.7703L71.1874 73.9776C72.3816 74.9511 74.152 74.8825 75.2642 73.7703C76.4487 72.5842 76.4492 70.6497 75.2642 69.4639L75.2494 69.4491L69.536 63.5469L69.3064 63.3395ZM75.2975 57.4595C74.1037 56.4874 72.3326 56.5561 71.2207 57.6668C70.109 58.7786 70.0412 60.5494 71.0134 61.7436L71.2207 61.9732L71.2355 61.988L76.949 67.8902L77.1785 68.0976C78.3728 69.071 80.1431 69.0024 81.2553 67.8902C82.4398 66.7042 82.4403 64.7697 81.2553 63.5839L81.2405 63.5691L75.5271 57.6668L75.2975 57.4595ZM54.5952 28.4332C47.3448 21.1861 35.7046 21.2184 28.4497 28.4369C21.201 35.6499 21.197 47.3283 28.4497 54.5824L31.2971 57.4261L51.1442 37.4088L51.3219 37.2607C51.7172 36.9978 52.2401 37.0126 52.6253 37.2977C52.6943 37.324 52.7614 37.3574 52.8252 37.3977L53.0067 37.5421L56.0393 40.4599L61.2861 45.7068L61.5638 45.9586C62.9922 47.1167 65.1415 47.0316 66.4663 45.7068C67.7901 44.3812 67.8739 42.2319 66.7144 40.8043L66.4663 40.5303L61.201 35.2686L58.3572 32.1953L54.5952 28.4332Z" fill="url(#paint1_linear_577_14915)"/>
<defs>
<linearGradient id="paint0_linear_577_14915" x1="55.541" y1="21.5703" x2="55.541" y2="87.8839" gradientUnits="userSpaceOnUse">
<stop stop-color="#505BFD"/>
<stop offset="1" stop-color="#B542FD"/>
</linearGradient>
<linearGradient id="paint1_linear_577_14915" x1="55.5384" y1="20.7344" x2="55.5384" y2="88.723" gradientUnits="userSpaceOnUse">
<stop stop-color="#505BFD"/>
<stop offset="1" stop-color="#B542FD"/>
</linearGradient>
</defs>
</svg>
