<svg width="113" height="113" viewBox="0 0 113 113" fill="none" xmlns="http://www.w3.org/2000/svg">
<path fill-rule="evenodd" clip-rule="evenodd" d="M44.25 75.0712C47.5632 75.0712 50.2493 77.7572 50.2493 81.0704C50.2492 84.3836 47.5632 87.0696 44.25 87.0697C40.937 87.0695 38.2509 84.3835 38.2508 81.0704C38.2508 77.7573 40.937 75.0714 44.25 75.0712ZM44.25 76.8892C41.9411 76.8894 40.0689 78.7614 40.0689 81.0704C40.0689 83.3794 41.9411 85.2514 44.25 85.2516C46.5591 85.2515 48.4312 83.3795 48.4312 81.0704C48.4312 78.7613 46.5591 76.8893 44.25 76.8892Z" fill="white"/>
<path fill-rule="evenodd" clip-rule="evenodd" d="M81.9828 75.0712C85.2958 75.0714 87.982 77.7573 87.982 81.0704C87.982 84.3835 85.2958 87.0695 81.9828 87.0697C78.6696 87.0697 75.9836 84.3836 75.9835 81.0704C75.9836 77.7572 78.6696 75.0712 81.9828 75.0712ZM81.9828 76.8892C79.6736 76.8892 77.8016 78.7613 77.8016 81.0704C77.8016 83.3795 79.6737 85.2516 81.9828 85.2516C84.2917 85.2514 86.1639 83.3794 86.164 81.0704C86.1639 78.7614 84.2918 76.8894 81.9828 76.8892Z" fill="white"/>
<path fill-rule="evenodd" clip-rule="evenodd" d="M33.0532 26.8242C35.5634 26.8242 37.5983 28.8592 37.5983 31.3694V68.1505C37.5985 69.6564 38.8194 70.8775 40.3254 70.8776H44.14V47.0111C44.14 43.4968 46.9889 40.6479 50.5032 40.6479H77.1305L77.458 40.6559C80.8202 40.8262 83.4937 43.6066 83.4937 47.0111V70.8776H89.0304L89.1227 70.882C89.5812 70.9284 89.9395 71.3158 89.9395 71.7866C89.9393 72.2571 89.5811 72.6438 89.1227 72.6903L89.0304 72.6956H40.3254C37.8153 72.6956 35.7805 70.6605 35.7803 68.1505V31.3694C35.7803 29.8632 34.5593 28.6423 33.0532 28.6423H24.6082C24.1062 28.6423 23.6992 28.2353 23.6992 27.7332C23.6992 27.2312 24.1062 26.8242 24.6082 26.8242H33.0532ZM50.5032 42.4659C47.993 42.4659 45.958 44.5009 45.958 47.0111V70.8776H81.6756V47.0111C81.6756 44.5794 79.7662 42.594 77.3648 42.4721L77.1305 42.4659H50.5032Z" fill="white"/>
</svg>
