<svg width="85" height="85" viewBox="0 0 85 85" fill="none" xmlns="http://www.w3.org/2000/svg">
<path fill-rule="evenodd" clip-rule="evenodd" d="M42.5925 16.3496C43.0067 16.3496 43.3425 16.6854 43.3425 17.0996V25.7341H54.3223L54.3992 25.7378C54.7774 25.7761 55.0723 26.0957 55.0723 26.4841C55.0721 26.8724 54.7773 27.1921 54.3992 27.2305L54.3223 27.2341H43.3425V42.1558H48.4578L48.9023 42.1667C51.117 42.2767 53.2186 43.2047 54.7939 44.78C56.4743 46.4605 57.4182 48.7398 57.4182 51.1162C57.4181 53.4926 56.4743 55.772 54.7939 57.4524C53.2186 59.0276 51.1169 59.9558 48.9023 60.0657L48.4578 60.0767H43.3425V68.7097C43.3424 69.1238 43.0066 69.4597 42.5925 69.4597C42.1784 69.4597 41.8427 69.1238 41.8425 68.7097V60.0767H28.5176C28.1035 60.0766 27.7678 59.7407 27.7676 59.3267C27.7677 58.9126 28.1035 58.5767 28.5176 58.5767H41.8425V43.6558H36.728C34.3517 43.6557 32.0722 42.7111 30.3918 41.0308C28.8166 39.4554 27.8885 37.3537 27.7786 35.1392L27.7676 34.6946C27.7676 32.3182 28.7116 30.0388 30.3918 28.3584C32.0722 26.678 34.3516 25.7342 36.728 25.7341H41.8425V17.0996C41.8425 16.6854 42.1783 16.3496 42.5925 16.3496ZM43.3425 58.5767H48.4578L48.8276 58.5679C50.6716 58.4764 52.4217 57.7035 53.7334 56.3918C55.1325 54.9928 55.9181 53.0948 55.9182 51.1162C55.9182 49.1376 55.1325 47.2397 53.7334 45.8406C52.4217 44.5289 50.6717 43.756 48.8276 43.6646L48.4578 43.6558H43.3425V58.5767ZM36.728 27.2341C34.7494 27.2342 32.8522 28.0206 31.4531 29.4197C30.0542 30.8188 29.2676 32.7161 29.2676 34.6946L29.2771 35.0645C29.3686 36.9085 30.1414 38.6585 31.4531 39.9702C32.8522 41.3691 34.7496 42.1557 36.728 42.1558H41.8425V27.2341H36.728Z" fill="white"/>
</svg>
