<svg width="113" height="112" viewBox="0 0 113 112" fill="none" xmlns="http://www.w3.org/2000/svg">
<path d="M42.2279 65.6039C42.6961 65.6515 43.0614 66.0473 43.0614 66.5281C43.0614 67.0089 42.6961 67.4047 42.2279 67.4523L42.1326 67.4569H32.23C31.7171 67.4569 31.3013 67.041 31.3013 66.5281C31.3013 66.0152 31.7171 65.5993 32.23 65.5993H42.1326L42.2279 65.6039Z" fill="#121212"/>
<path fill-rule="evenodd" clip-rule="evenodd" d="M72.2576 32.2155C73.5353 32.2608 74.7811 32.6386 75.8702 33.3138C77.0141 34.0233 77.9406 35.034 78.5495 36.2335L88.716 52.0307C89.391 53.0797 89.7499 54.3014 89.75 55.5489V73.171C89.7498 75.1197 88.9757 76.9891 87.5977 78.3671C86.2197 79.7451 84.3503 80.5193 82.4015 80.5194H31.0419C29.0931 80.5194 27.2237 79.745 25.8457 78.3671C24.4677 76.9891 23.6935 75.1197 23.6934 73.171V55.5489C23.6934 54.3013 24.0522 53.0798 24.7273 52.0307L34.893 36.2335C35.5019 35.0337 36.429 34.0233 37.5731 33.3138C38.7349 32.5936 40.0746 32.2117 41.4415 32.2109H72.0019L72.2576 32.2155ZM25.6062 54.8387C25.5699 55.0727 25.5509 55.3102 25.5509 55.5489V73.171C25.551 74.6271 26.1293 76.0242 27.159 77.0538C28.1887 78.0833 29.5857 78.6619 31.0419 78.6619H82.4015C83.8576 78.6618 85.2547 78.0834 86.2844 77.0538C87.314 76.0242 87.8923 74.6271 87.8925 73.171V55.5489C87.8924 55.3102 87.8725 55.0727 87.8362 54.8387H25.6062ZM41.4424 34.0685C40.421 34.0691 39.4199 34.3546 38.5518 34.8929C37.792 35.3641 37.1603 36.0126 36.7097 36.7804L36.5283 37.116C36.5131 37.1466 36.496 37.177 36.4775 37.2058L26.3255 52.9812H87.1179L76.9659 37.2058C76.9474 37.1771 76.9303 37.1465 76.9151 37.116C76.4605 36.2013 75.7595 35.4313 74.8916 34.8929C74.1321 34.422 73.2704 34.1445 72.3828 34.0821L72.0001 34.0685H41.4424Z" fill="#121212"/>
</svg>
