<svg width="112" height="113" viewBox="0 0 112 113" fill="none" xmlns="http://www.w3.org/2000/svg">
<path fill-rule="evenodd" clip-rule="evenodd" d="M43.4297 75.0712C46.7429 75.0712 49.429 77.7572 49.429 81.0704C49.4289 84.3836 46.7429 87.0696 43.4297 87.0697C40.1167 87.0695 37.4305 84.3835 37.4305 81.0704C37.4305 77.7573 40.1167 75.0714 43.4297 75.0712ZM43.4297 76.8892C41.1208 76.8894 39.2486 78.7614 39.2485 81.0704C39.2486 83.3794 41.1208 85.2514 43.4297 85.2516C45.7388 85.2515 47.6109 83.3795 47.6109 81.0704C47.6109 78.7613 45.7388 76.8893 43.4297 76.8892Z" fill="#121212"/>
<path fill-rule="evenodd" clip-rule="evenodd" d="M81.1625 75.0712C84.4755 75.0714 87.1617 77.7573 87.1617 81.0704C87.1617 84.3835 84.4755 87.0695 81.1625 87.0697C77.8493 87.0697 75.1633 84.3836 75.1632 81.0704C75.1632 77.7572 77.8492 75.0712 81.1625 75.0712ZM81.1625 76.8892C78.8533 76.8892 76.9813 78.7613 76.9813 81.0704C76.9813 83.3795 78.8533 85.2516 81.1625 85.2516C83.4714 85.2514 85.3436 83.3794 85.3437 81.0704C85.3436 78.7614 83.4714 76.8894 81.1625 76.8892Z" fill="#121212"/>
<path fill-rule="evenodd" clip-rule="evenodd" d="M32.2329 26.8242C34.7431 26.8242 36.778 28.8592 36.778 31.3694V68.1505C36.7782 69.6564 37.9991 70.8775 39.5051 70.8776H43.3197V47.0111C43.3197 43.4968 46.1686 40.6479 49.6829 40.6479H76.3102L76.6377 40.6559C79.9999 40.8262 82.6734 43.6066 82.6734 47.0111V70.8776H88.2101L88.3024 70.882C88.7609 70.9284 89.1191 71.3158 89.1191 71.7866C89.119 72.2571 88.7608 72.6438 88.3024 72.6903L88.2101 72.6956H39.5051C36.995 72.6956 34.9602 70.6605 34.96 68.1505V31.3694C34.96 29.8632 33.739 28.6423 32.2329 28.6423H23.7879C23.2859 28.6423 22.8789 28.2353 22.8789 27.7332C22.8789 27.2312 23.2859 26.8242 23.7879 26.8242H32.2329ZM49.6829 42.4659C47.1726 42.4659 45.1377 44.5009 45.1377 47.0111V70.8776H80.8553V47.0111C80.8553 44.5794 78.9459 42.594 76.5445 42.4721L76.3102 42.4659H49.6829Z" fill="#121212"/>
</svg>
