<svg width="113" height="112" viewBox="0 0 113 112" fill="none" xmlns="http://www.w3.org/2000/svg">
<g clip-path="url(#clip0_2551_29151)">
<path fill-rule="evenodd" clip-rule="evenodd" d="M54.6078 23.8507C56.0807 23.0405 57.8915 23.0976 59.3162 24.0236L88.1524 42.7676C89.4537 43.6135 90.2392 45.0606 90.2393 46.6127V65.3845C90.2393 66.9366 89.4538 68.3836 88.1524 69.2295L59.3162 87.9736C57.7965 88.9613 55.8373 88.9613 54.3176 87.9736L25.4814 69.2295C24.18 68.3836 23.3945 66.9366 23.3945 65.3845V46.6127C23.3946 45.0606 24.18 43.6135 25.4814 42.7676L54.3176 24.0236L54.6078 23.8507ZM25.9597 67.2519C26.1128 67.4176 26.2873 67.5658 26.4809 67.6917L55.3171 86.4349C55.5017 86.5548 55.6975 86.6492 55.8993 86.7206V67.8556L40.4208 57.1696L25.9597 67.2519ZM57.7336 67.8556V86.7206C57.9356 86.6491 58.1319 86.555 58.3167 86.4349L87.1529 67.6917C87.3715 67.5496 87.564 67.3778 87.7306 67.1856L73.222 57.1195L57.7336 67.8556ZM42.0266 56.0501L56.8156 66.2595L71.6125 56.0026L56.8182 45.7385L42.0266 56.0501ZM25.2288 65.3845C25.2288 65.4303 25.2301 65.4761 25.2324 65.5215L38.8086 56.0572L25.2288 46.6825V65.3845ZM74.8315 56.0044L88.4032 65.4212C88.4033 65.409 88.405 65.3967 88.405 65.3845V46.6127C88.405 46.6076 88.4041 46.6025 88.4041 46.5974L74.8315 56.0044ZM55.8993 25.2757C55.7597 25.325 55.6228 25.3849 55.4909 25.4575L55.3171 25.5623L26.4809 44.3055C26.2367 44.4642 26.0219 44.6576 25.8432 44.8778L40.4154 54.9377L55.8993 44.1434V25.2757ZM57.7336 44.1416L73.2211 54.8875L87.7422 44.8232C87.5733 44.626 87.3761 44.4506 87.1529 44.3055L58.3167 25.5623C58.1318 25.4421 57.9357 25.3472 57.7336 25.2757V44.1416Z" fill="white"/>
</g>
<defs>
<clipPath id="clip0_2551_29151">
<rect width="112" height="112" fill="white" transform="translate(0.820312)"/>
</clipPath>
</defs>
</svg>
