<svg width="112" height="112" viewBox="0 0 112 112" fill="none" xmlns="http://www.w3.org/2000/svg">
<path d="M46.4479 20.8236C56.8953 20.8256 65.3652 29.295 65.4062 39.7375V39.745L65.3581 41.0706C64.9592 46.7669 62.01 51.7125 57.6748 54.8968C70.5496 59.4726 79.7731 71.7497 79.7731 86.2299C79.7727 86.8572 79.2635 87.3657 78.6364 87.3667C78.0089 87.3661 77.5 86.8574 77.4996 86.2299C77.4996 71.9313 67.8454 59.9333 54.7163 56.3483C54.2696 56.2264 53.9418 55.8453 53.8868 55.3856C53.8322 54.9264 54.06 54.4801 54.4645 54.2562C59.6215 51.4103 63.127 46.0159 63.129 39.7487L63.1031 38.8896C62.6242 30.0933 55.3499 23.0991 46.4479 23.0972C37.2557 23.0972 29.8001 30.5528 29.8001 39.745C29.8007 46.0144 33.3058 51.41 38.4647 54.2562C38.8686 54.4802 39.1004 54.9268 39.046 55.3856C38.9912 55.8448 38.6588 56.2258 38.2129 56.3483C25.0834 59.933 15.4296 71.931 15.4296 86.2299C15.4292 86.8572 14.9199 87.3657 14.2928 87.3667C13.6648 87.3667 13.1527 86.8578 13.1523 86.2299C13.1523 71.7506 22.3772 59.4733 35.2507 54.8968C30.5835 51.4678 27.5271 45.9958 27.5266 39.745C27.5266 29.2963 35.9993 20.8236 46.4479 20.8236Z" fill="url(#paint0_linear_577_15119)"/>
<path d="M82.9242 58.8995C83.2318 58.4442 83.8129 58.2829 84.3016 58.4848L84.5053 58.5922L85.3236 59.1661C93.6945 65.1943 99.1869 75.0479 99.1869 86.1929C99.1863 86.8203 98.6776 87.3291 98.0501 87.3296C97.4223 87.3296 96.9139 86.8206 96.9134 86.1929C96.9134 76.1478 92.1244 67.2241 84.7423 61.5655L83.2315 60.4806L83.0538 60.3325C82.6838 59.9547 82.617 59.355 82.9242 58.8995Z" fill="url(#paint1_linear_577_15119)"/>
<path d="M66.8726 20.7644C76.8679 21.2722 84.82 29.5421 84.82 39.6635C84.8197 43.8154 83.4873 47.6148 81.2246 50.6867L81.2172 50.6941C80.995 50.9904 80.7436 51.3287 80.4878 51.6272C80.0791 52.1026 79.361 52.1566 78.8844 51.7494C78.4075 51.3406 78.3534 50.6231 78.7623 50.1461C78.9606 49.9146 79.1636 49.6406 79.3954 49.3315C81.3744 46.6426 82.5425 43.3167 82.5428 39.6635C82.5428 30.7588 75.548 23.4841 66.7541 23.0379L65.8987 23.0157L65.6692 22.9935C65.151 22.8873 64.762 22.4285 64.762 21.8789C64.762 21.2507 65.2705 20.7422 65.8987 20.7422L66.8726 20.7644Z" fill="url(#paint2_linear_577_15119)"/>
<defs>
<linearGradient id="paint0_linear_577_15119" x1="56.1696" y1="20.7422" x2="56.1696" y2="87.3667" gradientUnits="userSpaceOnUse">
<stop stop-color="#505BFD"/>
<stop offset="1" stop-color="#B542FD"/>
</linearGradient>
<linearGradient id="paint1_linear_577_15119" x1="56.1696" y1="20.7422" x2="56.1696" y2="87.3667" gradientUnits="userSpaceOnUse">
<stop stop-color="#505BFD"/>
<stop offset="1" stop-color="#B542FD"/>
</linearGradient>
<linearGradient id="paint2_linear_577_15119" x1="56.1696" y1="20.7422" x2="56.1696" y2="87.3667" gradientUnits="userSpaceOnUse">
<stop stop-color="#505BFD"/>
<stop offset="1" stop-color="#B542FD"/>
</linearGradient>
</defs>
</svg>
