<svg width="112" height="112" viewBox="0 0 112 112" fill="none" xmlns="http://www.w3.org/2000/svg">
<path d="M31.499 60.5859C37.3049 60.5863 42.0115 65.2927 42.0117 71.0986V71.0996H43.4854C49.291 71.1004 53.9979 75.8065 53.998 81.6123C53.9979 87.4181 49.291 92.1242 43.4854 92.125V92.126H19.5146V92.125L19.5127 92.126C13.7066 92.1258 9.00013 87.4184 9 81.6123C9.0001 75.8061 13.7065 71.0998 19.5127 71.0996H20.9854V71.0986C20.9856 65.2925 25.6928 60.5859 31.499 60.5859ZM81.3213 67.8389L85.4238 71.9746L84.7139 72.6797L84.0039 73.3838L81.6113 70.9727V91.3789H56.7646V89.3789H79.6113V70.9727L77.2188 73.3838L76.5088 72.6797L75.7988 71.9746L79.9014 67.8389L80.6113 67.123L81.3213 67.8389ZM31.499 62.5859C26.7972 62.5859 22.9856 66.3972 22.9854 71.0986V73.0996H19.5127C14.9581 73.0998 11.239 76.6761 11.0107 81.1738L11 81.6123C11.0001 86.163 14.5704 89.88 19.0625 90.1143L21.5146 88.8887V90.126H41.4854V90.125H43.4854C48.1867 90.1242 51.9979 86.3133 51.998 81.6123C51.998 77.058 48.4208 73.3387 43.9229 73.1104L43.4854 73.0996H40.0117V71.0986L40.001 70.6602C39.78 66.3078 36.2898 62.8178 31.9375 62.5967L31.499 62.5859ZM103.78 49.8115H87.333V47.8115H101.78V25H57.5215V47.8115H80.3457V49.8115H76.3389V59.4814H83.0654V48.3906H85.0654V59.4814H97.1016V61.4814H61.9873V59.4814H74.3389V49.8115H55.5215V23H103.78V49.8115ZM52.3975 33.7334H29.5508V52.1396L31.9434 49.7285L32.6533 50.4326L33.3633 51.1377L29.2607 55.2734L28.5508 55.9893L27.8408 55.2734L23.7383 51.1377L24.4482 50.4326L25.1582 49.7285L27.5508 52.1396V31.7334H52.3975V33.7334Z" fill="black"/>
<path d="M31.499 60.5859C37.3049 60.5863 42.0115 65.2927 42.0117 71.0986V71.0996H43.4854C49.291 71.1004 53.9979 75.8065 53.998 81.6123C53.9979 87.4181 49.291 92.1242 43.4854 92.125V92.126H19.5146V92.125L19.5127 92.126C13.7066 92.1258 9.00013 87.4184 9 81.6123C9.0001 75.8061 13.7065 71.0998 19.5127 71.0996H20.9854V71.0986C20.9856 65.2925 25.6928 60.5859 31.499 60.5859ZM81.3213 67.8389L85.4238 71.9746L84.7139 72.6797L84.0039 73.3838L81.6113 70.9727V91.3789H56.7646V89.3789H79.6113V70.9727L77.2188 73.3838L76.5088 72.6797L75.7988 71.9746L79.9014 67.8389L80.6113 67.123L81.3213 67.8389ZM31.499 62.5859C26.7972 62.5859 22.9856 66.3972 22.9854 71.0986V73.0996H19.5127C14.9581 73.0998 11.239 76.6761 11.0107 81.1738L11 81.6123C11.0001 86.163 14.5704 89.88 19.0625 90.1143L21.5146 88.8887V90.126H41.4854V90.125H43.4854C48.1867 90.1242 51.9979 86.3133 51.998 81.6123C51.998 77.058 48.4208 73.3387 43.9229 73.1104L43.4854 73.0996H40.0117V71.0986L40.001 70.6602C39.78 66.3078 36.2898 62.8178 31.9375 62.5967L31.499 62.5859ZM103.78 49.8115H87.333V47.8115H101.78V25H57.5215V47.8115H80.3457V49.8115H76.3389V59.4814H83.0654V48.3906H85.0654V59.4814H97.1016V61.4814H61.9873V59.4814H74.3389V49.8115H55.5215V23H103.78V49.8115ZM52.3975 33.7334H29.5508V52.1396L31.9434 49.7285L32.6533 50.4326L33.3633 51.1377L29.2607 55.2734L28.5508 55.9893L27.8408 55.2734L23.7383 51.1377L24.4482 50.4326L25.1582 49.7285L27.5508 52.1396V31.7334H52.3975V33.7334Z" fill="url(#paint0_linear_385_6506)"/>
<defs>
<linearGradient id="paint0_linear_385_6506" x1="56.3901" y1="23" x2="56.3901" y2="94.12" gradientUnits="userSpaceOnUse">
<stop stop-color="#A34DEE"/>
<stop offset="1" stop-color="#6943F5"/>
</linearGradient>
</defs>
</svg>
