<svg width="113" height="113" viewBox="0 0 113 113" fill="none" xmlns="http://www.w3.org/2000/svg">
<path fill-rule="evenodd" clip-rule="evenodd" d="M57.2994 21.3389C63.9314 21.3389 69.3078 26.7153 69.3079 33.3473V38.9803H81.9747L82.0708 38.9849C82.5428 39.033 82.9111 39.432 82.9111 39.9167V82.0022C82.9109 85.622 79.9763 88.5569 76.3564 88.5569H37.2813C33.6616 88.5566 30.7268 85.6219 30.7266 82.0022V39.9167L30.7311 39.8207C30.7792 39.3488 31.1784 38.9805 31.663 38.9803H44.3289V33.3473C44.329 26.7155 49.7055 21.3391 56.3374 21.3389H57.2994ZM32.5993 82.0022C32.5996 84.5876 34.6959 86.6839 37.2813 86.6841H76.3564C78.942 86.6841 81.0381 84.5877 81.0384 82.0022V40.8531H69.3079V47.7425C69.3079 48.2597 68.8886 48.6789 68.3715 48.6789C67.8546 48.6786 67.4351 48.2595 67.4351 47.7425V40.8531H46.2017V47.7425C46.2017 48.2597 45.7825 48.6789 45.2653 48.6789C44.7483 48.6787 44.3289 48.2595 44.3289 47.7425V40.8531H32.5993V82.0022ZM56.3374 23.2116C50.7399 23.2119 46.2018 27.7498 46.2017 33.3473V38.9803H67.4351V33.3473C67.435 27.7496 62.8971 23.2116 57.2994 23.2116H56.3374Z" fill="white"/>
</svg>
