<svg width="85" height="85" viewBox="0 0 85 85" fill="none" xmlns="http://www.w3.org/2000/svg">
<path fill-rule="evenodd" clip-rule="evenodd" d="M42.1501 16.8282C42.5627 16.7265 42.9973 16.7432 43.4026 16.8787L65.8293 24.3795C66.7466 24.6865 67.3652 25.5457 67.3652 26.513V32.4156C67.3651 33.658 66.3576 34.6654 65.1152 34.6656H62.0815V56.9876C65.0791 57.4726 67.3644 60.0688 67.3645 63.2044V66.879C67.3644 68.1214 66.3569 69.1288 65.1145 69.129H20.0742C18.8316 69.129 17.8243 68.1216 17.8242 66.879V63.1509C17.8244 59.9676 20.2155 57.3283 23.2939 56.9327V34.6656H20.2888C19.0463 34.6656 18.039 33.6581 18.0388 32.4156V26.513C18.0388 25.5456 18.6574 24.6866 19.5747 24.3795L41.9744 16.8795L42.1501 16.8282ZM23.9275 58.3829C21.3783 58.4721 19.3244 60.5808 19.3242 63.1509V66.879C19.3243 67.2931 19.66 67.629 20.0742 67.629H65.1145C65.5285 67.6288 65.8644 67.293 65.8645 66.879V63.2044C65.8643 60.5513 63.7188 58.4056 61.0657 58.4056H24.1091C24.0465 58.4056 23.9858 58.3971 23.9275 58.3829ZM24.8459 57.6424L24.8423 57.567C24.8409 57.5534 24.8378 57.54 24.8357 57.5267C24.8414 57.5643 24.8459 57.603 24.8459 57.6424ZM51.52 34.6656V56.9056H60.5815V34.6656H51.52ZM24.7939 56.9056H33.8555V34.6656H24.7939V56.9056ZM35.3555 56.9056H50.02V34.6656H35.3555V56.9056ZM42.9272 18.3011C42.7729 18.2495 42.6055 18.2502 42.4512 18.3018L20.0508 25.8018C19.745 25.9042 19.5388 26.1905 19.5388 26.513V32.4156C19.539 32.8297 19.8747 33.1656 20.2888 33.1656H65.1152C65.5292 33.1654 65.8651 32.8296 65.8652 32.4156V26.513C65.8652 26.1907 65.6589 25.9042 65.3533 25.8018L42.9272 18.3011Z" fill="white"/>
</svg>
