<svg width="112" height="112" viewBox="0 0 112 112" fill="none" xmlns="http://www.w3.org/2000/svg">
<path d="M57 22.1436C74.9117 22.663 89.3361 37.0883 89.8555 55H98V57H89.8545C89.3351 74.9116 74.9116 89.3351 57 89.8545V98H55V89.8545C37.0883 89.3352 22.6639 74.9117 22.1445 57H14V55H22.1445C22.6639 37.0883 37.0883 22.6629 55 22.1436V14H57V22.1436ZM57 30.2578H55V24.1455C38.193 24.6635 24.6645 38.193 24.1465 55H30.2578V57H24.1465C24.6646 73.8069 38.193 87.3355 55 87.8535V81.7422H57V87.8535C73.8069 87.3354 87.3354 73.8069 87.8535 57H81.7422V55H87.8535C87.3355 38.193 73.807 24.6636 57 24.1455V30.2578ZM56 35C63.8056 35 70.6167 39.2585 74.2363 45.5791L78.9375 40.8789L80.3516 42.293L75.1875 47.4561C76.3516 50.0664 77 52.9573 77 56C77 67.598 67.598 77 56 77C44.402 77 35 67.598 35 56C35 44.402 44.402 35 56 35ZM56 37C45.5066 37 37 45.5066 37 56C37 66.4934 45.5066 75 56 75C66.4934 75 75 66.4934 75 56C75 53.5212 74.5246 51.1535 73.6611 48.9824L55.8135 66.8311L41.7461 52.7637L43.1602 51.3496L55.8135 64.0029L72.7637 47.0518C69.5641 41.0701 63.2578 37 56 37Z" fill="black"/>
<path d="M57 22.1436C74.9117 22.663 89.3361 37.0883 89.8555 55H98V57H89.8545C89.3351 74.9116 74.9116 89.3351 57 89.8545V98H55V89.8545C37.0883 89.3352 22.6639 74.9117 22.1445 57H14V55H22.1445C22.6639 37.0883 37.0883 22.6629 55 22.1436V14H57V22.1436ZM57 30.2578H55V24.1455C38.193 24.6635 24.6645 38.193 24.1465 55H30.2578V57H24.1465C24.6646 73.8069 38.193 87.3355 55 87.8535V81.7422H57V87.8535C73.8069 87.3354 87.3354 73.8069 87.8535 57H81.7422V55H87.8535C87.3355 38.193 73.807 24.6636 57 24.1455V30.2578ZM56 35C63.8056 35 70.6167 39.2585 74.2363 45.5791L78.9375 40.8789L80.3516 42.293L75.1875 47.4561C76.3516 50.0664 77 52.9573 77 56C77 67.598 67.598 77 56 77C44.402 77 35 67.598 35 56C35 44.402 44.402 35 56 35ZM56 37C45.5066 37 37 45.5066 37 56C37 66.4934 45.5066 75 56 75C66.4934 75 75 66.4934 75 56C75 53.5212 74.5246 51.1535 73.6611 48.9824L55.8135 66.8311L41.7461 52.7637L43.1602 51.3496L55.8135 64.0029L72.7637 47.0518C69.5641 41.0701 63.2578 37 56 37Z" fill="url(#paint0_linear_385_6766)"/>
<defs>
<linearGradient id="paint0_linear_385_6766" x1="56" y1="14" x2="56" y2="100.423" gradientUnits="userSpaceOnUse">
<stop stop-color="#A34DEE"/>
<stop offset="1" stop-color="#6943F5"/>
</linearGradient>
</defs>
</svg>
