<svg width="113" height="113" viewBox="0 0 113 113" fill="none" xmlns="http://www.w3.org/2000/svg">
<path fill-rule="evenodd" clip-rule="evenodd" d="M46.7441 31.3848C54.484 31.3848 60.7616 37.6474 60.7617 45.377C60.7617 50.9903 57.4501 55.8284 52.6729 58.0576C62.7899 60.6794 70.2598 69.8545 70.2598 80.7764C70.2598 81.3286 69.812 81.7763 69.2598 81.7764C68.7075 81.7764 68.2598 81.3286 68.2598 80.7764C68.2598 69.263 59.1824 59.8665 47.7754 59.3301C47.4348 59.3548 47.091 59.3691 46.7441 59.3691C46.397 59.3691 46.0528 59.3558 45.7119 59.3311C34.3063 59.8689 25.2305 69.264 25.2305 80.7764C25.2305 81.3286 24.7827 81.7764 24.2305 81.7764C23.6782 81.7764 23.2305 81.3286 23.2305 80.7764C23.2305 69.8555 30.6988 60.6803 40.8145 58.0576C36.0376 55.8282 32.7266 50.99 32.7266 45.377C32.7267 37.6475 39.0043 31.3849 46.7441 31.3848ZM46.7441 33.3848C40.1052 33.3849 34.7267 38.7557 34.7266 45.377C34.7266 51.664 39.576 56.8222 45.749 57.3271C46.0794 57.3134 46.4114 57.3057 46.7451 57.3057C47.0778 57.3057 47.4089 57.3135 47.7383 57.3271C53.9119 56.8227 58.7617 51.6644 58.7617 45.377C58.7616 38.7557 53.3831 33.3848 46.7441 33.3848Z" fill="black"/>
<path d="M65.707 31.2236C73.4269 31.2236 79.7245 37.4708 79.7246 45.2158C79.7246 49.8961 77.4204 53.99 73.9033 56.5146C83.1601 60.0379 89.7704 69.5192 89.7705 80.6465C89.7705 81.1988 89.3228 81.6465 88.7705 81.6465C88.2183 81.6464 87.7705 81.1987 87.7705 80.6465C87.7704 69.5235 80.677 60.3042 71.2598 57.7549C70.8593 57.6463 70.5675 57.3016 70.5264 56.8887C70.4854 56.4757 70.7039 56.0808 71.0752 55.8955C75.0185 53.9277 77.7246 49.9102 77.7246 45.2158C77.7245 38.5823 72.3292 33.2236 65.707 33.2236C65.1547 33.2236 64.707 32.7759 64.707 32.2236C64.707 31.6713 65.1547 31.2236 65.707 31.2236Z" fill="black"/>
</svg>
