<svg width="112" height="113" viewBox="0 0 112 113" fill="none" xmlns="http://www.w3.org/2000/svg">
<path d="M63.1097 51.9509C63.6059 52.0013 63.9928 52.4207 63.9929 52.9302C63.9929 53.4397 63.6059 53.859 63.1097 53.9095L63.0088 53.9143H48.9903C48.4468 53.9143 48.0062 53.4737 48.0062 52.9302C48.0062 52.3867 48.4468 51.9461 48.9903 51.9461H63.0088L63.1097 51.9509Z" fill="#121212"/>
<path fill-rule="evenodd" clip-rule="evenodd" d="M85.7054 28.2529C87.2652 28.332 88.5059 29.6218 88.5059 31.2013V42.4886C88.5058 44.119 87.1839 45.4407 85.5536 45.4409H84.3869V82.0705C84.3864 83.7005 83.0647 85.0227 81.4346 85.0228H30.5664C28.9362 85.0228 27.6146 83.7006 27.6141 82.0705V45.4409H26.4464C24.8161 45.4407 23.4942 44.119 23.4941 42.4886V31.2013C23.4941 29.5709 24.816 28.2492 26.4464 28.249H85.5536L85.7054 28.2529ZM29.5823 45.4409V82.0705C29.5827 82.6136 30.0232 83.0546 30.5664 83.0546H81.4346C81.9777 83.0545 82.4182 82.6135 82.4187 82.0705V45.4409H29.5823ZM26.4464 30.2172C25.903 30.2174 25.4623 30.6579 25.4623 31.2013V42.4886C25.4623 43.032 25.9031 43.4725 26.4464 43.4727H85.5536C86.0969 43.4725 86.5377 43.032 86.5377 42.4886V31.2013C86.5377 30.6916 86.15 30.2722 85.6535 30.222L85.5536 30.2172H26.4464Z" fill="#121212"/>
</svg>
