<svg width="113" height="113" viewBox="0 0 113 113" fill="none" xmlns="http://www.w3.org/2000/svg">
<path fill-rule="evenodd" clip-rule="evenodd" d="M38.6642 66.1414C43.0465 66.1414 46.5996 69.6939 46.5998 74.0761C46.5998 78.4586 43.0466 82.0118 38.6642 82.0118C34.282 82.0114 30.7295 78.4583 30.7295 74.0761C30.7297 69.6941 34.2822 66.1418 38.6642 66.1414ZM38.6642 68.1402C35.3861 68.1406 32.7285 70.798 32.7283 74.0761C32.7283 77.3544 35.386 80.0126 38.6642 80.013C41.9427 80.013 44.601 77.3547 44.601 74.0761C44.6008 70.7978 41.9425 68.1402 38.6642 68.1402Z" fill="white"/>
<path fill-rule="evenodd" clip-rule="evenodd" d="M74.7802 66.1414C79.1624 66.1415 82.7156 69.6939 82.7158 74.0761C82.7158 78.4585 79.1625 82.0117 74.7802 82.0118C70.3979 82.0115 66.8455 78.4584 66.8455 74.0761C66.8457 69.694 70.3981 66.1417 74.7802 66.1414ZM74.7802 68.1402C71.502 68.1405 68.8445 70.7979 68.8443 74.0761C68.8443 77.3545 71.5018 80.0127 74.7802 80.013C78.0586 80.0129 80.717 77.3546 80.717 74.0761C80.7168 70.7978 78.0585 68.1403 74.7802 68.1402Z" fill="white"/>
<path d="M63.3661 31.665C67.2297 31.6651 70.3618 34.7973 70.3619 38.6608V45.602H80.3608C81.6861 45.602 82.9567 46.1289 83.8938 47.066L91.0429 54.214L91.2137 54.3936C92.0439 55.3103 92.5068 56.5054 92.5068 57.748V67.9118C92.5067 70.6714 90.2694 72.9087 87.5098 72.9088H84.6092C84.0575 72.9086 83.61 72.4612 83.6098 71.9094C83.6099 71.3577 84.0575 70.9102 84.6092 70.91H87.5098C89.1655 70.9099 90.5079 69.5675 90.508 67.9118V57.748C90.508 57.0523 90.2659 56.3813 89.8288 55.8478L89.6297 55.6282L82.4806 48.4792C81.9184 47.9169 81.1559 47.6008 80.3608 47.6008H70.3619V64.2861C70.3618 64.8379 69.9144 65.2855 69.3625 65.2855C68.8108 65.2853 68.3632 64.8378 68.3631 64.2861V38.6608C68.363 35.9012 66.1258 33.6639 63.3661 33.6638H27.906C25.1465 33.6641 22.9091 35.9014 22.909 38.6608V65.9121C22.909 68.6717 25.1464 70.9088 27.906 70.9091H29.1611L29.2626 70.9149C29.7664 70.966 30.1602 71.3912 30.1605 71.9085C30.1605 72.426 29.7666 72.8519 29.2626 72.903L29.1611 72.9079H27.906C24.0425 72.9076 20.9102 69.7756 20.9102 65.9121V38.6608C20.9103 34.7974 24.0426 31.6653 27.906 31.665H63.3661Z" fill="white"/>
<path d="M64.8154 70.9149C65.3194 70.9659 65.7131 71.3911 65.7133 71.9085C65.7133 72.4261 65.3196 72.852 64.8154 72.903L64.7139 72.9079H48.3673C47.8156 72.9076 47.3679 72.4602 47.3679 71.9085C47.3682 71.357 47.8158 70.9094 48.3673 70.9091H64.7139L64.8154 70.9149Z" fill="white"/>
</svg>
