<svg width="112" height="112" viewBox="0 0 112 112" fill="none" xmlns="http://www.w3.org/2000/svg">
<path fill-rule="evenodd" clip-rule="evenodd" d="M52.9624 25.2011C53.1463 24.7934 53.5521 24.5312 53.9994 24.5312C56.7841 24.5312 59.4952 25.6408 61.4717 27.5885C63.4472 29.5354 64.581 32.1832 64.581 34.9756V46.2472H81.2616C82.3258 46.2472 83.4006 46.4636 84.3769 46.9076C85.3172 47.3353 86.2073 47.9501 86.9249 48.7656C87.645 49.5531 88.1652 50.5139 88.4613 51.5352C88.7583 52.5594 88.8321 53.6208 88.6842 54.6776L88.6818 54.6948L84.3381 82.6103C84.0766 84.3368 83.1838 85.9543 81.8038 87.0966C80.4172 88.2754 78.6726 88.8517 76.9173 88.8517H31.9629C30.003 88.8517 28.1054 88.0875 26.7204 86.6888C25.317 85.3032 24.5293 83.465 24.5293 81.5097V59.7937C24.5293 57.8472 25.3112 55.9694 26.7311 54.604C28.1367 53.2216 29.9942 52.4517 31.9629 52.4517H40.6723L52.9624 25.2011ZM42.5446 86.5767H76.9173C78.1812 86.5767 79.393 86.1621 80.3349 85.3594L80.3484 85.3478C81.2934 84.5676 81.9094 83.4562 82.0887 82.2703L82.0894 82.2654L86.4323 54.3539C86.5347 53.6142 86.4823 52.8791 86.2763 52.1687C86.0699 51.4569 85.7118 50.8082 85.2402 50.2945L85.2224 50.2751C84.7452 49.7306 84.1279 49.2936 83.435 48.9785C82.7743 48.678 82.0233 48.5222 81.2616 48.5222H63.4435C62.8153 48.5222 62.306 48.0129 62.306 47.3847V34.9756C62.306 32.8043 61.4251 30.7367 59.8748 29.209C58.4961 27.8503 56.6521 27.007 54.7199 26.8378L42.5446 53.8338V86.5767ZM40.2696 54.7267V86.5767H31.9629C30.5884 86.5767 29.2774 86.0399 28.3333 85.0844L28.3226 85.0737C27.3367 84.1021 26.8043 82.8402 26.8043 81.5097V59.7937C26.8043 58.4544 27.3426 57.1702 28.3117 56.2403L28.3226 56.2297C29.3088 55.2578 30.5972 54.7267 31.9629 54.7267H40.2696Z" fill="url(#paint0_linear_577_14915)"/>
<defs>
<linearGradient id="paint0_linear_577_14915" x1="56.6437" y1="24.5312" x2="56.6437" y2="88.8517" gradientUnits="userSpaceOnUse">
<stop stop-color="#505BFD"/>
<stop offset="1" stop-color="#B542FD"/>
</linearGradient>
</defs>
</svg>
