<svg width="113" height="113" viewBox="0 0 113 113" fill="none" xmlns="http://www.w3.org/2000/svg">
<path d="M56.8857 25.1924C70.8211 25.1924 82.3229 35.6064 84.0352 49.0771L84.04 49.1201C88.9086 50.2537 92.5819 54.5006 92.8418 59.6494L92.8564 60.2373V62.7715L92.8408 63.3584C92.5566 68.9371 88.2659 73.455 82.79 74.0996C82.5997 78.6965 78.8146 82.3643 74.1709 82.3643H67.3398C67.1259 83.4239 66.5709 84.2957 65.7695 84.9287C64.755 85.73 63.4177 86.0986 62.0352 86.0986H57.9053C56.523 86.0985 55.1862 85.7298 54.1719 84.9287C53.131 84.1064 52.502 82.8812 52.502 81.3643C52.5022 79.8506 53.1281 78.6105 54.1602 77.7686C55.1711 76.9439 56.5107 76.547 57.9072 76.5469H62.0332C63.4296 76.5469 64.7693 76.9441 65.7803 77.7686C66.5748 78.4167 67.1279 79.3012 67.3408 80.3643H74.1709C77.7099 80.3643 80.6016 77.5915 80.79 74.0996C79.5947 73.8067 78.7072 72.7318 78.707 71.4463V51.5557C78.7074 50.0452 79.9319 48.8205 81.4424 48.8203C81.6238 48.8203 81.8041 48.8256 81.9834 48.834C80.181 36.5905 69.6303 27.1924 56.8857 27.1924C44.1416 27.1928 33.5923 36.5908 31.79 48.834C31.9682 48.8257 32.1479 48.8203 32.3281 48.8203C33.8386 48.8205 35.0631 50.0452 35.0635 51.5557V71.4463C35.0633 72.9568 33.8386 74.1814 32.3281 74.1816C26.0261 74.1816 20.9169 69.0735 20.915 62.7715L20.9141 60.2373C20.9128 54.8263 24.6774 50.2963 29.7305 49.1201C31.4236 35.6287 42.9358 25.1928 56.8857 25.1924ZM57.9072 78.5469C56.8712 78.547 56.0081 78.8427 55.4248 79.3184C54.8629 79.7768 54.5022 80.4457 54.502 81.3643C54.502 82.28 54.8589 82.923 55.4111 83.3594C55.99 83.8166 56.8551 84.0985 57.9053 84.0986H62.0352C63.0855 84.0986 63.9503 83.8166 64.5293 83.3594C65.0818 82.923 65.4385 82.2802 65.4385 81.3643C65.4383 80.4457 65.0785 79.7768 64.5166 79.3184C63.9332 78.8427 63.0693 78.5469 62.0332 78.5469H57.9072ZM32.3281 50.8203C27.1283 50.8203 22.913 55.0365 22.9141 60.2363L22.915 62.7705C22.9164 67.9683 27.1303 72.1816 32.3281 72.1816C32.734 72.1814 33.0633 71.8522 33.0635 71.4463V51.5557C33.0631 51.1498 32.734 50.8205 32.3281 50.8203ZM81.4424 50.8203C81.0365 50.8205 80.7074 51.1498 80.707 51.5557V71.4463C80.7073 71.8522 81.0364 72.1815 81.4424 72.1816C86.4776 72.1814 90.5905 68.2275 90.8438 63.2549L90.8564 62.7705V60.2363C90.8575 55.0367 86.6421 50.8205 81.4424 50.8203Z" fill="#121212"/>
</svg>
