<svg width="85" height="85" viewBox="0 0 85 85" fill="none" xmlns="http://www.w3.org/2000/svg">
<path fill-rule="evenodd" clip-rule="evenodd" d="M61.9298 17.6143C64.9933 17.6143 67.4769 20.0981 67.4771 23.1615C67.477 25.9906 65.3586 28.3228 62.6218 28.6636C62.6268 28.6974 62.6306 28.7317 62.6307 28.7669V56.0528C62.6307 56.0861 62.6269 56.1187 62.6224 56.1507C65.359 56.4917 67.477 58.8245 67.4771 61.6534C67.477 64.7169 64.9933 67.2006 61.9298 67.2007C59.0865 67.2007 56.7439 65.0611 56.4216 62.3043C56.3629 62.3276 56.3006 62.3435 56.2354 62.3502L56.1635 62.3543H28.9393C28.5945 65.0868 26.2639 67.2006 23.4379 67.2007C20.3744 67.2006 17.8907 64.7169 17.8906 61.6534C17.8906 58.8274 20.0045 56.4961 22.737 56.1514V29.3254C20.0046 28.9806 17.8907 26.65 17.8906 23.824C17.8907 20.7606 20.3744 18.2769 23.4379 18.2768C26.0309 18.2768 28.2083 20.0564 28.8161 22.4607H56.1635L56.2354 22.4641C56.3004 22.4707 56.363 22.4861 56.4216 22.5092C56.7446 19.7532 59.087 17.6143 61.9298 17.6143ZM23.4379 57.5079C21.1485 57.508 19.2923 59.3641 19.2923 61.6534C19.2924 63.9428 21.1486 65.7989 23.4379 65.799C25.6394 65.7989 27.4388 64.0824 27.5738 61.9149C27.5413 61.8341 27.5232 61.7458 27.5232 61.6534C27.5232 61.561 27.5413 61.4728 27.5738 61.392C27.4389 59.2244 25.6394 57.508 23.4379 57.5079ZM61.9298 57.5079C59.6404 57.5079 57.7843 59.364 57.7843 61.6534C57.7843 63.9428 59.6404 65.799 61.9298 65.799C64.2192 65.7989 66.0753 63.9428 66.0754 61.6534C66.0753 59.364 64.2192 57.508 61.9298 57.5079ZM56.4216 23.8131C56.3629 23.8363 56.3005 23.8523 56.2354 23.8589L56.1635 23.8624H28.9844C28.9654 26.6712 26.859 28.9823 24.1387 29.3254V56.1514C26.6418 56.467 28.6235 58.4496 28.9393 60.9526H56.1635L56.2354 60.956C56.3004 60.9626 56.363 60.978 56.4216 61.0012C56.7178 58.473 58.7133 56.4656 61.2358 56.1507C61.2313 56.1187 61.229 56.086 61.229 56.0528V28.7669C61.229 28.7318 61.2322 28.6973 61.2372 28.6636C58.7139 28.3491 56.7175 26.3421 56.4216 23.8131ZM23.4379 19.6785C21.1486 19.6786 19.2924 21.5347 19.2923 23.824C19.2924 26.1133 21.1486 27.9694 23.4379 27.9696C25.7272 27.9695 27.5833 26.1134 27.5834 23.824C27.5834 23.6758 27.5753 23.5295 27.5601 23.3853C27.5365 23.315 27.5232 23.2398 27.5232 23.1615C27.5232 23.1507 27.5241 23.14 27.5246 23.1293C27.1939 21.1708 25.4904 19.6785 23.4379 19.6785ZM61.9298 19.016C59.6404 19.016 57.7844 20.8722 57.7843 23.1615C57.7843 25.4509 59.6404 27.307 61.9298 27.3071C64.2192 27.307 66.0753 25.4508 66.0754 23.1615C66.0752 20.8722 64.2191 19.016 61.9298 19.016Z" fill="#121212"/>
</svg>
