<svg width="112" height="112" viewBox="0 0 112 112" fill="none" xmlns="http://www.w3.org/2000/svg">
<g clip-path="url(#clip0_2551_29610)">
<path d="M37.9961 18C48.4895 18 56.9961 26.5066 56.9961 37C56.9961 39.7559 56.4073 42.3738 55.3516 44.7373C55.1661 45.1525 55.2439 45.6423 55.5654 45.9639C55.8663 46.2647 56.3118 46.3514 56.7031 46.21L56.8672 46.1348C60.4593 44.1378 64.5947 43 68.9961 43C82.8032 43 93.9961 54.1929 93.9961 68C93.9961 81.8071 82.8032 93 68.9961 93C55.189 93 43.9961 81.8071 43.9961 68C43.9961 64.5327 44.7033 61.231 45.9795 58.2295L46.2422 57.6328C46.5712 56.9118 46.4452 56.0546 45.8848 55.4941C45.372 54.9818 44.6058 54.8318 43.917 55.0576L43.2119 55.2734C41.5546 55.7462 39.8051 56 37.9961 56C27.5027 56 18.9961 47.4934 18.9961 37C18.9961 26.5066 27.5027 18 37.9961 18ZM37.9961 20C28.6073 20 20.9961 27.6112 20.9961 37C20.9961 46.3888 28.6073 54 37.9961 54C39.8486 54 41.6287 53.7033 43.2939 53.1572L43.5469 53.083C44.7401 52.7769 46.0806 53.0165 47.0889 53.8848L47.2998 54.0801L47.5117 54.3105C48.45 55.4145 48.6461 56.9124 48.1729 58.1924L48.0615 58.4639C46.7364 61.367 45.9961 64.5943 45.9961 68C45.9961 80.7025 56.2935 91 68.9961 91C81.6986 91 91.9961 80.7025 91.9961 68C91.9961 55.2975 81.6986 45 68.9961 45C64.9435 45 61.1415 46.0468 57.8389 47.8828C56.7408 48.4933 55.3417 48.3967 54.3447 47.5557L54.1514 47.3779C53.2114 46.4379 53.021 45.0512 53.5254 43.9219L53.6973 43.5234C54.5329 41.5162 54.9961 39.3144 54.9961 37C54.9961 27.6112 47.3849 20 37.9961 20ZM68.9961 54C73.4144 54 76.9961 57.5817 76.9961 62C76.9961 63.806 76.3936 65.4698 75.3848 66.8076C79.3519 69.2219 81.9961 73.7954 81.9961 79C81.9961 79.5523 81.5484 80 80.9961 80C80.4438 80 79.9961 79.5523 79.9961 79C79.9961 74.039 77.2421 69.8234 73.374 67.9893C73.0759 67.8478 72.8671 67.5681 72.8154 67.2422C72.7639 66.9163 72.8764 66.5861 73.1162 66.3594C74.2749 65.2638 74.9961 63.717 74.9961 62C74.9961 58.6863 72.3098 56 68.9961 56C65.6824 56 62.9961 58.6863 62.9961 62C62.9961 63.7171 63.7176 65.264 64.876 66.3594C65.1155 66.5861 65.2273 66.9164 65.1758 67.2422C65.1241 67.5681 64.9153 67.8478 64.6172 67.9893C60.7495 69.8235 57.9961 74.0392 57.9961 79C57.9961 79.5523 57.5484 80 56.9961 80C56.4438 80 55.9961 79.5523 55.9961 79C55.9961 73.7961 58.6392 69.2223 62.6055 66.8076C61.5972 65.4698 60.9961 63.8054 60.9961 62C60.9961 57.5817 64.5778 54 68.9961 54ZM16.9961 58C19.7575 58 21.9961 60.2386 21.9961 63C21.9961 65.7614 19.7575 68 16.9961 68C14.2347 68 11.9961 65.7614 11.9961 63C11.9961 60.2386 14.2347 58 16.9961 58ZM16.9961 60C15.3392 60 13.9961 61.3431 13.9961 63C13.9961 64.6569 15.3392 66 16.9961 66C18.6529 66 19.9961 64.6569 19.9961 63C19.9961 61.3431 18.6529 60 16.9961 60ZM37.9922 27C41.3059 27 43.9922 29.6863 43.9922 33C43.9922 34.2358 43.6156 35.3825 42.9756 36.3359C45.6694 37.9101 47.4961 40.7367 47.4961 44C47.4961 44.5523 47.0484 45 46.4961 45C45.9438 45 45.4961 44.5523 45.4961 44C45.4961 41.1651 43.6804 38.6858 41.0107 37.5898C40.6953 37.4603 40.4672 37.1792 40.4062 36.8438C40.3454 36.508 40.4608 36.1637 40.7109 35.9316C41.5003 35.1992 41.9922 34.1578 41.9922 33C41.9922 30.7909 40.2013 29 37.9922 29C35.783 29 33.9922 30.7909 33.9922 33C33.9922 34.1595 34.4845 35.2025 35.2744 35.9346C35.5246 36.1664 35.6397 36.51 35.5791 36.8457C35.5185 37.1813 35.2909 37.4629 34.9756 37.5928C32.3092 38.69 30.4961 41.1673 30.4961 44C30.4961 44.5523 30.0484 45 29.4961 45C28.9438 45 28.4961 44.5523 28.4961 44C28.4961 40.7395 30.3189 37.9138 33.0088 36.3389C32.3682 35.3845 31.9922 34.2362 31.9922 33C31.9922 29.6863 34.6785 27 37.9922 27ZM87.9961 19.625C93.5189 19.625 97.9961 24.1022 97.9961 29.625C97.9961 35.1478 93.5189 39.625 87.9961 39.625C82.4732 39.625 77.9961 35.1478 77.9961 29.625C77.9961 24.1022 82.4732 19.625 87.9961 19.625ZM87.9961 21.625C83.5778 21.625 79.9961 25.2067 79.9961 29.625C79.9961 34.0433 83.5778 37.625 87.9961 37.625C92.4144 37.625 95.9961 34.0433 95.9961 29.625C95.9961 25.2067 92.4144 21.625 87.9961 21.625Z" fill="white"/>
</g>
<defs>
<clipPath id="clip0_2551_29610">
<rect width="112" height="112" fill="white" transform="translate(-0.00390625)"/>
</clipPath>
</defs>
</svg>
