<svg width="113" height="113" viewBox="0 0 113 113" fill="none" xmlns="http://www.w3.org/2000/svg">
<path d="M74.0018 43.0409C73.6631 42.7026 73.1273 42.6815 72.764 42.9777L72.6935 43.0409L61.0608 54.6728L50.6369 47.741C50.3504 47.5508 49.9857 47.5374 49.6891 47.6958L49.5663 47.7744L39.8607 55.1254C39.4535 55.4338 39.3737 56.0147 39.6818 56.422C39.9903 56.8289 40.5703 56.909 40.9775 56.6009L50.159 49.6456L60.6677 56.6334C61.0346 56.8772 61.5227 56.8283 61.8342 56.5168L74.0018 44.3492L74.0651 44.2787C74.3613 43.9154 74.3404 43.3796 74.0018 43.0409Z" fill="#121212"/>
<path fill-rule="evenodd" clip-rule="evenodd" d="M31.5917 27.458C27.5889 27.4582 24.3439 30.7031 24.3438 34.706V66.3218C24.3439 70.3247 27.5888 73.5696 31.5917 73.5698H55.9586V84.365H44.2364C43.7257 84.3652 43.3113 84.7794 43.3112 85.2902C43.3112 85.801 43.7256 86.2152 44.2364 86.2154H56.8676C56.873 86.2155 56.8784 86.2163 56.8838 86.2163C56.8893 86.2163 56.8947 86.2155 56.9001 86.2154H69.5285L69.6234 86.2108C70.0899 86.1635 70.4537 85.7692 70.4537 85.2902C70.4536 84.8112 70.0899 84.4168 69.6234 84.3695L69.5285 84.365H57.809V73.5698H82.1768C86.1798 73.5697 89.4247 70.3247 89.4248 66.3218V34.706C89.4246 30.7031 86.1797 27.4581 82.1768 27.458H31.5917ZM82.1768 29.3084C85.1578 29.3085 87.5742 31.725 87.5744 34.706V66.3218C87.5743 69.3028 85.1578 71.7193 82.1768 71.7194H31.5917C28.6108 71.7192 26.1943 69.3028 26.1941 66.3218V34.706C26.1943 31.7251 28.6108 29.3086 31.5917 29.3084H82.1768Z" fill="#121212"/>
</svg>
