<svg width="85" height="84" viewBox="0 0 85 84" fill="none" xmlns="http://www.w3.org/2000/svg">
<g clip-path="url(#clip0_2551_29405)">
<path d="M33.0209 36.979C33.2649 36.735 33.6507 36.7199 33.9125 36.9334L33.9632 36.979L42.5931 45.6088L51.2236 36.979L51.2744 36.9334C51.5361 36.7199 51.9219 36.735 52.1659 36.979C52.4097 37.2229 52.4254 37.6088 52.2121 37.8705L52.1659 37.9213L43.0649 47.0229C42.8048 47.2829 42.3828 47.2827 42.1226 47.0229L33.0209 37.9213L32.9754 37.8705C32.7619 37.6088 32.7771 37.2229 33.0209 36.979Z" fill="white"/>
<path fill-rule="evenodd" clip-rule="evenodd" d="M60.7964 20.8555C62.18 20.8555 63.5073 21.4052 64.4857 22.3835C65.464 23.3618 66.0136 24.6891 66.0137 26.0727V39.7246C66.0137 45.9358 63.5458 51.8933 59.1539 56.2854C54.7619 60.6772 48.8049 63.1444 42.5938 63.1445C39.5183 63.1445 36.4727 62.5389 33.6313 61.362C30.79 60.1851 28.2083 58.46 26.0336 56.2854C21.6415 51.8933 19.1738 45.9359 19.1738 39.7246V26.0727C19.1739 24.6891 19.7235 23.3618 20.7018 22.3835C21.619 21.4664 22.8428 20.926 24.132 20.862L24.3911 20.8555H60.7964ZM24.1984 22.1928C23.2384 22.2404 22.3271 22.643 21.6442 23.3258C20.9157 24.0542 20.5067 25.0426 20.5066 26.0727V39.7246C20.5066 45.5824 22.8338 51.2002 26.9759 55.3424C29.0269 57.3934 31.4618 59.0208 34.1415 60.1308C36.8212 61.2406 39.6934 61.8117 42.5938 61.8117C48.4515 61.8116 54.0695 59.4845 58.2116 55.3424C62.3535 51.2003 64.6809 45.5823 64.6809 39.7246V26.0727C64.6808 25.0426 64.2717 24.0542 63.5434 23.3258C62.815 22.5974 61.8265 22.1883 60.7964 22.1882H24.3911L24.1984 22.1928Z" fill="white"/>
</g>
<defs>
<clipPath id="clip0_2551_29405">
<rect width="84" height="84" fill="white" transform="translate(0.59375)"/>
</clipPath>
</defs>
</svg>
