<svg width="112" height="112" viewBox="0 0 112 112" fill="none" xmlns="http://www.w3.org/2000/svg">
<mask id="mask0_385_9915" style="mask-type:alpha" maskUnits="userSpaceOnUse" x="12" y="22" width="88" height="69">
<path d="M93.3291 22.3525C95.4425 22.4598 97.123 24.2076 97.123 26.3477V67.3477L97.1182 67.5537C97.0144 69.5989 95.3742 71.239 93.3291 71.3428L93.123 71.3477H53.9551C53.9825 70.9017 53.998 70.4524 53.998 70C53.998 69.7818 53.9947 69.5644 53.9883 69.3477H93.123C94.2276 69.3477 95.123 68.4522 95.123 67.3477V26.3477C95.123 25.2431 94.2276 24.3477 93.123 24.3477H26.123C25.0185 24.3477 24.123 25.2431 24.123 26.3477V47.5557C23.4454 47.6981 22.7782 47.8666 22.123 48.0605V26.3477C22.123 24.2076 23.8036 22.4598 25.917 22.3525L26.123 22.3477H93.123L93.3291 22.3525Z" fill="black"/>
<path d="M54.998 79H99.998" stroke="black" stroke-width="2"/>
<path d="M53.999 47.5333H60.2648L62.7712 39L68.6193 55L74.4674 44.3333L76.9737 50.0222L79.0623 47.5333H86.999" stroke="black" stroke-width="2" stroke-linejoin="round"/>
<mask id="path-4-inside-1_385_9915" fill="white">
<path d="M33.6424 51.9629C34.7464 51.9632 35.642 52.8588 35.6424 53.9629V57.4971C37.0945 58.1032 38.4256 58.9414 39.5906 59.9639L42.7654 58.1318C43.7218 57.5801 44.9446 57.9072 45.4969 58.8633L48.6619 64.3457C49.2141 65.3021 48.8866 66.5257 47.9304 67.0781L44.3963 69.1172C44.4591 69.6631 44.4929 70.2185 44.4929 70.7812C44.4929 71.6093 44.4212 72.4212 44.2869 73.2109L47.9314 75.3154C48.8876 75.8677 49.2156 77.0905 48.6638 78.0469L45.4988 83.5293C44.9466 84.4858 43.7229 84.8138 42.7664 84.2617L39.0027 82.0879C37.9847 82.8902 36.8555 83.558 35.6424 84.0645L35.6424 88.333C35.6422 89.4372 34.7466 90.3327 33.6424 90.333H27.3123C26.2078 90.333 25.3124 89.4375 25.3123 88.333V84.3516C23.9397 83.8669 22.6621 83.1807 21.5164 82.3271L18.1648 84.2627C17.2083 84.8147 15.9856 84.4867 15.4334 83.5303L12.2683 78.0488C11.7161 77.0924 12.0435 75.8688 12.9998 75.3164L15.99 73.5889C15.8104 72.6809 15.7156 71.742 15.7156 70.7812C15.7156 70.0841 15.7662 69.3982 15.8621 68.7275L13.0017 67.0762C12.0453 66.5239 11.7173 65.3012 12.2693 64.3447L15.4344 58.8623C15.9867 57.9061 17.2104 57.5778 18.1668 58.1299L20.9099 59.7139C22.205 58.6369 23.6921 57.782 25.3123 57.21V53.9629C25.3126 52.8586 26.2079 51.9629 27.3123 51.9629H33.6424ZM30.1072 65.25C27.0508 65.25 24.573 67.7278 24.573 70.7842C24.5731 73.8405 27.0509 76.3184 30.1072 76.3184C33.1634 76.3182 35.6413 73.8404 35.6414 70.7842C35.6414 67.7279 33.1635 65.2501 30.1072 65.25Z"/>
</mask>
<path d="M33.6424 51.9629L33.643 49.9629H33.6424V51.9629ZM35.6424 53.9629H37.6424L37.6424 53.9623L35.6424 53.9629ZM35.6424 57.4971H33.6424C33.6424 58.304 34.1273 59.0319 34.872 59.3427L35.6424 57.4971ZM39.5906 59.9639L38.2713 61.4671C38.9154 62.0323 39.848 62.1244 40.5902 61.6961L39.5906 59.9639ZM42.7654 58.1318L41.766 56.3994L41.7658 56.3996L42.7654 58.1318ZM45.4969 58.8633L47.2289 57.8633L47.2287 57.8629L45.4969 58.8633ZM48.6619 64.3457L46.9298 65.3456L46.9298 65.3457L48.6619 64.3457ZM47.9304 67.0781L48.9299 68.8105L48.931 68.8099L47.9304 67.0781ZM44.3963 69.1172L43.3968 67.3848C42.7061 67.7833 42.3182 68.5539 42.4094 69.346L44.3963 69.1172ZM44.4929 70.7812H46.4929V70.7812L44.4929 70.7812ZM44.2869 73.2109L42.3152 72.8756C42.175 73.7001 42.5626 74.5247 43.2868 74.9429L44.2869 73.2109ZM47.9314 75.3154L48.9316 73.5835L48.9315 73.5834L47.9314 75.3154ZM48.6638 78.0469L50.3959 79.0468L50.3962 79.0463L48.6638 78.0469ZM45.4988 83.5293L47.2309 84.5293L47.2309 84.5292L45.4988 83.5293ZM42.7664 84.2617L41.7661 85.9936L41.7667 85.9939L42.7664 84.2617ZM39.0027 82.0879L40.003 80.356C39.2943 79.9466 38.4076 80.0105 37.7648 80.5171L39.0027 82.0879ZM35.6424 84.0645L34.8719 82.2188C34.1273 82.5297 33.6424 83.2575 33.6424 84.0645H35.6424ZM35.6424 88.333L37.6424 88.3333V88.333H35.6424ZM33.6424 90.333V92.333H33.643L33.6424 90.333ZM25.3123 88.333H23.3123V88.3333L25.3123 88.333ZM25.3123 84.3516H27.3123C27.3123 83.5037 26.7777 82.748 25.9782 82.4657L25.3123 84.3516ZM21.5164 82.3271L22.7113 80.7233C22.0708 80.2462 21.2078 80.1958 20.5162 80.5952L21.5164 82.3271ZM18.1648 84.2627L19.1644 85.995L19.165 85.9946L18.1648 84.2627ZM15.4334 83.5303L17.1654 82.5303L17.1654 82.5302L15.4334 83.5303ZM12.2683 78.0488L10.5363 79.0488L10.5363 79.0489L12.2683 78.0488ZM12.9998 75.3164L14.0001 77.0483L14.0003 77.0482L12.9998 75.3164ZM15.99 73.5889L16.9905 75.3206C17.7315 74.8925 18.1181 74.0404 17.952 73.2008L15.99 73.5889ZM15.7156 70.7812L13.7156 70.7812V70.7812H15.7156ZM15.8621 68.7275L17.842 69.0105C17.9576 68.2017 17.5696 67.404 16.8621 66.9955L15.8621 68.7275ZM13.0017 67.0762L12.0017 68.8082L12.0018 68.8082L13.0017 67.0762ZM12.2693 64.3447L10.5372 63.3448L10.5371 63.3451L12.2693 64.3447ZM15.4344 58.8623L13.7025 57.8619L13.7023 57.8624L15.4344 58.8623ZM18.1668 58.1299L19.1669 56.3979L19.1666 56.3977L18.1668 58.1299ZM20.9099 59.7139L19.9098 61.4459C20.6352 61.8647 21.5447 61.7872 22.1887 61.2516L20.9099 59.7139ZM25.3123 57.21L25.9782 59.0958C26.7777 58.8135 27.3123 58.0578 27.3123 57.21H25.3123ZM25.3123 53.9629L23.3123 53.9623V53.9629H25.3123ZM27.3123 51.9629V53.9629V51.9629ZM30.1072 65.25L30.1073 63.25H30.1072V65.25ZM24.573 70.7842H22.573V70.7842L24.573 70.7842ZM30.1072 76.3184V78.3184H30.1073L30.1072 76.3184ZM35.6414 70.7842L37.6414 70.7842V70.7842H35.6414ZM33.6424 51.9629L33.6417 53.9629L33.6424 53.9635L35.6424 53.9629L37.6424 53.9623C37.6417 51.7541 35.8511 49.9636 33.643 49.9629L33.6424 51.9629ZM35.6424 53.9629L33.6424 53.9629V57.4971H35.6424L37.6424 57.4971V53.9629H35.6424ZM35.6424 57.4971L34.872 59.3427C36.1201 59.8637 37.2665 60.5852 38.2713 61.4671L39.5906 59.9639L40.9099 58.4607C39.5847 57.2977 38.0689 56.3426 36.4127 55.6514L35.6424 57.4971ZM39.5906 59.9639L40.5902 61.6961L43.765 59.8641L42.7654 58.1318L41.7658 56.3996L38.591 58.2316L39.5906 59.9639ZM42.7654 58.1318L43.7648 59.8642L43.765 59.8637L45.4969 58.8633L47.2287 57.8629C46.1236 55.9498 43.6778 55.2966 41.766 56.3994L42.7654 58.1318ZM45.4969 58.8633L43.7648 59.8632L46.9298 65.3456L48.6619 64.3457L50.394 63.3458L47.2289 57.8633L45.4969 58.8633ZM48.6619 64.3457L46.9298 65.3457L46.9299 65.3464L47.9304 67.0781L48.931 68.8099C50.8437 67.7048 51.4981 65.2581 50.3939 63.3457L48.6619 64.3457ZM47.9304 67.0781L46.931 65.3458L43.3968 67.3848L44.3963 69.1172L45.3958 70.8495L48.9299 68.8105L47.9304 67.0781ZM44.3963 69.1172L42.4094 69.346C42.464 69.8197 42.4929 70.2986 42.4929 70.7813L44.4929 70.7812L46.4929 70.7812C46.4929 70.1384 46.4543 69.5065 46.3831 68.8883L44.3963 69.1172ZM44.4929 70.7812H42.4929C42.4929 71.4936 42.4312 72.1933 42.3152 72.8756L44.2869 73.2109L46.2586 73.5462C46.4112 72.6491 46.4929 71.725 46.4929 70.7812H44.4929ZM44.2869 73.2109L43.2868 74.9429L46.9313 77.0474L47.9314 75.3154L48.9315 73.5834L45.287 71.479L44.2869 73.2109ZM47.9314 75.3154L46.9312 77.0474L46.9314 77.0475L48.6638 78.0469L50.3962 79.0463C51.4999 77.1331 50.8438 74.6878 48.9316 73.5835L47.9314 75.3154ZM48.6638 78.0469L46.9318 77.0469L43.7667 82.5294L45.4988 83.5293L47.2309 84.5292L50.3959 79.0468L48.6638 78.0469ZM45.4988 83.5293L43.7668 82.5293L43.7661 82.5295L42.7664 84.2617L41.7667 85.9939C43.6798 87.0981 46.1264 86.4422 47.2309 84.5293L45.4988 83.5293ZM42.7664 84.2617L43.7667 82.5298L40.003 80.356L39.0027 82.0879L38.0024 83.8198L41.7661 85.9936L42.7664 84.2617ZM39.0027 82.0879L37.7648 80.5171C36.8876 81.2084 35.9153 81.7832 34.8719 82.2188L35.6424 84.0645L36.4128 85.9101C37.7957 85.3328 39.0818 84.572 40.2407 83.6587L39.0027 82.0879ZM35.6424 84.0645H33.6424L33.6424 88.333H35.6424H37.6424L37.6424 84.0645H35.6424ZM35.6424 88.333L33.6424 88.3327L33.6417 88.333L33.6424 90.333L33.643 92.333C35.8509 92.3323 37.6421 90.5422 37.6424 88.3333L35.6424 88.333ZM33.6424 90.333V88.333H27.3123V90.333V92.333H33.6424V90.333ZM27.3123 90.333V88.333V88.3327L25.3123 88.333L23.3123 88.3333C23.3126 90.5418 25.103 92.333 27.3123 92.333V90.333ZM25.3123 88.333H27.3123V84.3516H25.3123H23.3123V88.333H25.3123ZM25.3123 84.3516L25.9782 82.4657C24.7971 82.0486 23.6975 81.4581 22.7113 80.7233L21.5164 82.3271L20.3215 83.931C21.6266 84.9033 23.0822 85.6851 24.6463 86.2374L25.3123 84.3516ZM21.5164 82.3271L20.5162 80.5952L17.1646 82.5308L18.1648 84.2627L19.165 85.9946L22.5166 84.0591L21.5164 82.3271ZM18.1648 84.2627L17.1652 82.5304L17.1654 82.5303L15.4334 83.5303L13.7013 84.5303C14.8056 86.4429 17.2511 87.0991 19.1644 85.995L18.1648 84.2627ZM15.4334 83.5303L17.1654 82.5302L14.0003 77.0488L12.2683 78.0488L10.5363 79.0489L13.7014 84.5303L15.4334 83.5303ZM12.2683 78.0488L14.0004 77.0489L14.0001 77.0483L12.9998 75.3164L11.9995 73.5845C10.0861 74.6897 9.4323 77.1366 10.5363 79.0488L12.2683 78.0488ZM12.9998 75.3164L14.0003 77.0482L16.9905 75.3206L15.99 73.5889L14.9895 71.8571L11.9993 73.5846L12.9998 75.3164ZM15.99 73.5889L17.952 73.2008C17.7974 72.419 17.7156 71.6101 17.7156 70.7812H15.7156H13.7156C13.7156 71.8739 13.8235 72.9427 14.028 73.9769L15.99 73.5889ZM15.7156 70.7812L17.7156 70.7813C17.7156 70.181 17.7592 69.5897 17.842 69.0105L15.8621 68.7275L13.8822 68.4446C13.7733 69.2068 13.7156 69.9871 13.7156 70.7812L15.7156 70.7812ZM15.8621 68.7275L16.8621 66.9955L14.0017 65.3441L13.0017 67.0762L12.0018 68.8082L14.8621 70.4596L15.8621 68.7275ZM13.0017 67.0762L14.0018 65.3442L14.0016 65.3444L12.2693 64.3447L10.5371 63.3451C9.43279 65.2586 10.0893 67.704 12.0017 68.8082L13.0017 67.0762ZM12.2693 64.3447L14.0014 65.3447L17.1664 59.8622L15.4344 58.8623L13.7023 57.8624L10.5372 63.3448L12.2693 64.3447ZM15.4344 58.8623L17.1662 59.8627C17.1674 59.8605 17.1679 59.8602 17.1672 59.8609C17.1667 59.8616 17.166 59.8622 17.1653 59.8627C17.1642 59.8635 17.1648 59.8629 17.167 59.8623C17.1692 59.8617 17.1699 59.862 17.1683 59.8618C17.1674 59.8617 17.1663 59.8615 17.1654 59.8611C17.1644 59.8608 17.1648 59.8608 17.1669 59.862L18.1668 58.1299L19.1666 56.3977C17.253 55.2931 14.8069 55.9502 13.7025 57.8619L15.4344 58.8623ZM18.1668 58.1299L17.1667 59.8619L19.9098 61.4459L20.9099 59.7139L21.91 57.9819L19.1669 56.3979L18.1668 58.1299ZM20.9099 59.7139L22.1887 61.2516C23.3053 60.3231 24.5857 59.5876 25.9782 59.0958L25.3123 57.21L24.6464 55.3241C22.7986 55.9765 21.1047 56.9507 19.6311 58.1761L20.9099 59.7139ZM25.3123 57.21H27.3123V53.9629H25.3123H23.3123V57.21H25.3123ZM25.3123 53.9629L27.3123 53.9635V53.9629V51.9629V49.9629C25.1027 49.9629 23.313 51.7545 23.3123 53.9623L25.3123 53.9629ZM27.3123 51.9629V53.9629H33.6424V51.9629V49.9629H27.3123V51.9629ZM30.1072 65.25V63.25C25.9463 63.25 22.573 66.6232 22.573 70.7842H24.573H26.573C26.573 68.8324 28.1554 67.25 30.1072 67.25V65.25ZM24.573 70.7842L22.573 70.7842C22.5731 74.9451 25.9463 78.3184 30.1072 78.3184V76.3184V74.3184C28.1555 74.3184 26.5731 72.736 26.573 70.7841L24.573 70.7842ZM30.1072 76.3184L30.1073 78.3184C34.268 78.3182 37.6413 74.9451 37.6414 70.7842L35.6414 70.7842L33.6414 70.7841C33.6414 72.7358 32.0589 74.3183 30.1071 74.3184L30.1072 76.3184ZM35.6414 70.7842H37.6414C37.6414 66.6232 34.268 63.2502 30.1073 63.25L30.1072 65.25L30.1071 67.25C32.059 67.2501 33.6414 68.8326 33.6414 70.7842H35.6414Z" fill="black" mask="url(#path-4-inside-1_385_9915)"/>
</mask>
<g mask="url(#mask0_385_9915)">
<path d="M103 99L8.99999 99L9 11L103 11L103 99Z" fill="url(#paint0_linear_385_9915)"/>
</g>
<defs>
<linearGradient id="paint0_linear_385_9915" x1="56" y1="99" x2="56" y2="8.46154" gradientUnits="userSpaceOnUse">
<stop stop-color="#A34DEE"/>
<stop offset="1" stop-color="#6943F5"/>
</linearGradient>
</defs>
</svg>
