<svg width="113" height="113" viewBox="0 0 113 113" fill="none" xmlns="http://www.w3.org/2000/svg">
<path d="M69.364 65.5963C68.416 65.5963 67.6473 66.365 67.6473 67.3129C67.6474 68.2608 68.4161 69.0295 69.364 69.0296C70.3119 69.0296 71.0805 68.2609 71.0806 67.3129C71.0806 66.3649 70.312 65.5963 69.364 65.5963Z" fill="white"/>
<path d="M44.2889 65.5963C43.341 65.5963 42.5723 66.365 42.5723 67.3129C42.5723 68.2608 43.341 69.0295 44.2889 69.0296C45.2369 69.0296 46.0055 68.2609 46.0056 67.3129C46.0056 66.3649 45.2369 65.5963 44.2889 65.5963Z" fill="white"/>
<path fill-rule="evenodd" clip-rule="evenodd" d="M47.4083 24.5723C40.2981 24.5724 34.1601 29.5507 32.6906 36.4586L32.6243 36.7886L32.6227 36.7951L31.0711 45.3201L31.0492 45.3371C31.0541 45.3433 31.0597 45.3494 31.0646 45.3557L27.5569 64.6223L27.48 65.0583C26.4045 71.6684 29.789 77.8564 35.2672 80.7759L28.1102 87.8367C27.7846 88.158 27.7817 88.6824 28.1029 89.0081C28.4242 89.3336 28.9487 89.3374 29.2743 89.0161L36.8771 81.5153C38.5522 82.1662 40.3801 82.5287 42.3061 82.533L71.3735 82.5338C73.2957 82.5338 75.121 82.1783 76.7944 81.5339L84.3786 89.0161C84.7043 89.3373 85.2287 89.3337 85.55 89.0081C85.8712 88.6824 85.8675 88.1579 85.5419 87.8367L78.4075 80.7978C84.0295 77.823 87.4608 71.4107 86.1575 64.6223L81.0917 36.7951L81.0901 36.7854L81.0213 36.4537C79.5186 29.5174 73.4176 24.5724 66.306 24.5723H47.4083ZM32.4504 46.9939C38.4559 53.63 47.3178 57.8283 57.205 57.8285C67.2024 57.8285 75.4343 53.8764 81.3756 47.6022L84.529 64.9272L84.5307 64.9353C86.1213 73.2222 79.7908 80.8768 71.3735 80.877H42.3409C33.9235 80.8769 27.593 73.2222 29.1837 64.9353L29.1853 64.9272L32.4504 46.9939ZM66.306 26.229C72.7352 26.2292 78.2365 30.7683 79.4632 37.1009L81.0019 45.5498C75.3057 52.035 67.2036 56.1717 57.205 56.1717C47.3136 56.1715 38.5211 51.7586 32.8314 44.9035L34.252 37.0976L34.311 36.804C35.6174 30.6624 41.0781 26.2292 47.4083 26.229H66.306Z" fill="white"/>
</svg>
