<svg width="112" height="113" viewBox="0 0 112 113" fill="none" xmlns="http://www.w3.org/2000/svg">
<path fill-rule="evenodd" clip-rule="evenodd" d="M57.5438 23.7332C56.662 23.2243 55.5758 23.223 54.6926 23.7295L27.0696 39.5682C26.1812 40.0777 25.6329 41.0239 25.6328 42.048V73.37C25.633 74.3911 26.1779 75.3346 27.0621 75.8452L54.5791 91.7323L54.7475 91.8216C55.5994 92.2406 56.6094 92.2103 57.4386 91.7314L84.9389 75.8452C85.8229 75.3345 86.3681 74.391 86.3682 73.37L86.3663 42.0239C86.3662 41.0666 85.8873 40.1772 85.0989 39.6491L84.937 39.5486L57.5438 23.7332ZM84.4624 73.37C84.4623 73.7102 84.2805 74.0252 83.986 74.1954L56.952 89.8117V58.3464L84.4615 42.4333L84.4624 73.37ZM55.0462 58.3464V89.8005L28.015 74.1954C27.7203 74.0252 27.5387 73.7103 27.5386 73.37V42.4342L55.0462 58.3464ZM68.8219 49.2783L55.9991 56.6957L28.6357 40.8672L41.4883 33.4973L68.8219 49.2783ZM55.6408 25.3821C55.9352 25.2134 56.2971 25.2144 56.5909 25.384L83.3867 40.8542L70.7267 48.1766L43.4005 32.4002L55.6408 25.3821Z" fill="#121212"/>
</svg>
