<svg width="113" height="113" viewBox="0 0 113 113" fill="none" xmlns="http://www.w3.org/2000/svg">
<path d="M23.6256 26.3408C24.1965 26.3408 24.6594 26.8037 24.6594 27.3746V82.1657L24.6634 82.3253C24.7464 83.964 26.1014 85.2671 27.7608 85.2671H89.7885L89.8945 85.2722C90.4156 85.3252 90.8223 85.7658 90.8223 86.3009C90.8223 86.8361 90.4156 87.2766 89.8945 87.3297L89.7885 87.3347H27.7608C24.9951 87.3347 22.7371 85.1626 22.5989 82.4313L22.5918 82.1657V27.3746C22.5918 26.8037 23.0546 26.3408 23.6256 26.3408Z" fill="white"/>
<path d="M82.5045 41.1461C82.5229 41.1465 82.5415 41.1468 82.56 41.1481L82.5893 41.1501C82.599 41.1511 82.6088 41.1529 82.6185 41.1542C82.6242 41.1549 82.63 41.1554 82.6357 41.1562C82.6584 41.1596 82.6811 41.1635 82.7033 41.1683C82.7203 41.172 82.737 41.1769 82.7538 41.1814C82.7649 41.1844 82.7762 41.1871 82.7871 41.1905C82.8058 41.1962 82.8243 41.2029 82.8427 41.2097C82.8563 41.2148 82.8697 41.2203 82.883 41.2259C82.8997 41.2328 82.9162 41.2402 82.9325 41.2481C82.9413 41.2523 82.9501 41.2567 82.9588 41.2612C82.9795 41.2719 83.0002 41.2833 83.0203 41.2955C83.0281 41.3002 83.036 41.3047 83.0436 41.3096C83.0635 41.3225 83.0829 41.3366 83.1021 41.351C83.1069 41.3546 83.1115 41.3585 83.1163 41.3621C83.1337 41.3757 83.151 41.3897 83.1677 41.4045C83.1766 41.4124 83.1854 41.4206 83.194 41.4288C83.2008 41.4353 83.2085 41.4413 83.2152 41.448C83.2216 41.4544 83.2272 41.4616 83.2334 41.4681C83.2437 41.479 83.2538 41.4901 83.2636 41.5015C83.2745 41.514 83.2848 41.5269 83.2949 41.5398C83.3031 41.5502 83.3114 41.5605 83.3192 41.5711C83.369 41.6394 83.4094 41.7122 83.4403 41.7882C83.4443 41.7978 83.4478 41.8077 83.4514 41.8175C83.4934 41.9301 83.5147 42.0481 83.516 42.1668C83.5161 42.1708 83.5171 42.1749 83.5171 42.1789V53.9696C83.5169 54.5403 83.0539 55.0031 82.4833 55.0034C81.9124 55.0034 81.4496 54.5405 81.4495 53.9696V44.6755L64.5463 61.5787C64.3525 61.7724 64.0894 61.8815 63.8154 61.8816C63.5414 61.8815 63.2783 61.7723 63.0845 61.5787L53.9893 52.4835L39.9826 66.4912C39.5789 66.8948 38.9244 66.8947 38.5207 66.4912C38.117 66.0875 38.1171 65.4331 38.5207 65.0294L53.2594 50.2907L53.3351 50.2221C53.519 50.0715 53.7505 49.9879 53.9903 49.9879C54.2643 49.988 54.5275 50.097 54.7212 50.2907L63.8154 59.3849L79.9886 43.2127H70.6925C70.1216 43.2127 69.6588 42.7498 69.6587 42.1789C69.6587 41.6079 70.1216 41.1451 70.6925 41.1451H82.4833L82.5045 41.1461Z" fill="white"/>
</svg>
