<svg width="112" height="112" viewBox="0 0 112 112" fill="none" xmlns="http://www.w3.org/2000/svg">
<path d="M54.8256 39.8145C55.4527 39.8155 55.962 40.324 55.9623 40.9513V44.7059C60.0835 44.7657 63.3935 48.0378 63.3938 52.1337C63.3935 52.7611 62.8843 53.2695 62.2571 53.2705C61.6292 53.2703 61.1206 52.7616 61.1203 52.1337C61.12 49.2927 58.803 46.9776 55.8512 46.9757H55.244C55.1144 47.0276 54.9736 47.0569 54.8256 47.0572C54.6769 47.0572 54.5336 47.0279 54.4034 46.9757H52.9668C50.4988 46.9763 48.5312 48.9214 48.5308 51.3006C48.5317 53.6793 50.4992 55.6212 52.9668 55.6218H56.8732C60.4694 55.6227 63.4342 58.4575 63.4346 62.0683C63.434 65.679 60.4693 68.5139 56.8732 68.5149H55.9623V72.3399C55.9623 72.9675 55.4529 73.4794 54.8256 73.4804C54.1973 73.4804 53.6888 72.9681 53.6888 72.3399V68.5149H53.1556C49.3733 68.514 46.2577 65.5306 46.2573 61.7647C46.2576 61.1368 46.766 60.6279 47.394 60.6279C48.0212 60.6289 48.5304 61.1374 48.5308 61.7647C48.5312 64.2153 50.5701 66.2368 53.1556 66.2377H56.8732C59.2655 66.2367 61.1568 64.3705 61.1573 62.0683C61.157 59.766 59.2657 57.8962 56.8732 57.8953H52.9668C49.2939 57.8947 46.2582 54.9863 46.2573 51.3006C46.2577 47.6144 49.2936 44.7027 52.9668 44.7022H53.6888V40.9513C53.6892 40.3233 54.1976 39.8145 54.8256 39.8145Z" fill="url(#paint0_linear_577_15232)"/>
<path fill-rule="evenodd" clip-rule="evenodd" d="M85.6069 18.4197C85.9954 18.0324 86.5952 17.981 87.0362 18.2716L87.214 18.4197L94.3048 25.5106C94.7476 25.9545 94.7474 26.6736 94.3048 27.1176L87.214 34.2085C86.77 34.6519 86.0511 34.6515 85.6069 34.2085C85.1629 33.7644 85.1632 33.0457 85.6069 32.6014L90.7612 27.4472H66.6412C78.3111 32.1238 86.5576 43.5292 86.5586 56.8696C86.5586 74.3761 72.3654 88.5693 54.8589 88.5693C54.4309 88.5692 54.0053 88.5528 53.5814 88.5359C53.5663 88.5397 53.5523 88.5476 53.537 88.5508L53.3074 88.573H18.1753L23.3221 93.7199L23.4666 93.8976C23.7581 94.339 23.7106 94.9381 23.3221 95.3269C22.9334 95.7154 22.3343 95.7629 21.8929 95.4713L21.7151 95.3269L14.6243 88.236C14.4113 88.0228 14.2911 87.7339 14.291 87.4325C14.2912 87.1312 14.4112 86.8421 14.6243 86.629L21.7151 79.5381L21.8929 79.39C22.3341 79.0996 22.9339 79.1502 23.3221 79.5381C23.7107 79.9269 23.7582 80.526 23.4666 80.9674L23.3221 81.1451L18.1678 86.2994H43.084C31.411 81.6234 23.1629 70.2132 23.1629 56.8696C23.1642 39.3647 37.3539 25.1745 54.8589 25.1736C55.0705 25.1736 55.2815 25.1843 55.4921 25.1884C55.546 25.1806 55.6026 25.1736 55.6587 25.1736H90.7538L85.6069 20.0267L85.4588 19.849C85.1679 19.4076 85.2185 18.8082 85.6069 18.4197ZM54.8589 27.4472C38.6103 27.448 25.4377 40.6211 25.4364 56.8696C25.4364 73.1191 38.6096 86.2949 54.8589 86.2957C71.1089 86.2957 84.285 73.1197 84.285 56.8696C84.2838 40.6206 71.1082 27.4472 54.8589 27.4472Z" fill="url(#paint1_linear_577_15232)"/>
<defs>
<linearGradient id="paint0_linear_577_15232" x1="54.4639" y1="18.0859" x2="54.4639" y2="95.6592" gradientUnits="userSpaceOnUse">
<stop stop-color="#505BFD"/>
<stop offset="1" stop-color="#B542FD"/>
</linearGradient>
<linearGradient id="paint1_linear_577_15232" x1="54.4639" y1="18.0859" x2="54.4639" y2="95.6592" gradientUnits="userSpaceOnUse">
<stop stop-color="#505BFD"/>
<stop offset="1" stop-color="#B542FD"/>
</linearGradient>
</defs>
</svg>
