<svg width="112" height="113" viewBox="0 0 112 113" fill="none" xmlns="http://www.w3.org/2000/svg">
<path d="M68.5436 65.5963C67.5957 65.5963 66.827 66.365 66.827 67.3129C66.8271 68.2608 67.5957 69.0295 68.5436 69.0296C69.4916 69.0296 70.2602 68.2609 70.2603 67.3129C70.2603 66.3649 69.4917 65.5963 68.5436 65.5963Z" fill="#121212"/>
<path d="M43.4686 65.5963C42.5207 65.5963 41.752 66.365 41.752 67.3129C41.752 68.2608 42.5207 69.0295 43.4686 69.0296C44.4166 69.0296 45.1852 68.2609 45.1853 67.3129C45.1853 66.3649 44.4166 65.5963 43.4686 65.5963Z" fill="#121212"/>
<path fill-rule="evenodd" clip-rule="evenodd" d="M46.588 24.5723C39.4778 24.5724 33.3398 29.5507 31.8703 36.4586L31.804 36.7886L31.8024 36.7951L30.2507 45.3201L30.2289 45.3371C30.2338 45.3433 30.2393 45.3494 30.2443 45.3557L26.7365 64.6223L26.6597 65.0583C25.5842 71.6684 28.9687 77.8564 34.4469 80.7759L27.2899 87.8367C26.9643 88.158 26.9613 88.6824 27.2826 89.0081C27.6039 89.3336 28.1284 89.3374 28.454 89.0161L36.0568 81.5153C37.7318 82.1662 39.5598 82.5287 41.4858 82.533L70.5531 82.5338C72.4754 82.5338 74.3007 82.1783 75.9741 81.5339L83.5583 89.0161C83.884 89.3373 84.4084 89.3337 84.7297 89.0081C85.0508 88.6824 85.0472 88.1579 84.7216 87.8367L77.5872 80.7978C83.2092 77.823 86.6405 71.4107 85.3372 64.6223L80.2714 36.7951L80.2698 36.7854L80.201 36.4537C78.6983 29.5174 72.5973 24.5724 65.4857 24.5723H46.588ZM31.6301 46.9939C37.6356 53.63 46.4974 57.8283 56.3847 57.8285C66.3821 57.8285 74.614 53.8764 80.5553 47.6022L83.7087 64.9272L83.7103 64.9353C85.301 73.2222 78.9705 80.8768 70.5531 80.877H41.5206C33.1031 80.8769 26.7727 73.2222 28.3634 64.9353L28.365 64.9272L31.6301 46.9939ZM65.4857 26.229C71.9149 26.2292 77.4162 30.7683 78.6429 37.1009L80.1816 45.5498C74.4854 52.035 66.3833 56.1717 56.3847 56.1717C46.4933 56.1715 37.7007 51.7586 32.0111 44.9035L33.4316 37.0976L33.4907 36.804C34.7971 30.6624 40.2578 26.2292 46.588 26.229H65.4857Z" fill="#121212"/>
</svg>
