<svg width="112" height="112" viewBox="0 0 112 112" fill="none" xmlns="http://www.w3.org/2000/svg">
<path d="M77.4897 76.4722C77.8781 76.0841 78.4777 76.0335 78.919 76.3241L79.0968 76.4722L82.4441 79.8158L85.7914 76.4722L85.9729 76.3241C86.414 76.0343 87.0141 76.0845 87.4021 76.4722C87.8452 76.9161 87.8449 77.6352 87.4021 78.0792L84.0511 81.4266L87.4021 84.7739L87.5466 84.9553C87.8373 85.3966 87.7902 85.9962 87.4021 86.3846C87.0137 86.773 86.4143 86.8198 85.9729 86.529L85.7914 86.3846L82.4441 83.0336L79.0968 86.3846L78.919 86.529C78.4778 86.8205 77.8785 86.7726 77.4897 86.3846C77.0459 85.9404 77.0456 85.218 77.4897 84.7739L80.8334 81.4266L77.4897 78.0792L77.3416 77.9015C77.051 77.4601 77.1014 76.8605 77.4897 76.4722Z" fill="url(#paint0_linear_577_15214)"/>
<path fill-rule="evenodd" clip-rule="evenodd" d="M19.441 18.4197C19.8295 18.0324 20.4293 17.981 20.8702 18.2716L21.048 18.4197L34.0115 31.3832C34.0942 31.2856 34.194 31.1989 34.3114 31.1314L35.2038 30.6353C39.7162 28.2278 44.8964 26.8474 50.3853 26.8473C68.2271 26.8473 82.6913 41.3089 82.6922 59.1505C82.6922 61.196 82.4931 63.1621 82.1405 65.0824L82.0775 65.3046C81.8796 65.7944 81.3584 66.0953 80.8186 65.997C80.2007 65.8835 79.7905 65.2892 79.904 64.6714L80.1224 63.3199C80.3129 61.9594 80.415 60.574 80.415 59.1505C80.414 42.5654 66.9706 29.1208 50.3853 29.1208C45.2814 29.1209 40.4671 30.4049 36.2739 32.6422L35.6259 32.9976L73.6907 71.0624C76.0519 69.0743 79.101 67.8743 82.4293 67.8743C89.9245 67.8759 96.0034 73.9532 96.0037 81.4488C96.0032 88.9441 89.9244 95.0217 82.4293 95.0232C74.9328 95.0232 68.8554 88.9451 68.8548 81.4488C68.855 78.0987 70.0682 75.0332 72.08 72.6657L19.441 20.0267L19.2928 19.849C19.0019 19.4076 19.0525 18.8082 19.441 18.4197ZM82.4293 70.1478C79.3644 70.1478 76.5857 71.3728 74.5497 73.3545C74.5241 73.3863 74.5015 73.4211 74.472 73.4507C74.4384 73.4843 74.3974 73.511 74.3609 73.5396C72.3617 75.5781 71.1285 78.3687 71.1283 81.4488C71.1289 87.6887 76.1893 92.746 82.4293 92.746C88.668 92.7445 93.726 87.6877 93.7265 81.4488C93.7262 75.2097 88.6681 70.1494 82.4293 70.1478Z" fill="url(#paint1_linear_577_15214)"/>
<path d="M26.4504 37.4188C26.8715 36.9534 27.5915 36.9169 28.0574 37.3373C28.5232 37.7585 28.5597 38.4783 28.1388 38.9443C23.3149 44.2799 20.3557 51.3684 20.3556 59.1505C20.3561 75.7343 33.7989 89.1751 50.3853 89.2135C55.0593 89.2135 59.5164 88.1219 63.5006 86.1847C64.0653 85.9102 64.7476 86.146 65.0224 86.7104C65.2967 87.2752 65.0612 87.9576 64.4966 88.2323C60.7504 90.0539 56.6101 91.1846 52.2626 91.4389L50.3853 91.4908C32.5457 91.4515 18.0826 76.9929 18.082 59.1505C18.0822 50.7809 21.2649 43.1545 26.4504 37.4188Z" fill="url(#paint2_linear_577_15214)"/>
<path d="M39.4842 74.8837C39.0681 75.353 38.3512 75.3952 37.8809 74.98C37.4106 74.564 37.3654 73.8473 37.7809 73.3767L39.4842 74.8837Z" fill="url(#paint3_linear_577_15214)"/>
<path d="M50.3853 67.6077C55.4406 67.6077 59.9148 69.8933 62.9933 73.3767C63.4085 73.8473 63.3635 74.5641 62.8933 74.98C62.4231 75.3955 61.7062 75.3528 61.29 74.8837C58.6052 71.8458 54.7329 69.8812 50.3853 69.8812C46.0382 69.8817 42.1687 71.8462 39.4842 74.8837L38.6326 74.1283L37.7809 73.3767C40.8591 69.8937 45.3306 67.6082 50.3853 67.6077Z" fill="url(#paint4_linear_577_15214)"/>
<path d="M40.5654 46.8239C41.9475 46.8239 43.0685 47.9449 43.0685 49.327C43.0685 50.7091 41.9475 51.8301 40.5654 51.8301C39.1839 51.8294 38.066 50.7087 38.066 49.327C38.0661 47.9454 39.1839 46.8246 40.5654 46.8239Z" fill="url(#paint5_linear_577_15214)"/>
<path d="M60.094 46.8239C61.4758 46.8242 62.597 47.9451 62.5971 49.327C62.5971 50.7089 61.4758 51.8298 60.094 51.8301C58.7119 51.8301 57.5909 50.7091 57.5909 49.327C57.5909 47.9449 58.7119 46.8239 60.094 46.8239Z" fill="url(#paint6_linear_577_15214)"/>
<defs>
<linearGradient id="paint0_linear_577_15214" x1="57.0429" y1="18.0859" x2="57.0429" y2="95.0232" gradientUnits="userSpaceOnUse">
<stop stop-color="#505BFD"/>
<stop offset="1" stop-color="#B542FD"/>
</linearGradient>
<linearGradient id="paint1_linear_577_15214" x1="57.0429" y1="18.0859" x2="57.0429" y2="95.0232" gradientUnits="userSpaceOnUse">
<stop stop-color="#505BFD"/>
<stop offset="1" stop-color="#B542FD"/>
</linearGradient>
<linearGradient id="paint2_linear_577_15214" x1="57.0429" y1="18.0859" x2="57.0429" y2="95.0232" gradientUnits="userSpaceOnUse">
<stop stop-color="#505BFD"/>
<stop offset="1" stop-color="#B542FD"/>
</linearGradient>
<linearGradient id="paint3_linear_577_15214" x1="57.0429" y1="18.0859" x2="57.0429" y2="95.0232" gradientUnits="userSpaceOnUse">
<stop stop-color="#505BFD"/>
<stop offset="1" stop-color="#B542FD"/>
</linearGradient>
<linearGradient id="paint4_linear_577_15214" x1="57.0429" y1="18.0859" x2="57.0429" y2="95.0232" gradientUnits="userSpaceOnUse">
<stop stop-color="#505BFD"/>
<stop offset="1" stop-color="#B542FD"/>
</linearGradient>
<linearGradient id="paint5_linear_577_15214" x1="57.0429" y1="18.0859" x2="57.0429" y2="95.0232" gradientUnits="userSpaceOnUse">
<stop stop-color="#505BFD"/>
<stop offset="1" stop-color="#B542FD"/>
</linearGradient>
<linearGradient id="paint6_linear_577_15214" x1="57.0429" y1="18.0859" x2="57.0429" y2="95.0232" gradientUnits="userSpaceOnUse">
<stop stop-color="#505BFD"/>
<stop offset="1" stop-color="#B542FD"/>
</linearGradient>
</defs>
</svg>
