<svg width="85" height="84" viewBox="0 0 85 84" fill="none" xmlns="http://www.w3.org/2000/svg">
<path d="M32.5431 27.0267C35.1331 26.068 37.9407 25.8547 40.6457 26.4115C43.3506 26.9683 45.8452 28.2735 47.8459 30.1771C49.7408 31.9802 51.1205 34.253 51.8478 36.7601H53.6564C56.1595 36.7602 58.5602 37.7549 60.3303 39.5248C62.1002 41.2947 63.0948 43.6955 63.0949 46.1986C63.0949 48.7018 62.1002 51.1024 60.3303 52.8724C58.5602 54.6425 56.1596 55.637 53.6564 55.6371H37.6789V55.6361C34.9174 55.638 32.2108 54.866 29.8664 53.4066C27.5219 51.947 25.6334 49.8592 24.4162 47.3802C23.199 44.9012 22.7009 42.1298 22.9797 39.3822C23.2586 36.6347 24.303 34.0202 25.9933 31.8363C27.6838 29.6523 29.9531 27.9855 32.5431 27.0267ZM40.4181 27.514C37.9193 26.9998 35.3263 27.1967 32.9338 28.0824C30.5411 28.9681 28.4446 30.5072 26.883 32.5248C25.3214 34.5423 24.3564 36.9582 24.0988 39.4964C23.8413 42.0345 24.3017 44.5942 25.426 46.8841C26.5504 49.1743 28.2952 51.1031 30.4611 52.4515C32.627 53.7998 35.1276 54.5139 37.6789 54.5121H53.6564C55.8613 54.512 57.9763 53.6366 59.5353 52.0775C61.0943 50.5184 61.9699 48.4034 61.9699 46.1986C61.9698 43.9939 61.0943 41.8787 59.5353 40.3197C57.9763 38.7608 55.8611 37.8852 53.6564 37.8851H51.4191C51.1629 37.8849 50.9393 37.7113 50.8752 37.4632C50.2373 34.993 48.9188 32.7502 47.0705 30.9916C45.2222 29.2331 42.9169 28.0284 40.4181 27.514Z" fill="white"/>
<path fill-rule="evenodd" clip-rule="evenodd" d="M32.5408 27.0287C35.1308 26.0699 37.9382 25.8567 40.6432 26.4135C43.3484 26.9703 45.8434 28.2747 47.8442 30.1785C49.7393 31.9816 51.1187 34.2542 51.846 36.7615H53.6544C56.1576 36.7615 58.5585 37.7561 60.3285 39.5262C62.0985 41.2963 63.0927 43.6972 63.0927 46.2004C63.0926 48.7035 62.0984 51.104 60.3285 52.874C58.5585 54.644 56.1576 55.6387 53.6544 55.6387H37.6775C34.9158 55.6407 32.2086 54.868 29.864 53.4085C27.5194 51.9489 25.6309 49.861 24.4137 47.382C23.1964 44.9028 22.699 42.1316 22.9778 39.3839C23.2566 36.6362 24.3009 34.0215 25.9913 31.8374C27.6817 29.6535 29.951 27.9875 32.5408 27.0287ZM40.4164 27.5154C37.9174 27.0011 35.324 27.1976 32.9314 28.0834C30.5388 28.9692 28.4423 30.5087 26.8807 32.5262C25.3191 34.5439 24.3549 36.9593 24.0973 39.4976C23.8397 42.036 24.2994 44.5957 25.4239 46.8859C26.5484 49.1761 28.293 51.1049 30.4589 52.4533C32.6249 53.8016 35.1256 54.5156 37.6769 54.5137H53.6544C55.8592 54.5137 57.9741 53.6376 59.5331 52.0786C61.0921 50.5196 61.9676 48.4051 61.9677 46.2004C61.9677 43.9955 61.0922 41.8807 59.5331 40.3216C57.974 38.7625 55.8592 37.8865 53.6544 37.8865H51.4175C51.1611 37.8864 50.9373 37.7129 50.8732 37.4646C50.2353 34.9942 48.917 32.7524 47.0686 30.9937C45.2202 29.2349 42.9154 28.0298 40.4164 27.5154Z" fill="white"/>
</svg>
