<svg width="112" height="112" viewBox="0 0 112 112" fill="none" xmlns="http://www.w3.org/2000/svg">
<g clip-path="url(#clip0_2536_21129)">
<path fill-rule="evenodd" clip-rule="evenodd" d="M53.7875 23.8507C55.2604 23.0405 57.0712 23.0976 58.4959 24.0236L87.3321 42.7676C88.6334 43.6135 89.4189 45.0606 89.4189 46.6127V65.3845C89.4189 66.9366 88.6334 68.3836 87.3321 69.2295L58.4959 87.9736C56.9762 88.9613 55.0169 88.9613 53.4973 87.9736L24.6611 69.2295C23.3597 68.3836 22.5742 66.9366 22.5742 65.3845V46.6127C22.5743 45.0606 23.3597 43.6135 24.6611 42.7676L53.4973 24.0236L53.7875 23.8507ZM25.1393 67.2519C25.2925 67.4176 25.467 67.5658 25.6606 67.6917L54.4968 86.4349C54.6814 86.5548 54.8772 86.6492 55.079 86.7206V67.8556L39.6004 57.1696L25.1393 67.2519ZM56.9133 67.8556V86.7206C57.1153 86.6491 57.3116 86.555 57.4963 86.4349L86.3326 67.6917C86.5511 67.5496 86.7437 67.3778 86.9102 67.1856L72.4017 57.1195L56.9133 67.8556ZM41.2063 56.0501L55.9952 66.2595L70.7922 56.0026L55.9979 45.7385L41.2063 56.0501ZM24.4085 65.3845C24.4085 65.4303 24.4098 65.4761 24.4121 65.5215L37.9883 56.0572L24.4085 46.6825V65.3845ZM74.0112 56.0044L87.5829 65.4212C87.583 65.409 87.5847 65.3967 87.5847 65.3845V46.6127C87.5847 46.6076 87.5838 46.6025 87.5838 46.5974L74.0112 56.0044ZM55.079 25.2757C54.9394 25.325 54.8025 25.3849 54.6706 25.4575L54.4968 25.5623L25.6606 44.3055C25.4164 44.4642 25.2016 44.6576 25.0229 44.8778L39.5951 54.9377L55.079 44.1434V25.2757ZM56.9133 44.1416L72.4008 54.8875L86.9219 44.8232C86.753 44.626 86.5558 44.4506 86.3326 44.3055L57.4963 25.5623C57.3115 25.4421 57.1154 25.3472 56.9133 25.2757V44.1416Z" fill="#121212"/>
</g>
<defs>
<clipPath id="clip0_2536_21129">
<rect width="112" height="112" fill="white"/>
</clipPath>
</defs>
</svg>
