<svg width="85" height="84" viewBox="0 0 85 84" fill="none" xmlns="http://www.w3.org/2000/svg">
<g clip-path="url(#clip0_2551_28917)">
<path fill-rule="evenodd" clip-rule="evenodd" d="M42.8243 23.9176C47.6844 24.0408 51.5863 28.0198 51.5863 32.9096L51.5836 33.1417C51.4681 37.6877 47.9797 41.3955 43.5274 41.8555V66.3306C43.5273 66.7143 43.2162 67.0256 42.8325 67.0256C42.4489 67.0253 42.1376 66.7141 42.1375 66.3306V41.8928C37.4582 41.6597 33.7197 37.85 33.6002 33.1417L33.5975 32.9096C33.5975 27.9423 37.625 23.9152 42.5922 23.9148L42.8243 23.9176ZM42.5922 25.3048C38.3927 25.3051 34.9874 28.71 34.9874 32.9096C34.9877 37.109 38.3928 40.5134 42.5922 40.5137C46.7917 40.5135 50.196 37.109 50.1963 32.9096C50.1963 28.7099 46.7919 25.305 42.5922 25.3048Z" fill="#121212"/>
<path d="M23.8052 17.2195C24.0582 16.931 24.4973 16.9021 24.786 17.155C25.0744 17.408 25.1033 17.8471 24.8504 18.1358C22.7845 20.4936 21.4109 22.6032 20.5482 24.8528C19.6861 27.1009 19.3177 29.5315 19.3177 32.5533C19.3177 35.575 19.686 38.0057 20.5482 40.2538C21.357 42.3627 22.6147 44.3489 24.471 46.5317L24.8504 46.9708L24.8945 47.0265C25.0987 47.3134 25.0565 47.7143 24.786 47.9515C24.5154 48.1885 24.1125 48.1779 23.8548 47.9379L23.8052 47.887L23.4123 47.4323C21.4864 45.1678 20.1311 43.0479 19.2505 40.7519C18.3107 38.3015 17.9278 35.6917 17.9277 32.5533C17.9277 29.4149 18.3108 26.8051 19.2505 24.3546C20.1898 21.9056 21.6694 19.6571 23.8052 17.2195Z" fill="#121212"/>
<path d="M60.4025 17.1469C60.6732 16.9098 61.076 16.9204 61.3337 17.1605L61.3832 17.2114L61.7762 17.6661C63.7021 19.9307 65.0574 22.0504 65.938 24.3465C66.8777 26.797 67.2607 29.4067 67.2607 32.5451C67.2607 35.6835 66.8778 38.2933 65.938 40.7438C64.9987 43.1927 63.519 45.4413 61.3832 47.8789C61.1302 48.1672 60.6911 48.1962 60.4025 47.9434C60.114 47.6905 60.0854 47.2513 60.338 46.9627C62.404 44.6048 63.7775 42.4951 64.6403 40.2456C65.5025 37.9975 65.8708 35.5669 65.8708 32.5451C65.8708 29.5234 65.5024 27.0928 64.6403 24.8447C63.8314 22.7356 62.5738 20.7496 60.7174 18.5667L60.338 18.1276L60.2939 18.072C60.0896 17.785 60.1322 17.3841 60.4025 17.1469Z" fill="#121212"/>
<path d="M29.5199 23.3678C29.7761 23.0823 30.2156 23.0587 30.5012 23.3149C30.7866 23.5712 30.8103 24.0106 30.5542 24.2963C29.3291 25.6624 28.5277 26.8697 28.0267 28.1458C27.5265 29.4202 27.3087 30.8068 27.3087 32.5526C27.3087 34.2982 27.5265 35.6844 28.0267 36.9587C28.4651 38.0753 29.1334 39.1395 30.1144 40.3033L30.5542 40.8082L30.599 40.8639C30.8062 41.1485 30.7689 41.5494 30.5012 41.7896C30.2333 42.0298 29.8298 42.0241 29.5694 41.7869L29.5199 41.7367L29.2809 41.4666C28.1112 40.1227 27.2771 38.852 26.7331 37.4664C26.1522 35.9865 25.9187 34.4178 25.9187 32.5526C25.9187 30.6872 26.1522 29.1181 26.7331 27.6382C27.3134 26.1601 28.2241 24.8127 29.5199 23.3678Z" fill="#121212"/>
<path d="M54.6811 23.3094C54.9491 23.0691 55.3525 23.0748 55.613 23.3122L55.6625 23.3624L55.9014 23.6325C57.0711 24.9764 57.9053 26.2471 58.4492 27.6327C59.0301 29.1126 59.2636 30.6813 59.2637 32.5465C59.2636 34.4118 59.0302 35.981 58.4492 37.4609C57.869 38.939 56.9583 40.2864 55.6625 41.7313C55.4063 42.0166 54.9668 42.0401 54.6811 41.7842C54.3956 41.5279 54.3721 41.0885 54.6282 40.8028C55.8533 39.4367 56.6547 38.2293 57.1556 36.9533C57.6559 35.6789 57.8737 34.2922 57.8737 32.5465C57.8737 30.8009 57.6558 29.4147 57.1556 28.1404C56.7173 27.0238 56.0489 25.9595 55.068 24.7958L54.6282 24.2908L54.5834 24.2352C54.376 23.9506 54.4135 23.5497 54.6811 23.3094Z" fill="#121212"/>
</g>
<defs>
<clipPath id="clip0_2551_28917">
<rect width="84" height="84" fill="white" transform="translate(0.59375)"/>
</clipPath>
</defs>
</svg>
