<svg width="113" height="113" viewBox="0 0 113 113" fill="none" xmlns="http://www.w3.org/2000/svg">
<path fill-rule="evenodd" clip-rule="evenodd" d="M46.5684 31.3848C54.3082 31.3848 60.5858 37.6474 60.5859 45.377C60.5859 50.9903 57.2744 55.8284 52.4971 58.0576C62.6141 60.6794 70.084 69.8545 70.084 80.7764C70.084 81.3286 69.6362 81.7763 69.084 81.7764C68.5317 81.7764 68.084 81.3286 68.084 80.7764C68.084 69.263 59.0066 59.8665 47.5996 59.3301C47.259 59.3548 46.9152 59.3691 46.5684 59.3691C46.2212 59.3691 45.877 59.3558 45.5361 59.3311C34.1305 59.8689 25.0547 69.264 25.0547 80.7764C25.0547 81.3286 24.607 81.7764 24.0547 81.7764C23.5024 81.7764 23.0547 81.3286 23.0547 80.7764C23.0547 69.8555 30.523 60.6803 40.6387 58.0576C35.8618 55.8282 32.5508 50.99 32.5508 45.377C32.5509 37.6475 38.8286 31.3849 46.5684 31.3848ZM46.5684 33.3848C39.9294 33.3849 34.5509 38.7557 34.5508 45.377C34.5508 51.664 39.4002 56.8222 45.5732 57.3271C45.9036 57.3134 46.2356 57.3057 46.5693 57.3057C46.9021 57.3057 47.2331 57.3135 47.5625 57.3271C53.7361 56.8227 58.5859 51.6644 58.5859 45.377C58.5858 38.7557 53.2074 33.3848 46.5684 33.3848Z" fill="white"/>
<path d="M65.5312 31.2236C73.2511 31.2236 79.5487 37.4708 79.5488 45.2158C79.5488 49.8961 77.2447 53.99 73.7275 56.5146C82.9844 60.0379 89.5946 69.5192 89.5947 80.6465C89.5947 81.1988 89.147 81.6465 88.5947 81.6465C88.0425 81.6464 87.5947 81.1987 87.5947 80.6465C87.5946 69.5235 80.5012 60.3042 71.084 57.7549C70.6835 57.6463 70.3917 57.3016 70.3506 56.8887C70.3096 56.4757 70.5281 56.0808 70.8994 55.8955C74.8427 53.9277 77.5488 49.9102 77.5488 45.2158C77.5487 38.5823 72.1534 33.2236 65.5312 33.2236C64.979 33.2236 64.5312 32.7759 64.5312 32.2236C64.5312 31.6713 64.979 31.2236 65.5312 31.2236Z" fill="white"/>
</svg>
