<svg width="112" height="112" viewBox="0 0 112 112" fill="none" xmlns="http://www.w3.org/2000/svg">
<mask id="mask0_385_9611" style="mask-type:alpha" maskUnits="userSpaceOnUse" x="9" y="19" width="89" height="77">
<rect x="49.7681" y="81.874" width="12.7993" height="13.125" rx="2" stroke="black" stroke-width="2"/>
<rect x="66.8345" y="72.249" width="12.7993" height="22.7501" rx="2" stroke="black" stroke-width="2"/>
<rect x="83.9009" y="59.9998" width="12.7993" height="35.0001" rx="2" stroke="black" stroke-width="2"/>
<path d="M95.3233 44.2084C95.4308 43.669 95.0783 43.1383 94.5359 43.023L85.6967 41.1441C85.1543 41.0288 84.6275 41.3726 84.52 41.912C84.4124 42.4514 84.765 42.9822 85.3074 43.0975L93.1644 44.7676L91.607 52.5812C91.4995 53.1207 91.852 53.6514 92.3945 53.7667C92.9369 53.882 93.4637 53.5382 93.5713 52.9988L95.3233 44.2084ZM51.2223 72.1376L51.7791 72.9759L94.898 44.8379L94.3412 43.9997L93.7844 43.1614L50.6655 71.2994L51.2223 72.1376Z" fill="black"/>
<path d="M47.2006 19.2048C48.305 19.2049 49.2004 20.0995 49.2006 21.2039L49.2016 27.8728C51.8519 28.8504 54.3389 30.2947 56.5287 32.1677L62.4213 28.7664C63.3179 28.2487 64.4483 28.5042 65.0414 29.3259L65.1537 29.4978L71.8188 41.0427C72.3702 41.9991 72.0425 43.2221 71.0863 43.7742L64.7797 47.4158C65.0964 49.8716 65.0281 52.344 64.599 54.7458L64.5082 55.2253L66.6537 56.4646L64.8041 57.7058L63.5082 56.9578C62.7661 56.5292 62.3797 55.6742 62.5473 54.8337C62.9851 52.6384 63.0934 50.3744 62.85 48.1218L62.7963 47.6707C62.6933 46.8704 63.0809 46.0868 63.7797 45.6833L70.0863 42.0427L63.4213 30.4978L57.5287 33.9001C56.7946 34.3238 55.873 34.2382 55.2289 33.6873C53.3472 32.0778 51.2254 30.8134 48.9643 29.9226L48.5092 29.7478C47.7236 29.4579 47.2018 28.7102 47.2016 27.8728L47.2006 21.2039L33.8725 21.2029V28.1013C33.8723 28.918 33.3744 29.6524 32.6166 29.9568C31.8907 30.2482 31.1733 30.5809 30.4682 30.9548L29.767 31.3425C28.4844 32.0832 27.3049 32.9333 26.2328 33.8718C25.5887 34.4354 24.6568 34.5263 23.9154 34.0984L17.725 30.5261L11.061 42.0681V42.0691L17.8608 45.9949L17.9858 46.073C18.5979 46.4896 18.934 47.2152 18.8471 47.9587C18.5918 50.1397 18.6587 52.3669 19.0678 54.5652C19.2229 55.3986 18.8361 56.239 18.102 56.6628L11.143 60.6804L17.808 72.2253L25.1821 67.9675C25.8809 67.564 26.7544 67.6196 27.3959 68.1091C29.0037 69.3361 30.7613 70.3286 32.6137 71.0681L32.7533 71.1296C33.4342 71.4635 33.8725 72.1585 33.8725 72.9255V81.5691H45.7455V83.5701L33.8715 83.571L33.6674 83.5603C32.7263 83.4644 31.9769 82.7154 31.8813 81.7742L31.8725 81.5701V72.9255C29.8528 72.1193 27.9354 71.038 26.1821 69.7L18.808 73.9568L18.6264 74.0496C17.7635 74.4373 16.7414 74.1634 16.1879 73.3962L16.0766 73.2253L9.41154 61.6804L9.31779 61.4978C8.93053 60.6351 9.20422 59.6127 9.97111 59.0593L10.143 58.949L17.102 54.9314C16.6557 52.5334 16.5815 50.1041 16.8598 47.7263L10.061 43.8015L9.88908 43.6902C9.12203 43.1368 8.84839 42.1146 9.23576 41.2517L9.32853 41.0691L15.9936 29.5261C16.5458 28.5699 17.7686 28.2419 18.725 28.7937L24.9154 32.3669C25.9385 31.4714 27.0507 30.6492 28.2485 29.9177L28.767 29.6101C29.7791 29.0258 30.8176 28.5244 31.8715 28.1013V21.2048C31.8715 20.1004 32.7681 19.2041 33.8725 19.2039L47.2006 19.2048ZM35.1869 40.7458C40.584 37.6298 47.4853 39.4801 50.601 44.8767L50.8783 45.3865C53.5975 50.7006 51.6993 57.2712 46.4711 60.2898L45.9604 60.5681C40.8177 63.1991 34.4987 61.5051 31.3608 56.655L31.058 56.1599C28.0397 50.9321 29.6799 44.2925 34.6918 41.0496L35.1869 40.7458ZM48.8686 45.8767C46.305 41.4365 40.6272 39.9147 36.1869 42.4783L35.7797 42.7273C31.7892 45.3092 30.3959 50.5087 32.561 54.74L32.7895 55.1599C35.2731 59.4611 40.679 61.0231 45.0512 58.7859L45.4711 58.5574C49.7724 56.0739 51.3341 50.6678 49.0971 46.2957L48.8686 45.8767Z" fill="black"/>
</mask>
<g mask="url(#mask0_385_9611)">
<path d="M101 98.0005L9.83769 98.0005L9.8377 13.3493L101 13.3493L101 98.0005Z" fill="url(#paint0_linear_385_9611)"/>
</g>
<defs>
<linearGradient id="paint0_linear_385_9611" x1="55.4191" y1="98.0005" x2="55.4191" y2="10.9075" gradientUnits="userSpaceOnUse">
<stop stop-color="#A34DEE"/>
<stop offset="1" stop-color="#6943F5"/>
</linearGradient>
</defs>
</svg>
