<svg width="112" height="113" viewBox="0 0 112 113" fill="none" xmlns="http://www.w3.org/2000/svg">
<path fill-rule="evenodd" clip-rule="evenodd" d="M55.8839 27.373C59.8406 27.3734 63.0481 30.5815 63.0482 34.5382C63.0481 38.1898 60.3158 41.2005 56.7845 41.6438V52.1754C61.8773 52.6169 65.8735 56.8887 65.8736 62.0959C65.8736 63.7077 65.4879 65.229 64.8082 66.576L75.1311 72.5354C76.4389 71.1346 78.3014 70.2582 80.3689 70.2581C84.3258 70.2583 87.5331 73.4664 87.5332 77.4233C87.533 81.3801 84.3257 84.5875 80.3689 84.5876C76.412 84.5875 73.2039 81.3802 73.2037 77.4233C73.2037 76.1832 73.5182 75.0163 74.0727 73.999L63.8576 68.1009C62.0392 70.5028 59.1586 72.0556 55.9137 72.0558C52.6945 72.0558 49.8338 70.5273 48.0128 68.1579L38.0354 74.2559C38.4524 75.1647 38.6869 76.1747 38.6869 77.24C38.6868 81.1968 35.4794 84.4042 31.5226 84.4044C27.5658 84.4042 24.3576 81.1969 24.3574 77.24C24.3576 73.2832 27.5658 70.075 31.5226 70.0748C33.77 70.0749 35.7748 71.111 37.0883 72.7301L47.0509 66.6409C46.3505 65.278 45.953 63.7336 45.953 62.0959C45.9531 56.9069 49.9214 52.6456 54.9886 52.1789V41.6447C51.4542 41.2041 48.7189 38.1919 48.7187 34.5382C48.7189 30.5813 51.927 27.373 55.8839 27.373ZM80.3689 72.054C77.4038 72.0541 74.9996 74.4582 74.9996 77.4233C74.9998 80.3883 77.4039 82.7916 80.3689 82.7917C83.3338 82.7916 85.7371 80.3883 85.7373 77.4233C85.7372 74.4582 83.3339 72.0542 80.3689 72.054ZM31.5226 71.8707C28.5577 71.8709 26.1535 74.2751 26.1533 77.24C26.1535 80.205 28.5576 82.6083 31.5226 82.6084C34.4876 82.6083 36.8909 80.205 36.891 77.24C36.8908 74.2751 34.4876 71.8709 31.5226 71.8707ZM55.9137 53.931C51.4047 53.931 47.749 57.5869 47.7489 62.0959C47.7491 66.6049 51.4047 70.2599 55.9137 70.2599C60.4225 70.2596 64.0775 66.6047 64.0777 62.0959C64.0776 57.587 60.4225 53.9313 55.9137 53.931ZM55.8839 29.1689C52.9188 29.1689 50.5148 31.5732 50.5146 34.5382C50.5148 37.5033 52.9188 39.9067 55.8839 39.9067C58.8487 39.9063 61.2522 37.5031 61.2523 34.5382C61.2522 31.5734 58.8487 29.1693 55.8839 29.1689Z" fill="#121212"/>
</svg>
