<svg width="37" height="36" viewBox="0 0 37 36" fill="none" xmlns="http://www.w3.org/2000/svg">
<path fill-rule="evenodd" clip-rule="evenodd" d="M18.5 32.8484C26.7015 32.8484 33.35 26.1999 33.35 17.9984C33.35 9.79701 26.7015 3.14844 18.5 3.14844C10.2986 3.14844 3.65002 9.79701 3.65002 17.9984C3.65002 26.1999 10.2986 32.8484 18.5 32.8484ZM21.3331 12.3002C20.5971 12.2674 20.3755 12.2592 18.5041 12.2592C16.6327 12.2592 16.4111 12.2674 15.6751 12.3002C14.9938 12.3303 14.6218 12.4452 14.3755 12.5409C14.0499 12.6667 13.8174 12.8171 13.5711 13.0633C13.3276 13.3067 13.1744 13.5419 13.0486 13.8673C12.9528 14.1135 12.8379 14.4827 12.8078 15.1664C12.775 15.9021 12.7668 16.1236 12.7668 17.9943C12.7668 19.8623 12.775 20.0838 12.8078 20.8222C12.8379 21.5032 12.9528 21.8751 13.0486 22.1213C13.1744 22.4467 13.3249 22.6792 13.5711 22.9254C13.8146 23.1688 14.0499 23.3219 14.3755 23.4477C14.6218 23.5434 14.9911 23.6583 15.6751 23.6884C16.4111 23.7212 16.6327 23.7294 18.5041 23.7294C20.3728 23.7294 20.5944 23.7212 21.3331 23.6884C22.0144 23.6583 22.3865 23.5434 22.6327 23.4477C22.9583 23.3219 23.1908 23.1715 23.4371 22.9254C23.6806 22.6819 23.8338 22.4467 23.9596 22.1213C24.0554 21.8751 24.1703 21.5059 24.2004 20.8222C24.2332 20.0865 24.2414 19.865 24.2414 17.9943C24.2414 16.1264 24.2332 15.9048 24.2004 15.1664C24.1703 14.4854 24.0554 14.1135 23.9596 13.8673C23.8338 13.5419 23.6833 13.3094 23.4371 13.0633C23.1936 12.8199 22.9583 12.6667 22.6327 12.5409C22.3865 12.4452 22.0171 12.3303 21.3331 12.3002ZM15.6176 11.0394C16.3646 11.0066 16.6026 10.9984 18.5041 10.9984C20.4056 10.9984 20.6436 11.0066 21.3933 11.0422C22.1375 11.075 22.6464 11.1953 23.0923 11.3676C23.552 11.5454 23.9432 11.7861 24.3317 12.1744C24.723 12.5628 24.961 12.9539 25.1334 13.4188C25.3057 13.8619 25.4261 14.3733 25.459 15.1172C25.4918 15.8638 25.5 16.1018 25.5 18.0025C25.5 19.9033 25.4918 20.1412 25.459 20.8878C25.4261 21.6317 25.3057 22.1404 25.1334 22.5862C24.9555 23.0457 24.7148 23.4368 24.3263 23.8251C23.9378 24.2135 23.5465 24.4542 23.0869 24.6319C22.6436 24.8042 22.132 24.9246 21.3878 24.9574C20.6409 24.9902 20.4029 24.9984 18.5014 24.9984C16.5999 24.9984 16.3618 24.9902 15.6149 24.9574C14.8707 24.9246 14.3618 24.8042 13.9159 24.6319C13.4562 24.4542 13.065 24.2135 12.6765 23.8251C12.2852 23.4368 12.0472 23.0457 11.8666 22.5835C11.6943 22.1404 11.5739 21.629 11.541 20.8851C11.5082 20.1385 11.5 19.9005 11.5 17.9998C11.5 16.099 11.5082 15.8611 11.541 15.1117C11.5739 14.3678 11.6943 13.8591 11.8666 13.4133C12.0472 12.9539 12.2852 12.5628 12.6765 12.1744C13.065 11.7833 13.4562 11.5454 13.9186 11.3649C14.3618 11.1926 14.8735 11.0723 15.6176 11.0394ZM18.4978 14.3971C16.5115 14.3971 14.9 16.008 14.9 17.9935C14.9 19.9791 16.5115 21.5899 18.4978 21.5899C20.4842 21.5899 22.0956 19.9791 22.0956 17.9935C22.0956 16.008 20.4842 14.3971 18.4978 14.3971ZM18.4978 20.3264C17.2092 20.3264 16.164 19.2817 16.164 17.9935C16.164 16.7054 17.2092 15.6606 18.4978 15.6606C19.7865 15.6606 20.8316 16.7054 20.8316 17.9935C20.8316 19.2817 19.7865 20.3264 18.4978 20.3264ZM22.14 15.0783C22.6024 15.0783 22.9799 14.7035 22.9799 14.2384C22.9799 13.776 22.6024 13.3984 22.14 13.3984C21.6776 13.3984 21.3 13.7732 21.3 14.2384C21.3 14.7007 21.6749 15.0783 22.14 15.0783Z" fill="#333333"/>
</svg>
