<svg width="112" height="112" viewBox="0 0 112 112" fill="none" xmlns="http://www.w3.org/2000/svg">
<path d="M21.0928 87.957L27.7715 81.2783L29.1855 82.6924L20.0928 91.7852L11 82.6924L12.4141 81.2783L19.0928 87.957V58.3535H21.0928V87.957ZM58.1152 35.4932C72.1208 35.8479 83.3651 47.3123 83.3652 61.4033L83.3574 62.0723C83.0025 76.0778 71.5373 87.3223 57.4463 87.3223L56.7773 87.3145C42.9942 86.9652 31.8854 75.8554 31.5361 62.0723L31.5273 61.4033C31.5274 47.0887 43.1317 35.4845 57.4463 35.4844L58.1152 35.4932ZM57.4463 37.4844C44.2363 37.4845 33.5274 48.1933 33.5273 61.4033C33.5275 74.6132 44.2363 85.3221 57.4463 85.3223C70.6563 85.3223 81.365 74.6133 81.3652 61.4033C81.3651 48.1932 70.6564 37.4844 57.4463 37.4844ZM58.4463 48.5518H58.4863C62.6744 48.5519 66.0691 51.9477 66.0693 56.1357H64.0693C64.0691 53.0522 61.5699 50.5519 58.4863 50.5518H55.541C52.9358 50.5518 50.8235 52.6644 50.8232 55.2695C50.8233 57.8748 52.9357 59.9873 55.541 59.9873H59.5254C63.1395 59.9873 66.0691 62.9172 66.0693 66.5312C66.0692 70.1454 63.1396 73.0752 59.5254 73.0752H58.4463V77.4111H56.4463V73.0752H55.7139C51.9083 73.0751 48.8233 69.9902 48.8232 66.1846H50.8232C50.8233 68.8856 53.0129 71.0751 55.7139 71.0752H59.5254C62.035 71.0752 64.0692 69.0409 64.0693 66.5312C64.0691 64.0218 62.0349 61.9873 59.5254 61.9873H55.541C51.8311 61.9873 48.8233 58.9794 48.8232 55.2695C48.8235 51.5598 51.8312 48.5518 55.541 48.5518H56.4463V43.8691H58.4463V48.5518ZM92.751 45.2676L99.4297 38.5889L100.844 40.0029L91.751 49.0957L82.6582 40.0029L84.0723 38.5889L90.751 45.2676V21H92.751V45.2676Z" fill="url(#paint0_linear_385_6911)"/>
<defs>
<linearGradient id="paint0_linear_385_6911" x1="18.1178" y1="118.069" x2="88.0238" y2="118.069" gradientUnits="userSpaceOnUse">
<stop stop-color="#A34DEE"/>
<stop offset="1" stop-color="#6943F5"/>
</linearGradient>
</defs>
</svg>
