<svg width="113" height="113" viewBox="0 0 113 113" fill="none" xmlns="http://www.w3.org/2000/svg">
<path d="M89.0269 61.0863C89.0938 61.0844 89.1607 61.0899 89.2267 61.1021C89.2373 61.104 89.2477 61.1062 89.2582 61.1085C89.2793 61.1132 89.3003 61.1182 89.3211 61.1243C89.3244 61.1253 89.3279 61.126 89.3312 61.127C89.3534 61.1338 89.3752 61.1418 89.3969 61.1502C89.4044 61.1531 89.4117 61.1563 89.4191 61.1594C89.4397 61.168 89.4601 61.1771 89.4802 61.1872C89.4845 61.1893 89.4889 61.1914 89.4931 61.1936C89.5847 61.2415 89.67 61.3047 89.7447 61.3842C89.8459 61.4919 89.9162 61.6174 89.9575 61.7496C89.9602 61.7582 89.9625 61.7668 89.9649 61.7755C89.9877 61.8567 89.9993 61.9398 90.0001 62.0234C90.0001 62.0268 90.001 62.0302 90.001 62.0336V79.8741C90.0009 80.3973 89.5768 80.8214 89.0537 80.8214C88.5307 80.8213 88.1065 80.3972 88.1065 79.8741V64.2223L75.906 75.6874C72.601 78.9868 68.5157 81.3978 64.0292 82.6956C59.5331 83.996 54.7804 84.1373 50.2154 83.1044C45.6503 82.0715 41.4208 79.8985 37.9224 76.7891C34.4241 73.6797 31.7707 69.7345 30.2093 65.3221L31.9947 64.6903C33.4493 68.801 35.9222 72.476 39.1814 75.3728C42.4405 78.2696 46.3806 80.2939 50.6335 81.2562C54.8864 82.2184 59.3142 82.0875 63.5029 80.876C67.6915 79.6644 71.5053 77.4115 74.5878 74.3275L74.609 74.3063L86.6615 62.9808H71.2132C70.6901 62.9808 70.266 62.5566 70.2659 62.0336C70.2659 61.5105 70.6901 61.0864 71.2132 61.0863H89.0269Z" fill="white"/>
<path d="M30.7856 64.1131C31.2788 63.9386 31.8201 64.1972 31.9947 64.6903L30.2093 65.3221C30.0349 64.8291 30.2928 64.2878 30.7856 64.1131Z" fill="white"/>
<path d="M48.6641 29.4764C53.1603 28.1759 57.9128 28.0346 62.4779 29.0675C67.0429 30.1004 71.2717 32.2736 74.77 35.3828C78.2684 38.4923 80.9226 42.4374 82.484 46.8498C82.6584 47.3429 82.3999 47.8843 81.9068 48.0588C81.4137 48.2331 80.8722 47.9746 80.6977 47.4816C79.2431 43.371 76.771 39.6959 73.5119 36.7991C70.2528 33.9023 66.3127 31.8781 62.0598 30.9158C57.8068 29.9535 53.3792 30.0844 49.1905 31.296C45.2635 32.4319 41.6663 34.4832 38.692 37.2764L38.1056 37.8444C38.0986 37.8514 38.0914 37.8589 38.0843 37.8657L26.0281 49.1939H41.4792L41.5763 49.1985C42.0539 49.2471 42.4264 49.6508 42.4265 50.1411C42.4263 50.6313 42.0538 51.0352 41.5763 51.0837L41.4792 51.0884H23.6387C23.2679 51.0883 22.9477 50.8743 22.7922 50.5639C22.7881 50.5556 22.7841 50.5473 22.7802 50.5389C22.7578 50.4906 22.7388 50.4404 22.7247 50.3881C22.7231 50.3823 22.7216 50.3764 22.7201 50.3705C22.7072 50.319 22.6991 50.2659 22.6951 50.2114C22.6944 50.2019 22.6937 50.1923 22.6933 50.1827C22.6927 50.1689 22.6914 50.1551 22.6914 50.1411V32.3006C22.6914 31.7775 23.1156 31.3534 23.6387 31.3533C24.1618 31.3533 24.5859 31.7774 24.5859 32.3006V47.9487L36.7864 36.4846C40.0915 33.1848 44.1774 30.7742 48.6641 29.4764Z" fill="white"/>
</svg>
