<svg width="113" height="113" viewBox="0 0 113 113" fill="none" xmlns="http://www.w3.org/2000/svg">
<path fill-rule="evenodd" clip-rule="evenodd" d="M76.4258 23.4414C76.93 23.4927 77.3232 23.9188 77.3232 24.4365C77.3232 24.9542 76.93 25.3804 76.4258 25.4316L76.3232 25.4365H57.8125V38.3525L57.8076 38.4551C57.7881 38.6475 57.7136 38.8234 57.6006 38.9678H78.4805C84.0153 38.9678 88.5225 43.4045 88.5225 48.9023V77.6631C88.5225 83.1609 84.0153 87.5977 78.4805 87.5977H34.5205C28.9858 87.5975 24.4785 83.1608 24.4785 77.6631V48.9023C24.4785 43.4046 28.9858 38.968 34.5205 38.9678H56.0244C55.9114 38.8234 55.8369 38.6475 55.8174 38.4551L55.8125 38.3525V25.4365H36.7109C36.1587 25.4365 35.7109 24.9888 35.7109 24.4365C35.7109 23.8842 36.1587 23.4365 36.7109 23.4365H76.3232L76.4258 23.4414ZM57.5078 64.3008C57.6954 64.4826 57.8125 64.7367 57.8125 65.0186V85.5977H78.4805C82.9335 85.5977 86.5225 82.0338 86.5225 77.6631V64.3008H57.5078ZM34.5205 40.9678C30.0676 40.968 26.4785 44.5318 26.4785 48.9023V77.6631C26.4785 82.0336 30.0676 85.5975 34.5205 85.5977H55.8125V65.0186C55.8125 64.7367 55.9296 64.4826 56.1172 64.3008H27.8086C27.2563 64.3008 26.8086 63.8531 26.8086 63.3008C26.8086 62.7485 27.2563 62.3008 27.8086 62.3008H86.5225V48.9023C86.5225 44.5317 82.9335 40.9678 78.4805 40.9678H34.5205Z" fill="black"/>
</svg>
