<svg width="113" height="113" viewBox="0 0 113 113" fill="none" xmlns="http://www.w3.org/2000/svg">
<path fill-rule="evenodd" clip-rule="evenodd" d="M56.8828 25.0439C64.5055 25.044 71.4464 26.0728 76.5135 27.7618C79.0419 28.6047 81.1565 29.6287 82.6579 30.8119C84.1487 31.9869 85.165 33.4292 85.165 35.1V77.6297C85.165 79.2995 84.1579 80.7424 82.6727 81.9195C81.1777 83.1042 79.0701 84.1291 76.5466 84.9715C71.4899 86.6596 64.5492 87.6856 56.8828 87.6857C49.2161 87.6857 42.2749 86.6597 37.218 84.9715C34.6946 84.1291 32.5879 83.1041 31.0929 81.9195C29.7001 80.8159 28.7277 79.4788 28.6116 77.9398L28.5996 77.6297V35.1C28.5996 33.4291 29.6167 31.9869 31.1076 30.8119C32.6091 29.6288 34.7237 28.6046 37.2521 27.7618C42.3193 26.0728 49.26 25.0439 56.8828 25.0439ZM30.4845 77.6297L30.491 77.7907C30.552 78.6009 31.0756 79.5009 32.2636 80.4423C33.5216 81.4391 35.4019 82.3778 37.8144 83.1832C42.6305 84.791 49.3607 85.8008 56.8828 85.8008C64.4048 85.8007 71.1343 84.791 75.9502 83.1832C78.3629 82.3777 80.244 81.4392 81.5019 80.4423C82.769 79.4382 83.28 78.4808 83.2801 77.6297V60.1296C83.0881 60.3095 82.8859 60.4852 82.6727 60.6542C81.1777 61.8389 79.0701 62.8637 76.5466 63.7062C71.4899 65.3943 64.5492 66.4203 56.8828 66.4204C49.2161 66.4204 42.2749 65.3944 37.218 63.7062C34.6945 62.8638 32.5879 61.8388 31.0929 60.6542C30.8793 60.485 30.6768 60.3088 30.4845 60.1287V77.6297ZM30.4845 56.3644L30.4901 56.5254C30.551 57.3357 31.0755 58.2355 32.2636 59.177C33.5216 60.1738 35.4019 61.1125 37.8144 61.9179C42.6305 63.5257 49.3607 64.5355 56.8828 64.5355C64.4048 64.5354 71.1343 63.5257 75.9502 61.9179C78.3629 61.1124 80.244 60.1739 81.5019 59.177C82.6898 58.2357 83.2128 57.3356 83.2737 56.5254L83.2801 56.3644V38.8524C83.0837 39.0359 82.8764 39.2149 82.6579 39.3871C81.1565 40.5703 79.0419 41.5953 76.5135 42.4381C71.4464 44.1272 64.5055 45.156 56.8828 45.156C49.26 45.156 42.3193 44.1271 37.2521 42.4381C34.7235 41.5953 32.6092 40.5704 31.1076 39.3871C30.8889 39.2147 30.6812 39.0352 30.4845 38.8514V56.3644ZM56.8828 26.9289C49.4062 26.9289 42.6756 27.9408 37.8476 29.5501C35.4289 30.3563 33.5391 31.2957 32.2738 32.2928C30.9978 33.2984 30.4845 34.2543 30.4845 35.1C30.4846 35.9457 30.9978 36.9015 32.2738 37.9071C33.5391 38.9043 35.4289 39.8436 37.8476 40.6499C42.6756 42.2591 49.4062 43.2711 56.8828 43.2711C64.3593 43.271 71.0892 42.2592 75.9171 40.6499C78.3358 39.8436 80.2255 38.9043 81.4909 37.9071C82.7668 36.9016 83.2801 35.9457 83.2801 35.1C83.2801 34.2543 82.7668 33.2984 81.4909 32.2928C80.2255 31.2956 78.3358 30.3564 75.9171 29.5501C71.0892 27.9408 64.3593 26.9289 56.8828 26.9289Z" fill="#121212"/>
</svg>
