<svg width="113" height="112" viewBox="0 0 113 112" fill="none" xmlns="http://www.w3.org/2000/svg">
<path fill-rule="evenodd" clip-rule="evenodd" d="M82.6642 22.9424C86.7488 22.9425 90.0604 26.2541 90.0605 30.3387C90.0605 34.1108 87.2359 37.2204 83.5868 37.6748C83.5935 37.7199 83.5987 37.7657 83.5987 37.8126V74.1938C83.5987 74.2381 83.5937 74.2816 83.5877 74.3243C87.2365 74.779 90.0605 77.8894 90.0605 81.6613C90.0605 85.7459 86.7489 89.0575 82.6642 89.0576C78.8732 89.0576 75.7497 86.2049 75.3199 82.5291C75.2417 82.5601 75.1585 82.5814 75.0717 82.5903L74.9759 82.5958H38.6768C38.2172 86.2391 35.1096 89.0575 31.3416 89.0576C27.2571 89.0574 23.9454 85.7459 23.9453 81.6613C23.9453 77.8932 26.7638 74.7848 30.4072 74.3252V38.5573C26.7639 38.0976 23.9454 34.99 23.9453 31.2221C23.9454 27.1375 27.2571 23.8259 31.3416 23.8257C34.799 23.8258 37.7022 26.1986 38.5126 29.4042H74.9759L75.0717 29.4088C75.1584 29.4176 75.2419 29.4381 75.3199 29.469C75.7506 25.7943 78.8738 22.9424 82.6642 22.9424ZM31.3416 76.1339C28.2892 76.1341 25.8143 78.6088 25.8142 81.6613C25.8143 84.7137 28.2892 87.1885 31.3416 87.1887C34.277 87.1886 36.6762 84.8999 36.8563 82.0099C36.8129 81.9022 36.7888 81.7845 36.7887 81.6613C36.7888 81.538 36.8129 81.4204 36.8563 81.3127C36.6763 78.4226 34.277 76.134 31.3416 76.1339ZM82.6642 76.1339C79.6117 76.1339 77.1368 78.6087 77.1368 81.6613C77.1369 84.7138 79.6117 87.1887 82.6642 87.1887C85.7167 87.1886 88.1915 84.7138 88.1916 81.6613C88.1916 78.6088 85.7167 76.134 82.6642 76.1339ZM75.3199 31.2075C75.2417 31.2385 75.1585 31.2598 75.0717 31.2686L74.9759 31.2732H38.7371C38.7117 35.0184 35.9032 38.0998 32.2761 38.5573V74.3252C35.6135 74.746 38.2558 77.3895 38.6768 80.7268H74.9759L75.0717 80.7314C75.1584 80.7402 75.2419 80.7607 75.3199 80.7916C75.7149 77.4207 78.3756 74.7442 81.7389 74.3243C81.7329 74.2817 81.7298 74.238 81.7298 74.1938V37.8126C81.7298 37.7658 81.734 37.7198 81.7407 37.6748C78.3763 37.2555 75.7145 34.5795 75.3199 31.2075ZM31.3416 25.6947C28.2893 25.6948 25.8144 28.1697 25.8142 31.2221C25.8143 34.2745 28.2892 36.7493 31.3416 36.7495C34.3941 36.7494 36.8689 34.2745 36.869 31.2221C36.869 31.0245 36.8582 30.8294 36.838 30.6371C36.8064 30.5434 36.7887 30.4431 36.7887 30.3387C36.7887 30.3243 36.7899 30.31 36.7906 30.2958C36.3497 27.6844 34.0784 25.6948 31.3416 25.6947ZM82.6642 24.8113C79.6117 24.8113 77.137 27.2863 77.1368 30.3387C77.1369 33.3912 79.6117 35.8661 82.6642 35.8661C85.7167 35.866 88.1915 33.3912 88.1916 30.3387C88.1915 27.2863 85.7166 24.8114 82.6642 24.8113Z" fill="#121212"/>
</svg>
