<svg width="113" height="113" viewBox="0 0 113 113" fill="none" xmlns="http://www.w3.org/2000/svg">
<path fill-rule="evenodd" clip-rule="evenodd" d="M38.8399 66.1414C43.2222 66.1414 46.7754 69.6939 46.7756 74.0761C46.7756 78.4586 43.2224 82.0118 38.8399 82.0118C34.4578 82.0114 30.9052 78.4583 30.9052 74.0761C30.9055 69.6941 34.458 66.1418 38.8399 66.1414ZM38.8399 68.1402C35.5619 68.1406 32.9043 70.798 32.904 74.0761C32.904 77.3544 35.5617 80.0126 38.8399 80.013C42.1185 80.013 44.7768 77.3547 44.7768 74.0761C44.7766 70.7978 42.1183 68.1402 38.8399 68.1402Z" fill="#121212"/>
<path fill-rule="evenodd" clip-rule="evenodd" d="M74.956 66.1414C79.3382 66.1415 82.8914 69.6939 82.8916 74.0761C82.8916 78.4585 79.3383 82.0117 74.956 82.0118C70.5737 82.0115 67.0213 78.4584 67.0213 74.0761C67.0215 69.694 70.5738 66.1417 74.956 66.1414ZM74.956 68.1402C71.6778 68.1405 69.0203 70.7979 69.0201 74.0761C69.0201 77.3545 71.6776 80.0127 74.956 80.013C78.2344 80.0129 80.8928 77.3546 80.8928 74.0761C80.8926 70.7978 78.2342 68.1403 74.956 68.1402Z" fill="#121212"/>
<path d="M63.5419 31.665C67.4055 31.6651 70.5375 34.7973 70.5377 38.6608V45.602H80.5366C81.8618 45.602 83.1325 46.1289 84.0696 47.066L91.2187 54.214L91.3895 54.3936C92.2196 55.3103 92.6826 56.5054 92.6826 57.748V67.9118C92.6825 70.6714 90.4452 72.9087 87.6856 72.9088H84.785C84.2333 72.9086 83.7857 72.4612 83.7856 71.9094C83.7857 71.3577 84.2333 70.9102 84.785 70.91H87.6856C89.3413 70.9099 90.6837 69.5675 90.6838 67.9118V57.748C90.6838 57.0523 90.4417 56.3813 90.0045 55.8478L89.8054 55.6282L82.6564 48.4792C82.0942 47.9169 81.3317 47.6008 80.5366 47.6008H70.5377V64.2861C70.5376 64.8379 70.0902 65.2855 69.5383 65.2855C68.9866 65.2853 68.539 64.8378 68.5389 64.2861V38.6608C68.5387 35.9012 66.3015 33.6639 63.5419 33.6638H28.0817C25.3223 33.6641 23.0849 35.9014 23.0847 38.6608V65.9121C23.0847 68.6717 25.3222 70.9088 28.0817 70.9091H29.3368L29.4383 70.9149C29.9422 70.966 30.336 71.3912 30.3362 71.9085C30.3362 72.426 29.9424 72.8519 29.4383 72.903L29.3368 72.9079H28.0817C24.2183 72.9076 21.0859 69.7756 21.0859 65.9121V38.6608C21.0861 34.7974 24.2184 31.6653 28.0817 31.665H63.5419Z" fill="#121212"/>
<path d="M64.9912 70.9149C65.4952 70.9659 65.8888 71.3911 65.8891 71.9085C65.8891 72.4261 65.4954 72.852 64.9912 72.903L64.8897 72.9079H48.5431C47.9914 72.9076 47.5437 72.4602 47.5437 71.9085C47.544 71.357 47.9916 70.9094 48.5431 70.9091H64.8897L64.9912 70.9149Z" fill="#121212"/>
</svg>
