<svg width="85" height="85" viewBox="0 0 85 85" fill="none" xmlns="http://www.w3.org/2000/svg">
<path d="M55.433 32.4899C55.179 32.2362 54.7771 32.2203 54.5046 32.4425L54.4518 32.4899L45.7272 41.2138L37.9093 36.015C37.6944 35.8724 37.4209 35.8623 37.1985 35.9811L37.1063 36.0401L29.8272 41.5533C29.5218 41.7846 29.4619 42.2202 29.693 42.5257C29.9244 42.8309 30.3593 42.891 30.6647 42.6599L37.5509 37.4434L45.4324 42.6843C45.7076 42.8671 46.0737 42.8305 46.3073 42.5969L55.433 33.4711L55.4804 33.4183C55.7026 33.1458 55.687 32.7439 55.433 32.4899Z" fill="#121212"/>
<path fill-rule="evenodd" clip-rule="evenodd" d="M23.6254 20.8027C20.6233 20.8029 18.1896 23.2366 18.1895 26.2387V49.9506C18.1895 52.9528 20.6233 55.3864 23.6254 55.3866H41.9006V63.483H33.109C32.7259 63.4831 32.4151 63.7938 32.4151 64.1769C32.4151 64.56 32.7259 64.8706 33.109 64.8708H42.5823C42.5864 64.8708 42.5904 64.8714 42.5945 64.8714C42.5986 64.8714 42.6026 64.8708 42.6067 64.8708H52.078L52.1492 64.8674C52.4991 64.8318 52.7719 64.5361 52.7719 64.1769C52.7718 63.8176 52.499 63.5219 52.1492 63.4863L52.078 63.483H43.2884V55.3866H61.5642C64.5665 55.3865 67.0002 52.9528 67.0002 49.9506V26.2387C67.0001 23.2365 64.5665 20.8028 61.5642 20.8027H23.6254ZM61.5642 22.1905C63.8 22.1906 65.6123 24.003 65.6124 26.2387V49.9506C65.6124 52.1863 63.8 53.9987 61.5642 53.9988H23.6254C21.3897 53.9986 19.5773 52.1863 19.5773 49.9506V26.2387C19.5774 24.003 21.3897 22.1907 23.6254 22.1905H61.5642Z" fill="#121212"/>
</svg>
