<svg width="112" height="112" viewBox="0 0 112 112" fill="none" xmlns="http://www.w3.org/2000/svg">
<path fill-rule="evenodd" clip-rule="evenodd" d="M24.4496 55.3843C24.4496 38.3006 38.2987 24.4516 55.3824 24.4516C72.466 24.4516 86.3151 38.3006 86.3151 55.3843C86.3151 72.468 72.466 86.3171 55.3824 86.3171C38.2987 86.3171 24.4496 72.468 24.4496 55.3843ZM55.3824 23.8516C37.9673 23.8516 23.8496 37.9693 23.8496 55.3843C23.8496 72.7994 37.9673 86.9171 55.3824 86.9171C72.7974 86.9171 86.9151 72.7994 86.9151 55.3843C86.9151 37.9693 72.7974 23.8516 55.3824 23.8516ZM45.0829 69.5026C47.8006 66.9763 51.4761 65.4445 55.4588 65.4445C59.4421 65.4445 63.0401 66.9377 65.7582 69.4261C65.8804 69.538 66.0702 69.5296 66.1821 69.4074C66.2939 69.2852 66.2856 69.0954 66.1634 68.9835C63.3376 66.3966 59.596 64.8446 55.4588 64.8446C51.3209 64.8446 47.5005 66.4361 44.6744 69.0632C44.5531 69.176 44.5461 69.3658 44.6589 69.4871C44.7717 69.6085 44.9616 69.6154 45.0829 69.5026ZM45.6206 48.1621C47.0221 48.1621 48.1583 47.026 48.1583 45.6245C48.1583 44.2229 47.0221 43.0868 45.6206 43.0868C44.2191 43.0868 43.0829 44.2229 43.0829 45.6245C43.0829 47.026 44.2191 48.1621 45.6206 48.1621ZM67.6787 45.6245C67.6787 47.026 66.5426 48.1621 65.1411 48.1621C63.7396 48.1621 62.6034 47.026 62.6034 45.6245C62.6034 44.2229 63.7396 43.0868 65.1411 43.0868C66.5426 43.0868 67.6787 44.2229 67.6787 45.6245Z" fill="url(#paint0_linear_577_15214)"/>
<path d="M45.6527 70.1098C48.2192 67.7241 51.6922 66.2758 55.4584 66.2758C59.2268 66.2758 62.6245 67.6868 65.1923 70.0376C65.6557 70.4618 66.3752 70.43 66.7994 69.9667C67.2236 69.5033 67.1919 68.7838 66.7285 68.3596C63.7524 65.635 59.8104 64.0008 55.4584 64.0008C51.104 64.0008 47.0812 65.6758 44.1038 68.4435C43.6437 68.8712 43.6174 69.591 44.0451 70.0511C44.4729 70.5112 45.1926 70.5375 45.6527 70.1098Z" fill="url(#paint1_linear_577_15214)"/>
<path d="M45.6202 48.1559C47.0217 48.1559 48.1579 47.0197 48.1579 45.6182C48.1579 44.2167 47.0217 43.0805 45.6202 43.0805C44.2187 43.0805 43.0826 44.2167 43.0826 45.6182C43.0826 47.0197 44.2187 48.1559 45.6202 48.1559Z" fill="url(#paint2_linear_577_15214)"/>
<path d="M67.6783 45.6182C67.6783 47.0197 66.5422 48.1559 65.1407 48.1559C63.7392 48.1559 62.603 47.0197 62.603 45.6182C62.603 44.2167 63.7392 43.0805 65.1407 43.0805C66.5422 43.0805 67.6783 44.2167 67.6783 45.6182Z" fill="url(#paint3_linear_577_15214)"/>
<path fill-rule="evenodd" clip-rule="evenodd" d="M55.382 23.0078C37.5044 23.0078 23.0117 37.5005 23.0117 55.3781C23.0117 73.2557 37.5044 87.7483 55.382 87.7483C73.2596 87.7483 87.7522 73.2557 87.7522 55.3781C87.7522 37.5005 73.2596 23.0078 55.382 23.0078ZM25.2867 55.3781C25.2867 38.7569 38.7608 25.2828 55.382 25.2828C72.0031 25.2828 85.4772 38.7569 85.4772 55.3781C85.4772 71.9992 72.0031 85.4733 55.382 85.4733C38.7608 85.4733 25.2867 71.9992 25.2867 55.3781Z" fill="url(#paint4_linear_577_15214)"/>
<defs>
<linearGradient id="paint0_linear_577_15214" x1="55.3824" y1="23.8516" x2="55.3824" y2="86.9171" gradientUnits="userSpaceOnUse">
<stop stop-color="#505BFD"/>
<stop offset="1" stop-color="#B542FD"/>
</linearGradient>
<linearGradient id="paint1_linear_577_15214" x1="55.382" y1="23.0078" x2="55.382" y2="87.7483" gradientUnits="userSpaceOnUse">
<stop stop-color="#505BFD"/>
<stop offset="1" stop-color="#B542FD"/>
</linearGradient>
<linearGradient id="paint2_linear_577_15214" x1="55.382" y1="23.0078" x2="55.382" y2="87.7483" gradientUnits="userSpaceOnUse">
<stop stop-color="#505BFD"/>
<stop offset="1" stop-color="#B542FD"/>
</linearGradient>
<linearGradient id="paint3_linear_577_15214" x1="55.382" y1="23.0078" x2="55.382" y2="87.7483" gradientUnits="userSpaceOnUse">
<stop stop-color="#505BFD"/>
<stop offset="1" stop-color="#B542FD"/>
</linearGradient>
<linearGradient id="paint4_linear_577_15214" x1="55.382" y1="23.0078" x2="55.382" y2="87.7483" gradientUnits="userSpaceOnUse">
<stop stop-color="#505BFD"/>
<stop offset="1" stop-color="#B542FD"/>
</linearGradient>
</defs>
</svg>
