<svg width="60" height="27" viewBox="0 0 60 27" fill="none" xmlns="http://www.w3.org/2000/svg">
<path fill-rule="evenodd" clip-rule="evenodd" d="M3.5755 14.0594L9.98856 20.3023L16.4033 14.0578C18.0487 12.3435 17.6919 9.87165 16.3294 8.49345C15.659 7.81533 14.7658 7.4278 13.7721 7.52583C12.775 7.62419 11.5949 8.22021 10.3831 9.67399L9.99851 10.1354L9.61454 9.67343C8.40225 8.21477 7.22368 7.61592 6.2289 7.51571C5.23788 7.41589 4.34725 7.80191 3.6774 8.47996C2.31568 9.85838 1.95335 12.3364 3.5755 14.0594ZM9.99968 8.59691C8.78929 7.29395 7.53041 6.64176 6.32912 6.52075C4.99646 6.38651 3.81768 6.91506 2.966 7.77718C1.28662 9.47715 0.796605 12.5768 2.85589 14.7539L2.86298 14.7614L2.87037 14.7686L9.63979 21.3583L9.98856 21.6978L10.3373 21.3583L17.1067 14.7686L17.1125 14.763L17.1181 14.7572C19.2066 12.589 18.7218 9.49103 17.0405 7.79041C16.1883 6.92836 15.0078 6.39907 13.6739 6.53066C12.4713 6.6493 11.2107 7.29793 9.99968 8.59691Z" fill="#1A1A1A"/>
<path d="M29.6953 7.27344V20H28.0957V8.92578H28.0254L24.9316 10.9824V9.38281L28.0957 7.27344H29.6953ZM37.3879 7.27344V20H35.7883V8.92578H35.718L32.6242 10.9824V9.38281L35.7883 7.27344H37.3879Z" fill="#1A1A1A"/>
</svg>
