<svg width="113" height="113" viewBox="0 0 113 113" fill="none" xmlns="http://www.w3.org/2000/svg">
<path d="M44.4404 27.3643C44.2195 26.8584 43.63 26.6272 43.124 26.8477C38.0952 29.0421 33.6803 32.4357 30.2656 36.7305C26.851 41.0253 24.5397 46.0913 23.5352 51.4854C22.5307 56.8794 22.8632 62.4378 24.5029 67.6738C26.1428 72.91 29.0405 77.6649 32.9424 81.5225C36.8442 85.3799 41.6314 88.2228 46.8857 89.8027C52.1403 91.3827 57.7026 91.652 63.085 90.5859C68.4672 89.5199 73.5062 87.1509 77.7617 83.6875C81.8843 80.3322 85.1501 76.0484 87.293 71.1895L87.4971 70.7178C87.7122 70.2091 87.4735 69.6223 86.9648 69.4072C86.488 69.2057 85.9427 69.4021 85.6992 69.8467L85.6543 69.9385C83.6446 74.6912 80.5013 78.8795 76.499 82.1367C72.4969 85.3938 67.758 87.6215 62.6963 88.624C57.6344 89.6266 52.4036 89.3736 47.4619 87.8877C42.5205 86.4019 38.0181 83.7283 34.3486 80.1006C30.679 76.4727 27.9533 72.0005 26.4111 67.0762C24.869 62.1519 24.5573 56.9245 25.502 51.8516C26.4467 46.7787 28.6198 42.0147 31.8311 37.9756C35.0424 33.9364 39.1943 30.7455 43.9238 28.6816C44.4299 28.4607 44.6613 27.8704 44.4404 27.3643ZM56.5576 24.0596C56.2924 24.0596 56.0381 24.165 55.8506 24.3525C55.663 24.5401 55.5576 24.7944 55.5576 25.0596V57.6504C55.5577 58.2026 56.0054 58.6504 56.5576 58.6504H89.1484C89.7006 58.6503 90.1484 58.2026 90.1484 57.6504C90.1484 53.2393 89.2798 48.8712 87.5918 44.7959C85.9037 40.7205 83.4287 37.0176 80.3096 33.8984C77.1904 30.7793 73.4875 28.3043 69.4121 26.6162C65.3368 24.9282 60.9687 24.0596 56.5576 24.0596ZM57.5576 26.0771C61.3649 26.1977 65.1221 27.0041 68.6465 28.4639C72.4792 30.0514 75.962 32.379 78.8955 35.3125C81.8288 38.2458 84.1556 41.728 85.7432 45.5605C87.2031 49.0851 88.0103 52.8429 88.1309 56.6504H57.5576V26.0771Z" fill="white"/>
<path d="M44.4397 27.3643C44.2188 26.8584 43.6292 26.6272 43.1233 26.8477C38.0944 29.0421 33.6795 32.4357 30.2649 36.7305C26.8502 41.0253 24.5389 46.0913 23.5344 51.4854C22.5299 56.8794 22.8624 62.4378 24.5022 67.6738C26.142 72.91 29.0397 77.6649 32.9416 81.5225C36.8434 85.3799 41.6307 88.2228 46.885 89.8027C52.1395 91.3827 57.7018 91.652 63.0842 90.5859C68.4664 89.5199 73.5054 87.1509 77.7609 83.6875C81.8835 80.3322 85.1493 76.0484 87.2922 71.1895L87.4963 70.7178C87.7114 70.2091 87.4727 69.6223 86.9641 69.4072C86.4872 69.2057 85.9419 69.4021 85.6984 69.8467L85.6535 69.9385C83.6438 74.6912 80.5005 78.8795 76.4982 82.1367C72.4961 85.3938 67.7572 87.6215 62.6955 88.624C57.6336 89.6266 52.4028 89.3736 47.4611 87.8877C42.5197 86.4019 38.0174 83.7283 34.3479 80.1006C30.6783 76.4727 27.9526 72.0005 26.4104 67.0762C24.8682 62.1519 24.5565 56.9245 25.5012 51.8516C26.4459 46.7787 28.619 42.0147 31.8303 37.9756C35.0416 33.9364 39.1936 30.7455 43.9231 28.6816C44.4291 28.4607 44.6605 27.8704 44.4397 27.3643Z" fill="white"/>
<path fill-rule="evenodd" clip-rule="evenodd" d="M56.5568 24.0596C56.2916 24.0596 56.0373 24.165 55.8498 24.3525C55.6623 24.5401 55.5568 24.7944 55.5568 25.0596V57.6504C55.5569 58.2026 56.0046 58.6504 56.5568 58.6504H89.1477C89.6998 58.6503 90.1476 58.2026 90.1477 57.6504C90.1477 53.2393 89.279 48.8712 87.591 44.7959C85.9029 40.7205 83.4279 37.0176 80.3088 33.8984C77.1896 30.7793 73.4867 28.3043 69.4113 26.6162C65.336 24.9282 60.968 24.0596 56.5568 24.0596ZM57.5568 26.0771C61.3642 26.1977 65.1213 27.0041 68.6457 28.4639C72.4785 30.0514 75.9613 32.379 78.8947 35.3125C81.828 38.2458 84.1548 41.728 85.7424 45.5605C87.2023 49.0851 88.0095 52.8429 88.1301 56.6504H57.5568V26.0771Z" fill="white"/>
</svg>
