<svg width="85" height="85" viewBox="0 0 85 85" fill="none" xmlns="http://www.w3.org/2000/svg">
<path d="M36.4414 17.7295C46.5144 17.7298 54.6914 25.9575 54.6914 36.0762C54.6914 37.4923 54.5331 38.8669 54.2188 40.1992L66.7529 52.8281L66.8037 52.8848C67.0429 53.1801 67.0243 53.615 66.749 53.8887C66.4736 54.1621 66.0388 54.1775 65.7451 53.9365L65.6885 53.8848L52.8584 40.958C52.6713 40.7695 52.5975 40.4952 52.665 40.2383C53.0153 38.9048 53.1914 37.5181 53.1914 36.0762C53.1914 26.7781 45.6782 19.2298 36.4414 19.2295C34.3899 19.2295 32.4276 19.6061 30.5986 20.2988L43.0605 32.8301C43.351 33.1225 43.351 33.5952 43.0605 33.8877L34.5596 42.4355C34.4188 42.5771 34.2269 42.6562 34.0273 42.6562C33.8277 42.6561 33.6358 42.5762 33.4951 42.4346L20.9414 29.7871C20.157 31.7239 19.7178 33.8317 19.7178 36.0498C19.7178 45.348 27.2307 52.8965 36.4678 52.8965C38.0207 52.8964 39.5266 52.6701 40.96 52.2656L41.0586 52.2441C41.2891 52.2115 41.5245 52.2883 41.6924 52.4551L54.4697 65.1445L54.5215 65.2012C54.7627 65.4948 54.747 65.9295 54.4736 66.2051C54.1999 66.4807 53.7651 66.4992 53.4697 66.2598L53.4131 66.209L40.9395 53.8213C39.5102 54.1886 38.0128 54.3964 36.4678 54.3965C26.3945 54.3965 18.2168 46.1687 18.2168 36.0498C18.2168 33.2148 18.8752 30.545 20.0234 28.1533L20.0674 28.0742C20.1807 27.897 20.3651 27.7737 20.5752 27.7383C20.8152 27.6982 21.06 27.7775 21.2314 27.9502L34.0283 40.8418L41.4707 33.3584L28.7471 20.5645C28.5741 20.3904 28.4969 20.1428 28.541 19.9014C28.5852 19.6598 28.7452 19.4552 28.9688 19.3535C31.2667 18.3083 33.7861 17.7295 36.4414 17.7295Z" fill="white"/>
<path d="M36.4409 17.7295C46.5139 17.7297 54.6905 25.9573 54.6907 36.0759C54.6907 37.4919 54.5318 38.8665 54.2175 40.1987L66.7515 52.8279L66.8027 52.885C67.0421 53.1804 67.0233 53.6148 66.7478 53.8884C66.4721 54.1621 66.0373 54.1777 65.7437 53.936L65.6873 53.8848L52.8574 40.9575C52.6704 40.7691 52.5967 40.4958 52.6641 40.239C53.0144 38.9054 53.1907 37.518 53.1907 36.0759C53.1905 26.778 45.6777 19.2297 36.4409 19.2295C34.3891 19.2295 32.4269 19.6067 30.5977 20.2996L43.0591 32.8298C43.35 33.1224 43.35 33.5949 43.0591 33.8875L34.5586 42.4355C34.4177 42.5772 34.2259 42.6568 34.0261 42.6567C33.8265 42.6566 33.635 42.5765 33.4944 42.4348L20.9399 29.7866C20.1555 31.7234 19.7168 33.8314 19.7168 36.0496C19.7168 45.3477 27.2296 52.8966 36.4666 52.8967C38.0198 52.8967 39.5256 52.67 40.9592 52.2654L41.0581 52.2441C41.2886 52.2115 41.5237 52.2883 41.6917 52.4551L54.4688 65.1443L54.5208 65.2014C54.762 65.4952 54.746 65.93 54.4724 66.2056C54.1988 66.4808 53.7643 66.4996 53.469 66.2605L53.4119 66.2092L40.9395 53.8218C39.5098 54.1893 38.012 54.3967 36.4666 54.3967C26.3934 54.3966 18.2168 46.1683 18.2168 36.0496C18.2168 33.2147 18.874 30.5449 20.0222 28.1533L20.0662 28.0742C20.1795 27.8969 20.3635 27.7742 20.5737 27.7388C20.814 27.6983 21.059 27.7768 21.2307 27.9497L34.0276 40.8418L41.469 33.3586L28.7461 20.5647C28.573 20.3906 28.4962 20.1427 28.5403 19.9011C28.5844 19.6596 28.7438 19.4549 28.9673 19.3533C31.2654 18.3079 33.7853 17.7295 36.4409 17.7295Z" fill="white"/>
</svg>
