<svg width="30" height="31" viewBox="0 0 30 31" fill="none" xmlns="http://www.w3.org/2000/svg">
<path fill-rule="evenodd" clip-rule="evenodd" d="M15.0004 30.0516C23.2018 30.0516 29.8504 23.403 29.8504 15.2016C29.8504 7.00013 23.2018 0.351562 15.0004 0.351562C6.79896 0.351562 0.150391 7.00013 0.150391 15.2016C0.150391 23.403 6.79896 30.0516 15.0004 30.0516ZM17.8335 9.50336C17.0975 9.47054 16.8759 9.46233 15.0045 9.46233C13.1331 9.46233 12.9114 9.47054 12.1755 9.50336C11.4942 9.53344 11.1221 9.6483 10.8759 9.74403C10.5503 9.86983 10.3177 10.0203 10.0715 10.2664C9.828 10.5098 9.67478 10.745 9.54893 11.0705C9.45317 11.3166 9.33826 11.6858 9.30816 12.3695C9.27533 13.1052 9.26712 13.3268 9.26712 15.1974C9.26712 17.0654 9.27533 17.2869 9.30816 18.0253C9.33826 18.7063 9.45317 19.0783 9.54893 19.3244C9.67478 19.6499 9.82526 19.8823 10.0715 20.1285C10.315 20.3719 10.5503 20.525 10.8759 20.6508C11.1221 20.7466 11.4915 20.8614 12.1755 20.8915C12.9114 20.9243 13.1331 20.9325 15.0045 20.9325C16.8731 20.9325 17.0948 20.9243 17.8335 20.8915C18.5147 20.8614 18.8868 20.7466 19.1331 20.6508C19.4586 20.525 19.6912 20.3746 19.9374 20.1285C20.1809 19.8851 20.3342 19.6499 20.46 19.3244C20.5558 19.0783 20.6707 18.7091 20.7008 18.0253C20.7336 17.2896 20.7418 17.0681 20.7418 15.1974C20.7418 13.3295 20.7336 13.108 20.7008 12.3695C20.6707 11.6885 20.5558 11.3166 20.46 11.0705C20.3342 10.745 20.1837 10.5125 19.9374 10.2664C19.6939 10.023 19.4586 9.86983 19.1331 9.74403C18.8868 9.6483 18.5175 9.53344 17.8335 9.50336ZM12.118 8.24256C12.8649 8.20974 13.103 8.20154 15.0045 8.20154C16.906 8.20154 17.144 8.20974 17.8937 8.2453C18.6378 8.27812 19.1467 8.39845 19.5927 8.57075C20.0523 8.74852 20.4436 8.98919 20.8321 9.37755C21.2233 9.76591 21.4614 10.157 21.6337 10.6219C21.8061 11.065 21.9265 11.5764 21.9593 12.3203C21.9922 13.0669 22.0004 13.3049 22.0004 15.2056C22.0004 17.1064 21.9922 17.3443 21.9593 18.091C21.9265 18.8349 21.8061 19.3436 21.6337 19.7893C21.4559 20.2488 21.2151 20.6399 20.8266 21.0283C20.4381 21.4166 20.0469 21.6573 19.5872 21.8351C19.144 22.0074 18.6324 22.1277 17.8882 22.1605C17.1413 22.1933 16.9032 22.2015 15.0017 22.2015C13.1002 22.2015 12.8622 22.1933 12.1153 22.1605C11.3711 22.1277 10.8622 22.0074 10.4162 21.8351C9.95659 21.6573 9.56535 21.4166 9.17684 21.0283C8.78559 20.6399 8.54756 20.2488 8.36699 19.7866C8.19462 19.3436 8.07424 18.8321 8.04141 18.0882C8.00857 17.3416 8.00037 17.1037 8.00037 15.2029C8.00037 13.3021 8.00857 13.0642 8.04141 12.3148C8.07424 11.5709 8.19462 11.0623 8.36699 10.6165C8.54756 10.157 8.78559 9.76591 9.17684 9.37755C9.56535 8.98646 9.95659 8.74852 10.419 8.56802C10.8622 8.39572 11.3738 8.27538 12.118 8.24256ZM14.9982 11.6002C13.0119 11.6002 11.4004 13.2111 11.4004 15.1966C11.4004 17.1822 13.0119 18.793 14.9982 18.793C16.9845 18.793 18.596 17.1822 18.596 15.1966C18.596 13.2111 16.9845 11.6002 14.9982 11.6002ZM14.9982 17.5295C13.7096 17.5295 12.6644 16.4848 12.6644 15.1966C12.6644 13.9085 13.7096 12.8638 14.9982 12.8638C16.2868 12.8638 17.332 13.9085 17.332 15.1966C17.332 16.4848 16.2868 17.5295 14.9982 17.5295ZM18.6404 12.2814C19.1027 12.2814 19.4803 11.9066 19.4803 11.4415C19.4803 10.9791 19.1027 10.6015 18.6404 10.6015C18.178 10.6015 17.8004 10.9764 17.8004 11.4415C17.8004 11.9039 18.1752 12.2814 18.6404 12.2814Z" fill="#1A1A1A"/>
</svg>
