<svg width="85" height="85" viewBox="0 0 85 85" fill="none" xmlns="http://www.w3.org/2000/svg">
<path fill-rule="evenodd" clip-rule="evenodd" d="M42.5913 18.874C48.3083 18.8741 53.514 19.6456 57.3143 20.9124C59.2106 21.5446 60.7966 22.3126 61.9226 23.2C63.0408 24.0812 63.803 25.163 63.803 26.4161V58.3133C63.8029 59.5657 63.0476 60.6479 61.9337 61.5307C60.8125 62.4192 59.2317 63.1879 57.3392 63.8197C53.5466 65.0858 48.3411 65.8553 42.5913 65.8553C36.8413 65.8553 31.6353 65.0858 27.8427 63.8197C25.9501 63.1879 24.3701 62.4192 23.2489 61.5307C22.2043 60.703 21.4749 59.7002 21.3879 58.5459L21.3789 58.3133V26.4161C21.3789 25.1629 22.1417 24.0813 23.2599 23.2C24.3861 22.3127 25.972 21.5445 27.8683 20.9124C31.6687 19.6457 36.8742 18.874 42.5913 18.874ZM22.7926 58.3133L22.7974 58.4341C22.8432 59.0418 23.2359 59.7168 24.1269 60.4228C25.0704 61.1704 26.4806 61.8744 28.29 62.4785C31.902 63.6843 36.9497 64.4416 42.5913 64.4416C48.2328 64.4416 53.2799 63.6843 56.8919 62.4785C58.7014 61.8744 60.1122 61.1704 61.0557 60.4228C62.0059 59.6697 62.3892 58.9517 62.3893 58.3133V45.1883C62.2453 45.3232 62.0936 45.455 61.9337 45.5817C60.8125 46.4702 59.2317 47.2389 57.3392 47.8707C53.5466 49.1368 48.3411 49.9063 42.5913 49.9064C36.8412 49.9064 31.6353 49.1368 27.8427 47.8707C25.9501 47.2389 24.3701 46.4702 23.2489 45.5817C23.0887 45.4548 22.9368 45.3227 22.7926 45.1876V58.3133ZM22.7926 42.3643L22.7967 42.4851C22.8424 43.0928 23.2358 43.7677 24.1269 44.4738C25.0704 45.2214 26.4806 45.9254 28.29 46.5295C31.902 47.7353 36.9497 48.4927 42.5913 48.4927C48.2328 48.4926 53.2799 47.7353 56.8919 46.5295C58.7014 45.9254 60.1122 45.2215 61.0557 44.4738C61.9465 43.7678 62.3388 43.0928 62.3844 42.4851L62.3893 42.3643V29.2303C62.242 29.368 62.0865 29.5022 61.9226 29.6314C60.7966 30.5188 59.2106 31.2875 57.3143 31.9197C53.514 33.1865 48.3083 33.958 42.5913 33.9581C36.8742 33.9581 31.6687 33.1864 27.8683 31.9197C25.9718 31.2875 24.3861 30.5188 23.2599 29.6314C23.0958 29.5021 22.9401 29.3675 22.7926 29.2296V42.3643ZM42.5913 20.2877C36.9838 20.2877 31.9359 21.0467 28.3149 22.2536C26.5009 22.8583 25.0836 23.5628 24.1345 24.3107C23.1776 25.0649 22.7926 25.7818 22.7926 26.4161C22.7926 27.0503 23.1775 27.7672 24.1345 28.5214C25.0836 29.2693 26.5009 29.9738 28.3149 30.5785C31.9359 31.7854 36.9838 32.5444 42.5913 32.5444C48.1987 32.5443 53.2461 31.7854 56.867 30.5785C58.681 29.9738 60.0983 29.2693 61.0474 28.5214C62.0043 27.7672 62.3893 27.0503 62.3893 26.4161C62.3893 25.7818 62.0043 25.0649 61.0474 24.3107C60.0983 23.5628 58.6811 22.8584 56.867 22.2536C53.2461 21.0467 48.1987 20.2878 42.5913 20.2877Z" fill="#121212"/>
</svg>
