<svg width="113" height="113" viewBox="0 0 113 113" fill="none" xmlns="http://www.w3.org/2000/svg">
<path d="M23.8033 26.3408C24.3743 26.3408 24.8371 26.8037 24.8371 27.3746V82.1657L24.8412 82.3253C24.9242 83.964 26.2792 85.2671 27.9385 85.2671H89.9662L90.0722 85.2722C90.5934 85.3252 91 85.7658 91 86.3009C91 86.8361 90.5934 87.2766 90.0722 87.3297L89.9662 87.3347H27.9385C25.1728 87.3347 22.9148 85.1626 22.7766 82.4313L22.7695 82.1657V27.3746C22.7695 26.8037 23.2324 26.3408 23.8033 26.3408Z" fill="#121212"/>
<path d="M82.6822 41.1461C82.7007 41.1465 82.7193 41.1468 82.7377 41.1481L82.767 41.1501C82.7768 41.1511 82.7866 41.1529 82.7963 41.1542C82.8019 41.1549 82.8078 41.1554 82.8134 41.1562C82.8362 41.1596 82.8588 41.1635 82.8811 41.1683C82.898 41.172 82.9148 41.1769 82.9316 41.1814C82.9427 41.1844 82.9539 41.1871 82.9649 41.1905C82.9835 41.1962 83.002 41.2029 83.0204 41.2097C83.034 41.2148 83.0475 41.2203 83.0608 41.2259C83.0774 41.2328 83.0939 41.2402 83.1102 41.2481C83.119 41.2523 83.1279 41.2567 83.1365 41.2612C83.1573 41.2719 83.1779 41.2833 83.1981 41.2955C83.2058 41.3002 83.2137 41.3047 83.2213 41.3096C83.2413 41.3225 83.2606 41.3366 83.2799 41.351C83.2846 41.3546 83.2893 41.3585 83.294 41.3621C83.3114 41.3757 83.3287 41.3897 83.3455 41.4045C83.3544 41.4124 83.3631 41.4206 83.3717 41.4288C83.3786 41.4353 83.3862 41.4413 83.3929 41.448C83.3993 41.4544 83.4049 41.4616 83.4111 41.4681C83.4214 41.479 83.4316 41.4901 83.4414 41.5015C83.4523 41.514 83.4625 41.5269 83.4727 41.5398C83.4808 41.5502 83.4892 41.5605 83.4969 41.5711C83.5467 41.6394 83.5871 41.7122 83.6181 41.7882C83.622 41.7978 83.6255 41.8077 83.6292 41.8175C83.6711 41.9301 83.6924 42.0481 83.6938 42.1668C83.6938 42.1708 83.6948 42.1749 83.6948 42.1789V53.9696C83.6947 54.5403 83.2316 55.0031 82.661 55.0034C82.0901 55.0034 81.6273 54.5405 81.6272 53.9696V44.6755L64.724 61.5787C64.5302 61.7724 64.2671 61.8815 63.9931 61.8816C63.7191 61.8815 63.456 61.7723 63.2622 61.5787L54.167 52.4835L40.1603 66.4912C39.7567 66.8948 39.1022 66.8947 38.6985 66.4912C38.2948 66.0875 38.2948 65.4331 38.6985 65.0294L53.4371 50.2907L53.5128 50.2221C53.6967 50.0715 53.9283 49.9879 54.168 49.9879C54.442 49.988 54.7052 50.097 54.899 50.2907L63.9931 59.3849L80.1664 43.2127H70.8703C70.2994 43.2127 69.8365 42.7498 69.8365 42.1789C69.8365 41.6079 70.2993 41.1451 70.8703 41.1451H82.661L82.6822 41.1461Z" fill="#121212"/>
</svg>
