<svg width="85" height="85" viewBox="0 0 85 85" fill="none" xmlns="http://www.w3.org/2000/svg">
<path fill-rule="evenodd" clip-rule="evenodd" d="M33.167 56.2106C35.6519 56.2106 37.6664 58.2251 37.6665 60.71C37.6664 63.1949 35.6519 65.2094 33.167 65.2095C30.6822 65.2093 28.6676 63.1948 28.6676 60.71C28.6676 58.2252 30.6822 56.2107 33.167 56.2106ZM33.167 57.5741C31.4353 57.5743 30.0312 58.9783 30.0311 60.71C30.0312 62.4418 31.4353 63.8458 33.167 63.8459C34.8988 63.8459 36.3029 62.4418 36.3029 60.71C36.3029 58.9782 34.8988 57.5742 33.167 57.5741Z" fill="#121212"/>
<path fill-rule="evenodd" clip-rule="evenodd" d="M61.4666 56.2106C63.9514 56.2107 65.966 58.2252 65.966 60.71C65.966 63.1948 63.9514 65.2093 61.4666 65.2095C58.9817 65.2095 56.9672 63.1949 56.9671 60.71C56.9672 58.2251 58.9817 56.2106 61.4666 56.2106ZM61.4666 57.5741C59.7347 57.5741 58.3307 58.9782 58.3307 60.71C58.3307 62.4419 59.7347 63.8459 61.4666 63.8459C63.1983 63.8458 64.6024 62.4418 64.6025 60.71C64.6024 58.9783 63.1983 57.5743 61.4666 57.5741Z" fill="#121212"/>
<path fill-rule="evenodd" clip-rule="evenodd" d="M24.7694 20.0254C26.652 20.0254 28.1782 21.5516 28.1782 23.4343V51.0201C28.1784 52.1495 29.094 53.0654 30.2236 53.0654H33.0845V35.1655C33.0845 32.5298 35.2211 30.3931 37.8569 30.3931H57.8273L58.073 30.3991C60.5947 30.5269 62.5998 32.6121 62.5998 35.1655V53.0654H66.7523L66.8215 53.0687C67.1654 53.1036 67.4341 53.3941 67.4341 53.7472C67.4339 54.1001 67.1653 54.3901 66.8215 54.4249L66.7523 54.4289H30.2236C28.341 54.4289 26.8148 52.9026 26.8147 51.0201V23.4343C26.8147 22.3047 25.899 21.3889 24.7694 21.3889H18.4357C18.0591 21.3889 17.7539 21.0837 17.7539 20.7072C17.7539 20.3306 18.0591 20.0254 18.4357 20.0254H24.7694ZM37.8569 31.7567C35.9742 31.7567 34.448 33.2829 34.448 35.1655V53.0654H61.2362V35.1655C61.2362 33.3418 59.8042 31.8527 58.0031 31.7613L57.8273 31.7567H37.8569Z" fill="#121212"/>
</svg>
