<svg width="85" height="85" viewBox="0 0 85 85" fill="none" xmlns="http://www.w3.org/2000/svg">
<path d="M33.7903 28.9699C34.0742 28.7685 34.461 28.8185 34.6853 29.075L34.728 29.1288L39.9355 36.4638L44.2501 32.0429L44.3007 31.9956C44.4238 31.893 44.5808 31.8373 44.7426 31.84C44.9274 31.8431 45.1031 31.9222 45.2278 32.0586L51.5089 38.932C51.7594 39.2061 51.7402 39.6316 51.4662 39.8821C51.1922 40.1323 50.7673 40.1132 50.5168 39.8394L44.715 33.4913L40.3354 37.9799C40.1962 38.1226 40.0003 38.1963 39.8016 38.1808C39.6029 38.1653 39.4213 38.0623 39.3059 37.8998L33.6314 29.9076L33.5947 29.8491C33.4266 29.5528 33.5066 29.1715 33.7903 28.9699Z" fill="#121212"/>
<path fill-rule="evenodd" clip-rule="evenodd" d="M65.4625 19.3099C65.8016 19.3443 66.0659 19.6309 66.0659 19.979C66.0659 20.3271 65.8016 20.6137 65.4625 20.6481L65.3936 20.6514H60.9509V49.5579L60.9477 49.6268L60.947 49.6295H65.3936L65.4625 49.6327C65.8015 49.6671 66.0658 49.9538 66.0659 50.3018C66.0659 50.65 65.8016 50.9365 65.4625 50.9709L65.3936 50.9742H43.2672V56.8745L55.8412 65.3224L55.8964 65.3631C56.1586 65.5807 56.2185 65.9664 56.0244 66.2554C55.8303 66.5442 55.451 66.6344 55.1505 66.4741L55.0914 66.4386L43.2672 58.4943V65.476C43.267 65.8473 42.9661 66.1484 42.5948 66.1484C42.2235 66.1484 41.9226 65.8473 41.9224 65.476V58.2868L29.789 66.4386L29.7299 66.4741C29.4294 66.6345 29.0501 66.5441 28.8559 66.2554C28.6617 65.9664 28.7215 65.5807 28.984 65.3631L29.0391 65.3224L41.8706 56.7018L41.9224 56.6703V50.9742H19.7974C19.426 50.9742 19.125 50.6732 19.125 50.3018C19.1252 49.9306 19.4261 49.6295 19.7974 49.6295H24.2439L24.2433 49.6268L24.24 49.5579V20.6514H19.7974C19.4261 20.6514 19.125 20.3503 19.125 19.979C19.125 19.6077 19.426 19.3066 19.7974 19.3066H65.3936L65.4625 19.3099ZM25.5847 49.5579L25.5814 49.6268L25.5808 49.6295H59.6101L59.6095 49.6268L59.6062 49.5579V20.6514H25.5847V49.5579Z" fill="#121212"/>
</svg>
