<svg width="112" height="112" viewBox="0 0 112 112" fill="none" xmlns="http://www.w3.org/2000/svg">
<path fill-rule="evenodd" clip-rule="evenodd" d="M54.3816 23.8697C54.4479 23.8455 54.5206 23.8455 54.5869 23.8697L81.1286 33.5384C81.2471 33.5816 81.3259 33.6942 81.3259 33.8203V56.3807C81.3259 66.1871 74.6015 74.3211 67.9494 79.9755C64.6163 82.8086 61.2847 85.0334 58.7871 86.5499C57.5379 87.3083 56.4966 87.89 55.7668 88.2824C55.4019 88.4786 55.1148 88.6276 54.9186 88.7277C54.8205 88.7777 54.7451 88.8155 54.694 88.8409L54.6358 88.8697L54.6208 88.8771L54.6168 88.879L54.6158 88.8795C54.6155 88.8797 54.6153 88.8798 54.4842 88.6099C54.3532 88.8798 54.353 88.8797 54.3527 88.8795L54.3517 88.879L54.3477 88.8771L54.3327 88.8697L54.2745 88.8409C54.2234 88.8155 54.148 88.7777 54.0499 88.7277C53.8536 88.6276 53.5666 88.4786 53.2017 88.2824C52.4719 87.89 51.4306 87.3083 50.1814 86.5499C47.6838 85.0334 44.3522 82.8086 41.0191 79.9755C34.367 74.3211 27.6426 66.1871 27.6426 56.3807V33.8203C27.6426 33.6942 27.7214 33.5816 27.8399 33.5384L54.3816 23.8697ZM54.4842 88.6099L54.3532 88.8798C54.4359 88.92 54.5326 88.92 54.6153 88.8798L54.4842 88.6099ZM54.4842 88.275C54.5278 88.2532 54.5819 88.2259 54.646 88.1931C54.8386 88.0949 55.1218 87.948 55.4826 87.754C56.2044 87.3659 57.2366 86.7893 58.4757 86.037C60.9546 84.5319 64.2584 82.3253 67.5608 79.5183C74.1795 73.8924 80.7259 65.9119 80.7259 56.3807V34.0303L54.4842 24.4708L28.2426 34.0303V56.3807C28.2426 65.9119 34.789 73.8924 41.4077 79.5183C44.71 82.3253 48.0139 84.5319 50.4928 86.037C51.7319 86.7893 52.7641 87.3659 53.4859 87.754C53.8467 87.948 54.1299 88.0949 54.3225 88.1931C54.3866 88.2259 54.4407 88.2532 54.4842 88.275Z" fill="url(#paint0_linear_577_15260)"/>
<path fill-rule="evenodd" clip-rule="evenodd" d="M54.0945 23.0765C54.346 22.9849 54.6217 22.9849 54.8732 23.0765L81.4149 32.7453C81.8641 32.9089 82.163 33.336 82.163 33.8141V56.3745C82.163 66.5649 75.1903 74.9132 68.4914 80.6073C65.1154 83.4769 61.7451 85.7272 59.2213 87.2595C57.9582 88.0264 56.904 88.6153 56.1631 89.0138C55.7925 89.213 55.5 89.3648 55.2987 89.4675C55.1981 89.5188 55.1202 89.5579 55.0666 89.5845L55.0048 89.6151L54.988 89.6233L54.9832 89.6257C54.9827 89.6259 54.9808 89.6268 54.4839 88.6036C53.9869 89.6268 53.9865 89.6266 53.986 89.6264L53.9797 89.6233L53.9629 89.6151L53.9011 89.5845C53.8476 89.5579 53.7697 89.5188 53.669 89.4675C53.4677 89.3648 53.1752 89.213 52.8047 89.0138C52.0637 88.6153 51.0095 88.0264 49.7464 87.2595C47.2226 85.7272 43.8523 83.4769 40.4763 80.6073C33.7774 74.9132 26.8047 66.5649 26.8047 56.3745V33.8141C26.8047 33.336 27.1036 32.9089 27.5528 32.7453L54.0945 23.0765ZM54.4838 87.3283C54.6477 87.2432 54.8496 87.137 55.0856 87.0101C55.7961 86.628 56.8155 86.0587 58.0407 85.3149C60.4934 83.8257 63.7585 81.6445 67.018 78.8739C73.5899 73.2878 79.888 65.5216 79.888 56.3745V34.6103L54.4839 25.3559L29.0797 34.6103V56.3745C29.0797 65.5216 35.3778 73.2878 41.9497 78.8739C45.2092 81.6445 48.4743 83.8257 50.9271 85.3149C52.1522 86.0587 53.1716 86.628 53.8821 87.0101C54.1181 87.137 54.32 87.2432 54.4838 87.3283Z" fill="url(#paint1_linear_577_15260)"/>
<path d="M54.4839 88.6036L53.986 89.6264C54.2998 89.7788 54.6694 89.7781 54.9832 89.6257L54.4839 88.6036Z" fill="url(#paint2_linear_577_15260)"/>
<defs>
<linearGradient id="paint0_linear_577_15260" x1="54.4842" y1="23.8516" x2="54.4842" y2="88.9099" gradientUnits="userSpaceOnUse">
<stop stop-color="#505BFD"/>
<stop offset="1" stop-color="#B542FD"/>
</linearGradient>
<linearGradient id="paint1_linear_577_15260" x1="54.4839" y1="23.0078" x2="54.4839" y2="89.7403" gradientUnits="userSpaceOnUse">
<stop stop-color="#505BFD"/>
<stop offset="1" stop-color="#B542FD"/>
</linearGradient>
<linearGradient id="paint2_linear_577_15260" x1="54.4839" y1="23.0078" x2="54.4839" y2="89.7403" gradientUnits="userSpaceOnUse">
<stop stop-color="#505BFD"/>
<stop offset="1" stop-color="#B542FD"/>
</linearGradient>
</defs>
</svg>
