<svg width="113" height="113" viewBox="0 0 113 113" fill="none" xmlns="http://www.w3.org/2000/svg">
<path fill-rule="evenodd" clip-rule="evenodd" d="M56.3447 20.6787C56.897 20.6787 57.3447 21.1264 57.3447 21.6787V33.1914H71.9844L72.0869 33.1963C72.5913 33.2474 72.9844 33.6736 72.9844 34.1914C72.9841 34.709 72.5911 35.1354 72.0869 35.1865L71.9844 35.1914H57.3447V55.0869H64.165L64.7578 55.1016C67.7107 55.2481 70.5128 56.4855 72.6133 58.5859C74.8538 60.8265 76.1123 63.8656 76.1123 67.0342C76.1122 70.2027 74.8538 73.2419 72.6133 75.4824C70.5128 77.5828 67.7106 78.8203 64.7578 78.9668L64.165 78.9814H57.3447V90.4922C57.3445 91.0443 56.8969 91.4922 56.3447 91.4922C55.7926 91.4922 55.3449 91.0443 55.3447 90.4922V78.9814H37.5781C37.026 78.9814 36.5784 78.5335 36.5781 77.9814C36.5783 77.4293 37.026 76.9815 37.5781 76.9814H55.3447V57.0869H48.5254C45.3569 57.0868 42.3176 55.8273 40.0771 53.5869C37.9769 51.4865 36.7394 48.6841 36.5928 45.7314L36.5781 45.1387C36.5782 41.9702 37.8368 38.9309 40.0771 36.6904C42.3177 34.4499 45.3568 33.1915 48.5254 33.1914H55.3447V21.6787C55.3447 21.1264 55.7925 20.6787 56.3447 20.6787ZM57.3447 76.9814H64.165L64.6582 76.9697C67.1168 76.8478 69.4503 75.8172 71.1992 74.0684C73.0646 72.2029 74.1122 69.6723 74.1123 67.0342C74.1123 64.396 73.0646 61.8655 71.1992 60C69.4502 58.251 67.1169 57.2206 64.6582 57.0986L64.165 57.0869H57.3447V76.9814ZM48.5254 35.1914C45.8873 35.1915 43.3576 36.24 41.4922 38.1055C39.6269 39.9709 38.5782 42.5006 38.5781 45.1387L38.5908 45.6318C38.7128 48.0905 39.7433 50.4239 41.4922 52.1729C43.3576 54.0381 45.8874 55.0868 48.5254 55.0869H55.3447V35.1914H48.5254Z" fill="white"/>
</svg>
