<svg width="113" height="113" viewBox="0 0 113 113" fill="none" xmlns="http://www.w3.org/2000/svg">
<path fill-rule="evenodd" clip-rule="evenodd" d="M76.4766 23.4414C76.9807 23.4927 77.374 23.9188 77.374 24.4365C77.374 24.9542 76.9807 25.3804 76.4766 25.4316L76.374 25.4365H57.8633V38.3525L57.8584 38.4551C57.8388 38.6475 57.7643 38.8234 57.6514 38.9678H78.5312C84.0661 38.9678 88.5732 43.4045 88.5732 48.9023V77.6631C88.5732 83.1609 84.0661 87.5977 78.5312 87.5977H34.5713C29.0366 87.5975 24.5293 83.1608 24.5293 77.6631V48.9023C24.5293 43.4046 29.0366 38.968 34.5713 38.9678H56.0752C55.9622 38.8234 55.8877 38.6475 55.8682 38.4551L55.8633 38.3525V25.4365H36.7617C36.2094 25.4365 35.7617 24.9888 35.7617 24.4365C35.7617 23.8842 36.2094 23.4365 36.7617 23.4365H76.374L76.4766 23.4414ZM57.5586 64.3008C57.7462 64.4826 57.8633 64.7367 57.8633 65.0186V85.5977H78.5312C82.9843 85.5977 86.5732 82.0338 86.5732 77.6631V64.3008H57.5586ZM34.5713 40.9678C30.1184 40.968 26.5293 44.5318 26.5293 48.9023V77.6631C26.5293 82.0336 30.1184 85.5975 34.5713 85.5977H55.8633V65.0186C55.8633 64.7367 55.9804 64.4826 56.168 64.3008H27.8594C27.3071 64.3008 26.8594 63.8531 26.8594 63.3008C26.8594 62.7485 27.3071 62.3008 27.8594 62.3008H86.5732V48.9023C86.5732 44.5317 82.9843 40.9678 78.5312 40.9678H34.5713Z" fill="white"/>
</svg>
