<svg width="113" height="113" viewBox="0 0 113 113" fill="none" xmlns="http://www.w3.org/2000/svg">
<path fill-rule="evenodd" clip-rule="evenodd" d="M79.5068 22.8291C81.1636 22.8292 82.5068 24.1723 82.5068 25.8291V85.4736C82.5065 87.1301 81.1634 88.4736 79.5068 88.4736H38.5469C36.1721 88.4735 33.8942 87.5297 32.2148 85.8506C30.6404 84.2762 29.7124 82.1753 29.6025 79.9619L29.5918 79.5176V31.7842C29.5919 29.4092 30.5355 27.1315 32.2148 25.4521C33.8942 23.7728 36.1719 22.8292 38.5469 22.8291H79.5068ZM38.5469 72.5615C36.7023 72.5616 34.9332 73.2943 33.6289 74.5986C32.3247 75.9029 31.5919 77.6721 31.5918 79.5166L31.6006 79.8623C31.6859 81.5813 32.4062 83.2127 33.6289 84.4355C34.9332 85.7398 36.7024 86.4735 38.5469 86.4736H79.5068C80.0588 86.4736 80.5065 86.0256 80.5068 85.4736V72.5615H38.5469ZM38.5469 24.8291C36.7023 24.8292 34.9332 25.5619 33.6289 26.8662C32.3246 28.1705 31.5919 29.9396 31.5918 31.7842V73.877C31.7866 73.6367 31.9941 73.4053 32.2148 73.1846C33.8942 71.5052 36.1719 70.5616 38.5469 70.5615H80.5068V25.8291C80.5068 25.2769 80.0591 24.8292 79.5068 24.8291H38.5469Z" fill="black"/>
</svg>
