<svg width="113" height="112" viewBox="0 0 113 112" fill="none" xmlns="http://www.w3.org/2000/svg">
<path fill-rule="evenodd" clip-rule="evenodd" d="M82.4865 22.9424C86.5711 22.9425 89.8826 26.2541 89.8828 30.3387C89.8827 34.1108 87.0582 37.2204 83.4091 37.6748C83.4158 37.7199 83.4209 37.7657 83.421 37.8126V74.1938C83.4209 74.2381 83.416 74.2816 83.41 74.3243C87.0588 74.779 89.8828 77.8894 89.8828 81.6613C89.8827 85.7459 86.5711 89.0575 82.4865 89.0576C78.6954 89.0576 75.572 86.2049 75.1422 82.5291C75.064 82.5601 74.9808 82.5814 74.894 82.5903L74.7981 82.5958H38.4991C38.0395 86.2391 34.9319 89.0575 31.1639 89.0576C27.0793 89.0574 23.7677 85.7459 23.7676 81.6613C23.7676 77.8932 26.5861 74.7848 30.2294 74.3252V38.5573C26.5862 38.0976 23.7677 34.99 23.7676 31.2221C23.7677 27.1375 27.0793 23.8259 31.1639 23.8257C34.6212 23.8258 37.5245 26.1986 38.3348 29.4042H74.7981L74.894 29.4088C74.9807 29.4176 75.0641 29.4381 75.1422 29.469C75.5728 25.7943 78.6961 22.9424 82.4865 22.9424ZM31.1639 76.1339C28.1115 76.1341 25.6365 78.6088 25.6365 81.6613C25.6366 84.7137 28.1115 87.1885 31.1639 87.1887C34.0992 87.1886 36.4985 84.8999 36.6785 82.0099C36.6352 81.9022 36.611 81.7845 36.611 81.6613C36.611 81.538 36.6352 81.4204 36.6785 81.3127C36.4985 78.4226 34.0993 76.134 31.1639 76.1339ZM82.4865 76.1339C79.4339 76.1339 76.9591 78.6087 76.9591 81.6613C76.9592 84.7138 79.434 87.1887 82.4865 87.1887C85.5389 87.1886 88.0138 84.7138 88.0139 81.6613C88.0139 78.6088 85.539 76.134 82.4865 76.1339ZM75.1422 31.2075C75.064 31.2385 74.9808 31.2598 74.894 31.2686L74.7981 31.2732H38.5593C38.534 35.0184 35.7255 38.0998 32.0984 38.5573V74.3252C35.4358 74.746 38.0781 77.3895 38.4991 80.7268H74.7981L74.894 80.7314C74.9807 80.7402 75.0641 80.7607 75.1422 80.7916C75.5371 77.4207 78.1979 74.7442 81.5611 74.3243C81.5552 74.2817 81.552 74.238 81.552 74.1938V37.8126C81.552 37.7658 81.5563 37.7198 81.563 37.6748C78.1986 37.2555 75.5367 34.5795 75.1422 31.2075ZM31.1639 25.6947C28.1115 25.6948 25.6366 28.1697 25.6365 31.2221C25.6366 34.2745 28.1115 36.7493 31.1639 36.7495C34.2164 36.7494 36.6912 34.2745 36.6913 31.2221C36.6913 31.0245 36.6805 30.8294 36.6603 30.6371C36.6287 30.5434 36.611 30.4431 36.611 30.3387C36.611 30.3243 36.6122 30.31 36.6128 30.2958C36.1719 27.6844 33.9006 25.6948 31.1639 25.6947ZM82.4865 24.8113C79.434 24.8113 76.9593 27.2863 76.9591 30.3387C76.9592 33.3912 79.434 35.8661 82.4865 35.8661C85.5389 35.866 88.0138 33.3912 88.0139 30.3387C88.0137 27.2863 85.5389 24.8114 82.4865 24.8113Z" fill="white"/>
</svg>
