<svg width="85" height="85" viewBox="0 0 85 85" fill="none" xmlns="http://www.w3.org/2000/svg">
<path fill-rule="evenodd" clip-rule="evenodd" d="M42.9531 15.9111C47.9271 15.9111 51.9593 19.9435 51.9594 24.9175V29.1422H61.4596L61.5316 29.1457C61.8856 29.1817 62.1619 29.481 62.1619 29.8445V61.4086C62.1617 64.1235 59.9608 66.3247 57.2458 66.3247H27.9395C25.2247 66.3245 23.0236 64.1234 23.0234 61.4086V29.8445L23.0269 29.7725C23.0629 29.4186 23.3623 29.1424 23.7257 29.1422H33.2252V24.9175C33.2253 19.9436 37.2577 15.9113 42.2316 15.9111H42.9531ZM24.428 61.4086C24.4282 63.3477 26.0004 64.9199 27.9395 64.9201H57.2458C59.185 64.9201 60.7571 63.3478 60.7573 61.4086V30.5468H51.9594V35.7139C51.9594 36.1017 51.645 36.4162 51.2571 36.4162C50.8694 36.4159 50.5548 36.1016 50.5548 35.7139V30.5468H34.6298V35.7139C34.6298 36.1017 34.3154 36.4162 33.9275 36.4162C33.5398 36.416 33.2252 36.1016 33.2252 35.7139V30.5468H24.428V61.4086ZM42.2316 17.3157C38.0334 17.3159 34.6299 20.7193 34.6298 24.9175V29.1422H50.5548V24.9175C50.5547 20.7192 47.1513 17.3157 42.9531 17.3157H42.2316Z" fill="white"/>
</svg>
