<svg width="85" height="85" viewBox="0 0 85 85" fill="none" xmlns="http://www.w3.org/2000/svg">
<path d="M48.0564 31.9628C48.2524 31.767 54.6003 31.9161 54.8456 32.0035C54.854 32.0065 54.8624 32.0096 54.8706 32.013C54.8738 32.0143 54.877 32.0157 54.8801 32.017C54.9178 32.0329 54.954 32.0513 54.9879 32.0733C54.9948 32.0778 55.0014 32.0828 55.0082 32.0875C55.0195 32.0954 55.0306 32.1034 55.0414 32.1119C55.0483 32.1174 55.055 32.1231 55.0617 32.1289C55.0723 32.1379 55.0822 32.1477 55.0922 32.1573C55.0954 32.1604 55.0993 32.163 55.1024 32.1661C55.1065 32.1702 55.11 32.1749 55.1139 32.179C55.1204 32.1858 55.1267 32.1929 55.1329 32.2C55.1423 32.2108 55.152 32.2213 55.1607 32.2325C55.165 32.2382 55.1687 32.2444 55.1729 32.2502C55.1809 32.2612 55.1893 32.272 55.1966 32.2834C55.2006 32.2897 55.2042 32.2965 55.2081 32.303C55.2381 32.3536 55.2619 32.407 55.2779 32.4622C55.2958 32.5238 55.3057 32.5894 55.3057 32.6567V39.2121C55.3053 39.5949 54.9946 39.9058 54.6118 39.906C54.2289 39.9059 53.9183 39.5949 53.9179 39.2121V34.3318L44.7232 43.5265C44.4523 43.797 44.0129 43.7971 43.742 43.5265L38.7696 38.5541L31.0664 46.258C30.7954 46.5284 30.356 46.5285 30.0852 46.258C29.8143 45.9872 29.8147 45.5478 30.0852 45.2768L38.279 37.0823L38.3319 37.0349C38.6043 36.8126 39.0062 36.8285 39.2602 37.0823L44.2326 42.0547L52.9367 33.3506H48.0564C47.6735 33.3505 47.3629 33.0397 47.3626 32.6567C47.3626 32.2735 47.6733 31.9629 48.0564 31.9628Z" fill="white"/>
<path fill-rule="evenodd" clip-rule="evenodd" d="M61.5635 20.8037C64.5658 20.8037 66.9993 23.2374 66.9995 26.2396V49.9511C66.9994 52.9533 64.5658 55.387 61.5635 55.387H43.2887V63.4832H52.0782L52.1493 63.4866C52.4992 63.5222 52.772 63.8178 52.772 64.1771C52.772 64.5364 52.4992 64.8321 52.1493 64.8676L52.0782 64.871H42.609C42.6044 64.8711 42.5995 64.8717 42.5948 64.8717C42.59 64.8717 42.5853 64.8711 42.5806 64.871H33.1094C32.7263 64.8709 32.4156 64.5602 32.4155 64.1771C32.4155 63.794 32.7263 63.4834 33.1094 63.4832H41.9009V55.387H23.6254C20.6233 55.3867 18.1895 52.9532 18.1895 49.9511V26.2396C18.1896 23.2376 20.6234 20.804 23.6254 20.8037H61.5635ZM23.6254 22.1915C21.3898 22.1917 19.5774 24.004 19.5772 26.2396V49.9511C19.5773 52.1867 21.3898 53.999 23.6254 53.9992H61.5635C63.7994 53.9992 65.6116 52.1869 65.6117 49.9511V26.2396C65.6116 24.0039 63.7993 22.1915 61.5635 22.1915H23.6254Z" fill="white"/>
</svg>
