<svg width="85" height="84" viewBox="0 0 85 84" fill="none" xmlns="http://www.w3.org/2000/svg">
<g clip-path="url(#clip0_2551_28907)">
<path fill-rule="evenodd" clip-rule="evenodd" d="M40.9334 17.8885C42.0381 17.2808 43.3962 17.3237 44.4647 18.0182L66.0918 32.0762C67.0678 32.7106 67.6569 33.7959 67.657 34.96V49.0389C67.657 50.2029 67.0678 51.2882 66.0918 51.9226L44.4647 65.9807C43.3249 66.7215 41.8555 66.7215 40.7157 65.9807L19.0886 51.9226C18.1126 51.2882 17.5234 50.2029 17.5234 49.0389V34.96C17.5235 33.7959 18.1126 32.7106 19.0886 32.0762L40.7157 18.0182L40.9334 17.8885ZM19.4473 50.4394C19.5621 50.5637 19.693 50.6748 19.8382 50.7692L41.4654 64.8266C41.6038 64.9166 41.7507 64.9874 41.902 65.0409V50.8922L30.2931 42.8777L19.4473 50.4394ZM43.2777 50.8922V65.0409C43.4293 64.9873 43.5765 64.9167 43.715 64.8266L65.3422 50.7692C65.5061 50.6627 65.6506 50.5338 65.7755 50.3897L54.894 42.8401L43.2777 50.8922ZM31.4975 42.038L42.5892 49.6951L53.6869 42.0024L42.5912 34.3044L31.4975 42.038ZM18.8991 49.0389C18.8991 49.0732 18.9001 49.1075 18.9018 49.1416L29.084 42.0434L18.8991 35.0124V49.0389ZM56.1011 42.0038L66.2799 49.0664C66.28 49.0573 66.2813 49.048 66.2813 49.0389V34.96C66.2813 34.9562 66.2806 34.9524 66.2806 34.9486L56.1011 42.0038ZM41.902 18.9573C41.7973 18.9943 41.6947 19.0392 41.5957 19.0936L41.4654 19.1722L19.8382 33.2296C19.6551 33.3486 19.494 33.4937 19.36 33.6588L30.2891 41.2037L41.902 33.108V18.9573ZM43.2777 33.1067L54.8934 41.1661L65.7842 33.6179C65.6575 33.47 65.5096 33.3384 65.3422 33.2296L43.715 19.1722C43.5764 19.0821 43.4293 19.0109 43.2777 18.9573V33.1067Z" fill="#121212"/>
</g>
<defs>
<clipPath id="clip0_2551_28907">
<rect width="84" height="84" fill="white" transform="translate(0.59375)"/>
</clipPath>
</defs>
</svg>
