<svg width="85" height="85" viewBox="0 0 85 85" fill="none" xmlns="http://www.w3.org/2000/svg">
<path d="M31.6001 49.6101C31.9513 49.6459 32.2252 49.9427 32.2252 50.3033C32.2252 50.6639 31.9513 50.9607 31.6001 50.9965L31.5287 50.9999H24.1017C23.717 50.9999 23.4051 50.688 23.4051 50.3033C23.4051 49.9186 23.717 49.6067 24.1017 49.6067H31.5287L31.6001 49.6101Z" fill="white"/>
<path fill-rule="evenodd" clip-rule="evenodd" d="M54.1224 24.5688C55.0807 24.6028 56.0151 24.8862 56.8319 25.3926C57.6898 25.9247 58.3846 26.6827 58.8413 27.5823L66.4662 39.4302C66.9725 40.217 67.2417 41.1333 67.2417 42.0689V55.2854C67.2416 56.747 66.661 58.1491 65.6275 59.1826C64.594 60.2161 63.1919 60.7967 61.7303 60.7968H23.2106C21.749 60.7968 20.347 60.216 19.3134 59.1826C18.2799 58.1491 17.6993 56.747 17.6992 55.2854V42.0689C17.6993 41.1332 17.9684 40.2171 18.4747 39.4302L26.0989 27.5823C26.5557 26.6825 27.251 25.9247 28.1091 25.3926C28.9803 24.8524 29.9851 24.566 31.0103 24.5654H53.9306L54.1224 24.5688ZM19.1339 41.5363C19.1067 41.7117 19.0924 41.8899 19.0924 42.0689V55.2854C19.0925 56.3775 19.5262 57.4253 20.2984 58.1976C21.0707 58.9697 22.1185 59.4036 23.2106 59.4037H61.7303C62.8224 59.4036 63.8702 58.9698 64.6425 58.1976C65.4147 57.4253 65.8484 56.3775 65.8485 55.2854V42.0689C65.8485 41.8899 65.8336 41.7117 65.8064 41.5363H19.1339ZM31.011 25.9586C30.2449 25.959 29.4941 26.1732 28.843 26.5769C28.2732 26.9303 27.7994 27.4167 27.4615 27.9925L27.3254 28.2442C27.314 28.2672 27.3012 28.29 27.2873 28.3116L19.6733 40.1431H65.2676L57.6536 28.3116C57.6398 28.29 57.6269 28.2671 57.6155 28.2442C57.2746 27.5582 56.7489 26.9807 56.0979 26.5769C55.5283 26.2237 54.882 26.0156 54.2163 25.9688L53.9292 25.9586H31.011Z" fill="white"/>
</svg>
