<svg width="85" height="85" viewBox="0 0 85 85" fill="none" xmlns="http://www.w3.org/2000/svg">
<path fill-rule="evenodd" clip-rule="evenodd" d="M29.0616 49.8153C32.3483 49.8153 35.0132 52.4796 35.0133 55.7663C35.0133 59.0531 32.3484 61.7181 29.0616 61.7181C25.775 61.7178 23.1106 59.053 23.1106 55.7663C23.1107 52.4798 25.7751 49.8156 29.0616 49.8153ZM29.0616 51.3144C26.6031 51.3147 24.6098 53.3077 24.6097 55.7663C24.6097 58.225 26.6029 60.2187 29.0616 60.219C31.5205 60.219 33.5142 58.2252 33.5142 55.7663C33.5141 53.3076 31.5204 51.3144 29.0616 51.3144Z" fill="white"/>
<path fill-rule="evenodd" clip-rule="evenodd" d="M56.1486 49.8153C59.4353 49.8154 62.1002 52.4797 62.1004 55.7663C62.1004 59.0531 59.4354 61.718 56.1486 61.7181C52.8619 61.7179 50.1976 59.053 50.1976 55.7663C50.1978 52.4797 52.862 49.8155 56.1486 49.8153ZM56.1486 51.3144C53.69 51.3146 51.6969 53.3077 51.6967 55.7663C51.6967 58.2251 53.6898 60.2188 56.1486 60.219C58.6074 60.2189 60.6013 58.2252 60.6013 55.7663C60.6011 53.3076 58.6073 51.3145 56.1486 51.3144Z" fill="white"/>
<path d="M47.5881 23.958C50.4857 23.958 52.8348 26.3072 52.8349 29.2049V34.4107H60.3341C61.328 34.4107 62.281 34.8059 62.9839 35.5087L68.3456 40.8697L68.4737 41.0044C69.0964 41.6919 69.4436 42.5883 69.4436 43.5202V51.1431C69.4435 53.2128 67.7655 54.8908 65.6959 54.8909H63.5204C63.1066 54.8907 62.7709 54.5551 62.7709 54.1413C62.7709 53.7275 63.1066 53.3919 63.5204 53.3918H65.6959C66.9376 53.3917 67.9444 52.3849 67.9445 51.1431V43.5202C67.9445 42.9984 67.7629 42.4952 67.435 42.0951L67.2857 41.9304L61.9239 36.5686C61.5023 36.1469 60.9304 35.9098 60.3341 35.9098H52.8349V48.4238C52.8348 48.8377 52.4993 49.1733 52.0854 49.1733C51.6716 49.1732 51.3359 48.8376 51.3358 48.4238V29.2049C51.3357 27.1351 49.6578 25.4571 47.5881 25.4571H20.9929C18.9233 25.4573 17.2453 27.1352 17.2452 29.2049V49.6433C17.2452 51.713 18.9233 53.3909 20.9929 53.391H21.9343L22.0104 53.3954C22.3883 53.4337 22.6836 53.7526 22.6838 54.1406C22.6838 54.5287 22.3885 54.8482 22.0104 54.8865L21.9343 54.8901H20.9929C18.0953 54.89 15.7461 52.5409 15.7461 49.6433V29.2049C15.7462 26.3073 18.0954 23.9582 20.9929 23.958H47.5881Z" fill="white"/>
<path d="M48.6751 53.3954C49.053 53.4336 49.3483 53.7526 49.3485 54.1406C49.3485 54.5288 49.0532 54.8482 48.6751 54.8865L48.5989 54.8901H36.339C35.9252 54.8899 35.5894 54.5544 35.5894 54.1406C35.5896 53.7269 35.9253 53.3913 36.339 53.391H48.5989L48.6751 53.3954Z" fill="white"/>
</svg>
