<svg width="85" height="84" viewBox="0 0 85 84" fill="none" xmlns="http://www.w3.org/2000/svg">
<g clip-path="url(#clip0_4172_34947)">
<path d="M49.2754 16.7461C49.6896 16.7461 50.0254 17.0829 50.0254 17.4971V23.4297H55.958C58.8324 23.43 61.1631 25.7603 61.1631 28.6348V34.5664H67.0957L67.1719 34.5703C67.55 34.6088 67.8457 34.9281 67.8457 35.3164C67.8457 35.7047 67.55 36.024 67.1719 36.0625L67.0957 36.0664H61.1631V45.7041H67.0957L67.1719 45.708C67.55 45.7464 67.8456 46.0659 67.8457 46.4541C67.8457 46.8424 67.55 47.1617 67.1719 47.2002L67.0957 47.2041H61.1631V55.3643C61.1628 58.2385 58.8323 60.5691 55.958 60.5693H50.0254V66.502C50.0251 66.9159 49.6894 67.252 49.2754 67.252C48.8614 67.252 48.5257 66.9159 48.5254 66.502V60.5693H36.6602V66.502C36.6598 66.9159 36.3242 67.252 35.9102 67.252C35.4961 67.252 35.1605 66.9159 35.1602 66.502V60.5693H29.2285C26.354 60.5693 24.0237 58.2387 24.0234 55.3643V47.2041H18.0908C17.6766 47.2041 17.3398 46.8683 17.3398 46.4541C17.34 46.04 17.6767 45.7041 18.0908 45.7041H24.0234V36.0664H18.0908C17.6766 36.0664 17.3398 35.7306 17.3398 35.3164C17.3398 34.9022 17.6766 34.5664 18.0908 34.5664H24.0234V28.6348C24.0234 25.7601 26.3539 23.4297 29.2285 23.4297H35.1602V17.4971C35.1602 17.0829 35.4959 16.7461 35.9102 16.7461C36.3244 16.7461 36.6602 17.0829 36.6602 17.4971V23.4297H48.5254V17.4971C48.5254 17.0829 48.8612 16.7461 49.2754 16.7461ZM29.2285 24.9297C27.1823 24.9297 25.5234 26.5886 25.5234 28.6348V55.3643C25.5237 57.4102 27.1825 59.0693 29.2285 59.0693H55.958C58.0038 59.0691 59.6628 57.4101 59.6631 55.3643V28.6348C59.6631 26.5887 58.004 24.93 55.958 24.9297H29.2285ZM49.2754 34.5664C49.6895 34.5665 50.0254 34.9023 50.0254 35.3164V48.6816C50.0253 49.0957 49.6894 49.4315 49.2754 49.4316H35.9102C35.496 49.4316 35.1603 49.0957 35.1602 48.6816V35.3164C35.1602 34.9022 35.4959 34.5664 35.9102 34.5664H49.2754ZM36.6602 47.9316H48.5254V36.0664H36.6602V47.9316Z" fill="#121212"/>
<path fill-rule="evenodd" clip-rule="evenodd" d="M49.2749 34.5669C49.689 34.567 50.0248 34.9028 50.0249 35.3169V48.6821C50.0248 49.0962 49.6889 49.432 49.2749 49.4321H35.9097C35.4956 49.4321 35.1598 49.0962 35.1597 48.6821V35.3169C35.1597 34.9028 35.4955 34.567 35.9097 34.5669H49.2749ZM36.6597 47.9321H48.5249V36.0669H36.6597V47.9321Z" fill="#121212"/>
<path fill-rule="evenodd" clip-rule="evenodd" d="M49.2749 16.7471C49.6891 16.7471 50.0249 17.0829 50.0249 17.4971V23.4297H55.9575C58.8321 23.4298 61.1621 25.7604 61.1621 28.635V34.5669H67.0947L67.1716 34.5706C67.5496 34.6091 67.8447 34.9287 67.8447 35.3169C67.8447 35.7051 67.5497 36.0247 67.1716 36.0632L67.0947 36.0669H61.1621V45.7048H67.0947L67.1716 45.7085C67.5497 45.747 67.8447 46.0666 67.8447 46.4548C67.8446 46.8429 67.5496 47.1626 67.1716 47.2012L67.0947 47.2048H61.1621V55.3647C61.162 58.2392 58.832 60.5692 55.9575 60.5693H50.0249V66.502C50.0248 66.9161 49.689 67.2519 49.2749 67.252C48.8607 67.252 48.525 66.9161 48.5249 66.502V60.5693H36.6597V66.502C36.6596 66.9161 36.3238 67.252 35.9097 67.252C35.4955 67.2519 35.1597 66.9161 35.1597 66.502V60.5693H29.2278C26.3532 60.5693 24.0226 58.2393 24.0225 55.3647V47.2048H18.0898C17.6757 47.2048 17.34 46.8689 17.3398 46.4548C17.3398 46.0406 17.6756 45.7048 18.0898 45.7048H24.0225V36.0669H18.0898C17.6756 36.0669 17.3398 35.7311 17.3398 35.3169C17.3399 34.9027 17.6757 34.5669 18.0898 34.5669H24.0225V28.635C24.0225 25.7604 26.3531 23.4297 29.2278 23.4297H35.1597V17.4971C35.1597 17.0829 35.4955 16.7471 35.9097 16.7471C36.3239 16.7471 36.6597 17.0829 36.6597 17.4971V23.4297H48.5249V17.4971C48.5249 17.0829 48.8607 16.7471 49.2749 16.7471ZM29.2278 24.9297C27.1816 24.9297 25.5225 26.5888 25.5225 28.635V55.3647C25.5226 57.4109 27.1816 59.0693 29.2278 59.0693H55.9575C58.0035 59.0692 59.662 57.4108 59.6621 55.3647V28.635C59.6621 26.5889 58.0036 24.9298 55.9575 24.9297H29.2278Z" fill="#121212"/>
</g>
<defs>
<clipPath id="clip0_4172_34947">
<rect width="84" height="84" fill="white" transform="translate(0.59375)"/>
</clipPath>
</defs>
</svg>
