<svg width="113" height="113" viewBox="0 0 113 113" fill="none" xmlns="http://www.w3.org/2000/svg">
<path d="M48.6816 23.5176C62.1123 23.5178 73.0144 34.488 73.0146 47.9795C73.0146 49.8675 72.8028 51.7003 72.3838 53.4766L89.0957 70.3154L89.1641 70.3916C89.4832 70.7855 89.4582 71.3646 89.0908 71.7295C88.7232 72.0943 88.1435 72.1151 87.752 71.793L87.6768 71.7246L70.5703 54.4883C70.3209 54.237 70.2227 53.8727 70.3125 53.5303C70.7796 51.7522 71.0146 49.9022 71.0146 47.9795C71.0144 35.5822 60.9974 25.5178 48.6816 25.5176C45.9459 25.5176 43.3296 26.0205 40.8906 26.9443L57.5059 43.6514C57.8938 44.0414 57.8937 44.6714 57.5059 45.0615L46.1719 56.459C45.9841 56.6478 45.7283 56.754 45.4619 56.7539C45.1957 56.7537 44.9405 56.647 44.7529 56.458L28.0137 39.5938C26.9678 42.1762 26.3829 44.9868 26.3828 47.9443C26.3828 60.3419 36.3999 70.407 48.7158 70.4072C50.7868 70.4072 52.7946 70.1049 54.7061 69.5654L54.8379 69.5371C55.1453 69.4936 55.4587 69.596 55.6826 69.8184L72.7188 86.7373L72.7881 86.8135C73.1097 87.2051 73.0885 87.785 72.7236 88.1523C72.3588 88.5193 71.7795 88.5444 71.3857 88.2256L71.3096 88.1572L54.6797 71.6406C52.7735 72.1307 50.7765 72.4072 48.7158 72.4072C35.2849 72.407 24.3828 61.436 24.3828 47.9443C24.3829 44.1645 25.2591 40.6048 26.79 37.416L26.8486 37.3105C26.9997 37.0741 27.245 36.9106 27.5254 36.8633C27.8457 36.8093 28.1725 36.914 28.4014 37.1445L45.4639 54.334L55.3857 44.3564L38.4219 27.2979C38.1911 27.0657 38.0886 26.7351 38.1475 26.4131C38.2063 26.0911 38.4188 25.8182 38.7168 25.6826C41.781 24.2888 45.1408 23.5176 48.6816 23.5176Z" fill="#121212"/>
<path d="M48.6816 23.5176C62.1123 23.5178 73.0144 34.488 73.0146 47.9795C73.0146 49.8675 72.8028 51.7003 72.3838 53.4766L89.0957 70.3154L89.1641 70.3916C89.4832 70.7855 89.4582 71.3646 89.0908 71.7295C88.7232 72.0943 88.1435 72.1151 87.752 71.793L87.6768 71.7246L70.5703 54.4883C70.3209 54.237 70.2227 53.8727 70.3125 53.5303C70.7796 51.7522 71.0146 49.9022 71.0146 47.9795C71.0144 35.5822 60.9974 25.5178 48.6816 25.5176C45.9459 25.5176 43.3296 26.0205 40.8906 26.9443L57.5059 43.6514C57.8938 44.0414 57.8937 44.6714 57.5059 45.0615L46.1719 56.459C45.9841 56.6478 45.7283 56.754 45.4619 56.7539C45.1957 56.7537 44.9405 56.647 44.7529 56.458L28.0137 39.5938C26.9678 42.1762 26.3829 44.9868 26.3828 47.9443C26.3828 60.3419 36.3999 70.407 48.7158 70.4072C50.7868 70.4072 52.7946 70.1049 54.7061 69.5654L54.8379 69.5371C55.1453 69.4936 55.4587 69.596 55.6826 69.8184L72.7188 86.7373L72.7881 86.8135C73.1097 87.2051 73.0885 87.785 72.7236 88.1523C72.3588 88.5193 71.7795 88.5444 71.3857 88.2256L71.3096 88.1572L54.6797 71.6406C52.7735 72.1307 50.7765 72.4072 48.7158 72.4072C35.2849 72.407 24.3828 61.436 24.3828 47.9443C24.3829 44.1645 25.2591 40.6048 26.79 37.416L26.8486 37.3105C26.9997 37.0741 27.245 36.9106 27.5254 36.8633C27.8457 36.8093 28.1725 36.914 28.4014 37.1445L45.4639 54.334L55.3857 44.3564L38.4219 27.2979C38.1911 27.0657 38.0886 26.7351 38.1475 26.4131C38.2063 26.0911 38.4188 25.8182 38.7168 25.6826C41.781 24.2888 45.1408 23.5176 48.6816 23.5176Z" fill="#121212"/>
</svg>
