<svg width="85" height="85" viewBox="0 0 85 85" fill="none" xmlns="http://www.w3.org/2000/svg">
<path d="M31.8809 18.2451C32.2951 18.2451 32.6309 18.5809 32.6309 18.9951V45.2373H36.3223C37.5647 45.2375 38.5722 46.2448 38.5723 47.4873V50.6816C38.5723 51.9242 37.5648 52.9315 36.3223 52.9316H32.6309V66.29C32.6306 66.704 32.2949 67.04 31.8809 67.04C31.4668 67.04 31.1311 66.704 31.1309 66.29V52.9316H27.4395C26.1968 52.9316 25.1895 51.9243 25.1895 50.6816V47.4873C25.1895 46.2447 26.1969 45.2373 27.4395 45.2373H31.1309V18.9951C31.1309 18.5809 31.4666 18.2451 31.8809 18.2451ZM53.3145 18.2441C53.7287 18.2441 54.0645 18.5799 54.0645 18.9941V28.1396H57.7578C59 28.1401 60.0077 29.1473 60.0078 30.3896V33.584C60.0078 34.8264 59.0001 35.8335 57.7578 35.834H54.0645V66.2891C54.0644 66.7032 53.7286 67.0391 53.3145 67.0391C52.9003 67.0391 52.5645 66.7032 52.5645 66.2891V35.834H48.875C47.6324 35.834 46.625 34.8266 46.625 33.584V30.3896C46.6251 29.1471 47.6324 28.1396 48.875 28.1396H52.5645V18.9941C52.5645 18.5799 52.9002 18.2441 53.3145 18.2441ZM27.4395 46.7373C27.0253 46.7373 26.6895 47.0731 26.6895 47.4873V50.6816C26.6895 51.0959 27.0252 51.4316 27.4395 51.4316H36.3223C36.7363 51.4315 37.0723 51.0957 37.0723 50.6816V47.4873C37.0722 47.0733 36.7363 46.7375 36.3223 46.7373H27.4395ZM48.875 29.6396C48.4608 29.6396 48.1251 29.9755 48.125 30.3896V33.584C48.125 33.9982 48.4608 34.334 48.875 34.334H57.7578C58.1716 34.3335 58.5078 33.9979 58.5078 33.584V30.3896C58.5077 29.9758 58.1716 29.6401 57.7578 29.6396H48.875Z" fill="white"/>
</svg>
