<svg width="112" height="112" viewBox="0 0 112 112" fill="none" xmlns="http://www.w3.org/2000/svg">
<g clip-path="url(#clip0_2536_21336)">
<path d="M43.2362 49.3056C43.5615 48.9803 44.076 48.9602 44.425 49.2449L44.4926 49.3056L55.9991 60.8121L67.5065 49.3056L67.5742 49.2449C67.9231 48.9601 68.4376 48.9804 68.7629 49.3056C69.0879 49.6308 69.1088 50.1454 68.8245 50.4943L68.7629 50.562L56.6282 62.6976C56.2814 63.0442 55.7187 63.044 55.3718 62.6976L43.2362 50.562L43.1755 50.4943C42.8909 50.1454 42.9111 49.6309 43.2362 49.3056Z" fill="#121212"/>
<path fill-rule="evenodd" clip-rule="evenodd" d="M80.2703 27.8076C82.115 27.8077 83.8848 28.5405 85.1892 29.845C86.4937 31.1494 87.2265 32.9192 87.2266 34.7639V52.9664C87.2266 61.2481 83.9361 69.1914 78.0802 75.0475C72.2242 80.9033 64.2815 84.1929 56 84.193C51.8994 84.193 47.8386 83.3856 44.0501 81.8163C40.2617 80.2471 36.8194 77.9469 33.9198 75.0475C28.0637 69.1913 24.7734 61.2482 24.7734 52.9664V34.7639C24.7735 32.9191 25.5063 31.1494 26.8108 29.845C28.0337 28.6222 29.6653 27.9016 31.3844 27.8163L31.7297 27.8076H80.2703ZM31.4729 29.5907C30.1929 29.6542 28.9778 30.191 28.0672 31.1014C27.096 32.0726 26.5505 33.3904 26.5505 34.7639V52.9664C26.5505 60.7769 29.6534 68.2673 35.1762 73.7902C37.9109 76.5248 41.1574 78.6947 44.7304 80.1747C48.3032 81.6545 52.1328 82.4159 56 82.4159C63.8104 82.4158 71.301 79.313 76.8238 73.7902C82.3464 68.2674 85.4495 60.7767 85.4495 52.9664V34.7639C85.4495 33.3905 84.904 32.0726 83.9328 31.1014C82.9616 30.1302 81.6437 29.5848 80.2703 29.5847H31.7297L31.4729 29.5907Z" fill="#121212"/>
</g>
<defs>
<clipPath id="clip0_2536_21336">
<rect width="112" height="112" fill="white"/>
</clipPath>
</defs>
</svg>
