<svg width="24" height="24" viewBox="0 0 24 24" fill="none" xmlns="http://www.w3.org/2000/svg">
<g clip-path="url(#clip0_181_10013)">
<path fill-rule="evenodd" clip-rule="evenodd" d="M19.7818 14C19.9246 13.3621 20 12.6987 20 12.0176C20 7.0373 15.9706 3 11 3C6.02944 3 2 7.0373 2 12.0176C2 16.9978 6.02944 21.0351 11 21.0351L11 19.5766C10.7365 19.2162 10.3857 18.6849 10.034 17.9983C9.37453 16.7113 8.71452 14.885 8.61335 12.6176H13.3867C13.3652 13.0985 13.3186 13.5597 13.2522 14H14.4646C14.5257 13.5575 14.5682 13.0965 14.5878 12.6176H18.7774C18.7415 13.0915 18.6635 13.5535 18.5471 14H19.7818ZM9.64119 19.7169C6.17422 19.1064 3.49387 16.2005 3.22262 12.6176H7.41224C7.51444 15.1153 8.23995 17.1285 8.96601 18.5455C9.19732 18.997 9.429 19.3886 9.64119 19.7169ZM8.61335 11.4176C8.71452 9.15019 9.37453 7.32388 10.034 6.0368C10.3857 5.35027 10.7365 4.81893 11 4.45857C11.2635 4.81893 11.6143 5.35027 11.966 6.0368C12.6255 7.32388 13.2855 9.15019 13.3867 11.4176H8.61335ZM7.41224 11.4176H3.22262C3.49387 7.8346 6.17422 4.92878 9.64119 4.31824C9.429 4.64655 9.19732 5.03814 8.96601 5.4896C8.23995 6.90667 7.51444 8.91986 7.41224 11.4176ZM18.7774 11.4176H14.5878C14.4856 8.91986 13.76 6.90667 13.034 5.4896C12.8027 5.03814 12.571 4.64655 12.3588 4.31824C15.8258 4.92878 18.5061 7.8346 18.7774 11.4176ZM11.9484 14.6367V21H13.091V19.1016L13.8029 18.2666L15.7101 21H17.09L14.6027 17.4932L17.0636 14.6367H15.6662L13.1789 17.5635H13.091V14.6367H11.9484ZM17.6131 14.6367V21H18.7557V18.6709H19.951L21.1991 21H22.4735L21.1024 18.4775C21.8495 18.1743 22.245 17.5327 22.245 16.667C22.245 15.4541 21.4627 14.6367 20.0037 14.6367H17.6131ZM19.828 17.7129H18.7557V15.5947H19.828C20.6893 15.5947 21.076 15.9902 21.076 16.667C21.076 17.3438 20.6893 17.7129 19.828 17.7129Z" fill="#121212"/>
<path fill-rule="evenodd" clip-rule="evenodd" d="M19.7818 14C19.9246 13.3621 20 12.6987 20 12.0176C20 7.0373 15.9706 3 11 3C6.02944 3 2 7.0373 2 12.0176C2 16.9978 6.02944 21.0351 11 21.0351L11 19.5766C10.7365 19.2162 10.3857 18.6849 10.034 17.9983C9.37453 16.7113 8.71452 14.885 8.61335 12.6176H13.3867C13.3652 13.0985 13.3186 13.5597 13.2522 14H14.4646C14.5257 13.5575 14.5682 13.0965 14.5878 12.6176H18.7774C18.7415 13.0915 18.6635 13.5535 18.5471 14H19.7818ZM9.64119 19.7169C6.17422 19.1064 3.49387 16.2005 3.22262 12.6176H7.41224C7.51444 15.1153 8.23995 17.1285 8.96601 18.5455C9.19732 18.997 9.429 19.3886 9.64119 19.7169ZM8.61335 11.4176C8.71452 9.15019 9.37453 7.32388 10.034 6.0368C10.3857 5.35027 10.7365 4.81893 11 4.45857C11.2635 4.81893 11.6143 5.35027 11.966 6.0368C12.6255 7.32388 13.2855 9.15019 13.3867 11.4176H8.61335ZM7.41224 11.4176H3.22262C3.49387 7.8346 6.17422 4.92878 9.64119 4.31824C9.429 4.64655 9.19732 5.03814 8.96601 5.4896C8.23995 6.90667 7.51444 8.91986 7.41224 11.4176ZM18.7774 11.4176H14.5878C14.4856 8.91986 13.76 6.90667 13.034 5.4896C12.8027 5.03814 12.571 4.64655 12.3588 4.31824C15.8258 4.92878 18.5061 7.8346 18.7774 11.4176Z" fill="#121212"/>
<path d="M11.9491 14.628V21H13.0831V19.11L13.8031 18.264L15.7111 21H17.0791L14.5951 17.49L17.0611 14.628H15.6571L13.1731 17.562H13.0831V14.628H11.9491Z" fill="#121212"/>
<path fill-rule="evenodd" clip-rule="evenodd" d="M17.6227 14.628V21H18.7567V18.66H19.9447L21.2047 21H22.4827L21.0967 18.48C21.8527 18.183 22.2487 17.535 22.2487 16.662C22.2487 15.456 21.4657 14.637 19.9987 14.628H17.6227ZM19.8367 17.724H18.7567V15.6H19.8367C20.6917 15.591 21.0787 15.996 21.0787 16.662C21.0787 17.346 20.6917 17.715 19.8367 17.724Z" fill="#121212"/>
</g>
<defs>
<clipPath id="clip0_181_10013">
<rect width="24" height="24" fill="white"/>
</clipPath>
</defs>
</svg>
