<svg width="113" height="113" viewBox="0 0 113 113" fill="none" xmlns="http://www.w3.org/2000/svg">
<path d="M89.2066 61.0863C89.2735 61.0844 89.3404 61.0899 89.4064 61.1021C89.417 61.104 89.4274 61.1062 89.4378 61.1085C89.4589 61.1132 89.4799 61.1182 89.5007 61.1243C89.5041 61.1253 89.5076 61.126 89.5109 61.127C89.5331 61.1338 89.5549 61.1418 89.5766 61.1502C89.5841 61.1531 89.5914 61.1563 89.5988 61.1594C89.6194 61.168 89.6398 61.1771 89.6599 61.1872C89.6642 61.1893 89.6685 61.1914 89.6728 61.1936C89.7643 61.2415 89.8497 61.3047 89.9244 61.3842C90.0256 61.4919 90.0959 61.6174 90.1372 61.7496C90.1399 61.7582 90.1421 61.7668 90.1446 61.7755C90.1674 61.8567 90.179 61.9398 90.1797 62.0234C90.1798 62.0268 90.1807 62.0302 90.1807 62.0336V79.8741C90.1806 80.3973 89.7565 80.8214 89.2334 80.8214C88.7104 80.8213 88.2862 80.3972 88.2862 79.8741V64.2223L76.0856 75.6874C72.7807 78.9868 68.6954 81.3978 64.2089 82.6956C59.7128 83.996 54.9601 84.1373 50.3951 83.1044C45.83 82.0715 41.6004 79.8985 38.1021 76.7891C34.6038 73.6797 31.9504 69.7345 30.389 65.3221L32.1743 64.6903C33.629 68.801 36.1019 72.476 39.3611 75.3728C42.6202 78.2696 46.5603 80.2939 50.8132 81.2562C55.0661 82.2184 59.4939 82.0875 63.6825 80.876C67.8712 79.6644 71.685 77.4115 74.7674 74.3275L74.7887 74.3063L86.8412 62.9808H71.3929C70.8698 62.9808 70.4457 62.5566 70.4456 62.0336C70.4456 61.5105 70.8698 61.0864 71.3929 61.0863H89.2066Z" fill="#121212"/>
<path d="M30.9653 64.1131C31.4585 63.9386 31.9998 64.1972 32.1743 64.6903L30.389 65.3221C30.2146 64.8291 30.4724 64.2878 30.9653 64.1131Z" fill="#121212"/>
<path d="M48.8438 29.4764C53.3399 28.1759 58.0925 28.0346 62.6576 29.0675C67.2226 30.1004 71.4513 32.2736 74.9497 35.3828C78.4481 38.4923 81.1023 42.4374 82.6637 46.8498C82.8381 47.3429 82.5796 47.8843 82.0865 48.0588C81.5934 48.2331 81.0519 47.9746 80.8774 47.4816C79.4228 43.371 76.9507 39.6959 73.6916 36.7991C70.4324 33.9023 66.4924 31.8781 62.2395 30.9158C57.9865 29.9535 53.5589 30.0844 49.3701 31.296C45.4432 32.4319 41.846 34.4832 38.8717 37.2764L38.2852 37.8444C38.2783 37.8514 38.2711 37.8589 38.264 37.8657L26.2078 49.1939H41.6589L41.756 49.1985C42.2336 49.2471 42.6061 49.6508 42.6062 50.1411C42.6059 50.6313 42.2335 51.0352 41.756 51.0837L41.6589 51.0884H23.8183C23.4475 51.0883 23.1274 50.8743 22.9719 50.5639C22.9678 50.5556 22.9638 50.5473 22.9599 50.5389C22.9375 50.4906 22.9185 50.4404 22.9044 50.3881C22.9028 50.3823 22.9012 50.3764 22.8998 50.3705C22.8869 50.319 22.8788 50.2659 22.8748 50.2114C22.8741 50.2019 22.8734 50.1923 22.8729 50.1827C22.8723 50.1689 22.8711 50.1551 22.8711 50.1411V32.3006C22.8711 31.7775 23.2953 31.3534 23.8183 31.3533C24.3415 31.3533 24.7656 31.7774 24.7656 32.3006V47.9487L36.9661 36.4846C40.2712 33.1848 44.3571 30.7742 48.8438 29.4764Z" fill="#121212"/>
</svg>
