<svg width="113" height="112" viewBox="0 0 113 112" fill="none" xmlns="http://www.w3.org/2000/svg">
<g clip-path="url(#clip0_2551_29175)">
<path d="M44.0565 49.3056C44.3818 48.9803 44.8963 48.9602 45.2453 49.2449L45.313 49.3056L56.8194 60.8121L68.3268 49.3056L68.3945 49.2449C68.7434 48.9601 69.2579 48.9804 69.5832 49.3056C69.9083 49.6308 69.9291 50.1454 69.6448 50.4943L69.5832 50.562L57.4485 62.6976C57.1017 63.0442 56.5391 63.044 56.1921 62.6976L44.0565 50.562L43.9958 50.4943C43.7112 50.1454 43.7314 49.6309 44.0565 49.3056Z" fill="white"/>
<path fill-rule="evenodd" clip-rule="evenodd" d="M81.0906 27.8076C82.9353 27.8077 84.7051 28.5405 86.0095 29.845C87.314 31.1494 88.0468 32.9192 88.0469 34.7639V52.9664C88.0469 61.2481 84.7564 69.1914 78.9005 75.0475C73.0445 80.9033 65.1018 84.1929 56.8203 84.193C52.7197 84.193 48.6589 83.3856 44.8704 81.8163C41.082 80.2471 37.6397 77.9469 34.7401 75.0475C28.884 69.1913 25.5938 61.2482 25.5938 52.9664V34.7639C25.5938 32.9191 26.3266 31.1494 27.6311 29.845C28.854 28.6222 30.4857 27.9016 32.2047 27.8163L32.5501 27.8076H81.0906ZM32.2932 29.5907C31.0132 29.6542 29.7981 30.191 28.8875 31.1014C27.9163 32.0726 27.3709 33.3904 27.3708 34.7639V52.9664C27.3708 60.7769 30.4737 68.2673 35.9965 73.7902C38.7312 76.5248 41.9777 78.6947 45.5507 80.1747C49.1235 81.6545 52.9531 82.4159 56.8203 82.4159C64.6307 82.4158 72.1213 79.313 77.6441 73.7902C83.1667 68.2674 86.2698 60.7767 86.2698 52.9664V34.7639C86.2698 33.3905 85.7243 32.0726 84.7531 31.1014C83.7819 30.1302 82.464 29.5848 81.0906 29.5847H32.5501L32.2932 29.5907Z" fill="white"/>
</g>
<defs>
<clipPath id="clip0_2551_29175">
<rect width="112" height="112" fill="white" transform="translate(0.820312)"/>
</clipPath>
</defs>
</svg>
