<svg width="85" height="85" viewBox="0 0 85 85" fill="none" xmlns="http://www.w3.org/2000/svg">
<path d="M42.5977 18.9863C53.06 18.9867 61.692 26.8143 62.9619 36.9326C66.7515 37.8149 69.5752 41.2123 69.5742 45.2705L69.5732 47.1709L69.5625 47.6113C69.3492 51.7953 66.1313 55.1828 62.0244 55.666C61.8821 59.1139 59.0433 61.8659 55.5605 61.8662H50.4375C50.277 62.6606 49.8595 63.3145 49.2588 63.7891C48.4981 64.3897 47.4954 64.6658 46.459 64.666H43.3613C42.3245 64.666 41.3214 64.3899 40.5605 63.7891C39.7799 63.1724 39.3087 62.2538 39.3086 61.1162C39.3086 59.9807 39.7785 59.0505 40.5527 58.4189C41.3109 57.8007 42.3151 57.503 43.3623 57.5029H46.457C47.5044 57.503 48.5094 57.8005 49.2676 58.4189C49.8635 58.9052 50.278 59.5686 50.4375 60.3662H55.5605C58.2148 60.3659 60.3824 58.2852 60.5234 55.666C59.6275 55.446 58.9621 54.6404 58.9619 53.6768V38.7598C58.9619 37.6267 59.8806 36.7081 61.0137 36.708C61.1495 36.708 61.2846 36.7115 61.4189 36.7178C60.0671 27.5356 52.1556 20.4867 42.5977 20.4863C33.0393 20.4863 25.1263 27.5353 23.7744 36.7178C23.9081 36.7116 24.0425 36.708 24.1777 36.708C25.3109 36.708 26.2295 37.6266 26.2295 38.7598V53.6768C26.2292 54.8096 25.3107 55.7285 24.1777 55.7285C19.4513 55.7285 15.6197 51.8973 15.6182 47.1709L15.6172 45.2705C15.6162 41.212 18.4404 37.8145 22.2305 36.9326C23.5004 26.814 32.135 18.9863 42.5977 18.9863ZM43.3623 59.0029C42.5854 59.003 41.9375 59.2243 41.5 59.5811C41.0786 59.925 40.8086 60.4271 40.8086 61.1162C40.8087 61.8028 41.0762 62.2841 41.4902 62.6113C41.9245 62.9542 42.5736 63.166 43.3613 63.166H46.459C47.2464 63.1658 47.895 62.9542 48.3291 62.6113C48.7432 62.2841 49.0116 61.8028 49.0117 61.1162C49.0117 60.4271 48.7408 59.925 48.3193 59.5811C47.8819 59.2242 47.2341 59.003 46.457 59.0029H43.3623ZM24.1777 38.208C20.2777 38.208 17.1162 41.3705 17.1172 45.2705L17.1182 47.1709C17.1195 51.0689 20.2796 54.2285 24.1777 54.2285C24.4822 54.2285 24.7292 53.9812 24.7295 53.6768V38.7598C24.7295 38.4551 24.4824 38.208 24.1777 38.208ZM61.0137 38.208C60.709 38.2081 60.4619 38.4551 60.4619 38.7598V53.6768C60.4622 53.9812 60.7092 54.2285 61.0137 54.2285C64.79 54.2285 67.8741 51.2634 68.0645 47.5342L68.0732 47.1709L68.0742 45.2705C68.0752 41.3705 64.9137 38.208 61.0137 38.208Z" fill="#121212"/>
</svg>
