<svg width="113" height="113" viewBox="0 0 113 113" fill="none" xmlns="http://www.w3.org/2000/svg">
<path fill-rule="evenodd" clip-rule="evenodd" d="M56.7031 25.0439C64.3258 25.044 71.2667 26.0728 76.3338 27.7618C78.8622 28.6047 80.9768 29.6287 82.4782 30.8119C83.9691 31.9869 84.9854 33.4292 84.9854 35.1V77.6297C84.9853 79.2995 83.9782 80.7424 82.493 81.9195C80.998 83.1042 78.8904 84.1291 76.3669 84.9715C71.3102 86.6596 64.3695 87.6856 56.7031 87.6857C49.0364 87.6857 42.0952 86.6597 37.0383 84.9715C34.5149 84.1291 32.4082 83.1041 30.9132 81.9195C29.5204 80.8159 28.548 79.4788 28.4319 77.9398L28.4199 77.6297V35.1C28.4199 33.4291 29.437 31.9869 30.9279 30.8119C32.4295 29.6288 34.544 28.6046 37.0724 27.7618C42.1396 26.0728 49.0803 25.0439 56.7031 25.0439ZM30.3049 77.6297L30.3113 77.7907C30.3723 78.6009 30.8959 79.5009 32.0839 80.4423C33.3419 81.4391 35.2222 82.3778 37.6347 83.1832C42.4508 84.791 49.181 85.8008 56.7031 85.8008C64.2251 85.8007 70.9546 84.791 75.7705 83.1832C78.1832 82.3777 80.0643 81.4392 81.3223 80.4423C82.5893 79.4382 83.1004 78.4808 83.1004 77.6297V60.1296C82.9085 60.3095 82.7062 60.4852 82.493 60.6542C80.998 61.8389 78.8904 62.8637 76.3669 63.7062C71.3102 65.3943 64.3696 66.4203 56.7031 66.4204C49.0364 66.4204 42.0952 65.3944 37.0383 63.7062C34.5149 62.8638 32.4082 61.8388 30.9132 60.6542C30.6996 60.485 30.4971 60.3088 30.3049 60.1287V77.6297ZM30.3049 56.3644L30.3104 56.5254C30.3713 57.3357 30.8958 58.2355 32.0839 59.177C33.3419 60.1738 35.2222 61.1125 37.6347 61.9179C42.4508 63.5257 49.181 64.5355 56.7031 64.5355C64.2251 64.5354 70.9546 63.5257 75.7705 61.9179C78.1832 61.1124 80.0643 60.1739 81.3223 59.177C82.5101 58.2357 83.0332 57.3356 83.094 56.5254L83.1004 56.3644V38.8524C82.904 39.0359 82.6967 39.2149 82.4782 39.3871C80.9768 40.5703 78.8622 41.5953 76.3338 42.4381C71.2667 44.1272 64.3258 45.156 56.7031 45.156C49.0804 45.156 42.1396 44.1271 37.0724 42.4381C34.5438 41.5953 32.4295 40.5704 30.9279 39.3871C30.7092 39.2147 30.5015 39.0352 30.3049 38.8514V56.3644ZM56.7031 26.9289C49.2265 26.9289 42.4959 27.9408 37.6679 29.5501C35.2493 30.3563 33.3594 31.2957 32.0941 32.2928C30.8181 33.2984 30.3049 34.2543 30.3049 35.1C30.3049 35.9457 30.8181 36.9015 32.0941 37.9071C33.3595 38.9043 35.2492 39.8436 37.6679 40.6499C42.4959 42.2591 49.2265 43.2711 56.7031 43.2711C64.1796 43.271 70.9095 42.2592 75.7374 40.6499C78.1561 39.8436 80.0458 38.9043 81.3112 37.9071C82.5871 36.9016 83.1004 35.9457 83.1004 35.1C83.1004 34.2543 82.5872 33.2984 81.3112 32.2928C80.0458 31.2956 78.1561 30.3564 75.7374 29.5501C70.9095 27.9408 64.1796 26.9289 56.7031 26.9289Z" fill="white"/>
</svg>
