<svg width="112" height="112" viewBox="0 0 112 112" fill="none" xmlns="http://www.w3.org/2000/svg">
<g clip-path="url(#clip0_2536_21240)">
<path fill-rule="evenodd" clip-rule="evenodd" d="M56.3068 31.8901C62.7868 32.0545 67.9894 37.3598 67.9894 43.8795L67.9858 44.1889C67.8318 50.2503 63.1806 55.194 57.2443 55.8073V88.4408C57.2441 88.9524 56.8293 89.3674 56.3176 89.3674C55.8063 89.367 55.3911 88.9522 55.391 88.4408V55.8571C49.152 55.5462 44.1673 50.4667 44.0079 44.1889L44.0043 43.8795C44.0043 37.2564 49.3743 31.8869 55.9973 31.8865L56.3068 31.8901ZM55.9973 33.7397C50.3979 33.7402 45.8576 38.28 45.8576 43.8795C45.858 49.4786 50.3981 54.0178 55.9973 54.0183C61.5966 54.018 66.1357 49.4787 66.1361 43.8795C66.1361 38.2798 61.5968 33.74 55.9973 33.7397Z" fill="#121212"/>
<path d="M30.948 22.9594C31.2853 22.5746 31.8708 22.5362 32.2556 22.8734C32.6402 23.2107 32.6787 23.7962 32.3416 24.181C29.587 27.3249 27.7556 30.1376 26.6053 33.1371C25.4558 36.1345 24.9646 39.3754 24.9646 43.4044C24.9647 47.4333 25.4557 50.6742 26.6053 53.6717C27.6837 56.4836 29.3606 59.1319 31.8357 62.0422L32.3416 62.6277L32.4004 62.7019C32.6727 63.0846 32.6163 63.6191 32.2556 63.9354C31.8948 64.2513 31.3576 64.2371 31.0141 63.9173L30.948 63.8494L30.424 63.2431C27.8562 60.2237 26.0492 57.3972 24.875 54.3359C23.622 51.0687 23.1114 47.5889 23.1113 43.4044C23.1113 39.2198 23.622 35.7401 24.875 32.4728C26.1274 29.2075 28.1003 26.2095 30.948 22.9594Z" fill="#121212"/>
<path d="M79.7444 22.8625C80.1052 22.5464 80.6423 22.5605 80.9859 22.8806L81.052 22.9485L81.576 23.5548C84.1439 26.5743 85.9508 29.4006 87.125 32.462C88.378 35.7293 88.8887 39.2089 88.8887 43.3935C88.8886 47.578 88.378 51.0578 87.125 54.325C85.8726 57.5903 83.8997 60.5884 81.052 63.8385C80.7147 64.2229 80.1291 64.2616 79.7444 63.9245C79.3597 63.5873 79.3215 63.0017 79.6584 62.6169C82.413 59.4731 84.2444 56.6601 85.3947 53.6608C86.5443 50.6633 87.0354 47.4225 87.0354 43.3935C87.0354 39.3645 86.5443 36.1237 85.3947 33.1262C84.3163 30.3142 82.6394 27.6661 80.1643 24.7556L79.6584 24.1701L79.5996 24.0959C79.3272 23.7134 79.3839 23.1789 79.7444 22.8625Z" fill="#121212"/>
<path d="M38.5675 31.1571C38.9092 30.7764 39.4951 30.7449 39.876 31.0865C40.2565 31.4283 40.2881 32.0142 39.9466 32.395C38.3131 34.2165 37.2446 35.8263 36.5766 37.5278C35.9097 39.2269 35.6192 41.0758 35.6192 43.4035C35.6193 45.7309 35.9097 47.5792 36.5766 49.2783C37.1612 50.7671 38.0523 52.1861 39.3602 53.7377L39.9466 54.411L40.0063 54.4852C40.2827 54.8646 40.2328 55.3992 39.876 55.7195C39.5188 56.0397 38.9808 56.0321 38.6335 55.7159L38.5675 55.6489L38.2489 55.2888C36.6893 53.4969 35.5771 51.8026 34.8519 49.9551C34.0773 47.982 33.766 45.8904 33.7659 43.4035C33.7659 40.9163 34.0773 38.8242 34.8519 36.8509C35.6255 34.8801 36.8398 33.0836 38.5675 31.1571Z" fill="#121212"/>
<path d="M72.1158 31.0793C72.4731 30.7588 73.011 30.7664 73.3583 31.0829L73.4244 31.1498L73.7429 31.51C75.3026 33.3018 76.4148 34.9961 77.14 36.8436C77.9145 38.8168 78.2259 40.9084 78.2259 43.3953C78.2259 45.8824 77.9146 47.9746 77.14 49.9479C76.3663 51.9187 75.1521 53.7152 73.4244 55.6417C73.0827 56.0222 72.4967 56.0535 72.1158 55.7123C71.7352 55.3706 71.7038 54.7847 72.0453 54.4038C73.6787 52.5823 74.7472 50.9724 75.4152 49.271C76.0822 47.5719 76.3726 45.723 76.3726 43.3953C76.3726 41.0679 76.0821 39.2196 75.4152 37.5205C74.8307 36.0317 73.9395 34.6127 72.6317 33.0611L72.0453 32.3878L71.9855 32.3136C71.709 31.9342 71.759 31.3996 72.1158 31.0793Z" fill="#121212"/>
</g>
<defs>
<clipPath id="clip0_2536_21240">
<rect width="112" height="112" fill="white"/>
</clipPath>
</defs>
</svg>
