<svg width="85" height="85" viewBox="0 0 85 85" fill="none" xmlns="http://www.w3.org/2000/svg">
<path fill-rule="evenodd" clip-rule="evenodd" d="M43.7516 17.7069C43.0903 17.3252 42.2756 17.3243 41.6132 17.7041L20.8959 29.5831C20.2296 29.9652 19.8184 30.6749 19.8184 31.443V54.9345C19.8185 55.7003 20.2271 56.408 20.8903 56.7909L41.5281 68.7062L41.6544 68.7732C42.2933 69.0874 43.0508 69.0647 43.6727 68.7055L64.2979 56.7909C64.9609 56.4079 65.3698 55.7002 65.3699 54.9345L65.3685 31.4249C65.3684 30.7069 65.0093 30.0399 64.4179 29.6438L64.2965 29.5684L43.7516 17.7069ZM63.9406 54.9345C63.9405 55.1896 63.8041 55.4258 63.5832 55.5535L43.3077 67.2657V43.6668L63.9399 31.732L63.9406 54.9345ZM41.8784 43.6668V67.2574L21.605 55.5535C21.384 55.4259 21.2478 55.1897 21.2477 54.9345V31.7326L41.8784 43.6668ZM52.2102 36.8657L42.5931 42.4287L22.0705 30.5574L31.71 25.03L52.2102 36.8657ZM42.3244 18.9436C42.5451 18.817 42.8166 18.8178 43.0369 18.9449L63.1338 30.5476L53.6388 36.0394L33.1441 24.2071L42.3244 18.9436Z" fill="white"/>
</svg>
