<svg width="85" height="85" viewBox="0 0 85 85" fill="none" xmlns="http://www.w3.org/2000/svg">
<path fill-rule="evenodd" clip-rule="evenodd" d="M42.5062 20.6201C45.4737 20.6204 47.8793 23.0265 47.8794 25.994C47.8793 28.7327 45.8302 30.9907 43.1816 31.3232V39.2219C47.0012 39.553 49.9984 42.7568 49.9985 46.6622C49.9984 47.8711 49.7092 49.0121 49.1994 50.0223L56.9416 54.4919C57.9225 53.4413 59.3193 52.784 60.8699 52.7839C63.8376 52.784 66.2431 55.1901 66.2432 58.1578C66.243 61.1254 63.8375 63.5309 60.8699 63.5311C57.9023 63.531 55.4962 61.1255 55.496 58.1578C55.496 57.2277 55.7319 56.3525 56.1478 55.5896L48.4865 51.166C47.1227 52.9674 44.9622 54.132 42.5286 54.1322C40.1142 54.1322 37.9686 52.9858 36.6029 51.2088L29.1198 55.7823C29.4326 56.4638 29.6084 57.2214 29.6085 58.0204C29.6083 60.988 27.2028 63.3935 24.2352 63.3936C21.2676 63.3935 18.8615 60.988 18.8613 58.0204C18.8615 55.0528 21.2676 52.6466 24.2352 52.6465C25.9207 52.6465 27.4244 53.4236 28.4095 54.6379L35.8814 50.071C35.3561 49.0489 35.058 47.8905 35.058 46.6622C35.0581 42.7705 38.0343 39.5746 41.8347 39.2245V31.3238C39.1839 30.9934 37.1324 28.7343 37.1323 25.994C37.1324 23.0263 39.5385 20.6201 42.5062 20.6201ZM60.8699 54.1308C58.6461 54.1309 56.843 55.934 56.843 58.1578C56.8431 60.3816 58.6462 62.184 60.8699 62.1841C63.0936 62.184 64.8961 60.3815 64.8962 58.1578C64.8962 55.934 63.0937 54.131 60.8699 54.1308ZM24.2352 53.9934C22.0115 53.9935 20.2084 55.7966 20.2083 58.0204C20.2084 60.2441 22.0115 62.0466 24.2352 62.0467C26.4589 62.0465 28.2614 60.2441 28.2615 58.0204C28.2614 55.7967 26.4589 53.9935 24.2352 53.9934ZM42.5286 40.5386C39.1468 40.5386 36.405 43.2805 36.4049 46.6622C36.4051 50.044 39.1468 52.7852 42.5286 52.7852C45.9102 52.785 48.6514 50.0438 48.6516 46.6622C48.6514 43.2806 45.9102 40.5388 42.5286 40.5386ZM42.5062 21.967C40.2824 21.967 38.4794 23.7702 38.4792 25.994C38.4794 28.2178 40.2824 30.0203 42.5062 30.0203C44.7298 30.0201 46.5324 28.2177 46.5325 25.994C46.5324 23.7704 44.7298 21.9673 42.5062 21.967Z" fill="#121212"/>
</svg>
