<svg width="112" height="112" viewBox="0 0 112 112" fill="none" xmlns="http://www.w3.org/2000/svg">
<path fill-rule="evenodd" clip-rule="evenodd" d="M82.3234 32.2754C82.6109 32.9694 82.7768 33.7074 82.8136 34.4561L82.8214 34.7773C82.8214 35.6356 82.6518 36.4854 82.3234 37.2783C82.0359 37.9724 81.6315 38.6115 81.1281 39.167L80.9064 39.3994L40.6779 79.627L28.3527 82.708L31.4337 70.3818L71.6623 30.1553L71.8966 29.9316C73.0958 28.8457 74.6589 28.2402 76.2843 28.2402C77.1427 28.2402 77.9932 28.4098 78.7863 28.7383C79.5792 29.0668 80.2995 29.5484 80.9064 30.1553C81.5133 30.7622 81.9949 31.4825 82.3234 32.2754ZM82.8781 37.5088C83.1919 36.7511 83.372 35.9454 83.4123 35.1279L83.421 34.7773C83.421 33.8401 83.2367 32.9118 82.8781 32.0459C82.5194 31.1801 81.9939 30.3931 81.3312 29.7305C80.6686 29.0678 79.8815 28.5422 79.0158 28.1836C78.1499 27.8249 77.2215 27.6406 76.2843 27.6406C74.5099 27.6406 72.8034 28.301 71.4943 29.4863L71.2375 29.7305L30.9513 70.0176C30.9323 70.0366 30.9157 70.0578 30.9025 70.0811L30.8722 70.1562L27.6496 83.0479C27.624 83.1501 27.6541 83.2585 27.7287 83.333C27.8032 83.4075 27.9116 83.4377 28.0138 83.4121L40.9054 80.1895C40.9579 80.1763 41.0058 80.1486 41.0441 80.1104L81.3312 39.8242L81.5724 39.5693C82.1219 38.963 82.5642 38.2664 82.8781 37.5088ZM86.0132 82.8271L85.9527 82.8212H56.9468C56.7811 82.8212 56.647 82.9553 56.647 83.121C56.647 83.2867 56.7811 83.4208 56.9468 83.4208H85.9527L86.0132 83.415C86.15 83.3871 86.2534 83.2661 86.2534 83.121C86.2534 82.9759 86.15 82.8549 86.0132 82.8271Z" fill="url(#paint0_linear_966_90308)"/>
<path fill-rule="evenodd" clip-rule="evenodd" d="M76.2859 26.8008C74.171 26.8008 72.1427 27.6409 70.6472 29.1364L30.3608 69.4228C30.215 69.5686 30.1116 69.7513 30.0616 69.9513L26.8387 82.8429C26.7418 83.2306 26.8553 83.6406 27.1379 83.9231C27.4204 84.2057 27.8305 84.3193 28.2181 84.2224L41.1097 80.9994C41.3098 80.9494 41.4924 80.846 41.6382 80.7002L81.9246 40.4138C82.6651 39.6733 83.2525 38.7942 83.6532 37.8268C84.054 36.8593 84.2602 35.8223 84.2602 34.7751C84.2602 33.7279 84.054 32.691 83.6532 31.7235C83.2525 30.756 82.6651 29.8769 81.9246 29.1364C81.1841 28.3959 80.305 27.8085 79.3376 27.4078C78.3701 27.007 77.3331 26.8008 76.2859 26.8008ZM72.2559 30.7451C73.3247 29.6762 74.7744 29.0758 76.2859 29.0758C77.0344 29.0758 77.7755 29.2232 78.467 29.5096C79.1584 29.796 79.7867 30.2158 80.3159 30.7451C80.8452 31.2743 81.265 31.9026 81.5514 32.5941C81.8378 33.2855 81.9852 34.0267 81.9852 34.7751C81.9852 35.5236 81.8378 36.2647 81.5514 36.9562C81.265 37.6476 80.8452 38.2759 80.3159 38.8051L40.2523 78.8688L29.5056 81.5555L32.1922 70.8087L72.2559 30.7451Z" fill="url(#paint1_linear_966_90308)"/>
<path d="M56.9484 81.9814C56.3202 81.9814 55.8109 82.4906 55.8109 83.1189C55.8109 83.7471 56.3202 84.2564 56.9484 84.2564H85.9547C86.5829 84.2564 87.0922 83.7471 87.0922 83.1189C87.0922 82.4906 86.5829 81.9814 85.9547 81.9814H56.9484Z" fill="url(#paint2_linear_966_90308)"/>
<defs>
<linearGradient id="paint0_linear_966_90308" x1="56.947" y1="27.6406" x2="56.947" y2="83.421" gradientUnits="userSpaceOnUse">
<stop stop-color="#505BFD"/>
<stop offset="1" stop-color="#B542FD"/>
</linearGradient>
<linearGradient id="paint1_linear_966_90308" x1="56.9484" y1="26.8008" x2="56.9484" y2="84.2564" gradientUnits="userSpaceOnUse">
<stop stop-color="#505BFD"/>
<stop offset="1" stop-color="#B542FD"/>
</linearGradient>
<linearGradient id="paint2_linear_966_90308" x1="56.9484" y1="26.8008" x2="56.9484" y2="84.2564" gradientUnits="userSpaceOnUse">
<stop stop-color="#505BFD"/>
<stop offset="1" stop-color="#B542FD"/>
</linearGradient>
</defs>
</svg>
