<svg width="112" height="112" viewBox="0 0 112 112" fill="none" xmlns="http://www.w3.org/2000/svg">
<path d="M43.1934 75.9766L43.1973 76.1309C43.2781 77.7155 44.5886 78.9766 46.1934 78.9766H60.9844L72.3887 90.3809L71.6816 91.0879L70.9736 91.7949L60.1553 80.9766H46.1934C43.5185 80.9766 41.3344 78.8749 41.2002 76.2334L41.1934 75.9766V60.3174H12L11.7939 60.3115C9.74896 60.2077 8.10877 58.5684 8.00488 56.5234L8 56.3174V25C8 22.86 9.68062 21.1122 11.7939 21.0049L12 21H63.8301L64.0361 21.0049C66.1497 21.1119 67.8301 22.8599 67.8301 25V56.3174L67.8252 56.5234C67.7213 58.5686 66.0813 60.2079 64.0361 60.3115L63.8301 60.3174H43.1934V75.9766ZM98.0234 39.6592C100.784 39.6596 103.023 41.898 103.023 44.6592V75.9766C103.023 78.7372 100.784 80.9761 98.0234 80.9766H79.5869V78.9766H98.0234C99.6795 78.9761 101.023 77.6326 101.023 75.9766V44.6592C101.023 43.0026 99.6799 41.6596 98.0234 41.6592H67.8369V39.6592H98.0234ZM79.8379 60.6445C81.9046 60.7493 83.6062 62.2329 84.0449 64.1934H91.6514V66.1934H84.0449C83.5885 68.2258 81.7738 69.7441 79.6035 69.7441L79.3691 69.7383C77.0413 69.6201 75.1746 67.7537 75.0566 65.4258L75.0508 65.1914C75.051 62.6772 77.0893 60.6388 79.6035 60.6387L79.8379 60.6445ZM79.6035 62.6387C78.1938 62.6388 77.051 63.7818 77.0508 65.1914C77.0508 66.6012 78.1937 67.744 79.6035 67.7441C81.0134 67.7441 82.1562 66.6013 82.1562 65.1914C82.156 63.7817 81.0133 62.6387 79.6035 62.6387ZM87.8721 50.4678C90.1998 50.5859 92.0664 52.4525 92.1846 54.7803L92.1904 55.0146C92.1904 57.529 90.1521 59.5673 87.6377 59.5674L87.4033 59.5615C85.3376 59.4566 83.6368 57.9748 83.1973 56.0156H75.583C74.2125 56.0157 73.1016 57.1266 73.1016 58.4971V65.46H71.1016V58.4971C71.1016 56.022 73.1079 54.0157 75.583 54.0156H83.1963C83.6518 51.9821 85.4668 50.4621 87.6377 50.4619L87.8721 50.4678ZM12 23C10.8955 23.0001 10 23.8955 10 25V56.3174C10.0001 57.4218 10.8956 58.3173 12 58.3174H63.8301C64.9346 58.3174 65.8299 57.4218 65.8301 56.3174V25C65.8301 23.8954 64.9346 23 63.8301 23H12ZM87.6377 52.4619C86.2281 52.4621 85.0851 53.6051 85.085 55.0146C85.085 56.4244 86.228 57.5672 87.6377 57.5674C89.0475 57.5673 90.1904 56.4245 90.1904 55.0146C90.1902 53.6049 89.0474 52.462 87.6377 52.4619ZM34.2148 50.915H32.2148V30.4014H34.2148V50.915ZM46.1807 50.915H44.1807V30.4014H46.1807V50.915ZM40.1992 46.6426H38.1992V34.6768H40.1992V46.6426ZM27.8057 44.9326H25.8057V36.3857H27.8057V44.9326ZM50.4551 44.9326H48.4551V36.3857H50.4551V44.9326Z" fill="black"/>
<path d="M43.1934 75.9766L43.1973 76.1309C43.2781 77.7155 44.5886 78.9766 46.1934 78.9766H60.9844L72.3887 90.3809L71.6816 91.0879L70.9736 91.7949L60.1553 80.9766H46.1934C43.5185 80.9766 41.3344 78.8749 41.2002 76.2334L41.1934 75.9766V60.3174H12L11.7939 60.3115C9.74896 60.2077 8.10877 58.5684 8.00488 56.5234L8 56.3174V25C8 22.86 9.68062 21.1122 11.7939 21.0049L12 21H63.8301L64.0361 21.0049C66.1497 21.1119 67.8301 22.8599 67.8301 25V56.3174L67.8252 56.5234C67.7213 58.5686 66.0813 60.2079 64.0361 60.3115L63.8301 60.3174H43.1934V75.9766ZM98.0234 39.6592C100.784 39.6596 103.023 41.898 103.023 44.6592V75.9766C103.023 78.7372 100.784 80.9761 98.0234 80.9766H79.5869V78.9766H98.0234C99.6795 78.9761 101.023 77.6326 101.023 75.9766V44.6592C101.023 43.0026 99.6799 41.6596 98.0234 41.6592H67.8369V39.6592H98.0234ZM79.8379 60.6445C81.9046 60.7493 83.6062 62.2329 84.0449 64.1934H91.6514V66.1934H84.0449C83.5885 68.2258 81.7738 69.7441 79.6035 69.7441L79.3691 69.7383C77.0413 69.6201 75.1746 67.7537 75.0566 65.4258L75.0508 65.1914C75.051 62.6772 77.0893 60.6388 79.6035 60.6387L79.8379 60.6445ZM79.6035 62.6387C78.1938 62.6388 77.051 63.7818 77.0508 65.1914C77.0508 66.6012 78.1937 67.744 79.6035 67.7441C81.0134 67.7441 82.1562 66.6013 82.1562 65.1914C82.156 63.7817 81.0133 62.6387 79.6035 62.6387ZM87.8721 50.4678C90.1998 50.5859 92.0664 52.4525 92.1846 54.7803L92.1904 55.0146C92.1904 57.529 90.1521 59.5673 87.6377 59.5674L87.4033 59.5615C85.3376 59.4566 83.6368 57.9748 83.1973 56.0156H75.583C74.2125 56.0157 73.1016 57.1266 73.1016 58.4971V65.46H71.1016V58.4971C71.1016 56.022 73.1079 54.0157 75.583 54.0156H83.1963C83.6518 51.9821 85.4668 50.4621 87.6377 50.4619L87.8721 50.4678ZM12 23C10.8955 23.0001 10 23.8955 10 25V56.3174C10.0001 57.4218 10.8956 58.3173 12 58.3174H63.8301C64.9346 58.3174 65.8299 57.4218 65.8301 56.3174V25C65.8301 23.8954 64.9346 23 63.8301 23H12ZM87.6377 52.4619C86.2281 52.4621 85.0851 53.6051 85.085 55.0146C85.085 56.4244 86.228 57.5672 87.6377 57.5674C89.0475 57.5673 90.1904 56.4245 90.1904 55.0146C90.1902 53.6049 89.0474 52.462 87.6377 52.4619ZM34.2148 50.915H32.2148V30.4014H34.2148V50.915ZM46.1807 50.915H44.1807V30.4014H46.1807V50.915ZM40.1992 46.6426H38.1992V34.6768H40.1992V46.6426ZM27.8057 44.9326H25.8057V36.3857H27.8057V44.9326ZM50.4551 44.9326H48.4551V36.3857H50.4551V44.9326Z" fill="url(#paint0_linear_385_6648)"/>
<defs>
<linearGradient id="paint0_linear_385_6648" x1="55.5117" y1="21" x2="55.5117" y2="93.8371" gradientUnits="userSpaceOnUse">
<stop stop-color="#A34DEE"/>
<stop offset="1" stop-color="#6943F5"/>
</linearGradient>
</defs>
</svg>
