<svg width="113" height="113" viewBox="0 0 113 113" fill="none" xmlns="http://www.w3.org/2000/svg">
<path fill-rule="evenodd" clip-rule="evenodd" d="M56.7042 27.373C60.6609 27.3734 63.8684 30.5815 63.8686 34.5382C63.8684 38.1898 61.1362 41.2005 57.6048 41.6438V52.1754C62.6976 52.6169 66.6938 56.8887 66.694 62.0959C66.6939 63.7077 66.3083 65.229 65.6285 66.576L75.9514 72.5354C77.2592 71.1346 79.1217 70.2582 81.1892 70.2581C85.1461 70.2583 88.3535 73.4664 88.3535 77.4233C88.3533 81.3801 85.146 84.5875 81.1892 84.5876C77.2323 84.5875 74.0242 81.3802 74.024 77.4233C74.024 76.1832 74.3385 75.0163 74.893 73.999L64.6779 68.1009C62.8596 70.5028 59.9789 72.0556 56.7341 72.0558C53.5148 72.0558 50.6541 70.5273 48.8331 68.1579L38.8557 74.2559C39.2728 75.1647 39.5072 76.1747 39.5072 77.24C39.5071 81.1968 36.2997 84.4042 32.3429 84.4044C28.3861 84.4042 25.1779 81.1969 25.1777 77.24C25.1779 73.2832 28.3861 70.075 32.3429 70.0748C34.5903 70.0749 36.5951 71.111 37.9086 72.7301L47.8712 66.6409C47.1708 65.278 46.7733 63.7336 46.7733 62.0959C46.7734 56.9069 50.7417 52.6456 55.8089 52.1789V41.6447C52.2745 41.2041 49.5392 38.1919 49.539 34.5382C49.5392 30.5813 52.7473 27.373 56.7042 27.373ZM81.1892 72.054C78.2241 72.0541 75.82 74.4582 75.8199 77.4233C75.8201 80.3883 78.2242 82.7916 81.1892 82.7917C84.1542 82.7916 86.5574 80.3883 86.5576 77.4233C86.5576 74.4582 84.1542 72.0542 81.1892 72.054ZM32.3429 71.8707C29.378 71.8709 26.9738 74.2751 26.9736 77.24C26.9738 80.205 29.378 82.6083 32.3429 82.6084C35.3079 82.6083 37.7112 80.205 37.7113 77.24C37.7112 74.2751 35.3079 71.8709 32.3429 71.8707ZM56.7341 53.931C52.225 53.931 48.5693 57.5869 48.5692 62.0959C48.5694 66.6049 52.225 70.2599 56.7341 70.2599C61.2428 70.2596 64.8979 66.6047 64.898 62.0959C64.8979 57.587 61.2429 53.9313 56.7341 53.931ZM56.7042 29.1689C53.7391 29.1689 51.3351 31.5732 51.3349 34.5382C51.3351 37.5033 53.7391 39.9067 56.7042 39.9067C59.6691 39.9063 62.0725 37.5031 62.0727 34.5382C62.0725 31.5734 59.6691 29.1693 56.7042 29.1689Z" fill="white"/>
</svg>
