<svg width="113" height="113" viewBox="0 0 113 113" fill="none" xmlns="http://www.w3.org/2000/svg">
<path d="M63.93 51.9509C64.4262 52.0013 64.8131 52.4207 64.8132 52.9302C64.8132 53.4397 64.4262 53.859 63.93 53.9095L63.8291 53.9143H49.8106C49.2671 53.9143 48.8265 53.4737 48.8265 52.9302C48.8265 52.3867 49.2671 51.9461 49.8106 51.9461H63.8291L63.93 51.9509Z" fill="white"/>
<path fill-rule="evenodd" clip-rule="evenodd" d="M86.5257 28.2529C88.0855 28.332 89.3262 29.6218 89.3262 31.2013V42.4886C89.3262 44.119 88.0043 45.4407 86.3739 45.4409H85.2072V82.0705C85.2067 83.7005 83.885 85.0227 82.2549 85.0228H31.3867C29.7565 85.0228 28.4349 83.7006 28.4344 82.0705V45.4409H27.2667C25.6364 45.4407 24.3145 44.119 24.3145 42.4886V31.2013C24.3145 29.5709 25.6364 28.2492 27.2667 28.249H86.3739L86.5257 28.2529ZM30.4026 45.4409V82.0705C30.4031 82.6136 30.8435 83.0546 31.3867 83.0546H82.2549C82.798 83.0545 83.2385 82.6135 83.239 82.0705V45.4409H30.4026ZM27.2667 30.2172C26.7234 30.2174 26.2826 30.6579 26.2826 31.2013V42.4886C26.2827 43.032 26.7234 43.4725 27.2667 43.4727H86.3739C86.9173 43.4725 87.358 43.032 87.358 42.4886V31.2013C87.358 30.6916 86.9703 30.2722 86.4738 30.222L86.3739 30.2172H27.2667Z" fill="white"/>
</svg>
