<svg width="113" height="112" viewBox="0 0 113 112" fill="none" xmlns="http://www.w3.org/2000/svg">
<g clip-path="url(#clip0_4172_34931)">
<path d="M65.7949 22.3301C66.3471 22.3302 66.7949 22.7778 66.7949 23.3301V31.2402H74.7051C78.5378 31.2404 81.6445 34.3479 81.6445 38.1807V46.0898H89.5547L89.6572 46.0947C90.1612 46.1461 90.5546 46.5723 90.5547 47.0898C90.5547 47.6075 90.1613 48.0336 89.6572 48.085L89.5547 48.0898H81.6445V60.9404H89.5547L89.6572 60.9453C90.1613 60.9967 90.5547 61.4228 90.5547 61.9404C90.5545 62.4579 90.1611 62.8842 89.6572 62.9355L89.5547 62.9404H81.6445V73.8203C81.6444 77.6529 78.5377 80.7596 74.7051 80.7598H66.7949V88.6699C66.7948 89.2221 66.3471 89.6698 65.7949 89.6699C65.2427 89.6699 64.795 89.2221 64.7949 88.6699V80.7598H48.9746V88.6699C48.9745 89.2221 48.5268 89.6699 47.9746 89.6699C47.4224 89.6698 46.9747 89.2221 46.9746 88.6699V80.7598H39.0654C35.2327 80.7598 32.1252 77.653 32.125 73.8203V62.9404H24.2148C23.6627 62.9404 23.2151 62.4925 23.2148 61.9404C23.2148 61.3881 23.6626 60.9404 24.2148 60.9404H32.125V48.0898H24.2148C23.6626 48.0898 23.2148 47.6421 23.2148 47.0898C23.2149 46.5376 23.6626 46.0898 24.2148 46.0898H32.125V38.1807C32.125 34.3478 35.2326 31.2402 39.0654 31.2402H46.9746V23.3301C46.9746 22.7778 47.4224 22.3302 47.9746 22.3301C48.5269 22.3301 48.9746 22.7778 48.9746 23.3301V31.2402H64.7949V23.3301C64.7949 22.7778 65.2426 22.3301 65.7949 22.3301ZM39.0654 33.2402C36.3371 33.2402 34.125 35.4524 34.125 38.1807V73.8203C34.1252 76.5485 36.3372 78.7598 39.0654 78.7598H74.7051C77.4331 78.7596 79.6444 76.5484 79.6445 73.8203V38.1807C79.6445 35.4525 77.4332 33.2404 74.7051 33.2402H39.0654ZM65.7949 46.0898C66.347 46.09 66.7948 46.5377 66.7949 47.0898V64.9102C66.7948 65.4622 66.347 65.91 65.7949 65.9102H47.9746C47.4225 65.9101 46.9748 65.4622 46.9746 64.9102V47.0898C46.9747 46.5377 47.4224 46.0899 47.9746 46.0898H65.7949ZM48.9746 63.9102H64.7949V48.0898H48.9746V63.9102Z" fill="white"/>
<path fill-rule="evenodd" clip-rule="evenodd" d="M65.7949 46.0898C66.347 46.09 66.7948 46.5377 66.7949 47.0898V64.9102C66.7948 65.4622 66.347 65.91 65.7949 65.9102H47.9746C47.4225 65.9101 46.9748 65.4622 46.9746 64.9102V47.0898C46.9747 46.5377 47.4224 46.0899 47.9746 46.0898H65.7949ZM48.9746 63.9102H64.7949V48.0898H48.9746V63.9102Z" fill="white"/>
<path fill-rule="evenodd" clip-rule="evenodd" d="M65.7949 22.3301C66.3471 22.3302 66.7949 22.7778 66.7949 23.3301V31.2402H74.7051C78.5378 31.2404 81.6445 34.3479 81.6445 38.1807V46.0898H89.5547L89.6572 46.0947C90.1612 46.1461 90.5546 46.5723 90.5547 47.0898C90.5547 47.6075 90.1613 48.0336 89.6572 48.085L89.5547 48.0898H81.6445V60.9404H89.5547L89.6572 60.9453C90.1613 60.9967 90.5547 61.4228 90.5547 61.9404C90.5545 62.4579 90.1611 62.8842 89.6572 62.9355L89.5547 62.9404H81.6445V73.8203C81.6444 77.6529 78.5377 80.7596 74.7051 80.7598H66.7949V88.6699C66.7948 89.2221 66.3471 89.6698 65.7949 89.6699C65.2427 89.6699 64.795 89.2221 64.7949 88.6699V80.7598H48.9746V88.6699C48.9745 89.2221 48.5268 89.6699 47.9746 89.6699C47.4224 89.6698 46.9747 89.2221 46.9746 88.6699V80.7598H39.0654C35.2327 80.7598 32.1252 77.653 32.125 73.8203V62.9404H24.2148C23.6627 62.9404 23.2151 62.4925 23.2148 61.9404C23.2148 61.3881 23.6626 60.9404 24.2148 60.9404H32.125V48.0898H24.2148C23.6626 48.0898 23.2148 47.6421 23.2148 47.0898C23.2149 46.5376 23.6626 46.0898 24.2148 46.0898H32.125V38.1807C32.125 34.3478 35.2326 31.2402 39.0654 31.2402H46.9746V23.3301C46.9746 22.7778 47.4224 22.3302 47.9746 22.3301C48.5269 22.3301 48.9746 22.7778 48.9746 23.3301V31.2402H64.7949V23.3301C64.7949 22.7778 65.2426 22.3301 65.7949 22.3301ZM39.0654 33.2402C36.3371 33.2402 34.125 35.4524 34.125 38.1807V73.8203C34.1252 76.5485 36.3372 78.7598 39.0654 78.7598H74.7051C77.4331 78.7596 79.6444 76.5484 79.6445 73.8203V38.1807C79.6445 35.4525 77.4332 33.2404 74.7051 33.2402H39.0654Z" fill="white"/>
</g>
<defs>
<clipPath id="clip0_4172_34931">
<rect width="112" height="112" fill="white" transform="translate(0.884766)"/>
</clipPath>
</defs>
</svg>
