<svg width="85" height="85" viewBox="0 0 85 85" fill="none" xmlns="http://www.w3.org/2000/svg">
<path fill-rule="evenodd" clip-rule="evenodd" d="M57.4507 17.6726C57.8288 17.7111 58.1238 18.0307 58.1238 18.4189C58.1238 18.8072 57.8288 19.1268 57.4507 19.1653L57.3738 19.1689H43.4907V28.856L43.4871 28.9329C43.4724 29.0771 43.4165 29.2091 43.3318 29.3174H58.9917C63.1428 29.3174 66.5232 32.6449 66.5232 36.7683V58.3389C66.5232 62.4622 63.1428 65.7898 58.9917 65.7898H26.0217C21.8707 65.7897 18.4902 62.4622 18.4902 58.3389V36.7683C18.4902 32.645 21.8707 29.3175 26.0217 29.3174H42.1497C42.0649 29.2091 42.0091 29.0771 41.9944 28.9329L41.9907 28.856V19.1689H27.6646C27.2503 19.1689 26.9146 18.8332 26.9146 18.4189C26.9146 18.0047 27.2503 17.6689 27.6646 17.6689H57.3738L57.4507 17.6726ZM43.2622 48.3171C43.4029 48.4535 43.4907 48.6441 43.4907 48.8555V64.2898H58.9917C62.3315 64.2898 65.0232 61.6169 65.0232 58.3389V48.3171H43.2622ZM26.0217 30.8174C22.6821 30.8175 19.9902 33.4904 19.9902 36.7683V58.3389C19.9902 61.6168 22.6821 64.2897 26.0217 64.2898H41.9907V48.8555C41.9907 48.6441 42.0785 48.4535 42.2192 48.3171H20.9878C20.5736 48.3171 20.2378 47.9814 20.2378 47.5671C20.2378 47.1529 20.5736 46.8171 20.9878 46.8171H65.0232V36.7683C65.0232 33.4903 62.3315 30.8174 58.9917 30.8174H26.0217Z" fill="white"/>
</svg>
