<svg width="85" height="85" viewBox="0 0 85 85" fill="none" xmlns="http://www.w3.org/2000/svg">
<path d="M17.7832 19.9648C18.2114 19.9648 18.5585 20.312 18.5585 20.7402V61.8335L18.5615 61.9532C18.6238 63.1822 19.64 64.1596 20.8845 64.1596H67.4053L67.4848 64.1634C67.8757 64.2032 68.1807 64.5335 68.1807 64.9349C68.1807 65.3363 67.8757 65.6667 67.4848 65.7065L67.4053 65.7103H20.8845C18.8103 65.7103 17.1168 64.0812 17.0131 62.0327L17.0078 61.8335V20.7402C17.0078 20.312 17.3549 19.9648 17.7832 19.9648Z" fill="#121212"/>
<path d="M61.9423 31.0688C61.9562 31.0691 61.9701 31.0693 61.984 31.0703L62.0059 31.0718C62.0132 31.0726 62.0206 31.0739 62.0279 31.0749C62.0321 31.0754 62.0365 31.0757 62.0407 31.0764C62.0578 31.0789 62.0748 31.0818 62.0915 31.0855C62.1042 31.0882 62.1167 31.0919 62.1293 31.0953C62.1377 31.0976 62.1461 31.0996 62.1543 31.1021C62.1683 31.1064 62.1822 31.1114 62.196 31.1165C62.2062 31.1203 62.2163 31.1244 62.2262 31.1286C62.2387 31.1338 62.2511 31.1394 62.2633 31.1453C62.2699 31.1485 62.2766 31.1517 62.283 31.1551C62.2986 31.1632 62.3141 31.1717 62.3292 31.1809C62.335 31.1844 62.341 31.1878 62.3466 31.1915C62.3616 31.2011 62.3761 31.2117 62.3906 31.2225C62.3941 31.2252 62.3976 31.2281 62.4012 31.2308C62.4142 31.241 62.4272 31.2515 62.4398 31.2626C62.4464 31.2685 62.453 31.2747 62.4595 31.2808C62.4646 31.2857 62.4703 31.2902 62.4754 31.2952C62.4801 31.3 62.4843 31.3054 62.489 31.3103C62.4967 31.3185 62.5043 31.3268 62.5117 31.3353C62.5199 31.3447 62.5275 31.3544 62.5352 31.3641C62.5413 31.3719 62.5475 31.3796 62.5533 31.3876C62.5907 31.4388 62.621 31.4934 62.6442 31.5504C62.6472 31.5576 62.6498 31.565 62.6525 31.5723C62.684 31.6568 62.7 31.7453 62.701 31.8343C62.701 31.8373 62.7018 31.8404 62.7018 31.8434V40.6864C62.7017 41.1144 62.3544 41.4615 61.9264 41.4618C61.4982 41.4618 61.1511 41.1146 61.1511 40.6864V33.7159L48.4737 46.3932C48.3283 46.5385 48.131 46.6204 47.9255 46.6204C47.72 46.6204 47.5227 46.5385 47.3773 46.3932L40.5559 39.5719L30.0509 50.0777C29.7482 50.3803 29.2573 50.3802 28.9545 50.0777C28.6517 49.7749 28.6518 49.2841 28.9545 48.9813L40.0085 37.9273L40.0653 37.8758C40.2032 37.7629 40.3769 37.7001 40.5567 37.7001C40.7622 37.7003 40.9596 37.782 41.1049 37.9273L47.9255 44.7479L60.0554 32.6187H53.0834C52.6552 32.6187 52.3081 32.2716 52.308 31.8434C52.308 31.4152 52.6552 31.068 53.0834 31.068H61.9264L61.9423 31.0688Z" fill="#121212"/>
</svg>
