<svg width="113" height="113" viewBox="0 0 113 113" fill="none" xmlns="http://www.w3.org/2000/svg">
<path fill-rule="evenodd" clip-rule="evenodd" d="M55.9346 21.3178C56.4846 21.1822 57.0641 21.2045 57.6045 21.3852L87.5068 31.3861C88.7299 31.7956 89.5546 32.9411 89.5547 34.2309V42.101C89.5545 43.7575 88.2112 45.1008 86.5547 45.101H82.5098V74.8637C86.5066 75.5104 89.5535 78.9719 89.5537 83.1527V88.0522C89.5536 89.7088 88.2103 91.0519 86.5537 91.0522H26.5C24.8432 91.0522 23.5001 89.709 23.5 88.0522V83.0815C23.5002 78.837 26.6884 75.318 30.793 74.7904V45.101H26.7861C25.1294 45.101 23.7863 43.7577 23.7861 42.101V34.2309C23.7861 32.9411 24.6109 31.7957 25.834 31.3861L55.7002 21.3861L55.9346 21.3178ZM31.6377 76.724C28.2387 76.843 25.5002 79.6546 25.5 83.0815V88.0522C25.5001 88.6044 25.9478 89.0522 26.5 89.0522H86.5537C87.1057 89.0519 87.5536 88.6042 87.5537 88.0522V83.1527C87.5535 79.6152 84.6928 76.7544 81.1553 76.7543H31.8799C31.7963 76.7543 31.7154 76.743 31.6377 76.724ZM32.8623 75.7367L32.8574 75.6361C32.8556 75.6181 32.8514 75.6001 32.8486 75.5824C32.8563 75.6326 32.8623 75.6842 32.8623 75.7367ZM68.4277 45.101V74.7543H80.5098V45.101H68.4277ZM32.793 74.7543H44.875V45.101H32.793V74.7543ZM46.875 74.7543H66.4277V45.101H46.875V74.7543ZM56.9707 23.2817C56.7649 23.2128 56.5417 23.2138 56.3359 23.2826L26.4688 33.2826C26.0611 33.4191 25.7861 33.8009 25.7861 34.2309V42.101C25.7863 42.6531 26.234 43.101 26.7861 43.101H86.5547C87.1067 43.1008 87.5545 42.653 87.5547 42.101V34.2309C87.5546 33.8011 87.2796 33.4191 86.8721 33.2826L56.9707 23.2817Z" fill="#121212"/>
</svg>
