<svg width="113" height="113" viewBox="0 0 113 113" fill="none" xmlns="http://www.w3.org/2000/svg">
<path d="M48.5039 23.5176C61.9346 23.5178 72.8367 34.488 72.8369 47.9795C72.8369 49.8675 72.6251 51.7003 72.2061 53.4766L88.918 70.3154L88.9863 70.3916C89.3054 70.7855 89.2805 71.3646 88.9131 71.7295C88.5455 72.0943 87.9658 72.1151 87.5742 71.793L87.499 71.7246L70.3926 54.4883C70.1432 54.237 70.045 53.8727 70.1348 53.5303C70.6019 51.7522 70.8369 49.9022 70.8369 47.9795C70.8367 35.5822 60.8196 25.5178 48.5039 25.5176C45.7681 25.5176 43.1519 26.0205 40.7129 26.9443L57.3281 43.6514C57.716 44.0414 57.716 44.6714 57.3281 45.0615L45.9941 56.459C45.8063 56.6478 45.5505 56.754 45.2842 56.7539C45.018 56.7537 44.7627 56.647 44.5752 56.458L27.8359 39.5938C26.79 42.1762 26.2051 44.9868 26.2051 47.9443C26.2051 60.3419 36.2221 70.407 48.5381 70.4072C50.609 70.4072 52.6168 70.1049 54.5283 69.5654L54.6602 69.5371C54.9675 69.4936 55.281 69.596 55.5049 69.8184L72.541 86.7373L72.6104 86.8135C72.932 87.2051 72.9107 87.785 72.5459 88.1523C72.181 88.5193 71.6017 88.5444 71.208 88.2256L71.1318 88.1572L54.502 71.6406C52.5958 72.1307 50.5987 72.4072 48.5381 72.4072C35.1072 72.407 24.2051 61.436 24.2051 47.9443C24.2051 44.1645 25.0814 40.6048 26.6123 37.416L26.6709 37.3105C26.822 37.0741 27.0673 36.9106 27.3477 36.8633C27.668 36.8093 27.9947 36.914 28.2236 37.1445L45.2861 54.334L55.208 44.3564L38.2441 27.2979C38.0133 27.0657 37.9109 26.7351 37.9697 26.4131C38.0286 26.0911 38.2411 25.8182 38.5391 25.6826C41.6033 24.2888 44.9631 23.5176 48.5039 23.5176Z" fill="white"/>
<path d="M48.5039 23.5176C61.9346 23.5178 72.8367 34.488 72.8369 47.9795C72.8369 49.8675 72.6251 51.7003 72.2061 53.4766L88.918 70.3154L88.9863 70.3916C89.3054 70.7855 89.2805 71.3646 88.9131 71.7295C88.5455 72.0943 87.9658 72.1151 87.5742 71.793L87.499 71.7246L70.3926 54.4883C70.1432 54.237 70.045 53.8727 70.1348 53.5303C70.6019 51.7522 70.8369 49.9022 70.8369 47.9795C70.8367 35.5822 60.8196 25.5178 48.5039 25.5176C45.7681 25.5176 43.1519 26.0205 40.7129 26.9443L57.3281 43.6514C57.716 44.0414 57.716 44.6714 57.3281 45.0615L45.9941 56.459C45.8063 56.6478 45.5505 56.754 45.2842 56.7539C45.018 56.7537 44.7627 56.647 44.5752 56.458L27.8359 39.5938C26.79 42.1762 26.2051 44.9868 26.2051 47.9443C26.2051 60.3419 36.2221 70.407 48.5381 70.4072C50.609 70.4072 52.6168 70.1049 54.5283 69.5654L54.6602 69.5371C54.9675 69.4936 55.281 69.596 55.5049 69.8184L72.541 86.7373L72.6104 86.8135C72.932 87.2051 72.9107 87.785 72.5459 88.1523C72.181 88.5193 71.6017 88.5444 71.208 88.2256L71.1318 88.1572L54.502 71.6406C52.5958 72.1307 50.5987 72.4072 48.5381 72.4072C35.1072 72.407 24.2051 61.436 24.2051 47.9443C24.2051 44.1645 25.0814 40.6048 26.6123 37.416L26.6709 37.3105C26.822 37.0741 27.0673 36.9106 27.3477 36.8633C27.668 36.8093 27.9947 36.914 28.2236 37.1445L45.2861 54.334L55.208 44.3564L38.2441 27.2979C38.0133 27.0657 37.9109 26.7351 37.9697 26.4131C38.0286 26.0911 38.2411 25.8182 38.5391 25.6826C41.6033 24.2888 44.9631 23.5176 48.5039 23.5176Z" fill="white"/>
</svg>
