<svg width="113" height="113" viewBox="0 0 113 113" fill="none" xmlns="http://www.w3.org/2000/svg">
<path d="M64.1684 42.3378C64.4296 42.0767 72.8935 42.2755 73.2205 42.392C73.2318 42.3961 73.2429 42.4002 73.254 42.4047C73.2582 42.4064 73.2624 42.4083 73.2666 42.4101C73.3168 42.4312 73.3651 42.4558 73.4103 42.4851C73.4195 42.4911 73.4283 42.4977 73.4374 42.5041C73.4524 42.5146 73.4673 42.5252 73.4816 42.5366C73.4908 42.5439 73.4998 42.5515 73.5087 42.5592C73.5228 42.5712 73.5361 42.5843 73.5494 42.5971C73.5536 42.6012 73.5588 42.6047 73.563 42.6089C73.5684 42.6143 73.5731 42.6205 73.5783 42.626C73.587 42.6351 73.5953 42.6446 73.6036 42.654C73.6162 42.6684 73.6291 42.6825 73.6407 42.6974C73.6464 42.7049 73.6514 42.7132 73.6569 42.7209C73.6676 42.7356 73.6788 42.75 73.6885 42.7652C73.694 42.7737 73.6988 42.7827 73.7039 42.7914C73.7439 42.8589 73.7756 42.9301 73.797 43.0037C73.8208 43.0858 73.834 43.1732 73.834 43.263V52.0035C73.8335 52.5138 73.4193 52.9284 72.9088 52.9286C72.3982 52.9286 71.9841 52.514 71.9836 52.0035V45.4965L59.724 57.756C59.3628 58.1167 58.777 58.1168 58.4158 57.756L51.7859 51.1262L41.5149 61.3981C41.1537 61.7586 40.5678 61.7587 40.2066 61.3981C39.8456 61.037 39.846 60.4511 40.2066 60.0898L51.1318 49.1638L51.2022 49.1005C51.5655 48.8042 52.1013 48.8253 52.44 49.1638L59.0699 55.7936L70.6754 44.1882H64.1684C63.6577 44.1881 63.2436 43.7736 63.2432 43.263C63.2432 42.7521 63.6575 42.3379 64.1684 42.3378Z" fill="#121212"/>
<path fill-rule="evenodd" clip-rule="evenodd" d="M82.1778 27.459C86.1808 27.459 89.4255 30.7039 89.4257 34.7069V66.3221C89.4256 70.3251 86.1808 73.57 82.1778 73.57H57.8113V84.365H69.5306L69.6255 84.3695C70.0921 84.4169 70.4558 84.8112 70.4558 85.2902C70.4558 85.7692 70.092 86.1635 69.6255 86.2109L69.5306 86.2154H56.9051C56.8989 86.2155 56.8924 86.2163 56.8862 86.2163C56.8798 86.2163 56.8735 86.2155 56.8672 86.2154H44.239C43.7282 86.2152 43.3138 85.801 43.3138 85.2902C43.3138 84.7793 43.7281 84.3652 44.239 84.365H55.961V73.57H31.5936C27.5908 73.5697 24.3458 70.3249 24.3457 66.3221V34.7069C24.3459 30.7041 27.5909 27.4593 31.5936 27.459H82.1778ZM31.5936 29.3094C28.6128 29.3097 26.1962 31.7261 26.1961 34.7069V66.3221C26.1961 69.303 28.6128 71.7193 31.5936 71.7196H82.1778C85.1589 71.7196 87.5753 69.3032 87.5753 66.3221V34.7069C87.5752 31.7259 85.1589 29.3094 82.1778 29.3094H31.5936Z" fill="#121212"/>
</svg>
