<svg width="85" height="85" viewBox="0 0 85 85" fill="none" xmlns="http://www.w3.org/2000/svg">
<path d="M52.0005 49.2875C51.2895 49.2876 50.713 49.864 50.713 50.575C50.7131 51.286 51.2896 51.8625 52.0005 51.8625C52.7115 51.8625 53.2879 51.286 53.288 50.575C53.288 49.864 52.7115 49.2875 52.0005 49.2875Z" fill="#121212"/>
<path d="M33.1942 49.2875C32.4833 49.2876 31.9067 49.864 31.9067 50.575C31.9068 51.286 32.4833 51.8625 33.1942 51.8625C33.9052 51.8625 34.4817 51.286 34.4817 50.575C34.4817 49.864 33.9052 49.2875 33.1942 49.2875Z" fill="#121212"/>
<path fill-rule="evenodd" clip-rule="evenodd" d="M35.5338 18.5195C30.2011 18.5196 25.5976 22.2534 24.4955 27.4342L24.4458 27.6818L24.4445 27.6867L23.2808 34.0804L23.2645 34.0931C23.2681 34.0978 23.2723 34.1024 23.276 34.1071L20.6452 48.557L20.5875 48.8841C19.7809 53.8416 22.3193 58.4827 26.428 60.6723L21.0602 65.9678C20.816 66.2088 20.8138 66.6021 21.0547 66.8464C21.2957 67.0905 21.689 67.0934 21.9333 66.8524L27.6354 61.2268C28.8917 61.715 30.2626 61.9868 31.7071 61.9901L53.5076 61.9907C54.9493 61.9907 56.3183 61.724 57.5733 61.2408L63.2615 66.8524C63.5057 67.0933 63.8991 67.0906 64.14 66.8464C64.3809 66.6021 64.3782 66.2088 64.1339 65.9678L58.7832 60.6886C62.9997 58.4576 65.5731 53.6484 64.5957 48.557L60.7963 27.6867L60.7951 27.6794L60.7435 27.4306C59.6165 22.2284 55.0407 18.5196 49.7071 18.5195H35.5338ZM24.3153 35.3357C28.8194 40.3128 35.4659 43.4615 42.8813 43.4617C50.3793 43.4617 56.5532 40.4976 61.0093 35.792L63.3743 48.7858L63.3755 48.7918C64.5685 55.007 59.8207 60.748 53.5076 60.7481H31.7332C25.4201 60.748 20.6723 55.007 21.8653 48.7918L21.8665 48.7858L24.3153 35.3357ZM49.7071 19.7621C54.5289 19.7622 58.6549 23.1665 59.575 27.916L60.729 34.2527C56.4568 39.1166 50.3802 42.2191 42.8813 42.2191C35.4627 42.2189 28.8683 38.9093 24.6011 33.7679L25.6665 27.9136L25.7108 27.6933C26.6906 23.0871 30.7861 19.7622 35.5338 19.7621H49.7071Z" fill="#121212"/>
</svg>
