<svg width="85" height="85" viewBox="0 0 85 85" fill="none" xmlns="http://www.w3.org/2000/svg">
<path fill-rule="evenodd" clip-rule="evenodd" d="M57.3354 17.6726C57.7136 17.7111 58.0085 18.0307 58.0085 18.4189C58.0085 18.8072 57.7136 19.1268 57.3354 19.1653L57.2585 19.1689H43.3755V28.856L43.3718 28.9329C43.3572 29.0771 43.3013 29.2091 43.2166 29.3174H58.8765C63.0276 29.3174 66.408 32.6449 66.408 36.7683V58.3389C66.408 62.4622 63.0276 65.7898 58.8765 65.7898H25.9065C21.7555 65.7897 18.375 62.4622 18.375 58.3389V36.7683C18.375 32.645 21.7555 29.3175 25.9065 29.3174H42.0344C41.9497 29.2091 41.8938 29.0771 41.8792 28.9329L41.8755 28.856V19.1689H27.5493C27.1351 19.1689 26.7993 18.8332 26.7993 18.4189C26.7993 18.0047 27.1351 17.6689 27.5493 17.6689H57.2585L57.3354 17.6726ZM43.147 48.3171C43.2877 48.4535 43.3755 48.6441 43.3755 48.8555V64.2898H58.8765C62.2162 64.2898 64.908 61.6169 64.908 58.3389V48.3171H43.147ZM25.9065 30.8174C22.5668 30.8175 19.875 33.4904 19.875 36.7683V58.3389C19.875 61.6168 22.5668 64.2897 25.9065 64.2898H41.8755V48.8555C41.8755 48.6441 41.9633 48.4535 42.104 48.3171H20.8726C20.4583 48.3171 20.1226 47.9814 20.1226 47.5671C20.1226 47.1529 20.4583 46.8171 20.8726 46.8171H64.908V36.7683C64.908 33.4903 62.2162 30.8174 58.8765 30.8174H25.9065Z" fill="black"/>
</svg>
