<svg width="113" height="113" viewBox="0 0 113 113" fill="none" xmlns="http://www.w3.org/2000/svg">
<path d="M56.7061 25.1924C70.6415 25.1924 82.1432 35.6064 83.8555 49.0771L83.8604 49.1201C88.7289 50.2537 92.4022 54.5006 92.6621 59.6494L92.6768 60.2373V62.7715L92.6611 63.3584C92.3769 68.9371 88.0862 73.455 82.6104 74.0996C82.4201 78.6965 78.6349 82.3643 73.9912 82.3643H67.1602C66.9462 83.4239 66.3912 84.2957 65.5898 84.9287C64.5753 85.73 63.238 86.0986 61.8555 86.0986H57.7256C56.3433 86.0985 55.0065 85.7298 53.9922 84.9287C52.9513 84.1064 52.3223 82.8812 52.3223 81.3643C52.3225 79.8506 52.9484 78.6105 53.9805 77.7686C54.9914 76.9439 56.331 76.547 57.7275 76.5469H61.8535C63.25 76.5469 64.5896 76.9441 65.6006 77.7686C66.3951 78.4167 66.9482 79.3012 67.1611 80.3643H73.9912C77.5302 80.3643 80.4219 77.5915 80.6104 74.0996C79.415 73.8067 78.5275 72.7318 78.5273 71.4463V51.5557C78.5277 50.0452 79.7523 48.8205 81.2627 48.8203C81.4441 48.8203 81.6244 48.8256 81.8037 48.834C80.0013 36.5905 69.4506 27.1924 56.7061 27.1924C43.9619 27.1928 33.4127 36.5908 31.6104 48.834C31.7885 48.8257 31.9682 48.8203 32.1484 48.8203C33.6589 48.8205 34.8835 50.0452 34.8838 51.5557V71.4463C34.8836 72.9568 33.6589 74.1814 32.1484 74.1816C25.8464 74.1816 20.7372 69.0735 20.7354 62.7715L20.7344 60.2373C20.7331 54.8263 24.4977 50.2963 29.5508 49.1201C31.2439 35.6287 42.7561 25.1928 56.7061 25.1924ZM57.7275 78.5469C56.6915 78.547 55.8284 78.8427 55.2451 79.3184C54.6832 79.7768 54.3225 80.4457 54.3223 81.3643C54.3223 82.28 54.6792 82.923 55.2314 83.3594C55.8103 83.8166 56.6754 84.0985 57.7256 84.0986H61.8555C62.9058 84.0986 63.7706 83.8166 64.3496 83.3594C64.9021 82.923 65.2588 82.2802 65.2588 81.3643C65.2586 80.4457 64.8988 79.7768 64.3369 79.3184C63.7535 78.8427 62.8896 78.5469 61.8535 78.5469H57.7275ZM32.1484 50.8203C26.9486 50.8203 22.7333 55.0365 22.7344 60.2363L22.7354 62.7705C22.7367 67.9683 26.9507 72.1816 32.1484 72.1816C32.5543 72.1814 32.8836 71.8522 32.8838 71.4463V51.5557C32.8835 51.1498 32.5543 50.8205 32.1484 50.8203ZM81.2627 50.8203C80.8568 50.8205 80.5277 51.1498 80.5273 51.5557V71.4463C80.5276 71.8522 80.8568 72.1815 81.2627 72.1816C86.2979 72.1814 90.4108 68.2275 90.6641 63.2549L90.6768 62.7705V60.2363C90.6778 55.0367 86.4624 50.8205 81.2627 50.8203Z" fill="white"/>
</svg>
