<svg width="113" height="113" viewBox="0 0 113 113" fill="none" xmlns="http://www.w3.org/2000/svg">
<path d="M44.6162 27.3643C44.3953 26.8584 43.8058 26.6272 43.2998 26.8477C38.271 29.0421 33.856 32.4357 30.4414 36.7305C27.0268 41.0253 24.7154 46.0913 23.7109 51.4854C22.7065 56.8794 23.0389 62.4378 24.6787 67.6738C26.3185 72.91 29.2163 77.6649 33.1182 81.5225C37.0199 85.3799 41.8072 88.2228 47.0615 89.8027C52.316 91.3827 57.8784 91.652 63.2607 90.5859C68.643 89.5199 73.682 87.1509 77.9375 83.6875C82.0601 80.3322 85.3259 76.0484 87.4688 71.1895L87.6729 70.7178C87.8879 70.2091 87.6493 69.6223 87.1406 69.4072C86.6637 69.2057 86.1184 69.4021 85.875 69.8467L85.8301 69.9385C83.8203 74.6912 80.677 78.8795 76.6748 82.1367C72.6727 85.3938 67.9338 87.6215 62.8721 88.624C57.8102 89.6266 52.5794 89.3736 47.6377 87.8877C42.6962 86.4019 38.1939 83.7283 34.5244 80.1006C30.8548 76.4727 28.1291 72.0005 26.5869 67.0762C25.0448 62.1519 24.7331 56.9245 25.6777 51.8516C26.6224 46.7787 28.7956 42.0147 32.0068 37.9756C35.2182 33.9364 39.3701 30.7455 44.0996 28.6816C44.6057 28.4607 44.8371 27.8704 44.6162 27.3643ZM56.7334 24.0596C56.4682 24.0596 56.2139 24.165 56.0264 24.3525C55.8388 24.5401 55.7334 24.7944 55.7334 25.0596V57.6504C55.7335 58.2026 56.1812 58.6504 56.7334 58.6504H89.3242C89.8764 58.6503 90.3241 58.2026 90.3242 57.6504C90.3242 53.2393 89.4556 48.8712 87.7676 44.7959C86.0795 40.7205 83.6045 37.0176 80.4854 33.8984C77.3662 30.7793 73.6633 28.3043 69.5879 26.6162C65.5125 24.9282 61.1445 24.0596 56.7334 24.0596ZM57.7334 26.0771C61.5407 26.1977 65.2979 27.0041 68.8223 28.4639C72.655 30.0514 76.1378 32.379 79.0713 35.3125C82.0046 38.2458 84.3314 41.728 85.9189 45.5605C87.3789 49.0851 88.1861 52.8429 88.3066 56.6504H57.7334V26.0771Z" fill="black"/>
<path d="M44.6154 27.3643C44.3946 26.8584 43.805 26.6272 43.299 26.8477C38.2702 29.0421 33.8553 32.4357 30.4406 36.7305C27.026 41.0253 24.7147 46.0913 23.7102 51.4854C22.7057 56.8794 23.0382 62.4378 24.6779 67.6738C26.3178 72.91 29.2155 77.6649 33.1174 81.5225C37.0192 85.3799 41.8065 88.2228 47.0608 89.8027C52.3153 91.3827 57.8776 91.652 63.26 90.5859C68.6422 89.5199 73.6812 87.1509 77.9367 83.6875C82.0593 80.3322 85.3251 76.0484 87.468 71.1895L87.6721 70.7178C87.8872 70.2091 87.6485 69.6223 87.1399 69.4072C86.663 69.2057 86.1177 69.4021 85.8742 69.8467L85.8293 69.9385C83.8196 74.6912 80.6763 78.8795 76.674 82.1367C72.6719 85.3938 67.933 87.6215 62.8713 88.624C57.8094 89.6266 52.5786 89.3736 47.6369 87.8877C42.6955 86.4019 38.1931 83.7283 34.5236 80.1006C30.854 76.4727 28.1283 72.0005 26.5861 67.0762C25.044 62.1519 24.7323 56.9245 25.677 51.8516C26.6217 46.7787 28.7948 42.0147 32.0061 37.9756C35.2174 33.9364 39.3693 30.7455 44.0988 28.6816C44.6049 28.4607 44.8363 27.8704 44.6154 27.3643Z" fill="black"/>
<path fill-rule="evenodd" clip-rule="evenodd" d="M56.7326 24.0596C56.4674 24.0596 56.2131 24.165 56.0256 24.3525C55.8381 24.5401 55.7326 24.7944 55.7326 25.0596V57.6504C55.7327 58.2026 56.1804 58.6504 56.7326 58.6504H89.3234C89.8756 58.6503 90.3234 58.2026 90.3234 57.6504C90.3234 53.2393 89.4548 48.8712 87.7668 44.7959C86.0787 40.7205 83.6037 37.0176 80.4846 33.8984C77.3654 30.7793 73.6625 28.3043 69.5871 26.6162C65.5118 24.9282 61.1437 24.0596 56.7326 24.0596ZM57.7326 26.0771C61.54 26.1977 65.2971 27.0041 68.8215 28.4639C72.6543 30.0514 76.137 32.379 79.0705 35.3125C82.0038 38.2458 84.3306 41.728 85.9182 45.5605C87.3781 49.0851 88.1853 52.8429 88.3059 56.6504H57.7326V26.0771Z" fill="black"/>
</svg>
