<svg width="85" height="85" viewBox="0 0 85 85" fill="none" xmlns="http://www.w3.org/2000/svg">
<path fill-rule="evenodd" clip-rule="evenodd" d="M34.9888 23.7478C40.7937 23.7478 45.5019 28.4448 45.502 34.2419C45.502 38.452 43.0183 42.0805 39.4353 43.7524C47.0231 45.7188 52.6255 52.6001 52.6255 60.7915C52.6255 61.2057 52.2896 61.5414 51.8755 61.5415C51.4613 61.5415 51.1255 61.2057 51.1255 60.7915C51.1255 52.1565 44.3175 45.1091 35.7622 44.7068C35.5068 44.7253 35.2489 44.7361 34.9888 44.7361C34.7284 44.7361 34.4702 44.7261 34.2146 44.7075C25.6604 45.1109 18.8535 52.1572 18.8535 60.7915C18.8535 61.2057 18.5177 61.5415 18.1035 61.5415C17.6893 61.5415 17.3535 61.2057 17.3535 60.7915C17.3535 52.6009 22.9547 45.7195 30.5415 43.7524C26.9589 42.0803 24.4756 38.4517 24.4756 34.2419C24.4757 28.4448 29.1839 23.7479 34.9888 23.7478ZM34.9888 25.2478C30.0096 25.2479 25.9757 29.276 25.9756 34.2419C25.9756 38.9572 29.6126 42.8259 34.2424 43.2046C34.4902 43.1943 34.7392 43.1885 34.9895 43.1885C35.239 43.1885 35.4874 43.1943 35.7344 43.2046C40.3646 42.8263 44.002 38.9575 44.002 34.2419C44.0019 29.276 39.968 25.2478 34.9888 25.2478Z" fill="white"/>
<path d="M49.2109 23.627C55.0008 23.627 59.724 28.3124 59.7241 34.1211C59.7241 37.6313 57.996 40.7017 55.3582 42.5952C62.3008 45.2376 67.2584 52.3486 67.2585 60.6941C67.2585 61.1083 66.9228 61.4441 66.5085 61.4441C66.0944 61.444 65.7585 61.1082 65.7585 60.6941C65.7584 52.3519 60.4384 45.4374 53.3755 43.5254C53.0751 43.444 52.8563 43.1854 52.8254 42.8757C52.7947 42.566 52.9586 42.2698 53.2371 42.1309C56.1945 40.655 58.2241 37.6419 58.2241 34.1211C58.224 29.146 54.1776 25.127 49.2109 25.127C48.7967 25.127 48.4609 24.7912 48.4609 24.377C48.4609 23.9627 48.7967 23.627 49.2109 23.627Z" fill="white"/>
</svg>
