<svg width="113" height="113" viewBox="0 0 113 113" fill="none" xmlns="http://www.w3.org/2000/svg">
<path d="M60.8828 25.3513C58.0872 25.0027 55.2532 24.9975 52.4414 25.4265V25.4255C51.3938 25.5751 50.5445 26.289 50.1875 27.2702L50.123 27.4694L50.122 27.4704L48.9336 31.6452C48.8497 31.9031 48.6682 32.0752 48.4697 32.1374L48.4521 32.1433C47.494 32.4626 46.538 32.8514 45.5859 33.3093C45.365 33.4123 45.1327 33.4088 44.9697 33.3444L44.9043 33.3132L44.8945 33.3073L40.9775 31.1276L40.7978 31.0358C39.8888 30.6114 38.8144 30.6935 37.9736 31.2868L37.9619 31.2956L37.9502 31.3034C36.6984 32.2422 35.4674 33.2618 34.3008 34.4284C33.2728 35.4564 32.3566 36.5499 31.5176 37.6686L31.5 37.6921C30.8973 38.5459 30.7589 39.7074 31.3398 40.6931V40.694L33.4443 44.4948V44.4958C33.5596 44.7124 33.5597 44.9726 33.4443 45.1892L33.4345 45.2077L33.4258 45.2263C32.9772 46.1579 32.554 47.1074 32.1982 48.1013C32.0942 48.3785 31.9084 48.5466 31.6845 48.6188L27.3779 49.8405L27.3711 49.8425L27.3633 49.8444C26.3558 50.1467 25.5028 51.0099 25.3349 52.114H25.334C24.8755 55.0762 24.8767 58.1014 25.2627 61.0485L25.2646 61.0602C25.4243 62.1768 26.2244 63.0678 27.3066 63.3776V63.3786L31.4619 64.57C31.7116 64.6456 31.8969 64.8329 31.9707 65.0837L31.9756 65.1003L31.9814 65.1179C32.327 66.1546 32.7148 67.183 33.2148 68.1872H33.2158C33.3273 68.4263 33.3211 68.7042 33.208 68.9216L31.0361 72.7927L31.0342 72.7966C30.5095 73.741 30.5603 74.9036 31.1933 75.8005L31.2002 75.8093C32.1184 77.0806 33.1752 78.3136 34.3008 79.4392C35.2945 80.4329 36.3858 81.3471 37.4609 82.1794L37.4658 82.1823C38.3729 82.8758 39.5528 82.9251 40.5 82.3991L40.5019 82.3981L44.2832 80.2858L44.2968 80.278L44.3095 80.2702C44.4686 80.1749 44.7365 80.1588 44.9931 80.2956L45.0049 80.3015C45.7862 80.7056 46.5818 81.0459 47.3681 81.3513L48.1513 81.6462C48.4475 81.7593 48.6246 81.9524 48.6924 82.1755V82.1765L49.9189 86.4333L49.9218 86.444C50.2246 87.453 51.0897 88.3083 52.1963 88.4743L52.2011 88.4753C55.1227 88.8976 58.1105 88.8966 61.0244 88.5104L61.0351 88.5095C62.1518 88.3496 63.0439 87.549 63.3535 86.4665L64.5429 82.3181C64.6199 82.0565 64.817 81.8673 65.04 81.7976L65.0488 81.7956C66.1632 81.4361 67.2295 80.972 68.2646 80.489L68.2763 80.4841L68.289 80.4772C68.5596 80.3422 68.8282 80.3543 69.0351 80.4626L72.872 82.6022L72.874 82.6032C73.8181 83.1274 74.9803 83.0767 75.8769 82.444L75.8926 82.4323C77.0885 81.5529 78.2521 80.5669 79.3457 79.4733C80.441 78.378 81.3566 77.2854 82.2285 76.1345L82.248 76.1071C82.8414 75.2664 82.9232 74.1919 82.499 73.2829L82.4082 73.1032L82.4052 73.0983L80.2685 69.3005C80.1592 69.0931 80.1464 68.8241 80.2822 68.5524L80.2881 68.5397C80.7803 67.5201 81.2006 66.5036 81.584 65.4587C81.6977 65.1556 81.8947 64.9758 82.122 64.9089L82.1211 64.9079L86.3349 63.7204L86.3427 63.7175L86.3506 63.7155C87.3692 63.4098 88.2195 62.5365 88.3818 61.4001L88.5449 60.2595H88.4892C88.7429 57.8628 88.7206 55.4489 88.4218 53.0554L88.3476 52.5007C88.198 51.4533 87.4847 50.6039 86.5039 50.2468L86.3047 50.1813H86.3008L82.0996 48.9948C81.8387 48.9117 81.6651 48.7289 81.6025 48.529L81.5986 48.5153L81.5937 48.5017L81.3222 47.7438C81.0448 46.9995 80.7329 46.2621 80.3593 45.5378C80.2507 45.3005 80.2503 45.0069 80.3564 44.7683L82.4756 40.9343C83.0001 39.99 82.9493 38.8272 82.3164 37.9304L82.3105 37.9226L82.3056 37.9147L81.9697 37.4675C81.1761 36.4279 80.2976 35.4145 79.3115 34.4284C78.182 33.2989 77.0864 32.3805 75.8926 31.5026L75.8769 31.4909L75.706 31.3796C74.8939 30.8893 73.9012 30.8439 73.0527 31.2399L72.874 31.3317L72.872 31.3327L69.0351 33.4714C68.8194 33.5846 68.5609 33.5841 68.3457 33.4694L68.3349 33.4636L68.3232 33.4577L67.6191 33.1218C66.9131 32.8004 66.1925 32.5154 65.4599 32.2536C65.2196 32.1614 65.0614 32.0082 64.9785 31.821L64.9472 31.737L63.7285 27.4694L63.7246 27.4567L63.6611 27.2692C63.3359 26.4053 62.5956 25.6844 61.6552 25.4655L61.4502 25.4265L61.4414 25.4255L60.8828 25.3513ZM52.7343 27.404C55.5185 26.9783 58.3461 27.0085 61.1533 27.404V27.405C61.3771 27.4387 61.6302 27.6228 61.7607 27.905L61.8086 28.0319L63.0312 32.3102L63.0342 32.322L63.0381 32.3337C63.3077 33.1965 63.956 33.8259 64.7656 34.1296L64.7734 34.1325L64.7802 34.1354C65.4757 34.3838 66.1455 34.6482 66.791 34.9421L67.4287 35.2458C68.2289 35.6626 69.1843 35.6592 69.9814 35.2341L69.9892 35.2302L69.997 35.2253L73.8457 33.0798L73.8447 33.0788C74.1239 32.9241 74.4568 32.9411 74.7168 33.1208C75.8353 33.9438 76.85 34.7951 77.8974 35.8425C78.945 36.8901 79.8627 37.9701 80.6826 39.0837L80.7441 39.1852C80.8507 39.3936 80.8632 39.6353 80.7783 39.8552L80.7275 39.9626L80.7265 39.9645L78.581 43.8474L78.5644 43.8776L78.5498 43.9089C78.1864 44.6877 78.1863 45.6105 78.5498 46.3894L78.5586 46.4079L78.5683 46.4265C78.9027 47.0714 79.1869 47.7412 79.4482 48.4421L79.7031 49.153C79.9868 50.027 80.6902 50.6505 81.5078 50.906L81.5215 50.9099L81.5342 50.9138L85.7578 52.1061C86.103 52.2061 86.3234 52.471 86.3681 52.7829L86.4375 53.3024C86.7618 55.9003 86.7387 58.5236 86.3681 61.1179L86.3379 61.3239C86.2545 61.5017 86.1011 61.6598 85.9004 61.7526L85.7763 61.7995L81.5683 62.987L81.5576 62.9899C80.6853 63.2466 80.0851 63.8834 79.7705 64.6101L79.7119 64.7565L79.709 64.7634C79.3453 65.7552 78.9509 66.7084 78.4931 67.6579C78.0848 68.4748 78.0717 69.4309 78.5058 70.2448L78.5107 70.2546L78.5166 70.2644L80.6592 74.0729V74.0739C80.8148 74.3542 80.7978 74.6884 80.6162 74.9489C79.7909 76.0368 78.9405 77.0494 77.9316 78.0583C76.9166 79.0734 75.8333 79.9915 74.7168 80.8132C74.4566 80.9933 74.1241 81.0102 73.8447 80.8552H73.8457L69.997 78.7097L69.9892 78.7058L69.9814 78.7009L69.8271 78.6247C69.0567 78.2737 68.1792 78.3059 67.4189 78.6774L66.667 79.0202C66.0446 79.2971 65.4289 79.5501 64.8086 79.7663L64.4355 79.8913C63.6267 80.1469 62.9738 80.7742 62.6787 81.5876L62.625 81.7536L62.623 81.7595L61.4306 85.9147V85.9157C61.3439 86.2194 61.129 86.4274 60.8672 86.5046L60.7519 86.529C58.0167 86.8906 55.2187 86.8897 52.4912 86.4958H52.4922C52.2684 86.462 52.0162 86.2779 51.8857 85.9958L51.8379 85.8698L50.6142 81.6227L50.6133 81.6169L50.5566 81.446C50.271 80.6659 49.6712 80.1235 48.9931 79.8298L48.8467 79.7712L48.8398 79.7683L48.0908 79.486C47.3482 79.1977 46.6235 78.887 45.9238 78.5251H45.9228C45.1671 78.1267 44.1603 78.0425 43.3076 78.5397L39.5293 80.6501L39.4228 80.7009C39.1735 80.7975 38.9041 80.762 38.6855 80.5974C37.6492 79.795 36.6282 78.9384 35.7148 78.0251C34.662 76.9723 33.6763 75.8215 32.8242 74.6423C32.6438 74.3831 32.6272 74.0514 32.7802 73.7722L34.9599 69.8894L34.9658 69.8796L34.9707 69.8698C35.3989 69.0666 35.3923 68.1215 35.0283 67.3415L35.0224 67.3298L35.0166 67.3171L34.8525 66.9792C34.5862 66.4128 34.352 65.8283 34.1338 65.2224L33.8789 64.4851C33.6226 63.6529 32.9997 63.0002 32.1875 62.7048L32.0205 62.6501L32.0136 62.6481L27.8584 61.4558H27.8574C27.5119 61.357 27.2914 61.0929 27.2451 60.7819C26.8826 58.0092 26.8838 55.1781 27.3105 52.4206L27.3115 52.4157C27.3499 52.1599 27.5851 51.8664 27.9384 51.7604L27.9375 51.7595L32.249 50.5388L32.2744 50.531C33.1371 50.2612 33.7677 49.613 34.0713 48.8034L34.0732 48.7966L34.0761 48.7888C34.4004 47.881 34.7929 46.9962 35.2275 46.0935L35.2265 46.0925C35.6363 45.2951 35.6316 44.347 35.209 43.5544L35.2011 43.5407L33.0898 39.7253L33.0683 39.6882L33.0215 39.5974C32.9305 39.3794 32.9526 39.1081 33.1279 38.8542C33.9204 37.7986 34.772 36.7854 35.7148 35.8425C36.7914 34.766 37.9399 33.8126 39.1347 32.9157C39.3944 32.7369 39.7262 32.7205 40.0049 32.8747V32.8757L43.9218 35.0554V35.0544C44.7116 35.5011 45.6656 35.4791 46.4316 35.1218L46.4433 35.1169C47.3265 34.6917 48.2068 34.3331 49.084 34.0407L49.083 34.0388C49.9623 33.7572 50.5901 33.0528 50.8467 32.2321L50.8506 32.2194L50.8535 32.2067L52.0459 28.0192C52.1451 27.6719 52.4114 27.4507 52.7246 27.406L52.7343 27.404ZM56.8388 42.1726C48.6876 42.1729 42.0795 48.7811 42.0791 56.9323C42.0791 65.0839 48.6873 71.6927 56.8388 71.6931C64.9907 71.6931 71.5996 65.0841 71.5996 56.9323C71.5992 48.7809 64.9904 42.1726 56.8388 42.1726ZM56.8388 44.1726C63.8858 44.1726 69.5992 49.8854 69.5996 56.9323C69.5996 63.9796 63.8861 69.6931 56.8388 69.6931C49.7919 69.6927 44.0791 63.9794 44.0791 56.9323C44.0795 49.8856 49.7921 44.1729 56.8388 44.1726Z" fill="white"/>
<path fill-rule="evenodd" clip-rule="evenodd" d="M56.8395 42.2955C48.7553 42.2955 42.2017 48.8494 42.2015 56.9335C42.2016 65.0177 48.7553 71.5715 56.8395 71.5715C64.9236 71.5713 71.4774 65.0176 71.4775 56.9335C71.4773 48.8495 64.9235 42.2957 56.8395 42.2955ZM56.8395 44.0509C63.954 44.0511 69.7219 49.819 69.7221 56.9335C69.722 64.0481 63.9541 69.8159 56.8395 69.8161C49.7247 69.8161 43.957 64.0482 43.9569 56.9335C43.9571 49.8188 49.7248 44.0509 56.8395 44.0509Z" fill="white"/>
<path fill-rule="evenodd" clip-rule="evenodd" d="M60.8671 25.4727C58.0785 25.125 55.2526 25.1196 52.4502 25.5481C51.4527 25.6938 50.6434 26.3748 50.3022 27.3121L50.2396 27.5032L49.0508 31.68C48.9564 31.9736 48.7466 32.1789 48.5057 32.2543L48.4902 32.2594C47.5369 32.5772 46.5858 32.9648 45.6377 33.4208C45.3891 33.5368 45.1211 33.5362 44.9237 33.4577L44.844 33.42L44.8346 33.4148L40.9184 31.2352L40.9175 31.2343L40.7461 31.1469C39.8761 30.7406 38.848 30.8193 38.0436 31.3869L38.023 31.4023C36.7746 32.3386 35.5483 33.3534 34.3871 34.5145C33.364 35.5376 32.4516 36.6272 31.6152 37.7425L31.5997 37.763C31.0209 38.5833 30.8913 39.6943 31.4472 40.6344L33.5548 44.4443C33.6863 44.6956 33.6856 44.996 33.5523 45.2466L33.5437 45.2629L33.536 45.2792C33.0882 46.2093 32.6668 47.1556 32.3129 48.1445C32.1965 48.4549 31.983 48.6527 31.7197 48.7368L27.411 49.9582L27.405 49.9608L27.399 49.9625C26.4313 50.2528 25.6147 51.081 25.455 52.1336C24.9985 55.0833 24.9994 58.0967 25.3839 61.0331L25.3856 61.0426C25.5382 62.1107 26.3034 62.965 27.3415 63.2617L31.49 64.4505C31.7826 64.5366 32.0022 64.757 32.0883 65.0496L32.0926 65.0642L32.0977 65.0788C32.4428 66.1138 32.8286 67.1379 33.326 68.1361C33.453 68.4085 33.4481 68.7272 33.3157 68.9804L31.1429 72.8529L31.1412 72.8563C30.639 73.7602 30.6881 74.8723 31.2937 75.7303L31.2989 75.738C32.2132 77.0039 33.2658 78.2312 34.3871 79.3525C35.3758 80.3412 36.4628 81.2511 37.5353 82.0816L37.5396 82.0858C38.4067 82.7489 39.5346 82.796 40.441 82.2924L40.4427 82.2915L44.2235 80.1796L44.2346 80.1727L44.2466 80.1659C44.4486 80.0449 44.763 80.0341 45.0506 80.1873L45.0609 80.1924C46.0941 80.7269 47.1533 81.1496 48.1868 81.5287C48.4779 81.6379 48.6773 81.8227 48.7757 82.0481L48.8117 82.1476L50.0365 86.3997L50.0391 86.4092C50.3297 87.378 51.1592 88.1948 52.2136 88.3531L52.2187 88.354C55.1288 88.7747 58.1052 88.7748 61.0086 88.39L61.0171 88.3883C62.0848 88.2356 62.9385 87.4708 63.2354 86.4332L64.4259 82.2838C64.5144 81.9836 64.7413 81.7633 65.0036 81.6813L65.0113 81.6787C66.1185 81.3215 67.1792 80.8616 68.2127 80.3793L68.223 80.3742L68.2341 80.369C68.5384 80.217 68.8489 80.227 69.093 80.3553L72.932 82.4955L72.9329 82.4964C73.8367 82.9985 74.9489 82.9494 75.8068 82.3438L75.8137 82.3396L75.8205 82.3344C77.0119 81.4584 78.1703 80.4757 79.2593 79.3867C80.3498 78.2963 81.2613 77.2079 82.1307 76.0602L82.1401 76.0491L82.1487 76.0362C82.716 75.232 82.7947 74.2044 82.3887 73.3346L82.3004 73.1632L82.2987 73.1589L80.1602 69.3584C80.0312 69.114 80.0205 68.8028 80.173 68.4978L80.1782 68.4867C80.6684 67.471 81.0867 66.4576 81.469 65.4156L81.4699 65.4165C81.5947 65.0839 81.8175 64.872 82.0878 64.7925L82.087 64.7916L86.3015 63.6028L86.3083 63.6011L86.3152 63.5985C87.2925 63.3052 88.1058 62.4685 88.2609 61.3837L88.404 60.3817H88.3526C88.6206 57.9501 88.6035 55.4996 88.3003 53.0704L88.2266 52.5184C88.0834 51.5172 87.4017 50.704 86.4617 50.3619L86.2706 50.2994L86.268 50.2985L82.0664 49.1131C81.7691 49.0197 81.5612 48.8083 81.4853 48.5654L81.4818 48.5534L81.2076 47.7871C80.9312 47.0458 80.6211 46.3129 80.2502 45.5937C80.1243 45.3225 80.1232 44.988 80.2459 44.7152L82.369 40.8753C82.8709 39.9715 82.8219 38.8592 82.2164 38.0013L82.2061 37.9876L81.8727 37.5419C81.0821 36.5064 80.2073 35.4968 79.225 34.5145C78.1004 33.3899 77.01 32.4758 75.8205 31.6012L75.8137 31.596L75.8068 31.5917L75.6431 31.4846C74.8661 31.0154 73.9165 30.9726 73.1043 31.3517L72.9329 31.4392L72.932 31.44L69.093 33.5794C68.8411 33.712 68.5395 33.7117 68.2881 33.5777L68.2787 33.5726L68.2676 33.5674L67.9196 33.3968C67.1059 33.0089 66.2708 32.6746 65.4185 32.37C65.1483 32.2671 64.9646 32.0904 64.8673 31.8712L64.8305 31.7743L63.6108 27.5032L63.6074 27.4921L63.5465 27.3121C63.2342 26.483 62.5241 25.7938 61.6274 25.585L61.432 25.5481L61.4243 25.5473L60.8671 25.4727ZM52.715 27.2838C55.5149 26.8556 58.3573 26.8867 61.1774 27.2847C61.4449 27.3273 61.7266 27.5408 61.8717 27.8547L61.9257 27.997L63.1488 32.2774L63.1514 32.2877L63.1548 32.298C63.4123 33.1218 64.031 33.7242 64.8082 34.0157L64.8151 34.0183L64.821 34.0208C65.5189 34.2701 66.192 34.5352 66.8413 34.8308L67.4833 35.1368C68.2481 35.536 69.1614 35.533 69.9235 35.1265L69.9304 35.1231L69.9381 35.1188L73.7849 32.9726L73.7857 32.9734C74.0676 32.8171 74.3988 32.8124 74.678 32.9554L74.7946 33.0257C75.9156 33.8508 76.9332 34.7058 77.9839 35.7565C79.0382 36.8109 79.9611 37.8979 80.7859 39.0187C80.968 39.2803 81.0046 39.607 80.8921 39.899L80.8347 40.0224L80.833 40.0241L78.6876 43.9069L78.673 43.9335L78.6602 43.9601C78.312 44.7062 78.3121 45.5916 78.6602 46.3377L78.6679 46.354L78.6765 46.3703C79.1261 47.2374 79.485 48.1477 79.8182 49.1139C80.0879 49.9481 80.7601 50.5445 81.5444 50.7896L81.5556 50.7931L81.5676 50.7965L85.788 51.987C86.1801 52.0991 86.4373 52.404 86.4892 52.7662L86.5586 53.2881C86.8842 55.8965 86.8612 58.5304 86.4892 61.1351L86.4575 61.3537C86.3463 61.6082 86.1142 61.8249 85.8146 61.916L81.6018 63.1057L81.5924 63.1082C80.7606 63.3529 80.1859 63.9603 79.8833 64.6588L79.8259 64.8002L79.8242 64.8062C79.4592 65.8015 79.0628 66.7588 78.6028 67.7127C78.211 68.4963 78.1988 69.4104 78.6131 70.1872L78.6182 70.1958L78.6225 70.2044L80.7662 74.0143C80.9451 74.3364 80.9254 74.724 80.7139 75.024C79.8861 76.1151 79.031 77.1319 78.0173 78.1456C76.9991 79.1638 75.914 80.0857 74.7946 80.9099C74.4946 81.1216 74.1079 81.1409 73.7857 80.9621L69.9381 78.8168L69.9304 78.8133L69.9235 78.809L69.7761 78.7362C69.04 78.4009 68.2 78.4313 67.4704 78.7885L66.717 79.1322C65.9674 79.4657 65.2254 79.7652 64.4722 80.0082C63.7003 80.2522 63.0762 80.8519 62.7939 81.6298L62.7417 81.7884L62.74 81.7936L61.5485 85.9489L61.5477 85.9498C61.4363 86.3396 61.1348 86.5952 60.7754 86.6492C58.0261 87.0133 55.2133 87.013 52.4707 86.6166C52.1658 86.5691 51.8418 86.3001 51.7225 85.912L50.4968 81.6564L50.4951 81.6521L50.4419 81.4893C50.1695 80.7448 49.5966 80.2254 48.9445 79.943L48.804 79.8856L48.798 79.8839L48.0463 79.601C47.3008 79.3115 46.5723 78.9979 45.8674 78.6333C45.1418 78.2505 44.1781 78.1732 43.3672 78.647L39.5881 80.7582C39.3086 80.9134 38.9892 80.9163 38.719 80.7659L38.6059 80.6913C37.5685 79.888 36.5453 79.0284 35.6282 78.1113C34.5721 77.0553 33.5832 75.9015 32.7277 74.718C32.5168 74.4191 32.4969 74.0341 32.6737 73.7126L34.8534 69.8289L34.8577 69.8212L34.8628 69.8127C35.2719 69.0453 35.2662 68.1409 34.9177 67.3939L34.9125 67.3827L34.9074 67.3724L34.742 67.0321C34.4737 66.4614 34.2378 65.8734 34.0185 65.2648L33.7623 64.5242C33.5178 63.7275 32.9229 63.1029 32.1457 62.8202L31.9854 62.7671L31.9803 62.7662L27.825 61.574L27.8241 61.5731L27.6835 61.5225C27.3722 61.3849 27.1704 61.1144 27.1238 60.7991C26.7598 58.0155 26.7611 55.1721 27.1898 52.4019L27.1907 52.3976C27.2368 52.0917 27.5065 51.7647 27.8961 51.645L32.216 50.4211L32.2272 50.4185L32.2383 50.4142C33.062 50.1566 33.6645 49.538 33.956 48.7608L33.9585 48.7548L33.9611 48.748C34.2873 47.8347 34.6818 46.945 35.1174 46.0403L35.1165 46.0394C35.5092 45.2771 35.5053 44.3701 35.1011 43.6121L35.0942 43.6001L32.9823 39.785L32.9737 39.7687L32.9634 39.7524L32.9086 39.6444C32.8 39.3843 32.8304 39.0675 33.0286 38.7822C33.824 37.7226 34.6801 36.7046 35.6282 35.7565C36.7103 34.6744 37.8635 33.7161 39.0619 32.8166C39.3609 32.609 39.7447 32.5918 40.0647 32.7694L43.9723 34.9431C44.7255 35.3734 45.6425 35.355 46.38 35.0108L46.3894 35.0065C47.2772 34.5791 48.1632 34.219 49.0457 33.9248L49.0448 33.924C49.8831 33.656 50.484 32.9828 50.7299 32.196L50.7333 32.1849L50.7359 32.1737L51.9282 27.9858C52.0403 27.5937 52.3443 27.3365 52.7064 27.2847L52.715 27.2838Z" fill="white"/>
</svg>
