<svg width="113" height="113" viewBox="0 0 113 113" fill="none" xmlns="http://www.w3.org/2000/svg">
<path d="M44.7882 38.1735C45.1666 37.9049 45.6824 37.9715 45.9814 38.3135L46.0383 38.3853L52.9818 48.1653L58.7345 42.2707L58.8019 42.2077C58.9661 42.0709 59.1755 41.9966 59.3911 42.0002C59.6376 42.0044 59.8718 42.1098 60.0381 42.2917L68.4129 51.4562C68.7469 51.8216 68.7213 52.389 68.356 52.723C67.9907 53.0567 67.4241 53.0311 67.0901 52.6661L59.3544 44.202L53.5149 50.1868C53.3293 50.377 53.0682 50.4753 52.8032 50.4547C52.5382 50.434 52.2961 50.2966 52.1422 50.08L44.5763 39.4236L44.5273 39.3457C44.3032 38.9506 44.4098 38.4422 44.7882 38.1735Z" fill="#121212"/>
<path fill-rule="evenodd" clip-rule="evenodd" d="M87.0177 25.2934C87.4698 25.3393 87.8223 25.7214 87.8223 26.1856C87.8222 26.6497 87.4698 27.0318 87.0177 27.0777L86.9258 27.082H81.0023V65.6241L80.9979 65.716L80.997 65.7195H86.9258L87.0177 65.7239C87.4697 65.7697 87.8221 66.1519 87.8223 66.616C87.8223 67.0802 87.4698 67.4622 87.0177 67.5081L86.9258 67.5125H57.4239V75.3795L74.1893 86.6434L74.2629 86.6977C74.6126 86.9878 74.6923 87.5021 74.4336 87.8875C74.1747 88.2724 73.669 88.3927 73.2683 88.179L73.1895 88.1317L57.4239 77.5393V86.8483C57.4237 87.3432 57.0224 87.7448 56.5274 87.7448C56.0324 87.7448 55.6311 87.3432 55.631 86.8483V77.2627L39.453 88.1317L39.3742 88.179C38.9735 88.3928 38.4679 88.2724 38.209 87.8875C37.95 87.502 38.0298 86.9878 38.3797 86.6977L38.4532 86.6434L55.5618 75.1493L55.631 75.1072V67.5125H26.1309C25.6357 67.5125 25.2344 67.1111 25.2344 66.616C25.2346 66.121 25.6359 65.7195 26.1309 65.7195H32.0596L32.0587 65.716L32.0543 65.6241V27.082H26.1309C25.6358 27.082 25.2344 26.6806 25.2344 26.1856C25.2344 25.6904 25.6357 25.2891 26.1309 25.2891H86.9258L87.0177 25.2934ZM33.8473 65.6241L33.8429 65.716L33.8421 65.7195H79.2146L79.2137 65.716L79.2093 65.6241V27.082H33.8473V65.6241Z" fill="#121212"/>
</svg>
