<svg width="113" height="113" viewBox="0 0 113 113" fill="none" xmlns="http://www.w3.org/2000/svg">
<path fill-rule="evenodd" clip-rule="evenodd" d="M56.5244 20.6787C57.0767 20.6787 57.5244 21.1264 57.5244 21.6787V33.1914H72.1641L72.2666 33.1963C72.771 33.2474 73.1641 33.6736 73.1641 34.1914C73.1638 34.709 72.7708 35.1354 72.2666 35.1865L72.1641 35.1914H57.5244V55.0869H64.3447L64.9375 55.1016C67.8904 55.2481 70.6925 56.4855 72.793 58.5859C75.0335 60.8265 76.292 63.8656 76.292 67.0342C76.2919 70.2027 75.0335 73.2419 72.793 75.4824C70.6925 77.5828 67.8903 78.8203 64.9375 78.9668L64.3447 78.9814H57.5244V90.4922C57.5242 91.0443 57.0766 91.4922 56.5244 91.4922C55.9723 91.4922 55.5246 91.0443 55.5244 90.4922V78.9814H37.7578C37.2057 78.9814 36.7581 78.5335 36.7578 77.9814C36.758 77.4293 37.2057 76.9815 37.7578 76.9814H55.5244V57.0869H48.7051C45.5366 57.0868 42.4973 55.8273 40.2568 53.5869C38.1566 51.4865 36.9191 48.6841 36.7725 45.7314L36.7578 45.1387C36.7579 41.9702 38.0165 38.9309 40.2568 36.6904C42.4974 34.4499 45.5365 33.1915 48.7051 33.1914H55.5244V21.6787C55.5244 21.1264 55.9721 20.6787 56.5244 20.6787ZM57.5244 76.9814H64.3447L64.8379 76.9697C67.2965 76.8478 69.6299 75.8172 71.3789 74.0684C73.2443 72.2029 74.2919 69.6723 74.292 67.0342C74.292 64.396 73.2443 61.8655 71.3789 60C69.6299 58.251 67.2966 57.2206 64.8379 57.0986L64.3447 57.0869H57.5244V76.9814ZM48.7051 35.1914C46.067 35.1915 43.5373 36.24 41.6719 38.1055C39.8066 39.9709 38.7579 42.5006 38.7578 45.1387L38.7705 45.6318C38.8925 48.0905 39.9229 50.4239 41.6719 52.1729C43.5373 54.0381 46.0671 55.0868 48.7051 55.0869H55.5244V35.1914H48.7051Z" fill="#121212"/>
</svg>
