<svg width="113" height="112" viewBox="0 0 113 112" fill="none" xmlns="http://www.w3.org/2000/svg">
<path d="M42.0501 65.6039C42.5183 65.6515 42.8837 66.0473 42.8837 66.5281C42.8837 67.0089 42.5183 67.4047 42.0501 67.4523L41.9549 67.4569H32.0523C31.5393 67.4569 31.1235 67.041 31.1235 66.5281C31.1235 66.0152 31.5393 65.5993 32.0523 65.5993H41.9549L42.0501 65.6039Z" fill="white"/>
<path fill-rule="evenodd" clip-rule="evenodd" d="M72.0799 32.2155C73.3576 32.2608 74.6034 32.6386 75.6925 33.3138C76.8363 34.0233 77.7628 35.034 78.3717 36.2335L88.5383 52.0307C89.2133 53.0797 89.5722 54.3014 89.5723 55.5489V73.171C89.5721 75.1197 88.7979 76.9891 87.42 78.3671C86.042 79.7451 84.1725 80.5193 82.2238 80.5194H30.8641C28.9154 80.5194 27.046 79.745 25.6679 78.3671C24.2899 76.9891 23.5158 75.1197 23.5156 73.171V55.5489C23.5157 54.3013 23.8745 53.0798 24.5496 52.0307L34.7152 36.2335C35.3242 35.0337 36.2513 34.0233 37.3954 33.3138C38.5571 32.5936 39.8969 32.2117 41.2638 32.2109H71.8241L72.0799 32.2155ZM25.4285 54.8387C25.3922 55.0727 25.3732 55.3102 25.3732 55.5489V73.171C25.3733 74.6271 25.9516 76.0242 26.9813 77.0538C28.011 78.0833 29.408 78.6619 30.8641 78.6619H82.2238C83.6799 78.6618 85.077 78.0834 86.1066 77.0538C87.1363 76.0242 87.7146 74.6271 87.7147 73.171V55.5489C87.7147 55.3102 87.6948 55.0727 87.6585 54.8387H25.4285ZM41.2647 34.0685C40.2432 34.0691 39.2422 34.3546 38.3741 34.8929C37.6142 35.3641 36.9825 36.0126 36.5319 36.7804L36.3505 37.116C36.3353 37.1466 36.3183 37.177 36.2998 37.2058L26.1477 52.9812H86.9402L76.7881 37.2058C76.7697 37.1771 76.7525 37.1465 76.7373 37.116C76.2828 36.2013 75.5818 35.4313 74.7138 34.8929C73.9544 34.422 73.0927 34.1445 72.2051 34.0821L71.8223 34.0685H41.2647Z" fill="white"/>
</svg>
