<svg width="113" height="113" viewBox="0 0 113 113" fill="none" xmlns="http://www.w3.org/2000/svg">
<path d="M47.4487 24.5973C54.2877 23.0521 61.443 23.759 67.8475 26.6126C68.3376 26.831 68.5583 27.4053 68.3399 27.8954C68.1214 28.3851 67.547 28.6051 67.0571 28.3869C61.0354 25.7038 54.3069 25.0393 47.8766 26.4921C41.4465 27.945 35.6577 31.4378 31.3746 36.4491C27.0916 41.4604 24.5432 47.7224 24.1095 54.3003C23.6758 60.8783 25.3804 67.421 28.9684 72.9513C32.5565 78.4814 37.836 82.7036 44.0196 84.9881C50.2034 87.2727 56.9609 87.4977 63.2827 85.6286C69.6042 83.7594 75.1524 79.8963 79.0996 74.6165C83.0466 69.3367 85.1814 62.9219 85.1853 56.3298V53.4283C85.1853 52.8918 85.6205 52.4569 86.1569 52.4567C86.6935 52.4567 87.1285 52.8917 87.1285 53.4283V56.3308C87.1244 63.3419 84.8536 70.1643 80.6556 75.7798C76.4575 81.3952 70.5565 85.5041 63.833 87.4921C57.1094 89.4799 49.9227 89.2406 43.3459 86.8108C36.7692 84.381 31.1535 79.89 27.3374 74.0083C23.5214 68.1266 21.7088 61.1681 22.1701 54.1722C22.6314 47.1762 25.342 40.516 29.8973 35.1862C34.4527 29.8564 40.6098 26.1426 47.4487 24.5973Z" fill="white"/>
<path d="M89.6581 27.292C90.0376 26.913 90.6527 26.9127 91.032 27.292C91.4112 27.6713 91.4109 28.2864 91.032 28.6659L55.6105 64.0874C55.2311 64.4668 54.616 64.4667 54.2366 64.0874L43.6097 53.4615C43.2303 53.0821 43.2303 52.4661 43.6097 52.0867C43.9891 51.708 44.6044 51.7077 44.9836 52.0867L54.9235 62.0266L89.6581 27.292Z" fill="white"/>
</svg>
