<svg width="113" height="113" viewBox="0 0 113 113" fill="none" xmlns="http://www.w3.org/2000/svg">
<path d="M47.6264 24.5973C54.4654 23.0521 61.6207 23.759 68.0252 26.6126C68.5153 26.831 68.736 27.4053 68.5176 27.8954C68.2991 28.3851 67.7247 28.6051 67.2348 28.3869C61.2131 25.7038 54.4846 25.0393 48.0543 26.4921C41.6242 27.945 35.8355 31.4378 31.5523 36.4491C27.2694 41.4604 24.7209 47.7224 24.2872 54.3003C23.8535 60.8783 25.5581 67.421 29.1461 72.9513C32.7342 78.4814 38.0138 82.7036 44.1973 84.9881C50.3811 87.2727 57.1386 87.4977 63.4604 85.6286C69.7819 83.7594 75.3302 79.8963 79.2773 74.6165C83.2244 69.3367 85.3591 62.9219 85.3631 56.3298V53.4283C85.3631 52.8918 85.7982 52.4569 86.3347 52.4567C86.8713 52.4567 87.3063 52.8917 87.3063 53.4283V56.3308C87.3021 63.3419 85.0314 70.1643 80.8334 75.7798C76.6353 81.3952 70.7342 85.5041 64.0107 87.4921C57.2872 89.4799 50.1004 89.2406 43.5237 86.8108C36.947 84.381 31.3312 79.89 27.5151 74.0083C23.6992 68.1266 21.8866 61.1681 22.3478 54.1722C22.8092 47.1762 25.5198 40.516 30.075 35.1862C34.6304 29.8564 40.7875 26.1426 47.6264 24.5973Z" fill="#121212"/>
<path d="M89.8358 27.292C90.2153 26.913 90.8304 26.9127 91.2097 27.292C91.5889 27.6713 91.5887 28.2864 91.2097 28.6659L55.7882 64.0874C55.4088 64.4668 54.7937 64.4667 54.4143 64.0874L43.7874 53.4615C43.408 53.0821 43.408 52.4661 43.7874 52.0867C44.1668 51.708 44.7821 51.7077 45.1613 52.0867L55.1012 62.0266L89.8358 27.292Z" fill="#121212"/>
</svg>
