<svg width="85" height="85" viewBox="0 0 85 85" fill="none" xmlns="http://www.w3.org/2000/svg">
<path d="M33.3926 20.7334C33.227 20.3539 32.7848 20.1803 32.4053 20.3457C28.6336 21.9916 25.3217 24.5367 22.7607 27.7578C20.1999 30.9789 18.4672 34.7788 17.7139 38.8242C16.9606 42.8696 17.2097 47.038 18.4395 50.9648C19.6693 54.8918 21.8423 58.4585 24.7686 61.3516C27.6949 64.2447 31.2858 66.3776 35.2266 67.5625C39.1674 68.7474 43.3393 68.9489 47.376 68.1494C51.4126 67.3499 55.1921 65.5731 58.3838 62.9756C61.5753 60.3781 64.0819 57.038 65.6846 53.248C65.8459 52.8666 65.6676 52.426 65.2861 52.2646C64.9047 52.1035 64.465 52.2826 64.3037 52.6641C62.7964 56.2285 60.4381 59.3696 57.4365 61.8125C54.4349 64.2553 50.8802 65.9259 47.084 66.6777C43.2879 67.4295 39.3652 67.2402 35.6592 66.126C31.953 65.0116 28.5754 63.006 25.8232 60.2852C23.0711 57.5643 21.0277 54.2098 19.8711 50.5166C18.7146 46.8235 18.4801 42.9032 19.1885 39.0986C19.897 35.294 21.5271 31.7208 23.9355 28.6914C26.344 25.6621 29.4578 23.2686 33.0049 21.7207C33.3844 21.5551 33.5579 21.1129 33.3926 20.7334ZM42.4805 18.2539C42.2816 18.2539 42.0908 18.3331 41.9502 18.4736C41.8449 18.579 41.774 18.7125 41.7451 18.8564L41.7305 19.0039V43.4473C41.7307 43.8613 42.0664 44.1973 42.4805 44.1973H66.9238C67.3378 44.1971 67.6736 43.8612 67.6738 43.4473C67.6738 40.139 67.0219 36.8621 65.7559 33.8057C64.4898 30.7494 62.6341 27.9721 60.2949 25.6328C57.9556 23.2935 55.1776 21.4379 52.1211 20.1719C49.0646 18.9059 45.7888 18.2539 42.4805 18.2539ZM43.2305 19.7666C46.0861 19.857 48.9045 20.4627 51.5479 21.5576C54.4222 22.7483 57.0344 24.4934 59.2344 26.6934C61.4343 28.8934 63.1795 31.5055 64.3701 34.3799C65.4651 37.0233 66.0697 39.8416 66.1602 42.6973H43.2305V19.7666Z" fill="black"/>
<path d="M33.3918 20.7324C33.2261 20.353 32.7839 20.1796 32.4044 20.345C28.6328 21.9908 25.3216 24.536 22.7607 27.7571C20.1997 30.9782 18.4662 34.7777 17.7128 38.8232C16.9594 42.8688 17.2088 47.0376 18.4386 50.9646C19.6685 54.8917 21.8418 58.4579 24.7682 61.3511C27.6946 64.2442 31.285 66.3763 35.2257 67.5613C39.1666 68.7462 43.3384 68.9482 47.3752 68.1487C51.4118 67.3491 55.1911 65.5724 58.3827 62.9749C61.4747 60.4584 63.924 57.2456 65.5312 53.6013L65.6842 53.2476C65.8456 52.8661 65.6666 52.426 65.2851 52.2646C64.9274 52.1135 64.5184 52.2608 64.3358 52.5942L64.3022 52.6631C62.7949 56.2276 60.4374 59.3688 57.4357 61.8118C54.4341 64.2546 50.8799 65.9253 47.0836 66.6772C43.2872 67.4292 39.3641 67.2394 35.6579 66.125C31.9518 65.0106 28.575 63.0055 25.8229 60.2847C23.0707 57.5637 21.0264 54.2096 19.8698 50.5164C18.7132 46.8231 18.4794 42.9026 19.1879 39.0979C19.8964 35.2932 21.5263 31.7202 23.9347 28.6909C26.3432 25.6615 29.4572 23.2684 33.0043 21.7205C33.3839 21.5548 33.5574 21.112 33.3918 20.7324Z" fill="black"/>
<path fill-rule="evenodd" clip-rule="evenodd" d="M42.4796 18.2539C42.2807 18.2539 42.09 18.333 41.9494 18.4736C41.8087 18.6143 41.7296 18.805 41.7296 19.0039V43.447C41.7297 43.8612 42.0655 44.197 42.4796 44.197H66.9228C67.3369 44.197 67.6727 43.8612 67.6728 43.447C67.6728 40.1387 67.0213 36.8626 65.7553 33.8062C64.4892 30.7496 62.633 27.9724 60.2936 25.6331C57.9542 23.2937 55.1771 21.4375 52.1205 20.1714C49.064 18.9054 45.788 18.2539 42.4796 18.2539ZM43.2296 19.7671C46.0851 19.8575 48.903 20.4623 51.5463 21.5571C54.4209 22.7478 57.033 24.4935 59.2331 26.6936C61.433 28.8936 63.1781 31.5053 64.3688 34.3796C65.4637 37.023 66.0691 39.8414 66.1596 42.697H43.2296V19.7671Z" fill="black"/>
</svg>
