<svg width="85" height="85" viewBox="0 0 85 85" fill="none" xmlns="http://www.w3.org/2000/svg">
<path d="M45.2206 18.8729C43.258 18.661 41.2731 18.6771 39.3026 18.9784V18.9794C38.5204 19.0938 37.8861 19.6269 37.619 20.3602L37.5702 20.5106L36.6815 23.6346C36.6197 23.8322 36.4817 23.9634 36.3309 24.0106L36.3241 24.0126L36.3172 24.0155C35.5988 24.255 34.8827 24.5472 34.1688 24.8905C33.9795 24.9789 33.7786 24.9627 33.6571 24.8934L33.285 25.5438L33.6571 24.8925L33.6493 24.8886L30.7118 23.2538L30.577 23.1854C29.8953 22.8671 29.0895 22.928 28.4588 23.3729L28.4501 23.3798L28.4413 23.3856C27.5024 24.0897 26.5789 24.8544 25.704 25.7294C24.933 26.5004 24.2454 27.321 23.6161 28.16L23.6102 28.1678L23.6034 28.1766C23.1515 28.8169 23.0479 29.6885 23.4833 30.4276V30.4286L25.0604 33.2792H25.0614C25.148 33.4417 25.1479 33.6372 25.0614 33.7997L25.0477 33.827C24.7112 34.5259 24.3937 35.2387 24.1268 35.9843C24.0485 36.1929 23.9089 36.3192 23.7401 36.3729L20.5126 37.288L20.5008 37.2919C19.7444 37.519 19.1031 38.1675 18.9784 38.997H18.9794C18.636 41.2175 18.6364 43.4851 18.9256 45.6942L18.9266 45.703C19.0463 46.5407 19.647 47.2089 20.4588 47.4413V47.4423L23.5702 48.3339V48.3348C23.7597 48.3906 23.9011 48.5311 23.9569 48.7206L23.9647 48.746C24.2239 49.5234 24.5155 50.2947 24.8905 51.0477V51.0487C24.9743 51.2284 24.9698 51.4373 24.8846 51.6005L23.2557 54.5028L23.2547 54.5057C22.8613 55.2139 22.8992 56.0861 23.3739 56.7587L23.3788 56.7645C24.0674 57.7181 24.8598 58.643 25.704 59.4872C26.4493 60.2325 27.2677 60.9186 28.0741 61.5428L28.078 61.5448C28.7583 62.0651 29.6429 62.1015 30.3534 61.7069L30.3553 61.7059L33.1913 60.1229L33.2108 60.1112C33.3301 60.0397 33.5311 60.0273 33.7235 60.1298L33.7323 60.1337C34.3184 60.4368 34.9149 60.6927 35.5047 60.9218L36.0917 61.1425C36.2878 61.2172 36.4144 61.3389 36.4764 61.4813L36.4989 61.5438L37.4178 64.7333L37.4198 64.7411C37.6468 65.4978 38.2959 66.139 39.1258 66.2635L39.1297 66.2645C41.321 66.5813 43.5615 66.5805 45.7469 66.2909L45.7547 66.2899C46.5926 66.1702 47.2618 65.5699 47.494 64.7577L47.493 64.7567L48.3866 61.6464C48.4444 61.4505 48.5916 61.309 48.7587 61.2567L48.7655 61.2548C49.6012 60.9852 50.4003 60.6375 51.1766 60.2753L51.1864 60.2704L51.1952 60.2665C51.3743 60.177 51.5522 60.1732 51.6981 60.2294L51.7587 60.2577L54.6327 61.8602H54.6337C55.3419 62.2537 56.214 62.2158 56.8866 61.7411L56.8924 61.7372L56.8983 61.7323C57.7953 61.0727 58.6679 60.3328 59.4881 59.5126C60.3096 58.6911 60.9963 57.8718 61.6503 57.0087L61.6581 56.9989L61.6649 56.9882C62.1099 56.3576 62.1716 55.5518 61.8534 54.87L61.784 54.7352L61.7821 54.7323L60.1805 51.8856H60.1815C60.0985 51.7298 60.088 51.5268 60.1903 51.3221L60.1952 51.3134C60.5643 50.5486 60.8793 49.7856 61.1669 49.0018C61.2508 48.7784 61.3954 48.6446 61.5624 48.5927L64.7303 47.6981L64.7421 47.6942C65.5059 47.4649 66.1436 46.8109 66.2655 45.9589L66.3876 45.1024H66.3456C66.5505 43.1661 66.515 41.2142 66.2391 39.2831C66.1266 38.4977 65.592 37.8603 64.8563 37.5927L64.7069 37.5448L64.7049 37.5438L61.5526 36.6532C61.3574 36.5907 61.2273 36.4543 61.1805 36.3046L61.1776 36.2948L61.1737 36.2841L60.9706 35.7157C60.7627 35.1582 60.5286 34.6059 60.2489 34.0634C60.1678 33.8875 60.1654 33.6693 60.2421 33.4911L61.8368 30.6073L61.8358 30.6063C62.228 29.8985 62.1899 29.0283 61.7157 28.3563L61.7118 28.3495L61.7079 28.3436L61.4559 28.0087C60.8608 27.2291 60.2022 26.4689 59.4628 25.7294C58.6156 24.8823 57.7937 24.1934 56.8983 23.535L56.8924 23.5311L56.8866 23.5262L56.7587 23.4423C56.1496 23.0746 55.4048 23.0408 54.7684 23.3378L54.6337 23.4071H54.6327L51.7587 25.0096C51.5961 25.0964 51.4007 25.0964 51.2381 25.0096L51.2294 25.0057L51.2206 25.0009L50.6932 24.7499C50.1654 24.5096 49.6266 24.2973 49.079 24.1014H49.0799C48.8961 24.0325 48.7756 23.9154 48.7128 23.7733L48.6893 23.7108L47.7743 20.5106L47.0536 20.7157L47.7753 20.5096L47.7723 20.5009L47.7245 20.3602C47.4804 19.7121 46.9251 19.1717 46.2196 19.0077L46.0663 18.9784L46.0604 18.9774L45.2206 18.8729ZM39.5292 20.4618C41.6178 20.1424 43.7387 20.165 45.8446 20.4618C46.0361 20.4909 46.2553 20.6672 46.3348 20.9315V20.9305L47.2518 24.1405L47.2577 24.1581C47.4599 24.8051 47.9454 25.278 48.5526 25.5057L48.5643 25.5096C49.0856 25.6958 49.5873 25.8939 50.0712 26.1141L50.5497 26.3427C51.1499 26.6555 51.8667 26.6528 52.4647 26.3339L52.4764 26.327L55.3612 24.7177L55.3622 24.7186C55.5471 24.6159 55.7638 24.6124 55.9462 24.7059L56.0213 24.7518C56.8583 25.368 57.6172 26.0059 58.4012 26.7899C59.1867 27.5754 59.8743 28.3857 60.4891 29.2206H60.4901C60.6111 29.392 60.6367 29.6072 60.5624 29.7997L60.5243 29.8798L60.5233 29.8817L58.9139 32.7938L58.9022 32.8163L58.8905 32.8397C58.6181 33.4237 58.6181 34.1161 58.8905 34.7001L58.8973 34.7137L58.9051 34.7284C59.2394 35.373 59.5067 36.0512 59.7557 36.7733V36.7723C59.9684 37.4281 60.496 37.8961 61.1092 38.0878L61.119 38.0907L61.1297 38.0936L64.2967 38.9872V38.9862C64.5561 39.061 64.7212 39.2618 64.7547 39.496C65.0511 41.571 65.0511 43.6709 64.7547 45.746L64.7323 45.8983C64.6699 46.0328 64.555 46.1525 64.4032 46.2225L64.3104 46.2577L61.1551 47.1483L61.1473 47.1512C60.5368 47.3308 60.1042 47.7585 59.8573 48.2577L59.7626 48.4755L59.7606 48.4803C59.5551 49.0407 59.3367 49.5853 59.0946 50.1239L58.8436 50.661C58.542 51.2714 58.5336 51.9845 58.8573 52.5917L58.8622 52.5985L58.8661 52.6063L60.4755 55.4677C60.5891 55.6755 60.5758 55.9215 60.4432 56.1151C59.8233 56.9326 59.1855 57.6941 58.4276 58.452C57.6677 59.212 56.8572 59.9001 56.0213 60.5155C55.8255 60.6536 55.5734 60.667 55.3622 60.5497H55.3631L52.4764 58.9403L52.4647 58.9335L52.3485 58.8768C51.7708 58.6138 51.1129 58.6373 50.5428 58.9159L49.9794 59.1727C49.6057 59.3389 49.2356 59.4944 48.8641 59.6327L48.3046 59.827C47.6985 60.0188 47.2095 60.489 46.9881 61.0985L46.9471 61.2235L46.9462 61.2284L46.0516 64.3446V64.3456C45.9773 64.6053 45.7779 64.7696 45.5438 64.8036C43.7479 65.0411 41.9161 65.0714 40.1151 64.8768L39.3446 64.7792C39.1553 64.749 38.939 64.5768 38.8583 64.3173L37.9393 61.1249L37.9383 61.121L37.8963 60.993C37.6975 60.4498 37.2954 60.0602 36.8319 59.8309L36.6131 59.7362L36.6083 59.7343L36.0467 59.5223C35.4898 59.3061 34.9465 59.0731 34.4217 58.8016H34.4208C33.854 58.5029 33.0992 58.4405 32.4598 58.8134L29.6239 60.3964C29.4413 60.4973 29.2365 60.4985 29.0624 60.4012L28.9891 60.3534C28.2131 59.7524 27.4485 59.1106 26.7645 58.4266C25.9755 57.6376 25.2372 56.7752 24.5985 55.8915C24.4621 55.6968 24.4491 55.4472 24.5643 55.2372L26.1991 52.3251L26.203 52.3173L26.2069 52.3104C26.528 51.708 26.5228 50.9989 26.2499 50.4139L26.246 50.4052L26.2411 50.3964L26.0008 49.8866C25.7721 49.3703 25.5747 48.8328 25.3876 48.2714H25.3866C25.1941 47.6476 24.7281 47.1577 24.119 46.9364L23.994 46.8954L23.9891 46.8944L20.8729 45.9999H20.8719C20.644 45.9347 20.4883 45.7736 20.4305 45.577L20.412 45.4911C20.1406 43.4128 20.1419 41.2904 20.4618 39.2235V39.2196C20.4908 39.0279 20.6677 38.8078 20.9325 38.7284L20.9315 38.7274L24.1659 37.8124L24.1756 37.8095L24.1844 37.8065C24.8316 37.6043 25.3044 37.1179 25.5321 36.5106L25.536 36.4999C25.7791 35.8192 26.0734 35.1553 26.3993 34.4784L26.3983 34.4774C26.6861 33.9173 26.702 33.2581 26.4422 32.6884L26.3856 32.5741L26.3797 32.5634L24.7958 29.702L24.7801 29.6747L24.745 29.6063C24.6766 29.4424 24.6926 29.2376 24.8251 29.0468C25.4191 28.2557 26.0579 27.4966 26.7645 26.7899C27.5703 25.9841 28.4299 25.27 29.3241 24.5985C29.5198 24.4606 29.7721 24.4481 29.9833 24.5653V24.5643L32.9198 26.1991V26.1981C33.5123 26.5336 34.2278 26.5171 34.8026 26.2489V26.2499L34.8104 26.245C35.473 25.926 36.1339 25.6577 36.7919 25.4384L36.7909 25.4374C37.4505 25.2263 37.9207 24.6975 38.1131 24.0819L38.1161 24.0731L38.119 24.0634L39.0135 20.9218L39.0126 20.9208C39.0873 20.6613 39.2871 20.4964 39.5213 20.4628L39.5292 20.4618ZM42.6092 31.538C36.4956 31.5382 31.5389 36.4946 31.5389 42.6083C31.5391 48.7218 36.4957 53.6783 42.6092 53.6786C48.7229 53.6785 53.6794 48.7219 53.6796 42.6083C53.6796 36.4945 48.723 31.5381 42.6092 31.538ZM42.6092 33.038C47.8946 33.0381 52.1796 37.3229 52.1796 42.6083C52.1794 47.8935 47.8945 52.1785 42.6092 52.1786C37.3241 52.1783 33.0391 47.8934 33.0389 42.6083C33.0389 37.323 37.324 33.0382 42.6092 33.038Z" fill="#121212"/>
<path fill-rule="evenodd" clip-rule="evenodd" d="M42.6086 31.6298C36.5455 31.6298 31.6303 36.5452 31.6301 42.6083C31.6302 48.6715 36.5454 53.5868 42.6086 53.5868C48.6717 53.5866 53.5871 48.6714 53.5871 42.6083C53.587 36.5453 48.6716 31.63 42.6086 31.6298ZM42.6086 32.9464C47.9445 32.9466 52.2705 37.2724 52.2706 42.6083C52.2705 47.9443 47.9446 52.2701 42.6086 52.2703C37.2726 52.2703 32.9467 47.9444 32.9467 42.6083C32.9468 37.2723 37.2726 32.9464 42.6086 32.9464Z" fill="#121212"/>
<path fill-rule="evenodd" clip-rule="evenodd" d="M45.6294 19.0127C43.5379 18.752 41.4184 18.7479 39.3166 19.0693C38.5685 19.1785 37.9616 19.6893 37.7057 20.3923L37.6587 20.5356L36.7671 23.6682C36.6963 23.8884 36.5389 24.0424 36.3583 24.0989L36.3467 24.1028C35.6317 24.3411 34.9184 24.6318 34.2073 24.9738C34.0208 25.0608 33.8198 25.0603 33.6718 25.0015L33.612 24.9732L33.605 24.9693L30.6678 23.3346L30.6672 23.3339L30.5386 23.2684C29.8861 22.9637 29.115 23.0226 28.5117 23.4484L28.4963 23.4599C27.56 24.1622 26.6403 24.9232 25.7693 25.7941C25.002 26.5614 24.3177 27.3786 23.6904 28.2151L23.6788 28.2305C23.2447 28.8456 23.1475 29.6789 23.5644 30.384L25.1451 33.2414C25.2438 33.4299 25.2432 33.6552 25.1432 33.8432L25.1368 33.8554L25.131 33.8676C24.7951 34.5652 24.4791 35.2749 24.2137 36.0166C24.1264 36.2493 23.9663 36.3977 23.7688 36.4608L20.5372 37.3769L20.5327 37.3788L20.5282 37.3801C19.8025 37.5978 19.19 38.2189 19.0703 39.0084C18.7279 41.2206 18.7285 43.4807 19.0169 45.683L19.0182 45.6901C19.1326 46.4913 19.7065 47.132 20.4852 47.3544L23.5965 48.2461C23.816 48.3107 23.9806 48.476 24.0452 48.6954L24.0484 48.7063L24.0523 48.7173C24.3111 49.4936 24.6005 50.2616 24.9735 51.0103C25.0688 51.2145 25.0651 51.4536 24.9658 51.6435L23.3362 54.5479L23.3349 54.5504C22.9583 55.2283 22.9951 56.0624 23.4493 56.7059L23.4532 56.7117C24.1389 57.6611 24.9284 58.5816 25.7693 59.4226C26.5109 60.1641 27.3261 60.8466 28.1305 61.4694L28.1337 61.4726C28.784 61.9698 29.6299 62.0052 30.3097 61.6275L30.311 61.6269L33.1466 60.0429L33.155 60.0378L33.164 60.0326C33.3155 59.9419 33.5512 59.9338 33.767 60.0487L33.7747 60.0525C34.5496 60.4534 35.344 60.7704 36.1191 61.0547C36.3374 61.1366 36.487 61.2752 36.5608 61.4443L36.5878 61.5189L37.5064 64.708L37.5083 64.7151C37.7263 65.4417 38.3484 66.0543 39.1392 66.1731L39.1431 66.1737C41.3256 66.4892 43.5579 66.4893 45.7354 66.2007L45.7418 66.1994C46.5426 66.0849 47.1829 65.5113 47.4055 64.7331L48.2984 61.6211C48.3648 61.3959 48.5349 61.2307 48.7317 61.1692L48.7375 61.1672C49.5679 60.8993 50.3634 60.5544 51.1385 60.1927L51.1462 60.1888L51.1546 60.185C51.3828 60.071 51.6157 60.0784 51.7987 60.1747L54.678 61.7799L54.6787 61.7805C55.3566 62.1571 56.1907 62.1203 56.8341 61.6661L56.8393 61.6629L56.8444 61.659C57.7379 61.002 58.6068 60.265 59.4235 59.4483C60.2413 58.6304 60.925 57.8141 61.577 56.9534L61.5841 56.945L61.5905 56.9354C62.016 56.3322 62.075 55.5615 61.7705 54.9091L61.7043 54.7806L61.703 54.7774L60.0991 51.927C60.0024 51.7437 59.9944 51.5103 60.1088 51.2816L60.1126 51.2732C60.4803 50.5115 60.7941 49.7514 61.0807 48.9699L61.0814 48.9706C61.175 48.7211 61.3421 48.5622 61.5449 48.5026L61.5442 48.5019L64.7051 47.6103L64.7102 47.609L64.7154 47.6071C65.4484 47.3871 66.0584 46.7596 66.1746 45.946L66.282 45.1945H66.2434C66.4444 43.3707 66.4316 41.5329 66.2042 39.711L66.1489 39.297C66.0416 38.5461 65.5303 37.9362 64.8253 37.6796L64.682 37.6327L64.68 37.6321L61.5288 36.743C61.3058 36.673 61.1499 36.5144 61.093 36.3322L61.0904 36.3232L60.8847 35.7485C60.6774 35.1925 60.4448 34.6429 60.1666 34.1035C60.0722 33.9001 60.0714 33.6492 60.1634 33.4446L61.7557 30.5646C62.1322 29.8868 62.0955 29.0526 61.6413 28.4092L61.6336 28.3989L61.3835 28.0646C60.7906 27.288 60.1345 26.5308 59.3978 25.7941C58.5543 24.9506 57.7365 24.265 56.8444 23.6091L56.8393 23.6052L56.8341 23.602L56.7113 23.5216C56.1286 23.1697 55.4164 23.1376 54.8072 23.422L54.6787 23.4876L54.678 23.4882L51.7987 25.0928C51.6098 25.1922 51.3836 25.192 51.1951 25.0915L51.188 25.0876L51.1797 25.0838L50.9187 24.9558C50.3084 24.6649 49.6821 24.4141 49.0429 24.1857C48.8403 24.1085 48.7024 23.976 48.6295 23.8116L48.6019 23.7389L47.6871 20.5356L47.6845 20.5273L47.6389 20.3923C47.4047 19.7704 46.8721 19.2536 46.1996 19.097L46.053 19.0693L46.0472 19.0687L45.6294 19.0127ZM39.5153 20.3711C41.6152 20.0499 43.747 20.0732 45.8621 20.3717C46.0626 20.4037 46.2739 20.5638 46.3828 20.7992L46.4233 20.9059L47.3406 24.1163L47.3425 24.124L47.3451 24.1317C47.5382 24.7496 48.0023 25.2013 48.5851 25.42L48.5903 25.4219L48.5948 25.4238C49.1182 25.6108 49.623 25.8096 50.11 26.0313L50.5915 26.2608C51.1651 26.5602 51.85 26.558 52.4216 26.2531L52.4268 26.2505L52.4326 26.2473L55.3177 24.6376L55.3183 24.6383C55.5297 24.5211 55.7781 24.5175 55.9875 24.6248L56.0749 24.6775C56.9157 25.2963 57.6789 25.9375 58.4669 26.7256C59.2577 27.5163 59.9498 28.3317 60.5684 29.1722C60.705 29.3684 60.7325 29.6134 60.6481 29.8324L60.605 29.925L60.6038 29.9263L58.9947 32.8384L58.9838 32.8583L58.9741 32.8782C58.713 33.4378 58.7131 34.1019 58.9741 34.6615L58.9799 34.6737L58.9864 34.6859C59.3236 35.3363 59.5927 36.019 59.8426 36.7437C60.045 37.3693 60.5491 37.8166 61.1373 38.0004L61.1457 38.003L61.1547 38.0056L64.32 38.8985C64.6141 38.9826 64.807 39.2112 64.8459 39.4828L64.898 39.8743C65.1421 41.8306 65.1249 43.806 64.8459 45.7595L64.8221 45.9235C64.7387 46.1144 64.5646 46.2768 64.34 46.3452L61.1804 47.2374L61.1733 47.2394C60.5494 47.4229 60.1184 47.8784 59.8915 48.4023L59.8484 48.5083L59.8471 48.5128C59.5734 49.2593 59.2761 49.9773 58.9311 50.6927C58.6372 51.2804 58.6281 51.966 58.9388 52.5486L58.9426 52.555L58.9459 52.5615L60.5536 55.4189C60.6878 55.6605 60.6731 55.9512 60.5144 56.1762C59.8935 56.9945 59.2523 57.7572 58.492 58.5174C57.7284 59.2811 56.9145 59.9725 56.0749 60.5906C55.85 60.7494 55.5599 60.7639 55.3183 60.6298L52.4326 59.0208L52.4268 59.0182L52.4216 59.015L52.3111 58.9603C51.759 58.7089 51.129 58.7317 50.5818 58.9996L50.0168 59.2573C49.4545 59.5075 48.898 59.7321 48.3332 59.9143C47.7542 60.0973 47.2862 60.5472 47.0745 61.1306L47.0353 61.2495L47.034 61.2534L46.1404 64.3699L46.1398 64.3705C46.0562 64.6629 45.8301 64.8546 45.5606 64.8951C43.4986 65.1682 41.389 65.1679 39.3321 64.8707C39.1034 64.835 38.8604 64.6333 38.7709 64.3422L37.8516 61.1505L37.8503 61.1473L37.8104 61.0252C37.6062 60.4668 37.1765 60.0773 36.6874 59.8655L36.582 59.8224L36.5775 59.8211L36.0137 59.609C35.4546 59.3919 34.9082 59.1566 34.3796 58.8832C33.8354 58.5961 33.1126 58.5381 32.5044 58.8935L29.6701 60.4768C29.4604 60.5932 29.2209 60.5954 29.0183 60.4826L28.9334 60.4267C28.1554 59.8242 27.388 59.1795 26.7002 58.4917C25.9081 57.6996 25.1664 56.8343 24.5248 55.9467C24.3666 55.7225 24.3516 55.4338 24.4843 55.1926L26.119 52.2799L26.1223 52.2741L26.1261 52.2677C26.4329 51.6921 26.4286 51.0139 26.1673 50.4536L26.1634 50.4452L26.1595 50.4375L26.0355 50.1823C25.8342 49.7543 25.6573 49.3132 25.4929 48.8568L25.3007 48.3014C25.1174 47.7039 24.6711 47.2354 24.0883 47.0234L23.9681 46.9835L23.9642 46.9829L20.8477 46.0887L20.8471 46.088L20.7417 46.0501C20.5082 45.9469 20.3568 45.744 20.3219 45.5076C20.0489 43.4199 20.0498 41.2873 20.3714 39.2096L20.372 39.2064C20.4066 38.9769 20.6088 38.7317 20.9011 38.642L24.141 37.724L24.1494 37.7221L24.1577 37.7189C24.7755 37.5256 25.2274 37.0617 25.446 36.4788L25.4479 36.4743L25.4498 36.4692C25.6945 35.7842 25.9903 35.1169 26.317 34.4384L26.3164 34.4378C26.6109 33.8661 26.608 33.1858 26.3048 32.6172L26.2997 32.6082L24.7157 29.7469L24.7093 29.7347L24.7016 29.7225L24.6604 29.6415C24.579 29.4464 24.6018 29.2088 24.7504 28.9948C25.347 28.2002 25.9891 27.4367 26.7002 26.7256C27.5117 25.914 28.3766 25.1953 29.2754 24.5206C29.4997 24.365 29.7876 24.352 30.0275 24.4853L32.9583 26.1155C33.5232 26.4383 34.2109 26.4244 34.764 26.1663L34.7711 26.1631C35.4369 25.8425 36.1014 25.5724 36.7632 25.3518L36.7626 25.3512C37.3913 25.1502 37.842 24.6453 38.0264 24.0552L38.029 24.0469L38.0309 24.0385L38.9251 20.8976C39.0093 20.6035 39.2372 20.4106 39.5088 20.3717L39.5153 20.3711Z" fill="#121212"/>
</svg>
