<svg width="85" height="85" viewBox="0 0 85 85" fill="none" xmlns="http://www.w3.org/2000/svg">
<path fill-rule="evenodd" clip-rule="evenodd" d="M59.8289 17.9619C61.0715 17.962 62.0789 18.9693 62.0789 20.2119V64.9453C62.0786 66.1877 61.0713 67.1953 59.8289 67.1953H29.1089C27.3278 67.1952 25.6194 66.4874 24.3599 65.228C23.179 64.0472 22.4831 62.4715 22.4006 60.8115L22.3926 60.4783V24.6782C22.3927 22.897 23.1003 21.1887 24.3599 19.9292C25.6194 18.6697 27.3276 17.962 29.1089 17.9619H59.8289ZM29.1089 55.2612C27.7255 55.2613 26.3986 55.8108 25.4204 56.7891C24.4422 57.7673 23.8927 59.0942 23.8926 60.4775L23.8992 60.7368C23.9631 62.0261 24.5034 63.2496 25.4204 64.1667C26.3986 65.1449 27.7255 65.6952 29.1089 65.6953H59.8289C60.2429 65.6953 60.5786 65.3593 60.5789 64.9453V55.2612H29.1089ZM29.1089 19.4619C27.7255 19.462 26.3986 20.0115 25.4204 20.9897C24.4422 21.968 23.8927 23.2948 23.8926 24.6782V56.2478C24.0387 56.0676 24.1943 55.8941 24.3599 55.7285C25.6194 54.469 27.3276 53.7613 29.1089 53.7612H60.5789V20.2119C60.5789 19.7977 60.243 19.462 59.8289 19.4619H29.1089Z" fill="black"/>
</svg>
