<svg width="112" height="112" viewBox="0 0 112 112" fill="none" xmlns="http://www.w3.org/2000/svg">
<mask id="mask0_385_9934" style="mask-type:alpha" maskUnits="userSpaceOnUse" x="18" y="16" width="79" height="77">
<path d="M25.7481 48.3914L25.1819 47.5672C24.9019 47.7595 24.7388 48.0808 24.7486 48.4202C24.7583 48.7597 24.9398 49.071 25.2303 49.2469L25.7481 48.3914ZM41.6039 48.2161L42.152 47.3797L42.1519 47.3797L41.6039 48.2161ZM47.9195 61.9191L46.9275 61.793C46.8793 62.1723 47.0516 62.5459 47.3714 62.7555L47.9195 61.9191ZM75.1498 79.7624L75.698 78.926L75.6979 78.926L75.1498 79.7624ZM76.9435 88.3785L77.7799 88.9266L77.78 88.9266L76.9435 88.3785ZM68.3282 90.1727L67.7801 91.0092L67.7802 91.0092L68.3282 90.1727ZM41.0987 72.33L41.6468 71.4936C41.3269 71.284 40.9155 71.2752 40.5869 71.4709L41.0987 72.33ZM26.0124 72.01L25.4642 72.8464L25.4643 72.8465L26.0124 72.01ZM19.6964 58.3057L20.2445 57.4692C19.9561 57.2803 19.5908 57.2532 19.2777 57.3976C18.9646 57.5419 18.748 57.8373 18.7044 58.1793L19.6964 58.3057ZM28.5418 64.1018L27.9937 64.9382C28.2502 65.1063 28.5696 65.1474 28.8603 65.0497L28.5418 64.1018ZM36.0462 61.5796L36.3648 62.5275C36.8151 62.3762 37.0968 61.9288 37.0387 61.4572L36.0462 61.5796ZM35.1193 54.0639L36.1118 53.9415C36.0743 53.6373 35.8993 53.3671 35.6371 53.2084L35.1193 54.0639ZM69.5094 83.5059L68.673 82.9577L68.6729 82.9579L69.5094 83.5059ZM70.2784 87.1984L69.7302 88.0348L69.7303 88.0348L70.2784 87.1984ZM73.9708 86.4294L74.8073 86.9775L74.8074 86.9773L73.9708 86.4294ZM73.2018 82.7369L73.7499 81.9005L73.7499 81.9005L73.2018 82.7369ZM25.7481 48.3914L26.3144 49.2156C30.609 46.265 36.4315 46.0226 41.0558 49.0525L41.6039 48.2161L42.1519 47.3797C36.825 43.8893 30.1219 44.1731 25.1819 47.5672L25.7481 48.3914ZM41.6039 48.2161L41.0558 49.0525C45.4273 51.917 47.5458 56.9308 46.9275 61.793L47.9195 61.9191L48.9115 62.0452C49.6225 56.4537 47.1875 50.6793 42.152 47.3797L41.6039 48.2161ZM47.9195 61.9191L47.3714 62.7555L74.6017 80.5988L75.1498 79.7624L75.6979 78.926L48.4676 61.0827L47.9195 61.9191ZM75.1498 79.7624L74.6017 80.5988C77.014 82.1797 77.6879 85.4177 76.1071 87.8305L76.9435 88.3785L77.78 88.9266C79.966 85.5903 79.0343 81.1125 75.698 78.926L75.1498 79.7624ZM76.9435 88.3785L76.1071 87.8304C74.5261 90.2427 71.2888 90.917 68.8762 89.3363L68.3282 90.1727L67.7802 91.0092C71.1166 93.1952 75.5935 92.2628 77.7799 88.9266L76.9435 88.3785ZM68.3282 90.1727L68.8763 89.3363L41.6468 71.4936L41.0987 72.33L40.5506 73.1664L67.7801 91.0092L68.3282 90.1727ZM41.0987 72.33L40.5869 71.4709C36.3757 73.9795 30.9325 74.0385 26.5604 71.1736L26.0124 72.01L25.4643 72.8465C30.5003 76.1464 36.7674 76.0741 41.6105 73.1891L41.0987 72.33ZM26.0124 72.01L26.5605 71.1736C22.1884 68.3085 20.0691 63.2944 20.6884 58.432L19.6964 58.3057L18.7044 58.1793C17.9922 63.7716 20.4285 69.5464 25.4642 72.8464L26.0124 72.01ZM19.6964 58.3057L19.1483 59.1421L27.9937 64.9382L28.5418 64.1018L29.0898 63.2654L20.2445 57.4692L19.6964 58.3057ZM28.5418 64.1018L28.8603 65.0497L36.3648 62.5275L36.0462 61.5796L35.7276 60.6317L28.2232 63.1539L28.5418 64.1018ZM36.0462 61.5796L37.0387 61.4572L36.1118 53.9415L35.1193 54.0639L34.1268 54.1863L35.0537 61.702L36.0462 61.5796ZM35.1193 54.0639L35.6371 53.2084L26.266 47.5359L25.7481 48.3914L25.2303 49.2469L34.6015 54.9194L35.1193 54.0639ZM69.5094 83.5059L68.6729 82.9579C67.5629 84.6518 68.0365 86.9248 69.7302 88.0348L70.2784 87.1984L70.8265 86.362C70.0564 85.8574 69.8413 84.824 70.3458 84.054L69.5094 83.5059ZM70.2784 87.1984L69.7303 88.0348C71.4242 89.1448 73.6973 88.6714 74.8073 86.9775L73.9708 86.4294L73.1344 85.8813C72.6298 86.6514 71.5965 86.8666 70.8264 86.362L70.2784 87.1984ZM73.9708 86.4294L74.8074 86.9773C75.9167 85.2837 75.4439 83.0105 73.7499 81.9005L73.2018 82.7369L72.6537 83.5734C73.4235 84.0778 73.6388 85.1113 73.1343 85.8815L73.9708 86.4294ZM73.2018 82.7369L73.7499 81.9005C72.056 80.7907 69.783 81.2645 68.673 82.9577L69.5094 83.5059L70.3457 84.0542C70.8504 83.2843 71.884 83.069 72.6538 83.5734L73.2018 82.7369Z" fill="black"/>
<mask id="path-2-inside-1_385_9934" fill="white">
<path d="M79.4051 16C80.5096 16.0001 81.4051 16.8955 81.4051 18V22.3887C83.0819 23.0886 84.6195 24.0556 85.9647 25.2363L89.8973 22.9668C90.8538 22.4147 92.0775 22.7427 92.6297 23.6992L96.5926 30.5635C97.1444 31.5199 96.8164 32.7427 95.8602 33.2949L91.5115 35.8047C91.584 36.4346 91.6229 37.0753 91.6229 37.7246C91.6228 38.6806 91.5406 39.6175 91.3856 40.5293L95.8611 43.1133C96.8174 43.6657 97.1447 44.8893 96.5926 45.8457L92.6297 52.709C92.0775 53.6654 90.8548 53.9933 89.8983 53.4414L85.284 50.7773C84.1087 51.7035 82.8057 52.475 81.4051 53.0596V58.2959C81.4051 59.4004 80.5096 60.2958 79.4051 60.2959L71.4793 60.2959C70.3748 60.2959 69.4793 59.4004 69.4793 58.2959V53.3896C67.8956 52.8303 66.4215 52.0393 65.0994 51.0547L60.9627 53.4434C60.0062 53.9954 58.7836 53.6672 58.2313 52.7109L54.2684 45.8467C53.7162 44.8902 54.0434 43.6676 54.9998 43.1152L58.7176 40.9678C58.51 39.9189 58.4012 38.8345 58.4012 37.7246C58.4012 36.92 58.4586 36.1285 58.5691 35.3545L55.0008 33.2939C54.0442 32.7417 53.7162 31.5181 54.2684 30.5615L58.2313 23.6973C58.7836 22.7408 60.0072 22.4136 60.9637 22.9658L64.3963 24.9473C65.8914 23.7037 67.6087 22.7182 69.4793 22.0576V18C69.4793 16.8955 70.3748 16 71.4793 16H79.4051ZM75.0125 31.3398C71.4842 31.34 68.6239 34.2002 68.6238 37.7285C68.6238 41.2569 71.4842 44.117 75.0125 44.1172C78.541 44.1172 81.4012 41.257 81.4012 37.7285C81.4011 34.2001 78.5409 31.3398 75.0125 31.3398Z"/>
</mask>
<path d="M79.4051 16L79.4053 14H79.4051V16ZM81.4051 18H83.4051H81.4051ZM81.4051 22.3887H79.4051C79.4051 23.1956 79.89 23.9235 80.6347 24.2344L81.4051 22.3887ZM85.9647 25.2363L84.6453 26.7394C85.2894 27.3048 86.2221 27.3969 86.9643 26.9686L85.9647 25.2363ZM89.8973 22.9668L90.897 24.699L90.897 24.699L89.8973 22.9668ZM92.6297 23.6992L94.3618 22.6993L94.3617 22.6992L92.6297 23.6992ZM96.5926 30.5635L98.325 29.5641L98.3247 29.5635L96.5926 30.5635ZM95.8602 33.2949L96.8599 35.0271L96.8603 35.0269L95.8602 33.2949ZM91.5115 35.8047L90.5118 34.0725C89.8214 34.471 89.4335 35.2414 89.5246 36.0333L91.5115 35.8047ZM91.6229 37.7246L93.6229 37.7246V37.7246H91.6229ZM91.3856 40.5293L89.4139 40.1939C89.2736 41.0185 89.6612 41.8432 90.3856 42.2613L91.3856 40.5293ZM95.8611 43.1133L96.8616 41.3815L96.8611 41.3812L95.8611 43.1133ZM96.5926 45.8457L98.3246 46.8458L98.3247 46.8456L96.5926 45.8457ZM92.6297 52.709L90.8977 51.7089L90.8976 51.709L92.6297 52.709ZM89.8983 53.4414L88.8982 55.1735L88.8987 55.1737L89.8983 53.4414ZM85.284 50.7773L86.284 49.0453C85.5753 48.6361 84.6888 48.7 84.0461 49.2065L85.284 50.7773ZM81.4051 53.0596L80.6347 51.2139C79.89 51.5247 79.4051 52.2526 79.4051 53.0596H81.4051ZM79.4051 60.2959V62.2959H79.4053L79.4051 60.2959ZM71.4793 60.2959L71.4792 62.2959H71.4793V60.2959ZM69.4793 53.3896H71.4793C71.4793 52.5418 70.9448 51.7861 70.1453 51.5038L69.4793 53.3896ZM65.0994 51.0547L66.2941 49.4507C65.6536 48.9737 64.7908 48.9234 64.0993 49.3227L65.0994 51.0547ZM60.9627 53.4434L61.9624 55.1756L61.9628 55.1754L60.9627 53.4434ZM58.2313 52.7109L56.4992 53.7109L56.4993 53.7112L58.2313 52.7109ZM54.2684 45.8467L56.0004 44.8467L56.0004 44.8467L54.2684 45.8467ZM54.9998 43.1152L56 44.8472L56.0002 44.8471L54.9998 43.1152ZM58.7176 40.9678L59.7179 42.6996C60.4591 42.2715 60.8457 41.4191 60.6795 40.5794L58.7176 40.9678ZM58.4012 37.7246H56.4012V37.7246L58.4012 37.7246ZM58.5691 35.3545L60.5491 35.6373C60.6646 34.8286 60.2767 34.031 59.5693 33.6225L58.5691 35.3545ZM55.0008 33.2939L56.0009 31.562L56.0008 31.5619L55.0008 33.2939ZM54.2684 30.5615L52.5363 29.5616L52.5363 29.5616L54.2684 30.5615ZM58.2313 23.6973L56.4993 22.6971L56.4992 22.6973L58.2313 23.6973ZM60.9637 22.9658L59.9637 24.6979L59.9638 24.698L60.9637 22.9658ZM64.3963 24.9473L63.3964 26.6794C64.1218 27.0981 65.0313 27.0205 65.6752 26.4849L64.3963 24.9473ZM69.4793 22.0576L70.1453 23.9435C70.9447 23.6612 71.4793 22.9054 71.4793 22.0576H69.4793ZM69.4793 18L67.4793 18V18H69.4793ZM71.4793 16V14H71.4792L71.4793 16ZM75.0125 31.3398V29.3398H75.0124L75.0125 31.3398ZM68.6238 37.7285L66.6238 37.7285V37.7285H68.6238ZM75.0125 44.1172L75.0124 46.1172H75.0125V44.1172ZM81.4012 37.7285H83.4012V37.7285L81.4012 37.7285ZM79.4051 16L79.4049 18H79.4051H81.4051H83.4051C83.4051 15.7907 81.614 14.0002 79.4053 14L79.4051 16ZM81.4051 18H79.4051V22.3887H81.4051H83.4051V18H81.4051ZM81.4051 22.3887L80.6347 24.2344C82.1083 24.8494 83.4609 25.6998 84.6453 26.7394L85.9647 25.2363L87.284 23.7332C85.778 22.4113 84.0556 21.3277 82.1754 20.543L81.4051 22.3887ZM85.9647 25.2363L86.9643 26.9686L90.897 24.699L89.8973 22.9668L88.8976 21.2346L84.965 23.5041L85.9647 25.2363ZM89.8973 22.9668L90.897 24.699L90.8976 24.6992L92.6297 23.6992L94.3617 22.6992C93.2573 20.7863 90.8107 20.1303 88.8975 21.2346L89.8973 22.9668ZM92.6297 23.6992L90.8976 24.6992L94.8605 31.5634L96.5926 30.5635L98.3247 29.5635L94.3618 22.6993L92.6297 23.6992ZM96.5926 30.5635L94.8602 31.5629L94.86 31.563L95.8602 33.2949L96.8603 35.0269C98.7725 33.9226 99.4287 31.4772 98.325 29.5641L96.5926 30.5635ZM95.8602 33.2949L94.8604 31.5627L90.5118 34.0725L91.5115 35.8047L92.5113 37.5369L96.8599 35.0271L95.8602 33.2949ZM91.5115 35.8047L89.5246 36.0333C89.5888 36.5908 89.6229 37.1551 89.6229 37.7246H91.6229H93.6229C93.6229 36.9955 93.5792 36.2783 93.4984 35.576L91.5115 35.8047ZM91.6229 37.7246L89.6229 37.7246C89.6228 38.5657 89.5505 39.3904 89.4139 40.1939L91.3856 40.5293L93.3572 40.8646C93.5307 39.8446 93.6228 38.7955 93.6229 37.7246L91.6229 37.7246ZM91.3856 40.5293L90.3856 42.2613L94.8611 44.8453L95.8611 43.1133L96.8611 41.3812L92.3856 38.7972L91.3856 40.5293ZM95.8611 43.1133L94.8607 44.8451L94.8605 44.8458L96.5926 45.8457L98.3247 46.8456C99.4286 44.9334 98.7746 42.4866 96.8616 41.3815L95.8611 43.1133ZM96.5926 45.8457L94.8606 44.8456L90.8977 51.7089L92.6297 52.709L94.3617 53.7091L98.3246 46.8458L96.5926 45.8457ZM92.6297 52.709L90.8976 51.709L90.8978 51.7091L89.8983 53.4414L88.8987 55.1737C90.812 56.2776 93.2575 55.6216 94.3617 53.709L92.6297 52.709ZM89.8983 53.4414L90.8983 51.7094L86.284 49.0453L85.284 50.7773L84.284 52.5094L88.8982 55.1735L89.8983 53.4414ZM85.284 50.7773L84.0461 49.2065C83.0111 50.0221 81.865 50.7004 80.6347 51.2139L81.4051 53.0596L82.1755 54.9053C83.7464 54.2496 85.2063 53.385 86.5219 52.3482L85.284 50.7773ZM81.4051 53.0596H79.4051V58.2959H81.4051H83.4051V53.0596H81.4051ZM81.4051 58.2959H79.4051H79.4049L79.4051 60.2959L79.4053 62.2959C81.614 62.2957 83.4051 60.5052 83.4051 58.2959H81.4051ZM79.4051 60.2959V58.2959L71.4793 58.2959V60.2959V62.2959L79.4051 62.2959V60.2959ZM71.4793 60.2959L71.4794 58.2959H71.4793H69.4793H67.4793C67.4793 60.5051 69.2703 62.2958 71.4792 62.2959L71.4793 60.2959ZM69.4793 58.2959H71.4793V53.3896H69.4793H67.4793V58.2959H69.4793ZM69.4793 53.3896L70.1453 51.5038C68.7526 51.0119 67.4564 50.3164 66.2941 49.4507L65.0994 51.0547L63.9048 52.6587C65.3865 53.7623 67.0387 54.6487 68.8133 55.2755L69.4793 53.3896ZM65.0994 51.0547L64.0993 49.3227L59.9626 51.7114L60.9627 53.4434L61.9628 55.1754L66.0995 52.7867L65.0994 51.0547ZM60.9627 53.4434L59.963 51.7112L59.9632 51.7107L58.2313 52.7109L56.4993 53.7112C57.6035 55.623 60.0487 56.2801 61.9624 55.1756L60.9627 53.4434ZM58.2313 52.7109L59.9633 51.711L56.0004 44.8467L54.2684 45.8467L52.5363 46.8466L56.4992 53.7109L58.2313 52.7109ZM54.2684 45.8467L56.0004 44.8467L56 44.8472L54.9998 43.1152L53.9996 41.3833C52.0863 42.4882 51.4321 44.9341 52.5363 46.8466L54.2684 45.8467ZM54.9998 43.1152L56.0002 44.8471L59.7179 42.6996L58.7176 40.9678L57.7172 39.2359L53.9995 41.3834L54.9998 43.1152ZM58.7176 40.9678L60.6795 40.5794C60.4971 39.6578 60.4012 38.7035 60.4012 37.7246L58.4012 37.7246L56.4012 37.7246C56.4012 38.9654 56.5228 40.1799 56.7557 41.3561L58.7176 40.9678ZM58.4012 37.7246H60.4012C60.4012 37.0152 60.4518 36.3182 60.5491 35.6373L58.5691 35.3545L56.5892 35.0717C56.4654 35.9388 56.4012 36.8248 56.4012 37.7246H58.4012ZM58.5691 35.3545L59.5693 33.6225L56.0009 31.562L55.0008 33.2939L54.0007 35.0259L57.569 37.0865L58.5691 35.3545ZM55.0008 33.2939L56.0008 31.5619L56.0005 31.5614L54.2684 30.5615L52.5363 29.5616C51.4317 31.475 52.088 33.9216 54.0008 35.026L55.0008 33.2939ZM54.2684 30.5615L56.0004 31.5615L59.9633 24.6972L58.2313 23.6973L56.4992 22.6973L52.5363 29.5616L54.2684 30.5615ZM58.2313 23.6973L59.9632 24.6974L59.9637 24.6979L60.9637 22.9658L61.9637 21.2338C60.0515 20.1298 57.6045 20.7833 56.4993 22.6971L58.2313 23.6973ZM60.9637 22.9658L59.9638 24.698L63.3964 26.6794L64.3963 24.9473L65.3962 23.2151L61.9635 21.2337L60.9637 22.9658ZM64.3963 24.9473L65.6752 26.4849C66.991 25.3905 68.5014 24.524 70.1453 23.9435L69.4793 22.0576L68.8133 20.1718C66.7161 20.9124 64.7918 22.0169 63.1174 23.4096L64.3963 24.9473ZM69.4793 22.0576H71.4793V18H69.4793H67.4793V22.0576L69.4793 22.0576ZM69.4793 18L71.4793 18L71.4794 18L71.4793 16L71.4792 14C69.2703 14.0001 67.4793 15.7908 67.4793 18L69.4793 18ZM71.4793 16V18H79.4051V16V14H71.4793V16ZM75.0125 31.3398L75.0124 29.3398C70.3797 29.34 66.624 33.0956 66.6238 37.7285L68.6238 37.7285L70.6238 37.7286C70.6239 35.3048 72.5888 33.3399 75.0126 33.3398L75.0125 31.3398ZM68.6238 37.7285H66.6238C66.6238 42.3615 70.3797 46.117 75.0124 46.1172L75.0125 44.1172L75.0126 42.1172C72.5887 42.1171 70.6238 40.1522 70.6238 37.7285H68.6238ZM75.0125 44.1172V46.1172C79.6455 46.1172 83.4012 42.3615 83.4012 37.7285H81.4012H79.4012C79.4012 40.1524 77.4364 42.1172 75.0125 42.1172V44.1172ZM81.4012 37.7285L83.4012 37.7285C83.401 33.0956 79.6455 29.3398 75.0125 29.3398V31.3398V33.3398C77.4363 33.3398 79.4011 35.3047 79.4012 37.7286L81.4012 37.7285Z" fill="black" mask="url(#path-2-inside-1_385_9934)"/>
</mask>
<g mask="url(#mask0_385_9934)">
<path d="M103 103.861L8.99999 103.861L9 15.8613L103 15.8613L103 103.861Z" fill="url(#paint0_linear_385_9934)"/>
</g>
<defs>
<linearGradient id="paint0_linear_385_9934" x1="56" y1="103.861" x2="56" y2="13.3229" gradientUnits="userSpaceOnUse">
<stop stop-color="#A34DEE"/>
<stop offset="1" stop-color="#6943F5"/>
</linearGradient>
</defs>
</svg>
