<svg width="85" height="85" viewBox="0 0 85 85" fill="none" xmlns="http://www.w3.org/2000/svg">
<path d="M47.9265 39.3037C48.2986 39.3416 48.5889 39.6561 48.5889 40.0382C48.5889 40.4203 48.2987 40.7349 47.9265 40.7727L47.8508 40.7763H37.3369C36.9293 40.7763 36.5989 40.4458 36.5989 40.0382C36.5989 39.6306 36.9293 39.3001 37.3369 39.3001H47.8508L47.9265 39.3037Z" fill="#121212"/>
<path fill-rule="evenodd" clip-rule="evenodd" d="M64.8733 21.5302C66.0432 21.5896 66.9736 22.5569 66.9736 23.7416V32.207C66.9736 33.4298 65.9822 34.4211 64.7594 34.4212H63.8844V61.8935C63.884 63.116 62.8928 64.1076 61.6702 64.1077H23.519C22.2964 64.1077 21.3052 63.116 21.3048 61.8935V34.4212H20.4291C19.2063 34.4211 18.2149 33.4298 18.2148 32.207V23.7416C18.2148 22.5187 19.2063 21.5275 20.4291 21.5273H64.7594L64.8733 21.5302ZM22.7809 34.4212V61.8935C22.7813 62.3008 23.1116 62.6315 23.519 62.6315H61.6702C62.0775 62.6314 62.4079 62.3007 62.4083 61.8935V34.4212H22.7809ZM20.4291 23.0035C20.0215 23.0036 19.691 23.334 19.691 23.7416V32.207C19.691 32.6146 20.0215 32.945 20.4291 32.9451H64.7594C65.167 32.945 65.4975 32.6146 65.4975 32.207V23.7416C65.4975 23.3593 65.2067 23.0447 64.8344 23.0071L64.7594 23.0035H20.4291Z" fill="#121212"/>
</svg>
