<svg width="85" height="85" viewBox="0 0 85 85" fill="none" xmlns="http://www.w3.org/2000/svg">
<path d="M67.1032 46.6551C67.1534 46.6537 67.2036 46.6578 67.253 46.6669C67.261 46.6683 67.2688 46.67 67.2766 46.6717C67.2925 46.6752 67.3082 46.679 67.3238 46.6835C67.3263 46.6843 67.3289 46.6848 67.3314 46.6856C67.3481 46.6907 67.3644 46.6966 67.3807 46.703C67.3863 46.7051 67.3918 46.7076 67.3973 46.7099C67.4128 46.7163 67.4281 46.7231 67.4431 46.7307C67.4464 46.7323 67.4496 46.7339 67.4529 46.7356C67.5215 46.7714 67.5855 46.8189 67.6416 46.8785C67.7175 46.9593 67.7701 47.0534 67.8011 47.1525C67.8031 47.1589 67.8048 47.1655 67.8067 47.172C67.8238 47.2328 67.8325 47.2952 67.833 47.3579C67.8331 47.3604 67.8337 47.363 67.8337 47.3655V60.7459C67.8337 61.1383 67.5156 61.4564 67.1233 61.4564C66.731 61.4563 66.4129 61.1382 66.4129 60.7459V49.007L57.2625 57.6059C54.7837 60.0805 51.7198 61.8887 48.3549 62.862C44.9829 63.8373 41.4183 63.9433 37.9946 63.1687C34.5708 62.3939 31.3986 60.7642 28.7748 58.4322C26.1511 56.1001 24.161 53.1412 22.99 49.8319L24.329 49.3581C25.42 52.4411 27.2747 55.1974 29.719 57.37C32.1634 59.5425 35.1185 61.0607 38.3082 61.7825C41.4978 62.5041 44.8187 62.406 47.9601 61.4973C51.1016 60.5886 53.962 58.899 56.2738 56.586L56.2898 56.57L65.3292 48.076H53.7429C53.3506 48.0759 53.0325 47.7578 53.0324 47.3655C53.0324 46.9732 53.3506 46.6551 53.7429 46.6551H67.1032Z" fill="#121212"/>
<path d="M23.4222 48.9252C23.7921 48.7943 24.1981 48.9882 24.329 49.3581L22.99 49.8319C22.8592 49.4622 23.0526 49.0562 23.4222 48.9252Z" fill="#121212"/>
<path d="M36.8311 22.9476C40.2032 21.9722 43.7676 21.8663 47.1914 22.641C50.6152 23.4156 53.7867 25.0455 56.4105 27.3775C59.0343 29.7095 61.0249 32.6684 62.196 35.9777C62.3268 36.3475 62.1329 36.7536 61.7631 36.8845C61.3933 37.0151 60.9872 36.8213 60.8563 36.4515C59.7653 33.3686 57.9113 30.6122 55.4669 28.4397C53.0226 26.2671 50.0675 24.7489 46.8778 24.0272C43.6881 23.3055 40.3674 23.4036 37.2258 24.3123C34.2806 25.1642 31.5827 26.7028 29.352 28.7976L28.9122 29.2236C28.907 29.2289 28.9016 29.2345 28.8962 29.2396L19.8541 37.7357H31.4424L31.5153 37.7392C31.8734 37.7756 32.1528 38.0784 32.1529 38.4462C32.1527 38.8138 31.8733 39.1167 31.5153 39.1531L31.4424 39.1566H18.062C17.7839 39.1565 17.5438 38.9961 17.4272 38.7632C17.4241 38.757 17.4211 38.7508 17.4182 38.7445C17.4013 38.7083 17.3871 38.6706 17.3765 38.6314C17.3753 38.627 17.3742 38.6226 17.3731 38.6182C17.3634 38.5796 17.3574 38.5397 17.3543 38.4989C17.3538 38.4917 17.3533 38.4846 17.353 38.4774C17.3525 38.467 17.3516 38.4566 17.3516 38.4462V25.0658C17.3516 24.6734 17.6697 24.3554 18.062 24.3553C18.4544 24.3553 18.7724 24.6734 18.7724 25.0658V36.8019L27.9228 28.2038C30.4017 25.729 33.4661 23.921 36.8311 22.9476Z" fill="#121212"/>
</svg>
