<svg width="113" height="113" viewBox="0 0 113 113" fill="none" xmlns="http://www.w3.org/2000/svg">
<path fill-rule="evenodd" clip-rule="evenodd" d="M79.3271 22.8291C80.9839 22.8292 82.3271 24.1723 82.3271 25.8291V85.4736C82.3268 87.1301 80.9837 88.4736 79.3271 88.4736H38.3672C35.9924 88.4735 33.7145 87.5297 32.0352 85.8506C30.4607 84.2762 29.5327 82.1753 29.4229 79.9619L29.4121 79.5176V31.7842C29.4122 29.4092 30.3558 27.1315 32.0352 25.4521C33.7145 23.7728 35.9922 22.8292 38.3672 22.8291H79.3271ZM38.3672 72.5615C36.5226 72.5616 34.7535 73.2943 33.4492 74.5986C32.145 75.9029 31.4122 77.6721 31.4121 79.5166L31.4209 79.8623C31.5062 81.5813 32.2265 83.2127 33.4492 84.4355C34.7535 85.7398 36.5227 86.4735 38.3672 86.4736H79.3271C79.8792 86.4736 80.3268 86.0256 80.3271 85.4736V72.5615H38.3672ZM38.3672 24.8291C36.5226 24.8292 34.7535 25.5619 33.4492 26.8662C32.1449 28.1705 31.4122 29.9396 31.4121 31.7842V73.877C31.6069 73.6367 31.8144 73.4053 32.0352 73.1846C33.7145 71.5052 35.9922 70.5616 38.3672 70.5615H80.3271V25.8291C80.3271 25.2769 79.8794 24.8292 79.3271 24.8291H38.3672Z" fill="white"/>
</svg>
