<svg width="113" height="113" viewBox="0 0 113 113" fill="none" xmlns="http://www.w3.org/2000/svg">
<path d="M42.4209 23.7832C42.9731 23.7832 43.4208 24.231 43.4209 24.7832V59.7734H48.3438C50.0003 59.7738 51.3438 61.1168 51.3438 62.7734V67.0332C51.3435 68.6896 50.0001 70.0328 48.3438 70.0332H43.4209V87.8428C43.4209 88.395 42.9732 88.8428 42.4209 88.8428C41.8688 88.8426 41.4209 88.3949 41.4209 87.8428V70.0332H36.5C34.8433 70.0332 33.5002 68.6899 33.5 67.0332V62.7734C33.5 61.1166 34.8431 59.7734 36.5 59.7734H41.4209V24.7832C41.421 24.2311 41.8688 23.7834 42.4209 23.7832ZM71.001 23.7822C71.5531 23.7824 72.0009 24.2301 72.001 24.7822V36.9766H76.9248C78.5813 36.9768 79.9246 38.3201 79.9248 39.9766V44.2363C79.9248 45.893 78.5814 47.2361 76.9248 47.2363H72.001V87.8428C72.0005 88.3946 71.5528 88.8426 71.001 88.8428C70.449 88.8428 70.0014 88.3947 70.001 87.8428V47.2363H65.0811C63.4242 47.2363 62.0811 45.8932 62.0811 44.2363V39.9766C62.0813 38.3199 63.4243 36.9766 65.0811 36.9766H70.001V24.7822C70.0011 24.23 70.4487 23.7822 71.001 23.7822ZM36.5 61.7734C35.9477 61.7734 35.5 62.2212 35.5 62.7734V67.0332C35.5002 67.5853 35.9479 68.0332 36.5 68.0332H48.3438C48.8956 68.0328 49.3435 67.5851 49.3438 67.0332V62.7734C49.3438 62.2214 48.8957 61.7738 48.3438 61.7734H36.5ZM65.0811 38.9766C64.5289 38.9766 64.0813 39.4245 64.0811 39.9766V44.2363C64.0811 44.7886 64.5288 45.2363 65.0811 45.2363H76.9248C77.4769 45.2361 77.9248 44.7884 77.9248 44.2363V39.9766C77.9246 39.4246 77.4767 38.9768 76.9248 38.9766H65.0811Z" fill="white"/>
</svg>
