<svg width="85" height="85" viewBox="0 0 85 85" fill="none" xmlns="http://www.w3.org/2000/svg">
<path d="M35.6505 18.8554C40.7797 17.6966 46.1462 18.2267 50.9496 20.3669C51.3171 20.5307 51.4827 20.9614 51.3189 21.329C51.155 21.6963 50.7242 21.8613 50.3568 21.6977C45.8405 19.6853 40.7941 19.1869 35.9714 20.2765C31.1488 21.3662 26.8073 23.9859 23.5949 27.7443C20.3827 31.5027 18.4714 36.1992 18.1461 41.1327C17.8208 46.0662 19.0992 50.9732 21.7903 55.121C24.4813 59.2685 28.441 62.4351 33.0787 64.1486C37.7165 65.862 42.7846 66.0307 47.526 64.6289C52.2671 63.227 56.4283 60.3297 59.3886 56.3699C62.3489 52.41 63.95 47.5989 63.953 42.6548V40.4787C63.953 40.0763 64.2793 39.7501 64.6817 39.75C65.0841 39.75 65.4104 40.0763 65.4104 40.4787V42.6555C65.4072 47.9139 63.7042 53.0307 60.5557 57.2423C57.4071 61.4539 52.9813 64.5356 47.9387 66.0265C42.896 67.5174 37.506 67.3379 32.5734 65.5156C27.6409 63.6932 23.4291 60.325 20.567 55.9137C17.705 51.5024 16.3456 46.2836 16.6915 41.0366C17.0375 35.7896 19.0705 30.7945 22.4869 26.7971C25.9035 22.7998 30.5213 20.0144 35.6505 18.8554Z" fill="white"/>
<path d="M67.3075 20.8764C67.5921 20.5922 68.0535 20.592 68.338 20.8764C68.6223 21.1609 68.6222 21.6223 68.338 21.9069L41.7718 48.473C41.4873 48.7576 41.026 48.7575 40.7414 48.473L32.7712 40.5036C32.4867 40.219 32.4867 39.757 32.7712 39.4725C33.0558 39.1884 33.5172 39.1883 33.8017 39.4725L41.2566 46.9274L67.3075 20.8764Z" fill="white"/>
</svg>
