<svg width="112" height="112" viewBox="0 0 112 112" fill="none" xmlns="http://www.w3.org/2000/svg">
<g clip-path="url(#clip0_2536_4939)">
<path d="M38.1289 29.3848C42.7333 27.6802 47.7242 27.3012 52.5332 28.291C57.3423 29.2809 61.7779 31.5998 65.335 34.9844C68.7039 38.19 71.1563 42.2301 72.4492 46.6875H75.6641C80.1143 46.6875 84.3825 48.4558 87.5293 51.6025C90.676 54.7493 92.4434 59.0176 92.4434 63.4678C92.4432 67.9177 90.6758 72.1854 87.5293 75.332C84.3825 78.4787 80.1142 80.2471 75.6641 80.2471H47.2607V80.2461C42.351 80.2496 37.5382 78.8769 33.3701 76.2822C29.202 73.6874 25.8447 69.9756 23.6807 65.5684C21.5166 61.161 20.6323 56.2345 21.1279 51.3496C21.6236 46.4648 23.4802 41.8164 26.4854 37.9336C29.4905 34.0511 33.5247 31.0894 38.1289 29.3848ZM52.1299 30.25C47.6873 29.3357 43.0768 29.6851 38.8232 31.2598C34.5697 32.8345 30.8426 35.5714 28.0664 39.1582C25.2903 42.7451 23.5761 47.0393 23.1182 51.5518C22.6603 56.0643 23.4775 60.6151 25.4766 64.6865C27.4757 68.758 30.5771 72.1869 34.4277 74.584C38.2783 76.981 42.7241 78.2504 47.2598 78.2471H75.6641C79.5838 78.2471 83.3435 76.6895 86.1152 73.918C88.8867 71.1464 90.4432 67.3872 90.4434 63.4678C90.4434 59.5481 88.8868 55.7883 86.1152 53.0166C83.3435 50.2449 79.5838 48.6875 75.6641 48.6875H71.6875C71.2317 48.6873 70.8337 48.3789 70.7197 47.9375C69.5858 43.5457 67.242 39.5603 63.9561 36.4336C60.6701 33.3069 56.5726 31.1645 52.1299 30.25Z" fill="#121212"/>
<path fill-rule="evenodd" clip-rule="evenodd" d="M38.1273 29.3846C42.7317 27.68 47.7225 27.301 52.5316 28.2908C57.3407 29.2807 61.7763 31.5996 65.3333 34.9842C68.7023 38.1898 71.1546 42.2299 72.4476 46.6873H75.6624C80.1126 46.6873 84.3809 48.4556 87.5277 51.6023C90.6743 54.7491 92.4417 59.0174 92.4417 63.4676C92.4416 67.9175 90.6741 72.1852 87.5277 75.3318C84.3809 78.4785 80.1126 80.2469 75.6624 80.2469H47.2591C42.3494 80.2504 37.5366 78.8767 33.3685 76.282C29.2004 73.6872 25.843 69.9753 23.679 65.5681C21.515 61.1608 20.6306 56.2343 21.1263 51.3494C21.622 46.4646 23.4785 41.8161 26.4837 37.9334C29.4888 34.0509 33.5231 31.0892 38.1273 29.3846ZM52.1282 30.2498C47.6857 29.3355 43.0751 29.6849 38.8216 31.2596C34.5681 32.8343 30.841 35.5712 28.0648 39.158C25.2887 42.7449 23.5744 47.0391 23.1165 51.5515C22.6587 56.0641 23.4758 60.6149 25.4749 64.6863C27.4741 68.7578 30.5755 72.1867 34.4261 74.5838C38.2767 76.9808 42.7224 78.2502 47.2581 78.2469H75.6624C79.5821 78.2469 83.3419 76.6893 86.1136 73.9178C88.885 71.1462 90.4416 67.387 90.4417 63.4676C90.4417 59.5478 88.8852 55.7881 86.1136 53.0164C83.3419 50.2447 79.5822 48.6873 75.6624 48.6873H71.6859C71.23 48.6871 70.8321 48.3786 70.7181 47.9373C69.5841 43.5455 67.2404 39.5601 63.9544 36.4334C60.6684 33.3067 56.5709 31.1643 52.1282 30.2498Z" fill="#121212"/>
</g>
<defs>
<clipPath id="clip0_2536_4939">
<rect width="112" height="112" fill="white"/>
</clipPath>
</defs>
</svg>
