<svg width="112" height="113" viewBox="0 0 112 113" fill="none" xmlns="http://www.w3.org/2000/svg">
<path fill-rule="evenodd" clip-rule="evenodd" d="M56.4791 21.3389C63.1111 21.3389 68.4874 26.7153 68.4876 33.3473V38.9803H81.1544L81.2504 38.9849C81.7225 39.033 82.0908 39.432 82.0908 39.9167V82.0022C82.0906 85.622 79.156 88.5569 75.5361 88.5569H36.461C32.8413 88.5566 29.9065 85.6219 29.9062 82.0022V39.9167L29.9108 39.8207C29.9589 39.3488 30.3581 38.9805 30.8426 38.9803H43.5086V33.3473C43.5087 26.7155 48.8852 21.3391 55.5171 21.3389H56.4791ZM31.779 82.0022C31.7793 84.5876 33.8756 86.6839 36.461 86.6841H75.5361C78.1217 86.6841 80.2178 84.5877 80.218 82.0022V40.8531H68.4876V47.7425C68.4876 48.2597 68.0683 48.6789 67.5512 48.6789C67.0343 48.6786 66.6148 48.2595 66.6148 47.7425V40.8531H45.3814V47.7425C45.3814 48.2597 44.9621 48.6789 44.445 48.6789C43.928 48.6787 43.5086 48.2595 43.5086 47.7425V40.8531H31.779V82.0022ZM55.5171 23.2116C49.9195 23.2119 45.3815 27.7498 45.3814 33.3473V38.9803H66.6148V33.3473C66.6147 27.7496 62.0768 23.2116 56.4791 23.2116H55.5171Z" fill="#121212"/>
</svg>
