<svg width="119" height="28" viewBox="0 0 119 28" fill="none" xmlns="http://www.w3.org/2000/svg">
<path d="M14 28C21.7384 28 28 21.7384 28 14C28 6.2616 21.7384 0 14 0C6.2616 0 0 6.2616 0 14C0.0196906 21.7384 6.28129 28 14 28Z" fill="#A50034"/>
<path d="M9.55016 11.2041C10.4756 11.2041 11.2239 10.4558 11.2239 9.53039C11.2239 8.60493 10.4756 7.85669 9.55016 7.85669C8.62471 7.85669 7.87646 8.60493 7.87646 9.53039C7.87646 10.4558 8.62471 11.2041 9.55016 11.2041Z" fill="white"/>
<path d="M14.5706 2.30387C14.4328 2.30387 14.1571 2.28418 13.9996 2.28418C7.54108 2.28418 2.28369 7.54156 2.28369 14.0001C2.28369 17.1309 3.50451 20.0648 5.70985 22.2898C7.9152 24.4951 10.8688 25.716 13.9996 25.716C17.1304 25.716 20.0643 24.4951 22.2893 22.2898C24.4947 20.0845 25.7155 17.1309 25.7155 14.0001V13.4684H17.3667V14.5514H24.6128V14.7089C24.2387 20.2223 19.6311 24.6133 14.0193 24.6133C11.1838 24.6133 8.5256 23.5106 6.51716 21.5022C4.48904 19.5134 3.38636 16.8355 3.38636 14.0001C3.38636 11.1646 4.48904 8.5064 6.49747 6.49796C8.50591 4.48952 11.1641 3.38685 13.9996 3.38685C14.1177 3.38685 14.4328 3.38685 14.5706 3.40654V2.30387Z" fill="white"/>
<path d="M13.4482 7.85669V20.1239H17.3667V19.0409H14.5706V7.85669H13.4482Z" fill="white"/>
<path d="M117.947 6.10391C116.234 5.09969 113.654 4.62711 111.823 4.62711C106.979 4.62711 104.734 6.79308 104.734 9.8845C104.734 12.5427 106.743 14.1574 108.928 15.004C110.011 15.3979 111.213 15.8114 112.118 16.0673C113.575 16.4808 114.146 17.17 114.146 18.1742C114.146 19.4344 113.26 20.1827 110.957 20.1827C109.381 20.1827 107.314 19.5526 105.837 18.7059L104.459 21.7776C106.349 22.8606 108.889 23.4316 110.996 23.4316C115.525 23.4316 118.163 21.1672 118.163 18.0364C118.163 14.9056 116.588 14.0195 114.816 13.2516C114.127 12.9759 112.847 12.5624 112.177 12.3655C109.913 11.7354 108.692 11.1644 108.692 9.6679C108.692 8.56523 109.421 7.69884 111.902 7.69884C113.694 7.69884 115.446 8.30925 116.647 8.99842L117.947 6.10391ZM99.3392 4.88309V19.7101H98.8863L93.6486 4.88309H86.56V23.0969H90.3996V8.03358H90.8919L96.0705 23.0969H103.159V4.88309H99.3392ZM85.2801 7.02936C83.7048 5.2769 81.1254 4.60742 78.8019 4.60742C73.4264 4.60742 70.1577 7.81699 70.1577 13.9998C70.1577 20.1827 72.6781 23.3922 78.7625 23.3922C81.0269 23.3922 83.4095 22.8606 85.0241 21.9154L84.1183 18.8831C82.8188 19.5329 80.8694 19.9661 79.0382 19.9661C75.2182 19.9661 74.214 17.5244 74.214 13.9604C74.214 9.80573 76.0649 7.81699 78.9594 7.81699C80.6725 7.81699 82.1099 8.56523 83.0747 9.56945L85.2801 7.02936Z" fill="#6B6B6B"/>
<path d="M56.5316 16.1659H59.9578V19.3558C59.3277 19.592 58.0872 19.8283 56.9254 19.8283C53.1448 19.8283 51.8846 17.8986 51.8846 13.9999C51.8846 10.1012 53.0858 8.07305 56.8664 8.07305C58.9732 8.07305 60.1744 8.74253 61.1589 10.0027L63.7777 7.60047C62.1828 5.31637 59.3867 4.6272 56.7679 4.6272C50.8804 4.6272 47.7693 7.83676 47.7693 13.9802C47.7693 20.1237 50.5654 23.3923 56.7285 23.3923C59.564 23.3923 62.3206 22.6638 63.8171 21.6202V12.7791H56.5119V16.1659H56.5316ZM38.5541 4.88317H34.3403V23.097H47.277V19.5527H38.5541V4.88317Z" fill="#6B6B6B"/>
</svg>
